<svg xmlns="http://www.w3.org/2000/svg" version="1.0" width="3840mm" height="3840mm" viewBox="0 0 3840 3840"><path fill="none" stroke="Black" stroke-width="0.01"  class="horizontal" d="M 0.0,256.0 C 51.2 260.19 124.51 290.0 92.83 238.8 C 61.15 187.6 163.55 187.6 144.03 238.8 C 124.51 290.0 204.8 261.59 256.0 256.0 C 307.2 250.41 394.75 221.69 365.49 272.89 C 336.24 324.09 438.64 324.09 416.69 272.89 C 394.75 221.69 460.8 260.02 512.0 256.0 C 563.2 251.98 633.59 277.54 615.87 226.34 C 598.15 175.14 700.55 175.14 667.07 226.34 C 633.59 277.54 716.8 262.7 768.0 256.0 C 819.2 249.3 878.03 271.7 862.22 220.5 C 846.41 169.3 948.81 169.3 913.42 220.5 C 878.03 271.7 972.8 251.99 1024.0 256.0 C 1075.2 260.01 1157.18 278.91 1132.14 227.71 C 1107.1 176.51 1209.5 176.51 1183.34 227.71 C 1157.18 278.91 1228.8 246.48 1280.0 256.0 C 1331.2 265.52 1415.28 284.52 1392.44 233.32 C 1369.6 182.12 1472.0 182.12 1443.64 233.32 C 1415.28 284.52 1484.8 246.39 1536.0 256.0 C 1587.2 265.61 1662.59 240.18 1636.71 291.38 C 1610.84 342.58 1713.24 342.58 1687.91 291.38 C 1662.59 240.18 1740.8 265.53 1792.0 256.0 C 1843.2 246.47 1936.87 231.37 1902.13 282.57 C 1867.4 333.77 1969.8 333.77 1953.33 282.57 C 1936.87 231.37 1996.8 255.45 2048.0 256.0 C 2099.2 256.55 2188.93 239.01 2155.3 290.21 C 2121.68 341.41 2224.08 341.41 2206.5 290.21 C 2188.93 239.01 2252.8 251.5 2304.0 256.0 C 2355.2 260.5 2422.95 228.17 2398.74 279.37 C 2374.52 330.57 2476.92 330.57 2449.94 279.37 C 2422.95 228.17 2508.8 246.79 2560.0 256.0 C 2611.2 265.21 2675.17 281.95 2658.1 230.75 C 2641.03 179.55 2743.43 179.55 2709.3 230.75 C 2675.17 281.95 2764.8 260.78 2816.0 256.0 C 2867.2 251.22 2956.53 280.35 2925.17 229.15 C 2893.81 177.95 2996.21 177.95 2976.37 229.15 C 2956.53 280.35 3020.8 253.21 3072.0 256.0 C 3123.2 258.79 3189.88 288.13 3173.6 236.93 C 3157.31 185.73 3259.71 185.73 3224.8 236.93 C 3189.88 288.13 3276.8 264.35 3328.0 256.0 C 3379.2 247.65 3460.13 288.0 3431.84 236.8 C 3403.54 185.6 3505.94 185.6 3483.04 236.8 C 3460.13 288.0 3532.8 251.5 3584.0 256.0 C 3635.2 260.5 3706.46 274.94 3688.13 223.74 C 3669.8 172.54 3772.2 172.54 3739.33 223.74 C 3706.46 274.94 3788.8 251.46 3840.0 256.0 M 0.0,512.0 C 51.2 519.05 137.79 543.32 106.33 492.12 C 74.87 440.92 177.27 440.92 157.53 492.12 C 137.79 543.32 204.8 502.77 256.0 512.0 C 307.2 521.23 385.35 492.86 357.43 544.06 C 329.51 595.26 431.91 595.26 408.63 544.06 C 385.35 492.86 460.8 517.52 512.0 512.0 C 563.2 506.48 642.06 532.85 607.86 481.65 C 573.65 430.45 676.05 430.45 659.06 481.65 C 642.06 532.85 716.8 507.31 768.0 512.0 C 819.2 516.69 901.4 495.97 879.59 547.17 C 857.78 598.37 960.18 598.37 930.79 547.17 C 901.4 495.97 972.8 517.75 1024.0 512.0 C 1075.2 506.25 1149.15 539.82 1121.34 488.62 C 1093.53 437.42 1195.93 437.42 1172.54 488.62 C 1149.15 539.82 1228.8 512.49 1280.0 512.0 C 1331.2 511.51 1406.83 533.65 1377.72 482.45 C 1348.62 431.25 1451.02 431.25 1428.92 482.45 C 1406.83 533.65 1484.8 510.69 1536.0 512.0 C 1587.2 513.31 1667.4 491.42 1641.75 542.62 C 1616.11 593.82 1718.51 593.82 1692.95 542.62 C 1667.4 491.42 1740.8 501.91 1792.0 512.0 C 1843.2 522.09 1915.14 482.5 1885.88 533.7 C 1856.61 584.9 1959.01 584.9 1937.08 533.7 C 1915.14 482.5 1996.8 513.65 2048.0 512.0 C 2099.2 510.35 2175.92 486.94 2141.69 538.14 C 2107.46 589.34 2209.86 589.34 2192.89 538.14 C 2175.92 486.94 2252.8 502.29 2304.0 512.0 C 2355.2 521.71 2426.72 493.48 2405.47 544.68 C 2384.22 595.88 2486.62 595.88 2456.67 544.68 C 2426.72 493.48 2508.8 516.27 2560.0 512.0 C 2611.2 507.73 2675.0 536.49 2658.1 485.29 C 2641.2 434.09 2743.6 434.09 2709.3 485.29 C 2675.0 536.49 2764.8 515.17 2816.0 512.0 C 2867.2 508.83 2936.01 483.22 2912.07 534.42 C 2888.12 585.62 2990.52 585.62 2963.27 534.42 C 2936.01 483.22 3020.8 508.32 3072.0 512.0 C 3123.2 515.68 3202.29 490.55 3176.49 541.75 C 3150.7 592.95 3253.1 592.95 3227.69 541.75 C 3202.29 490.55 3276.8 506.86 3328.0 512.0 C 3379.2 517.14 3456.31 536.56 3420.86 485.36 C 3385.42 434.16 3487.82 434.16 3472.06 485.36 C 3456.31 536.56 3532.8 521.21 3584.0 512.0 C 3635.2 502.79 3713.1 491.75 3684.96 542.95 C 3656.82 594.15 3759.22 594.15 3736.16 542.95 C 3713.1 491.75 3788.8 507.81 3840.0 512.0 M 0.0,768.0 C 51.2 762.7 115.87 742.12 92.86 793.32 C 69.85 844.52 172.25 844.52 144.06 793.32 C 115.87 742.12 204.8 767.42 256.0 768.0 C 307.2 768.58 381.24 795.18 349.34 743.98 C 317.44 692.78 419.84 692.78 400.54 743.98 C 381.24 795.18 460.8 773.65 512.0 768.0 C 563.2 762.35 640.26 750.31 619.57 801.51 C 598.88 852.71 701.28 852.71 670.77 801.51 C 640.26 750.31 716.8 771.94 768.0 768.0 C 819.2 764.06 881.04 747.4 862.14 798.6 C 843.25 849.8 945.65 849.8 913.34 798.6 C 881.04 747.4 972.8 765.36 1024.0 768.0 C 1075.2 770.64 1144.48 794.33 1124.07 743.13 C 1103.67 691.93 1206.07 691.93 1175.27 743.13 C 1144.48 794.33 1228.8 775.14 1280.0 768.0 C 1331.2 760.86 1427.88 793.29 1392.17 742.09 C 1356.47 690.89 1458.87 690.89 1443.37 742.09 C 1427.88 793.29 1484.8 765.77 1536.0 768.0 C 1587.2 770.23 1669.44 790.27 1647.1 739.07 C 1624.77 687.87 1727.17 687.87 1698.3 739.07 C 1669.44 790.27 1740.8 771.1 1792.0 768.0 C 1843.2 764.9 1927.55 744.65 1899.76 795.85 C 1871.97 847.05 1974.37 847.05 1950.96 795.85 C 1927.55 744.65 1996.8 777.07 2048.0 768.0 C 2099.2 758.93 2171.95 747.19 2153.68 798.39 C 2135.41 849.59 2237.81 849.59 2204.88 798.39 C 2171.95 747.19 2252.8 757.94 2304.0 768.0 C 2355.2 778.06 2424.55 801.81 2406.15 750.61 C 2387.75 699.41 2490.15 699.41 2457.35 750.61 C 2424.55 801.81 2508.8 757.96 2560.0 768.0 C 2611.2 778.04 2697.1 735.98 2669.9 787.18 C 2642.69 838.38 2745.09 838.38 2721.1 787.18 C 2697.1 735.98 2764.8 770.71 2816.0 768.0 C 2867.2 765.29 2941.38 740.42 2925.77 791.62 C 2910.17 842.82 3012.57 842.82 2976.97 791.62 C 2941.38 740.42 3020.8 776.92 3072.0 768.0 C 3123.2 759.08 3186.35 796.7 3166.52 745.5 C 3146.69 694.3 3249.09 694.3 3217.72 745.5 C 3186.35 796.7 3276.8 761.1 3328.0 768.0 C 3379.2 774.9 3457.89 788.62 3430.36 737.42 C 3402.84 686.22 3505.24 686.22 3481.56 737.42 C 3457.89 788.62 3532.8 773.37 3584.0 768.0 C 3635.2 762.63 3710.07 739.68 3691.46 790.88 C 3672.86 842.08 3775.26 842.08 3742.66 790.88 C 3710.07 739.68 3788.8 773.96 3840.0 768.0 M 0.0,1024.0 C 51.2 1014.02 129.41 989.78 100.56 1040.98 C 71.71 1092.18 174.11 1092.18 151.76 1040.98 C 129.41 989.78 204.8 1013.78 256.0 1024.0 C 307.2 1034.22 368.4 988.33 352.38 1039.53 C 336.36 1090.73 438.76 1090.73 403.58 1039.53 C 368.4 988.33 460.8 1026.18 512.0 1024.0 C 563.2 1021.82 628.53 993.69 607.08 1044.89 C 585.63 1096.09 688.03 1096.09 658.28 1044.89 C 628.53 993.69 716.8 1020.17 768.0 1024.0 C 819.2 1027.83 888.74 997.49 871.77 1048.69 C 854.79 1099.89 957.19 1099.89 922.97 1048.69 C 888.74 997.49 972.8 1025.71 1024.0 1024.0 C 1075.2 1022.29 1146.74 997.51 1121.06 1048.71 C 1095.39 1099.91 1197.79 1099.91 1172.26 1048.71 C 1146.74 997.51 1228.8 1023.5 1280.0 1024.0 C 1331.2 1024.5 1406.82 1042.33 1386.01 991.13 C 1365.21 939.93 1467.61 939.93 1437.21 991.13 C 1406.82 1042.33 1484.8 1024.44 1536.0 1024.0 C 1587.2 1023.56 1682.19 1054.18 1646.76 1002.98 C 1611.34 951.78 1713.74 951.78 1697.96 1002.98 C 1682.19 1054.18 1740.8 1014.6 1792.0 1024.0 C 1843.2 1033.4 1933.54 1058.27 1899.02 1007.07 C 1864.51 955.87 1966.91 955.87 1950.22 1007.07 C 1933.54 1058.27 1996.8 1034.15 2048.0 1024.0 C 2099.2 1013.85 2180.55 1055.19 2158.86 1003.99 C 2137.17 952.79 2239.57 952.79 2210.06 1003.99 C 2180.55 1055.19 2252.8 1022.83 2304.0 1024.0 C 2355.2 1025.17 2431.5 1006.3 2400.63 1057.5 C 2369.75 1108.7 2472.15 1108.7 2451.83 1057.5 C 2431.5 1006.3 2508.8 1028.16 2560.0 1024.0 C 2611.2 1019.84 2685.94 1047.3 2652.87 996.1 C 2619.8 944.9 2722.2 944.9 2704.07 996.1 C 2685.94 1047.3 2764.8 1033.51 2816.0 1024.0 C 2867.2 1014.49 2949.8 994.2 2919.68 1045.4 C 2889.56 1096.6 2991.96 1096.6 2970.88 1045.4 C 2949.8 994.2 3020.8 1026.41 3072.0 1024.0 C 3123.2 1021.59 3199.43 1007.46 3183.86 1058.66 C 3168.28 1109.86 3270.68 1109.86 3235.06 1058.66 C 3199.43 1007.46 3276.8 1032.45 3328.0 1024.0 C 3379.2 1015.55 3471.59 1008.56 3439.0 1059.76 C 3406.4 1110.96 3508.8 1110.96 3490.2 1059.76 C 3471.59 1008.56 3532.8 1031.88 3584.0 1024.0 C 3635.2 1016.12 3701.41 1055.0 3676.63 1003.8 C 3651.86 952.6 3754.26 952.6 3727.83 1003.8 C 3701.41 1055.0 3788.8 1022.15 3840.0 1024.0 M 0.0,1280.0 C 51.2 1283.01 135.2 1257.26 110.61 1308.46 C 86.02 1359.66 188.42 1359.66 161.81 1308.46 C 135.2 1257.26 204.8 1283.1 256.0 1280.0 C 307.2 1276.9 387.03 1246.35 363.23 1297.55 C 339.42 1348.75 441.82 1348.75 414.43 1297.55 C 387.03 1246.35 460.8 1276.8 512.0 1280.0 C 563.2 1283.2 644.97 1296.0 624.34 1244.8 C 603.71 1193.6 706.11 1193.6 675.54 1244.8 C 644.97 1296.0 716.8 1289.59 768.0 1280.0 C 819.2 1270.41 886.09 1308.54 866.01 1257.34 C 845.93 1206.14 948.33 1206.14 917.21 1257.34 C 886.09 1308.54 972.8 1272.8 1024.0 1280.0 C 1075.2 1287.2 1145.77 1258.19 1117.14 1309.39 C 1088.5 1360.59 1190.9 1360.59 1168.34 1309.39 C 1145.77 1258.19 1228.8 1273.79 1280.0 1280.0 C 1331.2 1286.21 1397.34 1312.2 1374.1 1261.0 C 1350.86 1209.8 1453.26 1209.8 1425.3 1261.0 C 1397.34 1312.2 1484.8 1282.72 1536.0 1280.0 C 1587.2 1277.28 1652.43 1247.69 1632.83 1298.89 C 1613.23 1350.09 1715.63 1350.09 1684.03 1298.89 C 1652.43 1247.69 1740.8 1276.28 1792.0 1280.0 C 1843.2 1283.72 1910.96 1295.36 1894.36 1244.16 C 1877.77 1192.96 1980.17 1192.96 1945.56 1244.16 C 1910.96 1295.36 1996.8 1277.52 2048.0 1280.0 C 2099.2 1282.48 2165.09 1246.95 2148.05 1298.15 C 2131.01 1349.35 2233.41 1349.35 2199.25 1298.15 C 2165.09 1246.95 2252.8 1289.0 2304.0 1280.0 C 2355.2 1271.0 2437.72 1262.33 2406.86 1313.53 C 2376.01 1364.73 2478.41 1364.73 2458.06 1313.53 C 2437.72 1262.33 2508.8 1284.29 2560.0 1280.0 C 2611.2 1275.71 2689.9 1254.5 2665.5 1305.7 C 2641.1 1356.9 2743.5 1356.9 2716.7 1305.7 C 2689.9 1254.5 2764.8 1276.32 2816.0 1280.0 C 2867.2 1283.68 2945.27 1312.08 2910.58 1260.88 C 2875.88 1209.68 2978.28 1209.68 2961.78 1260.88 C 2945.27 1312.08 3020.8 1274.14 3072.0 1280.0 C 3123.2 1285.86 3188.52 1307.74 3170.69 1256.54 C 3152.85 1205.34 3255.25 1205.34 3221.89 1256.54 C 3188.52 1307.74 3276.8 1274.28 3328.0 1280.0 C 3379.2 1285.72 3453.4 1261.41 3433.79 1312.61 C 3414.18 1363.81 3516.58 1363.81 3484.99 1312.61 C 3453.4 1261.41 3532.8 1271.17 3584.0 1280.0 C 3635.2 1288.83 3709.78 1309.93 3677.17 1258.73 C 3644.57 1207.53 3746.97 1207.53 3728.37 1258.73 C 3709.78 1309.93 3788.8 1273.37 3840.0 1280.0 M 0.0,1536.0 C 51.2 1539.05 127.0 1516.9 109.57 1568.1 C 92.14 1619.3 194.54 1619.3 160.77 1568.1 C 127.0 1516.9 204.8 1538.72 256.0 1536.0 C 307.2 1533.28 393.27 1510.38 367.68 1561.58 C 342.09 1612.78 444.49 1612.78 418.88 1561.58 C 393.27 1510.38 460.8 1538.2 512.0 1536.0 C 563.2 1533.8 644.22 1511.47 609.82 1562.67 C 575.42 1613.87 677.82 1613.87 661.02 1562.67 C 644.22 1511.47 716.8 1528.76 768.0 1536.0 C 819.2 1543.24 887.2 1559.52 870.34 1508.32 C 853.49 1457.12 955.89 1457.12 921.54 1508.32 C 887.2 1559.52 972.8 1542.71 1024.0 1536.0 C 1075.2 1529.29 1160.78 1565.25 1130.83 1514.05 C 1100.87 1462.85 1203.27 1462.85 1182.03 1514.05 C 1160.78 1565.25 1228.8 1526.21 1280.0 1536.0 C 1331.2 1545.79 1400.79 1503.42 1379.37 1554.62 C 1357.96 1605.82 1460.36 1605.82 1430.57 1554.62 C 1400.79 1503.42 1484.8 1537.41 1536.0 1536.0 C 1587.2 1534.59 1645.2 1565.12 1628.95 1513.92 C 1612.7 1462.72 1715.1 1462.72 1680.15 1513.92 C 1645.2 1565.12 1740.8 1536.43 1792.0 1536.0 C 1843.2 1535.57 1909.91 1505.58 1892.1 1556.78 C 1874.29 1607.98 1976.69 1607.98 1943.3 1556.78 C 1909.91 1505.58 1996.8 1538.04 2048.0 1536.0 C 2099.2 1533.96 2179.53 1558.75 2144.36 1507.55 C 2109.18 1456.35 2211.58 1456.35 2195.56 1507.55 C 2179.53 1558.75 2252.8 1527.09 2304.0 1536.0 C 2355.2 1544.91 2436.42 1504.9 2402.07 1556.1 C 2367.73 1607.3 2470.13 1607.3 2453.27 1556.1 C 2436.42 1504.9 2508.8 1533.75 2560.0 1536.0 C 2611.2 1538.25 2687.57 1500.77 2654.82 1551.97 C 2622.07 1603.17 2724.47 1603.17 2706.02 1551.97 C 2687.57 1500.77 2764.8 1533.32 2816.0 1536.0 C 2867.2 1538.68 2952.44 1514.67 2925.82 1565.87 C 2899.21 1617.07 3001.61 1617.07 2977.02 1565.87 C 2952.44 1514.67 3020.8 1538.26 3072.0 1536.0 C 3123.2 1533.74 3195.82 1501.02 3177.35 1552.22 C 3158.88 1603.42 3261.28 1603.42 3228.55 1552.22 C 3195.82 1501.02 3276.8 1539.7 3328.0 1536.0 C 3379.2 1532.3 3445.95 1515.91 3422.62 1567.11 C 3399.28 1618.31 3501.68 1618.31 3473.82 1567.11 C 3445.95 1515.91 3532.8 1528.69 3584.0 1536.0 C 3635.2 1543.31 3704.45 1569.05 3680.77 1517.85 C 3657.09 1466.65 3759.49 1466.65 3731.97 1517.85 C 3704.45 1569.05 3788.8 1529.96 3840.0 1536.0 M 0.0,1792.0 C 51.2 1782.73 125.31 1814.28 105.48 1763.08 C 85.65 1711.88 188.05 1711.88 156.68 1763.08 C 125.31 1814.28 204.8 1786.77 256.0 1792.0 C 307.2 1797.23 388.9 1766.72 358.58 1817.92 C 328.27 1869.12 430.67 1869.12 409.78 1817.92 C 388.9 1766.72 460.8 1801.84 512.0 1792.0 C 563.2 1782.16 631.17 1827.8 610.04 1776.6 C 588.9 1725.4 691.3 1725.4 661.24 1776.6 C 631.17 1827.8 716.8 1785.42 768.0 1792.0 C 819.2 1798.58 895.07 1819.21 864.32 1768.01 C 833.57 1716.81 935.97 1716.81 915.52 1768.01 C 895.07 1819.21 972.8 1788.14 1024.0 1792.0 C 1075.2 1795.86 1157.09 1817.22 1132.87 1766.02 C 1108.64 1714.82 1211.04 1714.82 1184.07 1766.02 C 1157.09 1817.22 1228.8 1792.28 1280.0 1792.0 C 1331.2 1791.72 1401.77 1824.05 1373.72 1772.85 C 1345.68 1721.65 1448.08 1721.65 1424.92 1772.85 C 1401.77 1824.05 1484.8 1799.08 1536.0 1792.0 C 1587.2 1784.92 1668.82 1772.38 1640.62 1823.58 C 1612.42 1874.78 1714.82 1874.78 1691.82 1823.58 C 1668.82 1772.38 1740.8 1800.66 1792.0 1792.0 C 1843.2 1783.34 1910.4 1814.39 1888.04 1763.19 C 1865.69 1711.99 1968.09 1711.99 1939.24 1763.19 C 1910.4 1814.39 1996.8 1797.67 2048.0 1792.0 C 2099.2 1786.33 2189.96 1761.47 2156.85 1812.67 C 2123.74 1863.87 2226.14 1863.87 2208.05 1812.67 C 2189.96 1761.47 2252.8 1791.2 2304.0 1792.0 C 2355.2 1792.8 2437.26 1760.16 2414.7 1811.36 C 2392.15 1862.56 2494.55 1862.56 2465.9 1811.36 C 2437.26 1760.16 2508.8 1794.83 2560.0 1792.0 C 2611.2 1789.17 2702.55 1771.88 2670.05 1823.08 C 2637.54 1874.28 2739.94 1874.28 2721.25 1823.08 C 2702.55 1771.88 2764.8 1800.71 2816.0 1792.0 C 2867.2 1783.29 2935.16 1811.09 2908.33 1759.89 C 2881.5 1708.69 2983.9 1708.69 2959.53 1759.89 C 2935.16 1811.09 3020.8 1796.24 3072.0 1792.0 C 3123.2 1787.76 3188.36 1811.36 3171.39 1760.16 C 3154.42 1708.96 3256.82 1708.96 3222.59 1760.16 C 3188.36 1811.36 3276.8 1788.92 3328.0 1792.0 C 3379.2 1795.08 3444.32 1821.91 3425.52 1770.71 C 3406.72 1719.51 3509.12 1719.51 3476.72 1770.71 C 3444.32 1821.91 3532.8 1800.16 3584.0 1792.0 C 3635.2 1783.84 3702.73 1814.75 3679.2 1763.55 C 3655.68 1712.35 3758.08 1712.35 3730.4 1763.55 C 3702.73 1814.75 3788.8 1787.87 3840.0 1792.0 M 0.0,2048.0 C 51.2 2056.84 140.18 2066.44 110.63 2015.24 C 81.07 1964.04 183.47 1964.04 161.83 2015.24 C 140.18 2066.44 204.8 2045.45 256.0 2048.0 C 307.2 2050.55 400.98 2077.29 366.39 2026.09 C 331.79 1974.89 434.19 1974.89 417.59 2026.09 C 400.98 2077.29 460.8 2052.33 512.0 2048.0 C 563.2 2043.67 649.38 2021.54 624.13 2072.74 C 598.88 2123.94 701.28 2123.94 675.33 2072.74 C 649.38 2021.54 716.8 2038.44 768.0 2048.0 C 819.2 2057.56 897.81 2020.84 876.61 2072.04 C 855.41 2123.24 957.81 2123.24 927.81 2072.04 C 897.81 2020.84 972.8 2047.27 1024.0 2048.0 C 1075.2 2048.73 1139.83 2064.98 1122.99 2013.78 C 1106.15 1962.58 1208.55 1962.58 1174.19 2013.78 C 1139.83 2064.98 1228.8 2054.75 1280.0 2048.0 C 1331.2 2041.25 1404.69 2028.92 1373.82 2080.12 C 1342.95 2131.32 1445.35 2131.32 1425.02 2080.12 C 1404.69 2028.92 1484.8 2053.9 1536.0 2048.0 C 1587.2 2042.1 1675.53 2018.3 1643.11 2069.5 C 1610.7 2120.7 1713.1 2120.7 1694.31 2069.5 C 1675.53 2018.3 1740.8 2048.75 1792.0 2048.0 C 1843.2 2047.25 1930.62 2025.13 1901.13 2076.33 C 1871.63 2127.53 1974.03 2127.53 1952.33 2076.33 C 1930.62 2025.13 1996.8 2054.2 2048.0 2048.0 C 2099.2 2041.8 2189.18 2082.69 2160.57 2031.49 C 2131.97 1980.29 2234.37 1980.29 2211.77 2031.49 C 2189.18 2082.69 2252.8 2049.76 2304.0 2048.0 C 2355.2 2046.24 2439.9 2026.64 2408.18 2077.84 C 2376.47 2129.04 2478.87 2129.04 2459.38 2077.84 C 2439.9 2026.64 2508.8 2056.65 2560.0 2048.0 C 2611.2 2039.35 2691.93 2026.84 2660.79 2078.04 C 2629.64 2129.24 2732.04 2129.24 2711.99 2078.04 C 2691.93 2026.84 2764.8 2053.85 2816.0 2048.0 C 2867.2 2042.15 2941.77 2083.32 2926.01 2032.12 C 2910.25 1980.92 3012.65 1980.92 2977.21 2032.12 C 2941.77 2083.32 3020.8 2039.87 3072.0 2048.0 C 3123.2 2056.13 3194.67 2064.05 3170.61 2012.85 C 3146.54 1961.65 3248.94 1961.65 3221.81 2012.85 C 3194.67 2064.05 3276.8 2041.38 3328.0 2048.0 C 3379.2 2054.62 3463.29 2022.43 3429.92 2073.63 C 3396.54 2124.83 3498.94 2124.83 3481.12 2073.63 C 3463.29 2022.43 3532.8 2053.94 3584.0 2048.0 C 3635.2 2042.06 3694.94 2076.85 3678.63 2025.65 C 3662.31 1974.45 3764.71 1974.45 3729.83 2025.65 C 3694.94 2076.85 3788.8 2043.25 3840.0 2048.0 M 0.0,2304.0 C 51.2 2305.65 126.51 2335.19 105.76 2283.99 C 85.01 2232.79 187.41 2232.79 156.96 2283.99 C 126.51 2335.19 204.8 2308.85 256.0 2304.0 C 307.2 2299.15 371.78 2331.34 355.31 2280.14 C 338.85 2228.94 441.25 2228.94 406.51 2280.14 C 371.78 2331.34 460.8 2305.46 512.0 2304.0 C 563.2 2302.54 640.48 2269.25 610.09 2320.45 C 579.71 2371.65 682.11 2371.65 661.29 2320.45 C 640.48 2269.25 716.8 2310.46 768.0 2304.0 C 819.2 2297.54 886.78 2333.86 866.53 2282.66 C 846.28 2231.46 948.68 2231.46 917.73 2282.66 C 886.78 2333.86 972.8 2295.52 1024.0 2304.0 C 1075.2 2312.48 1166.29 2287.22 1133.7 2338.42 C 1101.1 2389.62 1203.5 2389.62 1184.9 2338.42 C 1166.29 2287.22 1228.8 2305.39 1280.0 2304.0 C 1331.2 2302.61 1425.8 2332.33 1391.51 2281.13 C 1357.22 2229.93 1459.62 2229.93 1442.71 2281.13 C 1425.8 2332.33 1484.8 2295.69 1536.0 2304.0 C 1587.2 2312.31 1655.79 2323.0 1638.17 2271.8 C 1620.55 2220.6 1722.95 2220.6 1689.37 2271.8 C 1655.79 2323.0 1740.8 2302.85 1792.0 2304.0 C 1843.2 2305.15 1933.26 2333.69 1904.38 2282.49 C 1875.49 2231.29 1977.89 2231.29 1955.58 2282.49 C 1933.26 2333.69 1996.8 2308.08 2048.0 2304.0 C 2099.2 2299.92 2167.64 2333.45 2149.22 2282.25 C 2130.8 2231.05 2233.2 2231.05 2200.42 2282.25 C 2167.64 2333.45 2252.8 2302.5 2304.0 2304.0 C 2355.2 2305.5 2437.06 2322.49 2402.38 2271.29 C 2367.71 2220.09 2470.11 2220.09 2453.58 2271.29 C 2437.06 2322.49 2508.8 2294.57 2560.0 2304.0 C 2611.2 2313.43 2686.67 2283.12 2663.8 2334.32 C 2640.93 2385.52 2743.33 2385.52 2715.0 2334.32 C 2686.67 2283.12 2764.8 2306.66 2816.0 2304.0 C 2867.2 2301.34 2935.88 2281.4 2909.21 2332.6 C 2882.53 2383.8 2984.93 2383.8 2960.41 2332.6 C 2935.88 2281.4 3020.8 2305.68 3072.0 2304.0 C 3123.2 2302.32 3210.04 2322.49 3181.93 2271.29 C 3153.82 2220.09 3256.22 2220.09 3233.13 2271.29 C 3210.04 2322.49 3276.8 2304.08 3328.0 2304.0 C 3379.2 2303.92 3450.35 2323.39 3431.84 2272.19 C 3413.34 2220.99 3515.74 2220.99 3483.04 2272.19 C 3450.35 2323.39 3532.8 2297.76 3584.0 2304.0 C 3635.2 2310.24 3701.25 2282.71 3682.69 2333.91 C 3664.13 2385.11 3766.53 2385.11 3733.89 2333.91 C 3701.25 2282.71 3788.8 2296.59 3840.0 2304.0 M 0.0,2560.0 C 51.2 2558.78 119.79 2591.55 94.47 2540.35 C 69.15 2489.15 171.55 2489.15 145.67 2540.35 C 119.79 2591.55 204.8 2552.08 256.0 2560.0 C 307.2 2567.92 399.36 2582.69 368.54 2531.49 C 337.72 2480.29 440.12 2480.29 419.74 2531.49 C 399.36 2582.69 460.8 2568.96 512.0 2560.0 C 563.2 2551.04 655.61 2540.36 624.26 2591.56 C 592.91 2642.76 695.31 2642.76 675.46 2591.56 C 655.61 2540.36 716.8 2568.76 768.0 2560.0 C 819.2 2551.24 884.32 2586.88 868.18 2535.68 C 852.04 2484.48 954.44 2484.48 919.38 2535.68 C 884.32 2586.88 972.8 2551.47 1024.0 2560.0 C 1075.2 2568.53 1153.6 2581.84 1130.15 2530.64 C 1106.69 2479.44 1209.09 2479.44 1181.35 2530.64 C 1153.6 2581.84 1228.8 2560.8 1280.0 2560.0 C 1331.2 2559.2 1391.71 2535.1 1372.86 2586.3 C 1354.02 2637.5 1456.42 2637.5 1424.06 2586.3 C 1391.71 2535.1 1484.8 2565.83 1536.0 2560.0 C 1587.2 2554.17 1662.48 2595.63 1629.05 2544.43 C 1595.61 2493.23 1698.01 2493.23 1680.25 2544.43 C 1662.48 2595.63 1740.8 2555.61 1792.0 2560.0 C 1843.2 2564.39 1912.12 2529.55 1887.72 2580.75 C 1863.32 2631.95 1965.72 2631.95 1938.92 2580.75 C 1912.12 2529.55 1996.8 2554.25 2048.0 2560.0 C 2099.2 2565.75 2187.04 2544.36 2157.05 2595.56 C 2127.07 2646.76 2229.47 2646.76 2208.25 2595.56 C 2187.04 2544.36 2252.8 2551.72 2304.0 2560.0 C 2355.2 2568.28 2426.61 2586.92 2398.78 2535.72 C 2370.94 2484.52 2473.34 2484.52 2449.98 2535.72 C 2426.61 2586.92 2508.8 2565.69 2560.0 2560.0 C 2611.2 2554.31 2681.53 2575.71 2655.29 2524.51 C 2629.04 2473.31 2731.44 2473.31 2706.49 2524.51 C 2681.53 2575.71 2764.8 2561.44 2816.0 2560.0 C 2867.2 2558.56 2938.01 2535.31 2911.45 2586.51 C 2884.89 2637.71 2987.29 2637.71 2962.65 2586.51 C 2938.01 2535.31 3020.8 2559.8 3072.0 2560.0 C 3123.2 2560.2 3201.22 2528.33 3172.51 2579.53 C 3143.8 2630.73 3246.2 2630.73 3223.71 2579.53 C 3201.22 2528.33 3276.8 2563.95 3328.0 2560.0 C 3379.2 2556.05 3454.45 2541.63 3438.71 2592.83 C 3422.98 2644.03 3525.38 2644.03 3489.91 2592.83 C 3454.45 2541.63 3532.8 2569.11 3584.0 2560.0 C 3635.2 2550.89 3706.3 2538.28 3679.85 2589.48 C 3653.4 2640.68 3755.8 2640.68 3731.05 2589.48 C 3706.3 2538.28 3788.8 2556.59 3840.0 2560.0 M 0.0,2816.0 C 51.2 2807.72 142.65 2794.24 108.65 2845.44 C 74.65 2896.64 177.05 2896.64 159.85 2845.44 C 142.65 2794.24 204.8 2819.14 256.0 2816.0 C 307.2 2812.86 376.0 2786.54 356.38 2837.74 C 336.76 2888.94 439.16 2888.94 407.58 2837.74 C 376.0 2786.54 460.8 2807.97 512.0 2816.0 C 563.2 2824.03 650.69 2785.32 615.85 2836.52 C 581.0 2887.72 683.4 2887.72 667.05 2836.52 C 650.69 2785.32 716.8 2808.56 768.0 2816.0 C 819.2 2823.44 909.3 2787.9 875.27 2839.1 C 841.25 2890.3 943.65 2890.3 926.47 2839.1 C 909.3 2787.9 972.8 2806.48 1024.0 2816.0 C 1075.2 2825.52 1154.89 2793.54 1125.99 2844.74 C 1097.08 2895.94 1199.48 2895.94 1177.19 2844.74 C 1154.89 2793.54 1228.8 2815.77 1280.0 2816.0 C 1331.2 2816.23 1399.41 2832.97 1377.49 2781.77 C 1355.56 2730.57 1457.96 2730.57 1428.69 2781.77 C 1399.41 2832.97 1484.8 2821.06 1536.0 2816.0 C 1587.2 2810.94 1655.99 2788.54 1638.15 2839.74 C 1620.31 2890.94 1722.71 2890.94 1689.35 2839.74 C 1655.99 2788.54 1740.8 2815.76 1792.0 2816.0 C 1843.2 2816.24 1928.85 2796.36 1900.71 2847.56 C 1872.57 2898.76 1974.97 2898.76 1951.91 2847.56 C 1928.85 2796.36 1996.8 2808.23 2048.0 2816.0 C 2099.2 2823.77 2181.48 2834.97 2160.1 2783.77 C 2138.71 2732.57 2241.11 2732.57 2211.3 2783.77 C 2181.48 2834.97 2252.8 2807.26 2304.0 2816.0 C 2355.2 2824.74 2425.39 2791.62 2397.6 2842.82 C 2369.81 2894.02 2472.21 2894.02 2448.8 2842.82 C 2425.39 2791.62 2508.8 2816.33 2560.0 2816.0 C 2611.2 2815.67 2679.84 2832.61 2660.36 2781.41 C 2640.87 2730.21 2743.27 2730.21 2711.56 2781.41 C 2679.84 2832.61 2764.8 2815.79 2816.0 2816.0 C 2867.2 2816.21 2948.52 2851.4 2920.3 2800.2 C 2892.07 2749.0 2994.47 2749.0 2971.5 2800.2 C 2948.52 2851.4 3020.8 2824.59 3072.0 2816.0 C 3123.2 2807.41 3188.61 2837.65 3165.43 2786.45 C 3142.25 2735.25 3244.65 2735.25 3216.63 2786.45 C 3188.61 2837.65 3276.8 2820.92 3328.0 2816.0 C 3379.2 2811.08 3449.58 2833.75 3421.35 2782.55 C 3393.11 2731.35 3495.51 2731.35 3472.55 2782.55 C 3449.58 2833.75 3532.8 2807.93 3584.0 2816.0 C 3635.2 2824.07 3720.5 2832.89 3690.21 2781.69 C 3659.92 2730.49 3762.32 2730.49 3741.41 2781.69 C 3720.5 2832.89 3788.8 2818.45 3840.0 2816.0 M 0.0,3072.0 C 51.2 3073.04 130.52 3106.23 97.52 3055.03 C 64.51 3003.83 166.91 3003.83 148.72 3055.03 C 130.52 3106.23 204.8 3063.75 256.0 3072.0 C 307.2 3080.25 376.89 3044.09 354.07 3095.29 C 331.24 3146.49 433.64 3146.49 405.27 3095.29 C 376.89 3044.09 460.8 3070.38 512.0 3072.0 C 563.2 3073.62 637.14 3045.69 618.1 3096.89 C 599.05 3148.09 701.45 3148.09 669.3 3096.89 C 637.14 3045.69 716.8 3069.11 768.0 3072.0 C 819.2 3074.89 886.06 3094.35 869.59 3043.15 C 853.13 2991.95 955.53 2991.95 920.79 3043.15 C 886.06 3094.35 972.8 3078.35 1024.0 3072.0 C 1075.2 3065.65 1154.65 3037.42 1129.68 3088.62 C 1104.72 3139.82 1207.12 3139.82 1180.88 3088.62 C 1154.65 3037.42 1228.8 3071.07 1280.0 3072.0 C 1331.2 3072.93 1401.29 3102.7 1375.6 3051.5 C 1349.91 3000.3 1452.31 3000.3 1426.8 3051.5 C 1401.29 3102.7 1484.8 3067.03 1536.0 3072.0 C 1587.2 3076.97 1661.73 3042.93 1644.03 3094.13 C 1626.33 3145.33 1728.73 3145.33 1695.23 3094.13 C 1661.73 3042.93 1740.8 3062.49 1792.0 3072.0 C 1843.2 3081.51 1926.0 3043.53 1891.05 3094.73 C 1856.09 3145.93 1958.49 3145.93 1942.25 3094.73 C 1926.0 3043.53 1996.8 3064.01 2048.0 3072.0 C 2099.2 3079.99 2176.85 3055.3 2146.44 3106.5 C 2116.03 3157.7 2218.43 3157.7 2197.64 3106.5 C 2176.85 3055.3 2252.8 3078.48 2304.0 3072.0 C 2355.2 3065.52 2426.9 3054.5 2403.17 3105.7 C 2379.43 3156.9 2481.83 3156.9 2454.37 3105.7 C 2426.9 3054.5 2508.8 3078.87 2560.0 3072.0 C 2611.2 3065.13 2694.95 3095.84 2663.39 3044.64 C 2631.83 2993.44 2734.23 2993.44 2714.59 3044.64 C 2694.95 3095.84 2764.8 3067.96 2816.0 3072.0 C 2867.2 3076.04 2943.8 3104.26 2924.64 3053.06 C 2905.49 3001.86 3007.89 3001.86 2975.84 3053.06 C 2943.8 3104.26 3020.8 3061.94 3072.0 3072.0 C 3123.2 3082.06 3218.13 3097.69 3182.48 3046.49 C 3146.84 2995.29 3249.24 2995.29 3233.68 3046.49 C 3218.13 3097.69 3276.8 3077.02 3328.0 3072.0 C 3379.2 3066.98 3454.58 3037.06 3428.42 3088.26 C 3402.25 3139.46 3504.65 3139.46 3479.62 3088.26 C 3454.58 3037.06 3532.8 3074.28 3584.0 3072.0 C 3635.2 3069.72 3714.15 3050.6 3683.53 3101.8 C 3652.92 3153.0 3755.32 3153.0 3734.73 3101.8 C 3714.15 3050.6 3788.8 3070.7 3840.0 3072.0 M 0.0,3328.0 C 51.2 3319.33 125.03 3298.85 109.64 3350.05 C 94.24 3401.25 196.64 3401.25 160.84 3350.05 C 125.03 3298.85 204.8 3336.7 256.0 3328.0 C 307.2 3319.3 372.35 3297.75 354.83 3348.95 C 337.31 3400.15 439.71 3400.15 406.03 3348.95 C 372.35 3297.75 460.8 3337.01 512.0 3328.0 C 563.2 3318.99 648.11 3360.57 614.86 3309.37 C 581.61 3258.17 684.01 3258.17 666.06 3309.37 C 648.11 3360.57 716.8 3330.59 768.0 3328.0 C 819.2 3325.41 883.68 3358.28 864.96 3307.08 C 846.23 3255.88 948.63 3255.88 916.16 3307.08 C 883.68 3358.28 972.8 3328.31 1024.0 3328.0 C 1075.2 3327.69 1163.43 3355.56 1134.14 3304.36 C 1104.86 3253.16 1207.26 3253.16 1185.34 3304.36 C 1163.43 3355.56 1228.8 3333.59 1280.0 3328.0 C 1331.2 3322.41 1416.77 3300.02 1391.42 3351.22 C 1366.07 3402.42 1468.47 3402.42 1442.62 3351.22 C 1416.77 3300.02 1484.8 3321.07 1536.0 3328.0 C 1587.2 3334.93 1667.79 3305.21 1633.31 3356.41 C 1598.84 3407.61 1701.24 3407.61 1684.51 3356.41 C 1667.79 3305.21 1740.8 3330.23 1792.0 3328.0 C 1843.2 3325.77 1919.52 3307.3 1886.24 3358.5 C 1852.95 3409.7 1955.35 3409.7 1937.44 3358.5 C 1919.52 3307.3 1996.8 3321.27 2048.0 3328.0 C 2099.2 3334.73 2189.09 3354.44 2154.26 3303.24 C 2119.42 3252.04 2221.82 3252.04 2205.46 3303.24 C 2189.09 3354.44 2252.8 3327.54 2304.0 3328.0 C 2355.2 3328.46 2429.2 3301.54 2405.23 3352.74 C 2381.26 3403.94 2483.66 3403.94 2456.43 3352.74 C 2429.2 3301.54 2508.8 3331.71 2560.0 3328.0 C 2611.2 3324.29 2691.85 3297.57 2658.02 3348.77 C 2624.19 3399.97 2726.59 3399.97 2709.22 3348.77 C 2691.85 3297.57 2764.8 3335.31 2816.0 3328.0 C 2867.2 3320.69 2947.25 3299.41 2914.97 3350.61 C 2882.69 3401.81 2985.09 3401.81 2966.17 3350.61 C 2947.25 3299.41 3020.8 3337.93 3072.0 3328.0 C 3123.2 3318.07 3207.39 3352.36 3182.71 3301.16 C 3158.04 3249.96 3260.44 3249.96 3233.91 3301.16 C 3207.39 3352.36 3276.8 3335.38 3328.0 3328.0 C 3379.2 3320.62 3451.93 3307.35 3422.97 3358.55 C 3394.0 3409.75 3496.4 3409.75 3474.17 3358.55 C 3451.93 3307.35 3532.8 3329.48 3584.0 3328.0 C 3635.2 3326.52 3709.75 3356.58 3686.38 3305.38 C 3663.01 3254.18 3765.41 3254.18 3737.58 3305.38 C 3709.75 3356.58 3788.8 3323.23 3840.0 3328.0 M 0.0,3584.0 C 51.2 3591.14 134.24 3558.22 106.98 3609.42 C 79.71 3660.62 182.11 3660.62 158.18 3609.42 C 134.24 3558.22 204.8 3575.65 256.0 3584.0 C 307.2 3592.35 397.84 3607.31 367.79 3556.11 C 337.73 3504.91 440.13 3504.91 418.99 3556.11 C 397.84 3607.31 460.8 3585.01 512.0 3584.0 C 563.2 3582.99 648.78 3618.24 621.48 3567.04 C 594.19 3515.84 696.59 3515.84 672.68 3567.04 C 648.78 3618.24 716.8 3577.85 768.0 3584.0 C 819.2 3590.15 894.98 3601.5 865.44 3550.3 C 835.89 3499.1 938.29 3499.1 916.64 3550.3 C 894.98 3601.5 972.8 3587.47 1024.0 3584.0 C 1075.2 3580.53 1160.63 3552.12 1133.98 3603.32 C 1107.32 3654.52 1209.72 3654.52 1185.18 3603.32 C 1160.63 3552.12 1228.8 3586.91 1280.0 3584.0 C 1331.2 3581.09 1418.79 3548.5 1385.76 3599.7 C 1352.73 3650.9 1455.13 3650.9 1436.96 3599.7 C 1418.79 3548.5 1484.8 3578.61 1536.0 3584.0 C 1587.2 3589.39 1649.43 3550.68 1632.52 3601.88 C 1615.6 3653.08 1718.0 3653.08 1683.72 3601.88 C 1649.43 3550.68 1740.8 3585.77 1792.0 3584.0 C 1843.2 3582.23 1913.41 3601.57 1887.16 3550.37 C 1860.91 3499.17 1963.31 3499.17 1938.36 3550.37 C 1913.41 3601.57 1996.8 3583.05 2048.0 3584.0 C 2099.2 3584.95 2168.64 3562.88 2152.82 3614.08 C 2137.0 3665.28 2239.4 3665.28 2204.02 3614.08 C 2168.64 3562.88 2252.8 3580.26 2304.0 3584.0 C 2355.2 3587.74 2431.42 3559.45 2410.27 3610.65 C 2389.13 3661.85 2491.53 3661.85 2461.47 3610.65 C 2431.42 3559.45 2508.8 3588.44 2560.0 3584.0 C 2611.2 3579.56 2680.93 3560.14 2658.53 3611.34 C 2636.12 3662.54 2738.52 3662.54 2709.73 3611.34 C 2680.93 3560.14 2764.8 3581.28 2816.0 3584.0 C 2867.2 3586.72 2949.56 3551.74 2918.6 3602.94 C 2887.65 3654.14 2990.05 3654.14 2969.8 3602.94 C 2949.56 3551.74 3020.8 3593.02 3072.0 3584.0 C 3123.2 3574.98 3183.14 3564.7 3165.12 3615.9 C 3147.1 3667.1 3249.5 3667.1 3216.32 3615.9 C 3183.14 3564.7 3276.8 3582.32 3328.0 3584.0 C 3379.2 3585.68 3455.0 3559.07 3428.98 3610.27 C 3402.97 3661.47 3505.37 3661.47 3480.18 3610.27 C 3455.0 3559.07 3532.8 3586.42 3584.0 3584.0 C 3635.2 3581.58 3708.85 3551.39 3678.11 3602.59 C 3647.37 3653.79 3749.77 3653.79 3729.31 3602.59 C 3708.85 3551.39 3788.8 3574.16 3840.0 3584.0 "></path><path fill="none" stroke="Black" stroke-width="0.01"  class="vertical" d="M 256.0,0.0 C 255.65 51.2 285.33 120.65 234.13 92.69 C 182.93 64.73 182.93 167.13 234.13 143.89 C 285.33 120.65 257.47 204.8 256.0 256.0 C 254.53 307.2 231.61 392.28 282.81 361.62 C 334.01 330.95 334.01 433.35 282.81 412.82 C 231.61 392.28 260.6 460.8 256.0 512.0 C 251.4 563.2 231.51 633.42 282.71 610.52 C 333.91 587.61 333.91 690.01 282.71 661.72 C 231.51 633.42 257.46 716.8 256.0 768.0 C 254.54 819.2 238.71 892.23 289.91 862.55 C 341.11 832.87 341.11 935.27 289.91 913.75 C 238.71 892.23 266.04 972.8 256.0 1024.0 C 245.96 1075.2 228.68 1139.56 279.88 1118.5 C 331.08 1097.45 331.08 1199.85 279.88 1169.7 C 228.68 1139.56 253.26 1228.8 256.0 1280.0 C 258.74 1331.2 273.61 1414.08 222.41 1386.59 C 171.21 1359.11 171.21 1461.51 222.41 1437.79 C 273.61 1414.08 251.59 1484.8 256.0 1536.0 C 260.41 1587.2 286.52 1667.62 235.32 1640.07 C 184.12 1612.51 184.12 1714.91 235.32 1691.27 C 286.52 1667.62 259.47 1740.8 256.0 1792.0 C 252.53 1843.2 227.02 1928.12 278.22 1899.07 C 329.42 1870.01 329.42 1972.41 278.22 1950.27 C 227.02 1928.12 246.46 1996.8 256.0 2048.0 C 265.54 2099.2 224.56 2177.57 275.76 2152.91 C 326.96 2128.25 326.96 2230.65 275.76 2204.11 C 224.56 2177.57 265.13 2252.8 256.0 2304.0 C 246.87 2355.2 228.44 2439.56 279.64 2414.47 C 330.84 2389.38 330.84 2491.78 279.64 2465.67 C 228.44 2439.56 261.89 2508.8 256.0 2560.0 C 250.11 2611.2 275.14 2694.18 223.94 2667.4 C 172.74 2640.63 172.74 2743.03 223.94 2718.6 C 275.14 2694.18 260.69 2764.8 256.0 2816.0 C 251.31 2867.2 235.83 2935.85 287.03 2913.43 C 338.23 2891.0 338.23 2993.4 287.03 2964.63 C 235.83 2935.85 265.05 3020.8 256.0 3072.0 C 246.95 3123.2 287.1 3201.86 235.9 3175.62 C 184.7 3149.37 184.7 3251.77 235.9 3226.82 C 287.1 3201.86 264.29 3276.8 256.0 3328.0 C 247.71 3379.2 291.69 3473.71 240.49 3439.75 C 189.29 3405.78 189.29 3508.18 240.49 3490.95 C 291.69 3473.71 261.4 3532.8 256.0 3584.0 C 250.6 3635.2 224.31 3704.79 275.51 3688.09 C 326.71 3671.39 326.71 3773.79 275.51 3739.29 C 224.31 3704.79 254.16 3788.8 256.0 3840.0 M 512.0,0.0 C 506.19 51.2 482.44 121.11 533.64 104.14 C 584.84 87.18 584.84 189.58 533.64 155.34 C 482.44 121.11 512.95 204.8 512.0 256.0 C 511.05 307.2 494.19 377.31 545.39 350.51 C 596.59 323.7 596.59 426.1 545.39 401.71 C 494.19 377.31 506.25 460.8 512.0 512.0 C 517.75 563.2 476.28 644.73 527.48 620.27 C 578.68 595.81 578.68 698.21 527.48 671.47 C 476.28 644.73 519.25 716.8 512.0 768.0 C 504.75 819.2 546.94 880.33 495.74 863.21 C 444.54 846.09 444.54 948.49 495.74 914.41 C 546.94 880.33 504.42 972.8 512.0 1024.0 C 519.58 1075.2 483.01 1149.25 534.21 1128.1 C 585.41 1106.94 585.41 1209.34 534.21 1179.3 C 483.01 1149.25 509.39 1228.8 512.0 1280.0 C 514.61 1331.2 540.76 1406.46 489.56 1375.13 C 438.36 1343.8 438.36 1446.2 489.56 1426.33 C 540.76 1406.46 511.13 1484.8 512.0 1536.0 C 512.87 1587.2 488.52 1660.01 539.72 1643.1 C 590.92 1626.2 590.92 1728.6 539.72 1694.3 C 488.52 1660.01 510.76 1740.8 512.0 1792.0 C 513.24 1843.2 484.65 1918.14 535.85 1894.42 C 587.05 1870.71 587.05 1973.11 535.85 1945.62 C 484.65 1918.14 516.32 1996.8 512.0 2048.0 C 507.68 2099.2 541.98 2162.85 490.78 2142.07 C 439.58 2121.29 439.58 2223.69 490.78 2193.27 C 541.98 2162.85 510.73 2252.8 512.0 2304.0 C 513.27 2355.2 531.1 2427.7 479.9 2404.3 C 428.7 2380.89 428.7 2483.29 479.9 2455.5 C 531.1 2427.7 507.41 2508.8 512.0 2560.0 C 516.59 2611.2 536.97 2688.33 485.77 2668.1 C 434.57 2647.86 434.57 2750.26 485.77 2719.3 C 536.97 2688.33 508.65 2764.8 512.0 2816.0 C 515.35 2867.2 489.73 2943.07 540.93 2909.95 C 592.13 2876.83 592.13 2979.23 540.93 2961.15 C 489.73 2943.07 517.99 3020.8 512.0 3072.0 C 506.01 3123.2 495.37 3204.36 546.57 3180.05 C 597.77 3155.74 597.77 3258.14 546.57 3231.25 C 495.37 3204.36 520.64 3276.8 512.0 3328.0 C 503.36 3379.2 489.89 3446.35 541.09 3423.0 C 592.29 3399.66 592.29 3502.06 541.09 3474.2 C 489.89 3446.35 517.46 3532.8 512.0 3584.0 C 506.54 3635.2 527.69 3709.79 476.49 3691.24 C 425.29 3672.68 425.29 3775.08 476.49 3742.44 C 527.69 3709.79 520.76 3788.8 512.0 3840.0 M 768.0,0.0 C 758.66 51.2 793.72 122.83 742.52 97.29 C 691.32 71.76 691.32 174.16 742.52 148.49 C 793.72 122.83 767.31 204.8 768.0 256.0 C 768.69 307.2 743.83 399.02 795.03 367.06 C 846.23 335.09 846.23 437.49 795.03 418.26 C 743.83 399.02 763.09 460.8 768.0 512.0 C 772.91 563.2 737.87 637.36 789.07 607.27 C 840.27 577.17 840.27 679.57 789.07 658.47 C 737.87 637.36 771.22 716.8 768.0 768.0 C 764.78 819.2 802.12 900.24 750.92 878.5 C 699.72 856.76 699.72 959.16 750.92 929.7 C 802.12 900.24 776.45 972.8 768.0 1024.0 C 759.55 1075.2 744.3 1156.45 795.5 1131.79 C 846.7 1107.13 846.7 1209.53 795.5 1182.99 C 744.3 1156.45 767.6 1228.8 768.0 1280.0 C 768.4 1331.2 790.12 1392.73 738.92 1372.17 C 687.72 1351.61 687.72 1454.01 738.92 1423.37 C 790.12 1392.73 771.95 1484.8 768.0 1536.0 C 764.05 1587.2 785.98 1669.88 734.78 1641.63 C 683.58 1613.37 683.58 1715.77 734.78 1692.83 C 785.98 1669.88 773.62 1740.8 768.0 1792.0 C 762.38 1843.2 741.93 1924.28 793.13 1900.14 C 844.33 1876.01 844.33 1978.41 793.13 1951.34 C 741.93 1924.28 773.51 1996.8 768.0 2048.0 C 762.49 2099.2 745.27 2178.89 796.47 2148.88 C 847.67 2118.88 847.67 2221.28 796.47 2200.08 C 745.27 2178.89 774.72 2252.8 768.0 2304.0 C 761.28 2355.2 733.29 2437.19 784.49 2402.26 C 835.69 2367.33 835.69 2469.73 784.49 2453.46 C 733.29 2437.19 773.97 2508.8 768.0 2560.0 C 762.03 2611.2 734.69 2689.79 785.89 2657.01 C 837.09 2624.24 837.09 2726.64 785.89 2708.21 C 734.69 2689.79 769.92 2764.8 768.0 2816.0 C 766.08 2867.2 788.05 2949.92 736.85 2923.63 C 685.65 2897.35 685.65 2999.75 736.85 2974.83 C 788.05 2949.92 763.67 3020.8 768.0 3072.0 C 772.33 3123.2 744.1 3194.4 795.3 3177.79 C 846.5 3161.18 846.5 3263.58 795.3 3228.99 C 744.1 3194.4 776.32 3276.8 768.0 3328.0 C 759.68 3379.2 801.92 3456.69 750.72 3437.79 C 699.52 3418.89 699.52 3521.29 750.72 3488.99 C 801.92 3456.69 761.15 3532.8 768.0 3584.0 C 774.85 3635.2 791.81 3718.44 740.61 3686.85 C 689.41 3655.26 689.41 3757.66 740.61 3738.05 C 791.81 3718.44 777.32 3788.8 768.0 3840.0 M 1024.0,0.0 C 1026.06 51.2 1047.23 121.49 996.03 100.68 C 944.83 79.88 944.83 182.28 996.03 151.88 C 1047.23 121.49 1025.14 204.8 1024.0 256.0 C 1022.86 307.2 1052.74 394.61 1001.54 359.16 C 950.34 323.71 950.34 426.11 1001.54 410.36 C 1052.74 394.61 1032.07 460.8 1024.0 512.0 C 1015.93 563.2 996.15 631.52 1047.35 610.67 C 1098.55 589.81 1098.55 692.21 1047.35 661.87 C 996.15 631.52 1026.26 716.8 1024.0 768.0 C 1021.74 819.2 1048.99 885.6 997.79 862.62 C 946.59 839.65 946.59 942.05 997.79 913.82 C 1048.99 885.6 1030.24 972.8 1024.0 1024.0 C 1017.76 1075.2 1042.46 1158.75 991.26 1124.83 C 940.06 1090.91 940.06 1193.31 991.26 1176.03 C 1042.46 1158.75 1026.35 1228.8 1024.0 1280.0 C 1021.65 1331.2 1008.48 1391.15 1059.68 1373.48 C 1110.88 1355.81 1110.88 1458.21 1059.68 1424.68 C 1008.48 1391.15 1024.86 1484.8 1024.0 1536.0 C 1023.14 1587.2 1008.33 1667.18 1059.53 1645.94 C 1110.73 1624.71 1110.73 1727.11 1059.53 1697.14 C 1008.33 1667.18 1023.4 1740.8 1024.0 1792.0 C 1024.6 1843.2 988.82 1913.4 1040.02 1895.39 C 1091.22 1877.38 1091.22 1979.78 1040.02 1946.59 C 988.82 1913.4 1014.01 1996.8 1024.0 2048.0 C 1033.99 2099.2 1050.82 2182.81 999.62 2147.03 C 948.42 2111.24 948.42 2213.64 999.62 2198.23 C 1050.82 2182.81 1029.89 2252.8 1024.0 2304.0 C 1018.11 2355.2 1041.12 2426.69 989.92 2403.02 C 938.72 2379.35 938.72 2481.75 989.92 2454.22 C 1041.12 2426.69 1024.8 2508.8 1024.0 2560.0 C 1023.2 2611.2 1040.56 2695.82 989.36 2661.98 C 938.16 2628.14 938.16 2730.54 989.36 2713.18 C 1040.56 2695.82 1019.07 2764.8 1024.0 2816.0 C 1028.93 2867.2 1058.67 2956.98 1007.47 2926.53 C 956.27 2896.08 956.27 2998.48 1007.47 2977.73 C 1058.67 2956.98 1031.18 3020.8 1024.0 3072.0 C 1016.82 3123.2 1004.91 3194.64 1056.11 3166.15 C 1107.31 3137.66 1107.31 3240.06 1056.11 3217.35 C 1004.91 3194.64 1026.84 3276.8 1024.0 3328.0 C 1021.16 3379.2 991.23 3446.21 1042.43 3426.32 C 1093.63 3406.43 1093.63 3508.83 1042.43 3477.52 C 991.23 3446.21 1019.78 3532.8 1024.0 3584.0 C 1028.22 3635.2 998.8 3718.99 1050.0 3691.72 C 1101.2 3664.46 1101.2 3766.86 1050.0 3742.92 C 998.8 3718.99 1017.12 3788.8 1024.0 3840.0 M 1280.0,0.0 C 1280.59 51.2 1312.82 129.15 1261.62 100.92 C 1210.42 72.69 1210.42 175.09 1261.62 152.12 C 1312.82 129.15 1272.41 204.8 1280.0 256.0 C 1287.59 307.2 1256.78 394.3 1307.98 359.63 C 1359.18 324.96 1359.18 427.36 1307.98 410.83 C 1256.78 394.3 1289.19 460.8 1280.0 512.0 C 1270.81 563.2 1251.15 639.68 1302.35 609.36 C 1353.55 579.05 1353.55 681.45 1302.35 660.56 C 1251.15 639.68 1275.53 716.8 1280.0 768.0 C 1284.47 819.2 1259.74 903.49 1310.94 873.88 C 1362.14 844.27 1362.14 946.67 1310.94 925.08 C 1259.74 903.49 1276.35 972.8 1280.0 1024.0 C 1283.65 1075.2 1298.23 1155.54 1247.03 1129.7 C 1195.83 1103.86 1195.83 1206.26 1247.03 1180.9 C 1298.23 1155.54 1285.19 1228.8 1280.0 1280.0 C 1274.81 1331.2 1255.64 1396.46 1306.84 1374.94 C 1358.04 1353.42 1358.04 1455.82 1306.84 1426.14 C 1255.64 1396.46 1270.39 1484.8 1280.0 1536.0 C 1289.61 1587.2 1299.54 1654.44 1248.34 1631.27 C 1197.14 1608.11 1197.14 1710.51 1248.34 1682.47 C 1299.54 1654.44 1285.36 1740.8 1280.0 1792.0 C 1274.64 1843.2 1305.08 1925.35 1253.88 1903.07 C 1202.68 1880.8 1202.68 1983.2 1253.88 1954.27 C 1305.08 1925.35 1270.61 1996.8 1280.0 2048.0 C 1289.39 2099.2 1264.06 2182.28 1315.26 2152.82 C 1366.46 2123.37 1366.46 2225.77 1315.26 2204.02 C 1264.06 2182.28 1282.28 2252.8 1280.0 2304.0 C 1277.72 2355.2 1261.79 2433.24 1312.99 2411.02 C 1364.19 2388.8 1364.19 2491.2 1312.99 2462.22 C 1261.79 2433.24 1281.71 2508.8 1280.0 2560.0 C 1278.29 2611.2 1256.26 2692.92 1307.46 2667.77 C 1358.66 2642.61 1358.66 2745.01 1307.46 2718.97 C 1256.26 2692.92 1288.25 2764.8 1280.0 2816.0 C 1271.75 2867.2 1312.75 2950.29 1261.55 2918.36 C 1210.35 2886.42 1210.35 2988.82 1261.55 2969.56 C 1312.75 2950.29 1285.58 3020.8 1280.0 3072.0 C 1274.42 3123.2 1257.09 3203.46 1308.29 3174.27 C 1359.49 3145.09 1359.49 3247.49 1308.29 3225.47 C 1257.09 3203.46 1272.25 3276.8 1280.0 3328.0 C 1287.75 3379.2 1255.16 3468.86 1306.36 3434.48 C 1357.56 3400.09 1357.56 3502.49 1306.36 3485.68 C 1255.16 3468.86 1276.95 3532.8 1280.0 3584.0 C 1283.05 3635.2 1309.38 3723.14 1258.18 3687.31 C 1206.98 3651.47 1206.98 3753.87 1258.18 3738.51 C 1309.38 3723.14 1273.04 3788.8 1280.0 3840.0 M 1536.0,0.0 C 1535.73 51.2 1518.37 115.29 1569.57 95.18 C 1620.77 75.07 1620.77 177.47 1569.57 146.38 C 1518.37 115.29 1542.07 204.8 1536.0 256.0 C 1529.93 307.2 1504.44 391.59 1555.64 368.27 C 1606.84 344.95 1606.84 447.35 1555.64 419.47 C 1504.44 391.59 1542.05 460.8 1536.0 512.0 C 1529.95 563.2 1501.17 644.35 1552.37 618.18 C 1603.57 592.0 1603.57 694.4 1552.37 669.38 C 1501.17 644.35 1539.85 716.8 1536.0 768.0 C 1532.15 819.2 1568.2 902.86 1517.0 879.47 C 1465.8 856.09 1465.8 958.49 1517.0 930.67 C 1568.2 902.86 1527.74 972.8 1536.0 1024.0 C 1544.26 1075.2 1559.11 1134.84 1507.91 1118.54 C 1456.71 1102.25 1456.71 1204.65 1507.91 1169.74 C 1559.11 1134.84 1528.1 1228.8 1536.0 1280.0 C 1543.9 1331.2 1510.42 1409.09 1561.62 1391.99 C 1612.82 1374.89 1612.82 1477.29 1561.62 1443.19 C 1510.42 1409.09 1539.34 1484.8 1536.0 1536.0 C 1532.66 1587.2 1508.95 1654.64 1560.15 1630.11 C 1611.35 1605.58 1611.35 1707.98 1560.15 1681.31 C 1508.95 1654.64 1538.9 1740.8 1536.0 1792.0 C 1533.1 1843.2 1503.81 1907.44 1555.01 1887.62 C 1606.21 1867.8 1606.21 1970.2 1555.01 1938.82 C 1503.81 1907.44 1530.97 1996.8 1536.0 2048.0 C 1541.03 2099.2 1507.64 2170.45 1558.84 2149.05 C 1610.04 2127.64 1610.04 2230.04 1558.84 2200.25 C 1507.64 2170.45 1540.7 2252.8 1536.0 2304.0 C 1531.3 2355.2 1513.36 2415.97 1564.56 2400.02 C 1615.76 2384.07 1615.76 2486.47 1564.56 2451.22 C 1513.36 2415.97 1529.85 2508.8 1536.0 2560.0 C 1542.15 2611.2 1503.2 2689.84 1554.4 2666.18 C 1605.6 2642.51 1605.6 2744.91 1554.4 2717.38 C 1503.2 2689.84 1540.2 2764.8 1536.0 2816.0 C 1531.8 2867.2 1553.22 2940.1 1502.02 2915.85 C 1450.82 2891.6 1450.82 2994.0 1502.02 2967.05 C 1553.22 2940.1 1527.23 3020.8 1536.0 3072.0 C 1544.77 3123.2 1511.84 3209.42 1563.04 3183.18 C 1614.24 3156.93 1614.24 3259.33 1563.04 3234.38 C 1511.84 3209.42 1541.54 3276.8 1536.0 3328.0 C 1530.46 3379.2 1512.75 3465.05 1563.95 3431.62 C 1615.15 3398.2 1615.15 3500.6 1563.95 3482.82 C 1512.75 3465.05 1542.08 3532.8 1536.0 3584.0 C 1529.92 3635.2 1513.94 3724.19 1565.14 3693.53 C 1616.34 3662.86 1616.34 3765.26 1565.14 3744.73 C 1513.94 3724.19 1525.88 3788.8 1536.0 3840.0 M 1792.0,0.0 C 1791.96 51.2 1822.14 123.44 1770.94 98.61 C 1719.74 73.78 1719.74 176.18 1770.94 149.81 C 1822.14 123.44 1798.07 204.8 1792.0 256.0 C 1785.93 307.2 1817.46 368.2 1766.26 352.54 C 1715.06 336.88 1715.06 439.28 1766.26 403.74 C 1817.46 368.2 1783.6 460.8 1792.0 512.0 C 1800.4 563.2 1763.31 642.0 1814.51 610.35 C 1865.71 578.7 1865.71 681.1 1814.51 661.55 C 1763.31 642.0 1782.63 716.8 1792.0 768.0 C 1801.37 819.2 1762.78 905.51 1813.98 872.53 C 1865.18 839.55 1865.18 941.95 1813.98 923.73 C 1762.78 905.51 1792.21 972.8 1792.0 1024.0 C 1791.79 1075.2 1771.01 1147.77 1822.21 1116.98 C 1873.41 1086.19 1873.41 1188.59 1822.21 1168.18 C 1771.01 1147.77 1784.24 1228.8 1792.0 1280.0 C 1799.76 1331.2 1756.67 1400.83 1807.87 1379.48 C 1859.07 1358.12 1859.07 1460.52 1807.87 1430.68 C 1756.67 1400.83 1783.29 1484.8 1792.0 1536.0 C 1800.71 1587.2 1775.62 1661.0 1826.82 1636.94 C 1878.02 1612.87 1878.02 1715.27 1826.82 1688.14 C 1775.62 1661.0 1786.17 1740.8 1792.0 1792.0 C 1797.83 1843.2 1763.32 1932.95 1814.52 1903.53 C 1865.72 1874.12 1865.72 1976.52 1814.52 1954.73 C 1763.32 1932.95 1785.71 1996.8 1792.0 2048.0 C 1798.29 2099.2 1772.58 2182.79 1823.78 2148.05 C 1874.98 2113.3 1874.98 2215.7 1823.78 2199.25 C 1772.58 2182.79 1793.45 2252.8 1792.0 2304.0 C 1790.55 2355.2 1772.66 2445.65 1823.86 2414.14 C 1875.06 2382.64 1875.06 2485.04 1823.86 2465.34 C 1772.66 2445.65 1799.15 2508.8 1792.0 2560.0 C 1784.85 2611.2 1758.49 2683.93 1809.69 2666.33 C 1860.89 2648.74 1860.89 2751.14 1809.69 2717.53 C 1758.49 2683.93 1788.86 2764.8 1792.0 2816.0 C 1795.14 2867.2 1823.16 2938.7 1771.96 2917.42 C 1720.76 2896.15 1720.76 2998.55 1771.96 2968.62 C 1823.16 2938.7 1792.57 3020.8 1792.0 3072.0 C 1791.43 3123.2 1768.36 3189.29 1819.56 3165.68 C 1870.76 3142.07 1870.76 3244.47 1819.56 3216.88 C 1768.36 3189.29 1790.24 3276.8 1792.0 3328.0 C 1793.76 3379.2 1825.09 3457.35 1773.89 3427.25 C 1722.69 3397.14 1722.69 3499.54 1773.89 3478.45 C 1825.09 3457.35 1784.42 3532.8 1792.0 3584.0 C 1799.58 3635.2 1761.74 3708.13 1812.94 3688.73 C 1864.14 3669.34 1864.14 3771.74 1812.94 3739.93 C 1761.74 3708.13 1790.17 3788.8 1792.0 3840.0 M 2048.0,0.0 C 2053.07 51.2 2030.08 126.18 2081.28 92.49 C 2132.48 58.79 2132.48 161.19 2081.28 143.69 C 2030.08 126.18 2040.48 204.8 2048.0 256.0 C 2055.52 307.2 2022.76 384.47 2073.96 357.86 C 2125.16 331.25 2125.16 433.65 2073.96 409.06 C 2022.76 384.47 2039.59 460.8 2048.0 512.0 C 2056.41 563.2 2071.92 628.78 2020.72 608.5 C 1969.52 588.22 1969.52 690.62 2020.72 659.7 C 2071.92 628.78 2053.03 716.8 2048.0 768.0 C 2042.97 819.2 2026.73 911.48 2077.93 877.37 C 2129.13 843.26 2129.13 945.66 2077.93 928.57 C 2026.73 911.48 2047.1 972.8 2048.0 1024.0 C 2048.9 1075.2 2081.04 1159.93 2029.84 1124.99 C 1978.64 1090.05 1978.64 1192.45 2029.84 1176.19 C 2081.04 1159.93 2038.6 1228.8 2048.0 1280.0 C 2057.4 1331.2 2022.81 1407.96 2074.01 1372.2 C 2125.21 1336.43 2125.21 1438.83 2074.01 1423.4 C 2022.81 1407.96 2055.06 1484.8 2048.0 1536.0 C 2040.94 1587.2 2065.79 1667.98 2014.59 1642.28 C 1963.39 1616.58 1963.39 1718.98 2014.59 1693.48 C 2065.79 1667.98 2046.63 1740.8 2048.0 1792.0 C 2049.37 1843.2 2024.31 1938.63 2075.51 1903.77 C 2126.71 1868.9 2126.71 1971.3 2075.51 1954.97 C 2024.31 1938.63 2042.1 1996.8 2048.0 2048.0 C 2053.9 2099.2 2074.45 2173.55 2023.25 2144.69 C 1972.05 2115.83 1972.05 2218.23 2023.25 2195.89 C 2074.45 2173.55 2058.06 2252.8 2048.0 2304.0 C 2037.94 2355.2 2071.09 2424.27 2019.89 2404.83 C 1968.69 2385.39 1968.69 2487.79 2019.89 2456.03 C 2071.09 2424.27 2046.1 2508.8 2048.0 2560.0 C 2049.9 2611.2 2025.56 2698.42 2076.76 2663.64 C 2127.96 2628.86 2127.96 2731.26 2076.76 2714.84 C 2025.56 2698.42 2054.07 2764.8 2048.0 2816.0 C 2041.93 2867.2 2017.01 2946.04 2068.21 2927.33 C 2119.41 2908.61 2119.41 3011.01 2068.21 2978.53 C 2017.01 2946.04 2053.21 3020.8 2048.0 3072.0 C 2042.79 3123.2 2016.77 3195.37 2067.97 3173.73 C 2119.17 3152.09 2119.17 3254.49 2067.97 3224.93 C 2016.77 3195.37 2056.91 3276.8 2048.0 3328.0 C 2039.09 3379.2 2016.32 3466.52 2067.52 3431.15 C 2118.72 3395.77 2118.72 3498.17 2067.52 3482.35 C 2016.32 3466.52 2040.41 3532.8 2048.0 3584.0 C 2055.59 3635.2 2020.98 3707.71 2072.18 3686.75 C 2123.38 3665.79 2123.38 3768.19 2072.18 3737.95 C 2020.98 3707.71 2056.76 3788.8 2048.0 3840.0 M 2304.0,0.0 C 2301.65 51.2 2334.77 124.36 2283.57 108.96 C 2232.37 93.56 2232.37 195.96 2283.57 160.16 C 2334.77 124.36 2294.44 204.8 2304.0 256.0 C 2313.56 307.2 2272.71 377.2 2323.91 351.39 C 2375.11 325.58 2375.11 427.98 2323.91 402.59 C 2272.71 377.2 2310.94 460.8 2304.0 512.0 C 2297.06 563.2 2336.73 644.69 2285.53 617.14 C 2234.33 589.6 2234.33 692.0 2285.53 668.34 C 2336.73 644.69 2301.0 716.8 2304.0 768.0 C 2307.0 819.2 2328.49 899.23 2277.29 870.24 C 2226.09 841.24 2226.09 943.64 2277.29 921.44 C 2328.49 899.23 2296.22 972.8 2304.0 1024.0 C 2311.78 1075.2 2275.19 1141.96 2326.39 1124.17 C 2377.59 1106.39 2377.59 1208.79 2326.39 1175.37 C 2275.19 1141.96 2307.05 1228.8 2304.0 1280.0 C 2300.95 1331.2 2337.27 1415.95 2286.07 1391.64 C 2234.87 1367.33 2234.87 1469.73 2286.07 1442.84 C 2337.27 1415.95 2299.44 1484.8 2304.0 1536.0 C 2308.56 1587.2 2285.23 1648.6 2336.43 1630.78 C 2387.63 1612.97 2387.63 1715.37 2336.43 1681.98 C 2285.23 1648.6 2301.94 1740.8 2304.0 1792.0 C 2306.06 1843.2 2332.26 1925.7 2281.06 1898.2 C 2229.86 1870.71 2229.86 1973.11 2281.06 1949.4 C 2332.26 1925.7 2307.01 1996.8 2304.0 2048.0 C 2300.99 2099.2 2277.27 2180.02 2328.47 2154.22 C 2379.67 2128.43 2379.67 2230.83 2328.47 2205.42 C 2277.27 2180.02 2302.15 2252.8 2304.0 2304.0 C 2305.85 2355.2 2272.85 2448.07 2324.05 2413.34 C 2375.25 2378.62 2375.25 2481.02 2324.05 2464.54 C 2272.85 2448.07 2295.56 2508.8 2304.0 2560.0 C 2312.44 2611.2 2327.91 2682.8 2276.71 2664.93 C 2225.51 2647.05 2225.51 2749.45 2276.71 2716.13 C 2327.91 2682.8 2309.62 2764.8 2304.0 2816.0 C 2298.38 2867.2 2270.28 2955.31 2321.48 2925.14 C 2372.68 2894.97 2372.68 2997.37 2321.48 2976.34 C 2270.28 2955.31 2309.45 3020.8 2304.0 3072.0 C 2298.55 3123.2 2324.69 3205.63 2273.49 3182.44 C 2222.29 3159.24 2222.29 3261.64 2273.49 3233.64 C 2324.69 3205.63 2295.4 3276.8 2304.0 3328.0 C 2312.6 3379.2 2323.95 3444.44 2272.75 3423.1 C 2221.55 3401.75 2221.55 3504.15 2272.75 3474.3 C 2323.95 3444.44 2298.56 3532.8 2304.0 3584.0 C 2309.44 3635.2 2274.7 3709.95 2325.9 3679.3 C 2377.1 3648.65 2377.1 3751.05 2325.9 3730.5 C 2274.7 3709.95 2295.19 3788.8 2304.0 3840.0 M 2560.0,0.0 C 2567.5 51.2 2581.43 129.6 2530.23 101.39 C 2479.03 73.19 2479.03 175.59 2530.23 152.59 C 2581.43 129.6 2551.46 204.8 2560.0 256.0 C 2568.54 307.2 2575.48 380.91 2524.28 355.49 C 2473.08 330.06 2473.08 432.46 2524.28 406.69 C 2575.48 380.91 2550.73 460.8 2560.0 512.0 C 2569.27 563.2 2592.64 631.84 2541.44 608.49 C 2490.24 585.15 2490.24 687.55 2541.44 659.69 C 2592.64 631.84 2566.94 716.8 2560.0 768.0 C 2553.06 819.2 2591.8 897.75 2540.6 865.86 C 2489.4 833.96 2489.4 936.36 2540.6 917.06 C 2591.8 897.75 2557.36 972.8 2560.0 1024.0 C 2562.64 1075.2 2580.55 1162.71 2529.35 1131.26 C 2478.15 1099.82 2478.15 1202.22 2529.35 1182.46 C 2580.55 1162.71 2552.51 1228.8 2560.0 1280.0 C 2567.49 1331.2 2585.7 1410.03 2534.5 1380.58 C 2483.3 1351.13 2483.3 1453.53 2534.5 1431.78 C 2585.7 1410.03 2566.53 1484.8 2560.0 1536.0 C 2553.47 1587.2 2543.84 1660.65 2595.04 1636.97 C 2646.24 1613.3 2646.24 1715.7 2595.04 1688.17 C 2543.84 1660.65 2569.8 1740.8 2560.0 1792.0 C 2550.2 1843.2 2540.12 1929.75 2591.32 1897.68 C 2642.52 1865.6 2642.52 1968.0 2591.32 1948.88 C 2540.12 1929.75 2567.74 1996.8 2560.0 2048.0 C 2552.26 2099.2 2525.63 2185.59 2576.83 2156.51 C 2628.03 2127.44 2628.03 2229.84 2576.83 2207.71 C 2525.63 2185.59 2558.21 2252.8 2560.0 2304.0 C 2561.79 2355.2 2592.61 2432.61 2541.41 2404.19 C 2490.21 2375.77 2490.21 2478.17 2541.41 2455.39 C 2592.61 2432.61 2563.93 2508.8 2560.0 2560.0 C 2556.07 2611.2 2592.06 2685.58 2540.86 2658.87 C 2489.66 2632.15 2489.66 2734.55 2540.86 2710.07 C 2592.06 2685.58 2552.97 2764.8 2560.0 2816.0 C 2567.03 2867.2 2593.75 2948.72 2542.55 2917.31 C 2491.35 2885.9 2491.35 2988.3 2542.55 2968.51 C 2593.75 2948.72 2567.12 3020.8 2560.0 3072.0 C 2552.88 3123.2 2537.34 3204.85 2588.54 3178.1 C 2639.74 3151.35 2639.74 3253.75 2588.54 3229.3 C 2537.34 3204.85 2566.1 3276.8 2560.0 3328.0 C 2553.9 3379.2 2583.29 3459.87 2532.09 3433.68 C 2480.89 3407.49 2480.89 3509.89 2532.09 3484.88 C 2583.29 3459.87 2556.23 3532.8 2560.0 3584.0 C 2563.77 3635.2 2581.43 3718.19 2530.23 3692.94 C 2479.03 3667.68 2479.03 3770.08 2530.23 3744.14 C 2581.43 3718.19 2561.97 3788.8 2560.0 3840.0 M 2816.0,0.0 C 2815.69 51.2 2782.63 132.11 2833.83 99.25 C 2885.03 66.4 2885.03 168.8 2833.83 150.45 C 2782.63 132.11 2812.04 204.8 2816.0 256.0 C 2819.96 307.2 2851.09 386.7 2799.89 355.24 C 2748.69 323.78 2748.69 426.18 2799.89 406.44 C 2851.09 386.7 2818.78 460.8 2816.0 512.0 C 2813.22 563.2 2849.17 644.43 2797.97 622.23 C 2746.77 600.04 2746.77 702.44 2797.97 673.43 C 2849.17 644.43 2818.39 716.8 2816.0 768.0 C 2813.61 819.2 2785.68 904.87 2836.88 872.69 C 2888.08 840.51 2888.08 942.91 2836.88 923.89 C 2785.68 904.87 2826.21 972.8 2816.0 1024.0 C 2805.79 1075.2 2840.34 1144.98 2789.14 1125.13 C 2737.94 1105.29 2737.94 1207.69 2789.14 1176.33 C 2840.34 1144.98 2811.41 1228.8 2816.0 1280.0 C 2820.59 1331.2 2798.48 1407.72 2849.68 1384.72 C 2900.88 1361.73 2900.88 1464.13 2849.68 1435.92 C 2798.48 1407.72 2815.92 1484.8 2816.0 1536.0 C 2816.08 1587.2 2792.29 1681.37 2843.49 1647.32 C 2894.69 1613.26 2894.69 1715.66 2843.49 1698.52 C 2792.29 1681.37 2822.9 1740.8 2816.0 1792.0 C 2809.1 1843.2 2841.91 1907.72 2790.71 1885.73 C 2739.51 1863.74 2739.51 1966.14 2790.71 1936.93 C 2841.91 1907.72 2824.12 1996.8 2816.0 2048.0 C 2807.88 2099.2 2792.86 2180.71 2844.06 2157.9 C 2895.26 2135.09 2895.26 2237.49 2844.06 2209.1 C 2792.86 2180.71 2825.67 2252.8 2816.0 2304.0 C 2806.33 2355.2 2838.47 2441.46 2787.27 2412.1 C 2736.07 2382.75 2736.07 2485.15 2787.27 2463.3 C 2838.47 2441.46 2808.02 2508.8 2816.0 2560.0 C 2823.98 2611.2 2783.92 2694.33 2835.12 2667.38 C 2886.32 2640.44 2886.32 2742.84 2835.12 2718.58 C 2783.92 2694.33 2812.66 2764.8 2816.0 2816.0 C 2819.34 2867.2 2841.34 2932.12 2790.14 2914.02 C 2738.94 2895.93 2738.94 2998.33 2790.14 2965.22 C 2841.34 2932.12 2826.06 3020.8 2816.0 3072.0 C 2805.94 3123.2 2785.77 3213.34 2836.97 3180.59 C 2888.17 3147.85 2888.17 3250.25 2836.97 3231.79 C 2785.77 3213.34 2819.18 3276.8 2816.0 3328.0 C 2812.82 3379.2 2780.47 3463.63 2831.67 3440.53 C 2882.87 3417.44 2882.87 3519.84 2831.67 3491.73 C 2780.47 3463.63 2806.95 3532.8 2816.0 3584.0 C 2825.05 3635.2 2833.6 3712.16 2782.4 3691.8 C 2731.2 3671.43 2731.2 3773.83 2782.4 3743.0 C 2833.6 3712.16 2809.29 3788.8 2816.0 3840.0 M 3072.0,0.0 C 3061.96 51.2 3036.35 114.32 3087.55 95.09 C 3138.75 75.86 3138.75 178.26 3087.55 146.29 C 3036.35 114.32 3079.21 204.8 3072.0 256.0 C 3064.79 307.2 3047.27 384.24 3098.47 353.47 C 3149.67 322.69 3149.67 425.09 3098.47 404.67 C 3047.27 384.24 3078.17 460.8 3072.0 512.0 C 3065.83 563.2 3104.74 645.11 3053.54 623.14 C 3002.34 601.17 3002.34 703.57 3053.54 674.34 C 3104.74 645.11 3071.14 716.8 3072.0 768.0 C 3072.86 819.2 3088.36 896.53 3037.16 879.48 C 2985.96 862.42 2985.96 964.82 3037.16 930.68 C 3088.36 896.53 3065.21 972.8 3072.0 1024.0 C 3078.79 1075.2 3107.25 1162.54 3056.05 1127.41 C 3004.85 1092.27 3004.85 1194.67 3056.05 1178.61 C 3107.25 1162.54 3072.74 1228.8 3072.0 1280.0 C 3071.26 1331.2 3045.77 1401.24 3096.97 1372.89 C 3148.17 1344.54 3148.17 1446.94 3096.97 1424.09 C 3045.77 1401.24 3070.16 1484.8 3072.0 1536.0 C 3073.84 1587.2 3092.86 1660.26 3041.66 1642.31 C 2990.46 1624.36 2990.46 1726.76 3041.66 1693.51 C 3092.86 1660.26 3074.88 1740.8 3072.0 1792.0 C 3069.12 1843.2 3042.25 1921.84 3093.45 1902.51 C 3144.65 1883.18 3144.65 1985.58 3093.45 1953.71 C 3042.25 1921.84 3069.29 1996.8 3072.0 2048.0 C 3074.71 2099.2 3054.82 2175.7 3106.02 2155.16 C 3157.22 2134.63 3157.22 2237.03 3106.02 2206.36 C 3054.82 2175.7 3071.15 2252.8 3072.0 2304.0 C 3072.85 2355.2 3098.45 2437.3 3047.25 2412.04 C 2996.05 2386.78 2996.05 2489.18 3047.25 2463.24 C 3098.45 2437.3 3061.84 2508.8 3072.0 2560.0 C 3082.16 2611.2 3048.77 2673.49 3099.97 2655.28 C 3151.17 2637.07 3151.17 2739.47 3099.97 2706.48 C 3048.77 2673.49 3067.81 2764.8 3072.0 2816.0 C 3076.19 2867.2 3051.03 2947.11 3102.23 2922.7 C 3153.43 2898.29 3153.43 3000.69 3102.23 2973.9 C 3051.03 2947.11 3066.56 3020.8 3072.0 3072.0 C 3077.44 3123.2 3038.4 3207.8 3089.6 3175.62 C 3140.8 3143.45 3140.8 3245.85 3089.6 3226.82 C 3038.4 3207.8 3069.43 3276.8 3072.0 3328.0 C 3074.57 3379.2 3103.73 3442.14 3052.53 3421.13 C 3001.33 3400.11 3001.33 3502.51 3052.53 3472.33 C 3103.73 3442.14 3066.91 3532.8 3072.0 3584.0 C 3077.09 3635.2 3106.41 3713.07 3055.21 3682.05 C 3004.01 3651.02 3004.01 3753.42 3055.21 3733.25 C 3106.41 3713.07 3076.27 3788.8 3072.0 3840.0 M 3328.0,0.0 C 3326.84 51.2 3358.35 115.86 3307.15 95.28 C 3255.95 74.7 3255.95 177.1 3307.15 146.48 C 3358.35 115.86 3327.99 204.8 3328.0 256.0 C 3328.01 307.2 3354.38 395.77 3303.18 366.48 C 3251.98 337.19 3251.98 439.59 3303.18 417.68 C 3354.38 395.77 3330.49 460.8 3328.0 512.0 C 3325.51 563.2 3306.12 642.57 3357.32 618.98 C 3408.52 595.39 3408.52 697.79 3357.32 670.18 C 3306.12 642.57 3335.03 716.8 3328.0 768.0 C 3320.97 819.2 3362.92 890.97 3311.72 875.35 C 3260.52 859.72 3260.52 962.12 3311.72 926.55 C 3362.92 890.97 3325.71 972.8 3328.0 1024.0 C 3330.29 1075.2 3308.62 1140.99 3359.82 1125.37 C 3411.02 1109.75 3411.02 1212.15 3359.82 1176.57 C 3308.62 1140.99 3320.78 1228.8 3328.0 1280.0 C 3335.22 1331.2 3361.71 1399.14 3310.51 1378.5 C 3259.31 1357.85 3259.31 1460.25 3310.51 1429.7 C 3361.71 1399.14 3338.08 1484.8 3328.0 1536.0 C 3317.92 1587.2 3345.82 1660.47 3294.62 1633.56 C 3243.42 1606.65 3243.42 1709.05 3294.62 1684.76 C 3345.82 1660.47 3336.31 1740.8 3328.0 1792.0 C 3319.69 1843.2 3308.3 1910.11 3359.5 1884.53 C 3410.7 1858.95 3410.7 1961.35 3359.5 1935.73 C 3308.3 1910.11 3322.74 1996.8 3328.0 2048.0 C 3333.26 2099.2 3305.16 2184.64 3356.36 2151.29 C 3407.56 2117.93 3407.56 2220.33 3356.36 2202.49 C 3305.16 2184.64 3321.23 2252.8 3328.0 2304.0 C 3334.77 2355.2 3306.8 2430.74 3358.0 2400.18 C 3409.2 2369.62 3409.2 2472.02 3358.0 2451.38 C 3306.8 2430.74 3326.92 2508.8 3328.0 2560.0 C 3329.08 2611.2 3354.47 2695.06 3303.27 2663.43 C 3252.07 2631.8 3252.07 2734.2 3303.27 2714.63 C 3354.47 2695.06 3334.52 2764.8 3328.0 2816.0 C 3321.48 2867.2 3348.36 2944.9 3297.16 2916.09 C 3245.96 2887.29 3245.96 2989.69 3297.16 2967.29 C 3348.36 2944.9 3325.54 3020.8 3328.0 3072.0 C 3330.46 3123.2 3346.29 3198.45 3295.09 3164.56 C 3243.89 3130.66 3243.89 3233.06 3295.09 3215.76 C 3346.29 3198.45 3325.7 3276.8 3328.0 3328.0 C 3330.3 3379.2 3351.58 3456.93 3300.38 3427.24 C 3249.18 3397.55 3249.18 3499.95 3300.38 3478.44 C 3351.58 3456.93 3334.18 3532.8 3328.0 3584.0 C 3321.82 3635.2 3302.19 3723.96 3353.39 3691.07 C 3404.59 3658.17 3404.59 3760.57 3353.39 3742.27 C 3302.19 3723.96 3330.86 3788.8 3328.0 3840.0 M 3584.0,0.0 C 3591.61 51.2 3551.71 127.81 3602.91 94.12 C 3654.11 60.43 3654.11 162.83 3602.91 145.32 C 3551.71 127.81 3574.52 204.8 3584.0 256.0 C 3593.48 307.2 3606.38 387.88 3555.18 352.18 C 3503.98 316.47 3503.98 418.87 3555.18 403.38 C 3606.38 387.88 3590.83 460.8 3584.0 512.0 C 3577.17 563.2 3555.7 636.76 3606.9 612.41 C 3658.1 588.06 3658.1 690.46 3606.9 663.61 C 3555.7 636.76 3589.72 716.8 3584.0 768.0 C 3578.28 819.2 3609.1 914.21 3557.9 880.62 C 3506.7 847.03 3506.7 949.43 3557.9 931.82 C 3609.1 914.21 3591.56 972.8 3584.0 1024.0 C 3576.44 1075.2 3563.38 1155.43 3614.58 1129.11 C 3665.78 1102.79 3665.78 1205.19 3614.58 1180.31 C 3563.38 1155.43 3577.29 1228.8 3584.0 1280.0 C 3590.71 1331.2 3615.84 1417.27 3564.64 1385.2 C 3513.44 1353.13 3513.44 1455.53 3564.64 1436.4 C 3615.84 1417.27 3577.52 1484.8 3584.0 1536.0 C 3590.48 1587.2 3555.05 1647.73 3606.25 1632.33 C 3657.45 1616.94 3657.45 1719.34 3606.25 1683.53 C 3555.05 1647.73 3579.23 1740.8 3584.0 1792.0 C 3588.77 1843.2 3564.27 1928.14 3615.47 1895.14 C 3666.67 1862.14 3666.67 1964.54 3615.47 1946.34 C 3564.27 1928.14 3578.02 1996.8 3584.0 2048.0 C 3589.98 2099.2 3618.14 2169.02 3566.94 2152.5 C 3515.74 2135.99 3515.74 2238.39 3566.94 2203.7 C 3618.14 2169.02 3583.08 2252.8 3584.0 2304.0 C 3584.92 2355.2 3604.59 2432.32 3553.39 2415.57 C 3502.19 2398.82 3502.19 2501.22 3553.39 2466.77 C 3604.59 2432.32 3584.89 2508.8 3584.0 2560.0 C 3583.11 2611.2 3568.25 2676.32 3619.45 2657.04 C 3670.65 2637.76 3670.65 2740.16 3619.45 2708.24 C 3568.25 2676.32 3582.55 2764.8 3584.0 2816.0 C 3585.45 2867.2 3556.48 2935.15 3607.68 2915.61 C 3658.88 2896.06 3658.88 2998.46 3607.68 2966.81 C 3556.48 2935.15 3577.24 3020.8 3584.0 3072.0 C 3590.76 3123.2 3604.53 3200.93 3553.33 3166.51 C 3502.13 3132.1 3502.13 3234.5 3553.33 3217.71 C 3604.53 3200.93 3588.12 3276.8 3584.0 3328.0 C 3579.88 3379.2 3607.07 3464.02 3555.87 3439.24 C 3504.67 3414.47 3504.67 3516.87 3555.87 3490.44 C 3607.07 3464.02 3591.0 3532.8 3584.0 3584.0 C 3577.0 3635.2 3616.06 3700.59 3564.86 3681.7 C 3513.66 3662.81 3513.66 3765.21 3564.86 3732.9 C 3616.06 3700.59 3581.73 3788.8 3584.0 3840.0 "></path><path fill="none" stroke="Black" stroke-width="0.01" class="border" d="M 2.0 0.0 L 3838.0 0.0 A 2.0 2.0 0 0 1 3840.0 2.0 L 3840.0 3838.0 A 2.0 2.0 0 0 1 3838.0 3840.0 L 2.0 3840.0 A 2.0 2.0 0 0 1 0.0 3838.0 L 0.0 2.0 A 2.0 2.0 0 0 1 2.0 0.0 "></path></svg>