<?xml version='1.0' encoding='utf-8'?>
<svg xmlns="http://www.w3.org/2000/svg" xmlns:xlink="http://www.w3.org/1999/xlink" width="2048px" height="2048px" viewBox="0 0 2048 2048" version="1.1"><defs><clipPath id="clip"><path d="M 20.0,0.0 C 19.53 4.0 21.3 9.66 17.3 7.57 C 13.3 5.49 13.3 13.49 17.3 11.57 C 21.3 9.66 20.15 16.0 20.0 20.0 C 19.85 24.0 21.35 29.8 17.35 27.21 C 13.35 24.61 13.35 32.61 17.35 31.21 C 21.35 29.8 20.08 36.0 20.0 40.0 C 19.92 44.0 17.54 49.81 21.54 47.3 C 25.54 44.79 25.54 52.79 21.54 51.3 C 17.54 49.81 20.15 56.0 20.0 60.0 C 19.85 64.0 21.57 69.93 17.57 67.81 C 13.57 65.69 13.57 73.69 17.57 71.81 C 21.57 69.93 19.41 76.0 20.0 80.0 C 20.59 84.0 21.58 91.25 17.58 88.68 C 13.58 86.11 13.58 94.11 17.58 92.68 C 21.58 91.25 19.66 96.0 20.0 100.0 C 20.34 104.0 21.87 109.52 17.87 108.22 C 13.87 106.92 13.87 114.92 17.87 112.22 C 21.87 109.52 19.9 116.0 20.0 120.0 C 20.1 124.0 17.23 130.92 21.23 128.74 C 25.23 126.56 25.23 134.56 21.23 132.74 C 17.23 130.92 20.35 136.0 20.0 140.0 C 19.65 144.0 17.64 149.22 21.64 147.99 C 25.64 146.75 25.64 154.75 21.64 151.99 C 17.64 149.22 20.23 156.0 20.0 160.0 C 19.77 164.0 21.38 169.95 17.38 167.85 C 13.38 165.76 13.38 173.76 17.38 171.85 C 21.38 169.95 20.06 176.0 20.0 180.0 C 19.94 184.0 17.26 188.61 21.26 187.36 C 25.26 186.11 25.26 194.11 21.26 191.36 C 17.26 188.61 20.14 196.0 20.0 200.0 M 40.0,0.0 C 40.74 4.0 37.63 10.57 41.63 8.0 C 45.63 5.43 45.63 13.43 41.63 12.0 C 37.63 10.57 40.7 16.0 40.0 20.0 C 39.3 24.0 42.79 30.51 38.79 28.8 C 34.79 27.09 34.79 35.09 38.79 32.8 C 42.79 30.51 40.26 36.0 40.0 40.0 C 39.74 44.0 41.78 50.57 37.78 47.98 C 33.78 45.39 33.78 53.39 37.78 51.98 C 41.78 50.57 39.86 56.0 40.0 60.0 C 40.14 64.0 42.27 71.22 38.27 68.56 C 34.27 65.91 34.27 73.91 38.27 72.56 C 42.27 71.22 40.59 76.0 40.0 80.0 C 39.41 84.0 37.68 89.21 41.68 87.51 C 45.68 85.8 45.68 93.8 41.68 91.51 C 37.68 89.21 39.4 96.0 40.0 100.0 C 40.6 104.0 42.28 110.8 38.28 108.38 C 34.28 105.95 34.28 113.95 38.28 112.38 C 42.28 110.8 39.38 116.0 40.0 120.0 C 40.62 124.0 37.39 130.56 41.39 127.83 C 45.39 125.09 45.39 133.09 41.39 131.83 C 37.39 130.56 39.33 136.0 40.0 140.0 C 40.67 144.0 37.71 149.91 41.71 148.02 C 45.71 146.14 45.71 154.14 41.71 152.02 C 37.71 149.91 39.77 156.0 40.0 160.0 C 40.23 164.0 41.79 170.06 37.79 167.38 C 33.79 164.7 33.79 172.7 37.79 171.38 C 41.79 170.06 40.7 176.0 40.0 180.0 C 39.3 184.0 38.67 190.44 42.67 187.7 C 46.67 184.96 46.67 192.96 42.67 191.7 C 38.67 190.44 39.86 196.0 40.0 200.0 M 60.0,0.0 C 60.11 4.0 61.76 10.16 57.76 8.78 C 53.76 7.4 53.76 15.4 57.76 12.78 C 61.76 10.16 59.98 16.0 60.0 20.0 C 60.02 24.0 62.12 31.12 58.12 28.71 C 54.12 26.3 54.12 34.3 58.12 32.71 C 62.12 31.12 59.71 36.0 60.0 40.0 C 60.29 44.0 62.12 49.1 58.12 47.66 C 54.12 46.22 54.12 54.22 58.12 51.66 C 62.12 49.1 59.26 56.0 60.0 60.0 C 60.74 64.0 61.82 69.93 57.82 67.56 C 53.82 65.2 53.82 73.2 57.82 71.56 C 61.82 69.93 59.63 76.0 60.0 80.0 C 60.37 84.0 61.46 90.23 57.46 87.74 C 53.46 85.24 53.46 93.24 57.46 91.74 C 61.46 90.23 59.33 96.0 60.0 100.0 C 60.67 104.0 61.46 110.46 57.46 107.72 C 53.46 104.99 53.46 112.99 57.46 111.72 C 61.46 110.46 60.39 116.0 60.0 120.0 C 59.61 124.0 57.33 130.88 61.33 128.8 C 65.33 126.72 65.33 134.72 61.33 132.8 C 57.33 130.88 60.26 136.0 60.0 140.0 C 59.74 144.0 57.33 149.33 61.33 147.99 C 65.33 146.66 65.33 154.66 61.33 151.99 C 57.33 149.33 60.07 156.0 60.0 160.0 C 59.93 164.0 62.17 170.62 58.17 168.23 C 54.17 165.84 54.17 173.84 58.17 172.23 C 62.17 170.62 60.6 176.0 60.0 180.0 C 59.4 184.0 58.06 189.72 62.06 188.44 C 66.06 187.15 66.06 195.15 62.06 192.44 C 58.06 189.72 59.8 196.0 60.0 200.0 M 80.0,0.0 C 79.32 4.0 78.26 10.77 82.26 8.01 C 86.26 5.26 86.26 13.26 82.26 12.01 C 78.26 10.77 80.66 16.0 80.0 20.0 C 79.34 24.0 81.81 30.16 77.81 28.6 C 73.81 27.04 73.81 35.04 77.81 32.6 C 81.81 30.16 80.29 36.0 80.0 40.0 C 79.71 44.0 77.65 49.36 81.65 47.39 C 85.65 45.42 85.65 53.42 81.65 51.39 C 77.65 49.36 79.75 56.0 80.0 60.0 C 80.25 64.0 82.37 69.89 78.37 68.15 C 74.37 66.41 74.37 74.41 78.37 72.15 C 82.37 69.89 80.42 76.0 80.0 80.0 C 79.58 84.0 77.64 90.05 81.64 88.53 C 85.64 87.02 85.64 95.02 81.64 92.53 C 77.64 90.05 80.11 96.0 80.0 100.0 C 79.89 104.0 78.63 110.63 82.63 108.47 C 86.63 106.31 86.63 114.31 82.63 112.47 C 78.63 110.63 79.96 116.0 80.0 120.0 C 80.04 124.0 78.44 129.75 82.44 127.96 C 86.44 126.18 86.44 134.18 82.44 131.96 C 78.44 129.75 80.65 136.0 80.0 140.0 C 79.35 144.0 78.4 150.26 82.4 147.96 C 86.4 145.66 86.4 153.66 82.4 151.96 C 78.4 150.26 79.84 156.0 80.0 160.0 C 80.16 164.0 81.81 169.86 77.81 167.5 C 73.81 165.14 73.81 173.14 77.81 171.5 C 81.81 169.86 80.46 176.0 80.0 180.0 C 79.54 184.0 81.48 190.96 77.48 188.49 C 73.48 186.01 73.48 194.01 77.48 192.49 C 81.48 190.96 79.32 196.0 80.0 200.0 M 100.0,0.0 C 99.83 4.0 102.03 8.53 98.03 7.21 C 94.03 5.88 94.03 13.88 98.03 11.21 C 102.03 8.53 99.81 16.0 100.0 20.0 C 100.19 24.0 98.31 29.78 102.31 28.01 C 106.31 26.24 106.31 34.24 102.31 32.01 C 98.31 29.78 99.58 36.0 100.0 40.0 C 100.42 44.0 97.55 49.63 101.55 47.8 C 105.55 45.98 105.55 53.98 101.55 51.8 C 97.55 49.63 99.71 56.0 100.0 60.0 C 100.29 64.0 101.66 70.3 97.66 68.16 C 93.66 66.01 93.66 74.01 97.66 72.16 C 101.66 70.3 99.7 76.0 100.0 80.0 C 100.3 84.0 101.22 90.14 97.22 88.17 C 93.22 86.2 93.22 94.2 97.22 92.17 C 101.22 90.14 99.54 96.0 100.0 100.0 C 100.46 104.0 102.66 110.08 98.66 107.98 C 94.66 105.89 94.66 113.89 98.66 111.98 C 102.66 110.08 100.63 116.0 100.0 120.0 C 99.37 124.0 101.49 129.09 97.49 127.64 C 93.49 126.19 93.49 134.19 97.49 131.64 C 101.49 129.09 100.23 136.0 100.0 140.0 C 99.77 144.0 98.11 151.19 102.11 148.56 C 106.11 145.94 106.11 153.94 102.11 152.56 C 98.11 151.19 99.44 156.0 100.0 160.0 C 100.56 164.0 102.15 170.85 98.15 168.62 C 94.15 166.39 94.15 174.39 98.15 172.62 C 102.15 170.85 100.59 176.0 100.0 180.0 C 99.41 184.0 101.62 191.13 97.62 188.36 C 93.62 185.59 93.62 193.59 97.62 192.36 C 101.62 191.13 99.37 196.0 100.0 200.0 M 120.0,0.0 C 120.09 4.0 118.3 9.59 122.3 7.43 C 126.3 5.27 126.3 13.27 122.3 11.43 C 118.3 9.59 120.2 16.0 120.0 20.0 C 119.8 24.0 117.88 29.9 121.88 28.62 C 125.88 27.34 125.88 35.34 121.88 32.62 C 117.88 29.9 120.57 36.0 120.0 40.0 C 119.43 44.0 121.22 50.58 117.22 48.67 C 113.22 46.75 113.22 54.75 117.22 52.67 C 121.22 50.58 119.24 56.0 120.0 60.0 C 120.76 64.0 121.63 70.04 117.63 68.74 C 113.63 67.45 113.63 75.45 117.63 72.74 C 121.63 70.04 119.57 76.0 120.0 80.0 C 120.43 84.0 117.64 89.67 121.64 87.97 C 125.64 86.28 125.64 94.28 121.64 91.97 C 117.64 89.67 119.29 96.0 120.0 100.0 C 120.71 104.0 121.43 109.84 117.43 108.59 C 113.43 107.35 113.43 115.35 117.43 112.59 C 121.43 109.84 120.22 116.0 120.0 120.0 C 119.78 124.0 121.66 130.06 117.66 128.63 C 113.66 127.2 113.66 135.2 117.66 132.63 C 121.66 130.06 120.69 136.0 120.0 140.0 C 119.31 144.0 121.99 150.56 117.99 148.22 C 113.99 145.89 113.99 153.89 117.99 152.22 C 121.99 150.56 120.07 156.0 120.0 160.0 C 119.93 164.0 117.39 169.95 121.39 167.6 C 125.39 165.24 125.39 173.24 121.39 171.6 C 117.39 169.95 119.82 176.0 120.0 180.0 C 120.18 184.0 118.64 190.85 122.64 188.66 C 126.64 186.47 126.64 194.47 122.64 192.66 C 118.64 190.85 119.67 196.0 120.0 200.0 M 140.0,0.0 C 140.36 4.0 137.49 11.18 141.49 8.59 C 145.49 6.01 145.49 14.01 141.49 12.59 C 137.49 11.18 139.24 16.0 140.0 20.0 C 140.76 24.0 137.59 29.72 141.59 27.39 C 145.59 25.06 145.59 33.06 141.59 31.39 C 137.59 29.72 140.53 36.0 140.0 40.0 C 139.47 44.0 142.17 51.29 138.17 48.53 C 134.17 45.77 134.17 53.77 138.17 52.53 C 142.17 51.29 139.35 56.0 140.0 60.0 C 140.65 64.0 137.56 71.54 141.56 68.77 C 145.56 65.99 145.56 73.99 141.56 72.77 C 137.56 71.54 139.44 76.0 140.0 80.0 C 140.56 84.0 138.01 91.15 142.01 88.55 C 146.01 85.95 146.01 93.95 142.01 92.55 C 138.01 91.15 140.08 96.0 140.0 100.0 C 139.92 104.0 141.42 110.57 137.42 108.54 C 133.42 106.51 133.42 114.51 137.42 112.54 C 141.42 110.57 139.58 116.0 140.0 120.0 C 140.42 124.0 138.76 129.95 142.76 128.58 C 146.76 127.2 146.76 135.2 142.76 132.58 C 138.76 129.95 139.24 136.0 140.0 140.0 C 140.76 144.0 141.88 150.85 137.88 148.06 C 133.88 145.27 133.88 153.27 137.88 152.06 C 141.88 150.85 139.65 156.0 140.0 160.0 C 140.35 164.0 142.1 169.75 138.1 167.73 C 134.1 165.72 134.1 173.72 138.1 171.73 C 142.1 169.75 140.6 176.0 140.0 180.0 C 139.4 184.0 138.72 189.79 142.72 187.47 C 146.72 185.16 146.72 193.16 142.72 191.47 C 138.72 189.79 140.65 196.0 140.0 200.0 M 160.0,0.0 C 159.51 4.0 162.71 10.16 158.71 8.48 C 154.71 6.8 154.71 14.8 158.71 12.48 C 162.71 10.16 159.63 16.0 160.0 20.0 C 160.37 24.0 157.9 30.15 161.9 28.2 C 165.9 26.25 165.9 34.25 161.9 32.2 C 157.9 30.15 160.29 36.0 160.0 40.0 C 159.71 44.0 158.25 49.34 162.25 47.6 C 166.25 45.87 166.25 53.87 162.25 51.6 C 158.25 49.34 159.8 56.0 160.0 60.0 C 160.2 64.0 162.43 69.12 158.43 67.41 C 154.43 65.7 154.43 73.7 158.43 71.41 C 162.43 69.12 159.27 76.0 160.0 80.0 C 160.73 84.0 157.26 89.48 161.26 87.9 C 165.26 86.31 165.26 94.31 161.26 91.9 C 157.26 89.48 159.7 96.0 160.0 100.0 C 160.3 104.0 157.81 110.53 161.81 108.56 C 165.81 106.59 165.81 114.59 161.81 112.56 C 157.81 110.53 160.04 116.0 160.0 120.0 C 159.96 124.0 162.69 129.53 158.69 128.13 C 154.69 126.72 154.69 134.72 158.69 132.13 C 162.69 129.53 159.24 136.0 160.0 140.0 C 160.76 144.0 157.77 151.32 161.77 148.69 C 165.77 146.06 165.77 154.06 161.77 152.69 C 157.77 151.32 159.7 156.0 160.0 160.0 C 160.3 164.0 161.36 169.69 157.36 168.22 C 153.36 166.75 153.36 174.75 157.36 172.22 C 161.36 169.69 160.22 176.0 160.0 180.0 C 159.78 184.0 157.35 189.41 161.35 187.8 C 165.35 186.18 165.35 194.18 161.35 191.8 C 157.35 189.41 160.61 196.0 160.0 200.0 M 180.0,0.0 C 180.43 4.0 182.19 10.84 178.19 8.08 C 174.19 5.32 174.19 13.32 178.19 12.08 C 182.19 10.84 179.41 16.0 180.0 20.0 C 180.59 24.0 182.8 29.55 178.8 27.77 C 174.8 25.99 174.8 33.99 178.8 31.77 C 182.8 29.55 180.17 36.0 180.0 40.0 C 179.83 44.0 181.38 50.32 177.38 47.55 C 173.38 44.78 173.38 52.78 177.38 51.55 C 181.38 50.32 179.29 56.0 180.0 60.0 C 180.71 64.0 181.74 70.69 177.74 68.11 C 173.74 65.53 173.74 73.53 177.74 72.11 C 181.74 70.69 180.08 76.0 180.0 80.0 C 179.92 84.0 181.76 89.32 177.76 87.3 C 173.76 85.29 173.76 93.29 177.76 91.3 C 181.76 89.32 179.71 96.0 180.0 100.0 C 180.29 104.0 178.8 109.41 182.8 108.15 C 186.8 106.88 186.8 114.88 182.8 112.15 C 178.8 109.41 179.4 116.0 180.0 120.0 C 180.6 124.0 181.28 131.16 177.28 128.59 C 173.28 126.03 173.28 134.03 177.28 132.59 C 181.28 131.16 179.34 136.0 180.0 140.0 C 180.66 144.0 181.88 149.97 177.88 148.06 C 173.88 146.15 173.88 154.15 177.88 152.06 C 181.88 149.97 180.52 156.0 180.0 160.0 C 179.48 164.0 177.62 170.51 181.62 168.72 C 185.62 166.93 185.62 174.93 181.62 172.72 C 177.62 170.51 179.69 176.0 180.0 180.0 C 180.31 184.0 181.55 191.0 177.55 188.63 C 173.55 186.26 173.55 194.26 177.55 192.63 C 181.55 191.0 179.44 196.0 180.0 200.0 M 200.0,0.0 C 199.7 4.0 197.68 8.52 201.68 7.29 C 205.68 6.06 205.68 14.06 201.68 11.29 C 197.68 8.52 199.49 16.0 200.0 20.0 C 200.51 24.0 202.67 30.52 198.67 28.08 C 194.67 25.65 194.67 33.65 198.67 32.08 C 202.67 30.52 199.3 36.0 200.0 40.0 C 200.7 44.0 198.63 51.14 202.63 48.76 C 206.63 46.39 206.63 54.39 202.63 52.76 C 198.63 51.14 199.46 56.0 200.0 60.0 C 200.54 64.0 201.7 69.74 197.7 68.31 C 193.7 66.88 193.7 74.88 197.7 72.31 C 201.7 69.74 199.43 76.0 200.0 80.0 C 200.57 84.0 201.64 90.16 197.64 87.44 C 193.64 84.71 193.64 92.71 197.64 91.44 C 201.64 90.16 199.94 96.0 200.0 100.0 C 200.06 104.0 198.25 109.9 202.25 108.08 C 206.25 106.27 206.25 114.27 202.25 112.08 C 198.25 109.9 199.93 116.0 200.0 120.0 C 200.07 124.0 201.6 129.4 197.6 127.2 C 193.6 125.01 193.6 133.01 197.6 131.2 C 201.6 129.4 199.25 136.0 200.0 140.0 C 200.75 144.0 198.66 149.62 202.66 148.36 C 206.66 147.1 206.66 155.1 202.66 152.36 C 198.66 149.62 200.6 156.0 200.0 160.0 C 199.4 164.0 201.67 170.09 197.67 167.89 C 193.67 165.7 193.67 173.7 197.67 171.89 C 201.67 170.09 200.41 176.0 200.0 180.0 C 199.59 184.0 197.36 190.49 201.36 188.72 C 205.36 186.95 205.36 194.95 201.36 192.72 C 197.36 190.49 200.3 196.0 200.0 200.0 M 220.0,0.0 C 220.1 4.0 221.83 10.73 217.83 8.11 C 213.83 5.48 213.83 13.48 217.83 12.11 C 221.83 10.73 219.95 16.0 220.0 20.0 C 220.05 24.0 217.32 29.6 221.32 28.0 C 225.32 26.4 225.32 34.4 221.32 32.0 C 217.32 29.6 219.2 36.0 220.0 40.0 C 220.8 44.0 222.43 49.15 218.43 47.32 C 214.43 45.49 214.43 53.49 218.43 51.32 C 222.43 49.15 220.66 56.0 220.0 60.0 C 219.34 64.0 217.62 70.86 221.62 68.55 C 225.62 66.25 225.62 74.25 221.62 72.55 C 217.62 70.86 220.19 76.0 220.0 80.0 C 219.81 84.0 218.24 89.37 222.24 87.97 C 226.24 86.56 226.24 94.56 222.24 91.97 C 218.24 89.37 220.56 96.0 220.0 100.0 C 219.44 104.0 221.7 110.19 217.7 108.13 C 213.7 106.08 213.7 114.08 217.7 112.13 C 221.7 110.19 219.81 116.0 220.0 120.0 C 220.19 124.0 221.35 131.25 217.35 128.76 C 213.35 126.27 213.35 134.27 217.35 132.76 C 221.35 131.25 219.33 136.0 220.0 140.0 C 220.67 144.0 218.05 149.58 222.05 147.4 C 226.05 145.22 226.05 153.22 222.05 151.4 C 218.05 149.58 219.94 156.0 220.0 160.0 C 220.06 164.0 217.66 169.97 221.66 168.36 C 225.66 166.75 225.66 174.75 221.66 172.36 C 217.66 169.97 220.03 176.0 220.0 180.0 C 219.97 184.0 222.5 190.85 218.5 188.66 C 214.5 186.47 214.5 194.47 218.5 192.66 C 222.5 190.85 220.69 196.0 220.0 200.0 M 240.0,0.0 C 239.24 4.0 242.78 10.61 238.78 7.86 C 234.78 5.11 234.78 13.11 238.78 11.86 C 242.78 10.61 239.5 16.0 240.0 20.0 C 240.5 24.0 237.46 30.2 241.46 27.91 C 245.46 25.61 245.46 33.61 241.46 31.91 C 237.46 30.2 239.57 36.0 240.0 40.0 C 240.43 44.0 242.63 50.11 238.63 48.42 C 234.63 46.74 234.63 54.74 238.63 52.42 C 242.63 50.11 239.43 56.0 240.0 60.0 C 240.57 64.0 238.25 69.05 242.25 67.27 C 246.25 65.5 246.25 73.5 242.25 71.27 C 238.25 69.05 240.35 76.0 240.0 80.0 C 239.65 84.0 237.58 89.22 241.58 87.9 C 245.58 86.58 245.58 94.58 241.58 91.9 C 237.58 89.22 240.02 96.0 240.0 100.0 C 239.98 104.0 237.43 109.88 241.43 108.6 C 245.43 107.31 245.43 115.31 241.43 112.6 C 237.43 109.88 240.38 116.0 240.0 120.0 C 239.62 124.0 241.47 128.94 237.47 127.29 C 233.47 125.64 233.47 133.64 237.47 131.29 C 241.47 128.94 240.66 136.0 240.0 140.0 C 239.34 144.0 241.35 150.73 237.35 148.79 C 233.35 146.85 233.35 154.85 237.35 152.79 C 241.35 150.73 239.22 156.0 240.0 160.0 C 240.78 164.0 242.17 170.55 238.17 168.04 C 234.17 165.52 234.17 173.52 238.17 172.04 C 242.17 170.55 239.85 176.0 240.0 180.0 C 240.15 184.0 238.55 189.42 242.55 187.68 C 246.55 185.94 246.55 193.94 242.55 191.68 C 238.55 189.42 240.66 196.0 240.0 200.0 M 260.0,0.0 C 260.62 4.0 261.49 9.3 257.49 8.08 C 253.49 6.85 253.49 14.85 257.49 12.08 C 261.49 9.3 259.97 16.0 260.0 20.0 C 260.03 24.0 261.49 30.22 257.49 27.52 C 253.49 24.83 253.49 32.83 257.49 31.52 C 261.49 30.22 260.47 36.0 260.0 40.0 C 259.53 44.0 261.92 49.78 257.92 47.32 C 253.92 44.87 253.92 52.87 257.92 51.32 C 261.92 49.78 259.92 56.0 260.0 60.0 C 260.08 64.0 258.64 70.49 262.64 68.48 C 266.64 66.47 266.64 74.47 262.64 72.48 C 258.64 70.49 260.72 76.0 260.0 80.0 C 259.28 84.0 257.4 89.65 261.4 87.3 C 265.4 84.96 265.4 92.96 261.4 91.3 C 257.4 89.65 260.34 96.0 260.0 100.0 C 259.66 104.0 261.88 110.38 257.88 108.79 C 253.88 107.2 253.88 115.2 257.88 112.79 C 261.88 110.38 260.38 116.0 260.0 120.0 C 259.62 124.0 262.49 129.81 258.49 127.98 C 254.49 126.16 254.49 134.16 258.49 131.98 C 262.49 129.81 259.32 136.0 260.0 140.0 C 260.68 144.0 261.47 150.67 257.47 147.96 C 253.47 145.25 253.47 153.25 257.47 151.96 C 261.47 150.67 259.49 156.0 260.0 160.0 C 260.51 164.0 258.55 169.44 262.55 167.91 C 266.55 166.38 266.55 174.38 262.55 171.91 C 258.55 169.44 259.24 176.0 260.0 180.0 C 260.76 184.0 258.02 190.65 262.02 187.85 C 266.02 185.05 266.02 193.05 262.02 191.85 C 258.02 190.65 259.99 196.0 260.0 200.0 M 280.0,0.0 C 280.54 4.0 278.13 9.11 282.13 7.43 C 286.13 5.75 286.13 13.75 282.13 11.43 C 278.13 9.11 280.11 16.0 280.0 20.0 C 279.89 24.0 278.7 29.16 282.7 27.64 C 286.7 26.12 286.7 34.12 282.7 31.64 C 278.7 29.16 279.32 36.0 280.0 40.0 C 280.68 44.0 278.52 49.92 282.52 47.27 C 286.52 44.62 286.52 52.62 282.52 51.27 C 278.52 49.92 279.99 56.0 280.0 60.0 C 280.01 64.0 278.33 71.22 282.33 68.58 C 286.33 65.94 286.33 73.94 282.33 72.58 C 278.33 71.22 279.29 76.0 280.0 80.0 C 280.71 84.0 278.56 89.0 282.56 87.59 C 286.56 86.18 286.56 94.18 282.56 91.59 C 278.56 89.0 279.66 96.0 280.0 100.0 C 280.34 104.0 278.52 110.31 282.52 108.26 C 286.52 106.21 286.52 114.21 282.52 112.26 C 278.52 110.31 280.67 116.0 280.0 120.0 C 279.33 124.0 278.3 129.97 282.3 127.36 C 286.3 124.74 286.3 132.74 282.3 131.36 C 278.3 129.97 280.13 136.0 280.0 140.0 C 279.87 144.0 282.17 150.8 278.17 148.04 C 274.17 145.28 274.17 153.28 278.17 152.04 C 282.17 150.8 279.32 156.0 280.0 160.0 C 280.68 164.0 281.87 169.14 277.87 167.31 C 273.87 165.49 273.87 173.49 277.87 171.31 C 281.87 169.14 279.67 176.0 280.0 180.0 C 280.33 184.0 278.32 190.46 282.32 188.67 C 286.32 186.88 286.32 194.88 282.32 192.67 C 278.32 190.46 280.64 196.0 280.0 200.0 " /></clipPath></defs><image xlink:href="cat1.png" width="2048" height="2048" clip-path="url(#clip)" id="bg" /></svg>