<?xml version='1.0' encoding='utf-8'?>
<svg xmlns="http://www.w3.org/2000/svg" xmlns:xlink="http://www.w3.org/1999/xlink" width="2048px" height="2048px" viewBox="0 0 2048 2048" version="1.1"><defs><clipPath id="clip"><path d="M 0.0,20.0 C 4.0 20.17 9.13 22.69 7.67 18.69 C 6.21 14.69 14.21 14.69 11.67 18.69 C 9.13 22.69 16.0 19.6 20.0 20.0 C 24.0 20.4 30.66 22.71 28.77 18.71 C 26.88 14.71 34.88 14.71 32.77 18.71 C 30.66 22.71 36.0 19.29 40.0 20.0 C 44.0 20.71 49.3 18.72 47.29 22.72 C 45.28 26.72 53.28 26.72 51.29 22.72 C 49.3 18.72 56.0 19.5 60.0 20.0 C 64.0 20.5 70.02 18.28 67.88 22.28 C 65.75 26.28 73.75 26.28 71.88 22.28 C 70.02 18.28 76.0 20.1 80.0 20.0 C 84.0 19.9 90.73 21.74 88.0 17.74 C 85.26 13.74 93.26 13.74 92.0 17.74 C 90.73 21.74 96.0 20.49 100.0 20.0 C 104.0 19.51 109.64 22.27 107.81 18.27 C 105.99 14.27 113.99 14.27 111.81 18.27 C 109.64 22.27 116.0 19.29 120.0 20.0 C 124.0 20.71 128.97 22.16 127.77 18.16 C 126.57 14.16 134.57 14.16 131.77 18.16 C 128.97 22.16 136.0 19.78 140.0 20.0 C 144.0 20.22 149.94 21.39 147.79 17.39 C 145.64 13.39 153.64 13.39 151.79 17.39 C 149.94 21.39 156.0 20.19 160.0 20.0 C 164.0 19.81 170.17 22.09 168.74 18.09 C 167.3 14.09 175.3 14.09 172.74 18.09 C 170.17 22.09 176.0 19.67 180.0 20.0 C 184.0 20.33 188.69 17.35 187.35 21.35 C 186.01 25.35 194.01 25.35 191.35 21.35 C 188.69 17.35 196.0 20.63 200.0 20.0 C 204.0 19.37 210.2 17.27 208.07 21.27 C 205.94 25.27 213.94 25.27 212.07 21.27 C 210.2 17.27 216.0 20.07 220.0 20.0 C 224.0 19.93 229.26 18.27 228.0 22.27 C 226.73 26.27 234.73 26.27 232.0 22.27 C 229.26 18.27 236.0 19.61 240.0 20.0 C 244.0 20.39 249.59 21.31 247.98 17.31 C 246.36 13.31 254.36 13.31 251.98 17.31 C 249.59 21.31 256.0 19.76 260.0 20.0 C 264.0 20.24 268.77 21.86 267.45 17.86 C 266.13 13.86 274.13 13.86 271.45 17.86 C 268.77 21.86 276.0 19.81 280.0 20.0 C 284.0 20.19 290.0 21.53 288.03 17.53 C 286.05 13.53 294.05 13.53 292.03 17.53 C 290.0 21.53 296.0 19.95 300.0 20.0 M 0.0,40.0 C 4.0 39.85 11.11 38.35 8.36 42.35 C 5.6 46.35 13.6 46.35 12.36 42.35 C 11.11 38.35 16.0 40.45 20.0 40.0 C 24.0 39.55 28.54 38.39 27.3 42.39 C 26.06 46.39 34.06 46.39 31.3 42.39 C 28.54 38.39 36.0 39.68 40.0 40.0 C 44.0 40.32 50.06 42.1 48.58 38.1 C 47.09 34.1 55.09 34.1 52.58 38.1 C 50.06 42.1 56.0 39.26 60.0 40.0 C 64.0 40.74 69.81 41.62 67.47 37.62 C 65.12 33.62 73.12 33.62 71.47 37.62 C 69.81 41.62 76.0 39.27 80.0 40.0 C 84.0 40.73 89.84 37.96 88.36 41.96 C 86.88 45.96 94.88 45.96 92.36 41.96 C 89.84 37.96 96.0 39.23 100.0 40.0 C 104.0 40.77 110.9 42.21 108.65 38.21 C 106.41 34.21 114.41 34.21 112.65 38.21 C 110.9 42.21 116.0 39.87 120.0 40.0 C 124.0 40.13 131.0 37.81 128.48 41.81 C 125.96 45.81 133.96 45.81 132.48 41.81 C 131.0 37.81 136.0 39.58 140.0 40.0 C 144.0 40.42 148.88 37.98 147.39 41.98 C 145.89 45.98 153.89 45.98 151.39 41.98 C 148.88 37.98 156.0 40.79 160.0 40.0 C 164.0 39.21 169.56 42.27 168.34 38.27 C 167.12 34.27 175.12 34.27 172.34 38.27 C 169.56 42.27 176.0 40.09 180.0 40.0 C 184.0 39.91 189.94 41.36 187.68 37.36 C 185.42 33.36 193.42 33.36 191.68 37.36 C 189.94 41.36 196.0 40.76 200.0 40.0 C 204.0 39.24 210.78 37.34 208.56 41.34 C 206.34 45.34 214.34 45.34 212.56 41.34 C 210.78 37.34 216.0 40.1 220.0 40.0 C 224.0 39.9 229.58 37.94 227.95 41.94 C 226.32 45.94 234.32 45.94 231.95 41.94 C 229.58 37.94 236.0 39.39 240.0 40.0 C 244.0 40.61 250.11 42.78 248.35 38.78 C 246.59 34.78 254.59 34.78 252.35 38.78 C 250.11 42.78 256.0 39.85 260.0 40.0 C 264.0 40.15 270.44 38.66 268.72 42.66 C 266.99 46.66 274.99 46.66 272.72 42.66 C 270.44 38.66 276.0 39.34 280.0 40.0 C 284.0 40.66 291.11 37.87 288.39 41.87 C 285.67 45.87 293.67 45.87 292.39 41.87 C 291.11 37.87 296.0 39.98 300.0 40.0 M 0.0,60.0 C 4.0 59.38 8.83 62.62 7.51 58.62 C 6.18 54.62 14.18 54.62 11.51 58.62 C 8.83 62.62 16.0 59.45 20.0 60.0 C 24.0 60.55 29.88 62.23 28.29 58.23 C 26.7 54.23 34.7 54.23 32.29 58.23 C 29.88 62.23 36.0 60.67 40.0 60.0 C 44.0 59.33 50.25 57.74 48.19 61.74 C 46.13 65.74 54.13 65.74 52.19 61.74 C 50.25 57.74 56.0 59.22 60.0 60.0 C 64.0 60.78 69.97 57.38 67.3 61.38 C 64.64 65.38 72.64 65.38 71.3 61.38 C 69.97 57.38 76.0 59.27 80.0 60.0 C 84.0 60.73 89.3 62.05 87.87 58.05 C 86.43 54.05 94.43 54.05 91.87 58.05 C 89.3 62.05 96.0 59.97 100.0 60.0 C 104.0 60.03 110.12 57.65 108.32 61.65 C 106.52 65.65 114.52 65.65 112.32 61.65 C 110.12 57.65 116.0 60.23 120.0 60.0 C 124.0 59.77 130.75 61.26 127.96 57.26 C 125.17 53.26 133.17 53.26 131.96 57.26 C 130.75 61.26 136.0 59.64 140.0 60.0 C 144.0 60.36 150.35 61.43 147.63 57.43 C 144.91 53.43 152.91 53.43 151.63 57.43 C 150.35 61.43 156.0 60.35 160.0 60.0 C 164.0 59.65 169.86 57.6 167.32 61.6 C 164.79 65.6 172.79 65.6 171.32 61.6 C 169.86 57.6 176.0 60.47 180.0 60.0 C 184.0 59.53 189.04 58.31 187.82 62.31 C 186.6 66.31 194.6 66.31 191.82 62.31 C 189.04 58.31 196.0 60.72 200.0 60.0 C 204.0 59.28 210.09 61.87 207.3 57.87 C 204.5 53.87 212.5 53.87 211.3 57.87 C 210.09 61.87 216.0 60.58 220.0 60.0 C 224.0 59.42 228.85 62.52 227.31 58.52 C 225.78 54.52 233.78 54.52 231.31 58.52 C 228.85 62.52 236.0 60.27 240.0 60.0 C 244.0 59.73 249.6 62.33 248.07 58.33 C 246.55 54.33 254.55 54.33 252.07 58.33 C 249.6 62.33 256.0 60.14 260.0 60.0 C 264.0 59.86 269.69 58.03 268.22 62.03 C 266.74 66.03 274.74 66.03 272.22 62.03 C 269.69 58.03 276.0 60.48 280.0 60.0 C 284.0 59.52 289.92 57.56 287.87 61.56 C 285.81 65.56 293.81 65.56 291.87 61.56 C 289.92 57.56 296.0 59.59 300.0 60.0 M 0.0,80.0 C 4.0 80.08 10.0 77.85 7.94 81.85 C 5.89 85.85 13.89 85.85 11.94 81.85 C 10.0 77.85 16.0 79.37 20.0 80.0 C 24.0 80.63 29.14 77.59 27.22 81.59 C 25.29 85.59 33.29 85.59 31.22 81.59 C 29.14 77.59 36.0 80.46 40.0 80.0 C 44.0 79.54 50.3 81.83 47.52 77.83 C 44.74 73.83 52.74 73.83 51.52 77.83 C 50.3 81.83 56.0 79.88 60.0 80.0 C 64.0 80.12 71.33 82.19 68.79 78.19 C 66.25 74.19 74.25 74.19 72.79 78.19 C 71.33 82.19 76.0 80.35 80.0 80.0 C 84.0 79.65 89.14 77.86 87.9 81.86 C 86.67 85.86 94.67 85.86 91.9 81.86 C 89.14 77.86 96.0 80.59 100.0 80.0 C 104.0 79.41 110.08 77.35 108.8 81.35 C 107.51 85.35 115.51 85.35 112.8 81.35 C 110.08 77.35 116.0 80.09 120.0 80.0 C 124.0 79.91 130.1 82.16 128.37 78.16 C 126.64 74.16 134.64 74.16 132.37 78.16 C 130.1 82.16 136.0 79.26 140.0 80.0 C 144.0 80.74 150.15 81.37 148.16 77.37 C 146.17 73.37 154.17 73.37 152.16 77.37 C 150.15 81.37 156.0 80.04 160.0 80.0 C 164.0 79.96 170.17 82.78 167.67 78.78 C 165.16 74.78 173.16 74.78 171.67 78.78 C 170.17 82.78 176.0 79.67 180.0 80.0 C 184.0 80.33 190.18 82.5 188.22 78.5 C 186.26 74.5 194.26 74.5 192.22 78.5 C 190.18 82.5 196.0 79.37 200.0 80.0 C 204.0 80.63 210.37 78.35 208.74 82.35 C 207.11 86.35 215.11 86.35 212.74 82.35 C 210.37 78.35 216.0 79.96 220.0 80.0 C 224.0 80.04 231.3 78.38 228.6 82.38 C 225.91 86.38 233.91 86.38 232.6 82.38 C 231.3 78.38 236.0 79.63 240.0 80.0 C 244.0 80.37 248.45 77.43 247.21 81.43 C 245.97 85.43 253.97 85.43 251.21 81.43 C 248.45 77.43 256.0 79.9 260.0 80.0 C 264.0 80.1 269.16 82.05 267.83 78.05 C 266.49 74.05 274.49 74.05 271.83 78.05 C 269.16 82.05 276.0 79.2 280.0 80.0 C 284.0 80.8 290.14 77.92 288.64 81.92 C 287.14 85.92 295.14 85.92 292.64 81.92 C 290.14 77.92 296.0 80.77 300.0 80.0 M 0.0,100.0 C 4.0 99.49 10.39 102.52 7.96 98.52 C 5.53 94.52 13.53 94.52 11.96 98.52 C 10.39 102.52 16.0 99.58 20.0 100.0 C 24.0 100.42 29.46 102.33 27.32 98.33 C 25.17 94.33 33.17 94.33 31.32 98.33 C 29.46 102.33 36.0 99.25 40.0 100.0 C 44.0 100.75 48.98 98.03 47.42 102.03 C 45.87 106.03 53.87 106.03 51.42 102.03 C 48.98 98.03 56.0 100.79 60.0 100.0 C 64.0 99.21 70.56 98.07 68.45 102.07 C 66.34 106.07 74.34 106.07 72.45 102.07 C 70.56 98.07 76.0 100.47 80.0 100.0 C 84.0 99.53 88.67 101.9 87.44 97.9 C 86.21 93.9 94.21 93.9 91.44 97.9 C 88.67 101.9 96.0 99.23 100.0 100.0 C 104.0 100.77 110.43 102.58 107.76 98.58 C 105.09 94.58 113.09 94.58 111.76 98.58 C 110.43 102.58 116.0 100.44 120.0 100.0 C 124.0 99.56 129.82 102.12 127.53 98.12 C 125.24 94.12 133.24 94.12 131.53 98.12 C 129.82 102.12 136.0 99.45 140.0 100.0 C 144.0 100.55 150.3 102.72 147.96 98.72 C 145.63 94.72 153.63 94.72 151.96 98.72 C 150.3 102.72 156.0 100.35 160.0 100.0 C 164.0 99.65 168.86 102.42 167.39 98.42 C 165.93 94.42 173.93 94.42 171.39 98.42 C 168.86 102.42 176.0 100.29 180.0 100.0 C 184.0 99.71 190.26 101.67 188.06 97.67 C 185.86 93.67 193.86 93.67 192.06 97.67 C 190.26 101.67 196.0 99.83 200.0 100.0 C 204.0 100.17 209.13 97.65 207.29 101.65 C 205.46 105.65 213.46 105.65 211.29 101.65 C 209.13 97.65 216.0 99.71 220.0 100.0 C 224.0 100.29 229.05 97.77 227.21 101.77 C 225.38 105.77 233.38 105.77 231.21 101.77 C 229.05 97.77 236.0 100.13 240.0 100.0 C 244.0 99.87 250.07 98.35 248.24 102.35 C 246.42 106.35 254.42 106.35 252.24 102.35 C 250.07 98.35 256.0 100.32 260.0 100.0 C 264.0 99.68 269.54 98.69 267.91 102.69 C 266.27 106.69 274.27 106.69 271.91 102.69 C 269.54 98.69 276.0 99.63 280.0 100.0 C 284.0 100.37 290.18 97.42 287.62 101.42 C 285.06 105.42 293.06 105.42 291.62 101.42 C 290.18 97.42 296.0 99.31 300.0 100.0 M 0.0,120.0 C 4.0 120.2 9.31 118.27 7.55 122.27 C 5.79 126.27 13.79 126.27 11.55 122.27 C 9.31 118.27 16.0 120.27 20.0 120.0 C 24.0 119.73 30.44 117.45 28.18 121.45 C 25.93 125.45 33.93 125.45 32.18 121.45 C 30.44 117.45 36.0 120.15 40.0 120.0 C 44.0 119.85 50.73 117.61 48.5 121.61 C 46.28 125.61 54.28 125.61 52.5 121.61 C 50.73 117.61 56.0 119.29 60.0 120.0 C 64.0 120.71 70.11 118.31 68.64 122.31 C 67.17 126.31 75.17 126.31 72.64 122.31 C 70.11 118.31 76.0 119.79 80.0 120.0 C 84.0 120.21 89.95 122.51 87.55 118.51 C 85.14 114.51 93.14 114.51 91.55 118.51 C 89.95 122.51 96.0 119.6 100.0 120.0 C 104.0 120.4 109.94 122.76 108.34 118.76 C 106.73 114.76 114.73 114.76 112.34 118.76 C 109.94 122.76 116.0 119.38 120.0 120.0 C 124.0 120.62 131.34 122.58 128.57 118.58 C 125.79 114.58 133.79 114.58 132.57 118.58 C 131.34 122.58 136.0 119.45 140.0 120.0 C 144.0 120.55 149.06 117.44 147.55 121.44 C 146.04 125.44 154.04 125.44 151.55 121.44 C 149.06 117.44 156.0 120.31 160.0 120.0 C 164.0 119.69 169.93 117.85 167.4 121.85 C 164.88 125.85 172.88 125.85 171.4 121.85 C 169.93 117.85 176.0 120.55 180.0 120.0 C 184.0 119.45 189.3 121.57 187.35 117.57 C 185.39 113.57 193.39 113.57 191.35 117.57 C 189.3 121.57 196.0 119.87 200.0 120.0 C 204.0 120.13 209.72 118.76 207.91 122.76 C 206.1 126.76 214.1 126.76 211.91 122.76 C 209.72 118.76 216.0 120.75 220.0 120.0 C 224.0 119.25 229.62 118.78 227.89 122.78 C 226.15 126.78 234.15 126.78 231.89 122.78 C 229.62 118.78 236.0 119.41 240.0 120.0 C 244.0 120.59 249.68 117.91 247.52 121.91 C 245.37 125.91 253.37 125.91 251.52 121.91 C 249.68 117.91 256.0 120.66 260.0 120.0 C 264.0 119.34 271.12 122.6 268.65 118.6 C 266.18 114.6 274.18 114.6 272.65 118.6 C 271.12 122.6 276.0 119.4 280.0 120.0 C 284.0 120.6 291.34 122.51 288.77 118.51 C 286.21 114.51 294.21 114.51 292.77 118.51 C 291.34 122.51 296.0 120.34 300.0 120.0 M 0.0,140.0 C 4.0 139.64 8.73 138.21 7.33 142.21 C 5.93 146.21 13.93 146.21 11.33 142.21 C 8.73 138.21 16.0 139.94 20.0 140.0 C 24.0 140.06 30.45 138.09 28.47 142.09 C 26.49 146.09 34.49 146.09 32.47 142.09 C 30.45 138.09 36.0 140.16 40.0 140.0 C 44.0 139.84 50.39 137.65 48.0 141.65 C 45.6 145.65 53.6 145.65 52.0 141.65 C 50.39 137.65 56.0 139.56 60.0 140.0 C 64.0 140.44 71.41 142.42 68.66 138.42 C 65.91 134.42 73.91 134.42 72.66 138.42 C 71.41 142.42 76.0 140.66 80.0 140.0 C 84.0 139.34 90.13 137.79 88.74 141.79 C 87.34 145.79 95.34 145.79 92.74 141.79 C 90.13 137.79 96.0 140.48 100.0 140.0 C 104.0 139.52 110.0 142.11 108.32 138.11 C 106.64 134.11 114.64 134.11 112.32 138.11 C 110.0 142.11 116.0 139.58 120.0 140.0 C 124.0 140.42 130.62 138.58 128.35 142.58 C 126.08 146.58 134.08 146.58 132.35 142.58 C 130.62 138.58 136.0 140.21 140.0 140.0 C 144.0 139.79 150.16 138.19 147.71 142.19 C 145.26 146.19 153.26 146.19 151.71 142.19 C 150.16 138.19 156.0 140.17 160.0 140.0 C 164.0 139.83 170.78 142.01 168.05 138.01 C 165.31 134.01 173.31 134.01 172.05 138.01 C 170.78 142.01 176.0 139.73 180.0 140.0 C 184.0 140.27 190.68 141.68 188.02 137.68 C 185.35 133.68 193.35 133.68 192.02 137.68 C 190.68 141.68 196.0 140.23 200.0 140.0 C 204.0 139.77 209.02 137.74 207.42 141.74 C 205.83 145.74 213.83 145.74 211.42 141.74 C 209.02 137.74 216.0 140.47 220.0 140.0 C 224.0 139.53 229.68 142.17 227.64 138.17 C 225.59 134.17 233.59 134.17 231.64 138.17 C 229.68 142.17 236.0 140.28 240.0 140.0 C 244.0 139.72 249.1 138.52 247.57 142.52 C 246.03 146.52 254.03 146.52 251.57 142.52 C 249.1 138.52 256.0 140.62 260.0 140.0 C 264.0 139.38 270.47 141.51 268.59 137.51 C 266.7 133.51 274.7 133.51 272.59 137.51 C 270.47 141.51 276.0 140.34 280.0 140.0 C 284.0 139.66 290.4 141.74 288.01 137.74 C 285.62 133.74 293.62 133.74 292.01 137.74 C 290.4 141.74 296.0 140.14 300.0 140.0 M 0.0,160.0 C 4.0 160.42 9.64 162.38 7.32 158.38 C 4.99 154.38 12.99 154.38 11.32 158.38 C 9.64 162.38 16.0 159.69 20.0 160.0 C 24.0 160.31 29.9 157.24 27.56 161.24 C 25.22 165.24 33.22 165.24 31.56 161.24 C 29.9 157.24 36.0 159.81 40.0 160.0 C 44.0 160.19 49.27 158.77 47.98 162.77 C 46.7 166.77 54.7 166.77 51.98 162.77 C 49.27 158.77 56.0 160.15 60.0 160.0 C 64.0 159.85 68.62 157.89 67.34 161.89 C 66.06 165.89 74.06 165.89 71.34 161.89 C 68.62 157.89 76.0 159.99 80.0 160.0 C 84.0 160.01 89.56 157.96 87.82 161.96 C 86.09 165.96 94.09 165.96 91.82 161.96 C 89.56 157.96 96.0 160.66 100.0 160.0 C 104.0 159.34 110.31 162.01 108.4 158.01 C 106.5 154.01 114.5 154.01 112.4 158.01 C 110.31 162.01 116.0 159.74 120.0 160.0 C 124.0 160.26 129.36 161.58 127.27 157.58 C 125.18 153.58 133.18 153.58 131.27 157.58 C 129.36 161.58 136.0 160.49 140.0 160.0 C 144.0 159.51 149.82 162.41 148.57 158.41 C 147.32 154.41 155.32 154.41 152.57 158.41 C 149.82 162.41 156.0 159.85 160.0 160.0 C 164.0 160.15 169.66 161.66 167.52 157.66 C 165.38 153.66 173.38 153.66 171.52 157.66 C 169.66 161.66 176.0 160.3 180.0 160.0 C 184.0 159.7 189.51 161.67 187.58 157.67 C 185.66 153.67 193.66 153.67 191.58 157.67 C 189.51 161.67 196.0 160.34 200.0 160.0 C 204.0 159.66 208.99 157.96 207.31 161.96 C 205.62 165.96 213.62 165.96 211.31 161.96 C 208.99 157.96 216.0 160.4 220.0 160.0 C 224.0 159.6 231.41 157.61 228.75 161.61 C 226.1 165.61 234.1 165.61 232.75 161.61 C 231.41 157.61 236.0 160.31 240.0 160.0 C 244.0 159.69 250.07 158.0 247.45 162.0 C 244.82 166.0 252.82 166.0 251.45 162.0 C 250.07 158.0 256.0 160.41 260.0 160.0 C 264.0 159.59 268.84 162.36 267.22 158.36 C 265.59 154.36 273.59 154.36 271.22 158.36 C 268.84 162.36 276.0 159.51 280.0 160.0 C 284.0 160.49 290.02 162.14 287.55 158.14 C 285.09 154.14 293.09 154.14 291.55 158.14 C 290.02 162.14 296.0 160.37 300.0 160.0 M 0.0,180.0 C 4.0 179.37 9.71 182.29 7.7 178.29 C 5.69 174.29 13.69 174.29 11.7 178.29 C 9.71 182.29 16.0 180.42 20.0 180.0 C 24.0 179.58 29.22 181.9 27.72 177.9 C 26.21 173.9 34.21 173.9 31.72 177.9 C 29.22 181.9 36.0 179.9 40.0 180.0 C 44.0 180.1 50.17 181.23 48.53 177.23 C 46.89 173.23 54.89 173.23 52.53 177.23 C 50.17 181.23 56.0 179.59 60.0 180.0 C 64.0 180.41 70.45 177.69 67.71 181.69 C 64.97 185.69 72.97 185.69 71.71 181.69 C 70.45 177.69 76.0 179.64 80.0 180.0 C 84.0 180.36 89.41 182.33 87.35 178.33 C 85.29 174.33 93.29 174.33 91.35 178.33 C 89.41 182.33 96.0 179.23 100.0 180.0 C 104.0 180.77 110.54 177.9 107.86 181.9 C 105.18 185.9 113.18 185.9 111.86 181.9 C 110.54 177.9 116.0 180.78 120.0 180.0 C 124.0 179.22 130.39 178.52 127.61 182.52 C 124.83 186.52 132.83 186.52 131.61 182.52 C 130.39 178.52 136.0 179.36 140.0 180.0 C 144.0 180.64 150.47 182.77 147.67 178.77 C 144.88 174.77 152.88 174.77 151.67 178.77 C 150.47 182.77 156.0 179.79 160.0 180.0 C 164.0 180.21 170.13 181.82 168.14 177.82 C 166.16 173.82 174.16 173.82 172.14 177.82 C 170.13 181.82 176.0 180.75 180.0 180.0 C 184.0 179.25 190.18 178.78 188.71 182.78 C 187.23 186.78 195.23 186.78 192.71 182.78 C 190.18 178.78 196.0 179.77 200.0 180.0 C 204.0 180.23 209.38 178.75 207.74 182.75 C 206.11 186.75 214.11 186.75 211.74 182.75 C 209.38 178.75 216.0 180.29 220.0 180.0 C 224.0 179.71 229.31 181.28 228.03 177.28 C 226.75 173.28 234.75 173.28 232.03 177.28 C 229.31 181.28 236.0 179.22 240.0 180.0 C 244.0 180.78 251.28 178.56 248.72 182.56 C 246.16 186.56 254.16 186.56 252.72 182.56 C 251.28 178.56 256.0 180.11 260.0 180.0 C 264.0 179.89 270.24 177.6 267.57 181.6 C 264.91 185.6 272.91 185.6 271.57 181.6 C 270.24 177.6 276.0 180.04 280.0 180.0 C 284.0 179.96 289.29 178.28 287.35 182.28 C 285.41 186.28 293.41 186.28 291.35 182.28 C 289.29 178.28 296.0 180.35 300.0 180.0 " /></clipPath></defs><image xlink:href="cat1.png" width="2048" height="2048" clip-path="url(#clip)" id="bg" /></svg>