<svg xmlns="http://www.w3.org/2000/svg" version="1.0" viewBox="0 0 6 6">
  <path d="M 0,0 L 6,0 " class="horizontal" fill="none" stroke="black" stroke-width="0.01"/>
  <path d="M 0.0,1.0 C 0.07 0.99 0.11 0.95 0.2 0.97 C 0.29 0.99 0.5 1.14 0.53 1.13 C 0.56 1.12 0.44 1.0 0.4 0.93 C 0.36 0.86 0.23 0.76 0.28 0.73 C 0.33 0.7 0.63 0.7 0.68 0.73 C 0.73 0.76 0.62 0.86 0.6 0.93 C 0.57 1.0 0.5 1.11 0.53 1.13 C 0.56 1.15 0.72 1.05 0.8 1.03 C 0.88 1.01 0.93 1.01 1.0 1.0 C 1.07 0.99 1.12 0.96 1.2 0.97 C 1.28 0.98 1.48 1.09 1.51 1.07 C 1.54 1.05 1.44 0.94 1.4 0.87 C 1.36 0.8 1.24 0.7 1.29 0.67 C 1.34 0.64 1.64 0.64 1.69 0.67 C 1.74 0.7 1.63 0.8 1.6 0.87 C 1.57 0.94 1.48 1.05 1.51 1.07 C 1.54 1.1 1.72 1.03 1.8 1.02 C 1.88 1.01 1.93 1.01 2.0 1.0 C 2.07 0.99 2.12 0.99 2.2 0.98 C 2.28 0.97 2.46 0.91 2.49 0.94 C 2.52 0.97 2.41 1.07 2.37 1.14 C 2.33 1.21 2.2 1.31 2.25 1.34 C 2.3 1.37 2.6 1.37 2.65 1.34 C 2.7 1.31 2.6 1.21 2.57 1.14 C 2.54 1.07 2.45 0.96 2.49 0.94 C 2.53 0.92 2.72 0.99 2.8 1.0 C 2.88 1.01 2.93 1.0 3.0 1.0 C 3.07 1.0 3.12 0.99 3.2 1.0 C 3.28 1.01 3.47 1.09 3.51 1.07 C 3.55 1.05 3.45 0.94 3.42 0.87 C 3.39 0.8 3.29 0.7 3.34 0.67 C 3.39 0.64 3.69 0.64 3.74 0.67 C 3.79 0.7 3.66 0.8 3.62 0.87 C 3.58 0.94 3.48 1.05 3.51 1.07 C 3.54 1.09 3.72 1.01 3.8 1.0 C 3.88 0.99 3.93 1.0 4.0 1.0 C 4.07 1.0 4.12 0.99 4.2 1.0 C 4.28 1.01 4.43 1.08 4.46 1.06 C 4.49 1.04 4.4 0.93 4.37 0.86 C 4.34 0.79 4.24 0.69 4.29 0.66 C 4.34 0.63 4.64 0.63 4.69 0.66 C 4.74 0.69 4.61 0.79 4.57 0.86 C 4.53 0.93 4.42 1.04 4.46 1.06 C 4.5 1.08 4.71 0.97 4.8 0.96 C 4.89 0.95 4.93 0.99 5.0 1.0 C 5.07 1.01 5.12 1.03 5.2 1.04 C 5.28 1.05 5.42 1.1 5.45 1.07 C 5.48 1.04 5.39 0.94 5.36 0.87 C 5.33 0.8 5.23 0.7 5.28 0.67 C 5.33 0.64 5.63 0.64 5.68 0.67 C 5.73 0.7 5.6 0.8 5.56 0.87 C 5.52 0.94 5.41 1.05 5.45 1.07 C 5.49 1.09 5.71 1.0 5.8 0.99 C 5.89 0.98 5.93 1.0 6.0 1.0 " class="horizontal" fill="none" stroke="black" stroke-width="0.01"/>
  <path d="M 0.0,2.0 C 0.07 2.01 0.12 2.04 0.2 2.03 C 0.28 2.01 0.43 1.9 0.46 1.91 C 0.49 1.92 0.42 2.04 0.4 2.11 C 0.38 2.18 0.28 2.28 0.34 2.31 C 0.4 2.34 0.7 2.34 0.74 2.31 C 0.78 2.28 0.65 2.18 0.6 2.11 C 0.55 2.04 0.43 1.93 0.46 1.91 C 0.49 1.89 0.71 1.98 0.8 1.99 C 0.89 2.0 0.93 2.0 1.0 2.0 C 1.07 2.0 1.12 2.03 1.2 2.01 C 1.28 1.99 1.45 1.88 1.49 1.89 C 1.53 1.9 1.44 2.02 1.42 2.09 C 1.4 2.16 1.3 2.26 1.35 2.29 C 1.4 2.32 1.7 2.32 1.75 2.29 C 1.8 2.26 1.66 2.16 1.62 2.09 C 1.58 2.02 1.46 1.91 1.49 1.89 C 1.52 1.87 1.72 1.94 1.8 1.96 C 1.88 1.98 1.93 1.99 2.0 2.0 C 2.07 2.01 2.13 2.06 2.2 2.04 C 2.27 2.02 2.4 1.89 2.43 1.9 C 2.46 1.91 2.39 2.03 2.37 2.1 C 2.35 2.17 2.24 2.27 2.3 2.3 C 2.36 2.33 2.66 2.33 2.7 2.3 C 2.74 2.27 2.62 2.17 2.57 2.1 C 2.52 2.03 2.39 1.92 2.43 1.9 C 2.47 1.88 2.7 1.99 2.8 2.01 C 2.89 2.03 2.93 2.0 3.0 2.0 C 3.07 2.0 3.12 2.01 3.2 1.99 C 3.28 1.97 3.47 1.86 3.51 1.87 C 3.54 1.88 3.44 2.0 3.41 2.07 C 3.38 2.14 3.26 2.24 3.31 2.27 C 3.36 2.3 3.66 2.3 3.71 2.27 C 3.76 2.24 3.64 2.14 3.61 2.07 C 3.58 2.0 3.48 1.88 3.51 1.87 C 3.54 1.86 3.72 1.99 3.8 2.01 C 3.88 2.03 3.93 2.0 4.0 2.0 C 4.07 2.0 4.12 2.01 4.2 1.99 C 4.28 1.97 4.46 1.86 4.49 1.88 C 4.52 1.9 4.41 2.01 4.37 2.08 C 4.33 2.15 4.2 2.25 4.25 2.28 C 4.3 2.31 4.6 2.31 4.65 2.28 C 4.7 2.25 4.6 2.15 4.57 2.08 C 4.54 2.01 4.45 1.89 4.49 1.88 C 4.53 1.87 4.72 1.98 4.8 2.0 C 4.88 2.02 4.93 2.0 5.0 2.0 C 5.07 2.0 5.11 2.02 5.2 2.0 C 5.29 1.98 5.51 1.89 5.55 1.91 C 5.59 1.93 5.46 2.04 5.42 2.11 C 5.38 2.18 5.25 2.28 5.3 2.31 C 5.35 2.34 5.65 2.34 5.7 2.31 C 5.75 2.28 5.64 2.18 5.62 2.11 C 5.6 2.04 5.52 1.93 5.55 1.91 C 5.58 1.89 5.72 1.98 5.8 1.99 C 5.88 2.0 5.93 2.0 6.0 2.0 " class="horizontal" fill="none" stroke="black" stroke-width="0.01"/>
  <path d="M 0.0,3.0 C 0.07 3.0 0.12 2.99 0.2 3.01 C 0.28 3.03 0.44 3.12 0.48 3.1 C 0.52 3.08 0.43 2.97 0.41 2.9 C 0.39 2.83 0.29 2.73 0.35 2.7 C 0.41 2.67 0.71 2.67 0.75 2.7 C 0.79 2.73 0.66 2.83 0.61 2.9 C 0.56 2.97 0.45 3.08 0.48 3.1 C 0.51 3.12 0.71 3.01 0.8 2.99 C 0.89 2.97 0.93 3.0 1.0 3.0 C 1.07 3.0 1.12 3.03 1.2 3.01 C 1.28 2.99 1.45 2.88 1.48 2.89 C 1.51 2.9 1.41 3.02 1.37 3.09 C 1.33 3.16 1.2 3.26 1.25 3.29 C 1.3 3.32 1.6 3.32 1.65 3.29 C 1.7 3.26 1.6 3.16 1.57 3.09 C 1.54 3.02 1.44 2.9 1.48 2.89 C 1.52 2.88 1.71 3.01 1.8 3.03 C 1.89 3.05 1.93 3.01 2.0 3.0 C 2.07 2.99 2.11 2.99 2.2 2.97 C 2.29 2.95 2.5 2.87 2.53 2.89 C 2.56 2.91 2.44 3.02 2.4 3.09 C 2.36 3.16 2.22 3.26 2.27 3.29 C 2.32 3.32 2.62 3.32 2.67 3.29 C 2.72 3.26 2.62 3.16 2.6 3.09 C 2.58 3.02 2.5 2.9 2.53 2.89 C 2.56 2.88 2.72 2.99 2.8 3.01 C 2.88 3.03 2.93 3.0 3.0 3.0 C 3.07 3.0 3.12 3.01 3.2 2.99 C 3.28 2.97 3.44 2.86 3.47 2.87 C 3.5 2.88 3.42 3.0 3.39 3.07 C 3.36 3.14 3.26 3.24 3.32 3.27 C 3.38 3.3 3.68 3.3 3.72 3.27 C 3.76 3.24 3.63 3.14 3.59 3.07 C 3.55 3.0 3.44 2.88 3.47 2.87 C 3.51 2.86 3.71 2.96 3.8 2.98 C 3.89 3.0 3.93 2.99 4.0 3.0 C 4.07 3.01 4.11 3.01 4.2 3.02 C 4.29 3.03 4.5 3.1 4.54 3.07 C 4.58 3.04 4.45 2.94 4.41 2.87 C 4.37 2.8 4.24 2.7 4.28 2.67 C 4.32 2.64 4.62 2.64 4.68 2.67 C 4.73 2.7 4.63 2.8 4.61 2.87 C 4.59 2.94 4.51 3.06 4.54 3.07 C 4.57 3.08 4.72 2.97 4.8 2.96 C 4.88 2.95 4.93 2.99 5.0 3.0 C 5.07 3.01 5.11 3.02 5.2 3.04 C 5.29 3.06 5.49 3.13 5.53 3.11 C 5.57 3.09 5.46 2.98 5.43 2.91 C 5.4 2.84 5.29 2.74 5.34 2.71 C 5.39 2.68 5.69 2.68 5.74 2.71 C 5.79 2.74 5.66 2.84 5.63 2.91 C 5.6 2.98 5.5 3.1 5.53 3.11 C 5.56 3.12 5.72 3.01 5.8 2.99 C 5.88 2.97 5.93 3.0 6.0 3.0 " class="horizontal" fill="none" stroke="black" stroke-width="0.01"/>
  <path d="M 0.0,4.0 C 0.07 4.01 0.11 4.0 0.2 4.02 C 0.29 4.04 0.48 4.13 0.52 4.11 C 0.56 4.09 0.47 3.98 0.44 3.91 C 0.41 3.84 0.31 3.74 0.36 3.71 C 0.41 3.68 0.71 3.68 0.76 3.71 C 0.81 3.74 0.68 3.84 0.64 3.91 C 0.6 3.98 0.49 4.09 0.52 4.11 C 0.55 4.13 0.72 4.04 0.8 4.02 C 0.88 4.0 0.93 4.01 1.0 4.0 C 1.07 3.99 1.12 3.99 1.2 3.98 C 1.28 3.97 1.47 3.9 1.5 3.93 C 1.53 3.96 1.41 4.06 1.37 4.13 C 1.33 4.2 1.2 4.3 1.25 4.33 C 1.3 4.36 1.6 4.36 1.65 4.33 C 1.7 4.3 1.6 4.2 1.57 4.13 C 1.55 4.06 1.46 3.95 1.5 3.93 C 1.54 3.91 1.72 3.98 1.8 3.99 C 1.88 4.0 1.93 4.0 2.0 4.0 C 2.07 4.0 2.11 4.0 2.2 4.01 C 2.29 4.02 2.52 4.08 2.56 4.06 C 2.6 4.03 2.47 3.93 2.43 3.86 C 2.39 3.79 2.26 3.69 2.31 3.66 C 2.36 3.63 2.66 3.63 2.71 3.66 C 2.76 3.69 2.66 3.79 2.63 3.86 C 2.6 3.93 2.53 4.03 2.56 4.06 C 2.59 4.09 2.73 4.03 2.8 4.02 C 2.87 4.01 2.93 4.01 3.0 4.0 C 3.07 3.99 3.13 3.96 3.2 3.98 C 3.27 4.0 3.41 4.14 3.44 4.13 C 3.47 4.12 3.39 4.0 3.37 3.93 C 3.35 3.86 3.25 3.76 3.31 3.73 C 3.37 3.7 3.67 3.7 3.71 3.73 C 3.75 3.76 3.62 3.86 3.57 3.93 C 3.52 4.0 3.4 4.12 3.44 4.13 C 3.48 4.14 3.71 4.02 3.8 4.0 C 3.89 3.98 3.93 4.0 4.0 4.0 C 4.07 4.0 4.12 3.98 4.2 4.0 C 4.28 4.01 4.47 4.11 4.51 4.09 C 4.55 4.07 4.46 3.96 4.43 3.89 C 4.4 3.82 4.3 3.72 4.35 3.69 C 4.4 3.66 4.7 3.66 4.75 3.69 C 4.8 3.72 4.67 3.82 4.63 3.89 C 4.59 3.96 4.48 4.07 4.51 4.09 C 4.54 4.11 4.72 4.01 4.8 4.0 C 4.88 3.98 4.93 4.0 5.0 4.0 C 5.07 4.0 5.11 3.98 5.2 4.0 C 5.29 4.02 5.48 4.12 5.52 4.1 C 5.56 4.08 5.44 3.97 5.41 3.9 C 5.38 3.83 5.26 3.73 5.31 3.7 C 5.36 3.67 5.66 3.67 5.71 3.7 C 5.76 3.73 5.64 3.83 5.61 3.9 C 5.58 3.97 5.49 4.08 5.52 4.1 C 5.55 4.12 5.72 4.04 5.8 4.02 C 5.88 4.0 5.93 4.01 6.0 4.0 " class="horizontal" fill="none" stroke="black" stroke-width="0.01"/>
  <path d="M 0.0,5.0 C 0.07 5.0 0.13 4.99 0.2 5.01 C 0.27 5.03 0.41 5.14 0.44 5.12 C 0.47 5.11 0.39 4.99 0.37 4.92 C 0.35 4.85 0.25 4.75 0.31 4.72 C 0.37 4.69 0.67 4.69 0.71 4.72 C 0.75 4.75 0.62 4.85 0.57 4.92 C 0.52 4.99 0.4 5.11 0.44 5.12 C 0.48 5.13 0.71 5.01 0.8 4.99 C 0.89 4.97 0.93 5.0 1.0 5.0 C 1.07 5.0 1.11 5.02 1.2 5.01 C 1.29 5.0 1.49 4.89 1.52 4.91 C 1.55 4.93 1.44 5.04 1.4 5.11 C 1.36 5.18 1.23 5.28 1.27 5.31 C 1.32 5.34 1.62 5.34 1.67 5.31 C 1.72 5.28 1.62 5.18 1.6 5.11 C 1.58 5.04 1.49 4.92 1.52 4.91 C 1.55 4.9 1.72 5.02 1.8 5.03 C 1.88 5.04 1.93 5.01 2.0 5.0 C 2.07 4.99 2.12 4.96 2.2 4.97 C 2.28 4.98 2.47 5.08 2.5 5.06 C 2.53 5.04 2.43 4.93 2.4 4.86 C 2.37 4.79 2.26 4.69 2.31 4.66 C 2.36 4.63 2.66 4.63 2.71 4.66 C 2.76 4.69 2.64 4.79 2.6 4.86 C 2.56 4.93 2.47 5.04 2.5 5.06 C 2.53 5.08 2.72 4.97 2.8 4.96 C 2.88 4.95 2.93 4.99 3.0 5.0 C 3.07 5.01 3.12 5.05 3.2 5.04 C 3.28 5.03 3.47 4.91 3.51 4.92 C 3.55 4.93 3.46 5.05 3.43 5.12 C 3.4 5.19 3.3 5.29 3.36 5.32 C 3.42 5.35 3.72 5.35 3.76 5.32 C 3.8 5.29 3.67 5.19 3.63 5.12 C 3.59 5.05 3.48 4.93 3.51 4.92 C 3.54 4.9 3.72 5.02 3.8 5.03 C 3.88 5.04 3.93 5.01 4.0 5.0 C 4.07 4.99 4.12 4.99 4.2 4.97 C 4.28 4.95 4.42 4.86 4.45 4.88 C 4.48 4.9 4.4 5.01 4.37 5.08 C 4.34 5.15 4.23 5.25 4.28 5.28 C 4.33 5.31 4.63 5.31 4.68 5.28 C 4.73 5.25 4.61 5.15 4.57 5.08 C 4.53 5.01 4.41 4.89 4.45 4.88 C 4.49 4.87 4.71 4.99 4.8 5.01 C 4.89 5.03 4.93 5.0 5.0 5.0 C 5.07 5.0 5.11 4.97 5.2 4.99 C 5.29 5.01 5.49 5.15 5.52 5.14 C 5.55 5.13 5.43 5.01 5.39 4.94 C 5.35 4.87 5.22 4.77 5.26 4.74 C 5.3 4.71 5.6 4.71 5.66 4.74 C 5.72 4.77 5.61 4.87 5.59 4.94 C 5.57 5.01 5.48 5.13 5.52 5.14 C 5.56 5.15 5.72 5.04 5.8 5.02 C 5.88 5.0 5.93 5.01 6.0 5.0 " class="horizontal" fill="none" stroke="black" stroke-width="0.01"/>
  <path d="M 0,6 L 6,6 " class="horizontal" fill="none" stroke="black" stroke-width="0.01"/>
  <path d="M 0,0 L 0,6 " class="vertical" fill="none" stroke="black" stroke-width="0.01"/>
  <path d="M 1.0,0.0 C 1.01 0.07 1.03 0.1 1.02 0.2 C 1.01 0.3 0.9 0.54 0.92 0.58 C 0.94 0.62 1.05 0.49 1.12 0.44 C 1.19 0.39 1.29 0.26 1.32 0.3 C 1.35 0.34 1.35 0.64 1.32 0.7 C 1.29 0.76 1.19 0.66 1.12 0.64 C 1.05 0.62 0.94 0.55 0.92 0.58 C 0.9 0.61 0.99 0.73 1.0 0.8 C 1.01 0.87 1.0 0.93 1.0 1.0 C 1.0 1.07 0.99 1.11 1.0 1.2 C 1.01 1.29 1.1 1.48 1.08 1.52 C 1.06 1.56 0.95 1.45 0.88 1.42 C 0.81 1.39 0.71 1.28 0.68 1.33 C 0.65 1.38 0.65 1.68 0.68 1.73 C 0.71 1.78 0.81 1.66 0.88 1.62 C 0.95 1.59 1.06 1.49 1.08 1.52 C 1.1 1.55 0.99 1.72 0.98 1.8 C 0.97 1.88 0.99 1.93 1.0 2.0 C 1.01 2.07 1.04 2.12 1.02 2.2 C 1.0 2.28 0.86 2.48 0.87 2.51 C 0.88 2.54 1.0 2.42 1.07 2.37 C 1.14 2.33 1.24 2.2 1.27 2.24 C 1.3 2.28 1.3 2.58 1.27 2.64 C 1.24 2.7 1.14 2.59 1.07 2.57 C 1.0 2.55 0.88 2.47 0.87 2.51 C 0.86 2.55 0.99 2.72 1.01 2.8 C 1.03 2.88 1.0 2.93 1.0 3.0 C 1.0 3.07 1.01 3.12 0.99 3.2 C 0.97 3.28 0.86 3.47 0.87 3.51 C 0.88 3.55 1.0 3.45 1.07 3.42 C 1.14 3.39 1.24 3.27 1.27 3.32 C 1.3 3.37 1.3 3.67 1.27 3.72 C 1.24 3.77 1.14 3.66 1.07 3.62 C 1.0 3.58 0.88 3.48 0.87 3.51 C 0.86 3.54 0.98 3.72 1.0 3.8 C 1.02 3.88 1.0 3.93 1.0 4.0 C 1.0 4.07 1.01 4.12 1.0 4.2 C 0.98 4.28 0.89 4.47 0.91 4.51 C 0.93 4.55 1.04 4.45 1.11 4.42 C 1.18 4.39 1.28 4.28 1.31 4.33 C 1.34 4.38 1.34 4.68 1.31 4.73 C 1.28 4.78 1.18 4.66 1.11 4.62 C 1.04 4.58 0.92 4.48 0.91 4.51 C 0.9 4.54 1.02 4.72 1.03 4.8 C 1.04 4.88 1.01 4.93 1.0 5.0 C 0.99 5.07 0.95 5.12 0.97 5.2 C 0.99 5.28 1.14 5.46 1.14 5.49 C 1.13 5.52 1.01 5.42 0.94 5.38 C 0.87 5.34 0.77 5.21 0.74 5.26 C 0.71 5.31 0.71 5.61 0.74 5.66 C 0.77 5.71 0.87 5.61 0.94 5.58 C 1.01 5.55 1.14 5.45 1.14 5.49 C 1.14 5.53 0.98 5.72 0.96 5.8 C 0.94 5.88 0.99 5.93 1.0 6.0 " class="vertical" fill="none" stroke="black" stroke-width="0.01"/>
  <path d="M 2.0,0.0 C 1.99 0.07 1.97 0.12 1.96 0.2 C 1.95 0.28 1.9 0.45 1.93 0.48 C 1.96 0.51 2.06 0.41 2.13 0.37 C 2.2 0.33 2.3 0.2 2.33 0.25 C 2.36 0.3 2.36 0.6 2.33 0.65 C 2.3 0.7 2.2 0.6 2.13 0.57 C 2.06 0.54 1.95 0.44 1.93 0.48 C 1.9 0.52 1.97 0.71 1.98 0.8 C 1.99 0.89 1.99 0.93 2.0 1.0 C 2.01 1.07 2.0 1.12 2.02 1.2 C 2.04 1.28 2.15 1.44 2.14 1.47 C 2.13 1.5 2.01 1.42 1.94 1.39 C 1.87 1.36 1.77 1.26 1.74 1.31 C 1.71 1.36 1.71 1.66 1.74 1.71 C 1.77 1.76 1.87 1.63 1.94 1.59 C 2.01 1.55 2.14 1.44 2.14 1.47 C 2.14 1.5 1.99 1.71 1.97 1.8 C 1.95 1.89 1.99 1.93 2.0 2.0 C 2.01 2.07 2.04 2.12 2.03 2.2 C 2.01 2.28 1.9 2.44 1.91 2.47 C 1.92 2.5 2.04 2.42 2.11 2.39 C 2.18 2.36 2.28 2.26 2.31 2.31 C 2.34 2.36 2.34 2.66 2.31 2.71 C 2.28 2.76 2.18 2.63 2.11 2.59 C 2.04 2.55 1.93 2.44 1.91 2.47 C 1.89 2.51 1.98 2.71 1.99 2.8 C 2.0 2.89 2.0 2.93 2.0 3.0 C 2.0 3.07 1.99 3.12 2.01 3.2 C 2.03 3.28 2.14 3.43 2.12 3.46 C 2.1 3.49 1.99 3.39 1.92 3.36 C 1.85 3.33 1.75 3.22 1.72 3.27 C 1.69 3.32 1.69 3.62 1.72 3.67 C 1.75 3.72 1.85 3.6 1.92 3.56 C 1.99 3.52 2.1 3.42 2.12 3.46 C 2.14 3.5 2.04 3.71 2.02 3.8 C 2.0 3.89 2.01 3.93 2.0 4.0 C 1.99 4.07 2.0 4.11 1.98 4.2 C 1.96 4.29 1.89 4.49 1.91 4.52 C 1.93 4.55 2.04 4.43 2.11 4.38 C 2.18 4.33 2.28 4.2 2.31 4.24 C 2.34 4.28 2.34 4.58 2.31 4.64 C 2.28 4.7 2.18 4.6 2.11 4.58 C 2.04 4.56 1.93 4.48 1.91 4.52 C 1.89 4.56 1.98 4.72 2.0 4.8 C 2.02 4.88 2.0 4.93 2.0 5.0 C 2.0 5.07 1.98 5.12 2.0 5.2 C 2.02 5.28 2.14 5.47 2.13 5.5 C 2.12 5.53 2.0 5.42 1.93 5.38 C 1.86 5.34 1.76 5.21 1.73 5.26 C 1.7 5.31 1.7 5.61 1.73 5.66 C 1.76 5.71 1.86 5.61 1.93 5.58 C 2.0 5.55 2.12 5.46 2.13 5.5 C 2.13 5.54 1.98 5.72 1.96 5.8 C 1.94 5.88 1.99 5.93 2.0 6.0 " class="vertical" fill="none" stroke="black" stroke-width="0.01"/>
  <path d="M 3.0,0.0 C 2.99 0.07 2.97 0.12 2.98 0.2 C 2.99 0.28 3.08 0.45 3.06 0.48 C 3.04 0.51 2.93 0.42 2.86 0.39 C 2.79 0.36 2.69 0.26 2.66 0.31 C 2.63 0.36 2.63 0.66 2.66 0.71 C 2.69 0.76 2.79 0.63 2.86 0.59 C 2.93 0.55 3.04 0.44 3.06 0.48 C 3.08 0.52 3.02 0.71 3.01 0.8 C 3.0 0.89 3.0 0.93 3.0 1.0 C 3.0 1.07 3.01 1.11 2.99 1.2 C 2.97 1.29 2.87 1.5 2.89 1.54 C 2.91 1.58 3.02 1.46 3.09 1.42 C 3.16 1.38 3.26 1.25 3.29 1.3 C 3.32 1.35 3.32 1.65 3.29 1.7 C 3.26 1.75 3.16 1.65 3.09 1.62 C 3.02 1.59 2.91 1.51 2.89 1.54 C 2.87 1.57 2.97 1.72 2.99 1.8 C 3.01 1.88 3.0 1.93 3.0 2.0 C 3.0 2.07 3.02 2.12 3.01 2.2 C 3.0 2.28 2.91 2.44 2.93 2.47 C 2.95 2.5 3.06 2.42 3.13 2.4 C 3.2 2.38 3.3 2.28 3.33 2.33 C 3.36 2.39 3.36 2.68 3.33 2.73 C 3.3 2.78 3.2 2.64 3.13 2.6 C 3.06 2.56 2.95 2.44 2.93 2.47 C 2.91 2.5 2.99 2.71 3.0 2.8 C 3.01 2.89 3.0 2.93 3.0 3.0 C 3.0 3.07 3.01 3.11 3.0 3.2 C 2.99 3.29 2.91 3.5 2.93 3.54 C 2.95 3.58 3.06 3.45 3.13 3.41 C 3.2 3.37 3.3 3.24 3.33 3.28 C 3.36 3.32 3.36 3.62 3.33 3.68 C 3.3 3.74 3.2 3.63 3.13 3.61 C 3.06 3.59 2.95 3.51 2.93 3.54 C 2.91 3.57 3.02 3.72 3.03 3.8 C 3.04 3.88 3.01 3.93 3.0 4.0 C 2.99 4.07 2.95 4.11 2.97 4.2 C 2.99 4.29 3.12 4.5 3.11 4.53 C 3.1 4.56 2.98 4.44 2.91 4.4 C 2.84 4.36 2.74 4.22 2.71 4.26 C 2.68 4.3 2.68 4.6 2.71 4.66 C 2.74 4.72 2.84 4.62 2.91 4.6 C 2.98 4.58 3.1 4.5 3.11 4.53 C 3.12 4.56 3.0 4.72 2.98 4.8 C 2.96 4.88 2.99 4.93 3.0 5.0 C 3.01 5.07 3.0 5.12 3.02 5.2 C 3.04 5.28 3.14 5.47 3.12 5.5 C 3.1 5.53 2.99 5.43 2.92 5.4 C 2.85 5.37 2.75 5.25 2.72 5.3 C 2.69 5.35 2.69 5.65 2.72 5.7 C 2.75 5.75 2.85 5.63 2.92 5.6 C 2.99 5.57 3.1 5.47 3.12 5.5 C 3.14 5.53 3.04 5.72 3.02 5.8 C 3.0 5.88 3.01 5.93 3.0 6.0 " class="vertical" fill="none" stroke="black" stroke-width="0.01"/>
  <path d="M 4.0,0.0 C 4.0 0.07 3.99 0.12 4.01 0.2 C 4.03 0.28 4.15 0.42 4.14 0.45 C 4.13 0.48 4.01 0.4 3.94 0.37 C 3.87 0.34 3.77 0.23 3.74 0.28 C 3.71 0.33 3.71 0.63 3.74 0.68 C 3.77 0.73 3.87 0.61 3.94 0.57 C 4.01 0.53 4.13 0.41 4.14 0.45 C 4.15 0.49 4.01 0.71 3.99 0.8 C 3.97 0.89 4.0 0.93 4.0 1.0 C 4.0 1.07 3.99 1.11 4.01 1.2 C 4.02 1.29 4.11 1.49 4.09 1.53 C 4.07 1.57 3.96 1.46 3.89 1.42 C 3.82 1.38 3.72 1.25 3.69 1.3 C 3.66 1.35 3.66 1.65 3.69 1.7 C 3.72 1.75 3.82 1.65 3.89 1.62 C 3.96 1.59 4.07 1.5 4.09 1.53 C 4.11 1.56 4.02 1.72 4.01 1.8 C 3.99 1.88 4.0 1.93 4.0 2.0 C 4.0 2.07 3.98 2.12 3.99 2.2 C 4.0 2.28 4.09 2.46 4.07 2.49 C 4.05 2.52 3.94 2.4 3.87 2.36 C 3.8 2.32 3.7 2.18 3.67 2.23 C 3.64 2.28 3.64 2.58 3.67 2.63 C 3.7 2.68 3.8 2.58 3.87 2.56 C 3.94 2.54 4.05 2.45 4.07 2.49 C 4.09 2.53 3.99 2.72 3.98 2.8 C 3.97 2.88 3.99 2.93 4.0 3.0 C 4.01 3.07 4.04 3.12 4.02 3.2 C 4.0 3.28 3.86 3.48 3.87 3.51 C 3.88 3.54 4.0 3.43 4.07 3.39 C 4.14 3.35 4.24 3.22 4.27 3.27 C 4.3 3.32 4.3 3.62 4.27 3.67 C 4.24 3.72 4.14 3.62 4.07 3.59 C 4.0 3.56 3.89 3.47 3.87 3.51 C 3.85 3.54 3.95 3.72 3.97 3.8 C 3.99 3.88 3.99 3.93 4.0 4.0 C 4.01 4.07 4.05 4.11 4.03 4.2 C 4.01 4.29 3.86 4.5 3.87 4.54 C 3.88 4.58 4.0 4.46 4.07 4.42 C 4.14 4.38 4.24 4.25 4.27 4.3 C 4.3 4.35 4.3 4.65 4.27 4.7 C 4.24 4.75 4.14 4.65 4.07 4.62 C 4.0 4.59 3.89 4.51 3.87 4.54 C 3.85 4.57 3.95 4.72 3.97 4.8 C 3.99 4.88 3.99 4.93 4.0 5.0 C 4.01 5.07 4.05 5.12 4.03 5.2 C 4.01 5.28 3.89 5.45 3.9 5.48 C 3.91 5.51 4.03 5.43 4.1 5.4 C 4.17 5.37 4.27 5.27 4.3 5.32 C 4.33 5.37 4.33 5.67 4.3 5.72 C 4.27 5.77 4.17 5.64 4.1 5.6 C 4.03 5.56 3.92 5.45 3.9 5.48 C 3.88 5.51 3.98 5.71 4.0 5.8 C 4.02 5.89 4.0 5.93 4.0 6.0 " class="vertical" fill="none" stroke="black" stroke-width="0.01"/>
  <path d="M 5.0,0.0 C 4.99 0.07 5.0 0.11 4.98 0.2 C 4.96 0.29 4.88 0.48 4.9 0.52 C 4.92 0.56 5.03 0.46 5.1 0.43 C 5.17 0.4 5.27 0.28 5.3 0.33 C 5.33 0.38 5.33 0.68 5.3 0.73 C 5.27 0.78 5.17 0.66 5.1 0.63 C 5.03 0.6 4.92 0.49 4.9 0.52 C 4.88 0.55 4.97 0.72 4.99 0.8 C 5.01 0.88 5.0 0.93 5.0 1.0 C 5.0 1.07 5.0 1.12 5.01 1.2 C 5.02 1.28 5.09 1.47 5.07 1.51 C 5.05 1.55 4.94 1.45 4.87 1.42 C 4.8 1.39 4.7 1.27 4.67 1.32 C 4.64 1.37 4.64 1.67 4.67 1.72 C 4.7 1.77 4.8 1.66 4.87 1.62 C 4.94 1.59 5.04 1.48 5.07 1.51 C 5.1 1.54 5.04 1.72 5.03 1.8 C 5.02 1.88 5.01 1.93 5.0 2.0 C 4.99 2.07 4.95 2.11 4.97 2.2 C 4.99 2.29 5.11 2.52 5.1 2.56 C 5.09 2.6 4.97 2.47 4.9 2.43 C 4.83 2.39 4.73 2.26 4.7 2.31 C 4.67 2.36 4.67 2.66 4.7 2.71 C 4.73 2.76 4.83 2.66 4.9 2.63 C 4.97 2.6 5.08 2.53 5.1 2.56 C 5.12 2.59 5.04 2.73 5.02 2.8 C 5.0 2.87 5.01 2.93 5.0 3.0 C 4.99 3.07 4.99 3.12 4.98 3.2 C 4.97 3.28 4.9 3.47 4.92 3.51 C 4.94 3.55 5.05 3.46 5.12 3.44 C 5.19 3.42 5.29 3.31 5.32 3.36 C 5.35 3.41 5.35 3.71 5.32 3.76 C 5.29 3.81 5.19 3.68 5.12 3.64 C 5.05 3.6 4.93 3.48 4.92 3.51 C 4.9 3.54 5.02 3.72 5.03 3.8 C 5.04 3.88 5.01 3.93 5.0 4.0 C 4.99 4.07 4.95 4.12 4.97 4.2 C 4.99 4.28 5.14 4.43 5.14 4.46 C 5.14 4.49 5.01 4.42 4.94 4.4 C 4.87 4.38 4.77 4.28 4.74 4.34 C 4.71 4.4 4.71 4.7 4.74 4.74 C 4.77 4.78 4.87 4.65 4.94 4.6 C 5.01 4.55 5.14 4.43 5.14 4.46 C 5.14 4.49 4.98 4.71 4.96 4.8 C 4.94 4.89 4.99 4.93 5.0 5.0 C 5.01 5.07 5.06 5.12 5.04 5.2 C 5.02 5.28 4.88 5.44 4.89 5.47 C 4.9 5.5 5.02 5.42 5.09 5.4 C 5.16 5.38 5.26 5.28 5.29 5.33 C 5.32 5.38 5.32 5.68 5.29 5.73 C 5.26 5.78 5.16 5.64 5.09 5.6 C 5.02 5.56 4.9 5.44 4.89 5.47 C 4.88 5.5 4.99 5.71 5.01 5.8 C 5.03 5.89 5.0 5.93 5.0 6.0 " class="vertical" fill="none" stroke="black" stroke-width="0.01"/>
  <path d="M 6,0 L 6,6 " class="vertical" fill="none" stroke="black" stroke-width="0.01"/>
</svg>
