<svg xmlns="http://www.w3.org/2000/svg" width="3072" height="3072" viewBox="0 0 3072 3072">
  <path d="M 0.0,256.0 C 51.2 254.19 137.12 281.74 108.44 230.54 C 79.76 179.34 182.16 179.34 159.64 230.54 C 137.12 281.74 204.8 262.47 256.0 256.0 C 307.2 249.53 389.78 220.19 360.15 271.39 C 330.53 322.59 432.93 322.59 411.35 271.39 C 389.78 220.19 460.8 251.4 512.0 256.0 C 563.2 260.6 628.27 290.52 611.74 239.32 C 595.2 188.12 697.6 188.12 662.94 239.32 C 628.27 290.52 716.8 250.5 768.0 256.0 C 819.2 261.5 907.28 272.27 874.24 221.07 C 841.19 169.87 943.59 169.87 925.44 221.07 C 907.28 272.27 972.8 249.95 1024.0 256.0 C 1075.2 262.05 1150.29 224.36 1124.65 275.56 C 1099.01 326.76 1201.41 326.76 1175.85 275.56 C 1150.29 224.36 1228.8 266.01 1280.0 256.0 C 1331.2 245.99 1415.83 221.76 1380.59 272.96 C 1345.34 324.16 1447.74 324.16 1431.79 272.96 C 1415.83 221.76 1484.8 249.5 1536.0 256.0 C 1587.2 262.5 1662.73 223.79 1644.15 274.99 C 1625.58 326.19 1727.98 326.19 1695.35 274.99 C 1662.73 223.79 1740.8 246.34 1792.0 256.0 C 1843.2 265.66 1923.99 281.22 1896.29 230.02 C 1868.59 178.82 1970.99 178.82 1947.49 230.02 C 1923.99 281.22 1996.8 263.72 2048.0 256.0 C 2099.2 248.28 2165.76 290.32 2148.96 239.12 C 2132.16 187.92 2234.56 187.92 2200.16 239.12 C 2165.76 290.32 2252.8 256.46 2304.0 256.0 C 2355.2 255.54 2445.89 233.98 2415.81 285.18 C 2385.72 336.38 2488.12 336.38 2467.01 285.18 C 2445.89 233.98 2508.8 252.28 2560.0 256.0 C 2611.2 259.72 2688.86 240.0 2671.74 291.2 C 2654.61 342.4 2757.01 342.4 2722.94 291.2 C 2688.86 240.0 2764.8 251.88 2816.0 256.0 C 2867.2 260.12 2930.52 224.96 2909.48 276.16 C 2888.44 327.36 2990.84 327.36 2960.68 276.16 C 2930.52 224.96 3020.8 248.87 3072.0 256.0" class="horizontal" stroke="black" fill="none" stroke-width="1"/>
  <path d="M 0.0,512.0 C 51.2 521.46 117.1 489.62 99.91 540.82 C 82.73 592.02 185.13 592.02 151.11 540.82 C 117.1 489.62 204.8 510.4 256.0 512.0 C 307.2 513.6 376.49 535.83 352.15 484.63 C 327.82 433.43 430.22 433.43 403.35 484.63 C 376.49 535.83 460.8 519.87 512.0 512.0 C 563.2 504.13 649.91 534.23 624.45 483.03 C 598.99 431.83 701.39 431.83 675.65 483.03 C 649.91 534.23 716.8 509.52 768.0 512.0 C 819.2 514.48 900.1 495.26 876.8 546.46 C 853.49 597.66 955.89 597.66 928.0 546.46 C 900.1 495.26 972.8 521.58 1024.0 512.0 C 1075.2 502.42 1142.19 477.39 1126.05 528.59 C 1109.9 579.79 1212.3 579.79 1177.25 528.59 C 1142.19 477.39 1228.8 505.16 1280.0 512.0 C 1331.2 518.84 1393.51 476.46 1375.62 527.66 C 1357.72 578.86 1460.12 578.86 1426.82 527.66 C 1393.51 476.46 1484.8 505.59 1536.0 512.0 C 1587.2 518.41 1670.51 478.47 1640.86 529.67 C 1611.22 580.87 1713.62 580.87 1692.06 529.67 C 1670.51 478.47 1740.8 517.71 1792.0 512.0 C 1843.2 506.29 1919.86 489.4 1898.79 540.6 C 1877.71 591.8 1980.11 591.8 1949.99 540.6 C 1919.86 489.4 1996.8 508.62 2048.0 512.0 C 2099.2 515.38 2182.31 476.83 2154.65 528.03 C 2126.98 579.23 2229.38 579.23 2205.85 528.03 C 2182.31 476.83 2252.8 502.84 2304.0 512.0 C 2355.2 521.16 2433.49 478.92 2407.75 530.12 C 2382.01 581.32 2484.41 581.32 2458.95 530.12 C 2433.49 478.92 2508.8 515.96 2560.0 512.0 C 2611.2 508.04 2696.74 541.27 2667.06 490.07 C 2637.38 438.87 2739.78 438.87 2718.26 490.07 C 2696.74 541.27 2764.8 511.17 2816.0 512.0 C 2867.2 512.83 2950.74 535.48 2920.72 484.28 C 2890.7 433.08 2993.1 433.08 2971.92 484.28 C 2950.74 535.48 3020.8 511.65 3072.0 512.0" class="horizontal" stroke="black" fill="none" stroke-width="1"/>
  <path d="M 0.0,768.0 C 51.2 762.23 131.53 800.73 103.95 749.53 C 76.36 698.33 178.76 698.33 155.15 749.53 C 131.53 800.73 204.8 766.91 256.0 768.0 C 307.2 769.09 379.86 745.83 360.2 797.03 C 340.53 848.23 442.93 848.23 411.4 797.03 C 379.86 745.83 460.8 776.86 512.0 768.0 C 563.2 759.14 625.18 735.3 609.74 786.5 C 594.31 837.7 696.71 837.7 660.94 786.5 C 625.18 735.3 716.8 759.61 768.0 768.0 C 819.2 776.39 909.34 736.54 878.25 787.74 C 847.15 838.94 949.55 838.94 929.45 787.74 C 909.34 736.54 972.8 776.51 1024.0 768.0 C 1075.2 759.49 1145.5 734.6 1123.85 785.8 C 1102.2 837.0 1204.6 837.0 1175.05 785.8 C 1145.5 734.6 1228.8 771.59 1280.0 768.0 C 1331.2 764.41 1406.54 737.15 1385.43 788.35 C 1364.32 839.55 1466.72 839.55 1436.63 788.35 C 1406.54 737.15 1484.8 770.7 1536.0 768.0 C 1587.2 765.3 1670.6 784.43 1637.92 733.23 C 1605.25 682.03 1707.65 682.03 1689.12 733.23 C 1670.6 784.43 1740.8 759.22 1792.0 768.0 C 1843.2 776.78 1929.4 790.89 1901.88 739.69 C 1874.36 688.49 1976.76 688.49 1953.08 739.69 C 1929.4 790.89 1996.8 774.64 2048.0 768.0 C 2099.2 761.36 2185.95 750.5 2151.71 801.7 C 2117.46 852.9 2219.86 852.9 2202.91 801.7 C 2185.95 750.5 2252.8 776.48 2304.0 768.0 C 2355.2 759.52 2449.37 744.52 2415.76 795.72 C 2382.14 846.92 2484.54 846.92 2466.96 795.72 C 2449.37 744.52 2508.8 776.31 2560.0 768.0 C 2611.2 759.69 2676.76 799.08 2659.77 747.88 C 2642.79 696.68 2745.19 696.68 2710.97 747.88 C 2676.76 799.08 2764.8 771.96 2816.0 768.0 C 2867.2 764.04 2934.84 793.23 2910.9 742.03 C 2886.97 690.83 2989.37 690.83 2962.1 742.03 C 2934.84 793.23 3020.8 769.45 3072.0 768.0" class="horizontal" stroke="black" fill="none" stroke-width="1"/>
  <path d="M 0.0,1024.0 C 51.2 1027.46 117.56 1007.54 99.99 1058.74 C 82.41 1109.94 184.81 1109.94 151.19 1058.74 C 117.56 1007.54 204.8 1030.68 256.0 1024.0 C 307.2 1017.32 374.21 994.82 353.35 1046.02 C 332.49 1097.22 434.89 1097.22 404.55 1046.02 C 374.21 994.82 460.8 1021.8 512.0 1024.0 C 563.2 1026.2 650.03 1046.21 622.71 995.01 C 595.39 943.81 697.79 943.81 673.91 995.01 C 650.03 1046.21 716.8 1033.1 768.0 1024.0 C 819.2 1014.9 894.18 1047.17 861.74 995.97 C 829.31 944.77 931.71 944.77 912.94 995.97 C 894.18 1047.17 972.8 1019.53 1024.0 1024.0 C 1075.2 1028.47 1157.79 989.84 1133.76 1041.04 C 1109.73 1092.24 1212.13 1092.24 1184.96 1041.04 C 1157.79 989.84 1228.8 1026.47 1280.0 1024.0 C 1331.2 1021.53 1404.52 988.82 1376.29 1040.02 C 1348.06 1091.22 1450.46 1091.22 1427.49 1040.02 C 1404.52 988.82 1484.8 1019.38 1536.0 1024.0 C 1587.2 1028.62 1648.87 1044.47 1630.52 993.27 C 1612.16 942.07 1714.56 942.07 1681.72 993.27 C 1648.87 1044.47 1740.8 1020.6 1792.0 1024.0 C 1843.2 1027.4 1933.09 1043.0 1898.76 991.8 C 1864.42 940.6 1966.82 940.6 1949.96 991.8 C 1933.09 1043.0 1996.8 1027.54 2048.0 1024.0 C 2099.2 1020.46 2178.18 1057.17 2152.33 1005.97 C 2126.48 954.77 2228.88 954.77 2203.53 1005.97 C 2178.18 1057.17 2252.8 1017.93 2304.0 1024.0 C 2355.2 1030.07 2418.92 1040.83 2403.08 989.63 C 2387.24 938.43 2489.64 938.43 2454.28 989.63 C 2418.92 1040.83 2508.8 1013.77 2560.0 1024.0 C 2611.2 1034.23 2692.59 1054.15 2669.22 1002.95 C 2645.84 951.75 2748.24 951.75 2720.42 1002.95 C 2692.59 1054.15 2764.8 1033.18 2816.0 1024.0 C 2867.2 1014.82 2947.11 999.02 2926.14 1050.22 C 2905.17 1101.42 3007.57 1101.42 2977.34 1050.22 C 2947.11 999.02 3020.8 1030.82 3072.0 1024.0" class="horizontal" stroke="black" fill="none" stroke-width="1"/>
  <path d="M 0.0,1280.0 C 51.2 1280.98 142.15 1247.93 106.78 1299.13 C 71.42 1350.33 173.82 1350.33 157.98 1299.13 C 142.15 1247.93 204.8 1280.02 256.0 1280.0 C 307.2 1279.98 370.0 1308.66 350.11 1257.46 C 330.22 1206.26 432.62 1206.26 401.31 1257.46 C 370.0 1308.66 460.8 1288.28 512.0 1280.0 C 563.2 1271.72 640.37 1301.6 612.4 1250.4 C 584.42 1199.2 686.82 1199.2 663.6 1250.4 C 640.37 1301.6 716.8 1270.04 768.0 1280.0 C 819.2 1289.96 897.87 1255.41 869.42 1306.61 C 840.97 1357.81 943.37 1357.81 920.62 1306.61 C 897.87 1255.41 972.8 1289.62 1024.0 1280.0 C 1075.2 1270.38 1167.75 1305.42 1135.94 1254.22 C 1104.14 1203.02 1206.54 1203.02 1187.14 1254.22 C 1167.75 1305.42 1228.8 1273.68 1280.0 1280.0 C 1331.2 1286.32 1398.94 1310.2 1376.74 1259.0 C 1354.55 1207.8 1456.95 1207.8 1427.94 1259.0 C 1398.94 1310.2 1484.8 1286.58 1536.0 1280.0 C 1587.2 1273.42 1660.26 1301.79 1636.71 1250.59 C 1613.16 1199.39 1715.56 1199.39 1687.91 1250.59 C 1660.26 1301.79 1740.8 1277.52 1792.0 1280.0 C 1843.2 1282.48 1910.17 1299.2 1894.5 1248.0 C 1878.83 1196.8 1981.23 1196.8 1945.7 1248.0 C 1910.17 1299.2 1996.8 1286.62 2048.0 1280.0 C 2099.2 1273.38 2194.83 1297.54 2160.21 1246.34 C 2125.58 1195.14 2227.98 1195.14 2211.41 1246.34 C 2194.83 1297.54 2252.8 1277.05 2304.0 1280.0 C 2355.2 1282.95 2442.12 1306.61 2410.27 1255.41 C 2378.43 1204.21 2480.83 1204.21 2461.47 1255.41 C 2442.12 1306.61 2508.8 1280.58 2560.0 1280.0 C 2611.2 1279.42 2680.91 1249.19 2663.98 1300.39 C 2647.05 1351.59 2749.45 1351.59 2715.18 1300.39 C 2680.91 1249.19 2764.8 1279.79 2816.0 1280.0 C 2867.2 1280.21 2932.14 1313.27 2911.56 1262.07 C 2890.99 1210.87 2993.39 1210.87 2962.76 1262.07 C 2932.14 1313.27 3020.8 1272.3 3072.0 1280.0" class="horizontal" stroke="black" fill="none" stroke-width="1"/>
  <path d="M 0.0,1536.0 C 51.2 1531.12 130.73 1565.34 95.56 1514.14 C 60.38 1462.94 162.78 1462.94 146.76 1514.14 C 130.73 1565.34 204.8 1537.82 256.0 1536.0 C 307.2 1534.18 379.36 1508.05 359.45 1559.25 C 339.55 1610.45 441.95 1610.45 410.65 1559.25 C 379.36 1508.05 460.8 1534.27 512.0 1536.0 C 563.2 1537.73 648.18 1552.39 622.16 1501.19 C 596.14 1449.99 698.54 1449.99 673.36 1501.19 C 648.18 1552.39 716.8 1531.23 768.0 1536.0 C 819.2 1540.77 903.54 1565.55 868.05 1514.35 C 832.56 1463.15 934.96 1463.15 919.25 1514.35 C 903.54 1565.55 972.8 1542.59 1024.0 1536.0 C 1075.2 1529.41 1172.02 1552.65 1136.46 1501.45 C 1100.9 1450.25 1203.3 1450.25 1187.66 1501.45 C 1172.02 1552.65 1228.8 1542.6 1280.0 1536.0 C 1331.2 1529.4 1403.42 1557.26 1374.82 1506.06 C 1346.22 1454.86 1448.62 1454.86 1426.02 1506.06 C 1403.42 1557.26 1484.8 1527.16 1536.0 1536.0 C 1587.2 1544.84 1654.82 1554.54 1630.48 1503.34 C 1606.14 1452.14 1708.54 1452.14 1681.68 1503.34 C 1654.82 1554.54 1740.8 1545.75 1792.0 1536.0 C 1843.2 1526.25 1925.26 1513.33 1895.1 1564.53 C 1864.94 1615.73 1967.34 1615.73 1946.3 1564.53 C 1925.26 1513.33 1996.8 1531.61 2048.0 1536.0 C 2099.2 1540.39 2184.93 1571.18 2151.62 1519.98 C 2118.31 1468.78 2220.71 1468.78 2202.82 1519.98 C 2184.93 1571.18 2252.8 1527.08 2304.0 1536.0 C 2355.2 1544.92 2440.02 1570.2 2412.98 1519.0 C 2385.93 1467.8 2488.33 1467.8 2464.18 1519.0 C 2440.02 1570.2 2508.8 1529.77 2560.0 1536.0 C 2611.2 1542.23 2684.02 1502.12 2661.9 1553.32 C 2639.77 1604.52 2742.17 1604.52 2713.1 1553.32 C 2684.02 1502.12 2764.8 1545.6 2816.0 1536.0 C 2867.2 1526.4 2961.62 1558.82 2926.98 1507.62 C 2892.34 1456.42 2994.74 1456.42 2978.18 1507.62 C 2961.62 1558.82 3020.8 1540.82 3072.0 1536.0" class="horizontal" stroke="black" fill="none" stroke-width="1"/>
  <path d="M 0.0,1792.0 C 51.2 1795.12 131.93 1813.66 111.69 1762.46 C 91.46 1711.26 193.86 1711.26 162.89 1762.46 C 131.93 1813.66 204.8 1792.22 256.0 1792.0 C 307.2 1791.78 386.59 1764.18 360.88 1815.38 C 335.17 1866.58 437.57 1866.58 412.08 1815.38 C 386.59 1764.18 460.8 1787.11 512.0 1792.0 C 563.2 1796.89 641.17 1823.46 607.67 1772.26 C 574.16 1721.06 676.56 1721.06 658.87 1772.26 C 641.17 1823.46 716.8 1784.99 768.0 1792.0 C 819.2 1799.01 889.41 1811.82 871.41 1760.62 C 853.41 1709.42 955.81 1709.42 922.61 1760.62 C 889.41 1811.82 972.8 1788.28 1024.0 1792.0 C 1075.2 1795.72 1145.05 1771.5 1124.93 1822.7 C 1104.81 1873.9 1207.21 1873.9 1176.13 1822.7 C 1145.05 1771.5 1228.8 1787.43 1280.0 1792.0 C 1331.2 1796.57 1414.23 1758.86 1386.27 1810.06 C 1358.3 1861.26 1460.7 1861.26 1437.47 1810.06 C 1414.23 1758.86 1484.8 1791.39 1536.0 1792.0 C 1587.2 1792.61 1654.28 1816.36 1630.33 1765.16 C 1606.38 1713.96 1708.78 1713.96 1681.53 1765.16 C 1654.28 1816.36 1740.8 1790.28 1792.0 1792.0 C 1843.2 1793.72 1916.6 1769.06 1886.46 1820.26 C 1856.33 1871.46 1958.73 1871.46 1937.66 1820.26 C 1916.6 1769.06 1996.8 1788.25 2048.0 1792.0 C 2099.2 1795.75 2192.82 1757.95 2159.52 1809.15 C 2126.22 1860.35 2228.62 1860.35 2210.72 1809.15 C 2192.82 1757.95 2252.8 1787.85 2304.0 1792.0 C 2355.2 1796.15 2435.55 1814.38 2401.82 1763.18 C 2368.1 1711.98 2470.5 1711.98 2453.02 1763.18 C 2435.55 1814.38 2508.8 1801.28 2560.0 1792.0 C 2611.2 1782.72 2698.5 1811.36 2671.35 1760.16 C 2644.2 1708.96 2746.6 1708.96 2722.55 1760.16 C 2698.5 1811.36 2764.8 1788.55 2816.0 1792.0 C 2867.2 1795.45 2941.48 1826.46 2922.09 1775.26 C 2902.71 1724.06 3005.11 1724.06 2973.29 1775.26 C 2941.48 1826.46 3020.8 1783.26 3072.0 1792.0" class="horizontal" stroke="black" fill="none" stroke-width="1"/>
  <path d="M 0.0,2048.0 C 51.2 2046.79 131.61 2025.3 111.56 2076.5 C 91.51 2127.7 193.91 2127.7 162.76 2076.5 C 131.61 2025.3 204.8 2053.17 256.0 2048.0 C 307.2 2042.83 385.23 2020.14 359.85 2071.34 C 334.48 2122.54 436.88 2122.54 411.05 2071.34 C 385.23 2020.14 460.8 2051.84 512.0 2048.0 C 563.2 2044.16 636.18 2032.64 615.06 2083.84 C 593.94 2135.04 696.34 2135.04 666.26 2083.84 C 636.18 2032.64 716.8 2042.42 768.0 2048.0 C 819.2 2053.58 892.04 2079.4 872.6 2028.2 C 853.16 1977.0 955.56 1977.0 923.8 2028.2 C 892.04 2079.4 972.8 2045.88 1024.0 2048.0 C 1075.2 2050.12 1154.81 2017.61 1128.74 2068.81 C 1102.67 2120.01 1205.07 2120.01 1179.94 2068.81 C 1154.81 2017.61 1228.8 2057.72 1280.0 2048.0 C 1331.2 2038.28 1409.26 2013.48 1379.63 2064.68 C 1350.01 2115.88 1452.41 2115.88 1430.83 2064.68 C 1409.26 2013.48 1484.8 2048.97 1536.0 2048.0 C 1587.2 2047.03 1665.05 2079.9 1630.46 2028.7 C 1595.86 1977.5 1698.26 1977.5 1681.66 2028.7 C 1665.05 2079.9 1740.8 2050.7 1792.0 2048.0 C 1843.2 2045.3 1928.27 2072.56 1896.79 2021.36 C 1865.3 1970.16 1967.7 1970.16 1947.99 2021.36 C 1928.27 2072.56 1996.8 2038.18 2048.0 2048.0 C 2099.2 2057.82 2182.52 2027.68 2147.42 2078.88 C 2112.31 2130.08 2214.71 2130.08 2198.62 2078.88 C 2182.52 2027.68 2252.8 2054.62 2304.0 2048.0 C 2355.2 2041.38 2444.69 2080.55 2413.98 2029.35 C 2383.26 1978.15 2485.66 1978.15 2465.18 2029.35 C 2444.69 2080.55 2508.8 2056.06 2560.0 2048.0 C 2611.2 2039.94 2673.11 2031.48 2657.36 2082.68 C 2641.61 2133.88 2744.01 2133.88 2708.56 2082.68 C 2673.11 2031.48 2764.8 2048.12 2816.0 2048.0 C 2867.2 2047.88 2933.55 2065.85 2912.71 2014.65 C 2891.87 1963.45 2994.27 1963.45 2963.91 2014.65 C 2933.55 2065.85 3020.8 2050.71 3072.0 2048.0" class="horizontal" stroke="black" fill="none" stroke-width="1"/>
  <path d="M 0.0,2304.0 C 51.2 2297.49 126.43 2322.83 94.54 2271.63 C 62.65 2220.43 165.05 2220.43 145.74 2271.63 C 126.43 2322.83 204.8 2295.7 256.0 2304.0 C 307.2 2312.3 396.17 2272.34 362.27 2323.54 C 328.37 2374.74 430.77 2374.74 413.47 2323.54 C 396.17 2272.34 460.8 2312.72 512.0 2304.0 C 563.2 2295.28 656.11 2272.71 623.03 2323.91 C 589.94 2375.11 692.34 2375.11 674.23 2323.91 C 656.11 2272.71 716.8 2296.25 768.0 2304.0 C 819.2 2311.75 898.75 2326.4 865.83 2275.2 C 832.91 2224.0 935.31 2224.0 917.03 2275.2 C 898.75 2326.4 972.8 2297.52 1024.0 2304.0 C 1075.2 2310.48 1148.06 2336.13 1117.11 2284.93 C 1086.16 2233.73 1188.56 2233.73 1168.31 2284.93 C 1148.06 2336.13 1228.8 2295.45 1280.0 2304.0 C 1331.2 2312.55 1413.52 2322.8 1385.87 2271.6 C 1358.22 2220.4 1460.62 2220.4 1437.07 2271.6 C 1413.52 2322.8 1484.8 2312.58 1536.0 2304.0 C 1587.2 2295.42 1656.25 2323.3 1629.1 2272.1 C 1601.96 2220.9 1704.36 2220.9 1680.3 2272.1 C 1656.25 2323.3 1740.8 2307.97 1792.0 2304.0 C 1843.2 2300.03 1916.54 2281.1 1888.51 2332.3 C 1860.47 2383.5 1962.87 2383.5 1939.71 2332.3 C 1916.54 2281.1 1996.8 2311.5 2048.0 2304.0 C 2099.2 2296.5 2178.62 2331.29 2154.3 2280.09 C 2129.98 2228.89 2232.38 2228.89 2205.5 2280.09 C 2178.62 2331.29 2252.8 2303.21 2304.0 2304.0 C 2355.2 2304.79 2440.56 2326.71 2414.4 2275.51 C 2388.23 2224.31 2490.63 2224.31 2465.6 2275.51 C 2440.56 2326.71 2508.8 2301.89 2560.0 2304.0 C 2611.2 2306.11 2687.2 2323.97 2670.36 2272.77 C 2653.53 2221.57 2755.93 2221.57 2721.56 2272.77 C 2687.2 2323.97 2764.8 2302.04 2816.0 2304.0 C 2867.2 2305.96 2942.35 2331.31 2911.98 2280.11 C 2881.6 2228.91 2984.0 2228.91 2963.18 2280.11 C 2942.35 2331.31 3020.8 2313.5 3072.0 2304.0" class="horizontal" stroke="black" fill="none" stroke-width="1"/>
  <path d="M 0.0,2560.0 C 51.2 2555.15 135.06 2539.3 109.88 2590.5 C 84.71 2641.7 187.11 2641.7 161.08 2590.5 C 135.06 2539.3 204.8 2560.04 256.0 2560.0 C 307.2 2559.96 383.53 2542.36 364.16 2593.56 C 344.8 2644.76 447.2 2644.76 415.36 2593.56 C 383.53 2542.36 460.8 2564.36 512.0 2560.0 C 563.2 2555.64 647.06 2530.45 615.66 2581.65 C 584.26 2632.85 686.66 2632.85 666.86 2581.65 C 647.06 2530.45 716.8 2550.57 768.0 2560.0 C 819.2 2569.43 907.2 2537.33 873.85 2588.53 C 840.5 2639.73 942.9 2639.73 925.05 2588.53 C 907.2 2537.33 972.8 2553.97 1024.0 2560.0 C 1075.2 2566.03 1158.78 2539.45 1124.84 2590.65 C 1090.9 2641.85 1193.3 2641.85 1176.04 2590.65 C 1158.78 2539.45 1228.8 2553.84 1280.0 2560.0 C 1331.2 2566.16 1398.88 2594.96 1377.12 2543.76 C 1355.36 2492.56 1457.76 2492.56 1428.32 2543.76 C 1398.88 2594.96 1484.8 2558.27 1536.0 2560.0 C 1587.2 2561.73 1675.22 2534.89 1640.58 2586.09 C 1605.93 2637.29 1708.33 2637.29 1691.78 2586.09 C 1675.22 2534.89 1740.8 2553.97 1792.0 2560.0 C 1843.2 2566.03 1913.02 2524.29 1893.84 2575.49 C 1874.65 2626.69 1977.05 2626.69 1945.04 2575.49 C 1913.02 2524.29 1996.8 2551.79 2048.0 2560.0 C 2099.2 2568.21 2173.16 2532.49 2156.03 2583.69 C 2138.91 2634.89 2241.31 2634.89 2207.23 2583.69 C 2173.16 2532.49 2252.8 2565.68 2304.0 2560.0 C 2355.2 2554.32 2422.31 2539.82 2402.07 2591.02 C 2381.82 2642.22 2484.22 2642.22 2453.27 2591.02 C 2422.31 2539.82 2508.8 2569.47 2560.0 2560.0 C 2611.2 2550.53 2701.47 2576.92 2666.36 2525.72 C 2631.25 2474.52 2733.65 2474.52 2717.56 2525.72 C 2701.47 2576.92 2764.8 2550.9 2816.0 2560.0 C 2867.2 2569.1 2944.19 2592.7 2913.92 2541.5 C 2883.65 2490.3 2986.05 2490.3 2965.12 2541.5 C 2944.19 2592.7 3020.8 2556.36 3072.0 2560.0" class="horizontal" stroke="black" fill="none" stroke-width="1"/>
  <path d="M 0.0,2816.0 C 51.2 2811.36 111.33 2796.62 94.26 2847.82 C 77.19 2899.02 179.59 2899.02 145.46 2847.82 C 111.33 2796.62 204.8 2806.93 256.0 2816.0 C 307.2 2825.07 387.37 2846.2 365.31 2795.0 C 343.24 2743.8 445.64 2743.8 416.51 2795.0 C 387.37 2846.2 460.8 2814.3 512.0 2816.0 C 563.2 2817.7 652.1 2784.76 623.04 2835.96 C 593.99 2887.16 696.39 2887.16 674.24 2835.96 C 652.1 2784.76 716.8 2813.18 768.0 2816.0 C 819.2 2818.82 897.98 2834.72 874.12 2783.52 C 850.26 2732.32 952.66 2732.32 925.32 2783.52 C 897.98 2834.72 972.8 2822.42 1024.0 2816.0 C 1075.2 2809.58 1144.2 2782.4 1119.11 2833.6 C 1094.03 2884.8 1196.43 2884.8 1170.31 2833.6 C 1144.2 2782.4 1228.8 2816.39 1280.0 2816.0 C 1331.2 2815.61 1420.61 2842.62 1389.98 2791.42 C 1359.35 2740.22 1461.75 2740.22 1441.18 2791.42 C 1420.61 2842.62 1484.8 2815.77 1536.0 2816.0 C 1587.2 2816.23 1671.26 2795.17 1643.43 2846.37 C 1615.61 2897.57 1718.01 2897.57 1694.63 2846.37 C 1671.26 2795.17 1740.8 2811.56 1792.0 2816.0 C 1843.2 2820.44 1918.45 2787.32 1889.36 2838.52 C 1860.27 2889.72 1962.67 2889.72 1940.56 2838.52 C 1918.45 2787.32 1996.8 2809.32 2048.0 2816.0 C 2099.2 2822.68 2169.61 2795.41 2148.2 2846.61 C 2126.8 2897.81 2229.2 2897.81 2199.4 2846.61 C 2169.61 2795.41 2252.8 2807.2 2304.0 2816.0 C 2355.2 2824.8 2446.96 2796.4 2411.52 2847.6 C 2376.08 2898.8 2478.48 2898.8 2462.72 2847.6 C 2446.96 2796.4 2508.8 2806.92 2560.0 2816.0 C 2611.2 2825.08 2688.05 2781.86 2671.52 2833.06 C 2655.0 2884.26 2757.4 2884.26 2722.72 2833.06 C 2688.05 2781.86 2764.8 2825.28 2816.0 2816.0 C 2867.2 2806.72 2936.1 2845.51 2912.01 2794.31 C 2887.92 2743.11 2990.32 2743.11 2963.21 2794.31 C 2936.1 2845.51 3020.8 2812.39 3072.0 2816.0" class="horizontal" stroke="black" fill="none" stroke-width="1"/>
  <path d="M 256.0,0.0 C 265.46 51.2 228.01 134.41 279.21 112.23 C 330.41 90.04 330.41 192.44 279.21 163.43 C 228.01 134.41 253.75 204.8 256.0 256.0 C 258.25 307.2 284.53 384.76 233.33 361.15 C 182.13 337.54 182.13 439.94 233.33 412.35 C 284.53 384.76 266.19 460.8 256.0 512.0 C 245.81 563.2 284.29 652.49 233.09 619.12 C 181.89 585.74 181.89 688.14 233.09 670.32 C 284.29 652.49 254.08 716.8 256.0 768.0 C 257.92 819.2 239.83 895.86 291.03 871.44 C 342.23 847.02 342.23 949.42 291.03 922.64 C 239.83 895.86 248.78 972.8 256.0 1024.0 C 263.22 1075.2 289.92 1135.04 238.72 1117.77 C 187.52 1100.49 187.52 1202.89 238.72 1168.97 C 289.92 1135.04 264.47 1228.8 256.0 1280.0 C 247.53 1331.2 280.67 1388.85 229.47 1372.54 C 178.27 1356.22 178.27 1458.62 229.47 1423.74 C 280.67 1388.85 254.35 1484.8 256.0 1536.0 C 257.65 1587.2 281.65 1658.96 230.45 1629.86 C 179.25 1600.77 179.25 1703.17 230.45 1681.06 C 281.65 1658.96 265.42 1740.8 256.0 1792.0 C 246.58 1843.2 230.11 1932.66 281.31 1898.27 C 332.51 1863.87 332.51 1966.27 281.31 1949.47 C 230.11 1932.66 251.05 1996.8 256.0 2048.0 C 260.95 2099.2 288.6 2181.27 237.4 2153.82 C 186.2 2126.37 186.2 2228.77 237.4 2205.02 C 288.6 2181.27 264.71 2252.8 256.0 2304.0 C 247.29 2355.2 281.25 2444.85 230.05 2413.25 C 178.85 2381.65 178.85 2484.05 230.05 2464.45 C 281.25 2444.85 256.33 2508.8 256.0 2560.0 C 255.67 2611.2 290.22 2686.43 239.02 2657.15 C 187.82 2627.87 187.82 2730.27 239.02 2708.35 C 290.22 2686.43 253.17 2764.8 256.0 2816.0 C 258.83 2867.2 226.16 2950.47 277.36 2920.31 C 328.56 2890.15 328.56 2992.55 277.36 2971.51 C 226.16 2950.47 260.43 3020.8 256.0 3072.0" class="vertical" stroke="black" fill="none" stroke-width="1"/>
  <path d="M 512.0,0.0 C 502.28 51.2 493.77 134.76 544.97 110.44 C 596.17 86.12 596.17 188.52 544.97 161.64 C 493.77 134.76 505.38 204.8 512.0 256.0 C 518.62 307.2 544.4 391.5 493.2 360.97 C 442.0 330.44 442.0 432.84 493.2 412.17 C 544.4 391.5 507.58 460.8 512.0 512.0 C 516.42 563.2 532.99 636.96 481.79 611.86 C 430.59 586.75 430.59 689.15 481.79 663.06 C 532.99 636.96 518.65 716.8 512.0 768.0 C 505.35 819.2 494.78 898.46 545.98 875.56 C 597.18 852.67 597.18 955.07 545.98 926.76 C 494.78 898.46 515.17 972.8 512.0 1024.0 C 508.83 1075.2 531.5 1140.97 480.3 1117.81 C 429.1 1094.66 429.1 1197.06 480.3 1169.01 C 531.5 1140.97 505.36 1228.8 512.0 1280.0 C 518.64 1331.2 478.54 1399.03 529.74 1373.65 C 580.94 1348.27 580.94 1450.67 529.74 1424.85 C 478.54 1399.03 505.56 1484.8 512.0 1536.0 C 518.44 1587.2 533.23 1665.05 482.03 1642.97 C 430.83 1620.89 430.83 1723.29 482.03 1694.17 C 533.23 1665.05 521.99 1740.8 512.0 1792.0 C 502.01 1843.2 482.32 1930.48 533.52 1896.75 C 584.72 1863.01 584.72 1965.41 533.52 1947.95 C 482.32 1930.48 515.36 1996.8 512.0 2048.0 C 508.64 2099.2 493.59 2160.97 544.79 2143.88 C 595.99 2126.8 595.99 2229.2 544.79 2195.08 C 493.59 2160.97 514.78 2252.8 512.0 2304.0 C 509.22 2355.2 538.19 2423.38 486.99 2398.61 C 435.79 2373.83 435.79 2476.23 486.99 2449.81 C 538.19 2423.38 516.72 2508.8 512.0 2560.0 C 507.28 2611.2 490.89 2681.95 542.09 2666.39 C 593.29 2650.82 593.29 2753.22 542.09 2717.59 C 490.89 2681.95 508.97 2764.8 512.0 2816.0 C 515.03 2867.2 528.44 2946.04 477.24 2912.01 C 426.04 2877.98 426.04 2980.38 477.24 2963.21 C 528.44 2946.04 515.47 3020.8 512.0 3072.0" class="vertical" stroke="black" fill="none" stroke-width="1"/>
  <path d="M 768.0,0.0 C 768.3 51.2 738.38 122.02 789.58 97.69 C 840.78 73.36 840.78 175.76 789.58 148.89 C 738.38 122.02 762.38 204.8 768.0 256.0 C 773.62 307.2 799.88 377.28 748.68 359.62 C 697.48 341.97 697.48 444.37 748.68 410.82 C 799.88 377.28 776.64 460.8 768.0 512.0 C 759.36 563.2 789.9 644.65 738.7 621.98 C 687.5 599.31 687.5 701.71 738.7 673.18 C 789.9 644.65 773.26 716.8 768.0 768.0 C 762.74 819.2 744.84 888.46 796.04 866.21 C 847.24 843.97 847.24 946.37 796.04 917.41 C 744.84 888.46 768.83 972.8 768.0 1024.0 C 767.17 1075.2 733.5 1138.03 784.7 1120.32 C 835.9 1102.61 835.9 1205.01 784.7 1171.52 C 733.5 1138.03 776.47 1228.8 768.0 1280.0 C 759.53 1331.2 740.68 1415.03 791.88 1390.01 C 843.08 1364.99 843.08 1467.39 791.88 1441.21 C 740.68 1415.03 760.82 1484.8 768.0 1536.0 C 775.18 1587.2 789.5 1649.72 738.3 1628.55 C 687.1 1607.38 687.1 1709.78 738.3 1679.75 C 789.5 1649.72 770.58 1740.8 768.0 1792.0 C 765.42 1843.2 794.08 1938.19 742.88 1903.1 C 691.68 1868.02 691.68 1970.42 742.88 1954.3 C 794.08 1938.19 757.88 1996.8 768.0 2048.0 C 778.12 2099.2 798.34 2192.07 747.14 2159.17 C 695.94 2126.27 695.94 2228.67 747.14 2210.37 C 798.34 2192.07 758.79 2252.8 768.0 2304.0 C 777.21 2355.2 733.75 2421.19 784.95 2400.74 C 836.15 2380.3 836.15 2482.7 784.95 2451.94 C 733.75 2421.19 774.84 2508.8 768.0 2560.0 C 761.16 2611.2 795.85 2687.39 744.65 2657.87 C 693.45 2628.35 693.45 2730.75 744.65 2709.07 C 795.85 2687.39 777.99 2764.8 768.0 2816.0 C 758.01 2867.2 802.61 2948.82 751.41 2921.57 C 700.21 2894.31 700.21 2996.71 751.41 2972.77 C 802.61 2948.82 757.86 3020.8 768.0 3072.0" class="vertical" stroke="black" fill="none" stroke-width="1"/>
  <path d="M 1024.0,0.0 C 1027.5 51.2 1053.88 122.9 1002.68 103.36 C 951.48 83.82 951.48 186.22 1002.68 154.56 C 1053.88 122.9 1025.74 204.8 1024.0 256.0 C 1022.26 307.2 998.84 380.08 1050.04 361.18 C 1101.24 342.27 1101.24 444.67 1050.04 412.38 C 998.84 380.08 1030.08 460.8 1024.0 512.0 C 1017.92 563.2 992.81 639.04 1044.01 612.73 C 1095.21 586.42 1095.21 688.82 1044.01 663.93 C 992.81 639.04 1018.74 716.8 1024.0 768.0 C 1029.26 819.2 1051.9 889.39 1000.7 868.68 C 949.5 847.96 949.5 950.36 1000.7 919.88 C 1051.9 889.39 1031.44 972.8 1024.0 1024.0 C 1016.56 1075.2 1050.31 1144.85 999.11 1121.2 C 947.91 1097.56 947.91 1199.96 999.11 1172.4 C 1050.31 1144.85 1023.27 1228.8 1024.0 1280.0 C 1024.73 1331.2 988.35 1395.37 1039.55 1375.0 C 1090.75 1354.62 1090.75 1457.02 1039.55 1426.2 C 988.35 1395.37 1023.0 1484.8 1024.0 1536.0 C 1025.0 1587.2 1055.75 1666.42 1004.55 1638.58 C 953.35 1610.74 953.35 1713.14 1004.55 1689.78 C 1055.75 1666.42 1013.99 1740.8 1024.0 1792.0 C 1034.01 1843.2 1039.48 1919.61 988.28 1896.43 C 937.08 1873.25 937.08 1975.65 988.28 1947.63 C 1039.48 1919.61 1017.09 1996.8 1024.0 2048.0 C 1030.91 2099.2 997.17 2166.63 1048.37 2142.87 C 1099.57 2119.11 1099.57 2221.51 1048.37 2194.07 C 997.17 2166.63 1014.24 2252.8 1024.0 2304.0 C 1033.76 2355.2 1039.38 2419.59 988.18 2402.36 C 936.98 2385.13 936.98 2487.53 988.18 2453.56 C 1039.38 2419.59 1033.14 2508.8 1024.0 2560.0 C 1014.86 2611.2 1044.9 2692.09 993.7 2668.58 C 942.5 2645.07 942.5 2747.47 993.7 2719.78 C 1044.9 2692.09 1027.49 2764.8 1024.0 2816.0 C 1020.51 2867.2 1047.52 2956.03 996.32 2922.34 C 945.12 2888.64 945.12 2991.04 996.32 2973.54 C 1047.52 2956.03 1024.15 3020.8 1024.0 3072.0" class="vertical" stroke="black" fill="none" stroke-width="1"/>
  <path d="M 1280.0,0.0 C 1275.74 51.2 1311.98 130.31 1260.78 105.2 C 1209.58 80.1 1209.58 182.5 1260.78 156.4 C 1311.98 130.31 1271.9 204.8 1280.0 256.0 C 1288.1 307.2 1258.92 388.68 1310.12 367.86 C 1361.32 347.04 1361.32 449.44 1310.12 419.06 C 1258.92 388.68 1279.52 460.8 1280.0 512.0 C 1280.48 563.2 1259.27 656.58 1310.47 622.12 C 1361.67 587.67 1361.67 690.07 1310.47 673.32 C 1259.27 656.58 1275.27 716.8 1280.0 768.0 C 1284.73 819.2 1247.11 876.15 1298.31 860.3 C 1349.51 844.46 1349.51 946.86 1298.31 911.5 C 1247.11 876.15 1278.78 972.8 1280.0 1024.0 C 1281.22 1075.2 1306.29 1141.28 1255.09 1124.21 C 1203.89 1107.14 1203.89 1209.54 1255.09 1175.41 C 1306.29 1141.28 1269.81 1228.8 1280.0 1280.0 C 1290.19 1331.2 1253.42 1409.85 1304.62 1390.62 C 1355.82 1371.4 1355.82 1473.8 1304.62 1441.82 C 1253.42 1409.85 1289.86 1484.8 1280.0 1536.0 C 1270.14 1587.2 1257.36 1679.33 1308.56 1646.07 C 1359.76 1612.82 1359.76 1715.22 1308.56 1697.27 C 1257.36 1679.33 1284.4 1740.8 1280.0 1792.0 C 1275.6 1843.2 1306.14 1921.71 1254.94 1902.81 C 1203.74 1883.91 1203.74 1986.31 1254.94 1954.01 C 1306.14 1921.71 1274.51 1996.8 1280.0 2048.0 C 1285.49 2099.2 1314.34 2172.02 1263.14 2150.63 C 1211.94 2129.25 1211.94 2231.65 1263.14 2201.83 C 1314.34 2172.02 1278.16 2252.8 1280.0 2304.0 C 1281.84 2355.2 1312.97 2424.85 1261.77 2398.88 C 1210.57 2372.9 1210.57 2475.3 1261.77 2450.08 C 1312.97 2424.85 1285.65 2508.8 1280.0 2560.0 C 1274.35 2611.2 1299.82 2680.54 1248.62 2654.09 C 1197.42 2627.63 1197.42 2730.03 1248.62 2705.29 C 1299.82 2680.54 1278.64 2764.8 1280.0 2816.0 C 1281.36 2867.2 1312.79 2954.61 1261.59 2927.76 C 1210.39 2900.91 1210.39 3003.31 1261.59 2978.96 C 1312.79 2954.61 1289.87 3020.8 1280.0 3072.0" class="vertical" stroke="black" fill="none" stroke-width="1"/>
  <path d="M 1536.0,0.0 C 1530.35 51.2 1563.09 125.64 1511.89 96.33 C 1460.69 67.02 1460.69 169.42 1511.89 147.53 C 1563.09 125.64 1528.93 204.8 1536.0 256.0 C 1543.07 307.2 1570.76 387.82 1519.56 357.93 C 1468.36 328.05 1468.36 430.45 1519.56 409.13 C 1570.76 387.82 1540.49 460.8 1536.0 512.0 C 1531.51 563.2 1566.93 625.35 1515.73 606.65 C 1464.53 587.96 1464.53 690.36 1515.73 657.85 C 1566.93 625.35 1539.7 716.8 1536.0 768.0 C 1532.3 819.2 1557.32 899.29 1506.12 871.16 C 1454.92 843.03 1454.92 945.43 1506.12 922.36 C 1557.32 899.29 1533.85 972.8 1536.0 1024.0 C 1538.15 1075.2 1505.94 1140.8 1557.14 1117.36 C 1608.34 1093.92 1608.34 1196.32 1557.14 1168.56 C 1505.94 1140.8 1532.25 1228.8 1536.0 1280.0 C 1539.75 1331.2 1507.46 1395.83 1558.66 1372.33 C 1609.86 1348.82 1609.86 1451.22 1558.66 1423.53 C 1507.46 1395.83 1537.62 1484.8 1536.0 1536.0 C 1534.38 1587.2 1514.82 1664.85 1566.02 1641.5 C 1617.22 1618.14 1617.22 1720.54 1566.02 1692.7 C 1514.82 1664.85 1540.12 1740.8 1536.0 1792.0 C 1531.88 1843.2 1519.26 1914.17 1570.46 1893.25 C 1621.66 1872.32 1621.66 1974.72 1570.46 1944.45 C 1519.26 1914.17 1531.26 1996.8 1536.0 2048.0 C 1540.74 2099.2 1502.98 2178.31 1554.18 2145.53 C 1605.38 2112.76 1605.38 2215.16 1554.18 2196.73 C 1502.98 2178.31 1527.21 2252.8 1536.0 2304.0 C 1544.79 2355.2 1513.7 2443.53 1564.9 2409.3 C 1616.1 2375.07 1616.1 2477.47 1564.9 2460.5 C 1513.7 2443.53 1529.34 2508.8 1536.0 2560.0 C 1542.66 2611.2 1504.61 2681.42 1555.81 2652.36 C 1607.01 2623.3 1607.01 2725.7 1555.81 2703.56 C 1504.61 2681.42 1532.91 2764.8 1536.0 2816.0 C 1539.09 2867.2 1559.29 2931.01 1508.09 2912.51 C 1456.89 2894.02 1456.89 2996.42 1508.09 2963.71 C 1559.29 2931.01 1532.74 3020.8 1536.0 3072.0" class="vertical" stroke="black" fill="none" stroke-width="1"/>
  <path d="M 1792.0,0.0 C 1782.89 51.2 1770.31 129.45 1821.51 110.63 C 1872.71 91.8 1872.71 194.2 1821.51 161.83 C 1770.31 129.45 1789.27 204.8 1792.0 256.0 C 1794.73 307.2 1824.12 383.42 1772.92 352.59 C 1721.72 321.76 1721.72 424.16 1772.92 403.79 C 1824.12 383.42 1786.83 460.8 1792.0 512.0 C 1797.17 563.2 1827.33 639.26 1776.13 618.71 C 1724.93 598.15 1724.93 700.55 1776.13 669.91 C 1827.33 639.26 1784.1 716.8 1792.0 768.0 C 1799.9 819.2 1825.07 913.14 1773.87 877.65 C 1722.67 842.16 1722.67 944.56 1773.87 928.85 C 1825.07 913.14 1784.9 972.8 1792.0 1024.0 C 1799.1 1075.2 1759.24 1139.92 1810.44 1120.62 C 1861.64 1101.33 1861.64 1203.73 1810.44 1171.82 C 1759.24 1139.92 1795.94 1228.8 1792.0 1280.0 C 1788.06 1331.2 1764.43 1407.08 1815.63 1374.77 C 1866.83 1342.46 1866.83 1444.86 1815.63 1425.97 C 1764.43 1407.08 1799.09 1484.8 1792.0 1536.0 C 1784.91 1587.2 1812.13 1655.07 1760.93 1630.04 C 1709.73 1605.01 1709.73 1707.41 1760.93 1681.24 C 1812.13 1655.07 1790.39 1740.8 1792.0 1792.0 C 1793.61 1843.2 1776.11 1916.38 1827.31 1893.25 C 1878.51 1870.11 1878.51 1972.51 1827.31 1944.45 C 1776.11 1916.38 1801.61 1996.8 1792.0 2048.0 C 1782.39 2099.2 1776.34 2171.2 1827.54 2148.93 C 1878.74 2126.66 1878.74 2229.06 1827.54 2200.13 C 1776.34 2171.2 1784.48 2252.8 1792.0 2304.0 C 1799.52 2355.2 1765.23 2427.88 1816.43 2400.3 C 1867.63 2372.71 1867.63 2475.11 1816.43 2451.5 C 1765.23 2427.88 1800.41 2508.8 1792.0 2560.0 C 1783.59 2611.2 1825.26 2702.34 1774.06 2670.74 C 1722.86 2639.15 1722.86 2741.55 1774.06 2721.94 C 1825.26 2702.34 1784.28 2764.8 1792.0 2816.0 C 1799.72 2867.2 1824.08 2961.15 1772.88 2928.29 C 1721.68 2895.43 1721.68 2997.83 1772.88 2979.49 C 1824.08 2961.15 1796.33 3020.8 1792.0 3072.0" class="vertical" stroke="black" fill="none" stroke-width="1"/>
  <path d="M 2048.0,0.0 C 2043.34 51.2 2025.1 111.76 2076.3 93.83 C 2127.5 75.9 2127.5 178.3 2076.3 145.03 C 2025.1 111.76 2047.19 204.8 2048.0 256.0 C 2048.81 307.2 2023.58 389.7 2074.78 364.37 C 2125.98 339.04 2125.98 441.44 2074.78 415.57 C 2023.58 389.7 2050.07 460.8 2048.0 512.0 C 2045.93 563.2 2017.97 645.04 2069.17 614.35 C 2120.37 583.65 2120.37 686.05 2069.17 665.55 C 2017.97 645.04 2042.35 716.8 2048.0 768.0 C 2053.65 819.2 2078.97 914.09 2027.77 878.86 C 1976.57 843.63 1976.57 946.03 2027.77 930.06 C 2078.97 914.09 2056.39 972.8 2048.0 1024.0 C 2039.61 1075.2 2019.73 1153.62 2070.93 1135.81 C 2122.13 1118.0 2122.13 1220.4 2070.93 1187.01 C 2019.73 1153.62 2054.13 1228.8 2048.0 1280.0 C 2041.87 1331.2 2075.06 1408.06 2023.86 1386.54 C 1972.66 1365.01 1972.66 1467.41 2023.86 1437.74 C 2075.06 1408.06 2042.68 1484.8 2048.0 1536.0 C 2053.32 1587.2 2029.85 1671.99 2081.05 1642.91 C 2132.25 1613.84 2132.25 1716.24 2081.05 1694.11 C 2029.85 1671.99 2050.64 1740.8 2048.0 1792.0 C 2045.36 1843.2 2024.84 1921.99 2076.04 1890.65 C 2127.24 1859.3 2127.24 1961.7 2076.04 1941.85 C 2024.84 1921.99 2050.16 1996.8 2048.0 2048.0 C 2045.84 2099.2 2073.72 2186.05 2022.52 2151.02 C 1971.32 2116.0 1971.32 2218.4 2022.52 2202.22 C 2073.72 2186.05 2044.59 2252.8 2048.0 2304.0 C 2051.41 2355.2 2069.52 2440.75 2018.32 2406.63 C 1967.12 2372.51 1967.12 2474.91 2018.32 2457.83 C 2069.52 2440.75 2050.96 2508.8 2048.0 2560.0 C 2045.04 2611.2 2019.06 2675.5 2070.26 2655.03 C 2121.46 2634.56 2121.46 2736.96 2070.26 2706.23 C 2019.06 2675.5 2054.07 2764.8 2048.0 2816.0 C 2041.93 2867.2 2075.74 2939.92 2024.54 2913.76 C 1973.34 2887.59 1973.34 2989.99 2024.54 2964.96 C 2075.74 2939.92 2051.55 3020.8 2048.0 3072.0" class="vertical" stroke="black" fill="none" stroke-width="1"/>
  <path d="M 2304.0,0.0 C 2294.26 51.2 2331.04 129.87 2279.84 108.68 C 2228.64 87.5 2228.64 189.9 2279.84 159.88 C 2331.04 129.87 2300.18 204.8 2304.0 256.0 C 2307.82 307.2 2324.63 385.61 2273.43 361.76 C 2222.23 337.91 2222.23 440.31 2273.43 412.96 C 2324.63 385.61 2304.34 460.8 2304.0 512.0 C 2303.66 563.2 2339.49 645.79 2288.29 612.1 C 2237.09 578.42 2237.09 680.82 2288.29 663.3 C 2339.49 645.79 2309.35 716.8 2304.0 768.0 C 2298.65 819.2 2334.45 891.42 2283.25 861.65 C 2232.05 831.88 2232.05 934.28 2283.25 912.85 C 2334.45 891.42 2299.98 972.8 2304.0 1024.0 C 2308.02 1075.2 2268.67 1150.71 2319.87 1120.79 C 2371.07 1090.88 2371.07 1193.28 2319.87 1171.99 C 2268.67 1150.71 2301.62 1228.8 2304.0 1280.0 C 2306.38 1331.2 2288.23 1398.63 2339.43 1382.18 C 2390.63 1365.73 2390.63 1468.13 2339.43 1433.38 C 2288.23 1398.63 2305.88 1484.8 2304.0 1536.0 C 2302.12 1587.2 2276.96 1646.35 2328.16 1629.96 C 2379.36 1613.56 2379.36 1715.96 2328.16 1681.16 C 2276.96 1646.35 2303.87 1740.8 2304.0 1792.0 C 2304.13 1843.2 2277.87 1914.34 2329.07 1892.12 C 2380.27 1869.9 2380.27 1972.3 2329.07 1943.32 C 2277.87 1914.34 2312.5 1996.8 2304.0 2048.0 C 2295.5 2099.2 2329.77 2179.94 2278.57 2155.55 C 2227.37 2131.16 2227.37 2233.56 2278.57 2206.75 C 2329.77 2179.94 2300.68 2252.8 2304.0 2304.0 C 2307.32 2355.2 2324.16 2423.78 2272.96 2397.01 C 2221.76 2370.25 2221.76 2472.65 2272.96 2448.21 C 2324.16 2423.78 2310.3 2508.8 2304.0 2560.0 C 2297.7 2611.2 2334.88 2685.71 2283.68 2669.72 C 2232.48 2653.73 2232.48 2756.13 2283.68 2720.92 C 2334.88 2685.71 2302.05 2764.8 2304.0 2816.0 C 2305.95 2867.2 2325.25 2939.63 2274.05 2912.28 C 2222.85 2884.92 2222.85 2987.32 2274.05 2963.48 C 2325.25 2939.63 2307.89 3020.8 2304.0 3072.0" class="vertical" stroke="black" fill="none" stroke-width="1"/>
  <path d="M 2560.0,0.0 C 2550.09 51.2 2530.33 132.6 2581.53 101.93 C 2632.73 71.26 2632.73 173.66 2581.53 153.13 C 2530.33 132.6 2553.32 204.8 2560.0 256.0 C 2566.68 307.2 2577.21 382.95 2526.01 353.39 C 2474.81 323.83 2474.81 426.23 2526.01 404.59 C 2577.21 382.95 2566.81 460.8 2560.0 512.0 C 2553.19 563.2 2542.42 645.19 2593.62 614.35 C 2644.82 583.52 2644.82 685.92 2593.62 665.55 C 2542.42 645.19 2567.02 716.8 2560.0 768.0 C 2552.98 819.2 2529.64 897.68 2580.84 865.76 C 2632.04 833.83 2632.04 936.23 2580.84 916.96 C 2529.64 897.68 2563.83 972.8 2560.0 1024.0 C 2556.17 1075.2 2540.4 1145.45 2591.6 1124.55 C 2642.8 1103.65 2642.8 1206.05 2591.6 1175.75 C 2540.4 1145.45 2561.67 1228.8 2560.0 1280.0 C 2558.33 1331.2 2535.15 1399.61 2586.35 1378.7 C 2637.55 1357.78 2637.55 1460.18 2586.35 1429.9 C 2535.15 1399.61 2551.93 1484.8 2560.0 1536.0 C 2568.07 1587.2 2589.27 1660.23 2538.07 1634.54 C 2486.87 1608.85 2486.87 1711.25 2538.07 1685.74 C 2589.27 1660.23 2565.43 1740.8 2560.0 1792.0 C 2554.57 1843.2 2584.36 1910.01 2533.16 1890.75 C 2481.96 1871.49 2481.96 1973.89 2533.16 1941.95 C 2584.36 1910.01 2558.66 1996.8 2560.0 2048.0 C 2561.34 2099.2 2575.69 2178.2 2524.49 2157.21 C 2473.29 2136.21 2473.29 2238.61 2524.49 2208.41 C 2575.69 2178.2 2554.79 2252.8 2560.0 2304.0 C 2565.21 2355.2 2530.47 2437.73 2581.67 2402.65 C 2632.87 2367.57 2632.87 2469.97 2581.67 2453.85 C 2530.47 2437.73 2555.45 2508.8 2560.0 2560.0 C 2564.55 2611.2 2589.86 2680.49 2538.66 2654.09 C 2487.46 2627.7 2487.46 2730.1 2538.66 2705.29 C 2589.86 2680.49 2550.17 2764.8 2560.0 2816.0 C 2569.83 2867.2 2533.09 2950.93 2584.29 2916.62 C 2635.49 2882.31 2635.49 2984.71 2584.29 2967.82 C 2533.09 2950.93 2569.99 3020.8 2560.0 3072.0" class="vertical" stroke="black" fill="none" stroke-width="1"/>
  <path d="M 2816.0,0.0 C 2807.06 51.2 2800.57 120.86 2851.77 92.51 C 2902.97 64.17 2902.97 166.57 2851.77 143.71 C 2800.57 120.86 2825.85 204.8 2816.0 256.0 C 2806.15 307.2 2841.84 376.69 2790.64 360.65 C 2739.44 344.6 2739.44 447.0 2790.64 411.85 C 2841.84 376.69 2820.61 460.8 2816.0 512.0 C 2811.39 563.2 2848.33 646.98 2797.13 624.34 C 2745.93 601.7 2745.93 704.1 2797.13 675.54 C 2848.33 646.98 2817.82 716.8 2816.0 768.0 C 2814.18 819.2 2785.68 909.3 2836.88 880.0 C 2888.08 850.71 2888.08 953.11 2836.88 931.2 C 2785.68 909.3 2823.45 972.8 2816.0 1024.0 C 2808.55 1075.2 2850.77 1171.17 2799.57 1135.59 C 2748.37 1100.0 2748.37 1202.4 2799.57 1186.79 C 2850.77 1171.17 2816.32 1228.8 2816.0 1280.0 C 2815.68 1331.2 2834.41 1416.51 2783.21 1389.53 C 2732.01 1362.55 2732.01 1464.95 2783.21 1440.73 C 2834.41 1416.51 2823.26 1484.8 2816.0 1536.0 C 2808.74 1587.2 2798.88 1659.45 2850.08 1633.34 C 2901.28 1607.23 2901.28 1709.63 2850.08 1684.54 C 2798.88 1659.45 2805.87 1740.8 2816.0 1792.0 C 2826.13 1843.2 2789.65 1928.09 2840.85 1897.95 C 2892.05 1867.81 2892.05 1970.21 2840.85 1949.15 C 2789.65 1928.09 2823.21 1996.8 2816.0 2048.0 C 2808.79 2099.2 2848.64 2169.72 2797.44 2152.79 C 2746.24 2135.86 2746.24 2238.26 2797.44 2203.99 C 2848.64 2169.72 2822.01 2252.8 2816.0 2304.0 C 2809.99 2355.2 2832.64 2427.59 2781.44 2400.94 C 2730.24 2374.3 2730.24 2476.7 2781.44 2452.14 C 2832.64 2427.59 2817.97 2508.8 2816.0 2560.0 C 2814.03 2611.2 2833.34 2685.44 2782.14 2652.24 C 2730.94 2619.04 2730.94 2721.44 2782.14 2703.44 C 2833.34 2685.44 2816.99 2764.8 2816.0 2816.0 C 2815.01 2867.2 2784.49 2941.55 2835.69 2909.46 C 2886.89 2877.37 2886.89 2979.77 2835.69 2960.66 C 2784.49 2941.55 2817.94 3020.8 2816.0 3072.0" class="vertical" stroke="black" fill="none" stroke-width="1"/>
  <path d="M 2.0 0.0 L 3070.0 0.0 A 2.0 2.0 0 0 1 3072.0 2.0 L 3072.0 3070.0 A 2.0 2.0 0 0 1 3070.0 3072.0 L 2.0 3072.0 A 2.0 2.0 0 0 1 0.0 3070.0 L 0.0 2.0 A 2.0 2.0 0 0 1 2.0 0.0 " class="border" stroke="black" fill="none" stroke-width="1"/>
</svg>
