<svg xmlns="http://www.w3.org/2000/svg" version="1.0" width="2048mm" height="2048mm" viewBox="0 0 2048 2048"><path fill="none" stroke="Black" stroke-width="0.01"  class="horizontal" d="M 0.0,170.67 C 34.13 158.3 67.23 167.18 61.53 201.31 C 55.82 235.45 124.09 235.45 95.66 201.31 C 67.23 167.18 136.53 181.15 170.67 170.67 C 204.8 160.18 256.07 203.79 250.26 169.65 C 244.45 135.52 312.71 135.52 284.39 169.65 C 256.07 203.79 307.2 158.46 341.33 170.67 C 375.47 182.88 420.07 174.36 399.13 140.23 C 378.19 106.1 446.46 106.1 433.26 140.23 C 420.07 174.36 477.87 170.1 512.0 170.67 C 546.13 171.24 593.65 170.06 571.02 204.19 C 548.39 238.33 616.65 238.33 605.15 204.19 C 593.65 170.06 648.53 172.96 682.67 170.67 C 716.8 168.37 758.38 169.07 748.76 203.21 C 739.13 237.34 807.4 237.34 782.89 203.21 C 758.38 169.07 819.2 163.26 853.33 170.67 C 887.47 178.07 944.51 185.89 925.61 151.76 C 906.72 117.63 974.99 117.63 959.75 151.76 C 944.51 185.89 989.87 180.7 1024.0 170.67 C 1058.13 160.63 1090.19 187.59 1081.09 153.46 C 1071.98 119.32 1140.25 119.32 1115.22 153.46 C 1090.19 187.59 1160.53 163.7 1194.67 170.67 C 1228.8 177.63 1266.96 167.46 1265.54 201.59 C 1264.13 235.72 1332.39 235.72 1299.68 201.59 C 1266.96 167.46 1331.2 163.58 1365.33 170.67 C 1399.47 177.75 1446.13 151.21 1444.52 185.34 C 1442.91 219.47 1511.18 219.47 1478.65 185.34 C 1446.13 151.21 1501.87 165.49 1536.0 170.67 C 1570.13 175.85 1620.59 178.93 1612.99 144.79 C 1605.39 110.66 1673.65 110.66 1647.12 144.79 C 1620.59 178.93 1672.53 186.83 1706.67 170.67 C 1740.8 154.5 1777.17 180.04 1771.52 145.9 C 1765.87 111.77 1834.14 111.77 1805.65 145.9 C 1777.17 180.04 1843.2 181.69 1877.33 170.67 C 1911.47 159.64 1966.01 202.1 1941.89 167.97 C 1917.76 133.84 1986.03 133.84 1976.02 167.97 C 1966.01 202.1 2013.87 173.8 2048.0 170.67 M 0.0,341.33 C 34.13 347.74 75.55 341.77 70.2 307.64 C 64.84 273.5 133.11 273.5 104.33 307.64 C 75.55 341.77 136.53 335.69 170.67 341.33 C 204.8 346.98 264.36 370.03 244.01 335.9 C 223.66 301.77 291.93 301.77 278.14 335.9 C 264.36 370.03 307.2 354.16 341.33 341.33 C 375.47 328.5 417.52 335.4 396.99 369.53 C 376.45 403.66 444.72 403.66 431.12 369.53 C 417.52 335.4 477.87 346.03 512.0 341.33 C 546.13 336.63 578.33 313.54 566.33 347.68 C 554.33 381.81 622.59 381.81 600.46 347.68 C 578.33 313.54 648.53 350.43 682.67 341.33 C 716.8 332.23 771.41 309.97 746.12 344.11 C 720.82 378.24 789.09 378.24 780.25 344.11 C 771.41 309.97 819.2 340.93 853.33 341.33 C 887.47 341.73 950.82 323.73 929.27 357.86 C 907.71 391.99 975.98 391.99 963.4 357.86 C 950.82 323.73 989.87 328.01 1024.0 341.33 C 1058.13 354.66 1124.18 331.52 1108.06 365.66 C 1091.94 399.79 1160.21 399.79 1142.2 365.66 C 1124.18 331.52 1160.53 346.14 1194.67 341.33 C 1228.8 336.53 1263.91 346.86 1259.04 312.73 C 1254.18 278.59 1322.45 278.59 1293.18 312.73 C 1263.91 346.86 1331.2 351.4 1365.33 341.33 C 1399.47 331.27 1466.87 345.45 1439.09 311.31 C 1411.31 277.18 1479.58 277.18 1473.22 311.31 C 1466.87 345.45 1501.87 341.35 1536.0 341.33 C 1570.13 341.32 1635.64 320.14 1615.14 354.27 C 1594.63 388.4 1662.9 388.4 1649.27 354.27 C 1635.64 320.14 1672.53 345.97 1706.67 341.33 C 1740.8 336.7 1804.63 360.1 1785.18 325.96 C 1765.74 291.83 1834.01 291.83 1819.32 325.96 C 1804.63 360.1 1843.2 344.1 1877.33 341.33 C 1911.47 338.57 1943.47 335.34 1935.75 369.48 C 1928.04 403.61 1996.3 403.61 1969.89 369.48 C 1943.47 335.34 2013.87 325.68 2048.0 341.33 M 0.0,512.0 C 34.13 522.01 68.3 481.02 57.22 515.15 C 46.13 549.28 114.4 549.28 91.35 515.15 C 68.3 481.02 136.53 507.39 170.67 512.0 C 204.8 516.61 250.4 481.43 249.96 515.56 C 249.53 549.69 317.79 549.69 284.09 515.56 C 250.4 481.43 307.2 504.59 341.33 512.0 C 375.47 519.41 439.73 525.19 418.59 491.06 C 397.44 456.92 465.71 456.92 452.72 491.06 C 439.73 525.19 477.87 511.25 512.0 512.0 C 546.13 512.75 586.02 501.31 568.75 535.44 C 551.49 569.58 619.75 569.58 602.89 535.44 C 586.02 501.31 648.53 504.65 682.67 512.0 C 716.8 519.35 785.69 497.89 761.85 532.02 C 738.02 566.15 806.29 566.15 795.99 532.02 C 785.69 497.89 819.2 521.55 853.33 512.0 C 887.47 502.45 926.64 497.19 917.23 531.32 C 907.82 565.46 976.09 565.46 951.37 531.32 C 926.64 497.19 989.87 501.19 1024.0 512.0 C 1058.13 522.81 1109.92 493.13 1091.41 527.26 C 1072.91 561.39 1141.18 561.39 1125.55 527.26 C 1109.92 493.13 1160.53 525.23 1194.67 512.0 C 1228.8 498.77 1259.91 512.82 1258.64 478.69 C 1257.36 444.56 1325.63 444.56 1292.77 478.69 C 1259.91 512.82 1331.2 521.8 1365.33 512.0 C 1399.47 502.2 1446.48 483.16 1434.69 517.29 C 1422.9 551.43 1491.17 551.43 1468.83 517.29 C 1446.48 483.16 1501.87 525.48 1536.0 512.0 C 1570.13 498.52 1613.14 491.2 1606.49 525.33 C 1599.84 559.46 1668.1 559.46 1640.62 525.33 C 1613.14 491.2 1672.53 516.3 1706.67 512.0 C 1740.8 507.7 1774.62 502.02 1769.14 536.16 C 1763.66 570.29 1831.92 570.29 1803.27 536.16 C 1774.62 502.02 1843.2 517.82 1877.33 512.0 C 1911.47 506.18 1940.94 526.22 1938.14 492.08 C 1935.34 457.95 2003.61 457.95 1972.27 492.08 C 1940.94 526.22 2013.87 495.81 2048.0 512.0 M 0.0,682.67 C 34.13 689.88 81.84 678.35 73.78 712.48 C 65.72 746.61 133.99 746.61 107.91 712.48 C 81.84 678.35 136.53 697.27 170.67 682.67 C 204.8 668.06 254.38 660.88 252.17 695.02 C 249.97 729.15 318.23 729.15 286.3 695.02 C 254.38 660.88 307.2 693.1 341.33 682.67 C 375.47 672.24 424.95 678.67 393.88 712.8 C 362.81 746.93 431.07 746.93 428.01 712.8 C 424.95 678.67 477.87 669.47 512.0 682.67 C 546.13 695.86 618.94 707.57 591.33 673.43 C 563.71 639.3 631.98 639.3 625.46 673.43 C 618.94 707.57 648.53 684.18 682.67 682.67 C 716.8 681.16 742.29 686.87 734.17 652.74 C 726.05 618.61 794.32 618.61 768.3 652.74 C 742.29 686.87 819.2 668.85 853.33 682.67 C 887.47 696.48 933.7 705.54 913.61 671.41 C 893.52 637.28 961.79 637.28 947.74 671.41 C 933.7 705.54 989.87 674.68 1024.0 682.67 C 1058.13 690.65 1123.18 655.46 1096.73 689.6 C 1070.29 723.73 1138.55 723.73 1130.87 689.6 C 1123.18 655.46 1160.53 686.62 1194.67 682.67 C 1228.8 678.71 1267.67 692.11 1247.08 657.98 C 1226.49 623.84 1294.76 623.84 1281.21 657.98 C 1267.67 692.11 1331.2 679.9 1365.33 682.67 C 1399.47 685.43 1447.89 705.86 1431.0 671.73 C 1414.12 637.59 1482.38 637.59 1465.14 671.73 C 1447.89 705.86 1501.87 678.04 1536.0 682.67 C 1570.13 687.29 1598.06 675.14 1590.63 709.28 C 1583.21 743.41 1651.48 743.41 1624.77 709.28 C 1598.06 675.14 1672.53 670.92 1706.67 682.67 C 1740.8 694.41 1789.1 677.86 1771.16 711.99 C 1753.22 746.13 1821.49 746.13 1805.29 711.99 C 1789.1 677.86 1843.2 678.17 1877.33 682.67 C 1911.47 687.17 1952.46 686.62 1936.25 652.49 C 1920.05 618.36 1988.31 618.36 1970.39 652.49 C 1952.46 686.62 2013.87 683.62 2048.0 682.67 M 0.0,853.33 C 34.13 843.89 88.23 822.97 77.47 857.11 C 66.71 891.24 134.98 891.24 111.61 857.11 C 88.23 822.97 136.53 857.72 170.67 853.33 C 204.8 848.95 228.51 828.13 224.6 862.26 C 220.69 896.4 288.96 896.4 258.74 862.26 C 228.51 828.13 307.2 861.17 341.33 853.33 C 375.47 845.5 432.31 839.25 411.08 873.38 C 389.85 907.51 458.12 907.51 445.21 873.38 C 432.31 839.25 477.87 848.28 512.0 853.33 C 546.13 858.39 590.09 885.16 567.74 851.03 C 545.39 816.9 613.66 816.9 601.87 851.03 C 590.09 885.16 648.53 841.96 682.67 853.33 C 716.8 864.71 760.74 863.65 739.93 829.51 C 719.12 795.38 787.39 795.38 774.06 829.51 C 760.74 863.65 819.2 854.64 853.33 853.33 C 887.47 852.02 942.26 846.45 911.02 880.58 C 879.78 914.72 948.05 914.72 945.15 880.58 C 942.26 846.45 989.87 847.18 1024.0 853.33 C 1058.13 859.49 1112.6 882.3 1095.65 848.17 C 1078.7 814.03 1146.96 814.03 1129.78 848.17 C 1112.6 882.3 1160.53 838.05 1194.67 853.33 C 1228.8 868.61 1288.15 853.72 1262.53 819.59 C 1236.9 785.46 1305.17 785.46 1296.66 819.59 C 1288.15 853.72 1331.2 860.55 1365.33 853.33 C 1399.47 846.12 1460.61 847.76 1438.74 881.89 C 1416.86 916.02 1485.13 916.02 1472.87 881.89 C 1460.61 847.76 1501.87 861.5 1536.0 853.33 C 1570.13 845.16 1604.81 878.34 1593.44 844.21 C 1582.07 810.07 1650.34 810.07 1627.58 844.21 C 1604.81 878.34 1672.53 868.8 1706.67 853.33 C 1740.8 837.87 1804.07 860.33 1787.23 826.2 C 1770.4 792.06 1838.67 792.06 1821.37 826.2 C 1804.07 860.33 1843.2 848.2 1877.33 853.33 C 1911.47 858.46 1934.23 839.19 1934.17 873.32 C 1934.11 907.45 2002.38 907.45 1968.3 873.32 C 1934.23 839.19 2013.87 860.04 2048.0 853.33 M 0.0,1024.0 C 34.13 1014.83 104.14 1025.51 74.66 991.38 C 45.19 957.25 113.45 957.25 108.79 991.38 C 104.14 1025.51 136.53 1013.91 170.67 1024.0 C 204.8 1034.09 253.15 996.87 236.02 1031.0 C 218.89 1065.13 287.16 1065.13 270.16 1031.0 C 253.15 996.87 307.2 1040.69 341.33 1024.0 C 375.47 1007.31 439.72 992.54 406.58 1026.67 C 373.44 1060.8 441.7 1060.8 440.71 1026.67 C 439.72 992.54 477.87 1013.16 512.0 1024.0 C 546.13 1034.84 595.21 995.92 589.86 1030.05 C 584.5 1064.19 652.77 1064.19 623.99 1030.05 C 595.21 995.92 648.53 1007.89 682.67 1024.0 C 716.8 1040.11 774.66 1040.43 754.09 1006.29 C 733.51 972.16 801.78 972.16 788.22 1006.29 C 774.66 1040.43 819.2 1036.87 853.33 1024.0 C 887.47 1011.13 921.6 1055.6 919.2 1021.47 C 916.8 987.33 985.07 987.33 953.34 1021.47 C 921.6 1055.6 989.87 1024.77 1024.0 1024.0 C 1058.13 1023.23 1132.49 1012.89 1107.95 1047.03 C 1083.4 1081.16 1151.67 1081.16 1142.08 1047.03 C 1132.49 1012.89 1160.53 1017.8 1194.67 1024.0 C 1228.8 1030.2 1281.44 1022.93 1278.49 1057.06 C 1275.55 1091.19 1343.81 1091.19 1312.63 1057.06 C 1281.44 1022.93 1331.2 1017.13 1365.33 1024.0 C 1399.47 1030.87 1428.2 997.86 1418.73 1031.99 C 1409.27 1066.13 1477.53 1066.13 1452.87 1031.99 C 1428.2 997.86 1501.87 1012.12 1536.0 1024.0 C 1570.13 1035.88 1640.64 1047.58 1607.03 1013.44 C 1573.43 979.31 1641.7 979.31 1641.17 1013.44 C 1640.64 1047.58 1672.53 1015.73 1706.67 1024.0 C 1740.8 1032.27 1783.67 1045.21 1761.24 1011.08 C 1738.8 976.94 1807.07 976.94 1795.37 1011.08 C 1783.67 1045.21 1843.2 1038.02 1877.33 1024.0 C 1911.47 1009.98 1970.71 996.52 1950.69 1030.65 C 1930.68 1064.79 1998.94 1064.79 1984.83 1030.65 C 1970.71 996.52 2013.87 1021.89 2048.0 1024.0 M 0.0,1194.67 C 34.13 1190.54 92.17 1192.37 78.93 1226.51 C 65.69 1260.64 133.96 1260.64 113.06 1226.51 C 92.17 1192.37 136.53 1210.63 170.67 1194.67 C 204.8 1178.7 239.65 1162.58 238.34 1196.72 C 237.04 1230.85 305.3 1230.85 272.48 1196.72 C 239.65 1162.58 307.2 1183.27 341.33 1194.67 C 375.47 1206.07 402.52 1161.04 398.3 1195.17 C 394.07 1229.31 462.34 1229.31 432.43 1195.17 C 402.52 1161.04 477.87 1183.98 512.0 1194.67 C 546.13 1205.35 608.18 1164.39 584.37 1198.52 C 560.56 1232.65 628.83 1232.65 618.51 1198.52 C 608.18 1164.39 648.53 1204.18 682.67 1194.67 C 716.8 1185.15 767.77 1182.59 758.24 1216.73 C 748.71 1250.86 816.98 1250.86 792.38 1216.73 C 767.77 1182.59 819.2 1189.04 853.33 1194.67 C 887.47 1200.3 949.19 1161.65 928.68 1195.78 C 908.17 1229.92 976.43 1229.92 962.81 1195.78 C 949.19 1161.65 989.87 1179.4 1024.0 1194.67 C 1058.13 1209.93 1111.82 1165.14 1094.51 1199.27 C 1077.21 1233.4 1145.48 1233.4 1128.65 1199.27 C 1111.82 1165.14 1160.53 1201.27 1194.67 1194.67 C 1228.8 1188.07 1294.56 1217.85 1270.69 1183.72 C 1246.83 1149.58 1315.09 1149.58 1304.83 1183.72 C 1294.56 1217.85 1331.2 1193.28 1365.33 1194.67 C 1399.47 1196.05 1461.9 1208.2 1437.46 1174.07 C 1413.03 1139.94 1481.29 1139.94 1471.6 1174.07 C 1461.9 1208.2 1501.87 1194.08 1536.0 1194.67 C 1570.13 1195.25 1642.22 1182.8 1608.22 1216.93 C 1574.21 1251.07 1642.48 1251.07 1642.35 1216.93 C 1642.22 1182.8 1672.53 1194.48 1706.67 1194.67 C 1740.8 1194.86 1782.04 1209.16 1776.85 1175.02 C 1771.66 1140.89 1839.93 1140.89 1810.99 1175.02 C 1782.04 1209.16 1843.2 1191.36 1877.33 1194.67 C 1911.47 1197.97 1958.89 1208.74 1936.11 1174.61 C 1913.32 1140.47 1981.59 1140.47 1970.24 1174.61 C 1958.89 1208.74 2013.87 1204.57 2048.0 1194.67 M 0.0,1365.33 C 34.13 1351.36 107.56 1338.51 81.34 1372.64 C 55.12 1406.77 123.39 1406.77 115.48 1372.64 C 107.56 1338.51 136.53 1379.51 170.67 1365.33 C 204.8 1351.16 245.17 1335.27 234.68 1369.41 C 224.2 1403.54 292.46 1403.54 268.82 1369.41 C 245.17 1335.27 307.2 1371.32 341.33 1365.33 C 375.47 1359.34 424.24 1339.51 414.65 1373.65 C 405.06 1407.78 473.33 1407.78 448.78 1373.65 C 424.24 1339.51 477.87 1369.83 512.0 1365.33 C 546.13 1360.84 608.33 1367.11 579.47 1332.98 C 550.61 1298.85 618.88 1298.85 613.6 1332.98 C 608.33 1367.11 648.53 1350.7 682.67 1365.33 C 716.8 1379.97 783.66 1377.89 763.4 1343.75 C 743.13 1309.62 811.4 1309.62 797.53 1343.75 C 783.66 1377.89 819.2 1376.39 853.33 1365.33 C 887.47 1354.27 955.26 1361.77 923.78 1395.91 C 892.3 1430.04 960.57 1430.04 957.91 1395.91 C 955.26 1361.77 989.87 1379.47 1024.0 1365.33 C 1058.13 1351.2 1138.29 1351.8 1107.86 1385.93 C 1077.43 1420.06 1145.69 1420.06 1141.99 1385.93 C 1138.29 1351.8 1160.53 1379.19 1194.67 1365.33 C 1228.8 1351.48 1261.26 1391.53 1258.56 1357.39 C 1255.85 1323.26 1324.12 1323.26 1292.69 1357.39 C 1261.26 1391.53 1331.2 1371.94 1365.33 1365.33 C 1399.47 1358.73 1435.41 1381.78 1421.11 1347.65 C 1406.81 1313.51 1475.08 1313.51 1455.24 1347.65 C 1435.41 1381.78 1501.87 1367.76 1536.0 1365.33 C 1570.13 1362.91 1613.61 1354.53 1594.48 1388.67 C 1575.36 1422.8 1643.62 1422.8 1628.61 1388.67 C 1613.61 1354.53 1672.53 1356.1 1706.67 1365.33 C 1740.8 1374.56 1802.11 1344.24 1769.82 1378.38 C 1737.52 1412.51 1805.79 1412.51 1803.95 1378.38 C 1802.11 1344.24 1843.2 1351.96 1877.33 1365.33 C 1911.47 1378.7 1951.04 1390.81 1939.94 1356.68 C 1928.84 1322.55 1997.1 1322.55 1974.07 1356.68 C 1951.04 1390.81 2013.87 1373.24 2048.0 1365.33 M 0.0,1536.0 C 34.13 1551.16 82.3 1549.02 53.84 1514.88 C 25.38 1480.75 93.65 1480.75 87.97 1514.88 C 82.3 1549.02 136.53 1528.55 170.67 1536.0 C 204.8 1543.45 265.65 1504.66 251.2 1538.8 C 236.76 1572.93 305.02 1572.93 285.34 1538.8 C 265.65 1504.66 307.2 1540.12 341.33 1536.0 C 375.47 1531.88 420.87 1502.97 399.42 1537.1 C 377.96 1571.24 446.23 1571.24 433.55 1537.1 C 420.87 1502.97 477.87 1528.3 512.0 1536.0 C 546.13 1543.7 572.12 1544.51 567.13 1510.38 C 562.13 1476.25 630.4 1476.25 601.26 1510.38 C 572.12 1544.51 648.53 1530.33 682.67 1536.0 C 716.8 1541.67 789.82 1542.07 758.19 1507.94 C 726.57 1473.81 794.84 1473.81 792.33 1507.94 C 789.82 1542.07 819.2 1541.9 853.33 1536.0 C 887.47 1530.1 942.31 1565.68 924.82 1531.54 C 907.33 1497.41 975.59 1497.41 958.95 1531.54 C 942.31 1565.68 989.87 1525.89 1024.0 1536.0 C 1058.13 1546.11 1087.53 1538.44 1086.73 1504.31 C 1085.93 1470.18 1154.19 1470.18 1120.86 1504.31 C 1087.53 1538.44 1160.53 1518.95 1194.67 1536.0 C 1228.8 1553.05 1287.65 1560.65 1274.29 1526.52 C 1260.94 1492.38 1329.21 1492.38 1308.43 1526.52 C 1287.65 1560.65 1331.2 1551.3 1365.33 1536.0 C 1399.47 1520.7 1455.85 1519.97 1446.5 1554.1 C 1437.15 1588.24 1505.42 1588.24 1480.63 1554.1 C 1455.85 1519.97 1501.87 1547.36 1536.0 1536.0 C 1570.13 1524.64 1636.95 1541.13 1619.62 1507.0 C 1602.29 1472.86 1670.56 1472.86 1653.76 1507.0 C 1636.95 1541.13 1672.53 1549.86 1706.67 1536.0 C 1740.8 1522.14 1764.45 1545.76 1758.17 1511.63 C 1751.88 1477.5 1820.15 1477.5 1792.3 1511.63 C 1764.45 1545.76 1843.2 1519.73 1877.33 1536.0 C 1911.47 1552.27 1959.83 1566.88 1947.86 1532.75 C 1935.89 1498.61 2004.16 1498.61 1981.99 1532.75 C 1959.83 1566.88 2013.87 1545.52 2048.0 1536.0 M 0.0,1706.67 C 34.13 1690.07 88.45 1691.28 66.64 1725.41 C 44.82 1759.54 113.09 1759.54 100.77 1725.41 C 88.45 1691.28 136.53 1722.71 170.67 1706.67 C 204.8 1690.63 282.24 1723.43 254.84 1689.29 C 227.44 1655.16 295.7 1655.16 288.97 1689.29 C 282.24 1723.43 307.2 1696.13 341.33 1706.67 C 375.47 1717.2 411.56 1731.4 400.17 1697.27 C 388.78 1663.14 457.04 1663.14 434.3 1697.27 C 411.56 1731.4 477.87 1717.64 512.0 1706.67 C 546.13 1695.69 591.1 1717.39 577.45 1683.26 C 563.79 1649.12 632.06 1649.12 611.58 1683.26 C 591.1 1717.39 648.53 1702.53 682.67 1706.67 C 716.8 1710.8 751.62 1713.06 751.1 1678.93 C 750.58 1644.8 818.85 1644.8 785.24 1678.93 C 751.62 1713.06 819.2 1717.7 853.33 1706.67 C 887.47 1695.63 970.05 1710.3 937.94 1676.17 C 905.84 1642.04 974.11 1642.04 972.08 1676.17 C 970.05 1710.3 989.87 1701.75 1024.0 1706.67 C 1058.13 1711.58 1126.2 1725.42 1098.72 1691.29 C 1071.24 1657.16 1139.51 1657.16 1132.86 1691.29 C 1126.2 1725.42 1160.53 1707.64 1194.67 1706.67 C 1228.8 1705.7 1268.18 1680.91 1265.57 1715.04 C 1262.95 1749.18 1331.22 1749.18 1299.7 1715.04 C 1268.18 1680.91 1331.2 1706.32 1365.33 1706.67 C 1399.47 1707.02 1430.9 1736.52 1422.21 1702.38 C 1413.51 1668.25 1481.78 1668.25 1456.34 1702.38 C 1430.9 1736.52 1501.87 1693.84 1536.0 1706.67 C 1570.13 1719.5 1638.81 1692.29 1616.95 1726.43 C 1595.09 1760.56 1663.35 1760.56 1651.08 1726.43 C 1638.81 1692.29 1672.53 1707.75 1706.67 1706.67 C 1740.8 1705.59 1787.08 1735.14 1776.25 1701.01 C 1765.42 1666.87 1833.69 1666.87 1810.39 1701.01 C 1787.08 1735.14 1843.2 1690.71 1877.33 1706.67 C 1911.47 1722.62 1948.44 1691.36 1935.29 1725.49 C 1922.14 1759.62 1990.4 1759.62 1969.42 1725.49 C 1948.44 1691.36 2013.87 1697.17 2048.0 1706.67 M 0.0,1877.33 C 34.13 1869.38 97.9 1900.98 64.35 1866.85 C 30.81 1832.71 99.07 1832.71 98.49 1866.85 C 97.9 1900.98 136.53 1888.32 170.67 1877.33 C 204.8 1866.35 289.37 1879.49 255.7 1845.35 C 222.03 1811.22 290.3 1811.22 289.83 1845.35 C 289.37 1879.49 307.2 1888.34 341.33 1877.33 C 375.47 1866.33 419.03 1887.17 396.96 1853.04 C 374.9 1818.9 443.17 1818.9 431.1 1853.04 C 419.03 1887.17 477.87 1862.61 512.0 1877.33 C 546.13 1892.06 582.04 1882.64 567.06 1848.5 C 552.09 1814.37 620.36 1814.37 601.2 1848.5 C 582.04 1882.64 648.53 1893.58 682.67 1877.33 C 716.8 1861.09 776.77 1865.15 752.1 1899.29 C 727.44 1933.42 795.71 1933.42 786.24 1899.29 C 776.77 1865.15 819.2 1870.02 853.33 1877.33 C 887.47 1884.65 953.55 1910.36 923.63 1876.23 C 893.71 1842.1 961.98 1842.1 957.77 1876.23 C 953.55 1910.36 989.87 1862.47 1024.0 1877.33 C 1058.13 1892.2 1122.71 1908.73 1103.23 1874.59 C 1083.75 1840.46 1152.01 1840.46 1137.36 1874.59 C 1122.71 1908.73 1160.53 1866.95 1194.67 1877.33 C 1228.8 1887.72 1273.37 1846.47 1262.09 1880.6 C 1250.82 1914.74 1319.09 1914.74 1296.23 1880.6 C 1273.37 1846.47 1331.2 1893.34 1365.33 1877.33 C 1399.47 1861.33 1480.03 1889.76 1447.9 1855.63 C 1415.77 1821.49 1484.04 1821.49 1482.04 1855.63 C 1480.03 1889.76 1501.87 1885.36 1536.0 1877.33 C 1570.13 1869.3 1604.35 1904.59 1599.17 1870.46 C 1593.98 1836.33 1662.25 1836.33 1633.3 1870.46 C 1604.35 1904.59 1672.53 1863.96 1706.67 1877.33 C 1740.8 1890.71 1810.09 1878.91 1786.47 1844.78 C 1762.84 1810.65 1831.11 1810.65 1820.6 1844.78 C 1810.09 1878.91 1843.2 1886.27 1877.33 1877.33 C 1911.47 1868.39 1950.42 1864.4 1937.05 1898.54 C 1923.68 1932.67 1991.95 1932.67 1971.18 1898.54 C 1950.42 1864.4 2013.87 1877.52 2048.0 1877.33 "></path><path fill="none" stroke="Black" stroke-width="0.01"  class="vertical" d="M 170.67,0.0 C 158.98 34.13 178.1 74.36 143.96 69.95 C 109.83 65.55 109.83 133.82 143.96 104.09 C 178.1 74.36 164.47 136.53 170.67 170.67 C 176.87 204.8 162.1 244.41 196.24 236.48 C 230.37 228.55 230.37 296.81 196.24 270.61 C 162.1 244.41 163.06 307.2 170.67 341.33 C 178.28 375.47 141.04 437.05 175.17 416.04 C 209.3 395.03 209.3 463.3 175.17 450.18 C 141.04 437.05 169.65 477.87 170.67 512.0 C 171.69 546.13 185.67 581.14 151.54 566.82 C 117.41 552.49 117.41 620.76 151.54 600.95 C 185.67 581.14 167.8 648.53 170.67 682.67 C 173.53 716.8 158.03 762.33 192.16 737.7 C 226.29 713.08 226.29 781.34 192.16 771.84 C 158.03 762.33 164.41 819.2 170.67 853.33 C 176.92 887.47 139.51 966.71 173.64 936.8 C 207.78 906.9 207.78 975.16 173.64 970.94 C 139.51 966.71 163.75 989.87 170.67 1024.0 C 177.58 1058.13 182.37 1115.25 148.23 1084.64 C 114.1 1054.03 114.1 1122.29 148.23 1118.77 C 182.37 1115.25 186.14 1160.53 170.67 1194.67 C 155.19 1228.8 177.33 1297.49 143.2 1277.85 C 109.07 1258.2 109.07 1326.47 143.2 1311.98 C 177.33 1297.49 164.91 1331.2 170.67 1365.33 C 176.42 1399.47 202.49 1446.47 168.36 1439.76 C 134.23 1433.04 134.23 1501.31 168.36 1473.89 C 202.49 1446.47 156.1 1501.87 170.67 1536.0 C 185.23 1570.13 183.07 1631.99 148.94 1599.17 C 114.81 1566.36 114.81 1634.62 148.94 1633.31 C 183.07 1631.99 165.81 1672.53 170.67 1706.67 C 175.52 1740.8 168.87 1780.74 203.0 1758.85 C 237.13 1736.96 237.13 1805.22 203.0 1792.98 C 168.87 1780.74 161.42 1843.2 170.67 1877.33 C 179.92 1911.47 185.31 1949.33 151.18 1936.03 C 117.04 1922.72 117.04 1990.99 151.18 1970.16 C 185.31 1949.33 171.03 2013.87 170.67 2048.0 M 341.33,0.0 C 332.04 34.13 368.07 78.73 333.94 71.93 C 299.81 65.13 299.81 133.4 333.94 106.07 C 368.07 78.73 337.8 136.53 341.33 170.67 C 344.87 204.8 316.29 260.68 350.42 242.83 C 384.56 224.98 384.56 293.25 350.42 276.96 C 316.29 260.68 357.53 307.2 341.33 341.33 C 325.14 375.47 309.4 428.77 343.53 404.99 C 377.67 381.21 377.67 449.48 343.53 439.12 C 309.4 428.77 342.95 477.87 341.33 512.0 C 339.72 546.13 368.89 599.08 334.76 567.03 C 300.63 534.97 300.63 603.23 334.76 601.16 C 368.89 599.08 345.83 648.53 341.33 682.67 C 336.83 716.8 356.66 781.79 322.53 754.91 C 288.4 728.03 288.4 796.3 322.53 789.05 C 356.66 781.79 324.96 819.2 341.33 853.33 C 357.7 887.47 333.07 949.54 367.2 916.63 C 401.34 883.72 401.34 951.98 367.2 950.76 C 333.07 949.54 352.37 989.87 341.33 1024.0 C 330.3 1058.13 369.99 1130.48 335.85 1104.89 C 301.72 1079.3 301.72 1147.57 335.85 1139.03 C 369.99 1130.48 354.77 1160.53 341.33 1194.67 C 327.89 1228.8 339.39 1255.18 373.53 1254.53 C 407.66 1253.88 407.66 1322.15 373.53 1288.67 C 339.39 1255.18 341.53 1331.2 341.33 1365.33 C 341.14 1399.47 345.49 1433.26 311.36 1424.12 C 277.22 1414.98 277.22 1483.24 311.36 1458.25 C 345.49 1433.26 345.85 1501.87 341.33 1536.0 C 336.81 1570.13 310.01 1595.14 344.14 1589.32 C 378.28 1583.5 378.28 1651.77 344.14 1623.46 C 310.01 1595.14 353.44 1672.53 341.33 1706.67 C 329.23 1740.8 371.5 1809.99 337.36 1781.63 C 303.23 1753.27 303.23 1821.54 337.36 1815.76 C 371.5 1809.99 330.85 1843.2 341.33 1877.33 C 351.82 1911.47 351.96 1944.49 317.82 1937.52 C 283.69 1930.56 283.69 1998.82 317.82 1971.65 C 351.96 1944.49 327.5 2013.87 341.33 2048.0 M 512.0,0.0 C 499.09 34.13 523.73 89.91 489.6 60.65 C 455.46 31.39 455.46 99.66 489.6 94.78 C 523.73 89.91 501.2 136.53 512.0 170.67 C 522.8 204.8 539.95 249.43 505.82 223.45 C 471.68 197.47 471.68 265.73 505.82 257.58 C 539.95 249.43 497.74 307.2 512.0 341.33 C 526.26 375.47 517.74 435.87 483.61 415.39 C 449.47 394.9 449.47 463.17 483.61 449.52 C 517.74 435.87 526.3 477.87 512.0 512.0 C 497.7 546.13 518.57 584.41 484.44 564.77 C 450.31 545.13 450.31 613.39 484.44 598.9 C 518.57 584.41 518.62 648.53 512.0 682.67 C 505.38 716.8 499.43 762.24 533.56 741.11 C 567.7 719.98 567.7 788.25 533.56 775.24 C 499.43 762.24 524.51 819.2 512.0 853.33 C 499.49 887.47 531.89 943.03 497.76 928.09 C 463.62 913.16 463.62 981.43 497.76 962.23 C 531.89 943.03 510.68 989.87 512.0 1024.0 C 513.32 1058.13 524.24 1123.6 490.11 1105.6 C 455.98 1087.59 455.98 1155.85 490.11 1139.73 C 524.24 1123.6 508.48 1160.53 512.0 1194.67 C 515.52 1228.8 519.69 1278.67 485.56 1276.21 C 451.42 1273.74 451.42 1342.01 485.56 1310.34 C 519.69 1278.67 508.74 1331.2 512.0 1365.33 C 515.26 1399.47 531.91 1447.92 497.78 1422.89 C 463.64 1397.87 463.64 1466.14 497.78 1457.03 C 531.91 1447.92 527.83 1501.87 512.0 1536.0 C 496.17 1570.13 493.77 1610.13 527.9 1599.75 C 562.03 1589.37 562.03 1657.63 527.9 1633.88 C 493.77 1610.13 516.58 1672.53 512.0 1706.67 C 507.42 1740.8 516.59 1788.21 482.46 1762.99 C 448.33 1737.76 448.33 1806.02 482.46 1797.12 C 516.59 1788.21 512.7 1843.2 512.0 1877.33 C 511.3 1911.47 519.46 1973.77 485.33 1943.44 C 451.19 1913.11 451.19 1981.38 485.33 1977.58 C 519.46 1973.77 522.39 2013.87 512.0 2048.0 M 682.67,0.0 C 666.95 34.13 670.48 104.01 704.62 74.02 C 738.75 44.04 738.75 112.3 704.62 108.16 C 670.48 104.01 672.62 136.53 682.67 170.67 C 692.71 204.8 674.02 267.3 708.15 236.33 C 742.29 205.36 742.29 273.63 708.15 270.47 C 674.02 267.3 672.4 307.2 682.67 341.33 C 692.93 375.47 715.33 411.47 681.2 400.8 C 647.06 390.13 647.06 458.39 681.2 434.93 C 715.33 411.47 679.78 477.87 682.67 512.0 C 685.56 546.13 666.42 616.04 700.55 583.89 C 734.69 551.75 734.69 620.02 700.55 618.03 C 666.42 616.04 672.62 648.53 682.67 682.67 C 692.71 716.8 648.75 756.37 682.88 749.99 C 717.02 743.61 717.02 811.88 682.88 784.13 C 648.75 756.37 668.99 819.2 682.67 853.33 C 696.34 887.47 662.42 933.93 696.56 930.99 C 730.69 928.04 730.69 996.31 696.56 965.12 C 662.42 933.93 692.13 989.87 682.67 1024.0 C 673.2 1058.13 674.63 1093.18 708.76 1085.04 C 742.9 1076.91 742.9 1145.17 708.76 1119.18 C 674.63 1093.18 698.45 1160.53 682.67 1194.67 C 666.89 1228.8 685.27 1302.45 651.13 1269.53 C 617.0 1236.62 617.0 1304.89 651.13 1303.67 C 685.27 1302.45 667.49 1331.2 682.67 1365.33 C 697.84 1399.47 711.56 1450.98 677.43 1426.13 C 643.29 1401.28 643.29 1469.55 677.43 1460.26 C 711.56 1450.98 676.6 1501.87 682.67 1536.0 C 688.73 1570.13 679.16 1627.01 713.29 1601.09 C 747.42 1575.18 747.42 1643.44 713.29 1635.22 C 679.16 1627.01 695.29 1672.53 682.67 1706.67 C 670.04 1740.8 713.3 1794.6 679.17 1767.17 C 645.03 1739.74 645.03 1808.01 679.17 1801.31 C 713.3 1794.6 696.88 1843.2 682.67 1877.33 C 668.46 1911.47 677.12 1956.42 711.25 1947.02 C 745.38 1937.62 745.38 2005.89 711.25 1981.15 C 677.12 1956.42 676.77 2013.87 682.67 2048.0 M 853.33,0.0 C 848.63 34.13 858.93 88.63 824.8 74.46 C 790.66 60.3 790.66 128.57 824.8 108.6 C 858.93 88.63 864.03 136.53 853.33 170.67 C 842.64 204.8 822.94 243.0 857.07 226.79 C 891.21 210.58 891.21 278.84 857.07 260.92 C 822.94 243.0 853.98 307.2 853.33 341.33 C 852.69 375.47 872.1 447.68 837.96 422.23 C 803.83 396.79 803.83 465.06 837.96 456.37 C 872.1 447.68 852.95 477.87 853.33 512.0 C 853.71 546.13 844.21 609.43 878.35 588.66 C 912.48 567.88 912.48 636.15 878.35 622.79 C 844.21 609.43 845.93 648.53 853.33 682.67 C 860.74 716.8 831.14 765.42 865.27 742.54 C 899.4 719.65 899.4 787.92 865.27 776.67 C 831.14 765.42 842.2 819.2 853.33 853.33 C 864.47 887.47 844.61 928.01 878.75 917.94 C 912.88 907.87 912.88 976.13 878.75 952.07 C 844.61 928.01 838.67 989.87 853.33 1024.0 C 868.0 1058.13 846.27 1134.27 880.4 1100.81 C 914.53 1067.34 914.53 1135.61 880.4 1134.94 C 846.27 1134.27 838.2 1160.53 853.33 1194.67 C 868.47 1228.8 822.04 1280.08 856.17 1278.14 C 890.31 1276.2 890.31 1344.46 856.17 1312.27 C 822.04 1280.08 868.79 1331.2 853.33 1365.33 C 837.87 1399.47 876.91 1437.5 842.78 1422.95 C 808.65 1408.4 808.65 1476.67 842.78 1457.09 C 876.91 1437.5 847.32 1501.87 853.33 1536.0 C 859.35 1570.13 865.31 1623.34 831.18 1606.36 C 797.04 1589.38 797.04 1657.65 831.18 1640.5 C 865.31 1623.34 847.88 1672.53 853.33 1706.67 C 858.79 1740.8 854.02 1777.56 819.89 1764.47 C 785.76 1751.38 785.76 1819.65 819.89 1798.6 C 854.02 1777.56 859.02 1843.2 853.33 1877.33 C 847.65 1911.47 840.85 1972.9 874.98 1960.72 C 909.12 1948.55 909.12 2016.82 874.98 1994.86 C 840.85 1972.9 850.02 2013.87 853.33 2048.0 M 1024.0,0.0 C 1020.8 34.13 1022.65 85.1 1056.78 70.0 C 1090.92 54.9 1090.92 123.17 1056.78 104.14 C 1022.65 85.1 1011.97 136.53 1024.0 170.67 C 1036.03 204.8 1054.94 227.74 1020.81 224.55 C 986.67 221.36 986.67 289.62 1020.81 258.68 C 1054.94 227.74 1038.12 307.2 1024.0 341.33 C 1009.88 375.47 1039.52 394.75 1005.39 393.16 C 971.26 391.57 971.26 459.84 1005.39 427.29 C 1039.52 394.75 1021.24 477.87 1024.0 512.0 C 1026.76 546.13 1041.15 588.93 1007.01 566.04 C 972.88 543.15 972.88 611.41 1007.01 600.17 C 1041.15 588.93 1039.7 648.53 1024.0 682.67 C 1008.3 716.8 1006.45 789.1 1040.58 757.38 C 1074.72 725.66 1074.72 793.92 1040.58 791.51 C 1006.45 789.1 1015.76 819.2 1024.0 853.33 C 1032.24 887.47 1052.74 947.44 1018.61 927.3 C 984.47 907.15 984.47 975.42 1018.61 961.43 C 1052.74 947.44 1038.52 989.87 1024.0 1024.0 C 1009.48 1058.13 1040.48 1130.75 1006.34 1103.68 C 972.21 1076.62 972.21 1144.89 1006.34 1137.82 C 1040.48 1130.75 1024.55 1160.53 1024.0 1194.67 C 1023.45 1228.8 1055.44 1277.39 1021.31 1254.19 C 987.17 1230.99 987.17 1299.26 1021.31 1288.32 C 1055.44 1277.39 1019.29 1331.2 1024.0 1365.33 C 1028.71 1399.47 999.86 1461.44 1034.0 1436.78 C 1068.13 1412.12 1068.13 1480.38 1034.0 1470.91 C 999.86 1461.44 1031.39 1501.87 1024.0 1536.0 C 1016.61 1570.13 1055.53 1616.15 1021.4 1613.97 C 987.27 1611.79 987.27 1680.05 1021.4 1648.1 C 1055.53 1616.15 1015.62 1672.53 1024.0 1706.67 C 1032.38 1740.8 1020.34 1797.36 1054.47 1768.0 C 1088.61 1738.65 1088.61 1806.91 1054.47 1802.13 C 1020.34 1797.36 1021.87 1843.2 1024.0 1877.33 C 1026.13 1911.47 1011.22 1967.18 1045.35 1961.44 C 1079.49 1955.71 1079.49 2023.98 1045.35 1995.58 C 1011.22 1967.18 1032.21 2013.87 1024.0 2048.0 M 1194.67,0.0 C 1183.58 34.13 1191.56 89.43 1225.7 76.87 C 1259.83 64.31 1259.83 132.58 1225.7 111.0 C 1191.56 89.43 1199.95 136.53 1194.67 170.67 C 1189.38 204.8 1201.57 237.61 1167.43 224.62 C 1133.3 211.64 1133.3 279.9 1167.43 258.76 C 1201.57 237.61 1183.61 307.2 1194.67 341.33 C 1205.73 375.47 1164.5 411.71 1198.63 395.01 C 1232.77 378.32 1232.77 446.58 1198.63 429.15 C 1164.5 411.71 1183.93 477.87 1194.67 512.0 C 1205.41 546.13 1204.45 599.08 1170.32 587.88 C 1136.18 576.68 1136.18 644.94 1170.32 622.01 C 1204.45 599.08 1211.32 648.53 1194.67 682.67 C 1178.01 716.8 1170.81 785.46 1204.94 754.84 C 1239.07 724.22 1239.07 792.49 1204.94 788.98 C 1170.81 785.46 1200.26 819.2 1194.67 853.33 C 1189.07 887.47 1189.58 913.62 1223.71 910.74 C 1257.84 907.86 1257.84 976.13 1223.71 944.87 C 1189.58 913.62 1199.29 989.87 1194.67 1024.0 C 1190.04 1058.13 1212.72 1094.97 1178.59 1079.28 C 1144.45 1063.58 1144.45 1131.85 1178.59 1113.41 C 1212.72 1094.97 1202.54 1160.53 1194.67 1194.67 C 1186.79 1228.8 1185.08 1269.92 1219.21 1269.58 C 1253.35 1269.24 1253.35 1337.5 1219.21 1303.71 C 1185.08 1269.92 1189.61 1331.2 1194.67 1365.33 C 1199.72 1399.47 1196.47 1454.07 1162.34 1422.96 C 1128.2 1391.84 1128.2 1460.11 1162.34 1457.09 C 1196.47 1454.07 1200.44 1501.87 1194.67 1536.0 C 1188.89 1570.13 1185.96 1618.45 1220.09 1604.07 C 1254.22 1589.69 1254.22 1657.95 1220.09 1638.2 C 1185.96 1618.45 1210.04 1672.53 1194.67 1706.67 C 1179.29 1740.8 1169.75 1782.16 1203.89 1771.8 C 1238.02 1761.44 1238.02 1829.71 1203.89 1805.93 C 1169.75 1782.16 1192.55 1843.2 1194.67 1877.33 C 1196.79 1911.47 1179.64 1965.33 1213.77 1958.73 C 1247.9 1952.13 1247.9 2020.4 1213.77 1992.86 C 1179.64 1965.33 1181.42 2013.87 1194.67 2048.0 M 1365.33,0.0 C 1374.1 34.13 1352.33 72.77 1386.46 61.29 C 1420.59 49.82 1420.59 118.08 1386.46 95.42 C 1352.33 72.77 1366.71 136.53 1365.33 170.67 C 1363.95 204.8 1333.43 232.72 1367.56 228.8 C 1401.69 224.89 1401.69 293.15 1367.56 262.93 C 1333.43 232.72 1379.44 307.2 1365.33 341.33 C 1351.22 375.47 1345.41 438.39 1379.54 422.29 C 1413.67 406.19 1413.67 474.45 1379.54 456.42 C 1345.41 438.39 1353.36 477.87 1365.33 512.0 C 1377.3 546.13 1375.56 573.53 1341.43 563.85 C 1307.3 554.17 1307.3 622.44 1341.43 597.98 C 1375.56 573.53 1369.64 648.53 1365.33 682.67 C 1361.03 716.8 1383.19 798.31 1349.06 765.44 C 1314.93 732.57 1314.93 800.84 1349.06 799.57 C 1383.19 798.31 1348.47 819.2 1365.33 853.33 C 1382.19 887.47 1390.31 965.44 1356.17 936.21 C 1322.04 906.98 1322.04 975.25 1356.17 970.34 C 1390.31 965.44 1349.99 989.87 1365.33 1024.0 C 1380.68 1058.13 1333.84 1091.31 1367.98 1082.84 C 1402.11 1074.37 1402.11 1142.63 1367.98 1116.97 C 1333.84 1091.31 1376.73 1160.53 1365.33 1194.67 C 1353.94 1228.8 1386.15 1278.98 1352.02 1255.38 C 1317.88 1231.78 1317.88 1300.04 1352.02 1289.51 C 1386.15 1278.98 1381.98 1331.2 1365.33 1365.33 C 1348.68 1399.47 1397.42 1458.7 1363.29 1438.88 C 1329.16 1419.06 1329.16 1487.32 1363.29 1473.01 C 1397.42 1458.7 1348.43 1501.87 1365.33 1536.0 C 1382.23 1570.13 1333.62 1616.13 1367.76 1610.06 C 1401.89 1603.98 1401.89 1672.25 1367.76 1644.19 C 1333.62 1616.13 1355.48 1672.53 1365.33 1706.67 C 1375.18 1740.8 1349.86 1786.31 1384.0 1776.37 C 1418.13 1766.43 1418.13 1834.7 1384.0 1810.51 C 1349.86 1786.31 1355.23 1843.2 1365.33 1877.33 C 1375.44 1911.47 1352.89 1958.6 1387.03 1940.81 C 1421.16 1923.01 1421.16 1991.27 1387.03 1974.94 C 1352.89 1958.6 1354.17 2013.87 1365.33 2048.0 M 1536.0,0.0 C 1527.24 34.13 1556.91 74.32 1522.77 65.4 C 1488.64 56.47 1488.64 124.74 1522.77 99.53 C 1556.91 74.32 1548.4 136.53 1536.0 170.67 C 1523.6 204.8 1554.26 244.08 1520.12 230.27 C 1485.99 216.47 1485.99 284.73 1520.12 264.41 C 1554.26 244.08 1534.79 307.2 1536.0 341.33 C 1537.21 375.47 1502.19 405.62 1536.32 397.26 C 1570.45 388.9 1570.45 457.17 1536.32 431.39 C 1502.19 405.62 1534.34 477.87 1536.0 512.0 C 1537.66 546.13 1563.32 601.36 1529.19 580.56 C 1495.06 559.76 1495.06 628.03 1529.19 614.7 C 1563.32 601.36 1519.32 648.53 1536.0 682.67 C 1552.68 716.8 1536.2 767.35 1502.07 754.32 C 1467.94 741.28 1467.94 809.55 1502.07 788.45 C 1536.2 767.35 1524.49 819.2 1536.0 853.33 C 1547.51 887.47 1516.88 923.06 1551.02 909.05 C 1585.15 895.05 1585.15 963.31 1551.02 943.19 C 1516.88 923.06 1519.73 989.87 1536.0 1024.0 C 1552.27 1058.13 1536.03 1088.65 1501.9 1085.53 C 1467.77 1082.41 1467.77 1150.68 1501.9 1119.66 C 1536.03 1088.65 1551.24 1160.53 1536.0 1194.67 C 1520.76 1228.8 1545.23 1286.81 1511.1 1273.23 C 1476.96 1259.65 1476.96 1327.92 1511.1 1307.36 C 1545.23 1286.81 1541.81 1331.2 1536.0 1365.33 C 1530.19 1399.47 1549.61 1470.72 1515.47 1440.16 C 1481.34 1409.6 1481.34 1477.86 1515.47 1474.29 C 1549.61 1470.72 1536.25 1501.87 1536.0 1536.0 C 1535.75 1570.13 1511.84 1609.83 1545.97 1609.49 C 1580.1 1609.15 1580.1 1677.41 1545.97 1643.62 C 1511.84 1609.83 1546.76 1672.53 1536.0 1706.67 C 1525.24 1740.8 1548.39 1798.36 1514.26 1791.92 C 1480.13 1785.49 1480.13 1853.76 1514.26 1826.06 C 1548.39 1798.36 1536.83 1843.2 1536.0 1877.33 C 1535.17 1911.47 1537.3 1968.73 1503.17 1944.14 C 1469.03 1919.55 1469.03 1987.82 1503.17 1978.27 C 1537.3 1968.73 1543.96 2013.87 1536.0 2048.0 M 1706.67,0.0 C 1714.54 34.13 1677.45 52.24 1711.59 51.44 C 1745.72 50.64 1745.72 118.9 1711.59 85.57 C 1677.45 52.24 1704.64 136.53 1706.67 170.67 C 1708.7 204.8 1724.89 238.14 1690.75 235.28 C 1656.62 232.43 1656.62 300.69 1690.75 269.41 C 1724.89 238.14 1689.68 307.2 1706.67 341.33 C 1723.65 375.47 1687.97 429.75 1722.1 423.31 C 1756.23 416.86 1756.23 485.13 1722.1 457.44 C 1687.97 429.75 1723.09 477.87 1706.67 512.0 C 1690.24 546.13 1694.53 622.88 1728.66 593.06 C 1762.79 563.24 1762.79 631.5 1728.66 627.19 C 1694.53 622.88 1714.0 648.53 1706.67 682.67 C 1699.33 716.8 1724.63 770.86 1690.5 764.95 C 1656.36 759.04 1656.36 827.31 1690.5 799.08 C 1724.63 770.86 1697.52 819.2 1706.67 853.33 C 1715.81 887.47 1738.3 932.03 1704.16 921.99 C 1670.03 911.95 1670.03 980.22 1704.16 956.12 C 1738.3 932.03 1703.6 989.87 1706.67 1024.0 C 1709.73 1058.13 1736.01 1097.42 1701.88 1079.73 C 1667.74 1062.04 1667.74 1130.3 1701.88 1113.86 C 1736.01 1097.42 1716.09 1160.53 1706.67 1194.67 C 1697.24 1228.8 1714.1 1267.56 1679.97 1249.08 C 1645.83 1230.59 1645.83 1298.85 1679.97 1283.21 C 1714.1 1267.56 1704.39 1331.2 1706.67 1365.33 C 1708.94 1399.47 1735.71 1468.35 1701.58 1449.2 C 1667.44 1430.05 1667.44 1498.32 1701.58 1483.33 C 1735.71 1468.35 1723.11 1501.87 1706.67 1536.0 C 1690.22 1570.13 1728.82 1612.87 1694.69 1608.13 C 1660.56 1603.4 1660.56 1671.67 1694.69 1642.27 C 1728.82 1612.87 1692.35 1672.53 1706.67 1706.67 C 1720.98 1740.8 1679.49 1800.74 1713.62 1786.17 C 1747.75 1771.59 1747.75 1839.86 1713.62 1820.3 C 1679.49 1800.74 1712.85 1843.2 1706.67 1877.33 C 1700.48 1911.47 1724.52 1947.69 1690.38 1945.89 C 1656.25 1944.08 1656.25 2012.35 1690.38 1980.02 C 1724.52 1947.69 1699.52 2013.87 1706.67 2048.0 M 1877.33,0.0 C 1883.49 34.13 1887.27 90.82 1853.14 69.53 C 1819.01 48.25 1819.01 116.51 1853.14 103.67 C 1887.27 90.82 1873.76 136.53 1877.33 170.67 C 1880.91 204.8 1852.84 237.34 1886.97 223.87 C 1921.11 210.4 1921.11 278.67 1886.97 258.0 C 1852.84 237.34 1871.09 307.2 1877.33 341.33 C 1883.58 375.47 1855.37 406.39 1889.51 392.81 C 1923.64 379.24 1923.64 447.5 1889.51 426.95 C 1855.37 406.39 1880.03 477.87 1877.33 512.0 C 1874.63 546.13 1867.64 598.75 1901.77 585.43 C 1935.9 572.11 1935.9 640.37 1901.77 619.56 C 1867.64 598.75 1884.2 648.53 1877.33 682.67 C 1870.46 716.8 1875.03 758.29 1909.16 749.01 C 1943.3 739.73 1943.3 808.0 1909.16 783.14 C 1875.03 758.29 1869.44 819.2 1877.33 853.33 C 1885.23 887.47 1847.9 942.52 1882.04 913.49 C 1916.17 884.46 1916.17 952.73 1882.04 947.62 C 1847.9 942.52 1862.68 989.87 1877.33 1024.0 C 1891.99 1058.13 1865.76 1128.54 1899.9 1097.1 C 1934.03 1065.65 1934.03 1133.92 1899.9 1131.23 C 1865.76 1128.54 1866.24 1160.53 1877.33 1194.67 C 1888.43 1228.8 1850.62 1269.03 1884.75 1246.19 C 1918.88 1223.36 1918.88 1291.63 1884.75 1280.33 C 1850.62 1269.03 1872.19 1331.2 1877.33 1365.33 C 1882.48 1399.47 1890.54 1429.02 1856.41 1423.79 C 1822.28 1418.56 1822.28 1486.83 1856.41 1457.92 C 1890.54 1429.02 1871.9 1501.87 1877.33 1536.0 C 1882.76 1570.13 1883.67 1611.31 1849.53 1602.6 C 1815.4 1593.88 1815.4 1662.15 1849.53 1636.73 C 1883.67 1611.31 1872.53 1672.53 1877.33 1706.67 C 1882.14 1740.8 1873.98 1785.42 1908.11 1761.85 C 1942.24 1738.27 1942.24 1806.54 1908.11 1795.98 C 1873.98 1785.42 1866.05 1843.2 1877.33 1877.33 C 1888.62 1911.47 1850.58 1965.56 1884.71 1959.35 C 1918.85 1953.14 1918.85 2021.41 1884.71 1993.48 C 1850.58 1965.56 1886.05 2013.87 1877.33 2048.0 "></path><path fill="none" stroke="Black" stroke-width="0.01" class="border" d="M 2.0 0.0 L 2046.0 0.0 A 2.0 2.0 0 0 1 2048.0 2.0 L 2048.0 2046.0 A 2.0 2.0 0 0 1 2046.0 2048.0 L 2.0 2048.0 A 2.0 2.0 0 0 1 0.0 2046.0 L 0.0 2.0 A 2.0 2.0 0 0 1 2.0 0.0 "></path></svg>