<svg xmlns="http://www.w3.org/2000/svg" version="1.0" width="2048mm" height="2048mm" viewBox="0 0 2048 2048"><path fill="none" stroke="Black" stroke-width="0.01"  class="horizontal" d="M 0.0,136.53 C 27.31 150.0 63.46 125.0 50.14 152.31 C 36.81 179.62 91.42 179.62 77.44 152.31 C 63.46 125.0 109.23 140.22 136.53 136.53 C 163.84 132.85 216.87 142.5 193.58 115.19 C 170.3 87.89 224.91 87.89 220.89 115.19 C 216.87 142.5 245.76 141.12 273.07 136.53 C 300.37 131.95 322.83 151.67 317.61 124.36 C 312.4 97.06 367.01 97.06 344.92 124.36 C 322.83 151.67 382.29 142.06 409.6 136.53 C 436.91 131.01 474.13 129.6 454.02 156.9 C 433.9 184.21 488.52 184.21 481.33 156.9 C 474.13 129.6 518.83 131.8 546.13 136.53 C 573.44 141.27 621.98 152.44 611.29 125.13 C 600.6 97.83 655.22 97.83 638.6 125.13 C 621.98 152.44 655.36 146.89 682.67 136.53 C 709.97 126.17 739.88 151.43 725.81 124.12 C 711.74 96.81 766.36 96.81 753.12 124.12 C 739.88 151.43 791.89 141.54 819.2 136.53 C 846.51 131.52 872.91 130.06 869.84 157.36 C 866.77 184.67 921.38 184.67 897.15 157.36 C 872.91 130.06 928.43 140.13 955.73 136.53 C 983.04 132.94 1006.86 152.26 998.36 124.95 C 989.86 97.64 1044.47 97.64 1025.67 124.95 C 1006.86 152.26 1064.96 125.07 1092.27 136.53 C 1119.57 148.0 1169.26 159.5 1144.45 132.2 C 1119.65 104.89 1174.26 104.89 1171.76 132.2 C 1169.26 159.5 1201.49 125.54 1228.8 136.53 C 1256.11 147.53 1302.74 121.03 1281.98 148.34 C 1261.21 175.64 1315.83 175.64 1309.28 148.34 C 1302.74 121.03 1338.03 149.8 1365.33 136.53 C 1392.64 123.27 1425.41 149.79 1409.4 122.49 C 1393.38 95.18 1448.0 95.18 1436.7 122.49 C 1425.41 149.79 1474.56 124.36 1501.87 136.53 C 1529.17 148.71 1585.72 127.78 1563.5 155.09 C 1541.28 182.4 1595.89 182.4 1590.81 155.09 C 1585.72 127.78 1611.09 130.69 1638.4 136.53 C 1665.71 142.37 1705.01 135.46 1683.47 162.77 C 1661.93 190.07 1716.55 190.07 1710.78 162.77 C 1705.01 135.46 1747.63 129.07 1774.93 136.53 C 1802.24 144.0 1855.34 143.81 1835.79 116.5 C 1816.25 89.2 1870.86 89.2 1863.1 116.5 C 1855.34 143.81 1884.16 141.0 1911.47 136.53 C 1938.77 132.06 2000.04 138.82 1974.55 111.51 C 1949.06 84.21 2003.67 84.21 2001.86 111.51 C 2000.04 138.82 2020.69 141.28 2048.0 136.53 M 0.0,273.07 C 27.31 261.58 72.65 299.26 59.09 271.96 C 45.54 244.65 100.15 244.65 86.4 271.96 C 72.65 299.26 109.23 284.51 136.53 273.07 C 163.84 261.62 209.98 264.36 192.41 291.67 C 174.84 318.98 229.45 318.98 219.71 291.67 C 209.98 264.36 245.76 270.13 273.07 273.07 C 300.37 276.0 338.62 296.12 317.48 268.81 C 296.35 241.5 350.96 241.5 344.79 268.81 C 338.62 296.12 382.29 272.06 409.6 273.07 C 436.91 274.07 483.97 260.07 460.81 287.38 C 437.66 314.69 492.28 314.69 488.12 287.38 C 483.97 260.07 518.83 284.27 546.13 273.07 C 573.44 261.87 606.0 247.84 594.14 275.15 C 582.27 302.46 636.88 302.46 621.44 275.15 C 606.0 247.84 655.36 273.31 682.67 273.07 C 709.97 272.82 767.06 275.47 750.2 248.17 C 733.35 220.86 787.96 220.86 777.51 248.17 C 767.06 275.47 791.89 262.85 819.2 273.07 C 846.51 283.29 875.54 291.61 866.31 264.3 C 857.09 237.0 911.7 237.0 893.62 264.3 C 875.54 291.61 928.43 283.5 955.73 273.07 C 983.04 262.63 1030.7 255.22 1009.84 282.53 C 988.97 309.84 1043.59 309.84 1037.14 282.53 C 1030.7 255.22 1064.96 275.65 1092.27 273.07 C 1119.57 270.49 1147.21 252.28 1142.42 279.59 C 1137.64 306.89 1192.25 306.89 1169.73 279.59 C 1147.21 252.28 1201.49 282.19 1228.8 273.07 C 1256.11 263.95 1276.7 261.33 1275.18 288.64 C 1273.66 315.95 1328.27 315.95 1302.48 288.64 C 1276.7 261.33 1338.03 281.11 1365.33 273.07 C 1392.64 265.02 1434.45 287.45 1422.62 260.14 C 1410.79 232.83 1465.4 232.83 1449.92 260.14 C 1434.45 287.45 1474.56 273.71 1501.87 273.07 C 1529.17 272.43 1553.04 275.7 1552.85 248.39 C 1552.66 221.09 1607.27 221.09 1580.16 248.39 C 1553.04 275.7 1611.09 273.76 1638.4 273.07 C 1665.71 272.38 1721.67 289.4 1698.19 262.09 C 1674.72 234.79 1729.34 234.79 1725.5 262.09 C 1721.67 289.4 1747.63 281.56 1774.93 273.07 C 1802.24 264.58 1858.63 294.49 1835.71 267.19 C 1812.79 239.88 1867.4 239.88 1863.01 267.19 C 1858.63 294.49 1884.16 264.76 1911.47 273.07 C 1938.77 281.38 1998.98 275.07 1974.14 247.77 C 1949.31 220.46 2003.92 220.46 2001.45 247.77 C 1998.98 275.07 2020.69 284.5 2048.0 273.07 M 0.0,409.6 C 27.31 396.05 47.15 399.15 43.15 426.46 C 39.15 453.76 93.77 453.76 70.46 426.46 C 47.15 399.15 109.23 409.77 136.53 409.6 C 163.84 409.43 189.71 430.36 187.28 403.05 C 184.85 375.75 239.47 375.75 214.59 403.05 C 189.71 430.36 245.76 413.0 273.07 409.6 C 300.37 406.2 349.84 391.07 324.7 418.38 C 299.57 445.69 354.18 445.69 352.01 418.38 C 349.84 391.07 382.29 412.25 409.6 409.6 C 436.91 406.95 486.76 418.18 466.7 390.87 C 446.65 363.57 501.26 363.57 494.01 390.87 C 486.76 418.18 518.83 406.71 546.13 409.6 C 573.44 412.49 620.86 415.48 600.24 388.17 C 579.61 360.86 634.22 360.86 627.54 388.17 C 620.86 415.48 655.36 409.86 682.67 409.6 C 709.97 409.34 763.19 385.22 738.91 412.53 C 714.62 439.84 769.24 439.84 766.21 412.53 C 763.19 385.22 791.89 403.46 819.2 409.6 C 846.51 415.74 872.39 427.23 864.5 399.92 C 856.61 372.61 911.22 372.61 891.81 399.92 C 872.39 427.23 928.43 399.98 955.73 409.6 C 983.04 419.22 1045.68 432.8 1020.99 405.5 C 996.31 378.19 1050.92 378.19 1048.3 405.5 C 1045.68 432.8 1064.96 398.98 1092.27 409.6 C 1119.57 420.22 1165.65 385.81 1150.81 413.12 C 1135.97 440.43 1190.59 440.43 1178.12 413.12 C 1165.65 385.81 1201.49 415.74 1228.8 409.6 C 1256.11 403.46 1322.46 412.54 1296.56 385.23 C 1270.66 357.92 1325.28 357.92 1323.87 385.23 C 1322.46 412.54 1338.03 411.92 1365.33 409.6 C 1392.64 407.28 1441.25 435.44 1426.08 408.13 C 1410.92 380.82 1465.53 380.82 1453.39 408.13 C 1441.25 435.44 1474.56 410.17 1501.87 409.6 C 1529.17 409.03 1578.59 398.67 1561.58 425.97 C 1544.56 453.28 1599.17 453.28 1588.88 425.97 C 1578.59 398.67 1611.09 404.91 1638.4 409.6 C 1665.71 414.29 1714.4 435.53 1690.99 408.22 C 1667.58 380.91 1722.19 380.91 1718.3 408.22 C 1714.4 435.53 1747.63 396.67 1774.93 409.6 C 1802.24 422.53 1869.51 424.72 1842.94 397.42 C 1816.37 370.11 1870.99 370.11 1870.25 397.42 C 1869.51 424.72 1884.16 398.41 1911.47 409.6 C 1938.77 420.79 1993.37 435.31 1972.46 408.01 C 1951.54 380.7 2006.15 380.7 1999.76 408.01 C 1993.37 435.31 2020.69 415.09 2048.0 409.6 M 0.0,546.13 C 27.31 536.0 66.24 563.54 41.74 536.23 C 17.24 508.92 71.86 508.92 69.05 536.23 C 66.24 563.54 109.23 535.43 136.53 546.13 C 163.84 556.84 200.12 571.58 181.38 544.27 C 162.64 516.96 217.25 516.96 208.69 544.27 C 200.12 571.58 245.76 542.3 273.07 546.13 C 300.37 549.96 334.01 561.05 333.4 533.74 C 332.79 506.44 387.41 506.44 360.71 533.74 C 334.01 561.05 382.29 553.04 409.6 546.13 C 436.91 539.23 480.18 529.36 470.28 556.66 C 460.37 583.97 514.99 583.97 497.58 556.66 C 480.18 529.36 518.83 557.41 546.13 546.13 C 573.44 534.86 613.55 565.46 604.05 538.16 C 594.55 510.85 649.16 510.85 631.35 538.16 C 613.55 565.46 655.36 539.25 682.67 546.13 C 709.97 553.01 733.97 551.39 726.51 524.09 C 719.06 496.78 773.68 496.78 753.82 524.09 C 733.97 551.39 791.89 557.05 819.2 546.13 C 846.51 535.21 865.89 549.85 865.19 522.54 C 864.49 495.23 919.11 495.23 892.5 522.54 C 865.89 549.85 928.43 559.32 955.73 546.13 C 983.04 532.95 1025.91 538.17 1003.27 565.48 C 980.63 592.78 1035.25 592.78 1030.58 565.48 C 1025.91 538.17 1064.96 547.0 1092.27 546.13 C 1119.57 545.26 1168.78 546.79 1143.98 519.48 C 1119.18 492.18 1173.8 492.18 1171.29 519.48 C 1168.78 546.79 1201.49 553.52 1228.8 546.13 C 1256.11 538.75 1279.99 546.61 1275.85 519.31 C 1271.72 492.0 1326.33 492.0 1303.16 519.31 C 1279.99 546.61 1338.03 546.84 1365.33 546.13 C 1392.64 545.43 1434.99 549.55 1420.04 522.24 C 1405.09 494.94 1459.71 494.94 1447.35 522.24 C 1434.99 549.55 1474.56 532.91 1501.87 546.13 C 1529.17 559.35 1587.18 559.3 1566.31 531.99 C 1545.44 504.68 1600.05 504.68 1593.62 531.99 C 1587.18 559.3 1611.09 553.73 1638.4 546.13 C 1665.71 538.54 1706.64 570.47 1706.02 543.16 C 1705.4 515.85 1760.01 515.85 1733.33 543.16 C 1706.64 570.47 1747.63 538.17 1774.93 546.13 C 1802.24 554.1 1851.22 546.31 1831.59 519.0 C 1811.96 491.69 1866.57 491.69 1858.89 519.0 C 1851.22 546.31 1884.16 535.51 1911.47 546.13 C 1938.77 556.76 1967.68 532.68 1964.34 559.98 C 1961.0 587.29 2015.61 587.29 1991.65 559.98 C 1967.68 532.68 2020.69 534.71 2048.0 546.13 M 0.0,682.67 C 27.31 676.05 68.63 657.68 46.67 684.99 C 24.72 712.3 79.33 712.3 73.98 684.99 C 68.63 657.68 109.23 691.8 136.53 682.67 C 163.84 673.54 199.0 701.83 179.05 674.52 C 159.1 647.21 213.71 647.21 206.36 674.52 C 199.0 701.83 245.76 684.99 273.07 682.67 C 300.37 680.35 344.69 697.19 326.02 669.89 C 307.35 642.58 361.96 642.58 353.33 669.89 C 344.69 697.19 382.29 695.75 409.6 682.67 C 436.91 669.59 478.81 664.43 468.5 691.73 C 458.19 719.04 512.8 719.04 495.81 691.73 C 478.81 664.43 518.83 687.68 546.13 682.67 C 573.44 677.66 619.64 664.09 593.47 691.39 C 567.3 718.7 621.91 718.7 620.78 691.39 C 619.64 664.09 655.36 676.9 682.67 682.67 C 709.97 688.44 733.1 661.97 724.65 689.28 C 716.2 716.59 770.81 716.59 751.95 689.28 C 733.1 661.97 791.89 673.04 819.2 682.67 C 846.51 692.29 884.94 696.83 870.59 669.52 C 856.24 642.21 910.85 642.21 897.9 669.52 C 884.94 696.83 928.43 674.31 955.73 682.67 C 983.04 691.03 1025.2 706.45 998.54 679.15 C 971.88 651.84 1026.49 651.84 1025.85 679.15 C 1025.2 706.45 1064.96 691.75 1092.27 682.67 C 1119.57 673.58 1151.57 685.64 1143.0 658.33 C 1134.44 631.02 1189.05 631.02 1170.31 658.33 C 1151.57 685.64 1201.49 681.95 1228.8 682.67 C 1256.11 683.38 1304.09 705.39 1294.27 678.08 C 1284.45 650.77 1339.06 650.77 1321.58 678.08 C 1304.09 705.39 1338.03 694.06 1365.33 682.67 C 1392.64 671.28 1432.89 662.42 1408.77 689.73 C 1384.65 717.03 1439.27 717.03 1436.08 689.73 C 1432.89 662.42 1474.56 690.56 1501.87 682.67 C 1529.17 674.78 1579.92 690.66 1563.25 663.35 C 1546.58 636.05 1601.2 636.05 1590.56 663.35 C 1579.92 690.66 1611.09 675.36 1638.4 682.67 C 1665.71 689.97 1720.99 699.59 1694.42 672.28 C 1667.84 644.97 1722.45 644.97 1721.72 672.28 C 1720.99 699.59 1747.63 672.63 1774.93 682.67 C 1802.24 692.7 1835.48 709.94 1825.62 682.63 C 1815.76 655.33 1870.37 655.33 1852.93 682.63 C 1835.48 709.94 1884.16 685.54 1911.47 682.67 C 1938.77 679.79 1985.27 685.69 1958.42 658.38 C 1931.57 631.08 1986.18 631.08 1985.73 658.38 C 1985.27 685.69 2020.69 670.52 2048.0 682.67 M 0.0,819.2 C 27.31 831.4 77.2 805.85 58.63 833.15 C 40.07 860.46 94.68 860.46 85.94 833.15 C 77.2 805.85 109.23 814.19 136.53 819.2 C 163.84 824.21 208.23 845.43 204.77 818.12 C 201.31 790.81 255.93 790.81 232.08 818.12 C 208.23 845.43 245.76 807.45 273.07 819.2 C 300.37 830.95 364.85 823.17 339.97 795.86 C 315.09 768.56 369.71 768.56 367.28 795.86 C 364.85 823.17 382.29 815.55 409.6 819.2 C 436.91 822.85 470.92 834.42 466.19 807.12 C 461.45 779.81 516.06 779.81 493.49 807.12 C 470.92 834.42 518.83 822.81 546.13 819.2 C 573.44 815.59 602.49 836.45 594.19 809.14 C 585.89 781.84 640.5 781.84 621.5 809.14 C 602.49 836.45 655.36 815.22 682.67 819.2 C 709.97 823.18 768.14 826.55 744.88 799.25 C 721.62 771.94 776.24 771.94 772.19 799.25 C 768.14 826.55 791.89 825.21 819.2 819.2 C 846.51 813.19 890.04 845.33 866.52 818.02 C 843.01 790.72 897.62 790.72 893.83 818.02 C 890.04 845.33 928.43 814.0 955.73 819.2 C 983.04 824.4 998.69 800.15 998.21 827.46 C 997.73 854.76 1052.34 854.76 1025.51 827.46 C 998.69 800.15 1064.96 810.54 1092.27 819.2 C 1119.57 827.86 1169.38 844.31 1148.32 817.01 C 1127.25 789.7 1181.86 789.7 1175.62 817.01 C 1169.38 844.31 1201.49 807.17 1228.8 819.2 C 1256.11 831.23 1316.54 816.29 1296.45 843.6 C 1276.36 870.9 1330.97 870.9 1323.75 843.6 C 1316.54 816.29 1338.03 810.03 1365.33 819.2 C 1392.64 828.37 1429.11 827.73 1425.18 800.42 C 1421.25 773.11 1475.86 773.11 1452.49 800.42 C 1429.11 827.73 1474.56 809.43 1501.87 819.2 C 1529.17 828.97 1572.94 826.66 1546.92 799.35 C 1520.89 772.04 1575.5 772.04 1574.22 799.35 C 1572.94 826.66 1611.09 818.2 1638.4 819.2 C 1665.71 820.2 1704.87 809.89 1694.44 837.19 C 1684.0 864.5 1738.61 864.5 1721.74 837.19 C 1704.87 809.89 1747.63 818.03 1774.93 819.2 C 1802.24 820.37 1832.89 825.95 1815.96 798.64 C 1799.03 771.34 1853.64 771.34 1843.27 798.64 C 1832.89 825.95 1884.16 806.48 1911.47 819.2 C 1938.77 831.92 1973.26 816.79 1972.2 844.1 C 1971.13 871.4 2025.74 871.4 1999.5 844.1 C 1973.26 816.79 2020.69 829.48 2048.0 819.2 M 0.0,955.73 C 27.31 951.31 62.41 973.29 43.71 945.98 C 25.01 918.68 79.63 918.68 71.02 945.98 C 62.41 973.29 109.23 946.98 136.53 955.73 C 163.84 964.49 213.42 950.53 192.65 977.83 C 171.88 1005.14 226.49 1005.14 219.96 977.83 C 213.42 950.53 245.76 957.4 273.07 955.73 C 300.37 954.06 353.84 966.52 329.52 939.22 C 305.21 911.91 359.82 911.91 356.83 939.22 C 353.84 966.52 382.29 954.8 409.6 955.73 C 436.91 956.67 471.02 930.49 464.16 957.8 C 457.31 985.1 511.92 985.1 491.47 957.8 C 471.02 930.49 518.83 942.15 546.13 955.73 C 573.44 969.31 599.83 976.71 589.13 949.4 C 578.43 922.1 633.04 922.1 616.44 949.4 C 599.83 976.71 655.36 967.04 682.67 955.73 C 709.97 944.42 765.54 935.53 746.72 962.84 C 727.89 990.15 782.5 990.15 774.02 962.84 C 765.54 935.53 791.89 958.94 819.2 955.73 C 846.51 952.52 876.72 946.1 873.26 973.41 C 869.79 1000.71 924.41 1000.71 900.56 973.41 C 876.72 946.1 928.43 965.28 955.73 955.73 C 983.04 946.18 1027.19 964.25 1012.59 936.95 C 997.99 909.64 1052.61 909.64 1039.9 936.95 C 1027.19 964.25 1064.96 952.43 1092.27 955.73 C 1119.57 959.03 1181.89 958.25 1159.87 930.94 C 1137.86 903.64 1192.47 903.64 1187.18 930.94 C 1181.89 958.25 1201.49 944.3 1228.8 955.73 C 1256.11 967.17 1289.84 942.95 1273.12 970.26 C 1256.4 997.56 1311.01 997.56 1300.42 970.26 C 1289.84 942.95 1338.03 954.77 1365.33 955.73 C 1392.64 956.7 1433.06 936.34 1426.05 963.65 C 1419.05 990.95 1473.66 990.95 1453.36 963.65 C 1433.06 936.34 1474.56 956.23 1501.87 955.73 C 1529.17 955.24 1584.62 977.92 1567.74 950.61 C 1550.87 923.31 1605.48 923.31 1595.05 950.61 C 1584.62 977.92 1611.09 967.56 1638.4 955.73 C 1665.71 943.91 1704.45 957.74 1692.2 930.43 C 1679.96 903.13 1734.57 903.13 1719.51 930.43 C 1704.45 957.74 1747.63 958.12 1774.93 955.73 C 1802.24 953.35 1832.44 939.66 1832.1 966.97 C 1831.75 994.28 1886.37 994.28 1859.4 966.97 C 1832.44 939.66 1884.16 968.58 1911.47 955.73 C 1938.77 942.89 1967.71 970.98 1963.32 943.67 C 1958.94 916.37 2013.55 916.37 1990.63 943.67 C 1967.71 970.98 2020.69 950.71 2048.0 955.73 M 0.0,1092.27 C 27.31 1082.47 52.1 1082.91 42.22 1110.22 C 32.34 1137.53 86.96 1137.53 69.53 1110.22 C 52.1 1082.91 109.23 1098.28 136.53 1092.27 C 163.84 1086.26 191.47 1071.38 189.41 1098.69 C 187.35 1126.0 241.96 1126.0 216.72 1098.69 C 191.47 1071.38 245.76 1092.57 273.07 1092.27 C 300.37 1091.96 339.35 1068.9 337.86 1096.21 C 336.37 1123.52 390.99 1123.52 365.17 1096.21 C 339.35 1068.9 382.29 1098.72 409.6 1092.27 C 436.91 1085.81 459.69 1096.92 452.09 1069.61 C 444.49 1042.31 499.1 1042.31 479.4 1069.61 C 459.69 1096.92 518.83 1103.56 546.13 1092.27 C 573.44 1080.97 626.93 1094.91 614.24 1067.6 C 601.55 1040.3 656.16 1040.3 641.55 1067.6 C 626.93 1094.91 655.36 1078.92 682.67 1092.27 C 709.97 1105.62 760.31 1108.86 737.91 1081.55 C 715.51 1054.25 770.13 1054.25 765.22 1081.55 C 760.31 1108.86 791.89 1089.77 819.2 1092.27 C 846.51 1094.77 877.64 1087.92 868.4 1115.23 C 859.17 1142.54 913.78 1142.54 895.71 1115.23 C 877.64 1087.92 928.43 1103.46 955.73 1092.27 C 983.04 1081.07 1036.59 1067.18 1012.49 1094.49 C 988.39 1121.79 1043.01 1121.79 1039.8 1094.49 C 1036.59 1067.18 1064.96 1079.62 1092.27 1092.27 C 1119.57 1104.91 1169.26 1079.92 1146.93 1107.22 C 1124.61 1134.53 1179.22 1134.53 1174.24 1107.22 C 1169.26 1079.92 1201.49 1078.98 1228.8 1092.27 C 1256.11 1105.55 1308.39 1114.11 1286.06 1086.8 C 1263.74 1059.49 1318.36 1059.49 1313.37 1086.8 C 1308.39 1114.11 1338.03 1080.4 1365.33 1092.27 C 1392.64 1104.13 1446.76 1067.08 1431.69 1094.39 C 1416.62 1121.7 1471.24 1121.7 1459.0 1094.39 C 1446.76 1067.08 1474.56 1100.05 1501.87 1092.27 C 1529.17 1084.49 1579.28 1097.7 1554.67 1070.39 C 1530.07 1043.09 1584.68 1043.09 1581.98 1070.39 C 1579.28 1097.7 1611.09 1092.12 1638.4 1092.27 C 1665.71 1092.41 1693.92 1117.82 1690.46 1090.52 C 1687.01 1063.21 1741.62 1063.21 1717.77 1090.52 C 1693.92 1117.82 1747.63 1086.37 1774.93 1092.27 C 1802.24 1098.16 1854.82 1092.45 1839.04 1065.14 C 1823.26 1037.84 1877.87 1037.84 1866.34 1065.14 C 1854.82 1092.45 1884.16 1099.2 1911.47 1092.27 C 1938.77 1085.33 1981.53 1078.35 1976.18 1105.66 C 1970.83 1132.97 2025.45 1132.97 2003.49 1105.66 C 1981.53 1078.35 2020.69 1089.35 2048.0 1092.27 M 0.0,1228.8 C 27.31 1237.49 58.65 1224.6 53.03 1251.91 C 47.41 1279.21 102.03 1279.21 80.34 1251.91 C 58.65 1224.6 109.23 1215.91 136.53 1228.8 C 163.84 1241.69 215.96 1215.49 188.66 1242.8 C 161.36 1270.1 215.97 1270.1 215.96 1242.8 C 215.96 1215.49 245.76 1228.6 273.07 1228.8 C 300.37 1229.0 322.79 1206.61 320.33 1233.92 C 317.86 1261.22 372.47 1261.22 347.63 1233.92 C 322.79 1206.61 382.29 1216.08 409.6 1228.8 C 436.91 1241.52 473.91 1205.42 458.04 1232.73 C 442.17 1260.03 496.78 1260.03 485.34 1232.73 C 473.91 1205.42 518.83 1223.27 546.13 1228.8 C 573.44 1234.33 620.01 1248.61 594.49 1221.3 C 568.97 1194.0 623.58 1194.0 621.8 1221.3 C 620.01 1248.61 655.36 1237.04 682.67 1228.8 C 709.97 1220.56 747.07 1202.62 724.57 1229.92 C 702.08 1257.23 756.69 1257.23 751.88 1229.92 C 747.07 1202.62 791.89 1239.91 819.2 1228.8 C 846.51 1217.69 884.48 1225.0 865.2 1252.3 C 845.92 1279.61 900.54 1279.61 892.51 1252.3 C 884.48 1225.0 928.43 1239.73 955.73 1228.8 C 983.04 1217.87 1030.17 1208.16 1006.94 1235.46 C 983.71 1262.77 1038.32 1262.77 1034.25 1235.46 C 1030.17 1208.16 1064.96 1218.68 1092.27 1228.8 C 1119.57 1238.92 1160.98 1219.56 1138.44 1246.87 C 1115.9 1274.17 1170.51 1274.17 1165.75 1246.87 C 1160.98 1219.56 1201.49 1229.69 1228.8 1228.8 C 1256.11 1227.91 1301.22 1253.4 1282.5 1226.09 C 1263.79 1198.79 1318.4 1198.79 1309.81 1226.09 C 1301.22 1253.4 1338.03 1218.29 1365.33 1228.8 C 1392.64 1239.31 1441.54 1241.71 1430.7 1214.4 C 1419.87 1187.09 1474.48 1187.09 1458.01 1214.4 C 1441.54 1241.71 1474.56 1215.85 1501.87 1228.8 C 1529.17 1241.75 1582.15 1254.17 1566.32 1226.87 C 1550.5 1199.56 1605.11 1199.56 1593.63 1226.87 C 1582.15 1254.17 1611.09 1231.81 1638.4 1228.8 C 1665.71 1225.79 1706.46 1231.03 1687.32 1203.72 C 1668.18 1176.41 1722.79 1176.41 1714.63 1203.72 C 1706.46 1231.03 1747.63 1232.32 1774.93 1228.8 C 1802.24 1225.28 1825.69 1228.94 1821.51 1201.64 C 1817.34 1174.33 1871.95 1174.33 1848.82 1201.64 C 1825.69 1228.94 1884.16 1235.19 1911.47 1228.8 C 1938.77 1222.41 1976.74 1245.82 1974.39 1218.51 C 1972.03 1191.2 2026.65 1191.2 2001.7 1218.51 C 1976.74 1245.82 2020.69 1217.14 2048.0 1228.8 M 0.0,1365.33 C 27.31 1354.34 64.71 1376.34 42.43 1349.03 C 20.14 1321.73 74.75 1321.73 69.73 1349.03 C 64.71 1376.34 109.23 1378.15 136.53 1365.33 C 163.84 1352.52 201.29 1351.82 192.42 1379.13 C 183.56 1406.44 238.17 1406.44 219.73 1379.13 C 201.29 1351.82 245.76 1377.61 273.07 1365.33 C 300.37 1353.05 334.83 1368.48 326.9 1341.17 C 318.96 1313.86 373.58 1313.86 354.2 1341.17 C 334.83 1368.48 382.29 1374.83 409.6 1365.33 C 436.91 1355.84 483.75 1363.6 460.44 1390.91 C 437.14 1418.22 491.75 1418.22 487.75 1390.91 C 483.75 1363.6 518.83 1376.24 546.13 1365.33 C 573.44 1354.43 627.3 1360.15 603.42 1387.46 C 579.54 1414.76 634.15 1414.76 630.73 1387.46 C 627.3 1360.15 655.36 1357.2 682.67 1365.33 C 709.97 1373.47 763.27 1386.34 740.28 1359.03 C 717.3 1331.72 771.91 1331.72 767.59 1359.03 C 763.27 1386.34 791.89 1369.73 819.2 1365.33 C 846.51 1360.93 878.8 1354.19 866.15 1381.49 C 853.49 1408.8 908.1 1408.8 893.45 1381.49 C 878.8 1354.19 928.43 1353.14 955.73 1365.33 C 983.04 1377.52 1013.95 1344.72 1007.36 1372.02 C 1000.78 1399.33 1055.39 1399.33 1034.67 1372.02 C 1013.95 1344.72 1064.96 1377.15 1092.27 1365.33 C 1119.57 1353.51 1165.07 1366.72 1156.05 1339.41 C 1147.04 1312.11 1201.66 1312.11 1183.36 1339.41 C 1165.07 1366.72 1201.49 1368.36 1228.8 1365.33 C 1256.11 1362.31 1288.77 1389.18 1278.35 1361.87 C 1267.94 1334.57 1322.55 1334.57 1305.66 1361.87 C 1288.77 1389.18 1338.03 1353.39 1365.33 1365.33 C 1392.64 1377.27 1422.78 1374.35 1413.3 1347.04 C 1403.82 1319.73 1458.44 1319.73 1440.61 1347.04 C 1422.78 1374.35 1474.56 1366.46 1501.87 1365.33 C 1529.17 1364.2 1560.8 1351.21 1553.05 1378.52 C 1545.3 1405.83 1599.91 1405.83 1580.35 1378.52 C 1560.8 1351.21 1611.09 1376.33 1638.4 1365.33 C 1665.71 1354.34 1712.55 1364.93 1705.73 1392.24 C 1698.91 1419.55 1753.52 1419.55 1733.03 1392.24 C 1712.55 1364.93 1747.63 1358.15 1774.93 1365.33 C 1802.24 1372.52 1852.21 1360.07 1829.02 1387.38 C 1805.83 1414.68 1860.45 1414.68 1856.33 1387.38 C 1852.21 1360.07 1884.16 1359.42 1911.47 1365.33 C 1938.77 1371.24 1976.42 1388.51 1956.96 1361.21 C 1937.49 1333.9 1992.11 1333.9 1984.27 1361.21 C 1976.42 1388.51 2020.69 1370.76 2048.0 1365.33 M 0.0,1501.87 C 27.31 1493.02 74.36 1484.57 56.99 1511.88 C 39.63 1539.18 94.24 1539.18 84.3 1511.88 C 74.36 1484.57 109.23 1511.43 136.53 1501.87 C 163.84 1492.31 183.53 1490.2 178.56 1517.51 C 173.59 1544.81 228.21 1544.81 205.87 1517.51 C 183.53 1490.2 245.76 1496.67 273.07 1501.87 C 300.37 1507.06 346.54 1487.03 321.57 1514.34 C 296.6 1541.65 351.21 1541.65 348.88 1514.34 C 346.54 1487.03 382.29 1508.63 409.6 1501.87 C 436.91 1495.1 481.27 1528.81 469.98 1501.51 C 458.7 1474.2 513.31 1474.2 497.29 1501.51 C 481.27 1528.81 518.83 1507.21 546.13 1501.87 C 573.44 1496.52 613.54 1497.49 594.88 1524.8 C 576.23 1552.1 630.84 1552.1 622.19 1524.8 C 613.54 1497.49 655.36 1490.18 682.67 1501.87 C 709.97 1513.56 752.19 1485.06 747.05 1512.37 C 741.9 1539.67 796.52 1539.67 774.35 1512.37 C 752.19 1485.06 791.89 1500.69 819.2 1501.87 C 846.51 1503.05 887.95 1523.7 865.76 1496.39 C 843.58 1469.08 898.19 1469.08 893.07 1496.39 C 887.95 1523.7 928.43 1510.14 955.73 1501.87 C 983.04 1493.59 1019.74 1514.9 1006.69 1487.59 C 993.64 1460.28 1048.26 1460.28 1034.0 1487.59 C 1019.74 1514.9 1064.96 1502.64 1092.27 1501.87 C 1119.57 1501.1 1149.46 1479.35 1138.85 1506.66 C 1128.24 1533.96 1182.86 1533.96 1166.16 1506.66 C 1149.46 1479.35 1201.49 1498.03 1228.8 1501.87 C 1256.11 1505.7 1306.66 1521.58 1289.36 1494.27 C 1272.06 1466.97 1326.67 1466.97 1316.67 1494.27 C 1306.66 1521.58 1338.03 1497.54 1365.33 1501.87 C 1392.64 1506.19 1434.5 1476.08 1417.85 1503.39 C 1401.2 1530.69 1455.82 1530.69 1445.16 1503.39 C 1434.5 1476.08 1474.56 1496.59 1501.87 1501.87 C 1529.17 1507.15 1592.27 1516.83 1566.58 1489.52 C 1540.9 1462.22 1595.51 1462.22 1593.89 1489.52 C 1592.27 1516.83 1611.09 1509.24 1638.4 1501.87 C 1665.71 1494.5 1711.24 1489.82 1694.17 1517.13 C 1677.1 1544.44 1731.71 1544.44 1721.48 1517.13 C 1711.24 1489.82 1747.63 1491.73 1774.93 1501.87 C 1802.24 1512.0 1823.24 1478.44 1815.99 1505.74 C 1808.73 1533.05 1863.34 1533.05 1843.29 1505.74 C 1823.24 1478.44 1884.16 1507.08 1911.47 1501.87 C 1938.77 1496.65 1989.15 1506.53 1967.49 1479.23 C 1945.82 1451.92 2000.43 1451.92 1994.79 1479.23 C 1989.15 1506.53 2020.69 1513.72 2048.0 1501.87 M 0.0,1638.4 C 27.31 1642.87 75.57 1640.06 56.39 1612.75 C 37.21 1585.45 91.83 1585.45 83.7 1612.75 C 75.57 1640.06 109.23 1646.36 136.53 1638.4 C 163.84 1630.44 197.78 1663.92 179.85 1636.61 C 161.92 1609.31 216.53 1609.31 207.16 1636.61 C 197.78 1663.92 245.76 1625.38 273.07 1638.4 C 300.37 1651.42 341.03 1638.73 320.59 1611.42 C 300.14 1584.11 354.76 1584.11 347.89 1611.42 C 341.03 1638.73 382.29 1627.86 409.6 1638.4 C 436.91 1648.94 479.73 1618.93 457.21 1646.24 C 434.7 1673.54 489.31 1673.54 484.52 1646.24 C 479.73 1618.93 518.83 1628.98 546.13 1638.4 C 573.44 1647.82 623.9 1624.0 608.88 1651.31 C 593.87 1678.62 648.48 1678.62 636.19 1651.31 C 623.9 1624.0 655.36 1627.17 682.67 1638.4 C 709.97 1649.63 755.76 1652.4 731.47 1625.09 C 707.17 1597.79 761.79 1597.79 758.78 1625.09 C 755.76 1652.4 791.89 1640.05 819.2 1638.4 C 846.51 1636.75 892.57 1660.71 875.34 1633.41 C 858.1 1606.1 912.72 1606.1 902.64 1633.41 C 892.57 1660.71 928.43 1632.36 955.73 1638.4 C 983.04 1644.44 1036.98 1623.13 1011.59 1650.43 C 986.2 1677.74 1040.81 1677.74 1038.9 1650.43 C 1036.98 1623.13 1064.96 1630.92 1092.27 1638.4 C 1119.57 1645.88 1168.54 1643.09 1150.5 1615.78 C 1132.46 1588.47 1187.07 1588.47 1177.8 1615.78 C 1168.54 1643.09 1201.49 1651.13 1228.8 1638.4 C 1256.11 1625.67 1304.24 1641.2 1279.81 1613.9 C 1255.38 1586.59 1310.0 1586.59 1307.12 1613.9 C 1304.24 1641.2 1338.03 1639.22 1365.33 1638.4 C 1392.64 1637.58 1422.97 1658.11 1419.28 1630.8 C 1415.58 1603.5 1470.2 1603.5 1446.58 1630.8 C 1422.97 1658.11 1474.56 1643.74 1501.87 1638.4 C 1529.17 1633.06 1576.37 1647.19 1551.65 1619.88 C 1526.93 1592.58 1581.54 1592.58 1578.96 1619.88 C 1576.37 1647.19 1611.09 1643.85 1638.4 1638.4 C 1665.71 1632.95 1694.58 1625.84 1686.68 1653.14 C 1678.78 1680.45 1733.4 1680.45 1713.99 1653.14 C 1694.58 1625.84 1747.63 1650.99 1774.93 1638.4 C 1802.24 1625.81 1854.28 1614.66 1835.3 1641.96 C 1816.32 1669.27 1870.93 1669.27 1862.61 1641.96 C 1854.28 1614.66 1884.16 1629.3 1911.47 1638.4 C 1938.77 1647.5 1961.58 1624.51 1956.25 1651.82 C 1950.93 1679.12 2005.54 1679.12 1983.56 1651.82 C 1961.58 1624.51 2020.69 1649.63 2048.0 1638.4 M 0.0,1774.93 C 27.31 1782.26 64.0 1796.14 47.5 1768.83 C 31.0 1741.52 85.61 1741.52 74.81 1768.83 C 64.0 1796.14 109.23 1786.34 136.53 1774.93 C 163.84 1763.53 198.41 1755.61 187.74 1782.91 C 177.07 1810.22 231.69 1810.22 215.05 1782.91 C 198.41 1755.61 245.76 1780.85 273.07 1774.93 C 300.37 1769.02 346.75 1783.47 322.64 1756.16 C 298.54 1728.86 353.15 1728.86 349.95 1756.16 C 346.75 1783.47 382.29 1773.76 409.6 1774.93 C 436.91 1776.1 459.34 1781.14 455.63 1753.84 C 451.92 1726.53 506.53 1726.53 482.94 1753.84 C 459.34 1781.14 518.83 1770.05 546.13 1774.93 C 573.44 1779.81 616.01 1785.17 598.75 1757.86 C 581.48 1730.56 636.09 1730.56 626.05 1757.86 C 616.01 1785.17 655.36 1780.24 682.67 1774.93 C 709.97 1769.63 740.26 1779.78 730.43 1752.47 C 720.61 1725.16 775.22 1725.16 757.74 1752.47 C 740.26 1779.78 791.89 1762.38 819.2 1774.93 C 846.51 1787.49 882.96 1785.52 871.14 1758.21 C 859.33 1730.9 913.94 1730.9 898.45 1758.21 C 882.96 1785.52 928.43 1787.46 955.73 1774.93 C 983.04 1762.41 1017.82 1793.44 1005.34 1766.13 C 992.87 1738.83 1047.48 1738.83 1032.65 1766.13 C 1017.82 1793.44 1064.96 1782.14 1092.27 1774.93 C 1119.57 1767.73 1147.5 1786.89 1133.4 1759.58 C 1119.3 1732.27 1173.91 1732.27 1160.7 1759.58 C 1147.5 1786.89 1201.49 1766.84 1228.8 1774.93 C 1256.11 1783.03 1293.13 1771.59 1273.5 1798.9 C 1253.88 1826.2 1308.49 1826.2 1300.81 1798.9 C 1293.13 1771.59 1338.03 1764.53 1365.33 1774.93 C 1392.64 1785.34 1446.56 1801.64 1420.79 1774.33 C 1395.02 1747.02 1449.64 1747.02 1448.1 1774.33 C 1446.56 1801.64 1474.56 1788.36 1501.87 1774.93 C 1529.17 1761.5 1567.39 1775.48 1561.38 1748.17 C 1555.37 1720.86 1609.98 1720.86 1588.69 1748.17 C 1567.39 1775.48 1611.09 1776.47 1638.4 1774.93 C 1665.71 1773.4 1688.55 1762.12 1686.66 1789.43 C 1684.77 1816.74 1739.38 1816.74 1713.97 1789.43 C 1688.55 1762.12 1747.63 1775.01 1774.93 1774.93 C 1802.24 1774.85 1829.84 1759.88 1817.41 1787.18 C 1804.99 1814.49 1859.6 1814.49 1844.72 1787.18 C 1829.84 1759.88 1884.16 1761.28 1911.47 1774.93 C 1938.77 1788.58 1959.34 1774.76 1952.85 1802.07 C 1946.36 1829.37 2000.98 1829.37 1980.16 1802.07 C 1959.34 1774.76 2020.69 1785.34 2048.0 1774.93 M 0.0,1911.47 C 27.31 1901.85 67.38 1903.6 43.17 1930.9 C 18.95 1958.21 73.57 1958.21 70.47 1930.9 C 67.38 1903.6 109.23 1900.36 136.53 1911.47 C 163.84 1922.58 216.9 1916.35 200.55 1889.05 C 184.19 1861.74 238.81 1861.74 227.85 1889.05 C 216.9 1916.35 245.76 1900.24 273.07 1911.47 C 300.37 1922.69 332.67 1905.49 329.49 1932.79 C 326.31 1960.1 380.92 1960.1 356.8 1932.79 C 332.67 1905.49 382.29 1917.81 409.6 1911.47 C 436.91 1905.13 466.23 1909.91 450.8 1937.22 C 435.36 1964.52 489.97 1964.52 478.1 1937.22 C 466.23 1909.91 518.83 1911.24 546.13 1911.47 C 573.44 1911.69 625.21 1908.42 599.64 1935.72 C 574.08 1963.03 628.69 1963.03 626.95 1935.72 C 625.21 1908.42 655.36 1920.54 682.67 1911.47 C 709.97 1902.4 758.18 1929.95 737.5 1902.65 C 716.82 1875.34 771.44 1875.34 764.81 1902.65 C 758.18 1929.95 791.89 1909.53 819.2 1911.47 C 846.51 1913.41 896.18 1916.88 881.23 1889.57 C 866.27 1862.27 920.88 1862.27 908.53 1889.57 C 896.18 1916.88 928.43 1911.89 955.73 1911.47 C 983.04 1911.04 1019.74 1888.49 1012.04 1915.8 C 1004.34 1943.1 1058.95 1943.1 1039.34 1915.8 C 1019.74 1888.49 1064.96 1918.03 1092.27 1911.47 C 1119.57 1904.91 1167.5 1897.98 1144.3 1925.28 C 1121.09 1952.59 1175.7 1952.59 1171.6 1925.28 C 1167.5 1897.98 1201.49 1909.98 1228.8 1911.47 C 1256.11 1912.95 1275.79 1913.66 1272.37 1886.35 C 1268.94 1859.04 1323.55 1859.04 1299.67 1886.35 C 1275.79 1913.66 1338.03 1899.67 1365.33 1911.47 C 1392.64 1923.26 1440.73 1922.81 1427.34 1895.5 C 1413.95 1868.19 1468.56 1868.19 1454.64 1895.5 C 1440.73 1922.81 1474.56 1917.81 1501.87 1911.47 C 1529.17 1905.12 1572.1 1932.99 1548.14 1905.68 C 1524.18 1878.37 1578.79 1878.37 1575.45 1905.68 C 1572.1 1932.99 1611.09 1912.74 1638.4 1911.47 C 1665.71 1910.2 1706.14 1925.2 1701.52 1897.89 C 1696.9 1870.59 1751.51 1870.59 1728.83 1897.89 C 1706.14 1925.2 1747.63 1909.78 1774.93 1911.47 C 1802.24 1913.15 1852.83 1901.27 1838.88 1928.57 C 1824.92 1955.88 1879.54 1955.88 1866.18 1928.57 C 1852.83 1901.27 1884.16 1910.86 1911.47 1911.47 C 1938.77 1912.07 1966.48 1896.65 1962.35 1923.96 C 1958.21 1951.27 2012.82 1951.27 1989.65 1923.96 C 1966.48 1896.65 2020.69 1911.06 2048.0 1911.47 "></path><path fill="none" stroke="Black" stroke-width="0.01"  class="vertical" d="M 136.53,0.0 C 124.19 27.31 152.91 81.16 125.61 55.56 C 98.3 29.96 98.3 84.57 125.61 82.86 C 152.91 81.16 128.92 109.23 136.53 136.53 C 144.15 163.84 156.85 206.42 129.55 187.27 C 102.24 168.11 102.24 222.73 129.55 214.58 C 156.85 206.42 140.83 245.76 136.53 273.07 C 132.24 300.37 142.09 329.01 114.79 316.52 C 87.48 304.03 87.48 358.65 114.79 343.83 C 142.09 329.01 132.03 382.29 136.53 409.6 C 141.04 436.91 118.24 500.21 145.55 472.93 C 172.85 445.64 172.85 500.26 145.55 500.24 C 118.24 500.21 134.22 518.83 136.53 546.13 C 138.85 573.44 159.88 626.45 132.57 612.96 C 105.26 599.47 105.26 654.08 132.57 640.27 C 159.88 626.45 133.09 655.36 136.53 682.67 C 139.98 709.97 110.29 756.05 137.59 744.27 C 164.9 732.49 164.9 787.11 137.59 771.58 C 110.29 756.05 129.86 791.89 136.53 819.2 C 143.21 846.51 112.89 885.5 140.19 869.68 C 167.5 853.87 167.5 908.48 140.19 896.99 C 112.89 885.5 138.83 928.43 136.53 955.73 C 134.23 983.04 130.31 1021.41 157.61 1017.93 C 184.92 1014.45 184.92 1069.07 157.61 1045.24 C 130.31 1021.41 141.53 1064.96 136.53 1092.27 C 131.53 1119.57 139.39 1145.7 112.08 1134.03 C 84.77 1122.36 84.77 1176.98 112.08 1161.34 C 139.39 1145.7 128.65 1201.49 136.53 1228.8 C 144.42 1256.11 124.93 1278.74 152.24 1272.71 C 179.54 1266.68 179.54 1321.29 152.24 1300.02 C 124.93 1278.74 137.99 1338.03 136.53 1365.33 C 135.08 1392.64 128.49 1434.66 155.8 1423.49 C 183.1 1412.33 183.1 1466.94 155.8 1450.8 C 128.49 1434.66 139.12 1474.56 136.53 1501.87 C 133.95 1529.17 140.61 1570.75 113.3 1556.48 C 85.99 1542.22 85.99 1596.83 113.3 1583.79 C 140.61 1570.75 150.11 1611.09 136.53 1638.4 C 122.95 1665.71 146.4 1709.43 119.09 1695.83 C 91.79 1682.23 91.79 1736.84 119.09 1723.14 C 146.4 1709.43 149.69 1747.63 136.53 1774.93 C 123.37 1802.24 140.99 1838.13 113.68 1827.23 C 86.37 1816.32 86.37 1870.94 113.68 1854.53 C 140.99 1838.13 143.77 1884.16 136.53 1911.47 C 129.3 1938.77 111.01 1971.95 138.31 1969.72 C 165.62 1967.49 165.62 2022.1 138.31 1997.02 C 111.01 1971.95 139.75 2020.69 136.53 2048.0 M 273.07,0.0 C 274.92 27.31 278.14 63.52 250.83 48.54 C 223.53 33.55 223.53 88.17 250.83 75.84 C 278.14 63.52 259.56 109.23 273.07 136.53 C 286.58 163.84 252.6 201.19 279.9 177.75 C 307.21 154.31 307.21 208.92 279.9 205.05 C 252.6 201.19 282.63 245.76 273.07 273.07 C 263.5 300.37 256.75 335.62 284.05 332.82 C 311.36 330.03 311.36 384.64 284.05 360.13 C 256.75 335.62 276.22 382.29 273.07 409.6 C 269.91 436.91 296.72 478.66 269.42 457.34 C 242.11 436.02 242.11 490.63 269.42 484.64 C 296.72 478.66 284.44 518.83 273.07 546.13 C 261.7 573.44 255.75 610.74 283.06 596.94 C 310.37 583.14 310.37 637.75 283.06 624.24 C 255.75 610.74 261.1 655.36 273.07 682.67 C 285.03 709.97 278.72 758.49 251.42 737.25 C 224.11 716.0 224.11 770.61 251.42 764.55 C 278.72 758.49 281.03 791.89 273.07 819.2 C 265.1 846.51 296.38 886.84 269.07 864.12 C 241.77 841.4 241.77 896.02 269.07 891.43 C 296.38 886.84 277.46 928.43 273.07 955.73 C 268.67 983.04 270.74 1022.75 298.05 1004.14 C 325.36 985.53 325.36 1040.14 298.05 1031.45 C 270.74 1022.75 261.29 1064.96 273.07 1092.27 C 284.84 1119.57 299.03 1147.0 271.72 1144.34 C 244.42 1141.68 244.42 1196.29 271.72 1171.64 C 299.03 1147.0 285.24 1201.49 273.07 1228.8 C 260.89 1256.11 275.27 1291.23 247.97 1290.83 C 220.66 1290.44 220.66 1345.05 247.97 1318.14 C 275.27 1291.23 277.49 1338.03 273.07 1365.33 C 268.65 1392.64 300.24 1428.92 272.93 1412.18 C 245.62 1395.45 245.62 1450.07 272.93 1439.49 C 300.24 1428.92 266.53 1474.56 273.07 1501.87 C 279.61 1529.17 257.72 1553.84 285.03 1546.74 C 312.34 1539.65 312.34 1594.26 285.03 1574.05 C 257.72 1553.84 262.46 1611.09 273.07 1638.4 C 283.67 1665.71 287.12 1706.49 259.81 1690.44 C 232.51 1674.38 232.51 1728.99 259.81 1717.74 C 287.12 1706.49 284.53 1747.63 273.07 1774.93 C 261.6 1802.24 266.31 1837.75 293.61 1819.13 C 320.92 1800.5 320.92 1855.11 293.61 1846.43 C 266.31 1837.75 284.12 1884.16 273.07 1911.47 C 262.01 1938.77 259.29 1970.47 286.6 1957.62 C 313.9 1944.77 313.9 1999.39 286.6 1984.93 C 259.29 1970.47 274.0 2020.69 273.07 2048.0 M 409.6,0.0 C 417.28 27.31 394.56 70.86 421.87 48.3 C 449.18 25.74 449.18 80.35 421.87 75.6 C 394.56 70.86 421.24 109.23 409.6 136.53 C 397.96 163.84 433.61 219.94 406.3 198.17 C 378.99 176.4 378.99 231.02 406.3 225.48 C 433.61 219.94 407.44 245.76 409.6 273.07 C 411.76 300.37 420.02 330.78 392.71 314.93 C 365.41 299.09 365.41 353.7 392.71 342.24 C 420.02 330.78 403.05 382.29 409.6 409.6 C 416.15 436.91 432.53 475.37 405.22 460.94 C 377.91 446.5 377.91 501.12 405.22 488.24 C 432.53 475.37 401.84 518.83 409.6 546.13 C 417.36 573.44 396.37 605.44 423.67 603.75 C 450.98 602.05 450.98 656.66 423.67 631.05 C 396.37 605.44 405.78 655.36 409.6 682.67 C 413.42 709.97 382.92 726.36 410.23 725.14 C 437.53 723.92 437.53 778.53 410.23 752.45 C 382.92 726.36 402.05 791.89 409.6 819.2 C 417.15 846.51 420.77 885.18 393.46 872.21 C 366.16 859.23 366.16 913.85 393.46 899.51 C 420.77 885.18 416.7 928.43 409.6 955.73 C 402.5 983.04 404.56 1017.47 431.87 1000.69 C 459.18 983.91 459.18 1038.52 431.87 1028.0 C 404.56 1017.47 404.62 1064.96 409.6 1092.27 C 414.58 1119.57 408.57 1150.06 435.88 1134.74 C 463.19 1119.42 463.19 1174.04 435.88 1162.05 C 408.57 1150.06 398.89 1201.49 409.6 1228.8 C 420.31 1256.11 403.62 1287.08 430.93 1274.47 C 458.24 1261.87 458.24 1316.48 430.93 1301.78 C 403.62 1287.08 400.05 1338.03 409.6 1365.33 C 419.15 1392.64 389.84 1436.67 417.15 1429.59 C 444.46 1422.5 444.46 1477.12 417.15 1456.89 C 389.84 1436.67 410.68 1474.56 409.6 1501.87 C 408.52 1529.17 420.1 1573.11 392.79 1549.15 C 365.48 1525.19 365.48 1579.8 392.79 1576.46 C 420.1 1573.11 410.93 1611.09 409.6 1638.4 C 408.27 1665.71 404.63 1699.45 431.93 1690.35 C 459.24 1681.26 459.24 1735.87 431.93 1717.66 C 404.63 1699.45 403.82 1747.63 409.6 1774.93 C 415.38 1802.24 411.15 1843.16 383.84 1817.32 C 356.54 1791.47 356.54 1846.08 383.84 1844.62 C 411.15 1843.16 407.59 1884.16 409.6 1911.47 C 411.61 1938.77 411.75 1995.2 384.44 1977.6 C 357.14 1959.99 357.14 2014.61 384.44 2004.91 C 411.75 1995.2 401.96 2020.69 409.6 2048.0 M 546.13,0.0 C 554.84 27.31 554.73 73.97 527.43 51.08 C 500.12 28.2 500.12 82.81 527.43 78.39 C 554.73 73.97 558.45 109.23 546.13 136.53 C 533.81 163.84 573.3 207.1 545.99 192.95 C 518.69 178.79 518.69 233.4 545.99 220.25 C 573.3 207.1 551.91 245.76 546.13 273.07 C 540.36 300.37 552.86 340.54 525.55 340.52 C 498.25 340.5 498.25 395.11 525.55 367.83 C 552.86 340.54 551.92 382.29 546.13 409.6 C 540.35 436.91 538.69 496.43 566.0 473.33 C 593.31 450.22 593.31 504.84 566.0 500.63 C 538.69 496.43 536.55 518.83 546.13 546.13 C 555.72 573.44 551.0 629.35 523.69 605.78 C 496.39 582.2 496.39 636.82 523.69 633.08 C 551.0 629.35 548.52 655.36 546.13 682.67 C 543.74 709.97 548.73 762.17 521.42 745.47 C 494.12 728.77 494.12 783.38 521.42 772.77 C 548.73 762.17 540.12 791.89 546.13 819.2 C 552.15 846.51 544.61 864.66 571.92 863.32 C 599.23 861.98 599.23 916.59 571.92 890.63 C 544.61 864.66 555.13 928.43 546.13 955.73 C 537.13 983.04 561.13 1013.92 533.82 1006.08 C 506.51 998.24 506.51 1052.86 533.82 1033.39 C 561.13 1013.92 553.7 1064.96 546.13 1092.27 C 538.56 1119.57 557.71 1158.66 530.41 1144.48 C 503.1 1130.29 503.1 1184.91 530.41 1171.79 C 557.71 1158.66 557.99 1201.49 546.13 1228.8 C 534.28 1256.11 540.04 1281.53 567.35 1278.27 C 594.65 1275.01 594.65 1329.62 567.35 1305.57 C 540.04 1281.53 552.05 1338.03 546.13 1365.33 C 540.22 1392.64 565.89 1450.5 538.59 1427.38 C 511.28 1404.27 511.28 1458.88 538.59 1454.69 C 565.89 1450.5 558.67 1474.56 546.13 1501.87 C 533.6 1529.17 534.03 1564.29 561.33 1551.62 C 588.64 1538.94 588.64 1593.55 561.33 1578.92 C 534.03 1564.29 558.37 1611.09 546.13 1638.4 C 533.9 1665.71 533.28 1701.24 560.58 1691.88 C 587.89 1682.52 587.89 1737.14 560.58 1719.19 C 533.28 1701.24 540.88 1747.63 546.13 1774.93 C 551.38 1802.24 533.68 1837.91 560.98 1834.19 C 588.29 1830.47 588.29 1885.08 560.98 1861.5 C 533.68 1837.91 557.89 1884.16 546.13 1911.47 C 534.38 1938.77 528.49 1977.03 555.8 1962.91 C 583.1 1948.8 583.1 2003.42 555.8 1990.22 C 528.49 1977.03 543.82 2020.69 546.13 2048.0 M 682.67,0.0 C 676.73 27.31 661.71 55.75 689.02 50.04 C 716.33 44.32 716.33 98.94 689.02 77.35 C 661.71 55.75 685.13 109.23 682.67 136.53 C 680.2 163.84 681.75 180.78 709.05 180.39 C 736.36 180.01 736.36 234.62 709.05 207.7 C 681.75 180.78 675.88 245.76 682.67 273.07 C 689.46 300.37 688.49 322.92 661.19 321.02 C 633.88 319.11 633.88 373.72 661.19 348.32 C 688.49 322.92 685.05 382.29 682.67 409.6 C 680.29 436.91 700.24 495.03 672.94 475.02 C 645.63 455.01 645.63 509.62 672.94 502.33 C 700.24 495.03 674.39 518.83 682.67 546.13 C 690.94 573.44 662.16 618.99 689.47 598.57 C 716.77 578.15 716.77 632.76 689.47 625.88 C 662.16 618.99 688.11 655.36 682.67 682.67 C 677.22 709.97 709.53 759.41 682.23 745.08 C 654.92 730.75 654.92 785.37 682.23 772.39 C 709.53 759.41 695.52 791.89 682.67 819.2 C 669.82 846.51 673.77 888.81 701.08 874.34 C 728.39 859.88 728.39 914.49 701.08 901.65 C 673.77 888.81 690.26 928.43 682.67 955.73 C 675.08 983.04 685.13 1008.81 657.82 1008.66 C 630.52 1008.52 630.52 1063.13 657.82 1035.97 C 685.13 1008.81 687.77 1064.96 682.67 1092.27 C 677.56 1119.57 678.62 1168.79 705.92 1157.27 C 733.23 1145.75 733.23 1200.36 705.92 1184.58 C 678.62 1168.79 691.83 1201.49 682.67 1228.8 C 673.51 1256.11 679.41 1304.76 706.72 1290.22 C 734.03 1275.68 734.03 1330.29 706.72 1317.52 C 679.41 1304.76 673.17 1338.03 682.67 1365.33 C 692.16 1392.64 684.32 1430.8 657.01 1415.55 C 629.71 1400.29 629.71 1454.91 657.01 1442.85 C 684.32 1430.8 688.15 1474.56 682.67 1501.87 C 677.18 1529.17 668.46 1593.24 695.77 1567.84 C 723.07 1542.43 723.07 1597.04 695.77 1595.14 C 668.46 1593.24 677.2 1611.09 682.67 1638.4 C 688.13 1665.71 679.89 1705.17 707.2 1701.21 C 734.5 1697.25 734.5 1751.87 707.2 1728.52 C 679.89 1705.17 681.99 1747.63 682.67 1774.93 C 683.34 1802.24 658.82 1834.53 686.12 1823.15 C 713.43 1811.76 713.43 1866.38 686.12 1850.45 C 658.82 1834.53 673.72 1884.16 682.67 1911.47 C 691.62 1938.77 673.63 1977.95 700.94 1952.48 C 728.25 1927.01 728.25 1981.62 700.94 1979.79 C 673.63 1977.95 687.81 2020.69 682.67 2048.0 M 819.2,0.0 C 818.65 27.31 838.21 67.48 810.91 58.13 C 783.6 48.77 783.6 103.38 810.91 85.43 C 838.21 67.48 829.37 109.23 819.2 136.53 C 809.03 163.84 834.47 212.79 807.16 197.21 C 779.86 181.62 779.86 236.24 807.16 224.51 C 834.47 212.79 810.83 245.76 819.2 273.07 C 827.57 300.37 832.37 343.17 805.07 321.24 C 777.76 299.31 777.76 353.92 805.07 348.55 C 832.37 343.17 828.72 382.29 819.2 409.6 C 809.68 436.91 820.29 476.95 792.98 458.42 C 765.67 439.89 765.67 494.5 792.98 485.73 C 820.29 476.95 831.43 518.83 819.2 546.13 C 806.97 573.44 828.39 614.18 801.08 596.12 C 773.78 578.07 773.78 632.69 801.08 623.43 C 828.39 614.18 822.6 655.36 819.2 682.67 C 815.8 709.97 824.23 754.39 796.92 731.71 C 769.62 709.04 769.62 763.65 796.92 759.02 C 824.23 754.39 831.44 791.89 819.2 819.2 C 806.96 846.51 792.48 884.53 819.79 875.9 C 847.1 867.27 847.1 921.88 819.79 903.21 C 792.48 884.53 813.54 928.43 819.2 955.73 C 824.86 983.04 843.47 1009.24 816.16 1007.95 C 788.85 1006.66 788.85 1061.27 816.16 1035.26 C 843.47 1009.24 823.5 1064.96 819.2 1092.27 C 814.9 1119.57 794.11 1164.77 821.41 1147.39 C 848.72 1130.02 848.72 1184.63 821.41 1174.7 C 794.11 1164.77 810.19 1201.49 819.2 1228.8 C 828.21 1256.11 832.84 1290.31 805.54 1274.19 C 778.23 1258.06 778.23 1312.67 805.54 1301.49 C 832.84 1290.31 828.13 1338.03 819.2 1365.33 C 810.27 1392.64 811.76 1425.1 839.06 1413.11 C 866.37 1401.12 866.37 1455.74 839.06 1440.42 C 811.76 1425.1 810.9 1474.56 819.2 1501.87 C 827.5 1529.17 824.59 1568.37 797.28 1558.21 C 769.98 1548.05 769.98 1602.66 797.28 1585.51 C 824.59 1568.37 830.15 1611.09 819.2 1638.4 C 808.25 1665.71 817.51 1708.88 844.81 1704.98 C 872.12 1701.09 872.12 1755.71 844.81 1732.29 C 817.51 1708.88 816.39 1747.63 819.2 1774.93 C 822.01 1802.24 833.59 1836.24 806.28 1833.95 C 778.98 1831.66 778.98 1886.27 806.28 1861.25 C 833.59 1836.24 817.25 1884.16 819.2 1911.47 C 821.15 1938.77 801.88 1972.24 829.19 1954.18 C 856.49 1936.13 856.49 1990.74 829.19 1981.49 C 801.88 1972.24 827.86 2020.69 819.2 2048.0 M 955.73,0.0 C 955.76 27.31 933.67 51.45 960.97 43.22 C 988.28 34.98 988.28 89.59 960.97 70.52 C 933.67 51.45 968.6 109.23 955.73 136.53 C 942.87 163.84 960.2 229.2 932.89 202.08 C 905.58 174.97 905.58 229.58 932.89 229.39 C 960.2 229.2 945.17 245.76 955.73 273.07 C 966.3 300.37 970.11 340.29 942.8 322.79 C 915.49 305.29 915.49 359.9 942.8 350.1 C 970.11 340.29 963.69 382.29 955.73 409.6 C 947.77 436.91 957.11 474.52 929.8 469.2 C 902.5 463.88 902.5 518.49 929.8 496.5 C 957.11 474.52 962.28 518.83 955.73 546.13 C 949.19 573.44 972.76 619.89 945.45 613.59 C 918.14 607.29 918.14 661.9 945.45 640.9 C 972.76 619.89 961.99 655.36 955.73 682.67 C 949.47 709.97 950.79 749.25 978.1 727.29 C 1005.4 705.33 1005.4 759.94 978.1 754.6 C 950.79 749.25 951.45 791.89 955.73 819.2 C 960.02 846.51 956.08 907.92 928.78 885.45 C 901.47 862.97 901.47 917.59 928.78 912.75 C 956.08 907.92 963.59 928.43 955.73 955.73 C 947.88 983.04 978.6 1002.91 951.3 1000.72 C 923.99 998.53 923.99 1053.14 951.3 1028.03 C 978.6 1002.91 955.72 1064.96 955.73 1092.27 C 955.75 1119.57 964.87 1164.07 937.56 1157.97 C 910.26 1151.88 910.26 1206.49 937.56 1185.28 C 964.87 1164.07 954.37 1201.49 955.73 1228.8 C 957.1 1256.11 968.59 1303.01 941.28 1288.02 C 913.97 1273.04 913.97 1327.65 941.28 1315.33 C 968.59 1303.01 962.62 1338.03 955.73 1365.33 C 948.84 1392.64 945.9 1441.01 973.21 1427.96 C 1000.52 1414.92 1000.52 1469.53 973.21 1455.27 C 945.9 1441.01 960.66 1474.56 955.73 1501.87 C 950.8 1529.17 933.26 1574.04 960.57 1566.83 C 987.88 1559.61 987.88 1614.23 960.57 1594.13 C 933.26 1574.04 942.98 1611.09 955.73 1638.4 C 968.49 1665.71 971.0 1699.91 943.7 1684.11 C 916.39 1668.31 916.39 1722.92 943.7 1711.42 C 971.0 1699.91 946.82 1747.63 955.73 1774.93 C 964.64 1802.24 967.91 1865.33 940.6 1838.2 C 913.3 1811.07 913.3 1865.68 940.6 1865.51 C 967.91 1865.33 956.32 1884.16 955.73 1911.47 C 955.15 1938.77 958.66 1977.55 931.36 1956.8 C 904.05 1936.06 904.05 1990.67 931.36 1984.11 C 958.66 1977.55 964.18 2020.69 955.73 2048.0 M 1092.27,0.0 C 1094.0 27.31 1119.02 73.96 1091.72 50.57 C 1064.41 27.19 1064.41 81.81 1091.72 77.88 C 1119.02 73.96 1098.04 109.23 1092.27 136.53 C 1086.5 163.84 1105.38 205.81 1078.08 194.28 C 1050.77 182.75 1050.77 237.37 1078.08 221.59 C 1105.38 205.81 1085.78 245.76 1092.27 273.07 C 1098.75 300.37 1093.3 342.06 1066.0 322.36 C 1038.69 302.66 1038.69 357.27 1066.0 349.66 C 1093.3 342.06 1078.87 382.29 1092.27 409.6 C 1105.66 436.91 1097.82 497.54 1070.51 476.11 C 1043.2 454.69 1043.2 509.3 1070.51 503.42 C 1097.82 497.54 1095.11 518.83 1092.27 546.13 C 1089.42 573.44 1115.44 601.07 1088.14 597.02 C 1060.83 592.97 1060.83 647.58 1088.14 624.33 C 1115.44 601.07 1080.69 655.36 1092.27 682.67 C 1103.84 709.97 1099.38 741.87 1072.08 736.94 C 1044.77 732.02 1044.77 786.63 1072.08 764.25 C 1099.38 741.87 1093.81 791.89 1092.27 819.2 C 1090.73 846.51 1099.71 880.64 1072.4 864.05 C 1045.09 847.45 1045.09 902.06 1072.4 891.35 C 1099.71 880.64 1095.54 928.43 1092.27 955.73 C 1088.99 983.04 1114.42 1023.23 1087.11 1022.97 C 1059.81 1022.7 1059.81 1077.31 1087.11 1050.27 C 1114.42 1023.23 1085.64 1064.96 1092.27 1092.27 C 1098.9 1119.57 1097.94 1164.32 1070.63 1138.06 C 1043.33 1111.8 1043.33 1166.41 1070.63 1165.37 C 1097.94 1164.32 1080.54 1201.49 1092.27 1228.8 C 1103.99 1256.11 1112.01 1299.34 1084.71 1296.71 C 1057.4 1294.08 1057.4 1348.7 1084.71 1324.02 C 1112.01 1299.34 1082.63 1338.03 1092.27 1365.33 C 1101.9 1392.64 1102.75 1424.13 1075.44 1414.22 C 1048.14 1404.32 1048.14 1458.93 1075.44 1441.53 C 1102.75 1424.13 1104.94 1474.56 1092.27 1501.87 C 1079.6 1529.17 1072.06 1575.44 1099.36 1565.17 C 1126.67 1554.91 1126.67 1609.52 1099.36 1592.48 C 1072.06 1575.44 1095.88 1611.09 1092.27 1638.4 C 1088.65 1665.71 1081.83 1689.12 1109.14 1688.29 C 1136.44 1687.46 1136.44 1742.07 1109.14 1715.6 C 1081.83 1689.12 1083.8 1747.63 1092.27 1774.93 C 1100.73 1802.24 1077.12 1829.05 1104.43 1822.11 C 1131.73 1815.18 1131.73 1869.8 1104.43 1849.42 C 1077.12 1829.05 1095.13 1884.16 1092.27 1911.47 C 1089.41 1938.77 1099.51 1974.12 1072.2 1966.43 C 1044.9 1958.74 1044.9 2013.35 1072.2 1993.74 C 1099.51 1974.12 1101.0 2020.69 1092.27 2048.0 M 1228.8,0.0 C 1215.19 27.31 1228.46 59.15 1255.77 47.72 C 1283.07 36.3 1283.07 90.91 1255.77 75.03 C 1228.46 59.15 1241.95 109.23 1228.8 136.53 C 1215.65 163.84 1211.83 208.73 1239.14 188.29 C 1266.44 167.85 1266.44 222.46 1239.14 215.6 C 1211.83 208.73 1224.61 245.76 1228.8 273.07 C 1232.99 300.37 1251.46 337.89 1224.15 323.88 C 1196.85 309.88 1196.85 364.49 1224.15 351.19 C 1251.46 337.89 1219.6 382.29 1228.8 409.6 C 1238.0 436.91 1211.06 480.04 1238.37 464.5 C 1265.67 448.95 1265.67 503.57 1238.37 491.8 C 1211.06 480.04 1238.54 518.83 1228.8 546.13 C 1219.06 573.44 1231.89 624.21 1204.59 611.63 C 1177.28 599.06 1177.28 653.67 1204.59 638.94 C 1231.89 624.21 1233.73 655.36 1228.8 682.67 C 1223.87 709.97 1240.27 758.34 1212.96 745.14 C 1185.65 731.94 1185.65 786.56 1212.96 772.45 C 1240.27 758.34 1235.63 791.89 1228.8 819.2 C 1221.97 846.51 1240.7 892.06 1213.39 866.12 C 1186.08 840.18 1186.08 894.8 1213.39 893.43 C 1240.7 892.06 1239.96 928.43 1228.8 955.73 C 1217.64 983.04 1239.92 1029.8 1212.61 1006.44 C 1185.3 983.08 1185.3 1037.69 1212.61 1033.75 C 1239.92 1029.8 1239.88 1064.96 1228.8 1092.27 C 1217.72 1119.57 1219.97 1166.62 1247.27 1141.23 C 1274.58 1115.85 1274.58 1170.46 1247.27 1168.54 C 1219.97 1166.62 1234.02 1201.49 1228.8 1228.8 C 1223.58 1256.11 1246.09 1308.18 1218.78 1290.13 C 1191.48 1272.08 1191.48 1326.69 1218.78 1317.43 C 1246.09 1308.18 1241.82 1338.03 1228.8 1365.33 C 1215.78 1392.64 1234.36 1431.77 1207.06 1430.56 C 1179.75 1429.34 1179.75 1483.95 1207.06 1457.86 C 1234.36 1431.77 1232.82 1474.56 1228.8 1501.87 C 1224.78 1529.17 1203.53 1565.85 1230.84 1562.22 C 1258.14 1558.58 1258.14 1613.19 1230.84 1589.52 C 1203.53 1565.85 1236.35 1611.09 1228.8 1638.4 C 1221.25 1665.71 1206.54 1702.49 1233.85 1699.3 C 1261.15 1696.11 1261.15 1750.72 1233.85 1726.61 C 1206.54 1702.49 1229.91 1747.63 1228.8 1774.93 C 1227.69 1802.24 1241.54 1845.28 1214.23 1822.82 C 1186.92 1800.36 1186.92 1854.97 1214.23 1850.13 C 1241.54 1845.28 1222.43 1884.16 1228.8 1911.47 C 1235.17 1938.77 1245.2 1980.8 1217.9 1975.19 C 1190.59 1969.59 1190.59 2024.2 1217.9 2002.5 C 1245.2 1980.8 1232.63 2020.69 1228.8 2048.0 M 1365.33,0.0 C 1370.69 27.31 1387.89 74.41 1360.58 54.27 C 1333.28 34.12 1333.28 88.73 1360.58 81.57 C 1387.89 74.41 1354.2 109.23 1365.33 136.53 C 1376.47 163.84 1345.8 202.04 1373.1 199.3 C 1400.41 196.57 1400.41 251.18 1373.1 226.61 C 1345.8 202.04 1378.14 245.76 1365.33 273.07 C 1352.52 300.37 1369.3 335.55 1341.99 319.81 C 1314.69 304.07 1314.69 358.68 1341.99 347.12 C 1369.3 335.55 1366.14 382.29 1365.33 409.6 C 1364.53 436.91 1364.49 462.05 1391.79 451.28 C 1419.1 440.52 1419.1 495.14 1391.79 478.59 C 1364.49 462.05 1366.1 518.83 1365.33 546.13 C 1364.57 573.44 1355.29 597.76 1382.59 591.24 C 1409.9 584.72 1409.9 639.34 1382.59 618.55 C 1355.29 597.76 1357.03 655.36 1365.33 682.67 C 1373.64 709.97 1345.09 745.06 1372.4 741.03 C 1399.7 737.0 1399.7 791.61 1372.4 768.34 C 1345.09 745.06 1370.5 791.89 1365.33 819.2 C 1360.17 846.51 1341.11 903.1 1368.41 884.34 C 1395.72 865.58 1395.72 920.19 1368.41 911.64 C 1341.11 903.1 1376.42 928.43 1365.33 955.73 C 1354.25 983.04 1339.56 1006.27 1366.86 998.96 C 1394.17 991.65 1394.17 1046.27 1366.86 1026.27 C 1339.56 1006.27 1360.86 1064.96 1365.33 1092.27 C 1369.8 1119.57 1361.74 1154.19 1389.05 1145.28 C 1416.35 1136.37 1416.35 1190.99 1389.05 1172.59 C 1361.74 1154.19 1376.13 1201.49 1365.33 1228.8 C 1354.53 1256.11 1392.38 1280.7 1365.08 1274.07 C 1337.77 1267.44 1337.77 1322.05 1365.08 1301.37 C 1392.38 1280.7 1372.34 1338.03 1365.33 1365.33 C 1358.33 1392.64 1373.38 1445.59 1346.07 1428.99 C 1318.77 1412.39 1318.77 1467.0 1346.07 1456.29 C 1373.38 1445.59 1362.71 1474.56 1365.33 1501.87 C 1367.96 1529.17 1380.98 1570.83 1353.67 1567.14 C 1326.37 1563.45 1326.37 1618.06 1353.67 1594.44 C 1380.98 1570.83 1368.25 1611.09 1365.33 1638.4 C 1362.42 1665.71 1344.32 1714.65 1371.63 1696.11 C 1398.93 1677.56 1398.93 1732.17 1371.63 1723.41 C 1344.32 1714.65 1366.8 1747.63 1365.33 1774.93 C 1363.86 1802.24 1372.03 1853.18 1344.72 1832.21 C 1317.41 1811.24 1317.41 1865.85 1344.72 1859.52 C 1372.03 1853.18 1361.1 1884.16 1365.33 1911.47 C 1369.57 1938.77 1359.03 1956.82 1386.34 1952.74 C 1413.64 1948.65 1413.64 2003.26 1386.34 1980.04 C 1359.03 1956.82 1360.55 2020.69 1365.33 2048.0 M 1501.87,0.0 C 1512.07 27.31 1524.13 74.17 1496.83 53.53 C 1469.52 32.88 1469.52 87.49 1496.83 80.83 C 1524.13 74.17 1512.71 109.23 1501.87 136.53 C 1491.02 163.84 1499.02 197.67 1526.33 185.03 C 1553.64 172.39 1553.64 227.01 1526.33 212.34 C 1499.02 197.67 1488.88 245.76 1501.87 273.07 C 1514.86 300.37 1502.44 336.67 1475.14 321.14 C 1447.83 305.61 1447.83 360.22 1475.14 348.45 C 1502.44 336.67 1505.31 382.29 1501.87 409.6 C 1498.43 436.91 1495.9 492.34 1523.2 467.28 C 1550.51 442.23 1550.51 496.85 1523.2 494.59 C 1495.9 492.34 1493.01 518.83 1501.87 546.13 C 1510.73 573.44 1505.65 628.6 1478.34 611.45 C 1451.03 594.3 1451.03 648.91 1478.34 638.75 C 1505.65 628.6 1508.2 655.36 1501.87 682.67 C 1495.54 709.97 1514.95 736.3 1487.64 729.6 C 1460.33 722.91 1460.33 777.52 1487.64 756.91 C 1514.95 736.3 1498.66 791.89 1501.87 819.2 C 1505.07 846.51 1512.27 889.64 1484.97 872.95 C 1457.66 856.26 1457.66 910.87 1484.97 900.26 C 1512.27 889.64 1494.11 928.43 1501.87 955.73 C 1509.62 983.04 1476.08 1037.15 1503.38 1012.88 C 1530.69 988.61 1530.69 1043.22 1503.38 1040.18 C 1476.08 1037.15 1508.8 1064.96 1501.87 1092.27 C 1494.93 1119.57 1500.57 1157.56 1527.88 1142.06 C 1555.19 1126.57 1555.19 1181.18 1527.88 1169.37 C 1500.57 1157.56 1491.76 1201.49 1501.87 1228.8 C 1511.97 1256.11 1515.07 1280.1 1487.76 1270.59 C 1460.45 1261.07 1460.45 1315.69 1487.76 1297.9 C 1515.07 1280.1 1490.18 1338.03 1501.87 1365.33 C 1513.56 1392.64 1505.44 1450.56 1478.13 1430.04 C 1450.83 1409.53 1450.83 1464.14 1478.13 1457.35 C 1505.44 1450.56 1513.66 1474.56 1501.87 1501.87 C 1490.07 1529.17 1513.45 1588.09 1486.15 1561.99 C 1458.84 1535.9 1458.84 1590.51 1486.15 1589.3 C 1513.45 1588.09 1508.9 1611.09 1501.87 1638.4 C 1494.83 1665.71 1527.26 1707.79 1499.96 1687.12 C 1472.65 1666.45 1472.65 1721.06 1499.96 1714.42 C 1527.26 1707.79 1490.82 1747.63 1501.87 1774.93 C 1512.92 1802.24 1525.34 1851.54 1498.03 1826.48 C 1470.73 1801.42 1470.73 1856.04 1498.03 1853.79 C 1525.34 1851.54 1495.9 1884.16 1501.87 1911.47 C 1507.84 1938.77 1481.69 1979.03 1509.0 1961.66 C 1536.3 1944.3 1536.3 1998.91 1509.0 1988.97 C 1481.69 1979.03 1513.74 2020.69 1501.87 2048.0 M 1638.4,0.0 C 1625.4 27.31 1662.7 80.79 1635.4 66.34 C 1608.09 51.9 1608.09 106.51 1635.4 93.65 C 1662.7 80.79 1636.31 109.23 1638.4 136.53 C 1640.49 163.84 1649.58 194.03 1622.28 181.78 C 1594.97 169.52 1594.97 224.14 1622.28 209.09 C 1649.58 194.03 1627.77 245.76 1638.4 273.07 C 1649.03 300.37 1647.21 324.26 1619.91 317.39 C 1592.6 310.52 1592.6 365.13 1619.91 344.7 C 1647.21 324.26 1628.23 382.29 1638.4 409.6 C 1648.57 436.91 1645.35 464.57 1618.05 459.19 C 1590.74 453.8 1590.74 508.41 1618.05 486.49 C 1645.35 464.57 1640.36 518.83 1638.4 546.13 C 1636.44 573.44 1661.36 618.11 1634.05 603.96 C 1606.75 589.81 1606.75 644.43 1634.05 631.27 C 1661.36 618.11 1650.47 655.36 1638.4 682.67 C 1626.33 709.97 1628.37 761.75 1655.67 742.23 C 1682.98 722.71 1682.98 777.32 1655.67 769.54 C 1628.37 761.75 1650.14 791.89 1638.4 819.2 C 1626.66 846.51 1653.61 893.74 1626.31 875.09 C 1599.0 856.43 1599.0 911.05 1626.31 902.39 C 1653.61 893.74 1651.28 928.43 1638.4 955.73 C 1625.52 983.04 1650.99 1022.45 1623.68 1013.02 C 1596.38 1003.6 1596.38 1058.21 1623.68 1040.33 C 1650.99 1022.45 1644.46 1064.96 1638.4 1092.27 C 1632.34 1119.57 1638.05 1149.21 1665.36 1142.17 C 1692.66 1135.12 1692.66 1189.74 1665.36 1169.47 C 1638.05 1149.21 1630.87 1201.49 1638.4 1228.8 C 1645.93 1256.11 1663.62 1288.36 1636.31 1275.71 C 1609.01 1263.06 1609.01 1317.68 1636.31 1303.02 C 1663.62 1288.36 1638.83 1338.03 1638.4 1365.33 C 1637.97 1392.64 1656.12 1429.03 1628.81 1407.83 C 1601.51 1386.64 1601.51 1441.25 1628.81 1435.14 C 1656.12 1429.03 1650.45 1474.56 1638.4 1501.87 C 1626.35 1529.17 1620.33 1583.85 1647.64 1557.65 C 1674.95 1531.45 1674.95 1586.06 1647.64 1584.96 C 1620.33 1583.85 1642.99 1611.09 1638.4 1638.4 C 1633.81 1665.71 1664.49 1705.45 1637.19 1700.69 C 1609.88 1695.94 1609.88 1750.55 1637.19 1728.0 C 1664.49 1705.45 1649.34 1747.63 1638.4 1774.93 C 1627.46 1802.24 1619.77 1821.89 1647.08 1820.35 C 1674.38 1818.8 1674.38 1873.41 1647.08 1847.65 C 1619.77 1821.89 1651.39 1884.16 1638.4 1911.47 C 1625.41 1938.77 1643.99 1985.16 1616.69 1973.0 C 1589.38 1960.84 1589.38 2015.45 1616.69 2000.3 C 1643.99 1985.16 1643.24 2020.69 1638.4 2048.0 M 1774.93,0.0 C 1776.35 27.31 1749.91 68.88 1777.22 56.52 C 1804.52 44.16 1804.52 98.77 1777.22 83.83 C 1749.91 68.88 1763.05 109.23 1774.93 136.53 C 1786.82 163.84 1783.66 197.73 1756.35 188.36 C 1729.05 178.99 1729.05 233.61 1756.35 215.67 C 1783.66 197.73 1785.2 245.76 1774.93 273.07 C 1764.66 300.37 1784.53 366.74 1757.22 339.57 C 1729.92 312.41 1729.92 367.02 1757.22 366.88 C 1784.53 366.74 1773.0 382.29 1774.93 409.6 C 1776.87 436.91 1768.53 470.93 1795.84 469.81 C 1823.15 468.68 1823.15 523.29 1795.84 497.11 C 1768.53 470.93 1775.03 518.83 1774.93 546.13 C 1774.84 573.44 1799.0 615.68 1771.7 592.18 C 1744.39 568.68 1744.39 623.3 1771.7 619.49 C 1799.0 615.68 1785.3 655.36 1774.93 682.67 C 1764.57 709.97 1767.38 759.28 1794.68 749.78 C 1821.99 740.28 1821.99 794.89 1794.68 777.09 C 1767.38 759.28 1767.94 791.89 1774.93 819.2 C 1781.92 846.51 1767.62 887.01 1794.93 866.57 C 1822.23 846.14 1822.23 900.75 1794.93 893.88 C 1767.62 887.01 1769.92 928.43 1774.93 955.73 C 1779.95 983.04 1778.01 1039.74 1750.7 1021.0 C 1723.4 1002.26 1723.4 1056.88 1750.7 1048.31 C 1778.01 1039.74 1787.53 1064.96 1774.93 1092.27 C 1762.34 1119.57 1770.0 1139.85 1797.31 1136.29 C 1824.62 1132.72 1824.62 1187.33 1797.31 1163.59 C 1770.0 1139.85 1778.52 1201.49 1774.93 1228.8 C 1771.34 1256.11 1756.07 1307.14 1783.38 1286.51 C 1810.69 1265.88 1810.69 1320.49 1783.38 1313.82 C 1756.07 1307.14 1781.09 1338.03 1774.93 1365.33 C 1768.77 1392.64 1769.98 1431.9 1797.28 1408.07 C 1824.59 1384.24 1824.59 1438.85 1797.28 1435.37 C 1769.98 1431.9 1776.64 1474.56 1774.93 1501.87 C 1773.23 1529.17 1795.91 1557.12 1768.6 1552.27 C 1741.29 1547.43 1741.29 1602.04 1768.6 1579.58 C 1795.91 1557.12 1782.17 1611.09 1774.93 1638.4 C 1767.69 1665.71 1800.17 1713.51 1772.87 1698.8 C 1745.56 1684.09 1745.56 1738.7 1772.87 1726.11 C 1800.17 1713.51 1764.9 1747.63 1774.93 1774.93 C 1784.97 1802.24 1780.67 1843.59 1753.36 1824.25 C 1726.06 1804.92 1726.06 1859.54 1753.36 1851.56 C 1780.67 1843.59 1779.78 1884.16 1774.93 1911.47 C 1770.09 1938.77 1788.69 1981.15 1761.39 1970.47 C 1734.08 1959.79 1734.08 2014.41 1761.39 1997.78 C 1788.69 1981.15 1778.92 2020.69 1774.93 2048.0 M 1911.47,0.0 C 1903.84 27.31 1911.12 63.71 1938.43 45.63 C 1965.73 27.55 1965.73 82.16 1938.43 72.94 C 1911.12 63.71 1912.74 109.23 1911.47 136.53 C 1910.19 163.84 1885.94 213.21 1913.24 193.61 C 1940.55 174.02 1940.55 228.63 1913.24 220.92 C 1885.94 213.21 1923.01 245.76 1911.47 273.07 C 1899.93 300.37 1935.74 326.93 1908.44 324.42 C 1881.13 321.91 1881.13 376.52 1908.44 351.72 C 1935.74 326.93 1914.49 382.29 1911.47 409.6 C 1908.45 436.91 1897.66 476.62 1924.97 464.46 C 1952.28 452.3 1952.28 506.92 1924.97 491.77 C 1897.66 476.62 1912.23 518.83 1911.47 546.13 C 1910.71 573.44 1892.92 632.39 1920.23 612.24 C 1947.53 592.09 1947.53 646.7 1920.23 639.54 C 1892.92 632.39 1921.26 655.36 1911.47 682.67 C 1901.67 709.97 1894.41 748.48 1921.72 740.81 C 1949.03 733.15 1949.03 787.76 1921.72 768.12 C 1894.41 748.48 1904.85 791.89 1911.47 819.2 C 1918.08 846.51 1902.91 892.96 1930.21 873.49 C 1957.52 854.03 1957.52 908.64 1930.21 900.8 C 1902.91 892.96 1924.19 928.43 1911.47 955.73 C 1898.74 983.04 1925.48 1038.84 1898.17 1012.86 C 1870.87 986.89 1870.87 1041.5 1898.17 1040.17 C 1925.48 1038.84 1901.39 1064.96 1911.47 1092.27 C 1921.54 1119.57 1917.57 1170.28 1890.27 1159.57 C 1862.96 1148.86 1862.96 1203.47 1890.27 1186.88 C 1917.57 1170.28 1905.94 1201.49 1911.47 1228.8 C 1917.0 1256.11 1920.17 1315.93 1892.86 1290.38 C 1865.56 1264.84 1865.56 1319.45 1892.86 1317.69 C 1920.17 1315.93 1903.42 1338.03 1911.47 1365.33 C 1919.52 1392.64 1919.82 1427.83 1892.51 1426.0 C 1865.21 1424.18 1865.21 1478.8 1892.51 1453.31 C 1919.82 1427.83 1909.02 1474.56 1911.47 1501.87 C 1913.91 1529.17 1923.28 1563.78 1895.97 1545.6 C 1868.66 1527.41 1868.66 1582.03 1895.97 1572.9 C 1923.28 1563.78 1909.66 1611.09 1911.47 1638.4 C 1913.27 1665.71 1894.67 1698.27 1921.97 1694.29 C 1949.28 1690.31 1949.28 1744.93 1921.97 1721.6 C 1894.67 1698.27 1906.61 1747.63 1911.47 1774.93 C 1916.32 1802.24 1915.15 1836.04 1887.84 1831.51 C 1860.53 1826.98 1860.53 1881.59 1887.84 1858.81 C 1915.15 1836.04 1924.47 1884.16 1911.47 1911.47 C 1898.46 1938.77 1931.7 1991.3 1904.39 1964.02 C 1877.09 1936.73 1877.09 1991.35 1904.39 1991.32 C 1931.7 1991.3 1902.46 2020.69 1911.47 2048.0 "></path><path fill="none" stroke="Black" stroke-width="0.01" class="border" d="M 2.0 0.0 L 2046.0 0.0 A 2.0 2.0 0 0 1 2048.0 2.0 L 2048.0 2046.0 A 2.0 2.0 0 0 1 2046.0 2048.0 L 2.0 2048.0 A 2.0 2.0 0 0 1 0.0 2046.0 L 0.0 2.0 A 2.0 2.0 0 0 1 2.0 0.0 "></path></svg>