<svg xmlns="http://www.w3.org/2000/svg" version="1.0" width="2048mm" height="2048mm" viewBox="0 0 2048 2048"><path fill="none" stroke="Black" stroke-width="0.01"  class="horizontal" d="M 0.0,512.0 C 102.4 482.75 244.85 611.81 242.84 509.41 C 240.83 407.01 445.63 407.01 345.24 509.41 C 244.85 611.81 409.6 471.34 512.0 512.0 C 614.4 552.66 741.36 515.47 697.84 413.07 C 654.31 310.67 859.11 310.67 800.24 413.07 C 741.36 515.47 921.6 478.89 1024.0 512.0 C 1126.4 545.11 1316.44 460.94 1226.38 563.34 C 1136.31 665.74 1341.11 665.74 1328.78 563.34 C 1316.44 460.94 1433.6 541.69 1536.0 512.0 C 1638.4 482.31 1706.7 579.44 1701.93 477.04 C 1697.16 374.64 1901.96 374.64 1804.33 477.04 C 1706.7 579.44 1945.6 488.25 2048.0 512.0 M 0.0,1024.0 C 102.4 1032.23 248.56 1103.15 221.59 1000.75 C 194.63 898.35 399.43 898.35 323.99 1000.75 C 248.56 1103.15 409.6 1048.24 512.0 1024.0 C 614.4 999.76 706.88 1083.92 701.35 981.52 C 695.83 879.12 900.63 879.12 803.75 981.52 C 706.88 1083.92 921.6 1031.28 1024.0 1024.0 C 1126.4 1016.72 1282.38 927.07 1207.27 1029.47 C 1132.15 1131.87 1336.95 1131.87 1309.67 1029.47 C 1282.38 927.07 1433.6 1056.28 1536.0 1024.0 C 1638.4 991.72 1745.91 1096.51 1721.45 994.11 C 1697.0 891.71 1901.8 891.71 1823.85 994.11 C 1745.91 1096.51 1945.6 981.6 2048.0 1024.0 M 0.0,1536.0 C 102.4 1505.49 283.92 1543.74 191.16 1441.34 C 98.4 1338.94 303.2 1338.94 293.56 1441.34 C 283.92 1543.74 409.6 1498.06 512.0 1536.0 C 614.4 1573.94 806.73 1444.9 749.78 1547.3 C 692.83 1649.7 897.63 1649.7 852.18 1547.3 C 806.73 1444.9 921.6 1546.83 1024.0 1536.0 C 1126.4 1525.17 1239.11 1570.78 1208.33 1468.38 C 1177.56 1365.98 1382.36 1365.98 1310.73 1468.38 C 1239.11 1570.78 1433.6 1527.95 1536.0 1536.0 C 1638.4 1544.05 1780.22 1448.89 1721.54 1551.29 C 1662.86 1653.69 1867.66 1653.69 1823.94 1551.29 C 1780.22 1448.89 1945.6 1553.11 2048.0 1536.0 "></path><path fill="none" stroke="Black" stroke-width="0.01"  class="vertical" d="M 512.0,0.0 C 505.02 102.4 549.91 196.43 447.51 191.16 C 345.11 185.88 345.11 390.68 447.51 293.56 C 549.91 196.43 557.97 409.6 512.0 512.0 C 466.03 614.4 554.78 810.94 452.38 722.17 C 349.98 633.41 349.98 838.21 452.38 824.57 C 554.78 810.94 474.33 921.6 512.0 1024.0 C 549.67 1126.4 563.58 1299.3 461.18 1241.35 C 358.78 1183.39 358.78 1388.19 461.18 1343.75 C 563.58 1299.3 504.78 1433.6 512.0 1536.0 C 519.22 1638.4 532.02 1713.43 429.62 1705.34 C 327.22 1697.24 327.22 1902.04 429.62 1807.74 C 532.02 1713.43 530.55 1945.6 512.0 2048.0 M 1024.0,0.0 C 996.4 102.4 978.9 282.62 1081.3 205.13 C 1183.7 127.64 1183.7 332.44 1081.3 307.53 C 978.9 282.62 984.35 409.6 1024.0 512.0 C 1063.65 614.4 1012.41 772.44 1114.81 715.38 C 1217.21 658.31 1217.21 863.11 1114.81 817.78 C 1012.41 772.44 1074.7 921.6 1024.0 1024.0 C 973.3 1126.4 1119.98 1279.9 1017.58 1254.9 C 915.18 1229.9 915.18 1434.7 1017.58 1357.3 C 1119.98 1279.9 974.71 1433.6 1024.0 1536.0 C 1073.29 1638.4 1031.42 1823.73 929.02 1769.56 C 826.62 1715.39 826.62 1920.19 929.02 1871.96 C 1031.42 1823.73 1035.1 1945.6 1024.0 2048.0 M 1536.0,0.0 C 1517.18 102.4 1476.63 204.3 1579.03 200.79 C 1681.43 197.27 1681.43 402.07 1579.03 303.19 C 1476.63 204.3 1539.52 409.6 1536.0 512.0 C 1532.48 614.4 1500.38 750.4 1602.78 745.96 C 1705.18 741.52 1705.18 946.32 1602.78 848.36 C 1500.38 750.4 1485.83 921.6 1536.0 1024.0 C 1586.17 1126.4 1590.45 1268.55 1488.05 1250.76 C 1385.65 1232.98 1385.65 1437.78 1488.05 1353.16 C 1590.45 1268.55 1560.24 1433.6 1536.0 1536.0 C 1511.76 1638.4 1448.82 1796.54 1551.22 1712.07 C 1653.62 1627.6 1653.62 1832.4 1551.22 1814.47 C 1448.82 1796.54 1585.79 1945.6 1536.0 2048.0 "></path><path fill="none" stroke="Black" stroke-width="0.01" class="border" d="M 2.0 0.0 L 2046.0 0.0 A 2.0 2.0 0 0 1 2048.0 2.0 L 2048.0 2046.0 A 2.0 2.0 0 0 1 2046.0 2048.0 L 2.0 2048.0 A 2.0 2.0 0 0 1 0.0 2046.0 L 0.0 2.0 A 2.0 2.0 0 0 1 2.0 0.0 "></path></svg>