<svg xmlns="http://www.w3.org/2000/svg" version="1.0" width="2048mm" height="2048mm" viewBox="0 0 2048 2048"><path fill="none" stroke="Black" stroke-width="0.01"  class="horizontal" d="M 0.0,256.0 C 51.2 252.5 118.44 270.49 108.53 219.29 C 98.61 168.09 201.01 168.09 159.73 219.29 C 118.44 270.49 204.8 241.94 256.0 256.0 C 307.2 270.06 391.84 299.97 366.74 248.77 C 341.64 197.57 444.04 197.57 417.94 248.77 C 391.84 299.97 460.8 251.87 512.0 256.0 C 563.2 260.13 640.3 244.72 625.98 295.92 C 611.66 347.12 714.06 347.12 677.18 295.92 C 640.3 244.72 716.8 254.07 768.0 256.0 C 819.2 257.93 937.43 248.06 886.95 299.26 C 836.46 350.46 938.86 350.46 938.15 299.26 C 937.43 248.06 972.8 268.22 1024.0 256.0 C 1075.2 243.78 1122.74 205.05 1115.26 256.25 C 1107.78 307.45 1210.18 307.45 1166.46 256.25 C 1122.74 205.05 1228.8 231.75 1280.0 256.0 C 1331.2 280.25 1424.96 219.38 1403.21 270.58 C 1381.46 321.78 1483.86 321.78 1454.41 270.58 C 1424.96 219.38 1484.8 280.86 1536.0 256.0 C 1587.2 231.14 1643.46 281.0 1619.4 229.8 C 1595.34 178.6 1697.74 178.6 1670.6 229.8 C 1643.46 281.0 1740.8 267.84 1792.0 256.0 C 1843.2 244.16 1948.04 292.45 1917.09 241.25 C 1886.15 190.05 1988.55 190.05 1968.29 241.25 C 1948.04 292.45 1996.8 241.88 2048.0 256.0 M 0.0,512.0 C 51.2 509.96 93.19 510.37 82.83 561.57 C 72.46 612.77 174.86 612.77 134.03 561.57 C 93.19 510.37 204.8 525.24 256.0 512.0 C 307.2 498.76 346.96 501.22 335.68 552.42 C 324.39 603.62 426.79 603.62 386.88 552.42 C 346.96 501.22 460.8 492.33 512.0 512.0 C 563.2 531.67 646.29 506.09 626.39 557.29 C 606.49 608.49 708.89 608.49 677.59 557.29 C 646.29 506.09 716.8 493.6 768.0 512.0 C 819.2 530.4 897.41 470.69 859.46 521.89 C 821.52 573.09 923.92 573.09 910.66 521.89 C 897.41 470.69 972.8 533.8 1024.0 512.0 C 1075.2 490.2 1163.58 497.21 1129.77 548.41 C 1095.96 599.61 1198.36 599.61 1180.97 548.41 C 1163.58 497.21 1228.8 516.96 1280.0 512.0 C 1331.2 507.04 1440.03 529.36 1397.42 478.16 C 1354.82 426.96 1457.22 426.96 1448.62 478.16 C 1440.03 529.36 1484.8 503.9 1536.0 512.0 C 1587.2 520.1 1688.53 513.31 1639.23 462.11 C 1589.92 410.91 1692.32 410.91 1690.43 462.11 C 1688.53 513.31 1740.8 534.74 1792.0 512.0 C 1843.2 489.26 1923.49 502.07 1916.69 553.27 C 1909.88 604.47 2012.28 604.47 1967.89 553.27 C 1923.49 502.07 1996.8 521.26 2048.0 512.0 M 0.0,768.0 C 51.2 763.42 140.56 763.52 100.65 814.72 C 60.74 865.92 163.14 865.92 151.85 814.72 C 140.56 763.52 204.8 767.98 256.0 768.0 C 307.2 768.02 394.43 786.72 376.14 735.52 C 357.86 684.32 460.26 684.32 427.34 735.52 C 394.43 786.72 460.8 791.13 512.0 768.0 C 563.2 744.87 634.97 725.76 594.56 776.96 C 554.16 828.16 656.56 828.16 645.76 776.96 C 634.97 725.76 716.8 745.6 768.0 768.0 C 819.2 790.4 885.37 760.16 862.25 811.36 C 839.13 862.56 941.53 862.56 913.45 811.36 C 885.37 760.16 972.8 769.55 1024.0 768.0 C 1075.2 766.45 1173.71 718.12 1134.73 769.32 C 1095.75 820.52 1198.15 820.52 1185.93 769.32 C 1173.71 718.12 1228.8 749.06 1280.0 768.0 C 1331.2 786.94 1418.02 748.89 1405.35 800.09 C 1392.67 851.29 1495.07 851.29 1456.55 800.09 C 1418.02 748.89 1484.8 764.53 1536.0 768.0 C 1587.2 771.47 1667.52 806.6 1625.0 755.4 C 1582.49 704.2 1684.89 704.2 1676.2 755.4 C 1667.52 806.6 1740.8 766.86 1792.0 768.0 C 1843.2 769.14 1896.48 785.11 1875.55 733.91 C 1854.62 682.71 1957.02 682.71 1926.75 733.91 C 1896.48 785.11 1996.8 757.52 2048.0 768.0 M 0.0,1024.0 C 51.2 1010.17 130.77 1015.07 86.49 1066.27 C 42.21 1117.47 144.61 1117.47 137.69 1066.27 C 130.77 1015.07 204.8 1001.55 256.0 1024.0 C 307.2 1046.45 376.95 981.54 351.28 1032.74 C 325.6 1083.94 428.0 1083.94 402.48 1032.74 C 376.95 981.54 460.8 1034.08 512.0 1024.0 C 563.2 1013.92 610.31 1060.88 599.6 1009.68 C 588.89 958.48 691.29 958.48 650.8 1009.68 C 610.31 1060.88 716.8 1042.54 768.0 1024.0 C 819.2 1005.46 910.63 976.46 869.6 1027.66 C 828.56 1078.86 930.96 1078.86 920.8 1027.66 C 910.63 976.46 972.8 1009.38 1024.0 1024.0 C 1075.2 1038.62 1192.65 997.76 1149.01 1048.96 C 1105.38 1100.16 1207.78 1100.16 1200.21 1048.96 C 1192.65 997.76 1228.8 1007.55 1280.0 1024.0 C 1331.2 1040.45 1418.17 1064.15 1368.08 1012.95 C 1317.98 961.75 1420.38 961.75 1419.28 1012.95 C 1418.17 1064.15 1484.8 1012.17 1536.0 1024.0 C 1587.2 1035.83 1677.24 1059.26 1628.18 1008.06 C 1579.13 956.86 1681.53 956.86 1679.38 1008.06 C 1677.24 1059.26 1740.8 1013.4 1792.0 1024.0 C 1843.2 1034.6 1871.11 1014.47 1869.94 1065.67 C 1868.78 1116.87 1971.18 1116.87 1921.14 1065.67 C 1871.11 1014.47 1996.8 1033.31 2048.0 1024.0 M 0.0,1280.0 C 51.2 1274.8 122.78 1275.54 119.33 1326.74 C 115.87 1377.94 218.27 1377.94 170.53 1326.74 C 122.78 1275.54 204.8 1260.22 256.0 1280.0 C 307.2 1299.78 398.65 1238.15 367.42 1289.35 C 336.19 1340.55 438.59 1340.55 418.62 1289.35 C 398.65 1238.15 460.8 1286.26 512.0 1280.0 C 563.2 1273.74 655.16 1325.68 622.61 1274.48 C 590.06 1223.28 692.46 1223.28 673.81 1274.48 C 655.16 1325.68 716.8 1281.85 768.0 1280.0 C 819.2 1278.15 901.79 1242.16 853.22 1293.36 C 804.64 1344.56 907.04 1344.56 904.42 1293.36 C 901.79 1242.16 972.8 1259.64 1024.0 1280.0 C 1075.2 1300.36 1159.02 1304.74 1124.07 1253.54 C 1089.11 1202.34 1191.51 1202.34 1175.27 1253.54 C 1159.02 1304.74 1228.8 1278.32 1280.0 1280.0 C 1331.2 1281.68 1421.68 1306.0 1375.66 1254.8 C 1329.64 1203.6 1432.04 1203.6 1426.86 1254.8 C 1421.68 1306.0 1484.8 1262.16 1536.0 1280.0 C 1587.2 1297.84 1654.95 1274.58 1615.15 1325.78 C 1575.35 1376.98 1677.75 1376.98 1666.35 1325.78 C 1654.95 1274.58 1740.8 1278.71 1792.0 1280.0 C 1843.2 1281.29 1901.22 1320.08 1871.3 1268.88 C 1841.38 1217.68 1943.78 1217.68 1922.5 1268.88 C 1901.22 1320.08 1996.8 1303.18 2048.0 1280.0 M 0.0,1536.0 C 51.2 1535.06 159.75 1513.96 127.2 1565.16 C 94.64 1616.36 197.04 1616.36 178.4 1565.16 C 159.75 1513.96 204.8 1548.8 256.0 1536.0 C 307.2 1523.2 384.72 1585.18 338.82 1533.98 C 292.91 1482.78 395.31 1482.78 390.02 1533.98 C 384.72 1585.18 460.8 1527.45 512.0 1536.0 C 563.2 1544.55 617.98 1507.63 617.56 1558.83 C 617.13 1610.03 719.53 1610.03 668.76 1558.83 C 617.98 1507.63 716.8 1529.65 768.0 1536.0 C 819.2 1542.35 888.03 1573.96 863.67 1522.76 C 839.32 1471.56 941.72 1471.56 914.87 1522.76 C 888.03 1573.96 972.8 1555.6 1024.0 1536.0 C 1075.2 1516.4 1154.66 1580.1 1135.1 1528.9 C 1115.53 1477.7 1217.93 1477.7 1186.3 1528.9 C 1154.66 1580.1 1228.8 1557.58 1280.0 1536.0 C 1331.2 1514.42 1390.64 1565.05 1376.16 1513.85 C 1361.68 1462.65 1464.08 1462.65 1427.36 1513.85 C 1390.64 1565.05 1484.8 1555.45 1536.0 1536.0 C 1587.2 1516.55 1662.36 1546.8 1613.5 1495.6 C 1564.64 1444.4 1667.04 1444.4 1664.7 1495.6 C 1662.36 1546.8 1740.8 1559.3 1792.0 1536.0 C 1843.2 1512.7 1934.33 1503.31 1917.81 1554.51 C 1901.29 1605.71 2003.69 1605.71 1969.01 1554.51 C 1934.33 1503.31 1996.8 1550.59 2048.0 1536.0 M 0.0,1792.0 C 51.2 1815.82 123.01 1806.56 121.73 1755.36 C 120.45 1704.16 222.85 1704.16 172.93 1755.36 C 123.01 1806.56 204.8 1789.12 256.0 1792.0 C 307.2 1794.88 368.49 1749.71 344.25 1800.91 C 320.01 1852.11 422.41 1852.11 395.45 1800.91 C 368.49 1749.71 460.8 1811.58 512.0 1792.0 C 563.2 1772.42 644.22 1761.93 612.54 1813.13 C 580.85 1864.33 683.25 1864.33 663.74 1813.13 C 644.22 1761.93 716.8 1785.83 768.0 1792.0 C 819.2 1798.17 880.55 1785.97 855.72 1837.17 C 830.88 1888.37 933.28 1888.37 906.92 1837.17 C 880.55 1785.97 972.8 1812.26 1024.0 1792.0 C 1075.2 1771.74 1141.07 1835.19 1139.99 1783.99 C 1138.9 1732.79 1241.3 1732.79 1191.19 1783.99 C 1141.07 1835.19 1228.8 1767.97 1280.0 1792.0 C 1331.2 1816.03 1387.95 1749.3 1375.17 1800.5 C 1362.4 1851.7 1464.8 1851.7 1426.37 1800.5 C 1387.95 1749.3 1484.8 1806.17 1536.0 1792.0 C 1587.2 1777.83 1675.46 1794.29 1660.14 1743.09 C 1644.82 1691.89 1747.22 1691.89 1711.34 1743.09 C 1675.46 1794.29 1740.8 1791.11 1792.0 1792.0 C 1843.2 1792.89 1932.2 1746.16 1895.91 1797.36 C 1859.63 1848.56 1962.03 1848.56 1947.11 1797.36 C 1932.2 1746.16 1996.8 1788.64 2048.0 1792.0 "></path><path fill="none" stroke="Black" stroke-width="0.01"  class="vertical" d="M 256.0,0.0 C 244.46 51.2 257.09 149.38 205.89 100.69 C 154.69 52.0 154.69 154.4 205.89 151.89 C 257.09 149.38 238.25 204.8 256.0 256.0 C 273.75 307.2 237.0 407.74 288.2 375.03 C 339.4 342.32 339.4 444.72 288.2 426.23 C 237.0 407.74 261.91 460.8 256.0 512.0 C 250.09 563.2 253.24 662.71 304.44 630.78 C 355.64 598.86 355.64 701.26 304.44 681.98 C 253.24 662.71 239.84 716.8 256.0 768.0 C 272.16 819.2 291.38 852.08 240.18 849.76 C 188.98 847.45 188.98 949.85 240.18 900.96 C 291.38 852.08 280.71 972.8 256.0 1024.0 C 231.29 1075.2 272.47 1173.89 221.27 1146.31 C 170.07 1118.73 170.07 1221.13 221.27 1197.51 C 272.47 1173.89 259.86 1228.8 256.0 1280.0 C 252.14 1331.2 211.01 1386.71 262.21 1382.02 C 313.41 1377.33 313.41 1479.73 262.21 1433.22 C 211.01 1386.71 253.6 1484.8 256.0 1536.0 C 258.4 1587.2 292.39 1703.0 241.19 1653.18 C 189.99 1603.36 189.99 1705.76 241.19 1704.38 C 292.39 1703.0 271.46 1740.8 256.0 1792.0 C 240.54 1843.2 227.32 1922.31 278.52 1873.94 C 329.72 1825.58 329.72 1927.98 278.52 1925.14 C 227.32 1922.31 233.23 1996.8 256.0 2048.0 M 512.0,0.0 C 536.55 51.2 498.06 125.16 549.26 101.02 C 600.46 76.88 600.46 179.28 549.26 152.22 C 498.06 125.16 499.74 204.8 512.0 256.0 C 524.26 307.2 538.02 426.13 486.82 381.98 C 435.62 337.84 435.62 440.24 486.82 433.18 C 538.02 426.13 522.46 460.8 512.0 512.0 C 501.54 563.2 483.5 678.33 534.7 633.23 C 585.9 588.12 585.9 690.52 534.7 684.43 C 483.5 678.33 526.35 716.8 512.0 768.0 C 497.65 819.2 555.98 888.88 504.78 857.86 C 453.58 826.84 453.58 929.24 504.78 909.06 C 555.98 888.88 526.11 972.8 512.0 1024.0 C 497.89 1075.2 541.29 1156.73 490.09 1150.65 C 438.89 1144.57 438.89 1246.97 490.09 1201.85 C 541.29 1156.73 512.15 1228.8 512.0 1280.0 C 511.85 1331.2 486.77 1378.26 537.97 1363.01 C 589.17 1347.76 589.17 1450.16 537.97 1414.21 C 486.77 1378.26 514.05 1484.8 512.0 1536.0 C 509.95 1587.2 479.32 1663.61 530.52 1632.29 C 581.72 1600.97 581.72 1703.37 530.52 1683.49 C 479.32 1663.61 495.49 1740.8 512.0 1792.0 C 528.51 1843.2 509.83 1923.86 561.03 1906.17 C 612.23 1888.49 612.23 1990.89 561.03 1957.37 C 509.83 1923.86 536.03 1996.8 512.0 2048.0 M 768.0,0.0 C 790.73 51.2 780.25 111.7 729.05 84.63 C 677.85 57.56 677.85 159.96 729.05 135.83 C 780.25 111.7 767.67 204.8 768.0 256.0 C 768.33 307.2 767.53 375.49 818.73 344.25 C 869.93 313.01 869.93 415.41 818.73 395.45 C 767.53 375.49 751.51 460.8 768.0 512.0 C 784.49 563.2 743.6 623.91 794.8 598.76 C 846.0 573.61 846.0 676.01 794.8 649.96 C 743.6 623.91 771.91 716.8 768.0 768.0 C 764.09 819.2 720.73 872.62 771.93 848.59 C 823.13 824.56 823.13 926.96 771.93 899.79 C 720.73 872.62 756.28 972.8 768.0 1024.0 C 779.72 1075.2 732.27 1140.37 783.47 1100.85 C 834.67 1061.33 834.67 1163.73 783.47 1152.05 C 732.27 1140.37 747.32 1228.8 768.0 1280.0 C 788.68 1331.2 743.78 1417.85 794.98 1388.5 C 846.18 1359.16 846.18 1461.56 794.98 1439.7 C 743.78 1417.85 772.96 1484.8 768.0 1536.0 C 763.04 1587.2 762.15 1692.88 813.35 1651.76 C 864.55 1610.64 864.55 1713.04 813.35 1702.96 C 762.15 1692.88 766.02 1740.8 768.0 1792.0 C 769.98 1843.2 792.0 1956.84 740.8 1919.22 C 689.6 1881.61 689.6 1984.01 740.8 1970.42 C 792.0 1956.84 772.44 1996.8 768.0 2048.0 M 1024.0,0.0 C 1043.6 51.2 989.79 141.97 1040.99 115.12 C 1092.19 88.28 1092.19 190.68 1040.99 166.32 C 989.79 141.97 1014.12 204.8 1024.0 256.0 C 1033.88 307.2 1045.79 367.71 994.59 365.63 C 943.39 363.56 943.39 465.96 994.59 416.83 C 1045.79 367.71 1010.21 460.8 1024.0 512.0 C 1037.79 563.2 1022.22 597.74 1073.42 596.8 C 1124.62 595.86 1124.62 698.26 1073.42 648.0 C 1022.22 597.74 1003.68 716.8 1024.0 768.0 C 1044.32 819.2 992.57 875.42 1043.77 873.41 C 1094.97 871.39 1094.97 973.79 1043.77 924.61 C 992.57 875.42 1039.64 972.8 1024.0 1024.0 C 1008.36 1075.2 1073.44 1113.37 1022.24 1110.34 C 971.04 1107.31 971.04 1209.71 1022.24 1161.54 C 1073.44 1113.37 1017.16 1228.8 1024.0 1280.0 C 1030.84 1331.2 1040.55 1379.67 989.35 1363.92 C 938.15 1348.18 938.15 1450.58 989.35 1415.12 C 1040.55 1379.67 1007.94 1484.8 1024.0 1536.0 C 1040.06 1587.2 980.57 1649.87 1031.77 1617.07 C 1082.97 1584.26 1082.97 1686.66 1031.77 1668.27 C 980.57 1649.87 1028.02 1740.8 1024.0 1792.0 C 1019.98 1843.2 982.81 1926.58 1034.01 1889.61 C 1085.21 1852.64 1085.21 1955.04 1034.01 1940.81 C 982.81 1926.58 1018.32 1996.8 1024.0 2048.0 M 1280.0,0.0 C 1281.39 51.2 1233.13 156.12 1284.33 114.28 C 1335.53 72.45 1335.53 174.85 1284.33 165.48 C 1233.13 156.12 1259.29 204.8 1280.0 256.0 C 1300.71 307.2 1261.75 364.89 1312.95 357.78 C 1364.15 350.67 1364.15 453.07 1312.95 408.98 C 1261.75 364.89 1295.39 460.8 1280.0 512.0 C 1264.61 563.2 1266.82 655.7 1318.02 628.87 C 1369.22 602.04 1369.22 704.44 1318.02 680.07 C 1266.82 655.7 1294.36 716.8 1280.0 768.0 C 1265.64 819.2 1255.53 896.94 1306.73 872.68 C 1357.93 848.42 1357.93 950.82 1306.73 923.88 C 1255.53 896.94 1274.8 972.8 1280.0 1024.0 C 1285.2 1075.2 1316.57 1131.18 1265.37 1125.79 C 1214.17 1120.4 1214.17 1222.8 1265.37 1176.99 C 1316.57 1131.18 1304.3 1228.8 1280.0 1280.0 C 1255.7 1331.2 1292.87 1414.69 1241.67 1364.65 C 1190.47 1314.61 1190.47 1417.01 1241.67 1415.85 C 1292.87 1414.69 1303.27 1484.8 1280.0 1536.0 C 1256.73 1587.2 1322.52 1639.82 1271.32 1639.76 C 1220.12 1639.7 1220.12 1742.1 1271.32 1690.96 C 1322.52 1639.82 1282.92 1740.8 1280.0 1792.0 C 1277.08 1843.2 1261.22 1951.19 1312.42 1916.6 C 1363.62 1882.02 1363.62 1984.42 1312.42 1967.8 C 1261.22 1951.19 1268.75 1996.8 1280.0 2048.0 M 1536.0,0.0 C 1522.33 51.2 1538.97 156.03 1487.77 119.68 C 1436.57 83.33 1436.57 185.73 1487.77 170.88 C 1538.97 156.03 1539.04 204.8 1536.0 256.0 C 1532.96 307.2 1568.19 422.71 1516.99 383.15 C 1465.79 343.59 1465.79 445.99 1516.99 434.35 C 1568.19 422.71 1539.12 460.8 1536.0 512.0 C 1532.88 563.2 1491.75 645.15 1542.95 599.77 C 1594.15 554.4 1594.15 656.8 1542.95 650.97 C 1491.75 645.15 1550.4 716.8 1536.0 768.0 C 1521.6 819.2 1508.46 936.64 1559.66 892.02 C 1610.86 847.41 1610.86 949.81 1559.66 943.22 C 1508.46 936.64 1526.02 972.8 1536.0 1024.0 C 1545.98 1075.2 1573.84 1167.25 1522.64 1133.98 C 1471.44 1100.72 1471.44 1203.12 1522.64 1185.18 C 1573.84 1167.25 1529.73 1228.8 1536.0 1280.0 C 1542.27 1331.2 1553.8 1393.57 1502.6 1369.68 C 1451.4 1345.78 1451.4 1448.18 1502.6 1420.88 C 1553.8 1393.57 1535.36 1484.8 1536.0 1536.0 C 1536.64 1587.2 1546.54 1699.79 1495.34 1658.66 C 1444.14 1617.53 1444.14 1719.93 1495.34 1709.86 C 1546.54 1699.79 1561.01 1740.8 1536.0 1792.0 C 1510.99 1843.2 1495.63 1905.23 1546.83 1873.51 C 1598.03 1841.78 1598.03 1944.18 1546.83 1924.71 C 1495.63 1905.23 1519.12 1996.8 1536.0 2048.0 M 1792.0,0.0 C 1773.8 51.2 1789.61 124.52 1840.81 102.07 C 1892.01 79.61 1892.01 182.01 1840.81 153.27 C 1789.61 124.52 1809.01 204.8 1792.0 256.0 C 1774.99 307.2 1792.23 340.97 1741.03 338.25 C 1689.83 335.52 1689.83 437.92 1741.03 389.45 C 1792.23 340.97 1786.29 460.8 1792.0 512.0 C 1797.71 563.2 1807.41 631.61 1756.21 597.95 C 1705.01 564.29 1705.01 666.69 1756.21 649.15 C 1807.41 631.61 1800.46 716.8 1792.0 768.0 C 1783.54 819.2 1765.07 900.4 1816.27 885.88 C 1867.47 871.37 1867.47 973.77 1816.27 937.08 C 1765.07 900.4 1783.23 972.8 1792.0 1024.0 C 1800.77 1075.2 1805.07 1143.26 1753.87 1134.27 C 1702.67 1125.28 1702.67 1227.68 1753.87 1185.47 C 1805.07 1143.26 1769.58 1228.8 1792.0 1280.0 C 1814.42 1331.2 1809.82 1389.27 1758.62 1363.03 C 1707.42 1336.78 1707.42 1439.18 1758.62 1414.23 C 1809.82 1389.27 1772.22 1484.8 1792.0 1536.0 C 1811.78 1587.2 1789.73 1643.28 1840.93 1640.21 C 1892.13 1637.14 1892.13 1739.54 1840.93 1691.41 C 1789.73 1643.28 1810.05 1740.8 1792.0 1792.0 C 1773.95 1843.2 1778.18 1910.1 1829.38 1879.52 C 1880.58 1848.93 1880.58 1951.33 1829.38 1930.72 C 1778.18 1910.1 1795.65 1996.8 1792.0 2048.0 "></path><path fill="none" stroke="Black" stroke-width="0.01" class="border" d="M 2.0 0.0 L 2046.0 0.0 A 2.0 2.0 0 0 1 2048.0 2.0 L 2048.0 2046.0 A 2.0 2.0 0 0 1 2046.0 2048.0 L 2.0 2048.0 A 2.0 2.0 0 0 1 0.0 2046.0 L 0.0 2.0 A 2.0 2.0 0 0 1 2.0 0.0 "></path></svg>