<svg xmlns="http://www.w3.org/2000/svg" version="1.0" viewBox="0 0 15 10"><path fill="none" stroke="Black" stroke-width="0.01"  class="horizontal" d="M 0,0 L 15,0 M 0.0,1.0 C 0.2 1.02 0.55 0.9 0.42 1.1 C 0.28 1.3 0.68 1.3 0.62 1.1 C 0.55 0.9 0.8 0.97 1.0 1.0 C 1.2 1.03 1.5 1.13 1.43 0.93 C 1.37 0.73 1.77 0.73 1.63 0.93 C 1.5 1.13 1.8 1.04 2.0 1.0 C 2.2 0.96 2.48 0.89 2.39 1.09 C 2.29 1.29 2.69 1.29 2.59 1.09 C 2.48 0.89 2.8 1.03 3.0 1.0 C 3.2 0.97 3.5 0.91 3.43 1.11 C 3.36 1.31 3.76 1.31 3.63 1.11 C 3.5 0.91 3.8 0.96 4.0 1.0 C 4.2 1.04 4.51 0.91 4.38 1.11 C 4.25 1.31 4.65 1.31 4.58 1.11 C 4.51 0.91 4.8 1.02 5.0 1.0 C 5.2 0.98 5.54 1.09 5.41 0.89 C 5.28 0.69 5.68 0.69 5.61 0.89 C 5.54 1.09 5.8 1.01 6.0 1.0 C 6.2 0.99 6.5 0.88 6.39 1.08 C 6.28 1.28 6.68 1.28 6.59 1.08 C 6.5 0.88 6.8 0.98 7.0 1.0 C 7.2 1.02 7.51 1.07 7.4 0.87 C 7.3 0.67 7.7 0.67 7.6 0.87 C 7.51 1.07 7.8 0.98 8.0 1.0 C 8.2 1.02 8.47 1.1 8.41 0.9 C 8.35 0.7 8.75 0.7 8.61 0.9 C 8.47 1.1 8.8 0.98 9.0 1.0 C 9.2 1.02 9.45 0.9 9.39 1.1 C 9.32 1.3 9.72 1.3 9.59 1.1 C 9.45 0.9 9.8 1.03 10.0 1.0 C 10.2 0.97 10.53 1.07 10.41 0.87 C 10.3 0.67 10.7 0.67 10.61 0.87 C 10.53 1.07 10.8 1.0 11.0 1.0 C 11.2 1.0 11.51 0.87 11.42 1.07 C 11.34 1.27 11.74 1.27 11.62 1.07 C 11.51 0.87 11.8 0.98 12.0 1.0 C 12.2 1.02 12.52 1.14 12.4 0.94 C 12.27 0.74 12.67 0.74 12.6 0.94 C 12.52 1.14 12.8 1.02 13.0 1.0 C 13.2 0.98 13.5 1.11 13.41 0.91 C 13.31 0.71 13.71 0.71 13.61 0.91 C 13.5 1.11 13.8 0.99 14.0 1.0 C 14.2 1.01 14.53 1.13 14.43 0.93 C 14.33 0.73 14.73 0.73 14.63 0.93 C 14.53 1.13 14.8 0.97 15.0 1.0 M 0.0,2.0 C 0.2 2.0 0.51 1.91 0.41 2.11 C 0.31 2.31 0.71 2.31 0.61 2.11 C 0.51 1.91 0.8 2.01 1.0 2.0 C 1.2 1.99 1.53 2.11 1.42 1.91 C 1.32 1.71 1.72 1.71 1.62 1.91 C 1.53 2.11 1.8 2.04 2.0 2.0 C 2.2 1.96 2.51 2.13 2.42 1.93 C 2.33 1.73 2.73 1.73 2.62 1.93 C 2.51 2.13 2.8 1.96 3.0 2.0 C 3.2 2.04 3.43 2.1 3.37 1.9 C 3.31 1.7 3.71 1.7 3.57 1.9 C 3.43 2.1 3.8 2.0 4.0 2.0 C 4.2 2.0 4.56 1.91 4.43 2.11 C 4.3 2.31 4.7 2.31 4.63 2.11 C 4.56 1.91 4.8 2.03 5.0 2.0 C 5.2 1.97 5.48 2.07 5.37 1.87 C 5.25 1.67 5.65 1.67 5.57 1.87 C 5.48 2.07 5.8 1.99 6.0 2.0 C 6.2 2.01 6.46 2.07 6.38 1.87 C 6.3 1.67 6.7 1.67 6.58 1.87 C 6.46 2.07 6.8 2.03 7.0 2.0 C 7.2 1.97 7.52 2.08 7.43 1.88 C 7.34 1.68 7.74 1.68 7.63 1.88 C 7.52 2.08 7.8 2.03 8.0 2.0 C 8.2 1.97 8.5 2.12 8.42 1.92 C 8.33 1.72 8.73 1.72 8.62 1.92 C 8.5 2.12 8.8 2.02 9.0 2.0 C 9.2 1.98 9.51 2.11 9.43 1.91 C 9.36 1.71 9.76 1.71 9.63 1.91 C 9.51 2.11 9.8 2.03 10.0 2.0 C 10.2 1.97 10.53 2.06 10.42 1.86 C 10.3 1.66 10.7 1.66 10.62 1.86 C 10.53 2.06 10.8 1.97 11.0 2.0 C 11.2 2.03 11.53 1.91 11.4 2.11 C 11.27 2.31 11.67 2.31 11.6 2.11 C 11.53 1.91 11.8 1.97 12.0 2.0 C 12.2 2.03 12.51 2.07 12.4 1.87 C 12.29 1.67 12.69 1.67 12.6 1.87 C 12.51 2.07 12.8 2.03 13.0 2.0 C 13.2 1.97 13.51 2.07 13.38 1.87 C 13.25 1.67 13.65 1.67 13.58 1.87 C 13.51 2.07 13.8 2.01 14.0 2.0 C 14.2 1.99 14.49 2.11 14.38 1.91 C 14.26 1.71 14.66 1.71 14.58 1.91 C 14.49 2.11 14.8 1.99 15.0 2.0 M 0.0,3.0 C 0.2 2.99 0.54 3.08 0.43 2.88 C 0.33 2.68 0.73 2.68 0.63 2.88 C 0.54 3.08 0.8 3.0 1.0 3.0 C 1.2 3.0 1.47 3.07 1.36 2.87 C 1.25 2.67 1.65 2.67 1.56 2.87 C 1.47 3.07 1.8 3.0 2.0 3.0 C 2.2 3.0 2.47 2.87 2.38 3.07 C 2.3 3.27 2.7 3.27 2.58 3.07 C 2.47 2.87 2.8 3.04 3.0 3.0 C 3.2 2.96 3.46 2.92 3.38 3.12 C 3.3 3.32 3.7 3.32 3.58 3.12 C 3.46 2.92 3.8 2.97 4.0 3.0 C 4.2 3.03 4.46 2.91 4.4 3.11 C 4.33 3.31 4.73 3.31 4.6 3.11 C 4.46 2.91 4.8 2.99 5.0 3.0 C 5.2 3.01 5.47 3.11 5.36 2.91 C 5.26 2.71 5.66 2.71 5.56 2.91 C 5.47 3.11 5.8 3.01 6.0 3.0 C 6.2 2.99 6.54 3.08 6.41 2.88 C 6.29 2.68 6.69 2.68 6.61 2.88 C 6.54 3.08 6.8 3.04 7.0 3.0 C 7.2 2.96 7.44 2.89 7.37 3.09 C 7.29 3.29 7.69 3.29 7.57 3.09 C 7.44 2.89 7.8 2.99 8.0 3.0 C 8.2 3.01 8.56 2.94 8.44 3.14 C 8.32 3.34 8.72 3.34 8.64 3.14 C 8.56 2.94 8.8 3.02 9.0 3.0 C 9.2 2.98 9.52 2.87 9.39 3.07 C 9.26 3.27 9.66 3.27 9.59 3.07 C 9.52 2.87 9.8 3.02 10.0 3.0 C 10.2 2.98 10.46 3.1 10.37 2.9 C 10.27 2.7 10.67 2.7 10.57 2.9 C 10.46 3.1 10.8 2.99 11.0 3.0 C 11.2 3.01 11.54 2.87 11.4 3.07 C 11.26 3.27 11.66 3.27 11.6 3.07 C 11.54 2.87 11.8 2.99 12.0 3.0 C 12.2 3.01 12.51 3.13 12.39 2.93 C 12.27 2.73 12.67 2.73 12.59 2.93 C 12.51 3.13 12.8 2.97 13.0 3.0 C 13.2 3.03 13.52 3.09 13.44 2.89 C 13.36 2.69 13.76 2.69 13.64 2.89 C 13.52 3.09 13.8 2.98 14.0 3.0 C 14.2 3.02 14.49 3.1 14.36 2.9 C 14.23 2.7 14.63 2.7 14.56 2.9 C 14.49 3.1 14.8 3.03 15.0 3.0 M 0.0,4.0 C 0.2 3.98 0.46 3.88 0.38 4.08 C 0.3 4.28 0.7 4.28 0.58 4.08 C 0.46 3.88 0.8 4.02 1.0 4.0 C 1.2 3.98 1.52 4.06 1.39 3.86 C 1.25 3.66 1.65 3.66 1.59 3.86 C 1.52 4.06 1.8 3.97 2.0 4.0 C 2.2 4.03 2.43 4.11 2.36 3.91 C 2.29 3.71 2.69 3.71 2.56 3.91 C 2.43 4.11 2.8 3.97 3.0 4.0 C 3.2 4.03 3.52 3.86 3.41 4.06 C 3.3 4.26 3.7 4.26 3.61 4.06 C 3.52 3.86 3.8 3.98 4.0 4.0 C 4.2 4.02 4.48 4.11 4.42 3.91 C 4.35 3.71 4.75 3.71 4.62 3.91 C 4.48 4.11 4.8 3.97 5.0 4.0 C 5.2 4.03 5.49 4.06 5.4 3.86 C 5.32 3.66 5.72 3.66 5.6 3.86 C 5.49 4.06 5.8 4.02 6.0 4.0 C 6.2 3.98 6.5 3.92 6.38 4.12 C 6.26 4.32 6.66 4.32 6.58 4.12 C 6.5 3.92 6.8 3.97 7.0 4.0 C 7.2 4.03 7.51 4.09 7.43 3.89 C 7.34 3.69 7.74 3.69 7.63 3.89 C 7.51 4.09 7.8 3.98 8.0 4.0 C 8.2 4.02 8.5 4.08 8.39 3.88 C 8.27 3.68 8.67 3.68 8.59 3.88 C 8.5 4.08 8.8 4.0 9.0 4.0 C 9.2 4.0 9.48 3.9 9.39 4.1 C 9.3 4.3 9.7 4.3 9.59 4.1 C 9.48 3.9 9.8 4.04 10.0 4.0 C 10.2 3.96 10.47 3.88 10.39 4.08 C 10.3 4.28 10.7 4.28 10.59 4.08 C 10.47 3.88 10.8 3.97 11.0 4.0 C 11.2 4.03 11.48 4.1 11.41 3.9 C 11.35 3.7 11.75 3.7 11.61 3.9 C 11.48 4.1 11.8 3.99 12.0 4.0 C 12.2 4.01 12.53 3.93 12.42 4.13 C 12.3 4.33 12.7 4.33 12.62 4.13 C 12.53 3.93 12.8 3.99 13.0 4.0 C 13.2 4.01 13.44 3.89 13.37 4.09 C 13.29 4.29 13.69 4.29 13.57 4.09 C 13.44 3.89 13.8 4.0 14.0 4.0 C 14.2 4.0 14.48 3.9 14.4 4.1 C 14.31 4.3 14.71 4.3 14.6 4.1 C 14.48 3.9 14.8 4.03 15.0 4.0 M 0.0,5.0 C 0.2 5.01 0.48 4.9 0.38 5.1 C 0.28 5.3 0.68 5.3 0.58 5.1 C 0.48 4.9 0.8 5.01 1.0 5.0 C 1.2 4.99 1.54 5.07 1.44 4.87 C 1.33 4.67 1.73 4.67 1.64 4.87 C 1.54 5.07 1.8 5.0 2.0 5.0 C 2.2 5.0 2.57 5.08 2.43 4.88 C 2.29 4.68 2.69 4.68 2.63 4.88 C 2.57 5.08 2.8 4.98 3.0 5.0 C 3.2 5.02 3.54 4.91 3.42 5.11 C 3.3 5.31 3.7 5.31 3.62 5.11 C 3.54 4.91 3.8 5.01 4.0 5.0 C 4.2 4.99 4.54 5.08 4.42 4.88 C 4.31 4.68 4.71 4.68 4.62 4.88 C 4.54 5.08 4.8 4.98 5.0 5.0 C 5.2 5.02 5.48 4.93 5.41 5.13 C 5.34 5.33 5.74 5.33 5.61 5.13 C 5.48 4.93 5.8 5.01 6.0 5.0 C 6.2 4.99 6.51 5.13 6.41 4.93 C 6.3 4.73 6.7 4.73 6.61 4.93 C 6.51 5.13 6.8 5.01 7.0 5.0 C 7.2 4.99 7.49 4.93 7.39 5.13 C 7.28 5.33 7.68 5.33 7.59 5.13 C 7.49 4.93 7.8 5.03 8.0 5.0 C 8.2 4.97 8.46 4.92 8.36 5.12 C 8.27 5.32 8.67 5.32 8.56 5.12 C 8.46 4.92 8.8 4.98 9.0 5.0 C 9.2 5.02 9.53 5.11 9.43 4.91 C 9.33 4.71 9.73 4.71 9.63 4.91 C 9.53 5.11 9.8 4.98 10.0 5.0 C 10.2 5.02 10.51 5.07 10.4 4.87 C 10.29 4.67 10.69 4.67 10.6 4.87 C 10.51 5.07 10.8 5.01 11.0 5.0 C 11.2 4.99 11.46 4.87 11.37 5.07 C 11.28 5.27 11.68 5.27 11.57 5.07 C 11.46 4.87 11.8 4.99 12.0 5.0 C 12.2 5.01 12.53 5.11 12.43 4.91 C 12.34 4.71 12.74 4.71 12.63 4.91 C 12.53 5.11 12.8 5.02 13.0 5.0 C 13.2 4.98 13.55 5.09 13.41 4.89 C 13.27 4.69 13.67 4.69 13.61 4.89 C 13.55 5.09 13.8 5.03 14.0 5.0 C 14.2 4.97 14.51 4.91 14.39 5.11 C 14.27 5.31 14.67 5.31 14.59 5.11 C 14.51 4.91 14.8 5.03 15.0 5.0 M 0.0,6.0 C 0.2 5.97 0.47 6.13 0.36 5.93 C 0.26 5.73 0.66 5.73 0.56 5.93 C 0.47 6.13 0.8 5.97 1.0 6.0 C 1.2 6.03 1.47 6.09 1.36 5.89 C 1.26 5.69 1.66 5.69 1.56 5.89 C 1.47 6.09 1.8 5.97 2.0 6.0 C 2.2 6.03 2.55 5.93 2.42 6.13 C 2.28 6.33 2.68 6.33 2.62 6.13 C 2.55 5.93 2.8 6.0 3.0 6.0 C 3.2 6.0 3.52 5.93 3.42 6.13 C 3.31 6.33 3.71 6.33 3.62 6.13 C 3.52 5.93 3.8 5.97 4.0 6.0 C 4.2 6.03 4.49 6.13 4.37 5.93 C 4.25 5.73 4.65 5.73 4.57 5.93 C 4.49 6.13 4.8 6.03 5.0 6.0 C 5.2 5.97 5.47 6.09 5.37 5.89 C 5.26 5.69 5.66 5.69 5.57 5.89 C 5.47 6.09 5.8 6.03 6.0 6.0 C 6.2 5.97 6.48 6.13 6.41 5.93 C 6.33 5.73 6.73 5.73 6.61 5.93 C 6.48 6.13 6.8 5.99 7.0 6.0 C 7.2 6.01 7.5 6.13 7.41 5.93 C 7.32 5.73 7.72 5.73 7.61 5.93 C 7.5 6.13 7.8 6.03 8.0 6.0 C 8.2 5.97 8.52 6.1 8.39 5.9 C 8.26 5.7 8.66 5.7 8.59 5.9 C 8.52 6.1 8.8 6.01 9.0 6.0 C 9.2 5.99 9.51 6.13 9.39 5.93 C 9.27 5.73 9.67 5.73 9.59 5.93 C 9.51 6.13 9.8 6.04 10.0 6.0 C 10.2 5.96 10.5 5.94 10.39 6.14 C 10.28 6.34 10.68 6.34 10.59 6.14 C 10.5 5.94 10.8 5.99 11.0 6.0 C 11.2 6.01 11.5 5.91 11.37 6.11 C 11.24 6.31 11.64 6.31 11.57 6.11 C 11.5 5.91 11.8 5.99 12.0 6.0 C 12.2 6.01 12.5 6.08 12.38 5.88 C 12.26 5.68 12.66 5.68 12.58 5.88 C 12.5 6.08 12.8 6.0 13.0 6.0 C 13.2 6.0 13.48 6.11 13.4 5.91 C 13.32 5.71 13.72 5.71 13.6 5.91 C 13.48 6.11 13.8 6.01 14.0 6.0 C 14.2 5.99 14.43 6.1 14.36 5.9 C 14.29 5.7 14.69 5.7 14.56 5.9 C 14.43 6.1 14.8 5.98 15.0 6.0 M 0.0,7.0 C 0.2 6.96 0.53 6.92 0.44 7.12 C 0.35 7.32 0.75 7.32 0.64 7.12 C 0.53 6.92 0.8 6.99 1.0 7.0 C 1.2 7.01 1.52 6.87 1.4 7.07 C 1.27 7.27 1.67 7.27 1.6 7.07 C 1.52 6.87 1.8 7.02 2.0 7.0 C 2.2 6.98 2.5 7.12 2.43 6.92 C 2.35 6.72 2.75 6.72 2.63 6.92 C 2.5 7.12 2.8 6.99 3.0 7.0 C 3.2 7.01 3.51 6.89 3.43 7.09 C 3.36 7.29 3.76 7.29 3.63 7.09 C 3.51 6.89 3.8 7.0 4.0 7.0 C 4.2 7.0 4.51 7.09 4.41 6.89 C 4.3 6.69 4.7 6.69 4.61 6.89 C 4.51 7.09 4.8 6.99 5.0 7.0 C 5.2 7.01 5.51 7.08 5.38 6.88 C 5.24 6.68 5.64 6.68 5.58 6.88 C 5.51 7.08 5.8 6.99 6.0 7.0 C 6.2 7.01 6.52 7.07 6.39 6.87 C 6.25 6.67 6.65 6.67 6.59 6.87 C 6.52 7.07 6.8 7.01 7.0 7.0 C 7.2 6.99 7.54 7.13 7.41 6.93 C 7.27 6.73 7.67 6.73 7.61 6.93 C 7.54 7.13 7.8 7.03 8.0 7.0 C 8.2 6.97 8.49 6.86 8.42 7.06 C 8.35 7.26 8.75 7.26 8.62 7.06 C 8.49 6.86 8.8 7.01 9.0 7.0 C 9.2 6.99 9.51 7.07 9.4 6.87 C 9.3 6.67 9.7 6.67 9.6 6.87 C 9.51 7.07 9.8 7.04 10.0 7.0 C 10.2 6.96 10.47 7.12 10.38 6.92 C 10.3 6.72 10.7 6.72 10.58 6.92 C 10.47 7.12 10.8 7.03 11.0 7.0 C 11.2 6.97 11.47 7.08 11.38 6.88 C 11.3 6.68 11.7 6.68 11.58 6.88 C 11.47 7.08 11.8 7.01 12.0 7.0 C 12.2 6.99 12.46 7.1 12.39 6.9 C 12.31 6.7 12.71 6.7 12.59 6.9 C 12.46 7.1 12.8 6.97 13.0 7.0 C 13.2 7.03 13.56 7.12 13.43 6.92 C 13.31 6.72 13.71 6.72 13.63 6.92 C 13.56 7.12 13.8 6.98 14.0 7.0 C 14.2 7.02 14.5 6.86 14.42 7.06 C 14.33 7.26 14.73 7.26 14.62 7.06 C 14.5 6.86 14.8 7.0 15.0 7.0 M 0.0,8.0 C 0.2 7.99 0.51 7.88 0.42 8.08 C 0.33 8.28 0.73 8.28 0.62 8.08 C 0.51 7.88 0.8 8.01 1.0 8.0 C 1.2 7.99 1.54 7.93 1.42 8.13 C 1.3 8.33 1.7 8.33 1.62 8.13 C 1.54 7.93 1.8 7.99 2.0 8.0 C 2.2 8.01 2.51 7.87 2.44 8.07 C 2.36 8.27 2.76 8.27 2.64 8.07 C 2.51 7.87 2.8 8.02 3.0 8.0 C 3.2 7.98 3.5 7.91 3.44 8.11 C 3.38 8.31 3.78 8.31 3.64 8.11 C 3.5 7.91 3.8 7.99 4.0 8.0 C 4.2 8.01 4.5 7.89 4.41 8.09 C 4.33 8.29 4.73 8.29 4.61 8.09 C 4.5 7.89 4.8 7.97 5.0 8.0 C 5.2 8.03 5.53 7.91 5.44 8.11 C 5.35 8.31 5.75 8.31 5.64 8.11 C 5.53 7.91 5.8 7.97 6.0 8.0 C 6.2 8.03 6.52 8.08 6.43 7.88 C 6.33 7.68 6.73 7.68 6.63 7.88 C 6.52 8.08 6.8 8.0 7.0 8.0 C 7.2 8.0 7.46 7.94 7.4 8.14 C 7.34 8.34 7.74 8.34 7.6 8.14 C 7.46 7.94 7.8 8.03 8.0 8.0 C 8.2 7.97 8.51 8.13 8.38 7.93 C 8.25 7.73 8.65 7.73 8.58 7.93 C 8.51 8.13 8.8 7.96 9.0 8.0 C 9.2 8.04 9.48 7.88 9.41 8.08 C 9.34 8.28 9.74 8.28 9.61 8.08 C 9.48 7.88 9.8 8.01 10.0 8.0 C 10.2 7.99 10.47 8.06 10.37 7.86 C 10.28 7.66 10.68 7.66 10.57 7.86 C 10.47 8.06 10.8 7.96 11.0 8.0 C 11.2 8.04 11.51 7.89 11.39 8.09 C 11.27 8.29 11.67 8.29 11.59 8.09 C 11.51 7.89 11.8 7.99 12.0 8.0 C 12.2 8.01 12.46 8.14 12.37 7.94 C 12.28 7.74 12.68 7.74 12.57 7.94 C 12.46 8.14 12.8 8.03 13.0 8.0 C 13.2 7.97 13.5 8.11 13.39 7.91 C 13.27 7.71 13.67 7.71 13.59 7.91 C 13.5 8.11 13.8 7.97 14.0 8.0 C 14.2 8.03 14.52 7.9 14.44 8.1 C 14.35 8.3 14.75 8.3 14.64 8.1 C 14.52 7.9 14.8 8.01 15.0 8.0 M 0.0,9.0 C 0.2 8.98 0.5 9.1 0.42 8.9 C 0.33 8.7 0.73 8.7 0.62 8.9 C 0.5 9.1 0.8 8.98 1.0 9.0 C 1.2 9.02 1.53 8.9 1.41 9.1 C 1.29 9.3 1.69 9.3 1.61 9.1 C 1.53 8.9 1.8 8.97 2.0 9.0 C 2.2 9.03 2.49 9.11 2.39 8.91 C 2.29 8.71 2.69 8.71 2.59 8.91 C 2.49 9.11 2.8 9.0 3.0 9.0 C 3.2 9.0 3.48 9.09 3.42 8.89 C 3.35 8.69 3.75 8.69 3.62 8.89 C 3.48 9.09 3.8 8.98 4.0 9.0 C 4.2 9.02 4.49 8.88 4.38 9.08 C 4.27 9.28 4.67 9.28 4.58 9.08 C 4.49 8.88 4.8 8.99 5.0 9.0 C 5.2 9.01 5.47 9.07 5.39 8.87 C 5.3 8.67 5.7 8.67 5.59 8.87 C 5.47 9.07 5.8 9.02 6.0 9.0 C 6.2 8.98 6.45 9.07 6.36 8.87 C 6.27 8.67 6.67 8.67 6.56 8.87 C 6.45 9.07 6.8 9.02 7.0 9.0 C 7.2 8.98 7.48 8.89 7.39 9.09 C 7.31 9.29 7.71 9.29 7.59 9.09 C 7.48 8.89 7.8 8.99 8.0 9.0 C 8.2 9.01 8.53 8.87 8.43 9.07 C 8.32 9.27 8.72 9.27 8.63 9.07 C 8.53 8.87 8.8 8.98 9.0 9.0 C 9.2 9.02 9.48 8.86 9.39 9.06 C 9.3 9.26 9.7 9.26 9.59 9.06 C 9.48 8.86 9.8 9.0 10.0 9.0 C 10.2 9.0 10.51 9.14 10.37 8.94 C 10.24 8.74 10.64 8.74 10.57 8.94 C 10.51 9.14 10.8 9.03 11.0 9.0 C 11.2 8.97 11.52 8.91 11.38 9.11 C 11.24 9.31 11.64 9.31 11.58 9.11 C 11.52 8.91 11.8 9.01 12.0 9.0 C 12.2 8.99 12.47 8.92 12.39 9.12 C 12.32 9.32 12.72 9.32 12.59 9.12 C 12.47 8.92 12.8 8.99 13.0 9.0 C 13.2 9.01 13.5 8.91 13.41 9.11 C 13.32 9.31 13.72 9.31 13.61 9.11 C 13.5 8.91 13.8 9.02 14.0 9.0 C 14.2 8.98 14.48 8.91 14.41 9.11 C 14.34 9.31 14.74 9.31 14.61 9.11 C 14.48 8.91 14.8 9.02 15.0 9.0 M 0,10 L 15,10 "></path><path fill="none" stroke="Black" stroke-width="0.01"  class="vertical" d="M 0,0 L 0,10 M 1.0,0.0 C 1.01 0.2 1.13 0.48 0.93 0.41 C 0.73 0.34 0.73 0.74 0.93 0.61 C 1.13 0.48 1.01 0.8 1.0 1.0 C 0.99 1.2 1.13 1.48 0.93 1.37 C 0.73 1.26 0.73 1.66 0.93 1.57 C 1.13 1.48 1.01 1.8 1.0 2.0 C 0.99 2.2 1.07 2.49 0.87 2.36 C 0.67 2.24 0.67 2.64 0.87 2.56 C 1.07 2.49 0.98 2.8 1.0 3.0 C 1.02 3.2 1.12 3.44 0.92 3.37 C 0.72 3.29 0.72 3.69 0.92 3.57 C 1.12 3.44 1.02 3.8 1.0 4.0 C 0.98 4.2 0.86 4.47 1.06 4.4 C 1.26 4.34 1.26 4.74 1.06 4.6 C 0.86 4.47 0.97 4.8 1.0 5.0 C 1.03 5.2 0.88 5.47 1.08 5.41 C 1.28 5.35 1.28 5.75 1.08 5.61 C 0.88 5.47 1.01 5.8 1.0 6.0 C 0.99 6.2 1.12 6.52 0.92 6.38 C 0.72 6.24 0.72 6.64 0.92 6.58 C 1.12 6.52 1.03 6.8 1.0 7.0 C 0.97 7.2 1.13 7.48 0.93 7.36 C 0.73 7.24 0.73 7.64 0.93 7.56 C 1.13 7.48 0.99 7.8 1.0 8.0 C 1.01 8.2 1.13 8.47 0.93 8.38 C 0.73 8.3 0.73 8.7 0.93 8.58 C 1.13 8.47 1.01 8.8 1.0 9.0 C 0.99 9.2 1.06 9.56 0.86 9.43 C 0.66 9.29 0.66 9.69 0.86 9.63 C 1.06 9.56 1.0 9.8 1.0 10.0 M 2.0,0.0 C 1.98 0.2 1.9 0.46 2.1 0.38 C 2.3 0.3 2.3 0.7 2.1 0.58 C 1.9 0.46 2.01 0.8 2.0 1.0 C 1.99 1.2 1.88 1.54 2.08 1.41 C 2.28 1.27 2.28 1.67 2.08 1.61 C 1.88 1.54 1.98 1.8 2.0 2.0 C 2.02 2.2 1.94 2.51 2.14 2.38 C 2.34 2.25 2.34 2.65 2.14 2.58 C 1.94 2.51 1.96 2.8 2.0 3.0 C 2.04 3.2 2.12 3.46 1.92 3.39 C 1.72 3.32 1.72 3.72 1.92 3.59 C 2.12 3.46 1.97 3.8 2.0 4.0 C 2.03 4.2 1.91 4.55 2.11 4.41 C 2.31 4.28 2.31 4.68 2.11 4.61 C 1.91 4.55 2.03 4.8 2.0 5.0 C 1.97 5.2 2.13 5.52 1.93 5.44 C 1.73 5.36 1.73 5.76 1.93 5.64 C 2.13 5.52 2.02 5.8 2.0 6.0 C 1.98 6.2 2.09 6.45 1.89 6.36 C 1.69 6.28 1.69 6.68 1.89 6.56 C 2.09 6.45 2.0 6.8 2.0 7.0 C 2.0 7.2 2.11 7.5 1.91 7.4 C 1.71 7.3 1.71 7.7 1.91 7.6 C 2.11 7.5 1.98 7.8 2.0 8.0 C 2.02 8.2 1.89 8.49 2.09 8.38 C 2.29 8.27 2.29 8.67 2.09 8.58 C 1.89 8.49 2.03 8.8 2.0 9.0 C 1.97 9.2 2.11 9.47 1.91 9.37 C 1.71 9.26 1.71 9.66 1.91 9.57 C 2.11 9.47 2.03 9.8 2.0 10.0 M 3.0,0.0 C 3.02 0.2 3.11 0.49 2.91 0.39 C 2.71 0.28 2.71 0.68 2.91 0.59 C 3.11 0.49 3.01 0.8 3.0 1.0 C 2.99 1.2 3.13 1.5 2.93 1.4 C 2.73 1.31 2.73 1.71 2.93 1.6 C 3.13 1.5 3.02 1.8 3.0 2.0 C 2.98 2.2 2.92 2.49 3.12 2.43 C 3.32 2.37 3.32 2.77 3.12 2.63 C 2.92 2.49 3.02 2.8 3.0 3.0 C 2.98 3.2 3.12 3.54 2.92 3.43 C 2.72 3.32 2.72 3.72 2.92 3.63 C 3.12 3.54 2.99 3.8 3.0 4.0 C 3.01 4.2 2.88 4.48 3.08 4.41 C 3.28 4.33 3.28 4.73 3.08 4.61 C 2.88 4.48 2.97 4.8 3.0 5.0 C 3.03 5.2 2.9 5.43 3.1 5.37 C 3.3 5.3 3.3 5.7 3.1 5.57 C 2.9 5.43 2.97 5.8 3.0 6.0 C 3.03 6.2 2.89 6.5 3.09 6.41 C 3.29 6.33 3.29 6.73 3.09 6.61 C 2.89 6.5 3.02 6.8 3.0 7.0 C 2.98 7.2 2.92 7.45 3.12 7.37 C 3.32 7.29 3.32 7.69 3.12 7.57 C 2.92 7.45 2.98 7.8 3.0 8.0 C 3.02 8.2 3.09 8.48 2.89 8.37 C 2.69 8.25 2.69 8.65 2.89 8.57 C 3.09 8.48 3.0 8.8 3.0 9.0 C 3.0 9.2 3.13 9.49 2.93 9.42 C 2.73 9.34 2.73 9.74 2.93 9.62 C 3.13 9.49 2.98 9.8 3.0 10.0 M 4.0,0.0 C 3.98 0.2 4.06 0.52 3.86 0.4 C 3.66 0.28 3.66 0.68 3.86 0.6 C 4.06 0.52 3.96 0.8 4.0 1.0 C 4.04 1.2 3.94 1.48 4.14 1.39 C 4.34 1.3 4.34 1.7 4.14 1.59 C 3.94 1.48 3.99 1.8 4.0 2.0 C 4.01 2.2 4.06 2.48 3.86 2.4 C 3.66 2.32 3.66 2.72 3.86 2.6 C 4.06 2.48 3.97 2.8 4.0 3.0 C 4.03 3.2 4.1 3.51 3.9 3.44 C 3.7 3.36 3.7 3.76 3.9 3.64 C 4.1 3.51 3.98 3.8 4.0 4.0 C 4.02 4.2 4.12 4.53 3.92 4.43 C 3.72 4.34 3.72 4.74 3.92 4.63 C 4.12 4.53 4.03 4.8 4.0 5.0 C 3.97 5.2 3.86 5.51 4.06 5.39 C 4.26 5.27 4.26 5.67 4.06 5.59 C 3.86 5.51 3.98 5.8 4.0 6.0 C 4.02 6.2 3.88 6.47 4.08 6.37 C 4.28 6.26 4.28 6.66 4.08 6.57 C 3.88 6.47 4.03 6.8 4.0 7.0 C 3.97 7.2 4.09 7.55 3.89 7.42 C 3.69 7.3 3.69 7.7 3.89 7.62 C 4.09 7.55 4.0 7.8 4.0 8.0 C 4.0 8.2 3.87 8.48 4.07 8.36 C 4.27 8.25 4.27 8.65 4.07 8.56 C 3.87 8.48 4.01 8.8 4.0 9.0 C 3.99 9.2 3.92 9.51 4.12 9.41 C 4.32 9.31 4.32 9.71 4.12 9.61 C 3.92 9.51 4.01 9.8 4.0 10.0 M 5.0,0.0 C 4.97 0.2 5.07 0.51 4.87 0.39 C 4.67 0.27 4.67 0.67 4.87 0.59 C 5.07 0.51 4.98 0.8 5.0 1.0 C 5.02 1.2 4.94 1.51 5.14 1.42 C 5.34 1.33 5.34 1.73 5.14 1.62 C 4.94 1.51 5.0 1.8 5.0 2.0 C 5.0 2.2 5.08 2.54 4.88 2.41 C 4.68 2.28 4.68 2.68 4.88 2.61 C 5.08 2.54 5.03 2.8 5.0 3.0 C 4.97 3.2 5.08 3.49 4.88 3.43 C 4.68 3.37 4.68 3.77 4.88 3.63 C 5.08 3.49 4.96 3.8 5.0 4.0 C 5.04 4.2 5.08 4.52 4.88 4.39 C 4.68 4.25 4.68 4.65 4.88 4.59 C 5.08 4.52 5.02 4.8 5.0 5.0 C 4.98 5.2 4.9 5.54 5.1 5.41 C 5.3 5.28 5.3 5.68 5.1 5.61 C 4.9 5.54 4.98 5.8 5.0 6.0 C 5.02 6.2 5.09 6.49 4.89 6.41 C 4.69 6.34 4.69 6.74 4.89 6.61 C 5.09 6.49 4.99 6.8 5.0 7.0 C 5.01 7.2 5.14 7.46 4.94 7.4 C 4.74 7.34 4.74 7.74 4.94 7.6 C 5.14 7.46 5.03 7.8 5.0 8.0 C 4.97 8.2 4.91 8.48 5.11 8.41 C 5.31 8.35 5.31 8.75 5.11 8.61 C 4.91 8.48 4.97 8.8 5.0 9.0 C 5.03 9.2 5.14 9.52 4.94 9.43 C 4.74 9.35 4.74 9.75 4.94 9.63 C 5.14 9.52 5.0 9.8 5.0 10.0 M 6.0,0.0 C 6.0 0.2 5.9 0.46 6.1 0.39 C 6.3 0.31 6.3 0.71 6.1 0.59 C 5.9 0.46 5.99 0.8 6.0 1.0 C 6.01 1.2 5.89 1.49 6.09 1.39 C 6.29 1.28 6.29 1.68 6.09 1.59 C 5.89 1.49 6.02 1.8 6.0 2.0 C 5.98 2.2 6.09 2.44 5.89 2.38 C 5.69 2.32 5.69 2.72 5.89 2.58 C 6.09 2.44 6.0 2.8 6.0 3.0 C 6.0 3.2 6.11 3.46 5.91 3.36 C 5.71 3.27 5.71 3.67 5.91 3.56 C 6.11 3.46 5.98 3.8 6.0 4.0 C 6.02 4.2 6.14 4.51 5.94 4.38 C 5.74 4.26 5.74 4.66 5.94 4.58 C 6.14 4.51 6.04 4.8 6.0 5.0 C 5.96 5.2 6.08 5.51 5.88 5.44 C 5.68 5.37 5.68 5.77 5.88 5.64 C 6.08 5.51 6.04 5.8 6.0 6.0 C 5.96 6.2 5.9 6.51 6.1 6.39 C 6.3 6.27 6.3 6.67 6.1 6.59 C 5.9 6.51 5.96 6.8 6.0 7.0 C 6.04 7.2 5.88 7.52 6.08 7.42 C 6.28 7.33 6.28 7.73 6.08 7.62 C 5.88 7.52 6.02 7.8 6.0 8.0 C 5.98 8.2 6.08 8.47 5.88 8.38 C 5.68 8.3 5.68 8.7 5.88 8.58 C 6.08 8.47 6.03 8.8 6.0 9.0 C 5.97 9.2 6.11 9.51 5.91 9.37 C 5.71 9.23 5.71 9.63 5.91 9.57 C 6.11 9.51 6.01 9.8 6.0 10.0 M 7.0,0.0 C 7.0 0.2 7.09 0.54 6.89 0.41 C 6.69 0.27 6.69 0.67 6.89 0.61 C 7.09 0.54 6.99 0.8 7.0 1.0 C 7.01 1.2 6.86 1.51 7.06 1.39 C 7.26 1.27 7.26 1.67 7.06 1.59 C 6.86 1.51 7.01 1.8 7.0 2.0 C 6.99 2.2 7.14 2.55 6.94 2.44 C 6.74 2.32 6.74 2.72 6.94 2.64 C 7.14 2.55 6.98 2.8 7.0 3.0 C 7.02 3.2 6.93 3.46 7.13 3.36 C 7.33 3.26 7.33 3.66 7.13 3.56 C 6.93 3.46 6.97 3.8 7.0 4.0 C 7.03 4.2 6.88 4.57 7.08 4.44 C 7.28 4.31 7.28 4.71 7.08 4.64 C 6.88 4.57 6.97 4.8 7.0 5.0 C 7.03 5.2 7.11 5.54 6.91 5.41 C 6.71 5.28 6.71 5.68 6.91 5.61 C 7.11 5.54 7.01 5.8 7.0 6.0 C 6.99 6.2 6.93 6.5 7.13 6.43 C 7.33 6.37 7.33 6.77 7.13 6.63 C 6.93 6.5 6.99 6.8 7.0 7.0 C 7.01 7.2 6.91 7.53 7.11 7.43 C 7.31 7.33 7.31 7.73 7.11 7.63 C 6.91 7.53 7.02 7.8 7.0 8.0 C 6.98 8.2 7.13 8.5 6.93 8.38 C 6.73 8.26 6.73 8.66 6.93 8.58 C 7.13 8.5 7.01 8.8 7.0 9.0 C 6.99 9.2 6.88 9.54 7.08 9.42 C 7.28 9.31 7.28 9.71 7.08 9.62 C 6.88 9.54 6.97 9.8 7.0 10.0 M 8.0,0.0 C 8.03 0.2 8.12 0.44 7.92 0.36 C 7.72 0.28 7.72 0.68 7.92 0.56 C 8.12 0.44 8.04 0.8 8.0 1.0 C 7.96 1.2 7.88 1.48 8.08 1.41 C 8.28 1.34 8.28 1.74 8.08 1.61 C 7.88 1.48 7.98 1.8 8.0 2.0 C 8.02 2.2 7.9 2.49 8.1 2.39 C 8.3 2.28 8.3 2.68 8.1 2.59 C 7.9 2.49 8.0 2.8 8.0 3.0 C 8.0 3.2 7.88 3.49 8.08 3.41 C 8.28 3.33 8.28 3.73 8.08 3.61 C 7.88 3.49 8.0 3.8 8.0 4.0 C 8.0 4.2 8.07 4.51 7.87 4.4 C 7.67 4.28 7.67 4.68 7.87 4.6 C 8.07 4.51 7.97 4.8 8.0 5.0 C 8.03 5.2 7.93 5.53 8.13 5.4 C 8.33 5.27 8.33 5.67 8.13 5.6 C 7.93 5.53 7.98 5.8 8.0 6.0 C 8.02 6.2 8.07 6.55 7.87 6.44 C 7.67 6.32 7.67 6.72 7.87 6.64 C 8.07 6.55 8.03 6.8 8.0 7.0 C 7.97 7.2 8.07 7.49 7.87 7.36 C 7.67 7.23 7.67 7.63 7.87 7.56 C 8.07 7.49 8.02 7.8 8.0 8.0 C 7.98 8.2 7.89 8.48 8.09 8.4 C 8.29 8.33 8.29 8.73 8.09 8.6 C 7.89 8.48 8.03 8.8 8.0 9.0 C 7.97 9.2 8.07 9.48 7.87 9.42 C 7.67 9.35 7.67 9.75 7.87 9.62 C 8.07 9.48 7.99 9.8 8.0 10.0 M 9.0,0.0 C 9.02 0.2 9.06 0.51 8.86 0.38 C 8.66 0.24 8.66 0.64 8.86 0.58 C 9.06 0.51 9.04 0.8 9.0 1.0 C 8.96 1.2 9.07 1.53 8.87 1.39 C 8.67 1.25 8.67 1.65 8.87 1.59 C 9.07 1.53 8.97 1.8 9.0 2.0 C 9.03 2.2 9.14 2.49 8.94 2.42 C 8.74 2.34 8.74 2.74 8.94 2.62 C 9.14 2.49 9.0 2.8 9.0 3.0 C 9.0 3.2 9.08 3.46 8.88 3.37 C 8.68 3.27 8.68 3.67 8.88 3.57 C 9.08 3.46 9.03 3.8 9.0 4.0 C 8.97 4.2 8.9 4.52 9.1 4.39 C 9.3 4.26 9.3 4.66 9.1 4.59 C 8.9 4.52 9.01 4.8 9.0 5.0 C 8.99 5.2 8.88 5.53 9.08 5.41 C 9.28 5.29 9.28 5.69 9.08 5.61 C 8.88 5.53 8.97 5.8 9.0 6.0 C 9.03 6.2 8.92 6.53 9.12 6.39 C 9.32 6.25 9.32 6.65 9.12 6.59 C 8.92 6.53 9.04 6.8 9.0 7.0 C 8.96 7.2 8.9 7.45 9.1 7.36 C 9.3 7.28 9.3 7.68 9.1 7.56 C 8.9 7.45 8.99 7.8 9.0 8.0 C 9.01 8.2 8.87 8.49 9.07 8.43 C 9.27 8.36 9.27 8.76 9.07 8.63 C 8.87 8.49 9.01 8.8 9.0 9.0 C 8.99 9.2 9.06 9.44 8.86 9.38 C 8.66 9.31 8.66 9.71 8.86 9.58 C 9.06 9.44 9.03 9.8 9.0 10.0 M 10.0,0.0 C 10.02 0.2 9.9 0.55 10.1 0.41 C 10.3 0.27 10.3 0.67 10.1 0.61 C 9.9 0.55 9.96 0.8 10.0 1.0 C 10.04 1.2 10.11 1.47 9.91 1.4 C 9.71 1.33 9.71 1.73 9.91 1.6 C 10.11 1.47 10.03 1.8 10.0 2.0 C 9.97 2.2 10.1 2.5 9.9 2.37 C 9.7 2.24 9.7 2.64 9.9 2.57 C 10.1 2.5 9.98 2.8 10.0 3.0 C 10.02 3.2 10.09 3.48 9.89 3.38 C 9.69 3.28 9.69 3.68 9.89 3.58 C 10.09 3.48 10.0 3.8 10.0 4.0 C 10.0 4.2 9.87 4.49 10.07 4.42 C 10.27 4.34 10.27 4.74 10.07 4.62 C 9.87 4.49 10.04 4.8 10.0 5.0 C 9.96 5.2 10.11 5.52 9.91 5.43 C 9.71 5.34 9.71 5.74 9.91 5.63 C 10.11 5.52 10.03 5.8 10.0 6.0 C 9.97 6.2 10.09 6.51 9.89 6.38 C 9.69 6.25 9.69 6.65 9.89 6.58 C 10.09 6.51 10.02 6.8 10.0 7.0 C 9.98 7.2 9.86 7.51 10.06 7.42 C 10.26 7.34 10.26 7.74 10.06 7.62 C 9.86 7.51 10.03 7.8 10.0 8.0 C 9.97 8.2 10.08 8.49 9.88 8.41 C 9.68 8.34 9.68 8.74 9.88 8.61 C 10.08 8.49 9.98 8.8 10.0 9.0 C 10.02 9.2 9.87 9.54 10.07 9.41 C 10.27 9.28 10.27 9.68 10.07 9.61 C 9.87 9.54 10.03 9.8 10.0 10.0 M 11.0,0.0 C 11.0 0.2 11.12 0.48 10.92 0.38 C 10.72 0.27 10.72 0.67 10.92 0.58 C 11.12 0.48 10.97 0.8 11.0 1.0 C 11.03 1.2 10.9 1.52 11.1 1.41 C 11.3 1.3 11.3 1.7 11.1 1.61 C 10.9 1.52 10.97 1.8 11.0 2.0 C 11.03 2.2 10.92 2.5 11.12 2.41 C 11.32 2.33 11.32 2.73 11.12 2.61 C 10.92 2.5 11.02 2.8 11.0 3.0 C 10.98 3.2 11.11 3.43 10.91 3.36 C 10.71 3.29 10.71 3.69 10.91 3.56 C 11.11 3.43 11.02 3.8 11.0 4.0 C 10.98 4.2 11.14 4.52 10.94 4.43 C 10.74 4.34 10.74 4.74 10.94 4.63 C 11.14 4.52 11.04 4.8 11.0 5.0 C 10.96 5.2 10.89 5.45 11.09 5.37 C 11.29 5.28 11.29 5.68 11.09 5.57 C 10.89 5.45 10.97 5.8 11.0 6.0 C 11.03 6.2 11.12 6.51 10.92 6.4 C 10.72 6.29 10.72 6.69 10.92 6.6 C 11.12 6.51 10.96 6.8 11.0 7.0 C 11.04 7.2 11.12 7.47 10.92 7.39 C 10.72 7.31 10.72 7.71 10.92 7.59 C 11.12 7.47 10.97 7.8 11.0 8.0 C 11.03 8.2 10.87 8.42 11.07 8.36 C 11.27 8.3 11.27 8.7 11.07 8.56 C 10.87 8.42 11.03 8.8 11.0 9.0 C 10.97 9.2 10.93 9.5 11.13 9.38 C 11.33 9.26 11.33 9.66 11.13 9.58 C 10.93 9.5 11.0 9.8 11.0 10.0 M 12.0,0.0 C 12.01 0.2 11.92 0.46 12.12 0.37 C 12.32 0.28 12.32 0.68 12.12 0.57 C 11.92 0.46 11.97 0.8 12.0 1.0 C 12.03 1.2 12.13 1.47 11.93 1.38 C 11.73 1.29 11.73 1.69 11.93 1.58 C 12.13 1.47 11.98 1.8 12.0 2.0 C 12.02 2.2 12.08 2.51 11.88 2.42 C 11.68 2.32 11.68 2.72 11.88 2.62 C 12.08 2.51 11.98 2.8 12.0 3.0 C 12.02 3.2 11.91 3.54 12.11 3.42 C 12.31 3.31 12.31 3.71 12.11 3.62 C 11.91 3.54 11.98 3.8 12.0 4.0 C 12.02 4.2 12.1 4.49 11.9 4.39 C 11.7 4.29 11.7 4.69 11.9 4.59 C 12.1 4.49 11.98 4.8 12.0 5.0 C 12.02 5.2 12.12 5.49 11.92 5.43 C 11.72 5.37 11.72 5.77 11.92 5.63 C 12.12 5.49 12.02 5.8 12.0 6.0 C 11.98 6.2 12.12 6.51 11.92 6.41 C 11.72 6.32 11.72 6.72 11.92 6.61 C 12.12 6.51 11.98 6.8 12.0 7.0 C 12.02 7.2 12.07 7.51 11.87 7.41 C 11.67 7.31 11.67 7.71 11.87 7.61 C 12.07 7.51 12.01 7.8 12.0 8.0 C 11.99 8.2 11.87 8.49 12.07 8.42 C 12.27 8.34 12.27 8.74 12.07 8.62 C 11.87 8.49 12.01 8.8 12.0 9.0 C 11.99 9.2 11.91 9.49 12.11 9.37 C 12.31 9.24 12.31 9.64 12.11 9.57 C 11.91 9.49 12.01 9.8 12.0 10.0 M 13.0,0.0 C 12.98 0.2 12.88 0.55 13.08 0.43 C 13.28 0.3 13.28 0.7 13.08 0.63 C 12.88 0.55 13.0 0.8 13.0 1.0 C 13.0 1.2 12.88 1.52 13.08 1.43 C 13.28 1.34 13.28 1.74 13.08 1.63 C 12.88 1.52 13.01 1.8 13.0 2.0 C 12.99 2.2 12.92 2.56 13.12 2.43 C 13.32 2.3 13.32 2.7 13.12 2.63 C 12.92 2.56 13.03 2.8 13.0 3.0 C 12.97 3.2 13.07 3.47 12.87 3.36 C 12.67 3.26 12.67 3.66 12.87 3.56 C 13.07 3.47 13.02 3.8 13.0 4.0 C 12.98 4.2 13.08 4.45 12.88 4.39 C 12.68 4.32 12.68 4.72 12.88 4.59 C 13.08 4.45 12.99 4.8 13.0 5.0 C 13.01 5.2 13.12 5.45 12.92 5.38 C 12.72 5.31 12.72 5.71 12.92 5.58 C 13.12 5.45 13.03 5.8 13.0 6.0 C 12.97 6.2 13.09 6.46 12.89 6.37 C 12.69 6.28 12.69 6.68 12.89 6.57 C 13.09 6.46 12.98 6.8 13.0 7.0 C 13.02 7.2 13.09 7.44 12.89 7.36 C 12.69 7.28 12.69 7.68 12.89 7.56 C 13.09 7.44 13.04 7.8 13.0 8.0 C 12.96 8.2 13.07 8.53 12.87 8.4 C 12.67 8.27 12.67 8.67 12.87 8.6 C 13.07 8.53 12.98 8.8 13.0 9.0 C 13.02 9.2 13.07 9.5 12.87 9.41 C 12.67 9.33 12.67 9.73 12.87 9.61 C 13.07 9.5 12.96 9.8 13.0 10.0 M 14.0,0.0 C 14.04 0.2 13.89 0.51 14.09 0.42 C 14.29 0.34 14.29 0.74 14.09 0.62 C 13.89 0.51 14.0 0.8 14.0 1.0 C 14.0 1.2 14.07 1.45 13.87 1.39 C 13.67 1.32 13.67 1.72 13.87 1.59 C 14.07 1.45 14.03 1.8 14.0 2.0 C 13.97 2.2 13.93 2.49 14.13 2.37 C 14.33 2.25 14.33 2.65 14.13 2.57 C 13.93 2.49 14.02 2.8 14.0 3.0 C 13.98 3.2 13.88 3.55 14.08 3.42 C 14.28 3.29 14.28 3.69 14.08 3.62 C 13.88 3.55 14.0 3.8 14.0 4.0 C 14.0 4.2 13.91 4.54 14.11 4.43 C 14.31 4.31 14.31 4.71 14.11 4.63 C 13.91 4.54 14.02 4.8 14.0 5.0 C 13.98 5.2 14.14 5.55 13.94 5.44 C 13.74 5.33 13.74 5.73 13.94 5.64 C 14.14 5.55 14.01 5.8 14.0 6.0 C 13.99 6.2 13.92 6.53 14.12 6.41 C 14.32 6.28 14.32 6.68 14.12 6.61 C 13.92 6.53 14.03 6.8 14.0 7.0 C 13.97 7.2 13.92 7.52 14.12 7.39 C 14.32 7.27 14.32 7.67 14.12 7.59 C 13.92 7.52 14.02 7.8 14.0 8.0 C 13.98 8.2 14.14 8.49 13.94 8.43 C 13.74 8.37 13.74 8.77 13.94 8.63 C 14.14 8.49 13.97 8.8 14.0 9.0 C 14.03 9.2 14.06 9.48 13.86 9.39 C 13.66 9.29 13.66 9.69 13.86 9.59 C 14.06 9.48 13.97 9.8 14.0 10.0 M 15,0 L 15,10 "></path></svg>