<svg xmlns="http://www.w3.org/2000/svg" version="1.0" width="300mm" height="300mm" viewBox="0 0 300 300"><path fill="none" stroke="Black" stroke-width="0.1" d="M 0.0,75.0 C 15.0 72.21 36.88 69.95 30.57 84.95 C 24.27 99.95 54.27 99.95 45.57 84.95 C 36.88 69.95 60.0 74.26 75.0 75.0 C 90.0 75.74 117.16 70.3 107.64 85.3 C 98.13 100.3 128.13 100.3 122.64 85.3 C 117.16 70.3 135.0 75.95 150.0 75.0 C 165.0 74.05 190.75 68.51 181.12 83.51 C 171.49 98.51 201.49 98.51 196.12 83.51 C 190.75 68.51 210.0 74.86 225.0 75.0 C 240.0 75.14 259.18 81.22 254.38 66.22 C 249.58 51.22 279.58 51.22 269.38 66.22 C 259.18 81.22 285.0 74.72 300.0 75.0 M 0.0,150.0 C 15.0 150.08 34.53 140.73 29.99 155.73 C 25.46 170.73 55.46 170.73 44.99 155.73 C 34.53 140.73 60.0 151.78 75.0 150.0 C 90.0 148.22 108.87 157.41 102.92 142.41 C 96.98 127.41 126.98 127.41 117.92 142.41 C 108.87 157.41 135.0 151.82 150.0 150.0 C 165.0 148.18 192.42 142.48 182.53 157.48 C 172.64 172.48 202.64 172.48 197.53 157.48 C 192.42 142.48 210.0 148.97 225.0 150.0 C 240.0 151.03 263.6 157.51 257.49 142.51 C 251.39 127.51 281.39 127.51 272.49 142.51 C 263.6 157.51 285.0 152.99 300.0 150.0 M 0.0,225.0 C 15.0 224.08 38.22 230.98 32.39 215.98 C 26.56 200.98 56.56 200.98 47.39 215.98 C 38.22 230.98 60.0 225.16 75.0 225.0 C 90.0 224.84 112.7 219.32 103.14 234.32 C 93.57 249.32 123.57 249.32 118.14 234.32 C 112.7 219.32 135.0 223.27 150.0 225.0 C 165.0 226.73 184.32 230.92 178.74 215.92 C 173.16 200.92 203.16 200.92 193.74 215.92 C 184.32 230.92 210.0 222.04 225.0 225.0 C 240.0 227.96 261.02 217.11 255.7 232.11 C 250.38 247.11 280.38 247.11 270.7 232.11 C 261.02 217.11 285.0 225.28 300.0 225.0 "></path><path fill="none" stroke="Black" stroke-width="0.1" d="M 75.0,0.0 C 77.42 15.0 65.72 32.23 80.72 27.58 C 95.72 22.93 95.72 52.93 80.72 42.58 C 65.72 32.23 75.49 60.0 75.0 75.0 C 74.51 90.0 81.5 111.69 66.5 106.08 C 51.5 100.46 51.5 130.46 66.5 121.08 C 81.5 111.69 74.87 135.0 75.0 150.0 C 75.13 165.0 79.53 186.0 64.53 178.76 C 49.53 171.53 49.53 201.53 64.53 193.76 C 79.53 186.0 74.49 210.0 75.0 225.0 C 75.51 240.0 69.62 266.95 84.62 256.53 C 99.62 246.11 99.62 276.11 84.62 271.53 C 69.62 266.95 74.33 285.0 75.0 300.0 M 150.0,0.0 C 150.52 15.0 141.65 36.19 156.65 30.74 C 171.65 25.29 171.65 55.29 156.65 45.74 C 141.65 36.19 148.4 60.0 150.0 75.0 C 151.6 90.0 144.7 111.58 159.7 103.0 C 174.7 94.43 174.7 124.43 159.7 118.0 C 144.7 111.58 149.53 135.0 150.0 150.0 C 150.47 165.0 142.21 190.64 157.21 182.44 C 172.21 174.24 172.21 204.24 157.21 197.44 C 142.21 190.64 152.29 210.0 150.0 225.0 C 147.71 240.0 155.25 263.92 140.25 255.82 C 125.25 247.72 125.25 277.72 140.25 270.82 C 155.25 263.92 152.57 285.0 150.0 300.0 M 225.0,0.0 C 223.42 15.0 229.98 34.57 214.98 27.5 C 199.98 20.43 199.98 50.43 214.98 42.5 C 229.98 34.57 225.86 60.0 225.0 75.0 C 224.14 90.0 234.37 109.38 219.37 104.38 C 204.37 99.38 204.37 129.38 219.37 119.38 C 234.37 109.38 224.83 135.0 225.0 150.0 C 225.17 165.0 217.74 186.2 232.74 177.61 C 247.74 169.02 247.74 199.02 232.74 192.61 C 217.74 186.2 225.9 210.0 225.0 225.0 C 224.1 240.0 234.85 263.16 219.85 255.24 C 204.85 247.33 204.85 277.33 219.85 270.24 C 234.85 263.16 227.99 285.0 225.0 300.0 "></path><path fill="none" stroke="Black" stroke-width="0.1" d="M 2.0 0.0 L 298.0 0.0 A 2.0 2.0 0 0 1 300.0 2.0 L 300.0 298.0 A 2.0 2.0 0 0 1 298.0 300.0 L 2.0 300.0 A 2.0 2.0 0 0 1 0.0 298.0 L 0.0 2.0 A 2.0 2.0 0 0 1 2.0 0.0 "></path></svg>