<svg xmlns="http://www.w3.org/2000/svg" version="1.0" viewBox="0 0 15 10">
  <path d="M 0,0 L 15,0 " class="horizontal" fill="none" stroke="black" stroke-width="0.0"/>
  <path d="M 0.0,1.0 C 0.2 1.01 0.48 0.88 0.37 1.08 C 0.26 1.28 0.66 1.28 0.57 1.08 C 0.48 0.88 0.8 0.99 1.0 1.0 C 1.2 1.01 1.43 1.12 1.36 0.92 C 1.3 0.72 1.7 0.72 1.56 0.92 C 1.43 1.12 1.8 1.03 2.0 1.0 C 2.2 0.97 2.46 1.07 2.36 0.87 C 2.27 0.67 2.67 0.67 2.56 0.87 C 2.46 1.07 2.8 1.0 3.0 1.0 C 3.2 1.0 3.52 0.86 3.4 1.06 C 3.29 1.26 3.69 1.26 3.6 1.06 C 3.52 0.86 3.8 0.98 4.0 1.0 C 4.2 1.02 4.51 0.93 4.41 1.13 C 4.31 1.33 4.71 1.33 4.61 1.13 C 4.51 0.93 4.8 1.04 5.0 1.0 C 5.2 0.96 5.5 1.07 5.42 0.87 C 5.34 0.67 5.74 0.67 5.62 0.87 C 5.5 1.07 5.8 0.97 6.0 1.0 C 6.2 1.03 6.45 1.12 6.38 0.92 C 6.32 0.72 6.72 0.72 6.58 0.92 C 6.45 1.12 6.8 1.02 7.0 1.0 C 7.2 0.98 7.51 1.12 7.42 0.92 C 7.33 0.72 7.73 0.72 7.62 0.92 C 7.51 1.12 7.8 0.98 8.0 1.0 C 8.2 1.02 8.5 0.91 8.44 1.11 C 8.37 1.31 8.77 1.31 8.64 1.11 C 8.5 0.91 8.8 1.01 9.0 1.0 C 9.2 0.99 9.44 1.09 9.37 0.89 C 9.31 0.69 9.71 0.69 9.57 0.89 C 9.44 1.09 9.8 1.03 10.0 1.0 C 10.2 0.97 10.49 0.9 10.39 1.1 C 10.28 1.3 10.68 1.3 10.59 1.1 C 10.49 0.9 10.8 0.98 11.0 1.0 C 11.2 1.02 11.5 0.89 11.39 1.09 C 11.28 1.29 11.68 1.29 11.59 1.09 C 11.5 0.89 11.8 1.0 12.0 1.0 C 12.2 1.0 12.52 0.86 12.42 1.06 C 12.33 1.26 12.73 1.26 12.62 1.06 C 12.52 0.86 12.8 0.98 13.0 1.0 C 13.2 1.02 13.47 1.1 13.38 0.9 C 13.29 0.7 13.69 0.7 13.58 0.9 C 13.47 1.1 13.8 1.01 14.0 1.0 C 14.2 0.99 14.45 0.9 14.37 1.1 C 14.29 1.3 14.69 1.3 14.57 1.1 C 14.45 0.9 14.8 1.0 15.0 1.0 " class="horizontal" fill="none" stroke="black" stroke-width="0.0"/>
  <path d="M 0.0,2.0 C 0.2 2.02 0.5 1.9 0.42 2.1 C 0.35 2.3 0.75 2.3 0.62 2.1 C 0.5 1.9 0.8 2.01 1.0 2.0 C 1.2 1.99 1.55 2.09 1.41 1.89 C 1.27 1.69 1.67 1.69 1.61 1.89 C 1.55 2.09 1.8 2.01 2.0 2.0 C 2.2 1.99 2.48 2.13 2.38 1.93 C 2.29 1.73 2.69 1.73 2.58 1.93 C 2.48 2.13 2.8 2.01 3.0 2.0 C 3.2 1.99 3.57 1.88 3.43 2.08 C 3.29 2.28 3.69 2.28 3.63 2.08 C 3.57 1.88 3.8 1.97 4.0 2.0 C 4.2 2.03 4.52 1.92 4.4 2.12 C 4.29 2.32 4.69 2.32 4.6 2.12 C 4.52 1.92 4.8 1.99 5.0 2.0 C 5.2 2.01 5.54 1.92 5.44 2.12 C 5.33 2.32 5.73 2.32 5.64 2.12 C 5.54 1.92 5.8 2.03 6.0 2.0 C 6.2 1.97 6.48 1.91 6.4 2.11 C 6.31 2.31 6.71 2.31 6.6 2.11 C 6.48 1.91 6.8 1.96 7.0 2.0 C 7.2 2.04 7.53 2.06 7.42 1.86 C 7.31 1.66 7.71 1.66 7.62 1.86 C 7.53 2.06 7.8 2.02 8.0 2.0 C 8.2 1.98 8.57 1.9 8.43 2.1 C 8.29 2.3 8.69 2.3 8.63 2.1 C 8.57 1.9 8.8 2.02 9.0 2.0 C 9.2 1.98 9.53 1.89 9.4 2.09 C 9.27 2.29 9.67 2.29 9.6 2.09 C 9.53 1.89 9.8 2.02 10.0 2.0 C 10.2 1.98 10.44 2.14 10.38 1.94 C 10.32 1.74 10.72 1.74 10.58 1.94 C 10.44 2.14 10.8 2.03 11.0 2.0 C 11.2 1.97 11.49 1.91 11.4 2.11 C 11.3 2.31 11.7 2.31 11.6 2.11 C 11.49 1.91 11.8 2.0 12.0 2.0 C 12.2 2.0 12.57 1.9 12.44 2.1 C 12.31 2.3 12.71 2.3 12.64 2.1 C 12.57 1.9 12.8 2.0 13.0 2.0 C 13.2 2.0 13.57 1.88 13.44 2.08 C 13.31 2.28 13.71 2.28 13.64 2.08 C 13.57 1.88 13.8 2.01 14.0 2.0 C 14.2 1.99 14.55 2.07 14.42 1.87 C 14.28 1.67 14.68 1.67 14.62 1.87 C 14.55 2.07 14.8 2.0 15.0 2.0 " class="horizontal" fill="none" stroke="black" stroke-width="0.0"/>
  <path d="M 0.0,3.0 C 0.2 3.02 0.51 3.13 0.44 2.93 C 0.37 2.73 0.77 2.73 0.64 2.93 C 0.51 3.13 0.8 3.0 1.0 3.0 C 1.2 3.0 1.56 2.87 1.44 3.07 C 1.32 3.27 1.72 3.27 1.64 3.07 C 1.56 2.87 1.8 3.0 2.0 3.0 C 2.2 3.0 2.5 3.06 2.42 2.86 C 2.35 2.66 2.75 2.66 2.62 2.86 C 2.5 3.06 2.8 3.0 3.0 3.0 C 3.2 3.0 3.53 2.91 3.44 3.11 C 3.35 3.31 3.75 3.31 3.64 3.11 C 3.53 2.91 3.8 2.97 4.0 3.0 C 4.2 3.03 4.45 3.07 4.38 2.87 C 4.3 2.67 4.7 2.67 4.58 2.87 C 4.45 3.07 4.8 3.01 5.0 3.0 C 5.2 2.99 5.53 3.1 5.43 2.9 C 5.33 2.7 5.73 2.7 5.63 2.9 C 5.53 3.1 5.8 3.04 6.0 3.0 C 6.2 2.96 6.45 3.06 6.38 2.86 C 6.31 2.66 6.71 2.66 6.58 2.86 C 6.45 3.06 6.8 3.02 7.0 3.0 C 7.2 2.98 7.49 2.9 7.39 3.1 C 7.28 3.3 7.68 3.3 7.59 3.1 C 7.49 2.9 7.8 3.02 8.0 3.0 C 8.2 2.98 8.47 3.11 8.41 2.91 C 8.34 2.71 8.74 2.71 8.61 2.91 C 8.47 3.11 8.8 3.02 9.0 3.0 C 9.2 2.98 9.45 2.86 9.39 3.06 C 9.32 3.26 9.72 3.26 9.59 3.06 C 9.45 2.86 9.8 2.99 10.0 3.0 C 10.2 3.01 10.52 2.88 10.41 3.08 C 10.29 3.28 10.69 3.28 10.61 3.08 C 10.52 2.88 10.8 3.02 11.0 3.0 C 11.2 2.98 11.51 2.88 11.42 3.08 C 11.32 3.28 11.72 3.28 11.62 3.08 C 11.51 2.88 11.8 3.03 12.0 3.0 C 12.2 2.97 12.46 2.89 12.38 3.09 C 12.3 3.29 12.7 3.29 12.58 3.09 C 12.46 2.89 12.8 2.97 13.0 3.0 C 13.2 3.03 13.48 3.12 13.37 2.92 C 13.25 2.72 13.65 2.72 13.57 2.92 C 13.48 3.12 13.8 2.99 14.0 3.0 C 14.2 3.01 14.43 3.11 14.37 2.91 C 14.31 2.71 14.71 2.71 14.57 2.91 C 14.43 3.11 14.8 3.02 15.0 3.0 " class="horizontal" fill="none" stroke="black" stroke-width="0.0"/>
  <path d="M 0.0,4.0 C 0.2 3.97 0.53 4.1 0.41 3.9 C 0.28 3.7 0.68 3.7 0.61 3.9 C 0.53 4.1 0.8 4.02 1.0 4.0 C 1.2 3.98 1.5 4.13 1.36 3.93 C 1.23 3.73 1.63 3.73 1.56 3.93 C 1.5 4.13 1.8 3.98 2.0 4.0 C 2.2 4.02 2.47 3.93 2.39 4.13 C 2.31 4.33 2.71 4.33 2.59 4.13 C 2.47 3.93 2.8 3.97 3.0 4.0 C 3.2 4.03 3.54 4.07 3.42 3.87 C 3.3 3.67 3.7 3.67 3.62 3.87 C 3.54 4.07 3.8 4.04 4.0 4.0 C 4.2 3.96 4.56 3.92 4.43 4.12 C 4.3 4.32 4.7 4.32 4.63 4.12 C 4.56 3.92 4.8 3.97 5.0 4.0 C 5.2 4.03 5.51 4.11 5.43 3.91 C 5.35 3.71 5.75 3.71 5.63 3.91 C 5.51 4.11 5.8 4.03 6.0 4.0 C 6.2 3.97 6.49 3.9 6.42 4.1 C 6.35 4.3 6.75 4.3 6.62 4.1 C 6.49 3.9 6.8 3.99 7.0 4.0 C 7.2 4.01 7.5 4.08 7.43 3.88 C 7.36 3.68 7.76 3.68 7.63 3.88 C 7.5 4.08 7.8 3.98 8.0 4.0 C 8.2 4.02 8.5 3.87 8.41 4.07 C 8.31 4.27 8.71 4.27 8.61 4.07 C 8.5 3.87 8.8 4.04 9.0 4.0 C 9.2 3.96 9.53 3.88 9.44 4.08 C 9.34 4.28 9.74 4.28 9.64 4.08 C 9.53 3.88 9.8 4.04 10.0 4.0 C 10.2 3.96 10.45 3.9 10.37 4.1 C 10.29 4.3 10.69 4.3 10.57 4.1 C 10.45 3.9 10.8 4.0 11.0 4.0 C 11.2 4.0 11.57 4.1 11.43 3.9 C 11.3 3.7 11.7 3.7 11.63 3.9 C 11.57 4.1 11.8 4.03 12.0 4.0 C 12.2 3.97 12.57 4.08 12.43 3.88 C 12.29 3.68 12.69 3.68 12.63 3.88 C 12.57 4.08 12.8 4.03 13.0 4.0 C 13.2 3.97 13.46 4.08 13.38 3.88 C 13.3 3.68 13.7 3.68 13.58 3.88 C 13.46 4.08 13.8 4.01 14.0 4.0 C 14.2 3.99 14.46 4.12 14.4 3.92 C 14.33 3.72 14.73 3.72 14.6 3.92 C 14.46 4.12 14.8 4.03 15.0 4.0 " class="horizontal" fill="none" stroke="black" stroke-width="0.0"/>
  <path d="M 0.0,5.0 C 0.2 5.0 0.51 4.88 0.41 5.08 C 0.31 5.28 0.71 5.28 0.61 5.08 C 0.51 4.88 0.8 4.98 1.0 5.0 C 1.2 5.02 1.51 5.1 1.38 4.9 C 1.24 4.7 1.64 4.7 1.58 4.9 C 1.51 5.1 1.8 5.02 2.0 5.0 C 2.2 4.98 2.5 5.11 2.37 4.91 C 2.23 4.71 2.63 4.71 2.57 4.91 C 2.5 5.11 2.8 5.01 3.0 5.0 C 3.2 4.99 3.54 4.93 3.42 5.13 C 3.31 5.33 3.71 5.33 3.62 5.13 C 3.54 4.93 3.8 4.99 4.0 5.0 C 4.2 5.01 4.54 4.89 4.42 5.09 C 4.3 5.29 4.7 5.29 4.62 5.09 C 4.54 4.89 4.8 5.03 5.0 5.0 C 5.2 4.97 5.5 5.14 5.41 4.94 C 5.32 4.74 5.72 4.74 5.61 4.94 C 5.5 5.14 5.8 4.99 6.0 5.0 C 6.2 5.01 6.51 5.09 6.41 4.89 C 6.31 4.69 6.71 4.69 6.61 4.89 C 6.51 5.09 6.8 5.0 7.0 5.0 C 7.2 5.0 7.51 5.07 7.41 4.87 C 7.31 4.67 7.71 4.67 7.61 4.87 C 7.51 5.07 7.8 4.98 8.0 5.0 C 8.2 5.02 8.46 5.12 8.39 4.92 C 8.32 4.72 8.72 4.72 8.59 4.92 C 8.46 5.12 8.8 5.01 9.0 5.0 C 9.2 4.99 9.51 4.92 9.42 5.12 C 9.34 5.32 9.74 5.32 9.62 5.12 C 9.51 4.92 9.8 4.99 10.0 5.0 C 10.2 5.01 10.46 5.12 10.39 4.92 C 10.31 4.72 10.71 4.72 10.59 4.92 C 10.46 5.12 10.8 4.97 11.0 5.0 C 11.2 5.03 11.56 4.94 11.43 5.14 C 11.3 5.34 11.7 5.34 11.63 5.14 C 11.56 4.94 11.8 5.02 12.0 5.0 C 12.2 4.98 12.48 4.91 12.38 5.11 C 12.28 5.31 12.68 5.31 12.58 5.11 C 12.48 4.91 12.8 5.01 13.0 5.0 C 13.2 4.99 13.52 5.1 13.39 4.9 C 13.27 4.7 13.67 4.7 13.59 4.9 C 13.52 5.1 13.8 5.01 14.0 5.0 C 14.2 4.99 14.54 4.88 14.43 5.08 C 14.32 5.28 14.72 5.28 14.63 5.08 C 14.54 4.88 14.8 4.97 15.0 5.0 " class="horizontal" fill="none" stroke="black" stroke-width="0.0"/>
  <path d="M 0.0,6.0 C 0.2 6.04 0.49 6.12 0.39 5.92 C 0.29 5.72 0.69 5.72 0.59 5.92 C 0.49 6.12 0.8 5.96 1.0 6.0 C 1.2 6.04 1.47 5.89 1.41 6.09 C 1.34 6.29 1.74 6.29 1.61 6.09 C 1.47 5.89 1.8 5.99 2.0 6.0 C 2.2 6.01 2.49 5.87 2.4 6.07 C 2.31 6.27 2.71 6.27 2.6 6.07 C 2.49 5.87 2.8 6.0 3.0 6.0 C 3.2 6.0 3.55 5.92 3.43 6.12 C 3.31 6.32 3.71 6.32 3.63 6.12 C 3.55 5.92 3.8 6.0 4.0 6.0 C 4.2 6.0 4.48 5.9 4.41 6.1 C 4.35 6.3 4.75 6.3 4.61 6.1 C 4.48 5.9 4.8 6.02 5.0 6.0 C 5.2 5.98 5.5 6.09 5.38 5.89 C 5.25 5.69 5.65 5.69 5.58 5.89 C 5.5 6.09 5.8 6.02 6.0 6.0 C 6.2 5.98 6.48 5.94 6.41 6.14 C 6.33 6.34 6.73 6.34 6.61 6.14 C 6.48 5.94 6.8 6.02 7.0 6.0 C 7.2 5.98 7.46 6.1 7.38 5.9 C 7.31 5.7 7.71 5.7 7.58 5.9 C 7.46 6.1 7.8 5.98 8.0 6.0 C 8.2 6.02 8.45 5.86 8.38 6.06 C 8.32 6.26 8.72 6.26 8.58 6.06 C 8.45 5.86 8.8 6.0 9.0 6.0 C 9.2 6.0 9.56 5.87 9.42 6.07 C 9.28 6.27 9.68 6.27 9.62 6.07 C 9.56 5.87 9.8 5.98 10.0 6.0 C 10.2 6.02 10.49 6.13 10.42 5.93 C 10.34 5.73 10.74 5.73 10.62 5.93 C 10.49 6.13 10.8 6.0 11.0 6.0 C 11.2 6.0 11.48 6.07 11.42 5.87 C 11.36 5.67 11.76 5.67 11.62 5.87 C 11.48 6.07 11.8 6.02 12.0 6.0 C 12.2 5.98 12.5 5.91 12.42 6.11 C 12.35 6.31 12.75 6.31 12.62 6.11 C 12.5 5.91 12.8 5.99 13.0 6.0 C 13.2 6.01 13.46 6.09 13.38 5.89 C 13.3 5.69 13.7 5.69 13.58 5.89 C 13.46 6.09 13.8 6.01 14.0 6.0 C 14.2 5.99 14.51 6.13 14.38 5.93 C 14.26 5.73 14.66 5.73 14.58 5.93 C 14.51 6.13 14.8 6.02 15.0 6.0 " class="horizontal" fill="none" stroke="black" stroke-width="0.0"/>
  <path d="M 0.0,7.0 C 0.2 7.0 0.53 6.91 0.41 7.11 C 0.28 7.31 0.68 7.31 0.61 7.11 C 0.53 6.91 0.8 7.04 1.0 7.0 C 1.2 6.96 1.51 6.88 1.42 7.08 C 1.34 7.28 1.74 7.28 1.62 7.08 C 1.51 6.88 1.8 6.98 2.0 7.0 C 2.2 7.02 2.45 7.08 2.38 6.88 C 2.31 6.68 2.71 6.68 2.58 6.88 C 2.45 7.08 2.8 7.02 3.0 7.0 C 3.2 6.98 3.53 7.14 3.44 6.94 C 3.35 6.74 3.75 6.74 3.64 6.94 C 3.53 7.14 3.8 7.01 4.0 7.0 C 4.2 6.99 4.52 7.14 4.44 6.94 C 4.36 6.74 4.76 6.74 4.64 6.94 C 4.52 7.14 4.8 6.97 5.0 7.0 C 5.2 7.03 5.45 7.07 5.37 6.87 C 5.28 6.67 5.68 6.67 5.57 6.87 C 5.45 7.07 5.8 7.04 6.0 7.0 C 6.2 6.96 6.52 7.06 6.41 6.86 C 6.3 6.66 6.7 6.66 6.61 6.86 C 6.52 7.06 6.8 6.99 7.0 7.0 C 7.2 7.01 7.5 6.88 7.36 7.08 C 7.23 7.28 7.63 7.28 7.56 7.08 C 7.5 6.88 7.8 7.04 8.0 7.0 C 8.2 6.96 8.48 6.89 8.39 7.09 C 8.3 7.29 8.7 7.29 8.59 7.09 C 8.48 6.89 8.8 7.04 9.0 7.0 C 9.2 6.96 9.52 6.93 9.41 7.13 C 9.31 7.33 9.71 7.33 9.61 7.13 C 9.52 6.93 9.8 7.04 10.0 7.0 C 10.2 6.96 10.57 6.9 10.44 7.1 C 10.3 7.3 10.7 7.3 10.64 7.1 C 10.57 6.9 10.8 7.03 11.0 7.0 C 11.2 6.97 11.48 7.13 11.41 6.93 C 11.33 6.73 11.73 6.73 11.61 6.93 C 11.48 7.13 11.8 7.02 12.0 7.0 C 12.2 6.98 12.47 7.14 12.4 6.94 C 12.33 6.74 12.73 6.74 12.6 6.94 C 12.47 7.14 12.8 6.99 13.0 7.0 C 13.2 7.01 13.54 6.93 13.42 7.13 C 13.29 7.33 13.69 7.33 13.62 7.13 C 13.54 6.93 13.8 7.01 14.0 7.0 C 14.2 6.99 14.49 6.88 14.37 7.08 C 14.25 7.28 14.65 7.28 14.57 7.08 C 14.49 6.88 14.8 6.98 15.0 7.0 " class="horizontal" fill="none" stroke="black" stroke-width="0.0"/>
  <path d="M 0.0,8.0 C 0.2 8.03 0.46 8.1 0.4 7.9 C 0.33 7.7 0.73 7.7 0.6 7.9 C 0.46 8.1 0.8 8.02 1.0 8.0 C 1.2 7.98 1.5 8.07 1.41 7.87 C 1.32 7.67 1.72 7.67 1.61 7.87 C 1.5 8.07 1.8 7.98 2.0 8.0 C 2.2 8.02 2.56 8.06 2.43 7.86 C 2.3 7.66 2.7 7.66 2.63 7.86 C 2.56 8.06 2.8 7.98 3.0 8.0 C 3.2 8.02 3.53 8.07 3.42 7.87 C 3.31 7.67 3.71 7.67 3.62 7.87 C 3.53 8.07 3.8 7.99 4.0 8.0 C 4.2 8.01 4.54 7.89 4.41 8.09 C 4.27 8.29 4.67 8.29 4.61 8.09 C 4.54 7.89 4.8 7.96 5.0 8.0 C 5.2 8.04 5.52 8.13 5.42 7.93 C 5.32 7.73 5.72 7.73 5.62 7.93 C 5.52 8.13 5.8 8.02 6.0 8.0 C 6.2 7.98 6.5 7.9 6.41 8.1 C 6.32 8.3 6.72 8.3 6.61 8.1 C 6.5 7.9 6.8 8.03 7.0 8.0 C 7.2 7.97 7.46 8.12 7.4 7.92 C 7.33 7.72 7.73 7.72 7.6 7.92 C 7.46 8.12 7.8 8.04 8.0 8.0 C 8.2 7.96 8.5 7.91 8.41 8.11 C 8.32 8.31 8.72 8.31 8.61 8.11 C 8.5 7.91 8.8 7.96 9.0 8.0 C 9.2 8.04 9.43 8.06 9.36 7.86 C 9.29 7.66 9.69 7.66 9.56 7.86 C 9.43 8.06 9.8 8.0 10.0 8.0 C 10.2 8.0 10.57 7.93 10.43 8.13 C 10.29 8.33 10.69 8.33 10.63 8.13 C 10.57 7.93 10.8 8.04 11.0 8.0 C 11.2 7.96 11.49 7.89 11.39 8.09 C 11.28 8.29 11.68 8.29 11.59 8.09 C 11.49 7.89 11.8 8.0 12.0 8.0 C 12.2 8.0 12.55 8.09 12.43 7.89 C 12.31 7.69 12.71 7.69 12.63 7.89 C 12.55 8.09 12.8 7.97 13.0 8.0 C 13.2 8.03 13.53 7.87 13.43 8.07 C 13.34 8.27 13.74 8.27 13.63 8.07 C 13.53 7.87 13.8 7.98 14.0 8.0 C 14.2 8.02 14.5 7.87 14.39 8.07 C 14.27 8.27 14.67 8.27 14.59 8.07 C 14.5 7.87 14.8 8.02 15.0 8.0 " class="horizontal" fill="none" stroke="black" stroke-width="0.0"/>
  <path d="M 0.0,9.0 C 0.2 9.03 0.47 9.1 0.37 8.9 C 0.27 8.7 0.67 8.7 0.57 8.9 C 0.47 9.1 0.8 9.01 1.0 9.0 C 1.2 8.99 1.46 8.92 1.39 9.12 C 1.32 9.32 1.72 9.32 1.59 9.12 C 1.46 8.92 1.8 9.01 2.0 9.0 C 2.2 8.99 2.45 9.11 2.36 8.91 C 2.28 8.71 2.68 8.71 2.56 8.91 C 2.45 9.11 2.8 8.97 3.0 9.0 C 3.2 9.03 3.53 9.13 3.39 8.93 C 3.26 8.73 3.66 8.73 3.59 8.93 C 3.53 9.13 3.8 8.97 4.0 9.0 C 4.2 9.03 4.52 8.89 4.4 9.09 C 4.27 9.29 4.67 9.29 4.6 9.09 C 4.52 8.89 4.8 9.04 5.0 9.0 C 5.2 8.96 5.48 9.1 5.37 8.9 C 5.26 8.7 5.66 8.7 5.57 8.9 C 5.48 9.1 5.8 8.96 6.0 9.0 C 6.2 9.04 6.55 8.91 6.42 9.11 C 6.3 9.31 6.7 9.31 6.62 9.11 C 6.55 8.91 6.8 8.98 7.0 9.0 C 7.2 9.02 7.5 8.94 7.37 9.14 C 7.25 9.34 7.65 9.34 7.57 9.14 C 7.5 8.94 7.8 8.98 8.0 9.0 C 8.2 9.02 8.54 9.08 8.42 8.88 C 8.3 8.68 8.7 8.68 8.62 8.88 C 8.54 9.08 8.8 9.01 9.0 9.0 C 9.2 8.99 9.56 9.07 9.42 8.87 C 9.29 8.67 9.69 8.67 9.62 8.87 C 9.56 9.07 9.8 9.01 10.0 9.0 C 10.2 8.99 10.53 9.12 10.44 8.92 C 10.35 8.72 10.75 8.72 10.64 8.92 C 10.53 9.12 10.8 8.96 11.0 9.0 C 11.2 9.04 11.47 8.91 11.4 9.11 C 11.34 9.31 11.74 9.31 11.6 9.11 C 11.47 8.91 11.8 9.0 12.0 9.0 C 12.2 9.0 12.48 8.9 12.37 9.1 C 12.25 9.3 12.65 9.3 12.57 9.1 C 12.48 8.9 12.8 9.01 13.0 9.0 C 13.2 8.99 13.49 8.87 13.42 9.07 C 13.35 9.27 13.75 9.27 13.62 9.07 C 13.49 8.87 13.8 9.02 14.0 9.0 C 14.2 8.98 14.47 9.11 14.36 8.91 C 14.26 8.71 14.66 8.71 14.56 8.91 C 14.47 9.11 14.8 8.97 15.0 9.0 " class="horizontal" fill="none" stroke="black" stroke-width="0.0"/>
  <path d="M 0,10 L 15,10 " class="horizontal" fill="none" stroke="black" stroke-width="0.0"/>
  <path d="M 0,0 L 0,10 " class="vertical" fill="none" stroke="black" stroke-width="0.0"/>
  <path d="M 1.0,0.0 C 1.0 0.2 1.07 0.55 0.87 0.44 C 0.67 0.33 0.67 0.73 0.87 0.64 C 1.07 0.55 0.97 0.8 1.0 1.0 C 1.03 1.2 1.11 1.47 0.91 1.38 C 0.71 1.29 0.71 1.69 0.91 1.58 C 1.11 1.47 1.03 1.8 1.0 2.0 C 0.97 2.2 0.89 2.52 1.09 2.4 C 1.29 2.28 1.29 2.68 1.09 2.6 C 0.89 2.52 1.01 2.8 1.0 3.0 C 0.99 3.2 0.88 3.46 1.08 3.39 C 1.28 3.31 1.28 3.71 1.08 3.59 C 0.88 3.46 1.03 3.8 1.0 4.0 C 0.97 4.2 0.91 4.44 1.11 4.38 C 1.31 4.31 1.31 4.71 1.11 4.58 C 0.91 4.44 1.02 4.8 1.0 5.0 C 0.98 5.2 1.1 5.5 0.9 5.41 C 0.7 5.31 0.7 5.71 0.9 5.61 C 1.1 5.5 1.0 5.8 1.0 6.0 C 1.0 6.2 1.07 6.45 0.87 6.39 C 0.67 6.33 0.67 6.73 0.87 6.59 C 1.07 6.45 1.0 6.8 1.0 7.0 C 1.0 7.2 1.11 7.54 0.91 7.42 C 0.71 7.29 0.71 7.69 0.91 7.62 C 1.11 7.54 1.02 7.8 1.0 8.0 C 0.98 8.2 1.12 8.55 0.92 8.42 C 0.72 8.29 0.72 8.69 0.92 8.62 C 1.12 8.55 0.98 8.8 1.0 9.0 C 1.02 9.2 1.07 9.56 0.87 9.42 C 0.67 9.29 0.67 9.69 0.87 9.62 C 1.07 9.56 1.03 9.8 1.0 10.0 " class="vertical" fill="none" stroke="black" stroke-width="0.0"/>
  <path d="M 2.0,0.0 C 1.96 0.2 1.91 0.44 2.11 0.37 C 2.31 0.29 2.31 0.69 2.11 0.57 C 1.91 0.44 2.0 0.8 2.0 1.0 C 2.0 1.2 2.12 1.46 1.92 1.39 C 1.72 1.32 1.72 1.72 1.92 1.59 C 2.12 1.46 2.01 1.8 2.0 2.0 C 1.99 2.2 1.89 2.52 2.09 2.39 C 2.29 2.26 2.29 2.66 2.09 2.59 C 1.89 2.52 2.01 2.8 2.0 3.0 C 1.99 3.2 2.09 3.53 1.89 3.41 C 1.69 3.29 1.69 3.69 1.89 3.61 C 2.09 3.53 1.99 3.8 2.0 4.0 C 2.01 4.2 2.08 4.52 1.88 4.4 C 1.68 4.28 1.68 4.68 1.88 4.6 C 2.08 4.52 2.0 4.8 2.0 5.0 C 2.0 5.2 1.87 5.54 2.07 5.4 C 2.27 5.27 2.27 5.67 2.07 5.6 C 1.87 5.54 1.98 5.8 2.0 6.0 C 2.02 6.2 2.11 6.46 1.91 6.37 C 1.71 6.29 1.71 6.69 1.91 6.57 C 2.11 6.46 1.97 6.8 2.0 7.0 C 2.03 7.2 2.13 7.56 1.93 7.43 C 1.73 7.3 1.73 7.7 1.93 7.63 C 2.13 7.56 1.97 7.8 2.0 8.0 C 2.03 8.2 1.87 8.51 2.07 8.41 C 2.27 8.31 2.27 8.71 2.07 8.61 C 1.87 8.51 2.02 8.8 2.0 9.0 C 1.98 9.2 2.07 9.57 1.87 9.44 C 1.67 9.3 1.67 9.7 1.87 9.64 C 2.07 9.57 2.01 9.8 2.0 10.0 " class="vertical" fill="none" stroke="black" stroke-width="0.0"/>
  <path d="M 3.0,0.0 C 2.97 0.2 3.09 0.49 2.89 0.41 C 2.69 0.32 2.69 0.72 2.89 0.61 C 3.09 0.49 2.97 0.8 3.0 1.0 C 3.03 1.2 2.93 1.5 3.13 1.36 C 3.33 1.23 3.33 1.63 3.13 1.56 C 2.93 1.5 3.03 1.8 3.0 2.0 C 2.97 2.2 3.06 2.53 2.86 2.4 C 2.66 2.26 2.66 2.66 2.86 2.6 C 3.06 2.53 2.96 2.8 3.0 3.0 C 3.04 3.2 3.08 3.45 2.88 3.36 C 2.68 3.28 2.68 3.68 2.88 3.56 C 3.08 3.45 3.0 3.8 3.0 4.0 C 3.0 4.2 2.86 4.49 3.06 4.38 C 3.26 4.28 3.26 4.68 3.06 4.58 C 2.86 4.49 3.03 4.8 3.0 5.0 C 2.97 5.2 3.11 5.49 2.91 5.36 C 2.71 5.23 2.71 5.63 2.91 5.56 C 3.11 5.49 2.97 5.8 3.0 6.0 C 3.03 6.2 3.13 6.49 2.93 6.37 C 2.73 6.26 2.73 6.66 2.93 6.57 C 3.13 6.49 2.99 6.8 3.0 7.0 C 3.01 7.2 3.1 7.48 2.9 7.42 C 2.7 7.35 2.7 7.75 2.9 7.62 C 3.1 7.48 3.02 7.8 3.0 8.0 C 2.98 8.2 2.89 8.51 3.09 8.42 C 3.29 8.33 3.29 8.73 3.09 8.62 C 2.89 8.51 3.03 8.8 3.0 9.0 C 2.97 9.2 3.12 9.5 2.92 9.41 C 2.72 9.32 2.72 9.72 2.92 9.61 C 3.12 9.5 2.98 9.8 3.0 10.0 " class="vertical" fill="none" stroke="black" stroke-width="0.0"/>
  <path d="M 4.0,0.0 C 4.03 0.2 3.86 0.49 4.06 0.43 C 4.26 0.37 4.26 0.77 4.06 0.63 C 3.86 0.49 3.97 0.8 4.0 1.0 C 4.03 1.2 3.93 1.52 4.13 1.42 C 4.33 1.31 4.33 1.71 4.13 1.62 C 3.93 1.52 4.03 1.8 4.0 2.0 C 3.97 2.2 3.93 2.52 4.13 2.44 C 4.33 2.36 4.33 2.76 4.13 2.64 C 3.93 2.52 4.04 2.8 4.0 3.0 C 3.96 3.2 3.87 3.54 4.07 3.44 C 4.27 3.34 4.27 3.74 4.07 3.64 C 3.87 3.54 4.03 3.8 4.0 4.0 C 3.97 4.2 4.1 4.57 3.9 4.43 C 3.7 4.29 3.7 4.69 3.9 4.63 C 4.1 4.57 3.97 4.8 4.0 5.0 C 4.03 5.2 4.08 5.48 3.88 5.4 C 3.68 5.32 3.68 5.72 3.88 5.6 C 4.08 5.48 3.97 5.8 4.0 6.0 C 4.03 6.2 4.14 6.49 3.94 6.37 C 3.74 6.25 3.74 6.65 3.94 6.57 C 4.14 6.49 4.0 6.8 4.0 7.0 C 4.0 7.2 4.08 7.57 3.88 7.44 C 3.68 7.31 3.68 7.71 3.88 7.64 C 4.08 7.57 4.01 7.8 4.0 8.0 C 3.99 8.2 3.87 8.47 4.07 8.4 C 4.27 8.33 4.27 8.73 4.07 8.6 C 3.87 8.47 3.97 8.8 4.0 9.0 C 4.03 9.2 4.07 9.48 3.87 9.42 C 3.67 9.35 3.67 9.75 3.87 9.62 C 4.07 9.48 3.98 9.8 4.0 10.0 " class="vertical" fill="none" stroke="black" stroke-width="0.0"/>
  <path d="M 5.0,0.0 C 4.98 0.2 4.92 0.48 5.12 0.38 C 5.32 0.29 5.32 0.69 5.12 0.58 C 4.92 0.48 5.01 0.8 5.0 1.0 C 4.99 1.2 4.91 1.46 5.11 1.4 C 5.31 1.34 5.31 1.74 5.11 1.6 C 4.91 1.46 4.98 1.8 5.0 2.0 C 5.02 2.2 5.11 2.5 4.91 2.39 C 4.71 2.27 4.71 2.67 4.91 2.59 C 5.11 2.5 5.03 2.8 5.0 3.0 C 4.97 3.2 4.94 3.47 5.14 3.39 C 5.34 3.3 5.34 3.7 5.14 3.59 C 4.94 3.47 4.99 3.8 5.0 4.0 C 5.01 4.2 4.88 4.45 5.08 4.38 C 5.28 4.31 5.28 4.71 5.08 4.58 C 4.88 4.45 5.03 4.8 5.0 5.0 C 4.97 5.2 4.9 5.52 5.1 5.4 C 5.3 5.27 5.3 5.67 5.1 5.6 C 4.9 5.52 5.01 5.8 5.0 6.0 C 4.99 6.2 4.94 6.44 5.14 6.37 C 5.34 6.3 5.34 6.7 5.14 6.57 C 4.94 6.44 5.03 6.8 5.0 7.0 C 4.97 7.2 4.89 7.53 5.09 7.43 C 5.29 7.33 5.29 7.73 5.09 7.63 C 4.89 7.53 5.01 7.8 5.0 8.0 C 4.99 8.2 5.11 8.44 4.91 8.37 C 4.71 8.31 4.71 8.71 4.91 8.57 C 5.11 8.44 5.01 8.8 5.0 9.0 C 4.99 9.2 4.93 9.5 5.13 9.38 C 5.33 9.26 5.33 9.66 5.13 9.58 C 4.93 9.5 5.02 9.8 5.0 10.0 " class="vertical" fill="none" stroke="black" stroke-width="0.0"/>
  <path d="M 6.0,0.0 C 6.0 0.2 5.93 0.55 6.13 0.44 C 6.33 0.33 6.33 0.73 6.13 0.64 C 5.93 0.55 5.99 0.8 6.0 1.0 C 6.01 1.2 5.89 1.53 6.09 1.39 C 6.29 1.25 6.29 1.65 6.09 1.59 C 5.89 1.53 5.98 1.8 6.0 2.0 C 6.02 2.2 6.06 2.56 5.86 2.44 C 5.66 2.31 5.66 2.71 5.86 2.64 C 6.06 2.56 5.99 2.8 6.0 3.0 C 6.01 3.2 6.1 3.56 5.9 3.43 C 5.7 3.29 5.7 3.69 5.9 3.63 C 6.1 3.56 6.03 3.8 6.0 4.0 C 5.97 4.2 6.09 4.49 5.89 4.4 C 5.69 4.32 5.69 4.72 5.89 4.6 C 6.09 4.49 5.99 4.8 6.0 5.0 C 6.01 5.2 6.13 5.5 5.93 5.36 C 5.73 5.23 5.73 5.63 5.93 5.56 C 6.13 5.5 5.97 5.8 6.0 6.0 C 6.03 6.2 6.07 6.54 5.87 6.43 C 5.67 6.32 5.67 6.72 5.87 6.63 C 6.07 6.54 6.0 6.8 6.0 7.0 C 6.0 7.2 6.13 7.48 5.93 7.4 C 5.73 7.31 5.73 7.71 5.93 7.6 C 6.13 7.48 5.96 7.8 6.0 8.0 C 6.04 8.2 5.88 8.5 6.08 8.39 C 6.28 8.28 6.28 8.68 6.08 8.59 C 5.88 8.5 6.03 8.8 6.0 9.0 C 5.97 9.2 6.07 9.5 5.87 9.42 C 5.67 9.34 5.67 9.74 5.87 9.62 C 6.07 9.5 5.96 9.8 6.0 10.0 " class="vertical" fill="none" stroke="black" stroke-width="0.0"/>
  <path d="M 7.0,0.0 C 7.04 0.2 6.87 0.48 7.07 0.36 C 7.27 0.24 7.27 0.64 7.07 0.56 C 6.87 0.48 7.0 0.8 7.0 1.0 C 7.0 1.2 6.94 1.5 7.14 1.42 C 7.34 1.34 7.34 1.74 7.14 1.62 C 6.94 1.5 7.04 1.8 7.0 2.0 C 6.96 2.2 7.13 2.55 6.93 2.42 C 6.73 2.29 6.73 2.69 6.93 2.62 C 7.13 2.55 6.98 2.8 7.0 3.0 C 7.02 3.2 7.07 3.48 6.87 3.37 C 6.67 3.26 6.67 3.66 6.87 3.57 C 7.07 3.48 7.03 3.8 7.0 4.0 C 6.97 4.2 7.1 4.53 6.9 4.44 C 6.7 4.34 6.7 4.74 6.9 4.64 C 7.1 4.53 7.0 4.8 7.0 5.0 C 7.0 5.2 7.1 5.53 6.9 5.39 C 6.7 5.25 6.7 5.65 6.9 5.59 C 7.1 5.53 7.04 5.8 7.0 6.0 C 6.96 6.2 7.06 6.48 6.86 6.41 C 6.66 6.34 6.66 6.74 6.86 6.61 C 7.06 6.48 6.98 6.8 7.0 7.0 C 7.02 7.2 7.07 7.5 6.87 7.36 C 6.67 7.23 6.67 7.63 6.87 7.56 C 7.07 7.5 7.01 7.8 7.0 8.0 C 6.99 8.2 7.12 8.5 6.92 8.41 C 6.72 8.32 6.72 8.72 6.92 8.61 C 7.12 8.5 6.96 8.8 7.0 9.0 C 7.04 9.2 6.91 9.51 7.11 9.39 C 7.31 9.26 7.31 9.66 7.11 9.59 C 6.91 9.51 6.99 9.8 7.0 10.0 " class="vertical" fill="none" stroke="black" stroke-width="0.0"/>
  <path d="M 8.0,0.0 C 8.01 0.2 8.1 0.52 7.9 0.43 C 7.7 0.34 7.7 0.74 7.9 0.63 C 8.1 0.52 8.0 0.8 8.0 1.0 C 8.0 1.2 7.86 1.51 8.06 1.38 C 8.26 1.25 8.26 1.65 8.06 1.58 C 7.86 1.51 7.97 1.8 8.0 2.0 C 8.03 2.2 7.87 2.47 8.07 2.39 C 8.27 2.31 8.27 2.71 8.07 2.59 C 7.87 2.47 8.03 2.8 8.0 3.0 C 7.97 3.2 7.91 3.49 8.11 3.42 C 8.31 3.34 8.31 3.74 8.11 3.62 C 7.91 3.49 8.0 3.8 8.0 4.0 C 8.0 4.2 8.07 4.49 7.87 4.37 C 7.67 4.25 7.67 4.65 7.87 4.57 C 8.07 4.49 7.99 4.8 8.0 5.0 C 8.01 5.2 8.09 5.51 7.89 5.4 C 7.69 5.3 7.69 5.7 7.89 5.6 C 8.09 5.51 7.96 5.8 8.0 6.0 C 8.04 6.2 8.07 6.49 7.87 6.42 C 7.67 6.36 7.67 6.76 7.87 6.62 C 8.07 6.49 8.03 6.8 8.0 7.0 C 7.97 7.2 8.1 7.49 7.9 7.41 C 7.7 7.32 7.7 7.72 7.9 7.61 C 8.1 7.49 7.98 7.8 8.0 8.0 C 8.02 8.2 7.9 8.5 8.1 8.38 C 8.3 8.26 8.3 8.66 8.1 8.58 C 7.9 8.5 8.03 8.8 8.0 9.0 C 7.97 9.2 7.87 9.55 8.07 9.41 C 8.27 9.27 8.27 9.67 8.07 9.61 C 7.87 9.55 8.0 9.8 8.0 10.0 " class="vertical" fill="none" stroke="black" stroke-width="0.0"/>
  <path d="M 9.0,0.0 C 8.99 0.2 8.93 0.53 9.13 0.44 C 9.33 0.35 9.33 0.75 9.13 0.64 C 8.93 0.53 9.0 0.8 9.0 1.0 C 9.0 1.2 8.88 1.55 9.08 1.41 C 9.28 1.28 9.28 1.68 9.08 1.61 C 8.88 1.55 9.02 1.8 9.0 2.0 C 8.98 2.2 8.93 2.48 9.13 2.38 C 9.33 2.29 9.33 2.69 9.13 2.58 C 8.93 2.48 8.96 2.8 9.0 3.0 C 9.04 3.2 9.08 3.46 8.88 3.39 C 8.68 3.32 8.68 3.72 8.88 3.59 C 9.08 3.46 9.01 3.8 9.0 4.0 C 8.99 4.2 8.9 4.45 9.1 4.37 C 9.3 4.29 9.3 4.69 9.1 4.57 C 8.9 4.45 9.03 4.8 9.0 5.0 C 8.97 5.2 8.92 5.49 9.12 5.36 C 9.32 5.24 9.32 5.64 9.12 5.56 C 8.92 5.49 8.96 5.8 9.0 6.0 C 9.04 6.2 9.13 6.5 8.93 6.38 C 8.73 6.26 8.73 6.66 8.93 6.58 C 9.13 6.5 8.96 6.8 9.0 7.0 C 9.04 7.2 9.06 7.5 8.86 7.4 C 8.66 7.29 8.66 7.69 8.86 7.6 C 9.06 7.5 9.0 7.8 9.0 8.0 C 9.0 8.2 8.91 8.52 9.11 8.43 C 9.31 8.33 9.31 8.73 9.11 8.63 C 8.91 8.52 8.98 8.8 9.0 9.0 C 9.02 9.2 9.07 9.46 8.87 9.39 C 8.67 9.31 8.67 9.71 8.87 9.59 C 9.07 9.46 8.99 9.8 9.0 10.0 " class="vertical" fill="none" stroke="black" stroke-width="0.0"/>
  <path d="M 10.0,0.0 C 10.0 0.2 10.1 0.47 9.9 0.36 C 9.7 0.25 9.7 0.65 9.9 0.56 C 10.1 0.47 10.02 0.8 10.0 1.0 C 9.98 1.2 10.12 1.57 9.92 1.43 C 9.72 1.3 9.72 1.7 9.92 1.63 C 10.12 1.57 10.03 1.8 10.0 2.0 C 9.97 2.2 10.1 2.52 9.9 2.42 C 9.7 2.33 9.7 2.73 9.9 2.62 C 10.1 2.52 9.98 2.8 10.0 3.0 C 10.02 3.2 10.06 3.49 9.86 3.4 C 9.66 3.31 9.66 3.71 9.86 3.6 C 10.06 3.49 10.03 3.8 10.0 4.0 C 9.97 4.2 9.92 4.55 10.12 4.42 C 10.32 4.29 10.32 4.69 10.12 4.62 C 9.92 4.55 10.04 4.8 10.0 5.0 C 9.96 5.2 10.12 5.51 9.92 5.38 C 9.72 5.25 9.72 5.65 9.92 5.58 C 10.12 5.51 10.0 5.8 10.0 6.0 C 10.0 6.2 9.93 6.52 10.13 6.39 C 10.33 6.26 10.33 6.66 10.13 6.59 C 9.93 6.52 10.0 6.8 10.0 7.0 C 10.0 7.2 10.07 7.53 9.87 7.44 C 9.67 7.35 9.67 7.75 9.87 7.64 C 10.07 7.53 10.0 7.8 10.0 8.0 C 10.0 8.2 10.14 8.47 9.94 8.38 C 9.74 8.28 9.74 8.68 9.94 8.58 C 10.14 8.47 10.01 8.8 10.0 9.0 C 9.99 9.2 10.1 9.51 9.9 9.44 C 9.7 9.37 9.7 9.77 9.9 9.64 C 10.1 9.51 10.02 9.8 10.0 10.0 " class="vertical" fill="none" stroke="black" stroke-width="0.0"/>
  <path d="M 11.0,0.0 C 11.03 0.2 11.09 0.47 10.89 0.38 C 10.69 0.3 10.69 0.7 10.89 0.58 C 11.09 0.47 11.02 0.8 11.0 1.0 C 10.98 1.2 11.13 1.44 10.93 1.38 C 10.73 1.31 10.73 1.71 10.93 1.58 C 11.13 1.44 11.04 1.8 11.0 2.0 C 10.96 2.2 11.1 2.51 10.9 2.43 C 10.7 2.36 10.7 2.76 10.9 2.63 C 11.1 2.51 10.97 2.8 11.0 3.0 C 11.03 3.2 11.14 3.52 10.94 3.43 C 10.74 3.34 10.74 3.74 10.94 3.63 C 11.14 3.52 11.02 3.8 11.0 4.0 C 10.98 4.2 11.12 4.45 10.92 4.37 C 10.72 4.3 10.72 4.7 10.92 4.57 C 11.12 4.45 10.99 4.8 11.0 5.0 C 11.01 5.2 11.07 5.5 10.87 5.4 C 10.67 5.31 10.67 5.71 10.87 5.6 C 11.07 5.5 11.03 5.8 11.0 6.0 C 10.97 6.2 11.09 6.56 10.89 6.43 C 10.69 6.3 10.69 6.7 10.89 6.63 C 11.09 6.56 11.0 6.8 11.0 7.0 C 11.0 7.2 10.93 7.57 11.13 7.44 C 11.33 7.31 11.33 7.71 11.13 7.64 C 10.93 7.57 10.97 7.8 11.0 8.0 C 11.03 8.2 11.08 8.47 10.88 8.39 C 10.68 8.31 10.68 8.71 10.88 8.59 C 11.08 8.47 10.97 8.8 11.0 9.0 C 11.03 9.2 11.07 9.47 10.87 9.39 C 10.67 9.31 10.67 9.71 10.87 9.59 C 11.07 9.47 10.96 9.8 11.0 10.0 " class="vertical" fill="none" stroke="black" stroke-width="0.0"/>
  <path d="M 12.0,0.0 C 12.03 0.2 12.11 0.55 11.91 0.42 C 11.71 0.29 11.71 0.69 11.91 0.62 C 12.11 0.55 12.0 0.8 12.0 1.0 C 12.0 1.2 12.07 1.43 11.87 1.37 C 11.67 1.3 11.67 1.7 11.87 1.57 C 12.07 1.43 11.99 1.8 12.0 2.0 C 12.01 2.2 12.11 2.47 11.91 2.36 C 11.71 2.26 11.71 2.66 11.91 2.56 C 12.11 2.47 12.0 2.8 12.0 3.0 C 12.0 3.2 11.93 3.53 12.13 3.44 C 12.33 3.34 12.33 3.74 12.13 3.64 C 11.93 3.53 12.03 3.8 12.0 4.0 C 11.97 4.2 11.87 4.46 12.07 4.37 C 12.27 4.28 12.27 4.68 12.07 4.57 C 11.87 4.46 12.03 4.8 12.0 5.0 C 11.97 5.2 12.13 5.54 11.93 5.43 C 11.73 5.32 11.73 5.72 11.93 5.63 C 12.13 5.54 11.98 5.8 12.0 6.0 C 12.02 6.2 12.1 6.48 11.9 6.38 C 11.7 6.27 11.7 6.67 11.9 6.58 C 12.1 6.48 12.02 6.8 12.0 7.0 C 11.98 7.2 12.13 7.46 11.93 7.39 C 11.73 7.31 11.73 7.71 11.93 7.59 C 12.13 7.46 11.99 7.8 12.0 8.0 C 12.01 8.2 11.89 8.46 12.09 8.36 C 12.29 8.27 12.29 8.67 12.09 8.56 C 11.89 8.46 11.98 8.8 12.0 9.0 C 12.02 9.2 11.93 9.56 12.13 9.43 C 12.33 9.31 12.33 9.71 12.13 9.63 C 11.93 9.56 12.04 9.8 12.0 10.0 " class="vertical" fill="none" stroke="black" stroke-width="0.0"/>
  <path d="M 13.0,0.0 C 13.01 0.2 13.12 0.55 12.92 0.43 C 12.72 0.32 12.72 0.72 12.92 0.63 C 13.12 0.55 13.01 0.8 13.0 1.0 C 12.99 1.2 12.89 1.49 13.09 1.39 C 13.29 1.29 13.29 1.69 13.09 1.59 C 12.89 1.49 12.98 1.8 13.0 2.0 C 13.02 2.2 13.06 2.53 12.86 2.4 C 12.66 2.26 12.66 2.66 12.86 2.6 C 13.06 2.53 13.02 2.8 13.0 3.0 C 12.98 3.2 12.9 3.49 13.1 3.37 C 13.3 3.25 13.3 3.65 13.1 3.57 C 12.9 3.49 13.03 3.8 13.0 4.0 C 12.97 4.2 12.87 4.51 13.07 4.44 C 13.27 4.37 13.27 4.77 13.07 4.64 C 12.87 4.51 13.02 4.8 13.0 5.0 C 12.98 5.2 12.86 5.53 13.06 5.39 C 13.26 5.25 13.26 5.65 13.06 5.59 C 12.86 5.53 13.03 5.8 13.0 6.0 C 12.97 6.2 12.89 6.53 13.09 6.43 C 13.29 6.32 13.29 6.72 13.09 6.63 C 12.89 6.53 12.99 6.8 13.0 7.0 C 13.01 7.2 13.11 7.49 12.91 7.43 C 12.71 7.36 12.71 7.76 12.91 7.63 C 13.11 7.49 12.99 7.8 13.0 8.0 C 13.01 8.2 12.88 8.47 13.08 8.38 C 13.28 8.3 13.28 8.7 13.08 8.58 C 12.88 8.47 13.0 8.8 13.0 9.0 C 13.0 9.2 13.06 9.54 12.86 9.42 C 12.66 9.3 12.66 9.7 12.86 9.62 C 13.06 9.54 13.04 9.8 13.0 10.0 " class="vertical" fill="none" stroke="black" stroke-width="0.0"/>
  <path d="M 14.0,0.0 C 13.99 0.2 13.93 0.47 14.13 0.38 C 14.33 0.29 14.33 0.69 14.13 0.58 C 13.93 0.47 13.98 0.8 14.0 1.0 C 14.02 1.2 13.88 1.48 14.08 1.4 C 14.28 1.33 14.28 1.73 14.08 1.6 C 13.88 1.48 14.02 1.8 14.0 2.0 C 13.98 2.2 13.89 2.53 14.09 2.43 C 14.29 2.33 14.29 2.73 14.09 2.63 C 13.89 2.53 14.0 2.8 14.0 3.0 C 14.0 3.2 13.88 3.47 14.08 3.39 C 14.28 3.32 14.28 3.72 14.08 3.59 C 13.88 3.47 13.99 3.8 14.0 4.0 C 14.01 4.2 13.92 4.5 14.12 4.42 C 14.32 4.34 14.32 4.74 14.12 4.62 C 13.92 4.5 14.01 4.8 14.0 5.0 C 13.99 5.2 14.11 5.44 13.91 5.38 C 13.71 5.31 13.71 5.71 13.91 5.58 C 14.11 5.44 13.99 5.8 14.0 6.0 C 14.01 6.2 13.93 6.52 14.13 6.42 C 14.33 6.32 14.33 6.72 14.13 6.62 C 13.93 6.52 14.04 6.8 14.0 7.0 C 13.96 7.2 13.9 7.47 14.1 7.37 C 14.3 7.26 14.3 7.66 14.1 7.57 C 13.9 7.47 14.01 7.8 14.0 8.0 C 13.99 8.2 13.86 8.44 14.06 8.37 C 14.26 8.3 14.26 8.7 14.06 8.57 C 13.86 8.44 13.98 8.8 14.0 9.0 C 14.02 9.2 14.1 9.54 13.9 9.41 C 13.7 9.29 13.7 9.69 13.9 9.61 C 14.1 9.54 13.98 9.8 14.0 10.0 " class="vertical" fill="none" stroke="black" stroke-width="0.0"/>
  <path d="M 15,0 L 15,10 " class="vertical" fill="none" stroke="black" stroke-width="0.0"/>
</svg>
