<svg xmlns="http://www.w3.org/2000/svg" version="1.0" width="2048mm" height="2048mm" viewBox="0 0 2048 2048"><path fill="none" stroke="Black" stroke-width="1.0"  class="horizontal" d="M 0.0,256.0 C 51.2 254.69 127.44 290.02 102.65 238.82 C 77.85 187.62 180.25 187.62 153.85 238.82 C 127.44 290.02 204.8 241.31 256.0 256.0 C 307.2 270.69 379.78 223.23 345.36 274.43 C 310.93 325.63 413.33 325.63 396.56 274.43 C 379.78 223.23 460.8 273.89 512.0 256.0 C 563.2 238.11 623.87 291.0 592.81 239.8 C 561.75 188.6 664.15 188.6 644.01 239.8 C 623.87 291.0 716.8 276.62 768.0 256.0 C 819.2 235.38 860.04 294.33 857.03 243.13 C 854.02 191.93 956.42 191.93 908.23 243.13 C 860.04 294.33 972.8 253.79 1024.0 256.0 C 1075.2 258.21 1160.5 290.61 1138.84 239.41 C 1117.17 188.21 1219.57 188.21 1190.04 239.41 C 1160.5 290.61 1228.8 251.54 1280.0 256.0 C 1331.2 260.46 1392.71 232.58 1388.04 283.78 C 1383.37 334.98 1485.77 334.98 1439.24 283.78 C 1392.71 232.58 1484.8 253.17 1536.0 256.0 C 1587.2 258.83 1656.8 249.58 1619.22 300.78 C 1581.64 351.98 1684.04 351.98 1670.42 300.78 C 1656.8 249.58 1740.8 232.24 1792.0 256.0 C 1843.2 279.76 1929.37 260.49 1915.56 209.29 C 1901.75 158.09 2004.15 158.09 1966.76 209.29 C 1929.37 260.49 1996.8 250.07 2048.0 256.0 M 0.0,512.0 C 51.2 495.32 84.17 489.2 80.59 540.4 C 77.0 591.6 179.4 591.6 131.79 540.4 C 84.17 489.2 204.8 494.8 256.0 512.0 C 307.2 529.2 381.13 481.2 366.0 532.4 C 350.88 583.6 453.28 583.6 417.2 532.4 C 381.13 481.2 460.8 522.08 512.0 512.0 C 563.2 501.92 605.01 501.61 593.39 552.81 C 581.78 604.01 684.18 604.01 644.59 552.81 C 605.01 501.61 716.8 496.67 768.0 512.0 C 819.2 527.33 884.28 528.46 848.63 477.26 C 812.98 426.06 915.38 426.06 899.83 477.26 C 884.28 528.46 972.8 511.02 1024.0 512.0 C 1075.2 512.98 1145.38 557.31 1136.54 506.11 C 1127.69 454.91 1230.09 454.91 1187.74 506.11 C 1145.38 557.31 1228.8 500.52 1280.0 512.0 C 1331.2 523.48 1442.76 461.92 1407.14 513.12 C 1371.52 564.32 1473.92 564.32 1458.34 513.12 C 1442.76 461.92 1484.8 516.33 1536.0 512.0 C 1587.2 507.67 1694.51 538.99 1645.11 487.79 C 1595.72 436.59 1698.12 436.59 1696.31 487.79 C 1694.51 538.99 1740.8 498.23 1792.0 512.0 C 1843.2 525.77 1936.7 544.49 1887.09 493.29 C 1837.47 442.09 1939.87 442.09 1938.29 493.29 C 1936.7 544.49 1996.8 518.08 2048.0 512.0 M 0.0,768.0 C 51.2 748.66 136.4 794.97 125.23 743.77 C 114.07 692.57 216.47 692.57 176.43 743.77 C 136.4 794.97 204.8 755.74 256.0 768.0 C 307.2 780.26 401.62 804.84 378.46 753.64 C 355.3 702.44 457.7 702.44 429.66 753.64 C 401.62 804.84 460.8 787.16 512.0 768.0 C 563.2 748.84 649.09 719.36 610.94 770.56 C 572.78 821.76 675.18 821.76 662.14 770.56 C 649.09 719.36 716.8 757.24 768.0 768.0 C 819.2 778.76 879.11 730.45 849.08 781.65 C 819.04 832.85 921.44 832.85 900.28 781.65 C 879.11 730.45 972.8 784.93 1024.0 768.0 C 1075.2 751.07 1181.25 786.62 1140.8 735.42 C 1100.36 684.22 1202.76 684.22 1192.0 735.42 C 1181.25 786.62 1228.8 770.0 1280.0 768.0 C 1331.2 766.0 1394.7 721.53 1359.11 772.73 C 1323.53 823.93 1425.93 823.93 1410.31 772.73 C 1394.7 721.53 1484.8 771.59 1536.0 768.0 C 1587.2 764.41 1671.22 753.65 1645.14 804.85 C 1619.06 856.05 1721.46 856.05 1696.34 804.85 C 1671.22 753.65 1740.8 772.33 1792.0 768.0 C 1843.2 763.67 1916.97 782.26 1876.23 731.06 C 1835.49 679.86 1937.89 679.86 1927.43 731.06 C 1916.97 782.26 1996.8 755.14 2048.0 768.0 M 0.0,1024.0 C 51.2 1014.17 136.08 1021.49 117.05 1072.69 C 98.02 1123.89 200.42 1123.89 168.25 1072.69 C 136.08 1021.49 204.8 1021.58 256.0 1024.0 C 307.2 1026.42 410.32 1035.8 364.2 984.6 C 318.08 933.4 420.48 933.4 415.4 984.6 C 410.32 1035.8 460.8 1040.36 512.0 1024.0 C 563.2 1007.64 636.53 1037.86 635.92 986.66 C 635.31 935.46 737.71 935.46 687.12 986.66 C 636.53 1037.86 716.8 1001.03 768.0 1024.0 C 819.2 1046.97 908.8 1035.22 860.92 984.02 C 813.05 932.82 915.45 932.82 912.12 984.02 C 908.8 1035.22 972.8 1036.65 1024.0 1024.0 C 1075.2 1011.35 1176.65 997.18 1131.92 1048.38 C 1087.19 1099.58 1189.59 1099.58 1183.12 1048.38 C 1176.65 997.18 1228.8 1012.31 1280.0 1024.0 C 1331.2 1035.69 1398.4 1046.33 1391.17 995.13 C 1383.94 943.93 1486.34 943.93 1442.37 995.13 C 1398.4 1046.33 1484.8 1015.61 1536.0 1024.0 C 1587.2 1032.39 1639.64 1074.82 1638.51 1023.62 C 1637.38 972.42 1739.78 972.42 1689.71 1023.62 C 1639.64 1074.82 1740.8 1045.31 1792.0 1024.0 C 1843.2 1002.69 1907.16 1002.54 1903.56 1053.74 C 1899.96 1104.94 2002.36 1104.94 1954.76 1053.74 C 1907.16 1002.54 1996.8 1002.22 2048.0 1024.0 M 0.0,1280.0 C 51.2 1297.69 127.93 1276.22 113.08 1327.42 C 98.23 1378.62 200.63 1378.62 164.28 1327.42 C 127.93 1276.22 204.8 1282.78 256.0 1280.0 C 307.2 1277.22 360.25 1251.25 350.49 1302.45 C 340.72 1353.65 443.12 1353.65 401.69 1302.45 C 360.25 1251.25 460.8 1272.04 512.0 1280.0 C 563.2 1287.96 636.04 1245.46 605.21 1296.66 C 574.38 1347.86 676.78 1347.86 656.41 1296.66 C 636.04 1245.46 716.8 1290.37 768.0 1280.0 C 819.2 1269.63 859.3 1298.45 857.55 1247.25 C 855.8 1196.05 958.2 1196.05 908.75 1247.25 C 859.3 1298.45 972.8 1277.41 1024.0 1280.0 C 1075.2 1282.59 1125.38 1312.19 1103.37 1260.99 C 1081.37 1209.79 1183.77 1209.79 1154.57 1260.99 C 1125.38 1312.19 1228.8 1266.63 1280.0 1280.0 C 1331.2 1293.37 1414.19 1330.85 1371.93 1279.65 C 1329.66 1228.45 1432.06 1228.45 1423.13 1279.65 C 1414.19 1330.85 1484.8 1305.51 1536.0 1280.0 C 1587.2 1254.49 1667.77 1292.35 1663.14 1241.15 C 1658.5 1189.95 1760.9 1189.95 1714.34 1241.15 C 1667.77 1292.35 1740.8 1303.85 1792.0 1280.0 C 1843.2 1256.15 1925.69 1252.95 1887.92 1304.15 C 1850.15 1355.35 1952.55 1355.35 1939.12 1304.15 C 1925.69 1252.95 1996.8 1257.35 2048.0 1280.0 M 0.0,1536.0 C 51.2 1516.22 117.2 1500.92 112.25 1552.12 C 107.29 1603.32 209.69 1603.32 163.45 1552.12 C 117.2 1500.92 204.8 1548.51 256.0 1536.0 C 307.2 1523.49 371.59 1535.58 351.81 1586.78 C 332.02 1637.98 434.42 1637.98 403.01 1586.78 C 371.59 1535.58 460.8 1534.17 512.0 1536.0 C 563.2 1537.83 646.59 1520.38 596.55 1571.58 C 546.52 1622.78 648.92 1622.78 647.75 1571.58 C 646.59 1520.38 716.8 1536.78 768.0 1536.0 C 819.2 1535.22 923.33 1555.78 875.97 1504.58 C 828.61 1453.38 931.01 1453.38 927.17 1504.58 C 923.33 1555.78 972.8 1527.67 1024.0 1536.0 C 1075.2 1544.33 1157.65 1485.63 1118.64 1536.83 C 1079.63 1588.03 1182.03 1588.03 1169.84 1536.83 C 1157.65 1485.63 1228.8 1541.63 1280.0 1536.0 C 1331.2 1530.37 1438.88 1585.03 1405.07 1533.83 C 1371.27 1482.63 1473.67 1482.63 1456.27 1533.83 C 1438.88 1585.03 1484.8 1524.02 1536.0 1536.0 C 1587.2 1547.98 1638.2 1527.25 1613.24 1578.45 C 1588.27 1629.65 1690.67 1629.65 1664.44 1578.45 C 1638.2 1527.25 1740.8 1515.47 1792.0 1536.0 C 1843.2 1556.53 1963.84 1495.07 1919.51 1546.27 C 1875.17 1597.47 1977.57 1597.47 1970.71 1546.27 C 1963.84 1495.07 1996.8 1519.95 2048.0 1536.0 M 0.0,1792.0 C 51.2 1767.01 140.14 1837.3 122.29 1786.1 C 104.44 1734.9 206.84 1734.9 173.49 1786.1 C 140.14 1837.3 204.8 1806.43 256.0 1792.0 C 307.2 1777.57 404.61 1817.69 366.54 1766.49 C 328.48 1715.29 430.88 1715.29 417.74 1766.49 C 404.61 1817.69 460.8 1787.18 512.0 1792.0 C 563.2 1796.82 615.09 1779.06 596.3 1830.26 C 577.51 1881.46 679.91 1881.46 647.5 1830.26 C 615.09 1779.06 716.8 1774.51 768.0 1792.0 C 819.2 1809.49 867.2 1809.24 858.11 1758.04 C 849.01 1706.84 951.41 1706.84 909.31 1758.04 C 867.2 1809.24 972.8 1792.3 1024.0 1792.0 C 1075.2 1791.7 1172.35 1743.07 1151.35 1794.27 C 1130.35 1845.47 1232.75 1845.47 1202.55 1794.27 C 1172.35 1743.07 1228.8 1770.46 1280.0 1792.0 C 1331.2 1813.54 1367.39 1827.88 1356.84 1776.68 C 1346.29 1725.48 1448.69 1725.48 1408.04 1776.68 C 1367.39 1827.88 1484.8 1817.17 1536.0 1792.0 C 1587.2 1766.83 1651.15 1756.23 1643.85 1807.43 C 1636.55 1858.63 1738.95 1858.63 1695.05 1807.43 C 1651.15 1756.23 1740.8 1780.24 1792.0 1792.0 C 1843.2 1803.76 1913.83 1764.06 1884.81 1815.26 C 1855.8 1866.46 1958.2 1866.46 1936.01 1815.26 C 1913.83 1764.06 1996.8 1789.73 2048.0 1792.0 "></path><path fill="none" stroke="Black" stroke-width="1.0"  class="vertical" d="M 256.0,0.0 C 255.81 51.2 239.43 168.26 290.63 124.49 C 341.83 80.71 341.83 183.11 290.63 175.69 C 239.43 168.26 244.02 204.8 256.0 256.0 C 267.98 307.2 251.31 390.37 302.51 376.22 C 353.71 362.06 353.71 464.46 302.51 427.42 C 251.31 390.37 280.56 460.8 256.0 512.0 C 231.44 563.2 270.04 634.35 218.84 630.43 C 167.64 626.52 167.64 728.92 218.84 681.63 C 270.04 634.35 233.71 716.8 256.0 768.0 C 278.29 819.2 251.55 901.53 302.75 889.91 C 353.95 878.29 353.95 980.69 302.75 941.11 C 251.55 901.53 246.23 972.8 256.0 1024.0 C 265.77 1075.2 296.03 1164.75 244.83 1119.39 C 193.63 1074.03 193.63 1176.43 244.83 1170.59 C 296.03 1164.75 242.82 1228.8 256.0 1280.0 C 269.18 1331.2 305.43 1435.32 254.23 1403.96 C 203.03 1372.6 203.03 1475.0 254.23 1455.16 C 305.43 1435.32 237.33 1484.8 256.0 1536.0 C 274.67 1587.2 233.61 1653.05 284.81 1637.95 C 336.01 1622.84 336.01 1725.24 284.81 1689.15 C 233.61 1653.05 267.3 1740.8 256.0 1792.0 C 244.7 1843.2 257.96 1929.34 206.76 1881.08 C 155.56 1832.83 155.56 1935.23 206.76 1932.28 C 257.96 1929.34 281.06 1996.8 256.0 2048.0 M 512.0,0.0 C 531.7 51.2 551.09 101.53 499.89 77.98 C 448.69 54.44 448.69 156.84 499.89 129.18 C 551.09 101.53 507.38 204.8 512.0 256.0 C 516.62 307.2 483.35 380.02 534.55 371.5 C 585.75 362.98 585.75 465.38 534.55 422.7 C 483.35 380.02 506.11 460.8 512.0 512.0 C 517.89 563.2 506.93 645.21 558.13 612.46 C 609.33 579.7 609.33 682.1 558.13 663.66 C 506.93 645.21 509.47 716.8 512.0 768.0 C 514.53 819.2 525.54 864.83 474.34 859.34 C 423.14 853.86 423.14 956.26 474.34 910.54 C 525.54 864.83 516.49 972.8 512.0 1024.0 C 507.51 1075.2 511.25 1189.35 562.45 1139.76 C 613.65 1090.16 613.65 1192.56 562.45 1190.96 C 511.25 1189.35 499.57 1228.8 512.0 1280.0 C 524.43 1331.2 475.43 1402.69 526.63 1384.45 C 577.83 1366.21 577.83 1468.61 526.63 1435.65 C 475.43 1402.69 498.19 1484.8 512.0 1536.0 C 525.81 1587.2 560.76 1655.06 509.56 1619.98 C 458.36 1584.9 458.36 1687.3 509.56 1671.18 C 560.76 1655.06 504.42 1740.8 512.0 1792.0 C 519.58 1843.2 465.65 1925.99 516.85 1916.9 C 568.05 1907.81 568.05 2010.21 516.85 1968.1 C 465.65 1925.99 506.09 1996.8 512.0 2048.0 M 768.0,0.0 C 777.29 51.2 768.0 105.4 716.8 102.31 C 665.6 99.22 665.6 201.62 716.8 153.51 C 768.0 105.4 761.8 204.8 768.0 256.0 C 774.2 307.2 723.77 356.72 774.97 352.52 C 826.17 348.32 826.17 450.72 774.97 403.72 C 723.77 356.72 790.5 460.8 768.0 512.0 C 745.5 563.2 762.23 654.31 813.43 615.56 C 864.63 576.81 864.63 679.21 813.43 666.76 C 762.23 654.31 778.71 716.8 768.0 768.0 C 757.29 819.2 742.66 900.74 793.86 878.15 C 845.06 855.55 845.06 957.95 793.86 929.35 C 742.66 900.74 758.79 972.8 768.0 1024.0 C 777.21 1075.2 809.79 1155.17 758.59 1106.84 C 707.39 1058.51 707.39 1160.91 758.59 1158.04 C 809.79 1155.17 753.36 1228.8 768.0 1280.0 C 782.64 1331.2 798.94 1379.3 747.74 1373.12 C 696.54 1366.93 696.54 1469.33 747.74 1424.32 C 798.94 1379.3 753.69 1484.8 768.0 1536.0 C 782.31 1587.2 759.93 1657.49 811.13 1646.87 C 862.33 1636.26 862.33 1738.66 811.13 1698.07 C 759.93 1657.49 745.92 1740.8 768.0 1792.0 C 790.08 1843.2 804.44 1914.46 753.24 1871.34 C 702.04 1828.22 702.04 1930.62 753.24 1922.54 C 804.44 1914.46 751.43 1996.8 768.0 2048.0 M 1024.0,0.0 C 1031.62 51.2 1014.64 125.49 1065.84 120.32 C 1117.04 115.15 1117.04 217.55 1065.84 171.52 C 1014.64 125.49 1030.79 204.8 1024.0 256.0 C 1017.21 307.2 998.34 407.18 1049.54 381.59 C 1100.74 356.01 1100.74 458.41 1049.54 432.79 C 998.34 407.18 1029.51 460.8 1024.0 512.0 C 1018.49 563.2 1001.08 650.55 1052.28 602.95 C 1103.48 555.35 1103.48 657.75 1052.28 654.15 C 1001.08 650.55 1005.91 716.8 1024.0 768.0 C 1042.09 819.2 1044.39 874.0 993.19 870.25 C 941.99 866.51 941.99 968.91 993.19 921.45 C 1044.39 874.0 1040.78 972.8 1024.0 1024.0 C 1007.22 1075.2 1058.73 1173.96 1007.53 1137.47 C 956.33 1100.99 956.33 1203.39 1007.53 1188.67 C 1058.73 1173.96 999.53 1228.8 1024.0 1280.0 C 1048.47 1331.2 980.95 1389.97 1032.15 1374.84 C 1083.35 1359.71 1083.35 1462.11 1032.15 1426.04 C 980.95 1389.97 1027.53 1484.8 1024.0 1536.0 C 1020.47 1587.2 1058.4 1616.99 1007.2 1614.77 C 956.0 1612.55 956.0 1714.95 1007.2 1665.97 C 1058.4 1616.99 1025.07 1740.8 1024.0 1792.0 C 1022.93 1843.2 986.34 1894.77 1037.54 1888.64 C 1088.74 1882.51 1088.74 1984.91 1037.54 1939.84 C 986.34 1894.77 1029.1 1996.8 1024.0 2048.0 M 1280.0,0.0 C 1275.67 51.2 1276.26 108.64 1327.46 88.66 C 1378.66 68.67 1378.66 171.07 1327.46 139.86 C 1276.26 108.64 1254.73 204.8 1280.0 256.0 C 1305.27 307.2 1272.28 353.24 1323.48 334.33 C 1374.68 315.42 1374.68 417.82 1323.48 385.53 C 1272.28 353.24 1267.63 460.8 1280.0 512.0 C 1292.37 563.2 1303.06 656.33 1251.86 625.07 C 1200.66 593.82 1200.66 696.22 1251.86 676.27 C 1303.06 656.33 1280.09 716.8 1280.0 768.0 C 1279.91 819.2 1323.42 881.8 1272.22 846.96 C 1221.02 812.12 1221.02 914.52 1272.22 898.16 C 1323.42 881.8 1290.59 972.8 1280.0 1024.0 C 1269.41 1075.2 1248.74 1147.5 1299.94 1140.18 C 1351.14 1132.87 1351.14 1235.27 1299.94 1191.38 C 1248.74 1147.5 1281.41 1228.8 1280.0 1280.0 C 1278.59 1331.2 1249.6 1404.46 1300.8 1363.76 C 1352.0 1323.07 1352.0 1425.47 1300.8 1414.96 C 1249.6 1404.46 1292.04 1484.8 1280.0 1536.0 C 1267.96 1587.2 1309.85 1691.73 1258.65 1654.37 C 1207.45 1617.0 1207.45 1719.4 1258.65 1705.57 C 1309.85 1691.73 1303.17 1740.8 1280.0 1792.0 C 1256.83 1843.2 1297.29 1913.28 1246.09 1902.1 C 1194.89 1890.93 1194.89 1993.33 1246.09 1953.3 C 1297.29 1913.28 1266.94 1996.8 1280.0 2048.0 M 1536.0,0.0 C 1518.05 51.2 1499.23 118.93 1550.43 76.89 C 1601.63 34.85 1601.63 137.25 1550.43 128.09 C 1499.23 118.93 1543.43 204.8 1536.0 256.0 C 1528.57 307.2 1523.28 389.62 1574.48 354.37 C 1625.68 319.11 1625.68 421.51 1574.48 405.57 C 1523.28 389.62 1541.85 460.8 1536.0 512.0 C 1530.15 563.2 1565.04 640.25 1513.84 615.36 C 1462.64 590.46 1462.64 692.86 1513.84 666.56 C 1565.04 640.25 1525.75 716.8 1536.0 768.0 C 1546.25 819.2 1516.5 862.17 1567.7 854.27 C 1618.9 846.38 1618.9 948.78 1567.7 905.47 C 1516.5 862.17 1514.99 972.8 1536.0 1024.0 C 1557.01 1075.2 1555.09 1188.6 1503.89 1141.35 C 1452.69 1094.1 1452.69 1196.5 1503.89 1192.55 C 1555.09 1188.6 1523.96 1228.8 1536.0 1280.0 C 1548.04 1331.2 1502.29 1401.86 1553.49 1390.43 C 1604.69 1379.0 1604.69 1481.4 1553.49 1441.63 C 1502.29 1401.86 1512.7 1484.8 1536.0 1536.0 C 1559.3 1587.2 1542.83 1649.68 1491.63 1626.07 C 1440.43 1602.47 1440.43 1704.87 1491.63 1677.27 C 1542.83 1649.68 1548.62 1740.8 1536.0 1792.0 C 1523.38 1843.2 1569.21 1911.49 1518.01 1878.8 C 1466.81 1846.12 1466.81 1948.52 1518.01 1930.0 C 1569.21 1911.49 1544.75 1996.8 1536.0 2048.0 M 1792.0,0.0 C 1766.82 51.2 1828.2 137.49 1777.0 105.48 C 1725.8 73.46 1725.8 175.86 1777.0 156.68 C 1828.2 137.49 1799.53 204.8 1792.0 256.0 C 1784.47 307.2 1809.91 382.92 1758.71 336.83 C 1707.51 290.75 1707.51 393.15 1758.71 388.03 C 1809.91 382.92 1804.21 460.8 1792.0 512.0 C 1779.79 563.2 1746.0 646.77 1797.2 597.4 C 1848.4 548.04 1848.4 650.44 1797.2 648.6 C 1746.0 646.77 1774.01 716.8 1792.0 768.0 C 1809.99 819.2 1807.28 900.54 1756.08 865.21 C 1704.88 829.88 1704.88 932.28 1756.08 916.41 C 1807.28 900.54 1817.53 972.8 1792.0 1024.0 C 1766.47 1075.2 1840.41 1158.66 1789.21 1110.95 C 1738.01 1063.25 1738.01 1165.65 1789.21 1162.15 C 1840.41 1158.66 1791.37 1228.8 1792.0 1280.0 C 1792.63 1331.2 1807.71 1432.27 1756.51 1400.29 C 1705.31 1368.32 1705.31 1470.72 1756.51 1451.49 C 1807.71 1432.27 1783.95 1484.8 1792.0 1536.0 C 1800.05 1587.2 1795.12 1643.95 1743.92 1629.18 C 1692.72 1614.41 1692.72 1716.81 1743.92 1680.38 C 1795.12 1643.95 1797.0 1740.8 1792.0 1792.0 C 1787.0 1843.2 1818.48 1893.96 1767.28 1892.26 C 1716.08 1890.57 1716.08 1992.97 1767.28 1943.46 C 1818.48 1893.96 1792.03 1996.8 1792.0 2048.0 "></path><path fill="none" stroke="Black" stroke-width="1.0" class="border" d="M 2.0 0.0 L 2046.0 0.0 A 2.0 2.0 0 0 1 2048.0 2.0 L 2048.0 2046.0 A 2.0 2.0 0 0 1 2046.0 2048.0 L 2.0 2048.0 A 2.0 2.0 0 0 1 0.0 2046.0 L 0.0 2.0 A 2.0 2.0 0 0 1 2.0 0.0 "></path></svg>