<svg xmlns="http://www.w3.org/2000/svg" width="2048" height="2048" viewBox="0 0 2048 2048">
  <path d="M 0.0,256.0 C 51.2 261.45 127.99 284.88 99.27 233.68 C 70.54 182.48 172.94 182.48 150.47 233.68 C 127.99 284.88 204.8 245.9 256.0 256.0 C 307.2 266.1 397.05 225.04 364.25 276.24 C 331.45 327.44 433.85 327.44 415.45 276.24 C 397.05 225.04 460.8 252.55 512.0 256.0 C 563.2 259.45 655.18 230.49 621.75 281.69 C 588.33 332.89 690.73 332.89 672.95 281.69 C 655.18 230.49 716.8 259.27 768.0 256.0 C 819.2 252.73 891.9 236.21 870.59 287.41 C 849.29 338.61 951.69 338.61 921.79 287.41 C 891.9 236.21 972.8 262.54 1024.0 256.0 C 1075.2 249.46 1141.81 271.73 1120.1 220.53 C 1098.39 169.33 1200.79 169.33 1171.3 220.53 C 1141.81 271.73 1228.8 258.01 1280.0 256.0 C 1331.2 253.99 1421.61 239.01 1389.53 290.21 C 1357.45 341.41 1459.85 341.41 1440.73 290.21 C 1421.61 239.01 1484.8 251.49 1536.0 256.0 C 1587.2 260.51 1661.4 284.92 1639.36 233.72 C 1617.32 182.52 1719.72 182.52 1690.56 233.72 C 1661.4 284.92 1740.8 247.94 1792.0 256.0 C 1843.2 264.06 1906.44 234.4 1889.41 285.6 C 1872.38 336.8 1974.78 336.8 1940.61 285.6 C 1906.44 234.4 1996.8 258.79 2048.0 256.0" class="horizontal" stroke="black" fill="none" stroke-width="1"/>
  <path d="M 0.0,512.0 C 51.2 508.8 122.44 535.0 92.58 483.8 C 62.71 432.6 165.11 432.6 143.78 483.8 C 122.44 535.0 204.8 517.86 256.0 512.0 C 307.2 506.14 377.0 547.55 353.32 496.35 C 329.64 445.15 432.04 445.15 404.52 496.35 C 377.0 547.55 460.8 517.65 512.0 512.0 C 563.2 506.35 641.5 480.13 622.36 531.33 C 603.22 582.53 705.62 582.53 673.56 531.33 C 641.5 480.13 716.8 512.92 768.0 512.0 C 819.2 511.08 902.55 495.46 868.42 546.66 C 834.3 597.86 936.7 597.86 919.62 546.66 C 902.55 495.46 972.8 512.43 1024.0 512.0 C 1075.2 511.57 1153.94 477.82 1131.7 529.02 C 1109.47 580.22 1211.87 580.22 1182.9 529.02 C 1153.94 477.82 1228.8 513.61 1280.0 512.0 C 1331.2 510.39 1406.72 545.27 1374.61 494.07 C 1342.5 442.87 1444.9 442.87 1425.81 494.07 C 1406.72 545.27 1484.8 501.96 1536.0 512.0 C 1587.2 522.04 1662.39 542.7 1638.06 491.5 C 1613.74 440.3 1716.14 440.3 1689.26 491.5 C 1662.39 542.7 1740.8 501.83 1792.0 512.0 C 1843.2 522.17 1924.44 493.6 1896.67 544.8 C 1868.9 596.0 1971.3 596.0 1947.87 544.8 C 1924.44 493.6 1996.8 508.78 2048.0 512.0" class="horizontal" stroke="black" fill="none" stroke-width="1"/>
  <path d="M 0.0,768.0 C 51.2 770.26 136.0 800.01 109.55 748.81 C 83.1 697.61 185.5 697.61 160.75 748.81 C 136.0 800.01 204.8 772.99 256.0 768.0 C 307.2 763.01 392.42 743.58 360.66 794.78 C 328.9 845.98 431.3 845.98 411.86 794.78 C 392.42 743.58 460.8 758.07 512.0 768.0 C 563.2 777.93 642.66 741.38 619.82 792.58 C 596.98 843.78 699.38 843.78 671.02 792.58 C 642.66 741.38 716.8 771.74 768.0 768.0 C 819.2 764.26 882.34 734.31 865.78 785.51 C 849.22 836.71 951.62 836.71 916.98 785.51 C 882.34 734.31 972.8 773.11 1024.0 768.0 C 1075.2 762.89 1147.26 732.51 1119.11 783.71 C 1090.95 834.91 1193.35 834.91 1170.31 783.71 C 1147.26 732.51 1228.8 775.41 1280.0 768.0 C 1331.2 760.59 1417.39 746.78 1383.06 797.98 C 1348.73 849.18 1451.13 849.18 1434.26 797.98 C 1417.39 746.78 1484.8 771.0 1536.0 768.0 C 1587.2 765.0 1670.16 797.24 1643.59 746.04 C 1617.02 694.84 1719.42 694.84 1694.79 746.04 C 1670.16 797.24 1740.8 772.68 1792.0 768.0 C 1843.2 763.32 1919.45 791.57 1898.99 740.37 C 1878.53 689.17 1980.93 689.17 1950.19 740.37 C 1919.45 791.57 1996.8 770.08 2048.0 768.0" class="horizontal" stroke="black" fill="none" stroke-width="1"/>
  <path d="M 0.0,1024.0 C 51.2 1016.19 119.82 1043.26 93.04 992.06 C 66.27 940.86 168.67 940.86 144.24 992.06 C 119.82 1043.26 204.8 1018.26 256.0 1024.0 C 307.2 1029.74 382.38 1054.59 356.17 1003.39 C 329.96 952.19 432.36 952.19 407.37 1003.39 C 382.38 1054.59 460.8 1019.26 512.0 1024.0 C 563.2 1028.74 638.09 991.84 613.89 1043.04 C 589.69 1094.24 692.09 1094.24 665.09 1043.04 C 638.09 991.84 716.8 1029.16 768.0 1024.0 C 819.2 1018.84 886.77 1053.35 862.9 1002.15 C 839.03 950.95 941.43 950.95 914.1 1002.15 C 886.77 1053.35 972.8 1018.53 1024.0 1024.0 C 1075.2 1029.47 1146.96 988.4 1128.97 1039.6 C 1110.99 1090.8 1213.39 1090.8 1180.17 1039.6 C 1146.96 988.4 1228.8 1028.6 1280.0 1024.0 C 1331.2 1019.4 1394.22 1044.23 1377.64 993.03 C 1361.07 941.83 1463.47 941.83 1428.84 993.03 C 1394.22 1044.23 1484.8 1014.63 1536.0 1024.0 C 1587.2 1033.37 1664.5 989.5 1636.44 1040.7 C 1608.39 1091.9 1710.79 1091.9 1687.64 1040.7 C 1664.5 989.5 1740.8 1026.03 1792.0 1024.0 C 1843.2 1021.97 1923.68 1059.2 1899.07 1008.0 C 1874.45 956.8 1976.85 956.8 1950.27 1008.0 C 1923.68 1059.2 1996.8 1028.15 2048.0 1024.0" class="horizontal" stroke="black" fill="none" stroke-width="1"/>
  <path d="M 0.0,1280.0 C 51.2 1281.73 121.48 1296.78 99.17 1245.58 C 76.87 1194.38 179.27 1194.38 150.37 1245.58 C 121.48 1296.78 204.8 1290.24 256.0 1280.0 C 307.2 1269.76 385.94 1315.05 352.92 1263.85 C 319.89 1212.65 422.29 1212.65 404.12 1263.85 C 385.94 1315.05 460.8 1272.64 512.0 1280.0 C 563.2 1287.36 653.18 1309.56 620.89 1258.36 C 588.6 1207.16 691.0 1207.16 672.09 1258.36 C 653.18 1309.56 716.8 1285.91 768.0 1280.0 C 819.2 1274.09 897.76 1248.85 863.87 1300.05 C 829.99 1351.25 932.39 1351.25 915.07 1300.05 C 897.76 1248.85 972.8 1283.11 1024.0 1280.0 C 1075.2 1276.89 1141.37 1306.63 1122.88 1255.43 C 1104.39 1204.23 1206.79 1204.23 1174.08 1255.43 C 1141.37 1306.63 1228.8 1277.51 1280.0 1280.0 C 1331.2 1282.49 1415.27 1314.66 1380.87 1263.46 C 1346.46 1212.26 1448.86 1212.26 1432.07 1263.46 C 1415.27 1314.66 1484.8 1270.88 1536.0 1280.0 C 1587.2 1289.12 1662.12 1312.15 1629.83 1260.95 C 1597.54 1209.75 1699.94 1209.75 1681.03 1260.95 C 1662.12 1312.15 1740.8 1287.18 1792.0 1280.0 C 1843.2 1272.82 1922.89 1309.72 1902.16 1258.52 C 1881.44 1207.32 1983.84 1207.32 1953.36 1258.52 C 1922.89 1309.72 1996.8 1280.66 2048.0 1280.0" class="horizontal" stroke="black" fill="none" stroke-width="1"/>
  <path d="M 0.0,1536.0 C 51.2 1530.79 126.93 1513.88 110.47 1565.08 C 94.0 1616.28 196.4 1616.28 161.67 1565.08 C 126.93 1513.88 204.8 1530.34 256.0 1536.0 C 307.2 1541.66 371.68 1560.29 355.7 1509.09 C 339.73 1457.89 442.13 1457.89 406.9 1509.09 C 371.68 1560.29 460.8 1539.96 512.0 1536.0 C 563.2 1532.04 643.68 1566.2 621.71 1515.0 C 599.74 1463.8 702.14 1463.8 672.91 1515.0 C 643.68 1566.2 716.8 1537.65 768.0 1536.0 C 819.2 1534.35 889.95 1558.58 866.18 1507.38 C 842.4 1456.18 944.8 1456.18 917.38 1507.38 C 889.95 1558.58 972.8 1532.08 1024.0 1536.0 C 1075.2 1539.92 1163.9 1551.94 1135.44 1500.74 C 1106.98 1449.54 1209.38 1449.54 1186.64 1500.74 C 1163.9 1551.94 1228.8 1531.72 1280.0 1536.0 C 1331.2 1540.28 1395.03 1504.59 1378.57 1555.79 C 1362.11 1606.99 1464.51 1606.99 1429.77 1555.79 C 1395.03 1504.59 1484.8 1529.83 1536.0 1536.0 C 1587.2 1542.17 1679.68 1511.56 1644.17 1562.76 C 1608.66 1613.96 1711.06 1613.96 1695.37 1562.76 C 1679.68 1511.56 1740.8 1532.47 1792.0 1536.0 C 1843.2 1539.53 1926.26 1557.42 1899.88 1506.22 C 1873.49 1455.02 1975.89 1455.02 1951.08 1506.22 C 1926.26 1557.42 1996.8 1528.15 2048.0 1536.0" class="horizontal" stroke="black" fill="none" stroke-width="1"/>
  <path d="M 0.0,1792.0 C 51.2 1789.37 129.62 1765.45 104.33 1816.65 C 79.04 1867.85 181.44 1867.85 155.53 1816.65 C 129.62 1765.45 204.8 1796.93 256.0 1792.0 C 307.2 1787.07 383.3 1809.23 358.06 1758.03 C 332.83 1706.83 435.23 1706.83 409.26 1758.03 C 383.3 1809.23 460.8 1783.2 512.0 1792.0 C 563.2 1800.8 652.23 1759.94 621.27 1811.14 C 590.31 1862.34 692.71 1862.34 672.47 1811.14 C 652.23 1759.94 716.8 1787.35 768.0 1792.0 C 819.2 1796.65 902.56 1822.88 872.49 1771.68 C 842.41 1720.48 944.81 1720.48 923.69 1771.68 C 902.56 1822.88 972.8 1799.04 1024.0 1792.0 C 1075.2 1784.96 1157.61 1773.99 1122.19 1825.19 C 1086.78 1876.39 1189.18 1876.39 1173.39 1825.19 C 1157.61 1773.99 1228.8 1791.65 1280.0 1792.0 C 1331.2 1792.35 1397.92 1775.1 1377.22 1826.3 C 1356.53 1877.5 1458.93 1877.5 1428.42 1826.3 C 1397.92 1775.1 1484.8 1794.49 1536.0 1792.0 C 1587.2 1789.51 1657.33 1811.22 1636.55 1760.02 C 1615.77 1708.82 1718.17 1708.82 1687.75 1760.02 C 1657.33 1811.22 1740.8 1787.53 1792.0 1792.0 C 1843.2 1796.47 1911.68 1756.91 1889.82 1808.11 C 1867.96 1859.31 1970.36 1859.31 1941.02 1808.11 C 1911.68 1756.91 1996.8 1792.61 2048.0 1792.0" class="horizontal" stroke="black" fill="none" stroke-width="1"/>
  <path d="M 256.0,0.0 C 261.8 51.2 271.72 120.97 220.52 103.07 C 169.32 85.17 169.32 187.57 220.52 154.27 C 271.72 120.97 258.95 204.8 256.0 256.0 C 253.05 307.2 271.53 370.1 220.33 348.51 C 169.13 326.92 169.13 429.32 220.33 399.71 C 271.53 370.1 264.79 460.8 256.0 512.0 C 247.21 563.2 275.25 644.14 224.05 622.09 C 172.85 600.05 172.85 702.45 224.05 673.29 C 275.25 644.14 264.56 716.8 256.0 768.0 C 247.44 819.2 237.23 895.29 288.43 867.78 C 339.63 840.27 339.63 942.67 288.43 918.98 C 237.23 895.29 259.87 972.8 256.0 1024.0 C 252.13 1075.2 281.78 1151.02 230.58 1132.95 C 179.38 1114.88 179.38 1217.28 230.58 1184.15 C 281.78 1151.02 254.56 1228.8 256.0 1280.0 C 257.44 1331.2 227.15 1411.23 278.35 1385.68 C 329.55 1360.12 329.55 1462.52 278.35 1436.88 C 227.15 1411.23 263.62 1484.8 256.0 1536.0 C 248.38 1587.2 221.4 1656.32 272.6 1631.3 C 323.8 1606.28 323.8 1708.68 272.6 1682.5 C 221.4 1656.32 255.43 1740.8 256.0 1792.0 C 256.57 1843.2 223.27 1922.05 274.47 1888.32 C 325.67 1854.59 325.67 1956.99 274.47 1939.52 C 223.27 1922.05 253.84 1996.8 256.0 2048.0" class="vertical" stroke="black" fill="none" stroke-width="1"/>
  <path d="M 512.0,0.0 C 516.84 51.2 490.43 118.7 541.63 93.7 C 592.83 68.7 592.83 171.1 541.63 144.9 C 490.43 118.7 511.15 204.8 512.0 256.0 C 512.85 307.2 546.45 379.01 495.25 353.13 C 444.05 327.26 444.05 429.66 495.25 404.33 C 546.45 379.01 503.5 460.8 512.0 512.0 C 520.5 563.2 530.96 638.03 479.76 622.57 C 428.56 607.11 428.56 709.51 479.76 673.77 C 530.96 638.03 506.29 716.8 512.0 768.0 C 517.71 819.2 491.89 906.08 543.09 877.13 C 594.29 848.18 594.29 950.58 543.09 928.33 C 491.89 906.08 513.94 972.8 512.0 1024.0 C 510.06 1075.2 476.58 1149.5 527.78 1133.93 C 578.98 1118.36 578.98 1220.76 527.78 1185.13 C 476.58 1149.5 513.37 1228.8 512.0 1280.0 C 510.63 1331.2 539.17 1409.16 487.97 1374.61 C 436.77 1340.05 436.77 1442.45 487.97 1425.81 C 539.17 1409.16 516.89 1484.8 512.0 1536.0 C 507.11 1587.2 544.58 1681.77 493.38 1647.86 C 442.18 1613.94 442.18 1716.34 493.38 1699.06 C 544.58 1681.77 505.04 1740.8 512.0 1792.0 C 518.96 1843.2 528.14 1931.24 476.94 1896.3 C 425.74 1861.36 425.74 1963.76 476.94 1947.5 C 528.14 1931.24 512.98 1996.8 512.0 2048.0" class="vertical" stroke="black" fill="none" stroke-width="1"/>
  <path d="M 768.0,0.0 C 768.79 51.2 788.23 134.49 737.03 101.18 C 685.83 67.87 685.83 170.27 737.03 152.38 C 788.23 134.49 775.89 204.8 768.0 256.0 C 760.11 307.2 785.41 376.1 734.21 351.97 C 683.01 327.85 683.01 430.25 734.21 403.17 C 785.41 376.1 773.75 460.8 768.0 512.0 C 762.25 563.2 783.47 639.52 732.27 609.68 C 681.07 579.85 681.07 682.25 732.27 660.88 C 783.47 639.52 758.01 716.8 768.0 768.0 C 777.99 819.2 738.62 884.69 789.82 864.6 C 841.02 844.51 841.02 946.91 789.82 915.8 C 738.62 884.69 768.28 972.8 768.0 1024.0 C 767.72 1075.2 784.73 1145.31 733.53 1121.74 C 682.33 1098.17 682.33 1200.57 733.53 1172.94 C 784.73 1145.31 759.78 1228.8 768.0 1280.0 C 776.22 1331.2 743.39 1414.24 794.59 1384.51 C 845.79 1354.78 845.79 1457.18 794.59 1435.71 C 743.39 1414.24 767.94 1484.8 768.0 1536.0 C 768.06 1587.2 737.37 1671.12 788.57 1643.16 C 839.77 1615.2 839.77 1717.6 788.57 1694.36 C 737.37 1671.12 767.02 1740.8 768.0 1792.0 C 768.98 1843.2 794.68 1913.9 743.48 1891.18 C 692.28 1868.45 692.28 1970.85 743.48 1942.38 C 794.68 1913.9 768.72 1996.8 768.0 2048.0" class="vertical" stroke="black" fill="none" stroke-width="1"/>
  <path d="M 1024.0,0.0 C 1024.83 51.2 1041.23 130.01 990.03 104.34 C 938.83 78.68 938.83 181.08 990.03 155.54 C 1041.23 130.01 1021.88 204.8 1024.0 256.0 C 1026.12 307.2 1055.08 392.81 1003.88 357.2 C 952.68 321.59 952.68 423.99 1003.88 408.4 C 1055.08 392.81 1017.31 460.8 1024.0 512.0 C 1030.69 563.2 989.19 655.03 1040.39 624.0 C 1091.59 592.97 1091.59 695.37 1040.39 675.2 C 989.19 655.03 1023.78 716.8 1024.0 768.0 C 1024.22 819.2 1057.51 882.67 1006.31 861.52 C 955.11 840.36 955.11 942.76 1006.31 912.72 C 1057.51 882.67 1014.8 972.8 1024.0 1024.0 C 1033.2 1075.2 1041.64 1167.04 990.44 1131.21 C 939.24 1095.39 939.24 1197.79 990.44 1182.41 C 1041.64 1167.04 1027.03 1228.8 1024.0 1280.0 C 1020.97 1331.2 1058.61 1408.68 1007.41 1390.43 C 956.21 1372.19 956.21 1474.59 1007.41 1441.63 C 1058.61 1408.68 1015.94 1484.8 1024.0 1536.0 C 1032.06 1587.2 996.76 1660.55 1047.96 1636.39 C 1099.16 1612.22 1099.16 1714.62 1047.96 1687.59 C 996.76 1660.55 1030.88 1740.8 1024.0 1792.0 C 1017.12 1843.2 1053.69 1912.18 1002.49 1889.11 C 951.29 1866.04 951.29 1968.44 1002.49 1940.31 C 1053.69 1912.18 1017.05 1996.8 1024.0 2048.0" class="vertical" stroke="black" fill="none" stroke-width="1"/>
  <path d="M 1280.0,0.0 C 1271.72 51.2 1299.08 123.92 1247.88 92.62 C 1196.68 61.32 1196.68 163.72 1247.88 143.82 C 1299.08 123.92 1272.25 204.8 1280.0 256.0 C 1287.75 307.2 1301.43 372.4 1250.23 355.55 C 1199.03 338.69 1199.03 441.09 1250.23 406.75 C 1301.43 372.4 1273.37 460.8 1280.0 512.0 C 1286.63 563.2 1306.76 644.56 1255.56 615.91 C 1204.36 587.25 1204.36 689.65 1255.56 667.11 C 1306.76 644.56 1270.8 716.8 1280.0 768.0 C 1289.2 819.2 1295.56 894.65 1244.36 861.88 C 1193.16 829.12 1193.16 931.52 1244.36 913.08 C 1295.56 894.65 1271.07 972.8 1280.0 1024.0 C 1288.93 1075.2 1248.11 1144.34 1299.31 1118.75 C 1350.51 1093.15 1350.51 1195.55 1299.31 1169.95 C 1248.11 1144.34 1275.05 1228.8 1280.0 1280.0 C 1284.95 1331.2 1306.74 1408.45 1255.54 1382.51 C 1204.34 1356.57 1204.34 1458.97 1255.54 1433.71 C 1306.74 1408.45 1272.76 1484.8 1280.0 1536.0 C 1287.24 1587.2 1253.55 1666.27 1304.75 1633.63 C 1355.95 1601.0 1355.95 1703.4 1304.75 1684.83 C 1253.55 1666.27 1279.2 1740.8 1280.0 1792.0 C 1280.8 1843.2 1248.81 1926.17 1300.01 1903.62 C 1351.21 1881.08 1351.21 1983.48 1300.01 1954.82 C 1248.81 1926.17 1279.86 1996.8 1280.0 2048.0" class="vertical" stroke="black" fill="none" stroke-width="1"/>
  <path d="M 1536.0,0.0 C 1535.26 51.2 1557.43 124.37 1506.23 106.62 C 1455.03 88.87 1455.03 191.27 1506.23 157.82 C 1557.43 124.37 1527.94 204.8 1536.0 256.0 C 1544.06 307.2 1565.66 380.86 1514.46 349.12 C 1463.26 317.38 1463.26 419.78 1514.46 400.32 C 1565.66 380.86 1528.85 460.8 1536.0 512.0 C 1543.15 563.2 1519.25 632.62 1570.45 610.1 C 1621.65 587.58 1621.65 689.98 1570.45 661.3 C 1519.25 632.62 1546.02 716.8 1536.0 768.0 C 1525.98 819.2 1500.22 895.36 1551.42 866.43 C 1602.62 837.5 1602.62 939.9 1551.42 917.63 C 1500.22 895.36 1536.97 972.8 1536.0 1024.0 C 1535.03 1075.2 1515.44 1137.3 1566.64 1117.83 C 1617.84 1098.35 1617.84 1200.75 1566.64 1169.03 C 1515.44 1137.3 1535.99 1228.8 1536.0 1280.0 C 1536.01 1331.2 1519.43 1405.34 1570.63 1380.59 C 1621.83 1355.85 1621.83 1458.25 1570.63 1431.79 C 1519.43 1405.34 1535.31 1484.8 1536.0 1536.0 C 1536.69 1587.2 1501.25 1651.08 1552.45 1635.43 C 1603.65 1619.79 1603.65 1722.19 1552.45 1686.63 C 1501.25 1651.08 1533.89 1740.8 1536.0 1792.0 C 1538.11 1843.2 1561.61 1920.17 1510.41 1902.52 C 1459.21 1884.88 1459.21 1987.28 1510.41 1953.72 C 1561.61 1920.17 1533.16 1996.8 1536.0 2048.0" class="vertical" stroke="black" fill="none" stroke-width="1"/>
  <path d="M 1792.0,0.0 C 1795.02 51.2 1816.28 136.48 1765.08 110.14 C 1713.88 83.79 1713.88 186.19 1765.08 161.34 C 1816.28 136.48 1801.19 204.8 1792.0 256.0 C 1782.81 307.2 1767.16 377.67 1818.36 357.2 C 1869.56 336.73 1869.56 439.13 1818.36 408.4 C 1767.16 377.67 1800.91 460.8 1792.0 512.0 C 1783.09 563.2 1776.44 640.7 1827.64 605.57 C 1878.84 570.45 1878.84 672.85 1827.64 656.77 C 1776.44 640.7 1782.42 716.8 1792.0 768.0 C 1801.58 819.2 1821.44 890.43 1770.24 871.27 C 1719.04 852.12 1719.04 954.52 1770.24 922.47 C 1821.44 890.43 1788.36 972.8 1792.0 1024.0 C 1795.64 1075.2 1759.46 1165.99 1810.66 1131.47 C 1861.86 1096.94 1861.86 1199.34 1810.66 1182.67 C 1759.46 1165.99 1785.45 1228.8 1792.0 1280.0 C 1798.55 1331.2 1807.42 1399.8 1756.22 1380.72 C 1705.02 1361.64 1705.02 1464.04 1756.22 1431.92 C 1807.42 1399.8 1792.37 1484.8 1792.0 1536.0 C 1791.63 1587.2 1769.75 1677.08 1820.95 1645.8 C 1872.15 1614.51 1872.15 1716.91 1820.95 1697.0 C 1769.75 1677.08 1788.95 1740.8 1792.0 1792.0 C 1795.05 1843.2 1761.72 1917.79 1812.92 1889.65 C 1864.12 1861.52 1864.12 1963.92 1812.92 1940.85 C 1761.72 1917.79 1797.84 1996.8 1792.0 2048.0" class="vertical" stroke="black" fill="none" stroke-width="1"/>
  <path d="M 2.0 0.0 L 2046.0 0.0 A 2.0 2.0 0 0 1 2048.0 2.0 L 2048.0 2046.0 A 2.0 2.0 0 0 1 2046.0 2048.0 L 2.0 2048.0 A 2.0 2.0 0 0 1 0.0 2046.0 L 0.0 2.0 A 2.0 2.0 0 0 1 2.0 0.0 " class="border" stroke="black" fill="none" stroke-width="1"/>
</svg>
