<svg xmlns="http://www.w3.org/2000/svg" width="2048" height="2048" viewBox="0 0 2048 2048">
  <path d="M 0.0,256.0 C 51.2 260.89 128.35 225.2 103.46 276.4 C 78.58 327.6 180.98 327.6 154.66 276.4 C 128.35 225.2 204.8 254.04 256.0 256.0 C 307.2 257.96 365.88 289.0 350.33 237.8 C 334.77 186.6 437.17 186.6 401.53 237.8 C 365.88 289.0 460.8 261.22 512.0 256.0 C 563.2 250.78 639.76 230.58 620.31 281.78 C 600.87 332.98 703.27 332.98 671.51 281.78 C 639.76 230.58 716.8 258.24 768.0 256.0 C 819.2 253.76 907.7 279.57 871.98 228.37 C 836.26 177.17 938.66 177.17 923.18 228.37 C 907.7 279.57 972.8 258.42 1024.0 256.0 C 1075.2 253.58 1146.3 289.13 1121.93 237.93 C 1097.56 186.73 1199.96 186.73 1173.13 237.93 C 1146.3 289.13 1228.8 257.84 1280.0 256.0 C 1331.2 254.16 1425.74 226.36 1389.92 277.56 C 1354.1 328.76 1456.5 328.76 1441.12 277.56 C 1425.74 226.36 1484.8 247.63 1536.0 256.0 C 1587.2 264.37 1669.89 236.58 1639.59 287.78 C 1609.29 338.98 1711.69 338.98 1690.79 287.78 C 1669.89 236.58 1740.8 253.91 1792.0 256.0 C 1843.2 258.09 1931.5 234.34 1903.83 285.54 C 1876.15 336.74 1978.55 336.74 1955.03 285.54 C 1931.5 234.34 1996.8 264.1 2048.0 256.0" class="horizontal" stroke="black" fill="none" stroke-width="1"/>
  <path d="M 0.0,512.0 C 51.2 505.55 131.81 534.8 112.59 483.6 C 93.38 432.4 195.78 432.4 163.79 483.6 C 131.81 534.8 204.8 512.5 256.0 512.0 C 307.2 511.5 387.64 528.14 357.52 476.94 C 327.41 425.74 429.81 425.74 408.72 476.94 C 387.64 528.14 460.8 516.78 512.0 512.0 C 563.2 507.22 642.61 494.12 612.14 545.32 C 581.67 596.52 684.07 596.52 663.34 545.32 C 642.61 494.12 716.8 520.86 768.0 512.0 C 819.2 503.14 878.89 476.3 860.57 527.5 C 842.26 578.7 944.66 578.7 911.77 527.5 C 878.89 476.3 972.8 502.24 1024.0 512.0 C 1075.2 521.76 1155.02 484.21 1130.11 535.41 C 1105.2 586.61 1207.6 586.61 1181.31 535.41 C 1155.02 484.21 1228.8 503.47 1280.0 512.0 C 1331.2 520.53 1406.53 529.38 1381.91 478.18 C 1357.29 426.98 1459.69 426.98 1433.11 478.18 C 1406.53 529.38 1484.8 518.38 1536.0 512.0 C 1587.2 505.62 1661.38 529.93 1632.82 478.73 C 1604.27 427.53 1706.67 427.53 1684.02 478.73 C 1661.38 529.93 1740.8 504.35 1792.0 512.0 C 1843.2 519.65 1925.98 529.19 1900.92 477.99 C 1875.85 426.79 1978.25 426.79 1952.12 477.99 C 1925.98 529.19 1996.8 518.7 2048.0 512.0" class="horizontal" stroke="black" fill="none" stroke-width="1"/>
  <path d="M 0.0,768.0 C 51.2 769.84 120.85 800.97 94.88 749.77 C 68.9 698.57 171.3 698.57 146.08 749.77 C 120.85 800.97 204.8 773.65 256.0 768.0 C 307.2 762.35 376.54 787.82 350.09 736.62 C 323.63 685.42 426.03 685.42 401.29 736.62 C 376.54 787.82 460.8 766.64 512.0 768.0 C 563.2 769.36 650.61 800.79 623.76 749.59 C 596.91 698.39 699.31 698.39 674.96 749.59 C 650.61 800.79 716.8 777.87 768.0 768.0 C 819.2 758.13 890.92 796.65 872.72 745.45 C 854.52 694.25 956.92 694.25 923.92 745.45 C 890.92 796.65 972.8 759.41 1024.0 768.0 C 1075.2 776.59 1157.25 736.33 1133.14 787.53 C 1109.03 838.73 1211.43 838.73 1184.34 787.53 C 1157.25 736.33 1228.8 771.71 1280.0 768.0 C 1331.2 764.29 1399.01 794.07 1382.57 742.87 C 1366.13 691.67 1468.53 691.67 1433.77 742.87 C 1399.01 794.07 1484.8 763.71 1536.0 768.0 C 1587.2 772.29 1668.49 734.65 1648.22 785.85 C 1627.95 837.05 1730.35 837.05 1699.42 785.85 C 1668.49 734.65 1740.8 761.09 1792.0 768.0 C 1843.2 774.91 1924.5 743.16 1894.62 794.36 C 1864.74 845.56 1967.14 845.56 1945.82 794.36 C 1924.5 743.16 1996.8 770.53 2048.0 768.0" class="horizontal" stroke="black" fill="none" stroke-width="1"/>
  <path d="M 0.0,1024.0 C 51.2 1020.25 115.83 995.46 92.33 1046.66 C 68.82 1097.86 171.22 1097.86 143.53 1046.66 C 115.83 995.46 204.8 1025.62 256.0 1024.0 C 307.2 1022.38 384.85 1002.82 361.5 1054.02 C 338.14 1105.22 440.54 1105.22 412.7 1054.02 C 384.85 1002.82 460.8 1028.12 512.0 1024.0 C 563.2 1019.88 634.17 1007.26 613.25 1058.46 C 592.32 1109.66 694.72 1109.66 664.45 1058.46 C 634.17 1007.26 716.8 1019.26 768.0 1024.0 C 819.2 1028.74 898.31 990.98 865.53 1042.18 C 832.76 1093.38 935.16 1093.38 916.73 1042.18 C 898.31 990.98 972.8 1015.21 1024.0 1024.0 C 1075.2 1032.79 1163.53 1001.7 1129.3 1052.9 C 1095.07 1104.1 1197.47 1104.1 1180.5 1052.9 C 1163.53 1001.7 1228.8 1017.34 1280.0 1024.0 C 1331.2 1030.66 1401.42 992.61 1372.36 1043.81 C 1343.3 1095.01 1445.7 1095.01 1423.56 1043.81 C 1401.42 992.61 1484.8 1020.91 1536.0 1024.0 C 1587.2 1027.09 1651.01 1047.29 1632.51 996.09 C 1614.02 944.89 1716.42 944.89 1683.71 996.09 C 1651.01 1047.29 1740.8 1020.74 1792.0 1024.0 C 1843.2 1027.26 1913.98 1043.16 1893.4 991.96 C 1872.81 940.76 1975.21 940.76 1944.6 991.96 C 1913.98 1043.16 1996.8 1021.12 2048.0 1024.0" class="horizontal" stroke="black" fill="none" stroke-width="1"/>
  <path d="M 0.0,1280.0 C 51.2 1282.73 127.42 1312.12 96.59 1260.92 C 65.76 1209.72 168.16 1209.72 147.79 1260.92 C 127.42 1312.12 204.8 1274.83 256.0 1280.0 C 307.2 1285.17 383.26 1315.33 362.71 1264.13 C 342.15 1212.93 444.55 1212.93 413.91 1264.13 C 383.26 1315.33 460.8 1272.1 512.0 1280.0 C 563.2 1287.9 657.14 1313.07 621.65 1261.87 C 586.16 1210.67 688.56 1210.67 672.85 1261.87 C 657.14 1313.07 716.8 1272.9 768.0 1280.0 C 819.2 1287.1 883.92 1247.24 864.62 1298.44 C 845.33 1349.64 947.73 1349.64 915.82 1298.44 C 883.92 1247.24 972.8 1283.94 1024.0 1280.0 C 1075.2 1276.06 1151.08 1252.43 1118.77 1303.63 C 1086.46 1354.83 1188.86 1354.83 1169.97 1303.63 C 1151.08 1252.43 1228.8 1287.09 1280.0 1280.0 C 1331.2 1272.91 1399.07 1300.13 1374.04 1248.93 C 1349.01 1197.73 1451.41 1197.73 1425.24 1248.93 C 1399.07 1300.13 1484.8 1278.39 1536.0 1280.0 C 1587.2 1281.61 1660.38 1264.11 1637.25 1315.31 C 1614.11 1366.51 1716.51 1366.51 1688.45 1315.31 C 1660.38 1264.11 1740.8 1289.61 1792.0 1280.0 C 1843.2 1270.39 1915.2 1264.34 1892.93 1315.54 C 1870.66 1366.74 1973.06 1366.74 1944.13 1315.54 C 1915.2 1264.34 1996.8 1272.48 2048.0 1280.0" class="horizontal" stroke="black" fill="none" stroke-width="1"/>
  <path d="M 0.0,1536.0 C 51.2 1535.98 128.06 1555.61 94.74 1504.41 C 61.43 1453.21 163.83 1453.21 145.94 1504.41 C 128.06 1555.61 204.8 1530.05 256.0 1536.0 C 307.2 1541.95 373.18 1554.34 351.92 1503.14 C 330.65 1451.94 433.05 1451.94 403.12 1503.14 C 373.18 1554.34 460.8 1531.92 512.0 1536.0 C 563.2 1540.08 636.77 1519.1 612.31 1570.3 C 587.86 1621.5 690.26 1621.5 663.51 1570.3 C 636.77 1519.1 716.8 1531.34 768.0 1536.0 C 819.2 1540.66 879.76 1513.1 861.83 1564.3 C 843.9 1615.5 946.3 1615.5 913.03 1564.3 C 879.76 1513.1 972.8 1535.19 1024.0 1536.0 C 1075.2 1536.81 1157.7 1511.58 1132.37 1562.78 C 1107.04 1613.98 1209.44 1613.98 1183.57 1562.78 C 1157.7 1511.58 1228.8 1538.07 1280.0 1536.0 C 1331.2 1533.93 1413.04 1505.97 1382.35 1557.17 C 1351.65 1608.37 1454.05 1608.37 1433.55 1557.17 C 1413.04 1505.97 1484.8 1530.35 1536.0 1536.0 C 1587.2 1541.65 1682.09 1566.97 1646.86 1515.77 C 1611.63 1464.57 1714.03 1464.57 1698.06 1515.77 C 1682.09 1566.97 1740.8 1544.39 1792.0 1536.0 C 1843.2 1527.61 1921.62 1507.73 1903.81 1558.93 C 1886.0 1610.13 1988.4 1610.13 1955.01 1558.93 C 1921.62 1507.73 1996.8 1542.13 2048.0 1536.0" class="horizontal" stroke="black" fill="none" stroke-width="1"/>
  <path d="M 0.0,1792.0 C 51.2 1789.15 138.08 1814.13 109.85 1762.93 C 81.61 1711.73 184.01 1711.73 161.05 1762.93 C 138.08 1814.13 204.8 1801.06 256.0 1792.0 C 307.2 1782.94 388.6 1772.15 360.84 1823.35 C 333.08 1874.55 435.48 1874.55 412.04 1823.35 C 388.6 1772.15 460.8 1794.46 512.0 1792.0 C 563.2 1789.54 643.29 1808.18 614.28 1756.98 C 585.27 1705.78 687.67 1705.78 665.48 1756.98 C 643.29 1808.18 716.8 1783.46 768.0 1792.0 C 819.2 1800.54 897.12 1809.08 874.48 1757.88 C 851.83 1706.68 954.23 1706.68 925.68 1757.88 C 897.12 1809.08 972.8 1797.82 1024.0 1792.0 C 1075.2 1786.18 1154.73 1761.27 1123.06 1812.47 C 1091.39 1863.67 1193.79 1863.67 1174.26 1812.47 C 1154.73 1761.27 1228.8 1796.17 1280.0 1792.0 C 1331.2 1787.83 1402.3 1766.96 1380.26 1818.16 C 1358.21 1869.36 1460.61 1869.36 1431.46 1818.16 C 1402.3 1766.96 1484.8 1786.33 1536.0 1792.0 C 1587.2 1797.67 1678.64 1760.43 1645.05 1811.63 C 1611.45 1862.83 1713.85 1862.83 1696.25 1811.63 C 1678.64 1760.43 1740.8 1801.74 1792.0 1792.0 C 1843.2 1782.26 1921.87 1819.04 1900.68 1767.84 C 1879.5 1716.64 1981.9 1716.64 1951.88 1767.84 C 1921.87 1819.04 1996.8 1788.18 2048.0 1792.0" class="horizontal" stroke="black" fill="none" stroke-width="1"/>
  <path d="M 256.0,0.0 C 261.59 51.2 238.48 112.76 289.68 92.51 C 340.88 72.26 340.88 174.66 289.68 143.71 C 238.48 112.76 258.97 204.8 256.0 256.0 C 253.03 307.2 234.57 383.17 285.77 353.55 C 336.97 323.93 336.97 426.33 285.77 404.75 C 234.57 383.17 254.95 460.8 256.0 512.0 C 257.05 563.2 234.72 627.89 285.92 604.67 C 337.12 581.46 337.12 683.86 285.92 655.87 C 234.72 627.89 250.38 716.8 256.0 768.0 C 261.62 819.2 221.25 907.71 272.45 880.23 C 323.65 852.76 323.65 955.16 272.45 931.43 C 221.25 907.71 253.76 972.8 256.0 1024.0 C 258.24 1075.2 221.2 1150.43 272.4 1124.96 C 323.6 1099.48 323.6 1201.88 272.4 1176.16 C 221.2 1150.43 247.19 1228.8 256.0 1280.0 C 264.81 1331.2 227.02 1415.97 278.22 1381.87 C 329.42 1347.77 329.42 1450.17 278.22 1433.07 C 227.02 1415.97 261.92 1484.8 256.0 1536.0 C 250.08 1587.2 282.81 1667.16 231.61 1638.23 C 180.41 1609.31 180.41 1711.71 231.61 1689.43 C 282.81 1667.16 255.42 1740.8 256.0 1792.0 C 256.58 1843.2 231.57 1919.13 282.77 1899.84 C 333.97 1880.54 333.97 1982.94 282.77 1951.04 C 231.57 1919.13 258.84 1996.8 256.0 2048.0" class="vertical" stroke="black" fill="none" stroke-width="1"/>
  <path d="M 512.0,0.0 C 505.88 51.2 541.49 130.79 490.29 104.15 C 439.09 77.52 439.09 179.92 490.29 155.35 C 541.49 130.79 517.32 204.8 512.0 256.0 C 506.68 307.2 541.99 373.13 490.79 357.44 C 439.59 341.75 439.59 444.15 490.79 408.64 C 541.99 373.13 520.88 460.8 512.0 512.0 C 503.12 563.2 491.47 629.25 542.67 610.33 C 593.87 591.4 593.87 693.8 542.67 661.53 C 491.47 629.25 521.65 716.8 512.0 768.0 C 502.35 819.2 490.36 897.58 541.56 878.79 C 592.76 860.01 592.76 962.41 541.56 929.99 C 490.36 897.58 504.92 972.8 512.0 1024.0 C 519.08 1075.2 491.64 1167.04 542.84 1134.42 C 594.04 1101.8 594.04 1204.2 542.84 1185.62 C 491.64 1167.04 501.95 1228.8 512.0 1280.0 C 522.05 1331.2 492.72 1407.07 543.92 1377.64 C 595.12 1348.21 595.12 1450.61 543.92 1428.84 C 492.72 1407.07 506.3 1484.8 512.0 1536.0 C 517.7 1587.2 481.7 1671.67 532.9 1644.4 C 584.1 1617.13 584.1 1719.53 532.9 1695.6 C 481.7 1671.67 506.46 1740.8 512.0 1792.0 C 517.54 1843.2 481.72 1912.69 532.92 1895.15 C 584.12 1877.62 584.12 1980.02 532.92 1946.35 C 481.72 1912.69 518.09 1996.8 512.0 2048.0" class="vertical" stroke="black" fill="none" stroke-width="1"/>
  <path d="M 768.0,0.0 C 771.65 51.2 792.26 125.31 741.06 96.06 C 689.86 66.81 689.86 169.21 741.06 147.26 C 792.26 125.31 761.19 204.8 768.0 256.0 C 774.81 307.2 788.39 373.88 737.19 353.8 C 685.99 333.71 685.99 436.11 737.19 405.0 C 788.39 373.88 771.75 460.8 768.0 512.0 C 764.25 563.2 737.85 655.12 789.05 623.88 C 840.25 592.64 840.25 695.04 789.05 675.08 C 737.85 655.12 759.69 716.8 768.0 768.0 C 776.31 819.2 752.23 886.62 803.43 871.2 C 854.63 855.77 854.63 958.17 803.43 922.4 C 752.23 886.62 766.22 972.8 768.0 1024.0 C 769.78 1075.2 752.39 1151.72 803.59 1135.11 C 854.79 1118.49 854.79 1220.89 803.59 1186.31 C 752.39 1151.72 763.02 1228.8 768.0 1280.0 C 772.98 1331.2 801.76 1426.88 750.56 1392.34 C 699.36 1357.8 699.36 1460.2 750.56 1443.54 C 801.76 1426.88 772.18 1484.8 768.0 1536.0 C 763.82 1587.2 745.14 1684.02 796.34 1648.57 C 847.54 1613.12 847.54 1715.52 796.34 1699.77 C 745.14 1684.02 769.85 1740.8 768.0 1792.0 C 766.15 1843.2 803.16 1915.16 751.96 1894.16 C 700.76 1873.17 700.76 1975.57 751.96 1945.36 C 803.16 1915.16 758.95 1996.8 768.0 2048.0" class="vertical" stroke="black" fill="none" stroke-width="1"/>
  <path d="M 1024.0,0.0 C 1033.6 51.2 1005.85 132.09 1057.05 106.1 C 1108.25 80.1 1108.25 182.5 1057.05 157.3 C 1005.85 132.09 1033.19 204.8 1024.0 256.0 C 1014.81 307.2 998.08 403.18 1049.28 368.38 C 1100.48 333.59 1100.48 435.99 1049.28 419.58 C 998.08 403.18 1031.13 460.8 1024.0 512.0 C 1016.87 563.2 1056.86 635.91 1005.66 615.78 C 954.46 595.64 954.46 698.04 1005.66 666.98 C 1056.86 635.91 1029.06 716.8 1024.0 768.0 C 1018.94 819.2 1059.73 888.23 1008.53 870.91 C 957.33 853.59 957.33 955.99 1008.53 922.11 C 1059.73 888.23 1020.45 972.8 1024.0 1024.0 C 1027.55 1075.2 1005.61 1162.49 1056.81 1130.94 C 1108.01 1099.39 1108.01 1201.79 1056.81 1182.14 C 1005.61 1162.49 1026.39 1228.8 1024.0 1280.0 C 1021.61 1331.2 992.39 1404.51 1043.59 1373.73 C 1094.79 1342.95 1094.79 1445.35 1043.59 1424.93 C 992.39 1404.51 1018.54 1484.8 1024.0 1536.0 C 1029.46 1587.2 1051.57 1669.13 1000.37 1639.44 C 949.17 1609.76 949.17 1712.16 1000.37 1690.64 C 1051.57 1669.13 1034.16 1740.8 1024.0 1792.0 C 1013.84 1843.2 1050.59 1927.02 999.39 1902.0 C 948.19 1876.99 948.19 1979.39 999.39 1953.2 C 1050.59 1927.02 1032.94 1996.8 1024.0 2048.0" class="vertical" stroke="black" fill="none" stroke-width="1"/>
  <path d="M 1280.0,0.0 C 1274.55 51.2 1295.75 144.24 1244.55 109.95 C 1193.35 75.66 1193.35 178.06 1244.55 161.15 C 1295.75 144.24 1274.6 204.8 1280.0 256.0 C 1285.4 307.2 1299.04 391.16 1247.84 362.72 C 1196.64 334.29 1196.64 436.69 1247.84 413.92 C 1299.04 391.16 1278.27 460.8 1280.0 512.0 C 1281.73 563.2 1251.52 650.78 1302.72 615.71 C 1353.92 580.63 1353.92 683.03 1302.72 666.91 C 1251.52 650.78 1270.17 716.8 1280.0 768.0 C 1289.83 819.2 1313.31 900.35 1262.11 874.92 C 1210.91 849.49 1210.91 951.89 1262.11 926.12 C 1313.31 900.35 1284.58 972.8 1280.0 1024.0 C 1275.42 1075.2 1255.47 1153.05 1306.67 1129.31 C 1357.87 1105.57 1357.87 1207.97 1306.67 1180.51 C 1255.47 1153.05 1287.89 1228.8 1280.0 1280.0 C 1272.11 1331.2 1310.96 1398.98 1259.76 1381.58 C 1208.56 1364.18 1208.56 1466.58 1259.76 1432.78 C 1310.96 1398.98 1289.45 1484.8 1280.0 1536.0 C 1270.55 1587.2 1257.48 1662.91 1308.68 1640.18 C 1359.88 1617.45 1359.88 1719.85 1308.68 1691.38 C 1257.48 1662.91 1270.79 1740.8 1280.0 1792.0 C 1289.21 1843.2 1296.09 1901.87 1244.89 1884.27 C 1193.69 1866.68 1193.69 1969.08 1244.89 1935.47 C 1296.09 1901.87 1279.99 1996.8 1280.0 2048.0" class="vertical" stroke="black" fill="none" stroke-width="1"/>
  <path d="M 1536.0,0.0 C 1546.1 51.2 1511.99 124.4 1563.19 99.04 C 1614.39 73.69 1614.39 176.09 1563.19 150.24 C 1511.99 124.4 1538.76 204.8 1536.0 256.0 C 1533.24 307.2 1555.84 393.05 1504.64 360.23 C 1453.44 327.4 1453.44 429.8 1504.64 411.43 C 1555.84 393.05 1539.44 460.8 1536.0 512.0 C 1532.56 563.2 1562.71 626.12 1511.51 606.85 C 1460.31 587.58 1460.31 689.98 1511.51 658.05 C 1562.71 626.12 1540.15 716.8 1536.0 768.0 C 1531.85 819.2 1515.44 893.2 1566.64 862.75 C 1617.84 832.31 1617.84 934.71 1566.64 913.95 C 1515.44 893.2 1532.45 972.8 1536.0 1024.0 C 1539.55 1075.2 1563.29 1157.68 1512.09 1134.31 C 1460.89 1110.93 1460.89 1213.33 1512.09 1185.51 C 1563.29 1157.68 1543.77 1228.8 1536.0 1280.0 C 1528.23 1331.2 1562.53 1399.71 1511.33 1373.8 C 1460.13 1347.89 1460.13 1450.29 1511.33 1425.0 C 1562.53 1399.71 1539.76 1484.8 1536.0 1536.0 C 1532.24 1587.2 1515.78 1653.08 1566.98 1635.42 C 1618.18 1617.75 1618.18 1720.15 1566.98 1686.62 C 1515.78 1653.08 1538.7 1740.8 1536.0 1792.0 C 1533.3 1843.2 1563.15 1907.14 1511.95 1885.41 C 1460.75 1863.68 1460.75 1966.08 1511.95 1936.61 C 1563.15 1907.14 1527.4 1996.8 1536.0 2048.0" class="vertical" stroke="black" fill="none" stroke-width="1"/>
  <path d="M 1792.0,0.0 C 1786.95 51.2 1771.73 136.56 1822.93 101.01 C 1874.13 65.46 1874.13 167.86 1822.93 152.21 C 1771.73 136.56 1795.11 204.8 1792.0 256.0 C 1788.89 307.2 1768.17 393.43 1819.37 358.69 C 1870.57 323.96 1870.57 426.36 1819.37 409.89 C 1768.17 393.43 1790.47 460.8 1792.0 512.0 C 1793.53 563.2 1811.17 639.3 1759.97 618.08 C 1708.77 596.86 1708.77 699.26 1759.97 669.28 C 1811.17 639.3 1793.58 716.8 1792.0 768.0 C 1790.42 819.2 1772.31 899.84 1823.51 879.83 C 1874.71 859.83 1874.71 962.23 1823.51 931.03 C 1772.31 899.84 1794.32 972.8 1792.0 1024.0 C 1789.68 1075.2 1813.18 1153.43 1761.98 1131.18 C 1710.78 1108.93 1710.78 1211.33 1761.98 1182.38 C 1813.18 1153.43 1785.06 1228.8 1792.0 1280.0 C 1798.94 1331.2 1808.72 1412.96 1757.52 1390.93 C 1706.32 1368.89 1706.32 1471.29 1757.52 1442.13 C 1808.72 1412.96 1785.06 1484.8 1792.0 1536.0 C 1798.94 1587.2 1819.78 1669.21 1768.58 1633.38 C 1717.38 1597.54 1717.38 1699.94 1768.58 1684.58 C 1819.78 1669.21 1800.61 1740.8 1792.0 1792.0 C 1783.39 1843.2 1827.01 1923.29 1775.81 1897.76 C 1724.61 1872.23 1724.61 1974.63 1775.81 1948.96 C 1827.01 1923.29 1800.58 1996.8 1792.0 2048.0" class="vertical" stroke="black" fill="none" stroke-width="1"/>
  <path d="M 2.0 0.0 L 2046.0 0.0 A 2.0 2.0 0 0 1 2048.0 2.0 L 2048.0 2046.0 A 2.0 2.0 0 0 1 2046.0 2048.0 L 2.0 2048.0 A 2.0 2.0 0 0 1 0.0 2046.0 L 0.0 2.0 A 2.0 2.0 0 0 1 2.0 0.0 " class="border" stroke="black" fill="none" stroke-width="1"/>
</svg>
