<svg xmlns="http://www.w3.org/2000/svg" version="1.0" viewBox="0 0 5 5">
  <path d="M 0,0 L 5,0 " class="horizontal" fill="none" stroke="black" stroke-width="0.01"/>
  <path d="M 0.0,1.0 C 0.07 0.99 0.12 1.0 0.2 0.98 C 0.28 0.96 0.46 0.85 0.49 0.86 C 0.52 0.87 0.4 0.99 0.36 1.06 C 0.32 1.13 0.18 1.23 0.23 1.26 C 0.28 1.29 0.57 1.29 0.63 1.26 C 0.68 1.23 0.58 1.13 0.56 1.06 C 0.54 0.99 0.45 0.87 0.49 0.86 C 0.53 0.85 0.72 1.0 0.8 1.02 C 0.88 1.04 0.93 1.01 1.0 1.0 C 1.07 0.99 1.12 1.0 1.2 0.98 C 1.28 0.96 1.45 0.86 1.48 0.88 C 1.51 0.9 1.43 1.01 1.4 1.08 C 1.37 1.15 1.26 1.25 1.31 1.28 C 1.36 1.31 1.66 1.31 1.71 1.28 C 1.76 1.25 1.64 1.15 1.6 1.08 C 1.56 1.01 1.45 0.9 1.48 0.88 C 1.51 0.86 1.71 0.96 1.8 0.98 C 1.89 1.0 1.93 0.99 2.0 1.0 C 2.07 1.01 2.12 1.04 2.2 1.02 C 2.28 1.0 2.44 0.89 2.47 0.9 C 2.5 0.91 2.4 1.03 2.37 1.1 C 2.34 1.17 2.22 1.27 2.27 1.3 C 2.32 1.33 2.62 1.33 2.67 1.3 C 2.72 1.27 2.6 1.17 2.57 1.1 C 2.54 1.03 2.43 0.92 2.47 0.9 C 2.51 0.88 2.71 0.99 2.8 1.01 C 2.89 1.03 2.93 1.0 3.0 1.0 C 3.07 1.0 3.11 0.98 3.2 0.99 C 3.29 1.0 3.49 1.09 3.52 1.07 C 3.55 1.05 3.43 0.94 3.39 0.87 C 3.35 0.8 3.22 0.7 3.26 0.67 C 3.3 0.64 3.6 0.64 3.66 0.67 C 3.72 0.7 3.61 0.8 3.59 0.87 C 3.57 0.94 3.48 1.05 3.52 1.07 C 3.56 1.1 3.72 1.03 3.8 1.02 C 3.88 1.01 3.93 1.01 4.0 1.0 C 4.07 0.99 4.12 0.96 4.2 0.98 C 4.28 1.0 4.45 1.13 4.48 1.12 C 4.51 1.11 4.41 0.99 4.38 0.92 C 4.35 0.85 4.23 0.75 4.28 0.72 C 4.33 0.69 4.63 0.69 4.68 0.72 C 4.73 0.75 4.61 0.85 4.58 0.92 C 4.55 0.99 4.44 1.11 4.48 1.12 C 4.52 1.13 4.71 1.0 4.8 0.98 C 4.89 0.96 4.93 0.99 5.0 1.0 " class="horizontal" fill="none" stroke="black" stroke-width="0.01"/>
  <path d="M 0.0,2.0 C 0.07 1.99 0.12 1.96 0.2 1.98 C 0.28 2.0 0.42 2.14 0.45 2.13 C 0.48 2.12 0.4 2.0 0.37 1.93 C 0.34 1.86 0.24 1.76 0.3 1.73 C 0.36 1.7 0.65 1.7 0.7 1.73 C 0.74 1.76 0.61 1.86 0.57 1.93 C 0.53 2.0 0.41 2.12 0.45 2.13 C 0.49 2.14 0.71 2.0 0.8 1.98 C 0.89 1.96 0.93 1.99 1.0 2.0 C 1.07 2.01 1.12 2.0 1.2 2.02 C 1.27 2.04 1.42 2.14 1.45 2.13 C 1.48 2.11 1.4 2.0 1.37 1.93 C 1.34 1.86 1.24 1.76 1.29 1.73 C 1.34 1.7 1.64 1.7 1.69 1.73 C 1.74 1.76 1.61 1.86 1.57 1.93 C 1.53 2.0 1.41 2.12 1.45 2.13 C 1.49 2.14 1.71 2.01 1.8 1.99 C 1.89 1.97 1.93 2.0 2.0 2.0 C 2.07 2.0 2.12 1.99 2.2 2.01 C 2.28 2.03 2.48 2.13 2.51 2.11 C 2.54 2.09 2.42 1.98 2.38 1.91 C 2.34 1.84 2.2 1.74 2.25 1.71 C 2.3 1.68 2.6 1.68 2.65 1.71 C 2.7 1.74 2.6 1.84 2.58 1.91 C 2.56 1.98 2.47 2.1 2.51 2.11 C 2.55 2.12 2.72 1.98 2.8 1.96 C 2.88 1.94 2.93 1.99 3.0 2.0 C 3.07 2.01 3.11 2.03 3.2 2.04 C 3.29 2.05 3.48 2.1 3.52 2.07 C 3.56 2.04 3.47 1.94 3.44 1.87 C 3.41 1.8 3.3 1.7 3.35 1.67 C 3.4 1.64 3.7 1.64 3.75 1.67 C 3.8 1.7 3.68 1.8 3.64 1.87 C 3.6 1.94 3.49 2.04 3.52 2.07 C 3.55 2.1 3.72 2.04 3.8 2.03 C 3.88 2.02 3.93 2.01 4.0 2.0 C 4.07 1.99 4.12 1.98 4.2 1.97 C 4.28 1.96 4.44 1.9 4.48 1.93 C 4.52 1.96 4.43 2.06 4.41 2.13 C 4.39 2.2 4.28 2.3 4.34 2.33 C 4.39 2.36 4.7 2.36 4.74 2.33 C 4.78 2.3 4.65 2.2 4.61 2.13 C 4.57 2.06 4.45 1.96 4.48 1.93 C 4.51 1.9 4.71 1.96 4.8 1.97 C 4.89 1.98 4.93 1.99 5.0 2.0 " class="horizontal" fill="none" stroke="black" stroke-width="0.01"/>
  <path d="M 0.0,3.0 C 0.07 3.01 0.12 3.01 0.2 3.02 C 0.28 3.03 0.44 3.1 0.48 3.07 C 0.52 3.04 0.43 2.94 0.41 2.87 C 0.38 2.8 0.28 2.7 0.33 2.67 C 0.38 2.64 0.68 2.64 0.73 2.67 C 0.78 2.7 0.65 2.8 0.61 2.87 C 0.57 2.94 0.45 3.05 0.48 3.07 C 0.51 3.09 0.71 3.02 0.8 3.01 C 0.89 3.0 0.93 3.0 1.0 3.0 C 1.07 3.0 1.12 2.97 1.2 2.99 C 1.28 3.01 1.44 3.15 1.47 3.14 C 1.5 3.13 1.42 3.01 1.4 2.94 C 1.38 2.87 1.27 2.77 1.32 2.74 C 1.37 2.71 1.67 2.71 1.72 2.74 C 1.77 2.77 1.64 2.87 1.6 2.94 C 1.56 3.01 1.44 3.13 1.47 3.14 C 1.5 3.15 1.71 3.0 1.8 2.98 C 1.89 2.96 1.93 2.99 2.0 3.0 C 2.07 3.01 2.12 3.04 2.2 3.02 C 2.28 3.0 2.47 2.85 2.51 2.86 C 2.54 2.87 2.44 2.99 2.41 3.06 C 2.38 3.13 2.26 3.23 2.31 3.26 C 2.36 3.29 2.66 3.29 2.71 3.26 C 2.76 3.23 2.64 3.13 2.61 3.06 C 2.58 2.99 2.48 2.86 2.51 2.86 C 2.54 2.86 2.72 3.02 2.8 3.04 C 2.88 3.06 2.93 3.01 3.0 3.0 C 3.07 2.99 3.12 2.98 3.2 2.96 C 3.28 2.94 3.48 2.85 3.51 2.87 C 3.54 2.89 3.42 3.0 3.37 3.07 C 3.32 3.14 3.19 3.24 3.23 3.27 C 3.27 3.3 3.57 3.3 3.63 3.27 C 3.69 3.24 3.59 3.14 3.57 3.07 C 3.55 3.0 3.47 2.89 3.51 2.87 C 3.55 2.85 3.72 2.95 3.8 2.97 C 3.88 2.99 3.93 2.99 4.0 3.0 C 4.07 3.01 4.11 3.01 4.2 3.03 C 4.29 3.05 4.48 3.14 4.52 3.12 C 4.56 3.1 4.46 2.99 4.43 2.92 C 4.4 2.85 4.29 2.75 4.34 2.72 C 4.39 2.69 4.69 2.69 4.74 2.72 C 4.79 2.75 4.67 2.85 4.63 2.92 C 4.59 2.99 4.49 3.1 4.52 3.12 C 4.55 3.14 4.72 3.04 4.8 3.02 C 4.88 3.0 4.93 3.01 5.0 3.0 " class="horizontal" fill="none" stroke="black" stroke-width="0.01"/>
  <path d="M 0.0,4.0 C 0.07 4.0 0.11 3.99 0.2 4.01 C 0.29 4.03 0.51 4.12 0.55 4.1 C 0.59 4.08 0.47 3.97 0.43 3.9 C 0.39 3.83 0.26 3.73 0.3 3.7 C 0.34 3.67 0.64 3.67 0.7 3.7 C 0.76 3.73 0.66 3.83 0.63 3.9 C 0.6 3.97 0.52 4.08 0.55 4.1 C 0.58 4.12 0.73 4.03 0.8 4.01 C 0.88 3.99 0.93 4.0 1.0 4.0 C 1.07 4.0 1.12 3.97 1.2 3.99 C 1.28 4.01 1.46 4.11 1.49 4.1 C 1.52 4.08 1.4 3.97 1.36 3.9 C 1.32 3.83 1.19 3.73 1.24 3.7 C 1.29 3.67 1.59 3.67 1.64 3.7 C 1.69 3.73 1.58 3.83 1.56 3.9 C 1.54 3.97 1.45 4.08 1.49 4.1 C 1.53 4.12 1.72 4.02 1.8 4.0 C 1.88 3.98 1.93 4.0 2.0 4.0 C 2.07 4.0 2.12 3.98 2.2 4.0 C 2.28 4.01 2.47 4.11 2.5 4.09 C 2.53 4.07 2.44 3.96 2.4 3.89 C 2.36 3.82 2.24 3.72 2.29 3.69 C 2.34 3.66 2.64 3.66 2.69 3.69 C 2.74 3.72 2.63 3.82 2.6 3.89 C 2.57 3.96 2.47 4.07 2.5 4.09 C 2.53 4.11 2.72 4.03 2.8 4.02 C 2.88 4.0 2.93 4.01 3.0 4.0 C 3.07 3.99 3.12 4.0 3.2 3.98 C 3.28 3.96 3.47 3.85 3.5 3.86 C 3.53 3.87 3.42 3.99 3.38 4.06 C 3.34 4.13 3.2 4.23 3.25 4.26 C 3.3 4.29 3.6 4.29 3.65 4.26 C 3.7 4.23 3.6 4.13 3.58 4.06 C 3.56 3.99 3.46 3.86 3.5 3.86 C 3.54 3.86 3.72 4.01 3.8 4.03 C 3.88 4.05 3.93 4.01 4.0 4.0 C 4.07 3.99 4.12 3.99 4.2 3.97 C 4.28 3.95 4.45 3.86 4.48 3.88 C 4.51 3.9 4.43 4.01 4.4 4.08 C 4.38 4.15 4.28 4.25 4.33 4.28 C 4.38 4.31 4.69 4.31 4.73 4.28 C 4.78 4.25 4.64 4.15 4.6 4.08 C 4.56 4.01 4.45 3.9 4.48 3.88 C 4.51 3.86 4.71 3.96 4.8 3.98 C 4.89 4.0 4.93 3.99 5.0 4.0 " class="horizontal" fill="none" stroke="black" stroke-width="0.01"/>
  <path d="M 0,5 L 5,5 " class="horizontal" fill="none" stroke="black" stroke-width="0.01"/>
  <path d="M 0,0 L 0,5 " class="vertical" fill="none" stroke="black" stroke-width="0.01"/>
  <path d="M 1.0,0.0 C 1.01 0.07 1.05 0.12 1.03 0.2 C 1.01 0.28 0.86 0.45 0.86 0.48 C 0.86 0.51 0.99 0.41 1.06 0.38 C 1.13 0.35 1.23 0.23 1.26 0.28 C 1.29 0.33 1.29 0.63 1.26 0.68 C 1.23 0.73 1.13 0.61 1.06 0.58 C 0.99 0.55 0.86 0.44 0.86 0.48 C 0.86 0.52 1.01 0.71 1.03 0.8 C 1.05 0.89 1.01 0.93 1.0 1.0 C 0.99 1.07 0.95 1.11 0.97 1.2 C 0.99 1.29 1.12 1.5 1.11 1.54 C 1.1 1.58 0.98 1.47 0.91 1.43 C 0.84 1.39 0.74 1.27 0.71 1.32 C 0.68 1.37 0.68 1.67 0.71 1.72 C 0.74 1.77 0.84 1.66 0.91 1.63 C 0.98 1.6 1.1 1.51 1.11 1.54 C 1.12 1.57 1.02 1.72 1.0 1.8 C 0.98 1.88 1.0 1.93 1.0 2.0 C 1.0 2.07 0.98 2.11 1.0 2.2 C 1.02 2.29 1.13 2.48 1.12 2.52 C 1.11 2.56 0.99 2.45 0.92 2.42 C 0.85 2.39 0.75 2.27 0.72 2.32 C 0.69 2.37 0.69 2.67 0.72 2.72 C 0.75 2.77 0.85 2.65 0.92 2.62 C 0.99 2.59 1.11 2.49 1.12 2.52 C 1.13 2.55 1.02 2.72 1.0 2.8 C 0.98 2.88 1.0 2.93 1.0 3.0 C 1.0 3.07 1.01 3.12 1.0 3.2 C 0.99 3.28 0.91 3.46 0.93 3.5 C 0.95 3.54 1.06 3.44 1.13 3.42 C 1.2 3.4 1.3 3.3 1.33 3.35 C 1.36 3.4 1.36 3.7 1.33 3.75 C 1.3 3.8 1.2 3.66 1.13 3.62 C 1.06 3.58 0.95 3.47 0.93 3.5 C 0.91 3.53 1.01 3.72 1.02 3.8 C 1.03 3.88 1.01 3.93 1.0 4.0 C 0.99 4.07 1.0 4.11 0.98 4.2 C 0.96 4.29 0.86 4.52 0.87 4.56 C 0.88 4.6 1.0 4.47 1.07 4.42 C 1.14 4.37 1.24 4.24 1.27 4.28 C 1.3 4.32 1.3 4.62 1.27 4.68 C 1.24 4.74 1.14 4.64 1.07 4.62 C 1.0 4.6 0.89 4.53 0.87 4.56 C 0.85 4.59 0.95 4.73 0.97 4.8 C 0.99 4.87 0.99 4.93 1.0 5.0 " class="vertical" fill="none" stroke="black" stroke-width="0.01"/>
  <path d="M 2.0,0.0 C 1.99 0.07 1.98 0.13 1.96 0.2 C 1.94 0.27 1.84 0.4 1.86 0.43 C 1.88 0.46 1.99 0.38 2.06 0.36 C 2.13 0.34 2.23 0.24 2.26 0.29 C 2.29 0.34 2.29 0.64 2.26 0.69 C 2.23 0.74 2.13 0.6 2.06 0.56 C 1.99 0.52 1.88 0.39 1.86 0.43 C 1.85 0.47 1.95 0.7 1.97 0.8 C 1.99 0.9 1.99 0.93 2.0 1.0 C 2.01 1.07 2.05 1.12 2.03 1.2 C 2.01 1.28 1.86 1.45 1.86 1.48 C 1.87 1.51 1.99 1.41 2.06 1.38 C 2.13 1.34 2.23 1.22 2.26 1.27 C 2.29 1.32 2.29 1.62 2.26 1.67 C 2.23 1.72 2.13 1.61 2.06 1.58 C 1.99 1.55 1.86 1.44 1.86 1.48 C 1.86 1.52 2.02 1.71 2.04 1.8 C 2.06 1.89 2.01 1.93 2.0 2.0 C 1.99 2.07 1.94 2.11 1.96 2.2 C 1.98 2.29 2.13 2.48 2.13 2.52 C 2.12 2.56 2.0 2.45 1.93 2.41 C 1.86 2.38 1.76 2.26 1.73 2.31 C 1.7 2.36 1.7 2.66 1.73 2.71 C 1.76 2.76 1.86 2.64 1.93 2.61 C 2.0 2.58 2.12 2.49 2.13 2.52 C 2.14 2.55 2.02 2.72 2.0 2.8 C 1.98 2.88 2.0 2.93 2.0 3.0 C 2.0 3.07 2.02 3.11 2.0 3.2 C 1.98 3.29 1.88 3.51 1.9 3.55 C 1.92 3.59 2.03 3.48 2.1 3.44 C 2.17 3.4 2.27 3.28 2.3 3.33 C 2.33 3.38 2.33 3.68 2.3 3.73 C 2.27 3.78 2.17 3.67 2.1 3.64 C 2.03 3.61 1.92 3.52 1.9 3.55 C 1.88 3.58 1.95 3.72 1.97 3.8 C 1.99 3.88 1.99 3.93 2.0 4.0 C 2.01 4.07 2.02 4.11 2.03 4.2 C 2.04 4.29 2.09 4.48 2.06 4.52 C 2.03 4.56 1.93 4.46 1.86 4.43 C 1.79 4.4 1.69 4.29 1.66 4.34 C 1.63 4.39 1.63 4.69 1.66 4.74 C 1.69 4.79 1.79 4.67 1.86 4.63 C 1.93 4.59 2.04 4.49 2.06 4.52 C 2.08 4.55 2.01 4.72 2.0 4.8 C 1.99 4.88 2.0 4.93 2.0 5.0 " class="vertical" fill="none" stroke="black" stroke-width="0.01"/>
  <path d="M 3.0,0.0 C 2.99 0.07 2.96 0.12 2.98 0.2 C 3.0 0.28 3.14 0.44 3.13 0.47 C 3.12 0.5 3.0 0.42 2.93 0.39 C 2.86 0.36 2.76 0.26 2.73 0.31 C 2.7 0.36 2.7 0.66 2.73 0.71 C 2.76 0.76 2.86 0.63 2.93 0.59 C 3.0 0.55 3.12 0.43 3.13 0.47 C 3.14 0.5 3.03 0.71 3.01 0.8 C 2.99 0.89 3.0 0.93 3.0 1.0 C 3.0 1.07 3.01 1.11 2.99 1.2 C 2.98 1.29 2.89 1.48 2.91 1.52 C 2.93 1.56 3.04 1.46 3.11 1.43 C 3.18 1.4 3.28 1.29 3.31 1.34 C 3.34 1.39 3.34 1.69 3.31 1.74 C 3.28 1.79 3.18 1.67 3.11 1.63 C 3.04 1.59 2.93 1.49 2.91 1.52 C 2.89 1.55 2.96 1.72 2.98 1.8 C 3.0 1.88 2.99 1.93 3.0 2.0 C 3.01 2.07 3.0 2.11 3.02 2.2 C 3.04 2.29 3.11 2.5 3.09 2.53 C 3.07 2.56 2.96 2.44 2.89 2.4 C 2.82 2.36 2.72 2.22 2.69 2.27 C 2.66 2.32 2.66 2.62 2.69 2.67 C 2.72 2.72 2.82 2.62 2.89 2.6 C 2.96 2.58 3.08 2.5 3.09 2.53 C 3.1 2.56 2.99 2.72 2.97 2.8 C 2.96 2.88 2.99 2.93 3.0 3.0 C 3.01 3.07 3.01 3.12 3.03 3.2 C 3.04 3.28 3.11 3.46 3.09 3.5 C 3.07 3.54 2.96 3.45 2.89 3.43 C 2.82 3.41 2.72 3.3 2.69 3.36 C 2.66 3.42 2.66 3.72 2.69 3.76 C 2.72 3.8 2.82 3.67 2.89 3.63 C 2.96 3.59 3.07 3.47 3.09 3.5 C 3.11 3.53 3.02 3.72 3.0 3.8 C 2.98 3.88 3.0 3.93 3.0 4.0 C 3.0 4.07 3.02 4.12 3.0 4.2 C 2.98 4.28 2.85 4.45 2.86 4.49 C 2.87 4.53 2.99 4.44 3.06 4.42 C 3.13 4.4 3.23 4.3 3.26 4.35 C 3.29 4.4 3.29 4.7 3.26 4.75 C 3.23 4.8 3.13 4.66 3.06 4.62 C 2.99 4.58 2.87 4.46 2.86 4.49 C 2.85 4.52 2.96 4.72 2.98 4.8 C 3.0 4.88 2.99 4.93 3.0 5.0 " class="vertical" fill="none" stroke="black" stroke-width="0.01"/>
  <path d="M 4.0,0.0 C 4.01 0.07 4.05 0.12 4.03 0.2 C 4.01 0.28 3.86 0.45 3.87 0.48 C 3.88 0.51 4.0 0.42 4.07 0.38 C 4.14 0.34 4.24 0.22 4.27 0.27 C 4.3 0.32 4.3 0.62 4.27 0.67 C 4.24 0.72 4.14 0.61 4.07 0.58 C 4.0 0.55 3.89 0.44 3.87 0.48 C 3.85 0.52 3.95 0.71 3.97 0.8 C 3.99 0.89 3.99 0.93 4.0 1.0 C 4.01 1.07 4.04 1.11 4.03 1.2 C 4.02 1.29 3.9 1.49 3.91 1.52 C 3.92 1.55 4.04 1.44 4.11 1.4 C 4.18 1.36 4.28 1.24 4.31 1.29 C 4.34 1.34 4.34 1.64 4.31 1.69 C 4.28 1.74 4.18 1.63 4.11 1.6 C 4.04 1.57 3.93 1.49 3.91 1.52 C 3.89 1.55 3.98 1.72 4.0 1.8 C 4.01 1.88 4.0 1.93 4.0 2.0 C 4.0 2.07 3.98 2.13 4.0 2.2 C 4.01 2.27 4.11 2.4 4.09 2.43 C 4.07 2.46 3.96 2.39 3.89 2.37 C 3.82 2.35 3.72 2.25 3.69 2.31 C 3.66 2.37 3.66 2.67 3.69 2.71 C 3.72 2.75 3.82 2.62 3.89 2.57 C 3.96 2.52 4.08 2.39 4.09 2.43 C 4.1 2.47 3.99 2.7 3.97 2.8 C 3.96 2.89 3.99 2.93 4.0 3.0 C 4.01 3.07 4.05 3.12 4.03 3.2 C 4.01 3.28 3.86 3.42 3.86 3.45 C 3.86 3.48 3.99 3.4 4.06 3.37 C 4.13 3.34 4.23 3.24 4.26 3.29 C 4.29 3.34 4.29 3.64 4.26 3.69 C 4.23 3.74 4.13 3.61 4.06 3.57 C 3.99 3.53 3.86 3.41 3.86 3.45 C 3.86 3.49 4.01 3.71 4.03 3.8 C 4.05 3.89 4.01 3.93 4.0 4.0 C 3.99 4.07 3.95 4.12 3.97 4.2 C 3.99 4.28 4.11 4.47 4.1 4.5 C 4.09 4.53 3.97 4.43 3.9 4.4 C 3.83 4.37 3.73 4.25 3.7 4.3 C 3.67 4.35 3.67 4.65 3.7 4.7 C 3.73 4.75 3.83 4.63 3.9 4.6 C 3.97 4.57 4.08 4.47 4.1 4.5 C 4.11 4.53 4.01 4.72 3.99 4.8 C 3.97 4.88 4.0 4.93 4.0 5.0 " class="vertical" fill="none" stroke="black" stroke-width="0.01"/>
  <path d="M 5,0 L 5,5 " class="vertical" fill="none" stroke="black" stroke-width="0.01"/>
</svg>
