<svg xmlns="http://www.w3.org/2000/svg" version="1.0" width="3840mm" height="3840mm" viewBox="0 0 3840 3840"><path fill="none" stroke="Black" stroke-width="0.01"  class="horizontal" d="M 0.0,256.0 C 51.2 247.3 114.77 220.75 97.74 271.95 C 80.71 323.15 183.11 323.15 148.94 271.95 C 114.77 220.75 204.8 258.7 256.0 256.0 C 307.2 253.3 389.16 223.17 357.59 274.37 C 326.02 325.57 428.42 325.57 408.79 274.37 C 389.16 223.17 460.8 257.18 512.0 256.0 C 563.2 254.82 642.02 225.19 616.47 276.39 C 590.93 327.59 693.33 327.59 667.67 276.39 C 642.02 225.19 716.8 251.57 768.0 256.0 C 819.2 260.43 898.81 281.36 864.75 230.16 C 830.69 178.96 933.09 178.96 915.95 230.16 C 898.81 281.36 972.8 261.37 1024.0 256.0 C 1075.2 250.63 1153.02 283.75 1118.01 232.55 C 1083.0 181.35 1185.4 181.35 1169.21 232.55 C 1153.02 283.75 1228.8 258.67 1280.0 256.0 C 1331.2 253.33 1418.26 237.14 1388.53 288.34 C 1358.79 339.54 1461.19 339.54 1439.73 288.34 C 1418.26 237.14 1484.8 254.54 1536.0 256.0 C 1587.2 257.46 1673.83 227.55 1643.72 278.75 C 1613.61 329.95 1716.01 329.95 1694.92 278.75 C 1673.83 227.55 1740.8 263.45 1792.0 256.0 C 1843.2 248.55 1918.89 290.66 1897.04 239.46 C 1875.19 188.26 1977.59 188.26 1948.24 239.46 C 1918.89 290.66 1996.8 253.56 2048.0 256.0 C 2099.2 258.44 2178.78 279.14 2152.56 227.94 C 2126.33 176.74 2228.73 176.74 2203.76 227.94 C 2178.78 279.14 2252.8 256.12 2304.0 256.0 C 2355.2 255.88 2435.64 273.06 2409.81 221.86 C 2383.98 170.66 2486.38 170.66 2461.01 221.86 C 2435.64 273.06 2508.8 251.92 2560.0 256.0 C 2611.2 260.08 2677.67 287.42 2659.44 236.22 C 2641.21 185.02 2743.61 185.02 2710.64 236.22 C 2677.67 287.42 2764.8 259.34 2816.0 256.0 C 2867.2 252.66 2945.43 234.57 2924.47 285.77 C 2903.51 336.97 3005.91 336.97 2975.67 285.77 C 2945.43 234.57 3020.8 253.86 3072.0 256.0 C 3123.2 258.14 3190.89 287.27 3170.85 236.07 C 3150.8 184.87 3253.2 184.87 3222.05 236.07 C 3190.89 287.27 3276.8 249.35 3328.0 256.0 C 3379.2 262.65 3471.51 240.14 3438.39 291.34 C 3405.28 342.54 3507.68 342.54 3489.59 291.34 C 3471.51 240.14 3532.8 262.28 3584.0 256.0 C 3635.2 249.72 3707.71 234.22 3681.99 285.42 C 3656.26 336.62 3758.66 336.62 3733.19 285.42 C 3707.71 234.22 3788.8 259.36 3840.0 256.0 M 0.0,512.0 C 51.2 502.11 113.9 534.63 97.05 483.43 C 80.2 432.23 182.6 432.23 148.25 483.43 C 113.9 534.63 204.8 516.85 256.0 512.0 C 307.2 507.15 382.41 538.65 362.42 487.45 C 342.42 436.25 444.82 436.25 413.62 487.45 C 382.41 538.65 460.8 521.73 512.0 512.0 C 563.2 502.27 637.4 543.22 612.02 492.02 C 586.64 440.82 689.04 440.82 663.22 492.02 C 637.4 543.22 716.8 502.17 768.0 512.0 C 819.2 521.83 889.43 484.16 872.28 535.36 C 855.12 586.56 957.52 586.56 923.48 535.36 C 889.43 484.16 972.8 510.56 1024.0 512.0 C 1075.2 513.44 1149.59 477.59 1126.27 528.79 C 1102.95 579.99 1205.35 579.99 1177.47 528.79 C 1149.59 477.59 1228.8 511.47 1280.0 512.0 C 1331.2 512.53 1421.65 492.32 1390.9 543.52 C 1360.15 594.72 1462.55 594.72 1442.1 543.52 C 1421.65 492.32 1484.8 511.83 1536.0 512.0 C 1587.2 512.17 1657.94 486.98 1641.72 538.18 C 1625.51 589.38 1727.91 589.38 1692.92 538.18 C 1657.94 486.98 1740.8 517.44 1792.0 512.0 C 1843.2 506.56 1921.02 534.76 1888.1 483.56 C 1855.17 432.36 1957.57 432.36 1939.3 483.56 C 1921.02 534.76 1996.8 517.28 2048.0 512.0 C 2099.2 506.72 2171.83 496.35 2152.35 547.55 C 2132.87 598.75 2235.27 598.75 2203.55 547.55 C 2171.83 496.35 2252.8 516.35 2304.0 512.0 C 2355.2 507.65 2422.79 536.56 2402.51 485.36 C 2382.23 434.16 2484.63 434.16 2453.71 485.36 C 2422.79 536.56 2508.8 507.81 2560.0 512.0 C 2611.2 516.19 2674.74 476.49 2658.01 527.69 C 2641.29 578.89 2743.69 578.89 2709.21 527.69 C 2674.74 476.49 2764.8 511.53 2816.0 512.0 C 2867.2 512.47 2958.72 479.72 2923.47 530.92 C 2888.23 582.12 2990.63 582.12 2974.67 530.92 C 2958.72 479.72 3020.8 506.99 3072.0 512.0 C 3123.2 517.01 3196.89 544.41 3178.36 493.21 C 3159.84 442.01 3262.24 442.01 3229.56 493.21 C 3196.89 544.41 3276.8 512.05 3328.0 512.0 C 3379.2 511.95 3451.19 530.58 3435.64 479.38 C 3420.08 428.18 3522.48 428.18 3486.84 479.38 C 3451.19 530.58 3532.8 516.64 3584.0 512.0 C 3635.2 507.36 3712.62 490.23 3692.72 541.43 C 3672.83 592.63 3775.23 592.63 3743.92 541.43 C 3712.62 490.23 3788.8 510.15 3840.0 512.0 M 0.0,768.0 C 51.2 768.75 116.07 748.49 94.33 799.69 C 72.59 850.89 174.99 850.89 145.53 799.69 C 116.07 748.49 204.8 764.33 256.0 768.0 C 307.2 771.67 374.92 793.04 352.97 741.84 C 331.02 690.64 433.42 690.64 404.17 741.84 C 374.92 793.04 460.8 766.76 512.0 768.0 C 563.2 769.24 648.15 746.05 615.74 797.25 C 583.34 848.45 685.74 848.45 666.94 797.25 C 648.15 746.05 716.8 777.91 768.0 768.0 C 819.2 758.09 897.46 736.89 875.61 788.09 C 853.76 839.29 956.16 839.29 926.81 788.09 C 897.46 736.89 972.8 764.07 1024.0 768.0 C 1075.2 771.93 1139.15 787.96 1121.85 736.76 C 1104.56 685.56 1206.96 685.56 1173.05 736.76 C 1139.15 787.96 1228.8 772.26 1280.0 768.0 C 1331.2 763.74 1416.06 803.78 1392.23 752.58 C 1368.41 701.38 1470.81 701.38 1443.43 752.58 C 1416.06 803.78 1484.8 769.31 1536.0 768.0 C 1587.2 766.69 1669.0 802.59 1648.39 751.39 C 1627.77 700.19 1730.17 700.19 1699.59 751.39 C 1669.0 802.59 1740.8 761.29 1792.0 768.0 C 1843.2 774.71 1907.66 784.66 1886.24 733.46 C 1864.83 682.26 1967.23 682.26 1937.44 733.46 C 1907.66 784.66 1996.8 777.89 2048.0 768.0 C 2099.2 758.11 2180.6 783.75 2153.14 732.55 C 2125.69 681.35 2228.09 681.35 2204.34 732.55 C 2180.6 783.75 2252.8 765.75 2304.0 768.0 C 2355.2 770.25 2431.49 737.79 2396.84 788.99 C 2362.19 840.19 2464.59 840.19 2448.04 788.99 C 2431.49 737.79 2508.8 777.94 2560.0 768.0 C 2611.2 758.06 2681.77 740.58 2659.44 791.78 C 2637.12 842.98 2739.52 842.98 2710.64 791.78 C 2681.77 740.58 2764.8 777.6 2816.0 768.0 C 2867.2 758.4 2948.09 749.85 2922.1 801.05 C 2896.1 852.25 2998.5 852.25 2973.3 801.05 C 2948.09 749.85 3020.8 777.19 3072.0 768.0 C 3123.2 758.81 3219.18 742.08 3184.38 793.28 C 3149.59 844.48 3251.99 844.48 3235.58 793.28 C 3219.18 742.08 3276.8 775.13 3328.0 768.0 C 3379.2 760.87 3451.91 800.86 3431.78 749.66 C 3411.64 698.46 3514.04 698.46 3482.98 749.66 C 3451.91 800.86 3532.8 773.06 3584.0 768.0 C 3635.2 762.94 3704.23 803.73 3686.91 752.53 C 3669.59 701.33 3771.99 701.33 3738.11 752.53 C 3704.23 803.73 3788.8 764.45 3840.0 768.0 M 0.0,1024.0 C 51.2 1031.04 116.53 1003.58 96.39 1054.78 C 76.24 1105.98 178.64 1105.98 147.59 1054.78 C 116.53 1003.58 204.8 1032.96 256.0 1024.0 C 307.2 1015.04 371.87 1045.51 356.43 994.31 C 341.0 943.11 443.4 943.11 407.63 994.31 C 371.87 1045.51 460.8 1015.74 512.0 1024.0 C 563.2 1032.26 630.07 1050.19 613.41 998.99 C 596.75 947.79 699.15 947.79 664.61 998.99 C 630.07 1050.19 716.8 1029.91 768.0 1024.0 C 819.2 1018.09 895.53 1042.14 872.34 990.94 C 849.15 939.74 951.55 939.74 923.54 990.94 C 895.53 1042.14 972.8 1018.55 1024.0 1024.0 C 1075.2 1029.45 1168.24 1039.75 1133.95 988.55 C 1099.66 937.35 1202.06 937.35 1185.15 988.55 C 1168.24 1039.75 1228.8 1018.6 1280.0 1024.0 C 1331.2 1029.4 1415.16 1043.04 1386.72 991.84 C 1358.29 940.64 1460.69 940.64 1437.92 991.84 C 1415.16 1043.04 1484.8 1022.27 1536.0 1024.0 C 1587.2 1025.73 1674.78 995.52 1639.71 1046.72 C 1604.63 1097.92 1707.03 1097.92 1690.91 1046.72 C 1674.78 995.52 1740.8 1014.17 1792.0 1024.0 C 1843.2 1033.83 1924.35 1057.31 1898.92 1006.11 C 1873.49 954.91 1975.89 954.91 1950.12 1006.11 C 1924.35 1057.31 1996.8 1028.58 2048.0 1024.0 C 2099.2 1019.42 2177.05 999.47 2153.31 1050.67 C 2129.57 1101.87 2231.97 1101.87 2204.51 1050.67 C 2177.05 999.47 2252.8 1031.89 2304.0 1024.0 C 2355.2 1016.11 2422.98 1054.96 2405.58 1003.76 C 2388.18 952.56 2490.58 952.56 2456.78 1003.76 C 2422.98 1054.96 2508.8 1033.45 2560.0 1024.0 C 2611.2 1014.55 2686.91 1001.48 2664.18 1052.68 C 2641.45 1103.88 2743.85 1103.88 2715.38 1052.68 C 2686.91 1001.48 2764.8 1014.79 2816.0 1024.0 C 2867.2 1033.21 2925.87 1040.09 2908.27 988.89 C 2890.68 937.69 2993.08 937.69 2959.47 988.89 C 2925.87 1040.09 3020.8 1023.99 3072.0 1024.0 C 3123.2 1024.01 3217.32 1007.33 3181.66 1058.53 C 3145.99 1109.73 3248.39 1109.73 3232.86 1058.53 C 3217.32 1007.33 3276.8 1034.22 3328.0 1024.0 C 3379.2 1013.78 3453.85 995.04 3426.66 1046.24 C 3399.47 1097.44 3501.87 1097.44 3477.86 1046.24 C 3453.85 995.04 3532.8 1023.75 3584.0 1024.0 C 3635.2 1024.25 3725.34 1047.77 3693.98 996.57 C 3662.62 945.37 3765.02 945.37 3745.18 996.57 C 3725.34 1047.77 3788.8 1016.78 3840.0 1024.0 M 0.0,1280.0 C 51.2 1284.15 125.2 1259.44 94.75 1310.64 C 64.31 1361.84 166.71 1361.84 145.95 1310.64 C 125.2 1259.44 204.8 1276.45 256.0 1280.0 C 307.2 1283.55 389.68 1307.29 366.31 1256.09 C 342.93 1204.89 445.33 1204.89 417.51 1256.09 C 389.68 1307.29 460.8 1287.77 512.0 1280.0 C 563.2 1272.23 631.71 1306.53 605.8 1255.33 C 579.89 1204.13 682.29 1204.13 657.0 1255.33 C 631.71 1306.53 716.8 1283.76 768.0 1280.0 C 819.2 1276.24 885.08 1259.78 867.42 1310.98 C 849.75 1362.18 952.15 1362.18 918.62 1310.98 C 885.08 1259.78 972.8 1282.7 1024.0 1280.0 C 1075.2 1277.3 1139.14 1307.15 1117.41 1255.95 C 1095.68 1204.75 1198.08 1204.75 1168.61 1255.95 C 1139.14 1307.15 1228.8 1271.4 1280.0 1280.0 C 1331.2 1288.6 1414.54 1312.59 1380.58 1261.39 C 1346.62 1210.19 1449.02 1210.19 1431.78 1261.39 C 1414.54 1312.59 1484.8 1271.75 1536.0 1280.0 C 1587.2 1288.25 1668.26 1253.01 1637.32 1304.21 C 1606.39 1355.41 1708.79 1355.41 1688.52 1304.21 C 1668.26 1253.01 1740.8 1289.95 1792.0 1280.0 C 1843.2 1270.05 1913.86 1305.31 1886.49 1254.11 C 1859.12 1202.91 1961.52 1202.91 1937.69 1254.11 C 1913.86 1305.31 1996.8 1270.87 2048.0 1280.0 C 2099.2 1289.13 2187.69 1258.08 2155.67 1309.28 C 2123.64 1360.48 2226.04 1360.48 2206.87 1309.28 C 2187.69 1258.08 2252.8 1275.62 2304.0 1280.0 C 2355.2 1284.38 2430.76 1263.83 2399.24 1315.03 C 2367.73 1366.23 2470.13 1366.23 2450.44 1315.03 C 2430.76 1263.83 2508.8 1274.4 2560.0 1280.0 C 2611.2 1285.6 2697.1 1300.82 2667.08 1249.62 C 2637.07 1198.42 2739.47 1198.42 2718.28 1249.62 C 2697.1 1300.82 2764.8 1283.35 2816.0 1280.0 C 2867.2 1276.65 2959.23 1297.07 2924.75 1245.87 C 2890.28 1194.67 2992.68 1194.67 2975.95 1245.87 C 2959.23 1297.07 3020.8 1283.56 3072.0 1280.0 C 3123.2 1276.44 3207.25 1310.62 3183.83 1259.42 C 3160.41 1208.22 3262.81 1208.22 3235.03 1259.42 C 3207.25 1310.62 3276.8 1269.76 3328.0 1280.0 C 3379.2 1290.24 3447.59 1257.76 3431.4 1308.96 C 3415.2 1360.16 3517.6 1360.16 3482.6 1308.96 C 3447.59 1257.76 3532.8 1279.93 3584.0 1280.0 C 3635.2 1280.07 3707.15 1255.34 3677.84 1306.54 C 3648.53 1357.74 3750.93 1357.74 3729.04 1306.54 C 3707.15 1255.34 3788.8 1282.94 3840.0 1280.0 M 0.0,1536.0 C 51.2 1535.25 132.58 1510.89 99.85 1562.09 C 67.13 1613.29 169.53 1613.29 151.05 1562.09 C 132.58 1510.89 204.8 1544.4 256.0 1536.0 C 307.2 1527.6 377.7 1501.72 353.44 1552.92 C 329.18 1604.12 431.58 1604.12 404.64 1552.92 C 377.7 1501.72 460.8 1536.18 512.0 1536.0 C 563.2 1535.82 652.1 1553.16 624.09 1501.96 C 596.09 1450.76 698.49 1450.76 675.29 1501.96 C 652.1 1553.16 716.8 1528.34 768.0 1536.0 C 819.2 1543.66 887.06 1565.27 864.78 1514.07 C 842.49 1462.87 944.89 1462.87 915.98 1514.07 C 887.06 1565.27 972.8 1543.83 1024.0 1536.0 C 1075.2 1528.17 1157.02 1507.26 1126.02 1558.46 C 1095.01 1609.66 1197.41 1609.66 1177.22 1558.46 C 1157.02 1507.26 1228.8 1537.94 1280.0 1536.0 C 1331.2 1534.06 1398.01 1505.05 1379.06 1556.25 C 1360.11 1607.45 1462.51 1607.45 1430.26 1556.25 C 1398.01 1505.05 1484.8 1542.84 1536.0 1536.0 C 1587.2 1529.16 1648.72 1511.84 1632.22 1563.04 C 1615.72 1614.24 1718.12 1614.24 1683.42 1563.04 C 1648.72 1511.84 1740.8 1542.03 1792.0 1536.0 C 1843.2 1529.97 1920.64 1562.14 1896.4 1510.94 C 1872.17 1459.74 1974.57 1459.74 1947.6 1510.94 C 1920.64 1562.14 1996.8 1536.48 2048.0 1536.0 C 2099.2 1535.52 2163.18 1553.34 2147.68 1502.14 C 2132.18 1450.94 2234.58 1450.94 2198.88 1502.14 C 2163.18 1553.34 2252.8 1536.52 2304.0 1536.0 C 2355.2 1535.48 2443.25 1563.61 2410.29 1512.41 C 2377.32 1461.21 2479.72 1461.21 2461.49 1512.41 C 2443.25 1563.61 2508.8 1542.37 2560.0 1536.0 C 2611.2 1529.63 2699.57 1567.43 2667.02 1516.23 C 2634.47 1465.03 2736.87 1465.03 2718.22 1516.23 C 2699.57 1567.43 2764.8 1529.77 2816.0 1536.0 C 2867.2 1542.23 2958.43 1552.86 2924.45 1501.66 C 2890.46 1450.46 2992.86 1450.46 2975.65 1501.66 C 2958.43 1552.86 3020.8 1544.57 3072.0 1536.0 C 3123.2 1527.43 3205.07 1560.81 3181.71 1509.61 C 3158.34 1458.41 3260.74 1458.41 3232.91 1509.61 C 3205.07 1560.81 3276.8 1532.51 3328.0 1536.0 C 3379.2 1539.49 3458.03 1501.8 3430.03 1553.0 C 3402.02 1604.2 3504.42 1604.2 3481.23 1553.0 C 3458.03 1501.8 3532.8 1528.76 3584.0 1536.0 C 3635.2 1543.24 3710.63 1564.5 3690.36 1513.3 C 3670.09 1462.1 3772.49 1462.1 3741.56 1513.3 C 3710.63 1564.5 3788.8 1544.42 3840.0 1536.0 M 0.0,1792.0 C 51.2 1790.01 134.67 1813.79 104.27 1762.59 C 73.87 1711.39 176.27 1711.39 155.47 1762.59 C 134.67 1813.79 204.8 1789.83 256.0 1792.0 C 307.2 1794.17 388.85 1811.77 358.02 1760.57 C 327.18 1709.37 429.58 1709.37 409.22 1760.57 C 388.85 1811.77 460.8 1792.2 512.0 1792.0 C 563.2 1791.8 649.19 1758.36 615.62 1809.56 C 582.05 1860.76 684.45 1860.76 666.82 1809.56 C 649.19 1758.36 716.8 1787.39 768.0 1792.0 C 819.2 1796.61 884.69 1820.58 863.41 1769.38 C 842.13 1718.18 944.53 1718.18 914.61 1769.38 C 884.69 1820.58 972.8 1784.79 1024.0 1792.0 C 1075.2 1799.21 1168.26 1824.76 1134.39 1773.56 C 1100.51 1722.36 1202.91 1722.36 1185.59 1773.56 C 1168.26 1824.76 1228.8 1784.03 1280.0 1792.0 C 1331.2 1799.97 1411.84 1758.8 1385.35 1810.0 C 1358.86 1861.2 1461.26 1861.2 1436.55 1810.0 C 1411.84 1758.8 1484.8 1796.6 1536.0 1792.0 C 1587.2 1787.4 1683.05 1809.56 1648.26 1758.36 C 1613.48 1707.16 1715.88 1707.16 1699.46 1758.36 C 1683.05 1809.56 1740.8 1793.74 1792.0 1792.0 C 1843.2 1790.26 1925.74 1826.74 1899.0 1775.54 C 1872.27 1724.34 1974.67 1724.34 1950.2 1775.54 C 1925.74 1826.74 1996.8 1792.43 2048.0 1792.0 C 2099.2 1791.57 2182.34 1768.44 2154.22 1819.64 C 2126.1 1870.84 2228.5 1870.84 2205.42 1819.64 C 2182.34 1768.44 2252.8 1788.48 2304.0 1792.0 C 2355.2 1795.52 2437.8 1826.8 2404.88 1775.6 C 2371.96 1724.4 2474.36 1724.4 2456.08 1775.6 C 2437.8 1826.8 2508.8 1782.31 2560.0 1792.0 C 2611.2 1801.69 2707.73 1818.7 2672.45 1767.5 C 2637.16 1716.3 2739.56 1716.3 2723.65 1767.5 C 2707.73 1818.7 2764.8 1783.61 2816.0 1792.0 C 2867.2 1800.39 2954.23 1826.65 2923.18 1775.45 C 2892.13 1724.25 2994.53 1724.25 2974.38 1775.45 C 2954.23 1826.65 3020.8 1796.12 3072.0 1792.0 C 3123.2 1787.88 3186.38 1762.51 3169.81 1813.71 C 3153.24 1864.91 3255.64 1864.91 3221.01 1813.71 C 3186.38 1762.51 3276.8 1793.55 3328.0 1792.0 C 3379.2 1790.45 3460.49 1827.25 3437.7 1776.05 C 3414.91 1724.85 3517.31 1724.85 3488.9 1776.05 C 3460.49 1827.25 3532.8 1783.87 3584.0 1792.0 C 3635.2 1800.13 3707.51 1824.92 3690.75 1773.72 C 3673.99 1722.52 3776.39 1722.52 3741.95 1773.72 C 3707.51 1824.92 3788.8 1788.19 3840.0 1792.0 M 0.0,2048.0 C 51.2 2042.82 129.74 2020.06 106.95 2071.26 C 84.16 2122.46 186.56 2122.46 158.15 2071.26 C 129.74 2020.06 204.8 2056.46 256.0 2048.0 C 307.2 2039.54 383.36 2077.86 360.88 2026.66 C 338.39 1975.46 440.79 1975.46 412.08 2026.66 C 383.36 2077.86 460.8 2042.84 512.0 2048.0 C 563.2 2053.16 627.27 2067.3 606.33 2016.1 C 585.38 1964.9 687.78 1964.9 657.53 2016.1 C 627.27 2067.3 716.8 2056.19 768.0 2048.0 C 819.2 2039.81 879.82 2066.15 863.94 2014.95 C 848.05 1963.75 950.45 1963.75 915.14 2014.95 C 879.82 2066.15 972.8 2057.89 1024.0 2048.0 C 1075.2 2038.11 1153.43 2026.67 1121.09 2077.87 C 1088.75 2129.07 1191.15 2129.07 1172.29 2077.87 C 1153.43 2026.67 1228.8 2048.65 1280.0 2048.0 C 1331.2 2047.35 1414.19 2063.85 1380.23 2012.65 C 1346.27 1961.45 1448.67 1961.45 1431.43 2012.65 C 1414.19 2063.85 1484.8 2053.54 1536.0 2048.0 C 1587.2 2042.46 1651.19 2063.72 1632.73 2012.52 C 1614.27 1961.32 1716.67 1961.32 1683.93 2012.52 C 1651.19 2063.72 1740.8 2048.53 1792.0 2048.0 C 1843.2 2047.47 1921.04 2065.92 1894.47 2014.72 C 1867.9 1963.52 1970.3 1963.52 1945.67 2014.72 C 1921.04 2065.92 1996.8 2038.09 2048.0 2048.0 C 2099.2 2057.91 2188.79 2073.23 2157.77 2022.03 C 2126.76 1970.83 2229.16 1970.83 2208.97 2022.03 C 2188.79 2073.23 2252.8 2053.69 2304.0 2048.0 C 2355.2 2042.31 2431.98 2081.61 2416.15 2030.41 C 2400.33 1979.21 2502.73 1979.21 2467.35 2030.41 C 2431.98 2081.61 2508.8 2042.03 2560.0 2048.0 C 2611.2 2053.97 2694.01 2063.49 2663.93 2012.29 C 2633.85 1961.09 2736.25 1961.09 2715.13 2012.29 C 2694.01 2063.49 2764.8 2040.03 2816.0 2048.0 C 2867.2 2055.97 2934.96 2022.55 2917.1 2073.75 C 2899.23 2124.95 3001.63 2124.95 2968.3 2073.75 C 2934.96 2022.55 3020.8 2039.43 3072.0 2048.0 C 3123.2 2056.57 3217.6 2026.45 3183.63 2077.65 C 3149.66 2128.85 3252.06 2128.85 3234.83 2077.65 C 3217.6 2026.45 3276.8 2039.1 3328.0 2048.0 C 3379.2 2056.9 3439.31 2079.55 3422.21 2028.35 C 3405.1 1977.15 3507.5 1977.15 3473.41 2028.35 C 3439.31 2079.55 3532.8 2041.77 3584.0 2048.0 C 3635.2 2054.23 3714.03 2082.67 3692.56 2031.47 C 3671.09 1980.27 3773.49 1980.27 3743.76 2031.47 C 3714.03 2082.67 3788.8 2043.27 3840.0 2048.0 M 0.0,2304.0 C 51.2 2313.81 128.71 2274.96 105.62 2326.16 C 82.52 2377.36 184.92 2377.36 156.82 2326.16 C 128.71 2274.96 204.8 2307.76 256.0 2304.0 C 307.2 2300.24 387.93 2274.7 352.94 2325.9 C 317.95 2377.1 420.35 2377.1 404.14 2325.9 C 387.93 2274.7 460.8 2299.67 512.0 2304.0 C 563.2 2308.33 626.62 2273.12 604.92 2324.32 C 583.23 2375.52 685.63 2375.52 656.12 2324.32 C 626.62 2273.12 716.8 2296.78 768.0 2304.0 C 819.2 2311.22 894.11 2329.98 867.98 2278.78 C 841.86 2227.58 944.26 2227.58 919.18 2278.78 C 894.11 2329.98 972.8 2297.73 1024.0 2304.0 C 1075.2 2310.27 1152.9 2337.2 1117.54 2286.0 C 1082.19 2234.8 1184.59 2234.8 1168.74 2286.0 C 1152.9 2337.2 1228.8 2310.81 1280.0 2304.0 C 1331.2 2297.19 1401.27 2321.59 1379.49 2270.39 C 1357.71 2219.19 1460.11 2219.19 1430.69 2270.39 C 1401.27 2321.59 1484.8 2303.46 1536.0 2304.0 C 1587.2 2304.54 1669.27 2336.4 1646.54 2285.2 C 1623.82 2234.0 1726.22 2234.0 1697.74 2285.2 C 1669.27 2336.4 1740.8 2312.54 1792.0 2304.0 C 1843.2 2295.46 1919.46 2273.45 1886.02 2324.65 C 1852.57 2375.85 1954.97 2375.85 1937.22 2324.65 C 1919.46 2273.45 1996.8 2309.92 2048.0 2304.0 C 2099.2 2298.08 2183.34 2325.35 2155.48 2274.15 C 2127.62 2222.95 2230.02 2222.95 2206.68 2274.15 C 2183.34 2325.35 2252.8 2298.52 2304.0 2304.0 C 2355.2 2309.48 2442.75 2332.05 2407.45 2280.85 C 2372.16 2229.65 2474.56 2229.65 2458.65 2280.85 C 2442.75 2332.05 2508.8 2296.47 2560.0 2304.0 C 2611.2 2311.53 2682.21 2339.82 2659.46 2288.62 C 2636.7 2237.42 2739.1 2237.42 2710.66 2288.62 C 2682.21 2339.82 2764.8 2306.16 2816.0 2304.0 C 2867.2 2301.84 2948.15 2321.63 2912.66 2270.43 C 2877.16 2219.23 2979.56 2219.23 2963.86 2270.43 C 2948.15 2321.63 3020.8 2294.89 3072.0 2304.0 C 3123.2 2313.11 3208.83 2326.31 3175.8 2275.11 C 3142.76 2223.91 3245.16 2223.91 3227.0 2275.11 C 3208.83 2326.31 3276.8 2305.02 3328.0 2304.0 C 3379.2 2302.98 3447.31 2326.58 3421.48 2275.38 C 3395.66 2224.18 3498.06 2224.18 3472.68 2275.38 C 3447.31 2326.58 3532.8 2300.31 3584.0 2304.0 C 3635.2 2307.69 3704.45 2288.62 3688.28 2339.82 C 3672.11 2391.02 3774.51 2391.02 3739.48 2339.82 C 3704.45 2288.62 3788.8 2296.35 3840.0 2304.0 M 0.0,2560.0 C 51.2 2562.74 122.79 2586.78 103.88 2535.58 C 84.97 2484.38 187.37 2484.38 155.08 2535.58 C 122.79 2586.78 204.8 2562.71 256.0 2560.0 C 307.2 2557.29 375.07 2588.3 353.48 2537.1 C 331.9 2485.9 434.3 2485.9 404.68 2537.1 C 375.07 2588.3 460.8 2557.01 512.0 2560.0 C 563.2 2562.99 652.9 2580.88 620.1 2529.68 C 587.3 2478.48 689.7 2478.48 671.3 2529.68 C 652.9 2580.88 716.8 2564.51 768.0 2560.0 C 819.2 2555.49 897.93 2594.96 864.93 2543.76 C 831.93 2492.56 934.33 2492.56 916.13 2543.76 C 897.93 2594.96 972.8 2556.1 1024.0 2560.0 C 1075.2 2563.9 1133.01 2530.35 1117.29 2581.55 C 1101.57 2632.75 1203.97 2632.75 1168.49 2581.55 C 1133.01 2530.35 1228.8 2553.5 1280.0 2560.0 C 1331.2 2566.5 1414.64 2594.2 1383.48 2543.0 C 1352.32 2491.8 1454.72 2491.8 1434.68 2543.0 C 1414.64 2594.2 1484.8 2550.98 1536.0 2560.0 C 1587.2 2569.02 1678.61 2542.46 1648.18 2593.66 C 1617.75 2644.86 1720.15 2644.86 1699.38 2593.66 C 1678.61 2542.46 1740.8 2553.12 1792.0 2560.0 C 1843.2 2566.88 1916.63 2581.76 1898.33 2530.56 C 1880.02 2479.36 1982.42 2479.36 1949.53 2530.56 C 1916.63 2581.76 1996.8 2552.67 2048.0 2560.0 C 2099.2 2567.33 2178.11 2580.95 2143.23 2529.75 C 2108.35 2478.55 2210.75 2478.55 2194.43 2529.75 C 2178.11 2580.95 2252.8 2559.25 2304.0 2560.0 C 2355.2 2560.75 2430.66 2537.65 2407.47 2588.85 C 2384.28 2640.05 2486.68 2640.05 2458.67 2588.85 C 2430.66 2537.65 2508.8 2559.12 2560.0 2560.0 C 2611.2 2560.88 2680.27 2580.42 2652.21 2529.22 C 2624.15 2478.02 2726.55 2478.02 2703.41 2529.22 C 2680.27 2580.42 2764.8 2550.46 2816.0 2560.0 C 2867.2 2569.54 2939.15 2542.83 2922.99 2594.03 C 2906.83 2645.23 3009.23 2645.23 2974.19 2594.03 C 2939.15 2542.83 3020.8 2567.71 3072.0 2560.0 C 3123.2 2552.29 3201.12 2581.33 3173.05 2530.13 C 3144.97 2478.93 3247.37 2478.93 3224.25 2530.13 C 3201.12 2581.33 3276.8 2565.25 3328.0 2560.0 C 3379.2 2554.75 3462.31 2526.23 3439.63 2577.43 C 3416.96 2628.63 3519.36 2628.63 3490.83 2577.43 C 3462.31 2526.23 3532.8 2563.79 3584.0 2560.0 C 3635.2 2556.21 3716.92 2584.47 3684.99 2533.27 C 3653.05 2482.07 3755.45 2482.07 3736.19 2533.27 C 3716.92 2584.47 3788.8 2554.66 3840.0 2560.0 M 0.0,2816.0 C 51.2 2816.7 122.87 2781.71 102.36 2832.91 C 81.86 2884.11 184.26 2884.11 153.56 2832.91 C 122.87 2781.71 204.8 2805.81 256.0 2816.0 C 307.2 2826.19 373.07 2847.09 349.69 2795.89 C 326.3 2744.69 428.7 2744.69 400.89 2795.89 C 373.07 2847.09 460.8 2824.48 512.0 2816.0 C 563.2 2807.52 650.96 2785.49 621.48 2836.69 C 592.0 2887.89 694.4 2887.89 672.68 2836.69 C 650.96 2785.49 716.8 2818.41 768.0 2816.0 C 819.2 2813.59 887.94 2793.42 869.98 2844.62 C 852.02 2895.82 954.42 2895.82 921.18 2844.62 C 887.94 2793.42 972.8 2823.16 1024.0 2816.0 C 1075.2 2808.84 1154.4 2837.75 1128.09 2786.55 C 1101.78 2735.35 1204.18 2735.35 1179.29 2786.55 C 1154.4 2837.75 1228.8 2813.53 1280.0 2816.0 C 1331.2 2818.47 1424.02 2833.25 1392.14 2782.05 C 1360.27 2730.85 1462.67 2730.85 1443.34 2782.05 C 1424.02 2833.25 1484.8 2807.42 1536.0 2816.0 C 1587.2 2824.58 1658.58 2791.05 1630.68 2842.25 C 1602.78 2893.45 1705.18 2893.45 1681.88 2842.25 C 1658.58 2791.05 1740.8 2815.28 1792.0 2816.0 C 1843.2 2816.72 1919.59 2786.09 1898.98 2837.29 C 1878.37 2888.49 1980.77 2888.49 1950.18 2837.29 C 1919.59 2786.09 1996.8 2816.37 2048.0 2816.0 C 2099.2 2815.63 2186.86 2848.0 2158.85 2796.8 C 2130.83 2745.6 2233.23 2745.6 2210.05 2796.8 C 2186.86 2848.0 2252.8 2824.87 2304.0 2816.0 C 2355.2 2807.13 2430.34 2832.86 2405.79 2781.66 C 2381.25 2730.46 2483.65 2730.46 2456.99 2781.66 C 2430.34 2832.86 2508.8 2817.79 2560.0 2816.0 C 2611.2 2814.21 2679.93 2788.59 2664.31 2839.79 C 2648.69 2890.99 2751.09 2890.99 2715.51 2839.79 C 2679.93 2788.59 2764.8 2825.63 2816.0 2816.0 C 2867.2 2806.37 2934.98 2842.8 2916.33 2791.6 C 2897.68 2740.4 3000.08 2740.4 2967.53 2791.6 C 2934.98 2842.8 3020.8 2812.23 3072.0 2816.0 C 3123.2 2819.77 3201.97 2795.84 3184.38 2847.04 C 3166.79 2898.24 3269.19 2898.24 3235.58 2847.04 C 3201.97 2795.84 3276.8 2812.03 3328.0 2816.0 C 3379.2 2819.97 3457.24 2850.89 3428.41 2799.69 C 3399.59 2748.49 3501.99 2748.49 3479.61 2799.69 C 3457.24 2850.89 3532.8 2818.83 3584.0 2816.0 C 3635.2 2813.17 3699.54 2842.9 3679.36 2791.7 C 3659.18 2740.5 3761.58 2740.5 3730.56 2791.7 C 3699.54 2842.9 3788.8 2824.69 3840.0 2816.0 M 0.0,3072.0 C 51.2 3076.84 114.37 3090.85 93.31 3039.65 C 72.25 2988.45 174.65 2988.45 144.51 3039.65 C 114.37 3090.85 204.8 3080.47 256.0 3072.0 C 307.2 3063.53 393.4 3089.34 368.52 3038.14 C 343.64 2986.94 446.04 2986.94 419.72 3038.14 C 393.4 3089.34 460.8 3061.99 512.0 3072.0 C 563.2 3082.01 647.03 3099.8 614.87 3048.6 C 582.71 2997.4 685.11 2997.4 666.07 3048.6 C 647.03 3099.8 716.8 3070.13 768.0 3072.0 C 819.2 3073.87 888.63 3053.38 866.34 3104.58 C 844.06 3155.78 946.46 3155.78 917.54 3104.58 C 888.63 3053.38 972.8 3080.39 1024.0 3072.0 C 1075.2 3063.61 1161.44 3037.83 1128.01 3089.03 C 1094.57 3140.23 1196.97 3140.23 1179.21 3089.03 C 1161.44 3037.83 1228.8 3062.52 1280.0 3072.0 C 1331.2 3081.48 1414.54 3047.38 1382.44 3098.58 C 1350.34 3149.78 1452.74 3149.78 1433.64 3098.58 C 1414.54 3047.38 1484.8 3062.04 1536.0 3072.0 C 1587.2 3081.96 1672.49 3103.74 1640.39 3052.54 C 1608.29 3001.34 1710.69 3001.34 1691.59 3052.54 C 1672.49 3103.74 1740.8 3063.1 1792.0 3072.0 C 1843.2 3080.9 1929.87 3037.75 1903.21 3088.95 C 1876.55 3140.15 1978.95 3140.15 1954.41 3088.95 C 1929.87 3037.75 1996.8 3077.83 2048.0 3072.0 C 2099.2 3066.17 2182.86 3091.43 2149.05 3040.23 C 2115.23 2989.03 2217.63 2989.03 2200.25 3040.23 C 2182.86 3091.43 2252.8 3071.89 2304.0 3072.0 C 2355.2 3072.11 2422.44 3106.53 2404.49 3055.33 C 2386.53 3004.13 2488.93 3004.13 2455.69 3055.33 C 2422.44 3106.53 2508.8 3067.58 2560.0 3072.0 C 2611.2 3076.42 2696.71 3087.5 2669.52 3036.3 C 2642.32 2985.1 2744.72 2985.1 2720.72 3036.3 C 2696.71 3087.5 2764.8 3077.2 2816.0 3072.0 C 2867.2 3066.8 2945.35 3046.21 2925.98 3097.41 C 2906.61 3148.61 3009.01 3148.61 2977.18 3097.41 C 2945.35 3046.21 3020.8 3069.81 3072.0 3072.0 C 3123.2 3074.19 3214.64 3098.07 3182.3 3046.87 C 3149.97 2995.67 3252.37 2995.67 3233.5 3046.87 C 3214.64 3098.07 3276.8 3062.9 3328.0 3072.0 C 3379.2 3081.1 3460.59 3098.79 3427.9 3047.59 C 3395.21 2996.39 3497.61 2996.39 3479.1 3047.59 C 3460.59 3098.79 3532.8 3078.03 3584.0 3072.0 C 3635.2 3065.97 3710.69 3044.53 3684.83 3095.73 C 3658.97 3146.93 3761.37 3146.93 3736.03 3095.73 C 3710.69 3044.53 3788.8 3082.23 3840.0 3072.0 M 0.0,3328.0 C 51.2 3337.54 125.03 3295.11 97.77 3346.31 C 70.51 3397.51 172.91 3397.51 148.97 3346.31 C 125.03 3295.11 204.8 3323.86 256.0 3328.0 C 307.2 3332.14 388.21 3358.22 353.71 3307.02 C 319.2 3255.82 421.6 3255.82 404.91 3307.02 C 388.21 3358.22 460.8 3334.18 512.0 3328.0 C 563.2 3321.82 637.1 3293.0 604.87 3344.2 C 572.64 3395.4 675.04 3395.4 656.07 3344.2 C 637.1 3293.0 716.8 3336.33 768.0 3328.0 C 819.2 3319.67 893.76 3309.79 863.94 3360.99 C 834.12 3412.19 936.52 3412.19 915.14 3360.99 C 893.76 3309.79 972.8 3336.2 1024.0 3328.0 C 1075.2 3319.8 1156.63 3297.16 1123.84 3348.36 C 1091.06 3399.56 1193.46 3399.56 1175.04 3348.36 C 1156.63 3297.16 1228.8 3320.41 1280.0 3328.0 C 1331.2 3335.59 1408.34 3305.71 1376.07 3356.91 C 1343.81 3408.11 1446.21 3408.11 1427.27 3356.91 C 1408.34 3305.71 1484.8 3328.67 1536.0 3328.0 C 1587.2 3327.33 1667.11 3361.81 1637.72 3310.61 C 1608.32 3259.41 1710.72 3259.41 1688.92 3310.61 C 1667.11 3361.81 1740.8 3320.11 1792.0 3328.0 C 1843.2 3335.89 1925.95 3353.04 1902.47 3301.84 C 1878.98 3250.64 1981.38 3250.64 1953.67 3301.84 C 1925.95 3353.04 1996.8 3318.29 2048.0 3328.0 C 2099.2 3337.71 2185.01 3362.39 2157.78 3311.19 C 2130.56 3259.99 2232.96 3259.99 2208.98 3311.19 C 2185.01 3362.39 2252.8 3330.26 2304.0 3328.0 C 2355.2 3325.74 2431.85 3345.03 2402.13 3293.83 C 2372.41 3242.63 2474.81 3242.63 2453.33 3293.83 C 2431.85 3345.03 2508.8 3330.64 2560.0 3328.0 C 2611.2 3325.36 2674.87 3343.47 2656.38 3292.27 C 2637.88 3241.07 2740.28 3241.07 2707.58 3292.27 C 2674.87 3343.47 2764.8 3332.79 2816.0 3328.0 C 2867.2 3323.21 2941.76 3356.12 2924.63 3304.92 C 2907.51 3253.72 3009.91 3253.72 2975.83 3304.92 C 2941.76 3356.12 3020.8 3319.25 3072.0 3328.0 C 3123.2 3336.75 3199.27 3345.62 3172.91 3294.42 C 3146.54 3243.22 3248.94 3243.22 3224.11 3294.42 C 3199.27 3345.62 3276.8 3327.29 3328.0 3328.0 C 3379.2 3328.71 3466.75 3293.26 3439.16 3344.46 C 3411.58 3395.66 3513.98 3395.66 3490.36 3344.46 C 3466.75 3293.26 3532.8 3334.47 3584.0 3328.0 C 3635.2 3321.53 3708.67 3303.36 3682.96 3354.56 C 3657.26 3405.76 3759.66 3405.76 3734.16 3354.56 C 3708.67 3303.36 3788.8 3324.41 3840.0 3328.0 M 0.0,3584.0 C 51.2 3576.88 132.41 3567.34 99.57 3618.54 C 66.74 3669.74 169.14 3669.74 150.77 3618.54 C 132.41 3567.34 204.8 3592.18 256.0 3584.0 C 307.2 3575.82 393.68 3564.75 360.4 3615.95 C 327.13 3667.15 429.53 3667.15 411.6 3615.95 C 393.68 3564.75 460.8 3577.9 512.0 3584.0 C 563.2 3590.1 649.25 3615.11 616.65 3563.91 C 584.05 3512.71 686.45 3512.71 667.85 3563.91 C 649.25 3615.11 716.8 3587.3 768.0 3584.0 C 819.2 3580.7 889.5 3560.28 864.65 3611.48 C 839.79 3662.68 942.19 3662.68 915.85 3611.48 C 889.5 3560.28 972.8 3574.86 1024.0 3584.0 C 1075.2 3593.14 1144.46 3553.18 1124.16 3604.38 C 1103.86 3655.58 1206.26 3655.58 1175.36 3604.38 C 1144.46 3553.18 1228.8 3592.87 1280.0 3584.0 C 1331.2 3575.13 1411.4 3600.4 1389.28 3549.2 C 1367.16 3498.0 1469.56 3498.0 1440.48 3549.2 C 1411.4 3600.4 1484.8 3586.27 1536.0 3584.0 C 1587.2 3581.73 1657.78 3617.25 1634.6 3566.05 C 1611.43 3514.85 1713.83 3514.85 1685.8 3566.05 C 1657.78 3617.25 1740.8 3575.04 1792.0 3584.0 C 1843.2 3592.96 1911.89 3606.12 1889.42 3554.92 C 1866.95 3503.72 1969.35 3503.72 1940.62 3554.92 C 1911.89 3606.12 1996.8 3584.85 2048.0 3584.0 C 2099.2 3583.15 2169.0 3558.05 2147.83 3609.25 C 2126.65 3660.45 2229.05 3660.45 2199.03 3609.25 C 2169.0 3558.05 2252.8 3592.25 2304.0 3584.0 C 2355.2 3575.75 2436.41 3568.34 2415.93 3619.54 C 2395.46 3670.74 2497.86 3670.74 2467.13 3619.54 C 2436.41 3568.34 2508.8 3578.61 2560.0 3584.0 C 2611.2 3589.39 2694.76 3564.69 2662.01 3615.89 C 2629.26 3667.09 2731.66 3667.09 2713.21 3615.89 C 2694.76 3564.69 2764.8 3579.57 2816.0 3584.0 C 2867.2 3588.43 2941.52 3616.75 2911.56 3565.55 C 2881.6 3514.35 2984.0 3514.35 2962.76 3565.55 C 2941.52 3616.75 3020.8 3588.07 3072.0 3584.0 C 3123.2 3579.93 3196.85 3568.48 3164.33 3619.68 C 3131.81 3670.88 3234.21 3670.88 3215.53 3619.68 C 3196.85 3568.48 3276.8 3573.85 3328.0 3584.0 C 3379.2 3594.15 3451.31 3607.81 3428.44 3556.61 C 3405.57 3505.41 3507.97 3505.41 3479.64 3556.61 C 3451.31 3607.81 3532.8 3581.22 3584.0 3584.0 C 3635.2 3586.78 3709.76 3619.04 3682.67 3567.84 C 3655.58 3516.64 3757.98 3516.64 3733.87 3567.84 C 3709.76 3619.04 3788.8 3590.51 3840.0 3584.0 "></path><path fill="none" stroke="Black" stroke-width="0.01"  class="vertical" d="M 256.0,0.0 C 250.92 51.2 291.57 130.55 240.37 106.73 C 189.17 82.9 189.17 185.3 240.37 157.93 C 291.57 130.55 260.01 204.8 256.0 256.0 C 251.99 307.2 237.36 383.35 288.56 354.0 C 339.76 324.65 339.76 427.05 288.56 405.2 C 237.36 383.35 247.23 460.8 256.0 512.0 C 264.77 563.2 228.04 640.94 279.24 621.73 C 330.44 602.51 330.44 704.91 279.24 672.93 C 228.04 640.94 255.12 716.8 256.0 768.0 C 256.88 819.2 287.73 896.36 236.53 864.36 C 185.33 832.36 185.33 934.76 236.53 915.56 C 287.73 896.36 262.21 972.8 256.0 1024.0 C 249.79 1075.2 281.13 1148.8 229.93 1123.66 C 178.73 1098.51 178.73 1200.91 229.93 1174.86 C 281.13 1148.8 256.58 1228.8 256.0 1280.0 C 255.42 1331.2 223.75 1399.7 274.95 1376.38 C 326.15 1353.06 326.15 1455.46 274.95 1427.58 C 223.75 1399.7 253.13 1484.8 256.0 1536.0 C 258.87 1587.2 286.15 1671.2 234.95 1642.86 C 183.75 1614.52 183.75 1716.92 234.95 1694.06 C 286.15 1671.2 252.76 1740.8 256.0 1792.0 C 259.24 1843.2 221.3 1920.68 272.5 1892.83 C 323.7 1864.98 323.7 1967.38 272.5 1944.03 C 221.3 1920.68 252.04 1996.8 256.0 2048.0 C 259.96 2099.2 282.58 2192.6 231.38 2157.98 C 180.18 2123.35 180.18 2225.75 231.38 2209.18 C 282.58 2192.6 261.53 2252.8 256.0 2304.0 C 250.47 2355.2 231.61 2435.43 282.81 2407.27 C 334.01 2379.1 334.01 2481.5 282.81 2458.47 C 231.61 2435.43 248.4 2508.8 256.0 2560.0 C 263.6 2611.2 223.07 2673.03 274.27 2652.23 C 325.47 2631.43 325.47 2733.83 274.27 2703.43 C 223.07 2673.03 259.91 2764.8 256.0 2816.0 C 252.09 2867.2 274.86 2951.06 223.66 2919.45 C 172.46 2887.85 172.46 2990.25 223.66 2970.65 C 274.86 2951.06 264.89 3020.8 256.0 3072.0 C 247.11 3123.2 221.02 3190.68 272.22 3168.25 C 323.42 3145.83 323.42 3248.23 272.22 3219.45 C 221.02 3190.68 247.6 3276.8 256.0 3328.0 C 264.4 3379.2 231.73 3470.56 282.93 3435.97 C 334.13 3401.37 334.13 3503.77 282.93 3487.17 C 231.73 3470.56 260.14 3532.8 256.0 3584.0 C 251.86 3635.2 221.93 3712.97 273.13 3696.26 C 324.33 3679.56 324.33 3781.96 273.13 3747.46 C 221.93 3712.97 259.21 3788.8 256.0 3840.0 M 512.0,0.0 C 519.9 51.2 482.04 129.4 533.24 97.15 C 584.44 64.9 584.44 167.3 533.24 148.35 C 482.04 129.4 504.94 204.8 512.0 256.0 C 519.06 307.2 485.84 391.13 537.04 364.5 C 588.24 337.88 588.24 440.28 537.04 415.7 C 485.84 391.13 503.58 460.8 512.0 512.0 C 520.42 563.2 537.86 643.62 486.66 610.04 C 435.46 576.46 435.46 678.86 486.66 661.24 C 537.86 643.62 513.24 716.8 512.0 768.0 C 510.76 819.2 544.09 899.83 492.89 871.54 C 441.69 843.26 441.69 945.66 492.89 922.74 C 544.09 899.83 507.47 972.8 512.0 1024.0 C 516.53 1075.2 485.19 1161.74 536.39 1127.33 C 587.59 1092.93 587.59 1195.33 536.39 1178.53 C 485.19 1161.74 506.39 1228.8 512.0 1280.0 C 517.61 1331.2 530.88 1414.0 479.68 1385.11 C 428.48 1356.22 428.48 1458.62 479.68 1436.31 C 530.88 1414.0 521.55 1484.8 512.0 1536.0 C 502.45 1587.2 529.46 1669.38 478.26 1635.7 C 427.06 1602.02 427.06 1704.42 478.26 1686.9 C 529.46 1669.38 512.61 1740.8 512.0 1792.0 C 511.39 1843.2 542.14 1912.03 490.94 1893.9 C 439.74 1875.77 439.74 1978.17 490.94 1945.1 C 542.14 1912.03 516.0 1996.8 512.0 2048.0 C 508.0 2099.2 533.95 2180.68 482.75 2146.78 C 431.55 2112.88 431.55 2215.28 482.75 2197.98 C 533.95 2180.68 516.09 2252.8 512.0 2304.0 C 507.91 2355.2 487.22 2422.94 538.42 2401.65 C 589.62 2380.37 589.62 2482.77 538.42 2452.85 C 487.22 2422.94 521.44 2508.8 512.0 2560.0 C 502.56 2611.2 478.83 2696.31 530.03 2666.71 C 581.23 2637.12 581.23 2739.52 530.03 2717.91 C 478.83 2696.31 505.17 2764.8 512.0 2816.0 C 518.83 2867.2 486.22 2930.39 537.42 2911.03 C 588.62 2891.68 588.62 2994.08 537.42 2962.23 C 486.22 2930.39 520.42 3020.8 512.0 3072.0 C 503.58 3123.2 533.71 3212.08 482.51 3178.74 C 431.31 3145.41 431.31 3247.81 482.51 3229.94 C 533.71 3212.08 502.18 3276.8 512.0 3328.0 C 521.82 3379.2 542.94 3453.96 491.74 3434.02 C 440.54 3414.08 440.54 3516.48 491.74 3485.22 C 542.94 3453.96 509.87 3532.8 512.0 3584.0 C 514.13 3635.2 483.85 3700.64 535.05 3679.29 C 586.25 3657.95 586.25 3760.35 535.05 3730.49 C 483.85 3700.64 509.76 3788.8 512.0 3840.0 M 768.0,0.0 C 768.88 51.2 788.02 114.1 736.82 95.96 C 685.62 77.82 685.62 180.22 736.82 147.16 C 788.02 114.1 764.34 204.8 768.0 256.0 C 771.66 307.2 791.04 385.21 739.84 356.9 C 688.64 328.59 688.64 430.99 739.84 408.1 C 791.04 385.21 771.98 460.8 768.0 512.0 C 764.02 563.2 786.99 632.0 735.79 609.27 C 684.59 586.53 684.59 688.93 735.79 660.47 C 786.99 632.0 758.58 716.8 768.0 768.0 C 777.42 819.2 791.3 892.62 740.1 868.4 C 688.9 844.17 688.9 946.57 740.1 919.6 C 791.3 892.62 777.4 972.8 768.0 1024.0 C 758.6 1075.2 797.24 1147.36 746.04 1122.65 C 694.84 1097.93 694.84 1200.33 746.04 1173.85 C 797.24 1147.36 773.4 1228.8 768.0 1280.0 C 762.6 1331.2 792.32 1398.22 741.12 1372.29 C 689.92 1346.35 689.92 1448.75 741.12 1423.49 C 792.32 1398.22 761.93 1484.8 768.0 1536.0 C 774.07 1587.2 750.13 1661.05 801.33 1630.97 C 852.53 1600.89 852.53 1703.29 801.33 1682.17 C 750.13 1661.05 760.19 1740.8 768.0 1792.0 C 775.81 1843.2 803.39 1929.72 752.19 1895.03 C 700.99 1860.35 700.99 1962.75 752.19 1946.23 C 803.39 1929.72 778.07 1996.8 768.0 2048.0 C 757.93 2099.2 783.77 2173.95 732.57 2154.08 C 681.37 2134.21 681.37 2236.61 732.57 2205.28 C 783.77 2173.95 769.15 2252.8 768.0 2304.0 C 766.85 2355.2 743.03 2418.41 794.23 2401.63 C 845.43 2384.86 845.43 2487.26 794.23 2452.83 C 743.03 2418.41 768.06 2508.8 768.0 2560.0 C 767.94 2611.2 741.35 2677.98 792.55 2653.3 C 843.75 2628.62 843.75 2731.02 792.55 2704.5 C 741.35 2677.98 757.76 2764.8 768.0 2816.0 C 778.24 2867.2 752.51 2928.7 803.71 2908.48 C 854.91 2888.25 854.91 2990.65 803.71 2959.68 C 752.51 2928.7 775.8 3020.8 768.0 3072.0 C 760.2 3123.2 748.84 3185.36 800.04 3167.04 C 851.24 3148.71 851.24 3251.11 800.04 3218.24 C 748.84 3185.36 763.85 3276.8 768.0 3328.0 C 772.15 3379.2 802.18 3453.18 750.98 3423.25 C 699.78 3393.31 699.78 3495.71 750.98 3474.45 C 802.18 3453.18 760.08 3532.8 768.0 3584.0 C 775.92 3635.2 749.45 3726.09 800.65 3693.92 C 851.85 3661.74 851.85 3764.14 800.65 3745.12 C 749.45 3726.09 770.02 3788.8 768.0 3840.0 M 1024.0,0.0 C 1028.76 51.2 1007.47 119.27 1058.67 92.34 C 1109.87 65.4 1109.87 167.8 1058.67 143.54 C 1007.47 119.27 1023.83 204.8 1024.0 256.0 C 1024.17 307.2 1006.35 392.11 1057.55 357.57 C 1108.75 323.04 1108.75 425.44 1057.55 408.77 C 1006.35 392.11 1030.8 460.8 1024.0 512.0 C 1017.2 563.2 1053.22 645.43 1002.02 614.57 C 950.82 583.7 950.82 686.1 1002.02 665.77 C 1053.22 645.43 1022.55 716.8 1024.0 768.0 C 1025.45 819.2 1043.42 902.54 992.22 875.96 C 941.02 849.38 941.02 951.78 992.22 927.16 C 1043.42 902.54 1024.32 972.8 1024.0 1024.0 C 1023.68 1075.2 991.41 1148.81 1042.61 1127.67 C 1093.81 1106.53 1093.81 1208.93 1042.61 1178.87 C 991.41 1148.81 1028.92 1228.8 1024.0 1280.0 C 1019.08 1331.2 998.52 1413.23 1049.72 1380.46 C 1100.92 1347.7 1100.92 1450.1 1049.72 1431.66 C 998.52 1413.23 1022.89 1484.8 1024.0 1536.0 C 1025.11 1587.2 1041.0 1648.04 989.8 1630.11 C 938.6 1612.18 938.6 1714.58 989.8 1681.31 C 1041.0 1648.04 1015.15 1740.8 1024.0 1792.0 C 1032.85 1843.2 1047.86 1925.34 996.66 1899.94 C 945.46 1874.54 945.46 1976.94 996.66 1951.14 C 1047.86 1925.34 1028.76 1996.8 1024.0 2048.0 C 1019.24 2099.2 1055.5 2177.48 1004.3 2144.15 C 953.1 2110.82 953.1 2213.22 1004.3 2195.35 C 1055.5 2177.48 1024.95 2252.8 1024.0 2304.0 C 1023.05 2355.2 1049.66 2431.61 998.46 2412.78 C 947.26 2393.96 947.26 2496.36 998.46 2463.98 C 1049.66 2431.61 1022.73 2508.8 1024.0 2560.0 C 1025.27 2611.2 1000.99 2695.23 1052.19 2669.4 C 1103.39 2643.57 1103.39 2745.97 1052.19 2720.6 C 1000.99 2695.23 1023.55 2764.8 1024.0 2816.0 C 1024.45 2867.2 997.53 2934.06 1048.73 2915.6 C 1099.93 2897.14 1099.93 2999.54 1048.73 2966.8 C 997.53 2934.06 1023.7 3020.8 1024.0 3072.0 C 1024.3 3123.2 1005.25 3190.34 1056.45 3171.41 C 1107.65 3152.48 1107.65 3254.88 1056.45 3222.61 C 1005.25 3190.34 1030.03 3276.8 1024.0 3328.0 C 1017.97 3379.2 1048.89 3459.62 997.69 3436.06 C 946.49 3412.5 946.49 3514.9 997.69 3487.26 C 1048.89 3459.62 1015.04 3532.8 1024.0 3584.0 C 1032.96 3635.2 1052.51 3708.84 1001.31 3688.24 C 950.11 3667.64 950.11 3770.04 1001.31 3739.44 C 1052.51 3708.84 1019.87 3788.8 1024.0 3840.0 M 1280.0,0.0 C 1276.62 51.2 1250.92 144.76 1302.12 108.94 C 1353.32 73.11 1353.32 175.51 1302.12 160.14 C 1250.92 144.76 1278.26 204.8 1280.0 256.0 C 1281.74 307.2 1312.87 393.04 1261.67 367.56 C 1210.47 342.08 1210.47 444.48 1261.67 418.76 C 1312.87 393.04 1277.42 460.8 1280.0 512.0 C 1282.58 563.2 1244.95 643.83 1296.15 619.64 C 1347.35 595.45 1347.35 697.85 1296.15 670.84 C 1244.95 643.83 1274.99 716.8 1280.0 768.0 C 1285.01 819.2 1246.9 894.52 1298.1 867.3 C 1349.3 840.08 1349.3 942.48 1298.1 918.5 C 1246.9 894.52 1281.72 972.8 1280.0 1024.0 C 1278.28 1075.2 1259.97 1150.06 1311.17 1132.09 C 1362.37 1114.12 1362.37 1216.52 1311.17 1183.29 C 1259.97 1150.06 1283.75 1228.8 1280.0 1280.0 C 1276.25 1331.2 1297.5 1396.88 1246.3 1372.76 C 1195.1 1348.65 1195.1 1451.05 1246.3 1423.96 C 1297.5 1396.88 1274.09 1484.8 1280.0 1536.0 C 1285.91 1587.2 1255.94 1650.26 1307.14 1630.37 C 1358.34 1610.49 1358.34 1712.89 1307.14 1681.57 C 1255.94 1650.26 1281.09 1740.8 1280.0 1792.0 C 1278.91 1843.2 1258.61 1920.79 1309.81 1897.06 C 1361.01 1873.33 1361.01 1975.73 1309.81 1948.26 C 1258.61 1920.79 1281.94 1996.8 1280.0 2048.0 C 1278.06 2099.2 1298.42 2176.46 1247.22 2150.4 C 1196.02 2124.34 1196.02 2226.74 1247.22 2201.6 C 1298.42 2176.46 1290.19 2252.8 1280.0 2304.0 C 1269.81 2355.2 1302.76 2434.08 1251.56 2408.51 C 1200.36 2382.95 1200.36 2485.35 1251.56 2459.71 C 1302.76 2434.08 1289.87 2508.8 1280.0 2560.0 C 1270.13 2611.2 1298.7 2684.2 1247.5 2660.66 C 1196.3 2637.12 1196.3 2739.52 1247.5 2711.86 C 1298.7 2684.2 1285.43 2764.8 1280.0 2816.0 C 1274.57 2867.2 1245.5 2938.16 1296.7 2921.13 C 1347.9 2904.09 1347.9 3006.49 1296.7 2972.33 C 1245.5 2938.16 1282.42 3020.8 1280.0 3072.0 C 1277.58 3123.2 1248.94 3218.97 1300.14 3184.24 C 1351.34 3149.51 1351.34 3251.91 1300.14 3235.44 C 1248.94 3218.97 1283.22 3276.8 1280.0 3328.0 C 1276.78 3379.2 1249.84 3464.82 1301.04 3432.79 C 1352.24 3400.75 1352.24 3503.15 1301.04 3483.99 C 1249.84 3464.82 1281.0 3532.8 1280.0 3584.0 C 1279.0 3635.2 1315.65 3705.26 1264.45 3684.77 C 1213.25 3664.28 1213.25 3766.68 1264.45 3735.97 C 1315.65 3705.26 1272.66 3788.8 1280.0 3840.0 M 1536.0,0.0 C 1538.36 51.2 1569.1 128.59 1517.9 97.24 C 1466.7 65.89 1466.7 168.29 1517.9 148.44 C 1569.1 128.59 1544.53 204.8 1536.0 256.0 C 1527.47 307.2 1507.65 381.25 1558.85 355.54 C 1610.05 329.83 1610.05 432.23 1558.85 406.74 C 1507.65 381.25 1527.03 460.8 1536.0 512.0 C 1544.97 563.2 1555.6 645.67 1504.4 614.37 C 1453.2 583.08 1453.2 685.48 1504.4 665.57 C 1555.6 645.67 1541.97 716.8 1536.0 768.0 C 1530.03 819.2 1568.85 895.53 1517.65 863.13 C 1466.45 830.73 1466.45 933.13 1517.65 914.33 C 1568.85 895.53 1539.3 972.8 1536.0 1024.0 C 1532.7 1075.2 1518.9 1151.06 1570.1 1121.74 C 1621.3 1092.43 1621.3 1194.83 1570.1 1172.94 C 1518.9 1151.06 1527.17 1228.8 1536.0 1280.0 C 1544.83 1331.2 1570.83 1397.85 1519.63 1380.49 C 1468.43 1363.14 1468.43 1465.54 1519.63 1431.69 C 1570.83 1397.85 1545.13 1484.8 1536.0 1536.0 C 1526.87 1587.2 1553.01 1659.62 1501.81 1643.96 C 1450.61 1628.31 1450.61 1730.71 1501.81 1695.16 C 1553.01 1659.62 1539.31 1740.8 1536.0 1792.0 C 1532.69 1843.2 1571.74 1916.49 1520.54 1888.58 C 1469.34 1860.67 1469.34 1963.07 1520.54 1939.78 C 1571.74 1916.49 1531.09 1996.8 1536.0 2048.0 C 1540.91 2099.2 1509.13 2163.78 1560.33 2143.1 C 1611.53 2122.42 1611.53 2224.82 1560.33 2194.3 C 1509.13 2163.78 1528.05 2252.8 1536.0 2304.0 C 1543.95 2355.2 1561.9 2431.87 1510.7 2404.47 C 1459.5 2377.06 1459.5 2479.46 1510.7 2455.67 C 1561.9 2431.87 1544.6 2508.8 1536.0 2560.0 C 1527.4 2611.2 1515.57 2683.92 1566.77 2654.58 C 1617.97 2625.25 1617.97 2727.65 1566.77 2705.78 C 1515.57 2683.92 1544.29 2764.8 1536.0 2816.0 C 1527.71 2867.2 1510.31 2937.05 1561.51 2912.05 C 1612.71 2887.06 1612.71 2989.46 1561.51 2963.25 C 1510.31 2937.05 1536.7 3020.8 1536.0 3072.0 C 1535.3 3123.2 1563.52 3185.77 1512.32 3167.36 C 1461.12 3148.94 1461.12 3251.34 1512.32 3218.56 C 1563.52 3185.77 1538.43 3276.8 1536.0 3328.0 C 1533.57 3379.2 1566.34 3446.32 1515.14 3421.76 C 1463.94 3397.2 1463.94 3499.6 1515.14 3472.96 C 1566.34 3446.32 1529.32 3532.8 1536.0 3584.0 C 1542.68 3635.2 1556.33 3705.56 1505.13 3687.72 C 1453.93 3669.89 1453.93 3772.29 1505.13 3738.92 C 1556.33 3705.56 1529.92 3788.8 1536.0 3840.0 M 1792.0,0.0 C 1796.91 51.2 1824.55 126.13 1773.35 99.94 C 1722.15 73.76 1722.15 176.16 1773.35 151.14 C 1824.55 126.13 1786.18 204.8 1792.0 256.0 C 1797.82 307.2 1766.72 377.28 1817.92 360.65 C 1869.12 344.02 1869.12 446.42 1817.92 411.85 C 1766.72 377.28 1789.13 460.8 1792.0 512.0 C 1794.87 563.2 1756.63 621.57 1807.83 605.29 C 1859.03 589.02 1859.03 691.42 1807.83 656.49 C 1756.63 621.57 1786.34 716.8 1792.0 768.0 C 1797.66 819.2 1815.74 894.29 1764.54 869.2 C 1713.34 844.11 1713.34 946.51 1764.54 920.4 C 1815.74 894.29 1797.33 972.8 1792.0 1024.0 C 1786.67 1075.2 1772.86 1147.11 1824.06 1119.16 C 1875.26 1091.21 1875.26 1193.61 1824.06 1170.36 C 1772.86 1147.11 1788.27 1228.8 1792.0 1280.0 C 1795.73 1331.2 1775.87 1400.15 1827.07 1373.3 C 1878.27 1346.45 1878.27 1448.85 1827.07 1424.5 C 1775.87 1400.15 1783.97 1484.8 1792.0 1536.0 C 1800.03 1587.2 1772.16 1656.51 1823.36 1631.7 C 1874.56 1606.88 1874.56 1709.28 1823.36 1682.9 C 1772.16 1656.51 1784.84 1740.8 1792.0 1792.0 C 1799.16 1843.2 1761.82 1922.3 1813.02 1901.63 C 1864.22 1880.96 1864.22 1983.36 1813.02 1952.83 C 1761.82 1922.3 1792.81 1996.8 1792.0 2048.0 C 1791.19 2099.2 1815.23 2178.24 1764.03 2144.9 C 1712.83 2111.57 1712.83 2213.97 1764.03 2196.1 C 1815.23 2178.24 1793.0 2252.8 1792.0 2304.0 C 1791.0 2355.2 1772.91 2426.59 1824.11 2404.41 C 1875.31 2382.22 1875.31 2484.62 1824.11 2455.61 C 1772.91 2426.59 1787.67 2508.8 1792.0 2560.0 C 1796.33 2611.2 1808.52 2687.97 1757.32 2653.23 C 1706.12 2618.48 1706.12 2720.88 1757.32 2704.43 C 1808.52 2687.97 1790.49 2764.8 1792.0 2816.0 C 1793.51 2867.2 1808.97 2955.6 1757.77 2927.04 C 1706.57 2898.48 1706.57 3000.88 1757.77 2978.24 C 1808.97 2955.6 1786.27 3020.8 1792.0 3072.0 C 1797.73 3123.2 1767.66 3213.46 1818.86 3178.22 C 1870.06 3142.97 1870.06 3245.37 1818.86 3229.42 C 1767.66 3213.46 1790.34 3276.8 1792.0 3328.0 C 1793.66 3379.2 1763.75 3463.29 1814.95 3433.9 C 1866.15 3404.51 1866.15 3506.91 1814.95 3485.1 C 1763.75 3463.29 1798.93 3532.8 1792.0 3584.0 C 1785.07 3635.2 1767.75 3707.15 1818.95 3691.68 C 1870.15 3676.22 1870.15 3778.62 1818.95 3742.88 C 1767.75 3707.15 1792.38 3788.8 1792.0 3840.0 M 2048.0,0.0 C 2052.34 51.2 2027.06 141.92 2078.26 109.24 C 2129.46 76.55 2129.46 178.95 2078.26 160.44 C 2027.06 141.92 2040.81 204.8 2048.0 256.0 C 2055.19 307.2 2067.01 395.21 2015.81 362.17 C 1964.61 329.13 1964.61 431.53 2015.81 413.37 C 2067.01 395.21 2049.79 460.8 2048.0 512.0 C 2046.21 563.2 2065.31 648.42 2014.11 620.54 C 1962.91 592.66 1962.91 695.06 2014.11 671.74 C 2065.31 648.42 2043.49 716.8 2048.0 768.0 C 2052.51 819.2 2031.5 878.9 2082.7 862.53 C 2133.9 846.17 2133.9 948.57 2082.7 913.73 C 2031.5 878.9 2054.75 972.8 2048.0 1024.0 C 2041.25 1075.2 2074.61 1144.44 2023.41 1123.2 C 1972.21 1101.96 1972.21 1204.36 2023.41 1174.4 C 2074.61 1144.44 2053.68 1228.8 2048.0 1280.0 C 2042.32 1331.2 2072.04 1406.6 2020.84 1380.6 C 1969.64 1354.6 1969.64 1457.0 2020.84 1431.8 C 2072.04 1406.6 2056.89 1484.8 2048.0 1536.0 C 2039.11 1587.2 2028.07 1652.34 2079.27 1634.54 C 2130.47 1616.74 2130.47 1719.14 2079.27 1685.74 C 2028.07 1652.34 2052.44 1740.8 2048.0 1792.0 C 2043.56 1843.2 2078.18 1932.68 2026.98 1899.98 C 1975.78 1867.28 1975.78 1969.68 2026.98 1951.18 C 2078.18 1932.68 2057.4 1996.8 2048.0 2048.0 C 2038.6 2099.2 2023.56 2171.62 2074.76 2146.75 C 2125.96 2121.89 2125.96 2224.29 2074.76 2197.95 C 2023.56 2171.62 2057.18 2252.8 2048.0 2304.0 C 2038.82 2355.2 2023.0 2427.93 2074.2 2405.55 C 2125.4 2383.17 2125.4 2485.57 2074.2 2456.75 C 2023.0 2427.93 2044.06 2508.8 2048.0 2560.0 C 2051.94 2611.2 2023.3 2684.03 2074.5 2665.88 C 2125.7 2647.73 2125.7 2750.13 2074.5 2717.08 C 2023.3 2684.03 2056.82 2764.8 2048.0 2816.0 C 2039.18 2867.2 2019.41 2941.97 2070.61 2916.03 C 2121.81 2890.08 2121.81 2992.48 2070.61 2967.23 C 2019.41 2941.97 2046.27 3020.8 2048.0 3072.0 C 2049.73 3123.2 2070.28 3199.81 2019.08 3168.1 C 1967.88 3136.38 1967.88 3238.78 2019.08 3219.3 C 2070.28 3199.81 2041.6 3276.8 2048.0 3328.0 C 2054.4 3379.2 2018.97 3450.27 2070.17 3430.14 C 2121.37 3410.02 2121.37 3512.42 2070.17 3481.34 C 2018.97 3450.27 2042.05 3532.8 2048.0 3584.0 C 2053.95 3635.2 2081.67 3721.47 2030.47 3686.32 C 1979.27 3651.17 1979.27 3753.57 2030.47 3737.52 C 2081.67 3721.47 2057.95 3788.8 2048.0 3840.0 M 2304.0,0.0 C 2305.79 51.2 2332.54 140.87 2281.34 110.5 C 2230.14 80.14 2230.14 182.54 2281.34 161.7 C 2332.54 140.87 2297.8 204.8 2304.0 256.0 C 2310.2 307.2 2273.26 387.44 2324.46 356.77 C 2375.66 326.09 2375.66 428.49 2324.46 407.97 C 2273.26 387.44 2308.09 460.8 2304.0 512.0 C 2299.91 563.2 2339.51 646.36 2288.31 620.25 C 2237.11 594.15 2237.11 696.55 2288.31 671.45 C 2339.51 646.36 2313.64 716.8 2304.0 768.0 C 2294.36 819.2 2281.97 897.01 2333.17 870.8 C 2384.37 844.59 2384.37 946.99 2333.17 922.0 C 2281.97 897.01 2309.69 972.8 2304.0 1024.0 C 2298.31 1075.2 2321.21 1140.61 2270.01 1125.14 C 2218.81 1109.67 2218.81 1212.07 2270.01 1176.34 C 2321.21 1140.61 2307.83 1228.8 2304.0 1280.0 C 2300.17 1331.2 2285.6 1414.19 2336.8 1390.19 C 2388.0 1366.19 2388.0 1468.59 2336.8 1441.39 C 2285.6 1414.19 2310.87 1484.8 2304.0 1536.0 C 2297.13 1587.2 2286.2 1669.77 2337.4 1643.5 C 2388.6 1617.24 2388.6 1719.64 2337.4 1694.7 C 2286.2 1669.77 2296.88 1740.8 2304.0 1792.0 C 2311.12 1843.2 2320.6 1917.9 2269.4 1891.1 C 2218.2 1864.3 2218.2 1966.7 2269.4 1942.3 C 2320.6 1917.9 2308.11 1996.8 2304.0 2048.0 C 2299.89 2099.2 2277.99 2193.33 2329.19 2158.92 C 2380.39 2124.5 2380.39 2226.9 2329.19 2210.12 C 2277.99 2193.33 2299.9 2252.8 2304.0 2304.0 C 2308.1 2355.2 2286.56 2430.87 2337.76 2412.55 C 2388.96 2394.22 2388.96 2496.62 2337.76 2463.75 C 2286.56 2430.87 2303.49 2508.8 2304.0 2560.0 C 2304.51 2611.2 2270.75 2681.5 2321.95 2657.6 C 2373.15 2633.7 2373.15 2736.1 2321.95 2708.8 C 2270.75 2681.5 2297.29 2764.8 2304.0 2816.0 C 2310.71 2867.2 2281.87 2942.66 2333.07 2908.2 C 2384.27 2873.73 2384.27 2976.13 2333.07 2959.4 C 2281.87 2942.66 2307.86 3020.8 2304.0 3072.0 C 2300.14 3123.2 2323.12 3185.59 2271.92 3167.39 C 2220.72 3149.19 2220.72 3251.59 2271.92 3218.59 C 2323.12 3185.59 2303.08 3276.8 2304.0 3328.0 C 2304.92 3379.2 2281.03 3459.04 2332.23 3437.46 C 2383.43 3415.87 2383.43 3518.27 2332.23 3488.66 C 2281.03 3459.04 2300.78 3532.8 2304.0 3584.0 C 2307.22 3635.2 2282.95 3720.38 2334.15 3696.0 C 2385.35 3671.61 2385.35 3774.01 2334.15 3747.2 C 2282.95 3720.38 2305.45 3788.8 2304.0 3840.0 M 2560.0,0.0 C 2552.86 51.2 2576.18 127.31 2524.98 98.05 C 2473.78 68.8 2473.78 171.2 2524.98 149.25 C 2576.18 127.31 2569.17 204.8 2560.0 256.0 C 2550.83 307.2 2582.25 383.83 2531.05 354.93 C 2479.85 326.03 2479.85 428.43 2531.05 406.13 C 2582.25 383.83 2562.55 460.8 2560.0 512.0 C 2557.45 563.2 2579.13 642.59 2527.93 610.23 C 2476.73 577.86 2476.73 680.26 2527.93 661.43 C 2579.13 642.59 2569.18 716.8 2560.0 768.0 C 2550.82 819.2 2524.6 893.8 2575.8 871.97 C 2627.0 850.13 2627.0 952.53 2575.8 923.17 C 2524.6 893.8 2555.76 972.8 2560.0 1024.0 C 2564.24 1075.2 2593.56 1140.93 2542.36 1124.6 C 2491.16 1108.28 2491.16 1210.68 2542.36 1175.8 C 2593.56 1140.93 2563.22 1228.8 2560.0 1280.0 C 2556.78 1331.2 2525.82 1411.18 2577.02 1382.78 C 2628.22 1354.39 2628.22 1456.79 2577.02 1433.98 C 2525.82 1411.18 2553.24 1484.8 2560.0 1536.0 C 2566.76 1587.2 2585.59 1658.93 2534.39 1631.48 C 2483.19 1604.02 2483.19 1706.42 2534.39 1682.68 C 2585.59 1658.93 2566.7 1740.8 2560.0 1792.0 C 2553.3 1843.2 2539.06 1913.62 2590.26 1889.27 C 2641.46 1864.92 2641.46 1967.32 2590.26 1940.47 C 2539.06 1913.62 2553.77 1996.8 2560.0 2048.0 C 2566.23 2099.2 2579.4 2174.68 2528.2 2151.7 C 2477.0 2128.71 2477.0 2231.11 2528.2 2202.9 C 2579.4 2174.68 2568.22 2252.8 2560.0 2304.0 C 2551.78 2355.2 2543.37 2433.66 2594.57 2415.38 C 2645.77 2397.1 2645.77 2499.5 2594.57 2466.58 C 2543.37 2433.66 2557.89 2508.8 2560.0 2560.0 C 2562.11 2611.2 2586.15 2682.78 2534.95 2665.7 C 2483.75 2648.62 2483.75 2751.02 2534.95 2716.9 C 2586.15 2682.78 2558.54 2764.8 2560.0 2816.0 C 2561.46 2867.2 2531.65 2938.38 2582.85 2909.48 C 2634.05 2880.57 2634.05 2982.97 2582.85 2960.68 C 2531.65 2938.38 2566.5 3020.8 2560.0 3072.0 C 2553.5 3123.2 2531.4 3208.2 2582.6 3174.05 C 2633.8 3139.89 2633.8 3242.29 2582.6 3225.25 C 2531.4 3208.2 2563.77 3276.8 2560.0 3328.0 C 2556.23 3379.2 2525.85 3447.77 2577.05 3428.48 C 2628.25 3409.19 2628.25 3511.59 2577.05 3479.68 C 2525.85 3447.77 2555.94 3532.8 2560.0 3584.0 C 2564.06 3635.2 2577.4 3721.65 2526.2 3689.16 C 2475.0 3656.66 2475.0 3759.06 2526.2 3740.36 C 2577.4 3721.65 2549.9 3788.8 2560.0 3840.0 M 2816.0,0.0 C 2810.03 51.2 2832.39 125.49 2781.19 106.14 C 2729.99 86.79 2729.99 189.19 2781.19 157.34 C 2832.39 125.49 2820.91 204.8 2816.0 256.0 C 2811.09 307.2 2844.13 388.12 2792.93 368.03 C 2741.73 347.95 2741.73 450.35 2792.93 419.23 C 2844.13 388.12 2820.69 460.8 2816.0 512.0 C 2811.31 563.2 2796.93 638.74 2848.13 606.91 C 2899.33 575.08 2899.33 677.48 2848.13 658.11 C 2796.93 638.74 2812.79 716.8 2816.0 768.0 C 2819.21 819.2 2831.62 911.34 2780.42 879.12 C 2729.22 846.91 2729.22 949.31 2780.42 930.32 C 2831.62 911.34 2821.89 972.8 2816.0 1024.0 C 2810.11 1075.2 2848.51 1136.18 2797.31 1119.18 C 2746.11 1102.18 2746.11 1204.58 2797.31 1170.38 C 2848.51 1136.18 2815.99 1228.8 2816.0 1280.0 C 2816.01 1331.2 2838.21 1410.65 2787.01 1390.72 C 2735.81 1370.79 2735.81 1473.19 2787.01 1441.92 C 2838.21 1410.65 2814.97 1484.8 2816.0 1536.0 C 2817.03 1587.2 2841.0 1668.45 2789.8 1641.86 C 2738.6 1615.26 2738.6 1717.66 2789.8 1693.06 C 2841.0 1668.45 2821.17 1740.8 2816.0 1792.0 C 2810.83 1843.2 2793.27 1925.56 2844.47 1900.41 C 2895.67 1875.27 2895.67 1977.67 2844.47 1951.61 C 2793.27 1925.56 2819.7 1996.8 2816.0 2048.0 C 2812.3 2099.2 2783.79 2178.93 2834.99 2158.16 C 2886.19 2137.39 2886.19 2239.79 2834.99 2209.36 C 2783.79 2178.93 2806.44 2252.8 2816.0 2304.0 C 2825.56 2355.2 2842.81 2426.93 2791.61 2399.72 C 2740.41 2372.51 2740.41 2474.91 2791.61 2450.92 C 2842.81 2426.93 2809.32 2508.8 2816.0 2560.0 C 2822.68 2611.2 2840.49 2704.6 2789.29 2668.89 C 2738.09 2633.18 2738.09 2735.58 2789.29 2720.09 C 2840.49 2704.6 2816.44 2764.8 2816.0 2816.0 C 2815.56 2867.2 2833.56 2942.36 2782.36 2911.44 C 2731.16 2880.52 2731.16 2982.92 2782.36 2962.64 C 2833.56 2942.36 2822.34 3020.8 2816.0 3072.0 C 2809.66 3123.2 2849.85 3185.91 2798.65 3165.39 C 2747.45 3144.87 2747.45 3247.27 2798.65 3216.59 C 2849.85 3185.91 2820.01 3276.8 2816.0 3328.0 C 2811.99 3379.2 2844.63 3446.76 2793.43 3430.98 C 2742.23 3415.21 2742.23 3517.61 2793.43 3482.18 C 2844.63 3446.76 2808.7 3532.8 2816.0 3584.0 C 2823.3 3635.2 2792.75 3716.56 2843.95 3690.56 C 2895.15 3664.56 2895.15 3766.96 2843.95 3741.76 C 2792.75 3716.56 2814.41 3788.8 2816.0 3840.0 M 3072.0,0.0 C 3082.05 51.2 3091.52 142.75 3040.32 111.32 C 2989.12 79.9 2989.12 182.3 3040.32 162.52 C 3091.52 142.75 3074.13 204.8 3072.0 256.0 C 3069.87 307.2 3104.74 374.0 3053.54 355.61 C 3002.34 337.21 3002.34 439.61 3053.54 406.81 C 3104.74 374.0 3063.32 460.8 3072.0 512.0 C 3080.68 563.2 3092.7 633.2 3041.5 614.15 C 2990.3 595.09 2990.3 697.49 3041.5 665.35 C 3092.7 633.2 3073.15 716.8 3072.0 768.0 C 3070.85 819.2 3092.94 890.88 3041.74 863.07 C 2990.54 835.26 2990.54 937.66 3041.74 914.27 C 3092.94 890.88 3074.46 972.8 3072.0 1024.0 C 3069.54 1075.2 3103.97 1151.42 3052.77 1135.86 C 3001.57 1120.31 3001.57 1222.71 3052.77 1187.06 C 3103.97 1151.42 3067.03 1228.8 3072.0 1280.0 C 3076.97 1331.2 3091.61 1410.84 3040.41 1375.78 C 2989.21 1340.73 2989.21 1443.13 3040.41 1426.98 C 3091.61 1410.84 3063.21 1484.8 3072.0 1536.0 C 3080.79 1587.2 3102.17 1665.71 3050.97 1648.37 C 2999.77 1631.04 2999.77 1733.44 3050.97 1699.57 C 3102.17 1665.71 3064.77 1740.8 3072.0 1792.0 C 3079.23 1843.2 3095.22 1912.9 3044.02 1890.11 C 2992.82 1867.32 2992.82 1969.72 3044.02 1941.31 C 3095.22 1912.9 3081.5 1996.8 3072.0 2048.0 C 3062.5 2099.2 3041.48 2179.98 3092.68 2156.92 C 3143.88 2133.86 3143.88 2236.26 3092.68 2208.12 C 3041.48 2179.98 3074.71 2252.8 3072.0 2304.0 C 3069.29 2355.2 3048.81 2418.84 3100.01 2402.86 C 3151.21 2386.88 3151.21 2489.28 3100.01 2454.06 C 3048.81 2418.84 3065.65 2508.8 3072.0 2560.0 C 3078.35 2611.2 3045.28 2677.39 3096.48 2656.83 C 3147.68 2636.27 3147.68 2738.67 3096.48 2708.03 C 3045.28 2677.39 3074.14 2764.8 3072.0 2816.0 C 3069.86 2867.2 3092.79 2939.79 3041.59 2918.66 C 2990.39 2897.53 2990.39 2999.93 3041.59 2969.86 C 3092.79 2939.79 3078.55 3020.8 3072.0 3072.0 C 3065.45 3123.2 3087.72 3207.71 3036.52 3183.39 C 2985.32 3159.07 2985.32 3261.47 3036.52 3234.59 C 3087.72 3207.71 3065.48 3276.8 3072.0 3328.0 C 3078.52 3379.2 3041.23 3455.89 3092.43 3420.31 C 3143.63 3384.73 3143.63 3487.13 3092.43 3471.51 C 3041.23 3455.89 3070.33 3532.8 3072.0 3584.0 C 3073.67 3635.2 3099.74 3706.45 3048.54 3683.34 C 2997.34 3660.23 2997.34 3762.63 3048.54 3734.54 C 3099.74 3706.45 3066.91 3788.8 3072.0 3840.0 M 3328.0,0.0 C 3321.1 51.2 3299.33 129.63 3350.53 102.61 C 3401.73 75.6 3401.73 178.0 3350.53 153.81 C 3299.33 129.63 3335.31 204.8 3328.0 256.0 C 3320.69 307.2 3345.68 391.36 3294.48 366.57 C 3243.28 341.78 3243.28 444.18 3294.48 417.77 C 3345.68 391.36 3331.7 460.8 3328.0 512.0 C 3324.3 563.2 3351.96 645.56 3300.76 620.3 C 3249.56 595.04 3249.56 697.44 3300.76 671.5 C 3351.96 645.56 3333.12 716.8 3328.0 768.0 C 3322.88 819.2 3352.28 899.45 3301.08 864.63 C 3249.88 829.82 3249.88 932.22 3301.08 915.83 C 3352.28 899.45 3336.37 972.8 3328.0 1024.0 C 3319.63 1075.2 3351.7 1156.35 3300.5 1123.47 C 3249.3 1090.59 3249.3 1192.99 3300.5 1174.67 C 3351.7 1156.35 3336.31 1228.8 3328.0 1280.0 C 3319.69 1331.2 3306.01 1412.57 3357.21 1378.17 C 3408.41 1343.76 3408.41 1446.16 3357.21 1429.37 C 3306.01 1412.57 3331.91 1484.8 3328.0 1536.0 C 3324.09 1587.2 3356.33 1672.33 3305.13 1643.44 C 3253.93 1614.54 3253.93 1716.94 3305.13 1694.64 C 3356.33 1672.33 3337.76 1740.8 3328.0 1792.0 C 3318.24 1843.2 3347.53 1918.63 3296.33 1902.36 C 3245.13 1886.09 3245.13 1988.49 3296.33 1953.56 C 3347.53 1918.63 3331.02 1996.8 3328.0 2048.0 C 3324.98 2099.2 3293.69 2172.79 3344.89 2154.7 C 3396.09 2136.62 3396.09 2239.02 3344.89 2205.9 C 3293.69 2172.79 3333.66 2252.8 3328.0 2304.0 C 3322.34 2355.2 3295.95 2428.87 3347.15 2411.12 C 3398.35 2393.36 3398.35 2495.76 3347.15 2462.32 C 3295.95 2428.87 3328.83 2508.8 3328.0 2560.0 C 3327.17 2611.2 3352.91 2689.56 3301.71 2657.35 C 3250.51 2625.15 3250.51 2727.55 3301.71 2708.55 C 3352.91 2689.56 3323.22 2764.8 3328.0 2816.0 C 3332.78 2867.2 3355.66 2944.8 3304.46 2925.23 C 3253.26 2905.67 3253.26 3008.07 3304.46 2976.43 C 3355.66 2944.8 3330.87 3020.8 3328.0 3072.0 C 3325.13 3123.2 3354.88 3197.7 3303.68 3173.76 C 3252.48 3149.81 3252.48 3252.21 3303.68 3224.96 C 3354.88 3197.7 3325.85 3276.8 3328.0 3328.0 C 3330.15 3379.2 3353.86 3455.73 3302.66 3436.81 C 3251.46 3417.89 3251.46 3520.29 3302.66 3488.01 C 3353.86 3455.73 3323.13 3532.8 3328.0 3584.0 C 3332.87 3635.2 3347.48 3707.19 3296.28 3686.0 C 3245.08 3664.82 3245.08 3767.22 3296.28 3737.2 C 3347.48 3707.19 3336.19 3788.8 3328.0 3840.0 M 3584.0,0.0 C 3583.4 51.2 3568.01 116.14 3619.21 92.7 C 3670.41 69.27 3670.41 171.67 3619.21 143.9 C 3568.01 116.14 3584.57 204.8 3584.0 256.0 C 3583.43 307.2 3561.1 371.52 3612.3 351.27 C 3663.5 331.02 3663.5 433.42 3612.3 402.47 C 3561.1 371.52 3577.77 460.8 3584.0 512.0 C 3590.23 563.2 3553.46 635.6 3604.66 617.21 C 3655.86 598.83 3655.86 701.23 3604.66 668.41 C 3553.46 635.6 3587.87 716.8 3584.0 768.0 C 3580.13 819.2 3550.47 907.72 3601.67 878.29 C 3652.87 848.86 3652.87 951.26 3601.67 929.49 C 3550.47 907.72 3592.31 972.8 3584.0 1024.0 C 3575.69 1075.2 3549.31 1138.7 3600.51 1117.86 C 3651.71 1097.02 3651.71 1199.42 3600.51 1169.06 C 3549.31 1138.7 3580.65 1228.8 3584.0 1280.0 C 3587.35 1331.2 3565.94 1403.24 3617.14 1381.2 C 3668.34 1359.16 3668.34 1461.56 3617.14 1432.4 C 3565.94 1403.24 3592.1 1484.8 3584.0 1536.0 C 3575.9 1587.2 3619.65 1651.72 3568.45 1631.39 C 3517.25 1611.06 3517.25 1713.46 3568.45 1682.59 C 3619.65 1651.72 3589.25 1740.8 3584.0 1792.0 C 3578.75 1843.2 3605.4 1928.99 3554.2 1901.18 C 3503.0 1873.37 3503.0 1975.77 3554.2 1952.38 C 3605.4 1928.99 3582.03 1996.8 3584.0 2048.0 C 3585.97 2099.2 3611.09 2176.52 3559.89 2158.39 C 3508.69 2140.26 3508.69 2242.66 3559.89 2209.59 C 3611.09 2176.52 3586.19 2252.8 3584.0 2304.0 C 3581.81 2355.2 3552.88 2437.99 3604.08 2408.72 C 3655.28 2379.45 3655.28 2481.85 3604.08 2459.92 C 3552.88 2437.99 3585.1 2508.8 3584.0 2560.0 C 3582.9 2611.2 3604.38 2695.49 3553.18 2664.4 C 3501.98 2633.31 3501.98 2735.71 3553.18 2715.6 C 3604.38 2695.49 3580.82 2764.8 3584.0 2816.0 C 3587.18 2867.2 3563.91 2926.82 3615.11 2908.39 C 3666.31 2889.97 3666.31 2992.37 3615.11 2959.59 C 3563.91 2926.82 3580.42 3020.8 3584.0 3072.0 C 3587.58 3123.2 3602.76 3197.03 3551.56 3166.29 C 3500.36 3135.54 3500.36 3237.94 3551.56 3217.49 C 3602.76 3197.03 3580.21 3276.8 3584.0 3328.0 C 3587.79 3379.2 3610.41 3452.25 3559.21 3433.11 C 3508.01 3413.97 3508.01 3516.37 3559.21 3484.31 C 3610.41 3452.25 3578.75 3532.8 3584.0 3584.0 C 3589.25 3635.2 3553.81 3716.37 3605.01 3682.66 C 3656.21 3648.95 3656.21 3751.35 3605.01 3733.86 C 3553.81 3716.37 3583.24 3788.8 3584.0 3840.0 "></path><path fill="none" stroke="Black" stroke-width="0.01" class="border" d="M 2.0 0.0 L 3838.0 0.0 A 2.0 2.0 0 0 1 3840.0 2.0 L 3840.0 3838.0 A 2.0 2.0 0 0 1 3838.0 3840.0 L 2.0 3840.0 A 2.0 2.0 0 0 1 0.0 3838.0 L 0.0 2.0 A 2.0 2.0 0 0 1 2.0 0.0 "></path></svg>