<svg xmlns="http://www.w3.org/2000/svg" version="1.0" width="2048mm" height="2048mm" viewBox="0 0 2048 2048"><path fill="none" stroke="Black" stroke-width="0.1" d="M 0.0,512.0 C 102.4 523.25 198.54 614.72 155.12 502.08 C 111.7 389.44 336.98 389.44 267.76 502.08 C 198.54 614.72 409.6 555.68 512.0 512.0 C 614.4 468.32 773.15 587.24 697.15 474.6 C 621.15 361.96 846.43 361.96 809.79 474.6 C 773.15 587.24 921.6 477.61 1024.0 512.0 C 1126.4 546.39 1310.93 455.6 1273.98 568.24 C 1237.03 680.88 1462.31 680.88 1386.62 568.24 C 1310.93 455.6 1433.6 525.77 1536.0 512.0 C 1638.4 498.23 1766.86 582.42 1739.92 469.78 C 1712.97 357.14 1938.25 357.14 1852.56 469.78 C 1766.86 582.42 1945.6 495.26 2048.0 512.0 M 0.0,1024.0 C 102.4 996.41 294.67 973.2 213.13 1085.84 C 131.6 1198.48 356.88 1198.48 325.77 1085.84 C 294.67 973.2 409.6 984.01 512.0 1024.0 C 614.4 1063.99 760.86 1092.77 704.68 980.13 C 648.5 867.49 873.78 867.49 817.32 980.13 C 760.86 1092.77 921.6 1023.12 1024.0 1024.0 C 1126.4 1024.88 1256.98 1061.81 1244.1 949.17 C 1231.21 836.53 1456.49 836.53 1356.74 949.17 C 1256.98 1061.81 1433.6 1000.62 1536.0 1024.0 C 1638.4 1047.38 1784.87 938.08 1713.88 1050.72 C 1642.89 1163.36 1868.17 1163.36 1826.52 1050.72 C 1784.87 938.08 1945.6 1006.05 2048.0 1024.0 M 0.0,1536.0 C 102.4 1567.88 265.24 1468.71 238.54 1581.35 C 211.85 1693.99 437.13 1693.99 351.18 1581.35 C 265.24 1468.71 409.6 1499.09 512.0 1536.0 C 614.4 1572.91 733.73 1461.4 694.3 1574.04 C 654.87 1686.68 880.15 1686.68 806.94 1574.04 C 733.73 1461.4 921.6 1508.12 1024.0 1536.0 C 1126.4 1563.88 1224.38 1591.61 1189.04 1478.97 C 1153.7 1366.33 1378.98 1366.33 1301.68 1478.97 C 1224.38 1591.61 1433.6 1563.08 1536.0 1536.0 C 1638.4 1508.92 1739.12 1465.55 1686.39 1578.19 C 1633.66 1690.83 1858.94 1690.83 1799.03 1578.19 C 1739.12 1465.55 1945.6 1547.36 2048.0 1536.0 "></path><path fill="none" stroke="Black" stroke-width="0.1" d="M 512.0,0.0 C 539.18 102.4 557.9 275.66 445.26 247.23 C 332.62 218.8 332.62 444.08 445.26 359.87 C 557.9 275.66 521.28 409.6 512.0 512.0 C 502.72 614.4 576.53 717.03 463.89 676.57 C 351.25 636.11 351.25 861.39 463.89 789.21 C 576.53 717.03 502.19 921.6 512.0 1024.0 C 521.81 1126.4 547.23 1237.95 434.59 1213.75 C 321.95 1189.54 321.95 1414.82 434.59 1326.39 C 547.23 1237.95 500.52 1433.6 512.0 1536.0 C 523.48 1638.4 541.02 1709.11 428.38 1699.86 C 315.74 1690.61 315.74 1915.89 428.38 1812.5 C 541.02 1709.11 549.53 1945.6 512.0 2048.0 M 1024.0,0.0 C 1008.78 102.4 954.0 242.07 1066.64 157.34 C 1179.28 72.62 1179.28 297.9 1066.64 269.98 C 954.0 242.07 988.21 409.6 1024.0 512.0 C 1059.79 614.4 956.43 821.02 1069.07 726.45 C 1181.71 631.88 1181.71 857.16 1069.07 839.09 C 956.43 821.02 976.6 921.6 1024.0 1024.0 C 1071.4 1126.4 1050.19 1348.1 937.55 1256.52 C 824.91 1164.93 824.91 1390.21 937.55 1369.16 C 1050.19 1348.1 1066.9 1433.6 1024.0 1536.0 C 981.1 1638.4 936.99 1717.44 1049.63 1703.17 C 1162.27 1688.89 1162.27 1914.17 1049.63 1815.81 C 936.99 1717.44 1026.73 1945.6 1024.0 2048.0 M 1536.0,0.0 C 1561.84 102.4 1513.09 240.31 1625.73 209.15 C 1738.37 177.99 1738.37 403.27 1625.73 321.79 C 1513.09 240.31 1509.02 409.6 1536.0 512.0 C 1562.98 614.4 1553.41 685.05 1440.77 679.04 C 1328.13 673.04 1328.13 898.32 1440.77 791.68 C 1553.41 685.05 1572.22 921.6 1536.0 1024.0 C 1499.78 1126.4 1545.77 1266.28 1433.13 1231.15 C 1320.49 1196.02 1320.49 1421.3 1433.13 1343.79 C 1545.77 1266.28 1573.6 1433.6 1536.0 1536.0 C 1498.4 1638.4 1495.91 1813.85 1608.55 1725.5 C 1721.19 1637.15 1721.19 1862.43 1608.55 1838.14 C 1495.91 1813.85 1586.32 1945.6 1536.0 2048.0 "></path><path fill="none" stroke="Black" stroke-width="0.1" d="M 3.0 0.0 L 2045.0 0.0 A 3.0 3.0 0 0 1 2048.0 3.0 L 2048.0 2045.0 A 3.0 3.0 0 0 1 2045.0 2048.0 L 3.0 2048.0 A 3.0 3.0 0 0 1 0.0 2045.0 L 0.0 3.0 A 3.0 3.0 0 0 1 3.0 0.0 "></path></svg>