<svg xmlns="http://www.w3.org/2000/svg" version="1.0" width="2048mm" height="2048mm" viewBox="0 0 2048 2048"><path fill="none" stroke="Black" stroke-width="0.1"  class="horizontal" d="M 0.0,170.67 C 34.13 173.3 79.85 192.99 61.74 158.86 C 43.62 124.72 111.89 124.72 95.87 158.86 C 79.85 192.99 136.53 167.65 170.67 170.67 C 204.8 173.68 254.08 187.07 243.44 152.94 C 232.81 118.81 301.08 118.81 277.58 152.94 C 254.08 187.07 307.2 165.05 341.33 170.67 C 375.47 176.29 418.84 151.34 406.14 185.48 C 393.45 219.61 461.72 219.61 440.28 185.48 C 418.84 151.34 477.87 176.6 512.0 170.67 C 546.13 164.74 598.4 151.3 583.47 185.43 C 568.53 219.56 636.79 219.56 617.6 185.43 C 598.4 151.3 648.53 175.25 682.67 170.67 C 716.8 166.08 773.49 149.07 750.7 183.21 C 727.92 217.34 796.19 217.34 784.84 183.21 C 773.49 149.07 819.2 174.34 853.33 170.67 C 887.47 166.99 938.3 183.41 917.42 149.28 C 896.53 115.15 964.8 115.15 951.55 149.28 C 938.3 183.41 989.87 172.0 1024.0 170.67 C 1058.13 169.33 1103.24 190.94 1085.98 156.8 C 1068.71 122.67 1136.98 122.67 1120.11 156.8 C 1103.24 190.94 1160.53 174.32 1194.67 170.67 C 1228.8 167.02 1276.33 157.55 1261.47 191.69 C 1246.6 225.82 1314.87 225.82 1295.6 191.69 C 1276.33 157.55 1331.2 171.74 1365.33 170.67 C 1399.47 169.59 1452.68 150.2 1436.93 184.33 C 1421.18 218.47 1489.44 218.47 1471.06 184.33 C 1452.68 150.2 1501.87 171.62 1536.0 170.67 C 1570.13 169.71 1627.32 158.16 1607.43 192.3 C 1587.54 226.43 1655.81 226.43 1641.57 192.3 C 1627.32 158.16 1672.53 169.11 1706.67 170.67 C 1740.8 172.23 1794.26 148.41 1780.91 182.54 C 1767.56 216.68 1835.83 216.68 1815.04 182.54 C 1794.26 148.41 1843.2 174.79 1877.33 170.67 C 1911.47 166.55 1962.69 155.9 1952.15 190.03 C 1941.62 224.17 2009.89 224.17 1986.29 190.03 C 1962.69 155.9 2013.87 168.79 2048.0 170.67 M 0.0,341.33 C 34.13 347.77 81.57 359.95 69.35 325.81 C 57.12 291.68 125.38 291.68 103.48 325.81 C 81.57 359.95 136.53 340.37 170.67 341.33 C 204.8 342.3 258.96 359.25 241.58 325.12 C 224.2 290.98 292.46 290.98 275.71 325.12 C 258.96 359.25 307.2 344.23 341.33 341.33 C 375.47 338.44 437.83 364.86 415.73 330.73 C 393.62 296.6 461.89 296.6 449.86 330.73 C 437.83 364.86 477.87 336.83 512.0 341.33 C 546.13 345.84 599.62 330.22 575.82 364.35 C 552.01 398.48 620.28 398.48 609.95 364.35 C 599.62 330.22 648.53 334.51 682.67 341.33 C 716.8 348.16 766.79 363.5 747.17 329.37 C 727.54 295.24 795.81 295.24 781.3 329.37 C 766.79 363.5 819.2 336.27 853.33 341.33 C 887.47 346.4 952.04 323.33 928.15 357.47 C 904.26 391.6 972.52 391.6 962.28 357.47 C 952.04 323.33 989.87 340.85 1024.0 341.33 C 1058.13 341.82 1106.67 328.21 1091.1 362.35 C 1075.54 396.48 1143.8 396.48 1125.24 362.35 C 1106.67 328.21 1160.53 344.72 1194.67 341.33 C 1228.8 337.95 1267.99 322.55 1256.75 356.68 C 1245.51 390.81 1313.77 390.81 1290.88 356.68 C 1267.99 322.55 1331.2 343.11 1365.33 341.33 C 1399.47 339.55 1452.73 326.89 1431.08 361.02 C 1409.42 395.16 1477.69 395.16 1465.21 361.02 C 1452.73 326.89 1501.87 335.37 1536.0 341.33 C 1570.13 347.3 1623.16 360.98 1604.26 326.85 C 1585.35 292.72 1653.62 292.72 1638.39 326.85 C 1623.16 360.98 1672.53 338.4 1706.67 341.33 C 1740.8 344.26 1792.35 362.32 1773.05 328.18 C 1753.75 294.05 1822.02 294.05 1807.19 328.18 C 1792.35 362.32 1843.2 344.35 1877.33 341.33 C 1911.47 338.31 1963.35 357.92 1948.27 323.78 C 1933.19 289.65 2001.45 289.65 1982.4 323.78 C 1963.35 357.92 2013.87 337.65 2048.0 341.33 M 0.0,512.0 C 34.13 507.97 83.79 494.91 66.61 529.05 C 49.42 563.18 117.69 563.18 100.74 529.05 C 83.79 494.91 136.53 513.27 170.67 512.0 C 204.8 510.73 261.59 534.86 241.4 500.72 C 221.22 466.59 289.48 466.59 275.54 500.72 C 261.59 534.86 307.2 512.31 341.33 512.0 C 375.47 511.69 420.33 496.89 405.65 531.02 C 390.98 565.16 459.25 565.16 439.79 531.02 C 420.33 496.89 477.87 518.27 512.0 512.0 C 546.13 505.73 600.0 492.01 586.04 526.14 C 572.08 560.28 640.35 560.28 620.17 526.14 C 600.0 492.01 648.53 516.25 682.67 512.0 C 716.8 507.75 769.23 493.47 756.12 527.6 C 743.0 561.74 811.27 561.74 790.25 527.6 C 769.23 493.47 819.2 507.08 853.33 512.0 C 887.47 516.92 934.1 492.5 919.28 526.63 C 904.47 560.76 972.73 560.76 953.42 526.63 C 934.1 492.5 989.87 508.28 1024.0 512.0 C 1058.13 515.72 1101.92 528.97 1087.65 494.84 C 1073.38 460.7 1141.64 460.7 1121.78 494.84 C 1101.92 528.97 1160.53 515.61 1194.67 512.0 C 1228.8 508.39 1272.95 493.05 1256.36 527.18 C 1239.77 561.32 1308.04 561.32 1290.49 527.18 C 1272.95 493.05 1331.2 513.51 1365.33 512.0 C 1399.47 510.49 1439.19 500.78 1427.0 534.92 C 1414.8 569.05 1483.07 569.05 1461.13 534.92 C 1439.19 500.78 1501.87 511.45 1536.0 512.0 C 1570.13 512.55 1623.84 501.27 1605.39 535.41 C 1586.93 569.54 1655.2 569.54 1639.52 535.41 C 1623.84 501.27 1672.53 508.28 1706.67 512.0 C 1740.8 515.72 1793.91 490.25 1777.94 524.39 C 1761.97 558.52 1830.24 558.52 1812.07 524.39 C 1793.91 490.25 1843.2 509.89 1877.33 512.0 C 1911.47 514.11 1967.78 530.39 1947.9 496.26 C 1928.02 462.12 1996.29 462.12 1982.04 496.26 C 1967.78 530.39 2013.87 516.28 2048.0 512.0 M 0.0,682.67 C 34.13 677.66 81.06 663.42 65.44 697.55 C 49.82 731.69 118.08 731.69 99.57 697.55 C 81.06 663.42 136.53 684.08 170.67 682.67 C 204.8 681.25 248.54 705.38 233.3 671.24 C 218.06 637.11 286.33 637.11 267.44 671.24 C 248.54 705.38 307.2 678.88 341.33 682.67 C 375.47 686.45 419.85 667.57 404.28 701.7 C 388.71 735.84 456.98 735.84 438.41 701.7 C 419.85 667.57 477.87 687.77 512.0 682.67 C 546.13 677.57 606.0 669.98 584.92 704.11 C 563.84 738.24 632.1 738.24 619.05 704.11 C 606.0 669.98 648.53 687.37 682.67 682.67 C 716.8 677.96 761.09 661.26 748.11 695.4 C 735.14 729.53 803.4 729.53 782.25 695.4 C 761.09 661.26 819.2 677.06 853.33 682.67 C 887.47 688.27 928.18 705.82 915.59 671.68 C 903.0 637.55 971.26 637.55 949.72 671.68 C 928.18 705.82 989.87 684.78 1024.0 682.67 C 1058.13 680.55 1107.15 706.39 1088.82 672.26 C 1070.49 638.12 1138.76 638.12 1122.95 672.26 C 1107.15 706.39 1160.53 678.21 1194.67 682.67 C 1228.8 687.12 1272.05 671.97 1259.34 706.1 C 1246.62 740.23 1314.89 740.23 1293.47 706.1 C 1272.05 671.97 1331.2 687.85 1365.33 682.67 C 1399.47 677.48 1446.83 668.34 1428.77 702.47 C 1410.71 736.6 1478.98 736.6 1462.9 702.47 C 1446.83 668.34 1501.87 688.87 1536.0 682.67 C 1570.13 676.46 1614.96 662.47 1599.25 696.6 C 1583.54 730.73 1651.81 730.73 1633.39 696.6 C 1614.96 662.47 1672.53 684.83 1706.67 682.67 C 1740.8 680.5 1798.77 694.05 1781.64 659.92 C 1764.52 625.79 1832.78 625.79 1815.78 659.92 C 1798.77 694.05 1843.2 687.31 1877.33 682.67 C 1911.47 678.02 1974.82 667.92 1951.33 702.05 C 1927.84 736.18 1996.11 736.18 1985.47 702.05 C 1974.82 667.92 2013.87 686.82 2048.0 682.67 M 0.0,853.33 C 34.13 856.47 77.65 863.72 64.45 829.59 C 51.24 795.45 119.51 795.45 98.58 829.59 C 77.65 863.72 136.53 859.86 170.67 853.33 C 204.8 846.81 256.03 841.69 245.15 875.83 C 234.27 909.96 302.53 909.96 279.28 875.83 C 256.03 841.69 307.2 859.72 341.33 853.33 C 375.47 846.95 427.77 831.04 406.16 865.18 C 384.56 899.31 452.82 899.31 440.3 865.18 C 427.77 831.04 477.87 853.33 512.0 853.33 C 546.13 853.34 604.66 864.59 582.61 830.46 C 560.57 796.32 628.83 796.32 616.75 830.46 C 604.66 864.59 648.53 847.67 682.67 853.33 C 716.8 859.0 760.36 873.89 746.48 839.76 C 732.6 805.63 800.86 805.63 780.61 839.76 C 760.36 873.89 819.2 852.68 853.33 853.33 C 887.47 853.99 941.28 833.73 923.86 867.86 C 906.45 901.99 974.71 901.99 958.0 867.86 C 941.28 833.73 989.87 860.1 1024.0 853.33 C 1058.13 846.57 1111.01 870.61 1090.02 836.48 C 1069.04 802.35 1137.3 802.35 1124.16 836.48 C 1111.01 870.61 1160.53 859.32 1194.67 853.33 C 1228.8 847.35 1282.86 838.62 1261.02 872.75 C 1239.18 906.89 1307.45 906.89 1295.15 872.75 C 1282.86 838.62 1331.2 856.28 1365.33 853.33 C 1399.47 850.38 1442.66 837.72 1431.09 871.86 C 1419.52 905.99 1487.79 905.99 1465.23 871.86 C 1442.66 837.72 1501.87 854.64 1536.0 853.33 C 1570.13 852.02 1618.53 830.24 1600.87 864.38 C 1583.22 898.51 1651.48 898.51 1635.01 864.38 C 1618.53 830.24 1672.53 856.78 1706.67 853.33 C 1740.8 849.89 1790.79 871.45 1772.53 837.32 C 1754.27 803.18 1822.54 803.18 1806.66 837.32 C 1790.79 871.45 1843.2 855.03 1877.33 853.33 C 1911.47 851.64 1962.49 875.98 1946.18 841.85 C 1929.87 807.71 1998.13 807.71 1980.31 841.85 C 1962.49 875.98 2013.87 857.04 2048.0 853.33 M 0.0,1024.0 C 34.13 1018.36 83.3 1039.48 65.12 1005.35 C 46.94 971.22 115.21 971.22 99.26 1005.35 C 83.3 1039.48 136.53 1026.13 170.67 1024.0 C 204.8 1021.87 248.02 1045.83 235.4 1011.69 C 222.79 977.56 291.05 977.56 269.54 1011.69 C 248.02 1045.83 307.2 1027.24 341.33 1024.0 C 375.47 1020.76 422.83 1001.06 410.35 1035.2 C 397.87 1069.33 466.13 1069.33 444.48 1035.2 C 422.83 1001.06 477.87 1018.44 512.0 1024.0 C 546.13 1029.56 598.63 1043.86 578.88 1009.73 C 559.12 975.59 627.39 975.59 613.01 1009.73 C 598.63 1043.86 648.53 1030.38 682.67 1024.0 C 716.8 1017.62 767.97 1003.2 754.99 1037.34 C 742.01 1071.47 810.28 1071.47 789.12 1037.34 C 767.97 1003.2 819.2 1028.73 853.33 1024.0 C 887.47 1019.27 941.36 1009.61 924.04 1043.75 C 906.71 1077.88 974.98 1077.88 958.17 1043.75 C 941.36 1009.61 989.87 1024.98 1024.0 1024.0 C 1058.13 1023.02 1107.14 1045.53 1087.01 1011.4 C 1066.88 977.27 1135.15 977.27 1121.15 1011.4 C 1107.14 1045.53 1160.53 1029.45 1194.67 1024.0 C 1228.8 1018.55 1274.63 1038.39 1256.41 1004.26 C 1238.18 970.13 1306.45 970.13 1290.54 1004.26 C 1274.63 1038.39 1331.2 1020.17 1365.33 1024.0 C 1399.47 1027.83 1453.97 1034.72 1433.23 1000.59 C 1412.49 966.45 1480.76 966.45 1467.36 1000.59 C 1453.97 1034.72 1501.87 1017.31 1536.0 1024.0 C 1570.13 1030.69 1617.87 1013.34 1602.43 1047.47 C 1586.98 1081.6 1655.25 1081.6 1636.56 1047.47 C 1617.87 1013.34 1672.53 1022.88 1706.67 1024.0 C 1740.8 1025.12 1789.14 1034.71 1775.12 1000.58 C 1761.09 966.45 1829.36 966.45 1809.25 1000.58 C 1789.14 1034.71 1843.2 1018.84 1877.33 1024.0 C 1911.47 1029.16 1964.91 1041.43 1951.69 1007.3 C 1938.47 973.17 2006.74 973.17 1985.82 1007.3 C 1964.91 1041.43 2013.87 1020.73 2048.0 1024.0 M 0.0,1194.67 C 34.13 1193.18 76.32 1180.95 62.12 1215.08 C 47.93 1249.22 116.19 1249.22 96.26 1215.08 C 76.32 1180.95 136.53 1194.44 170.67 1194.67 C 204.8 1194.9 257.33 1178.78 235.75 1212.92 C 214.16 1247.05 282.43 1247.05 269.88 1212.92 C 257.33 1178.78 307.2 1195.5 341.33 1194.67 C 375.47 1193.84 427.99 1207.77 411.46 1173.64 C 394.93 1139.51 463.19 1139.51 445.59 1173.64 C 427.99 1207.77 477.87 1199.02 512.0 1194.67 C 546.13 1190.32 592.73 1180.26 574.7 1214.4 C 556.68 1248.53 624.94 1248.53 608.84 1214.4 C 592.73 1180.26 648.53 1190.4 682.67 1194.67 C 716.8 1198.94 772.15 1211.61 753.93 1177.47 C 735.71 1143.34 803.98 1143.34 788.07 1177.47 C 772.15 1211.61 819.2 1190.23 853.33 1194.67 C 887.47 1199.1 945.12 1181.64 924.62 1215.77 C 904.13 1249.9 972.4 1249.9 958.76 1215.77 C 945.12 1181.64 989.87 1189.68 1024.0 1194.67 C 1058.13 1199.65 1110.54 1207.04 1090.47 1172.9 C 1070.41 1138.77 1138.68 1138.77 1124.61 1172.9 C 1110.54 1207.04 1160.53 1192.05 1194.67 1194.67 C 1228.8 1197.29 1282.15 1183.76 1266.84 1217.89 C 1251.52 1252.02 1319.79 1252.02 1300.97 1217.89 C 1282.15 1183.76 1331.2 1194.02 1365.33 1194.67 C 1399.47 1195.31 1457.68 1208.05 1435.15 1173.92 C 1412.61 1139.79 1480.87 1139.79 1469.28 1173.92 C 1457.68 1208.05 1501.87 1199.03 1536.0 1194.67 C 1570.13 1190.3 1620.41 1208.6 1610.01 1174.47 C 1599.6 1140.34 1667.87 1140.34 1644.14 1174.47 C 1620.41 1208.6 1672.53 1188.54 1706.67 1194.67 C 1740.8 1200.79 1795.41 1207.9 1772.41 1173.76 C 1749.4 1139.63 1817.67 1139.63 1806.54 1173.76 C 1795.41 1207.9 1843.2 1198.04 1877.33 1194.67 C 1911.47 1191.29 1969.24 1177.28 1947.07 1211.41 C 1924.9 1245.54 1993.17 1245.54 1981.21 1211.41 C 1969.24 1177.28 2013.87 1191.55 2048.0 1194.67 M 0.0,1365.33 C 34.13 1368.68 72.92 1388.93 61.54 1354.79 C 50.16 1320.66 118.42 1320.66 95.67 1354.79 C 72.92 1388.93 136.53 1367.93 170.67 1365.33 C 204.8 1362.73 251.3 1388.27 240.04 1354.13 C 228.78 1320.0 297.04 1320.0 274.17 1354.13 C 251.3 1388.27 307.2 1364.98 341.33 1365.33 C 375.47 1365.69 419.57 1384.98 403.13 1350.85 C 386.68 1316.71 454.95 1316.71 437.26 1350.85 C 419.57 1384.98 477.87 1360.62 512.0 1365.33 C 546.13 1370.05 597.31 1354.09 583.11 1388.22 C 568.91 1422.35 637.18 1422.35 617.25 1388.22 C 597.31 1354.09 648.53 1366.07 682.67 1365.33 C 716.8 1364.59 761.67 1347.43 748.82 1381.56 C 735.98 1415.69 804.25 1415.69 782.96 1381.56 C 761.67 1347.43 819.2 1363.21 853.33 1365.33 C 887.47 1367.46 937.61 1345.88 919.15 1380.02 C 900.69 1414.15 968.95 1414.15 953.28 1380.02 C 937.61 1345.88 989.87 1368.1 1024.0 1365.33 C 1058.13 1362.57 1099.55 1380.49 1088.84 1346.36 C 1078.13 1312.23 1146.4 1312.23 1122.97 1346.36 C 1099.55 1380.49 1160.53 1364.64 1194.67 1365.33 C 1228.8 1366.02 1272.9 1384.16 1256.79 1350.02 C 1240.68 1315.89 1308.95 1315.89 1290.93 1350.02 C 1272.9 1384.16 1331.2 1361.77 1365.33 1365.33 C 1399.47 1368.9 1452.32 1389.13 1430.81 1355.0 C 1409.29 1320.87 1477.56 1320.87 1464.94 1355.0 C 1452.32 1389.13 1501.87 1372.14 1536.0 1365.33 C 1570.13 1358.53 1622.34 1378.87 1610.86 1344.73 C 1599.39 1310.6 1667.65 1310.6 1645.0 1344.73 C 1622.34 1378.87 1672.53 1371.69 1706.67 1365.33 C 1740.8 1358.97 1793.52 1347.88 1773.21 1382.01 C 1752.89 1416.15 1821.16 1416.15 1807.34 1382.01 C 1793.52 1347.88 1843.2 1359.29 1877.33 1365.33 C 1911.47 1371.37 1966.11 1344.5 1949.8 1378.63 C 1933.48 1412.77 2001.75 1412.77 1983.93 1378.63 C 1966.11 1344.5 2013.87 1368.78 2048.0 1365.33 M 0.0,1536.0 C 34.13 1539.33 82.02 1525.65 66.51 1559.78 C 50.99 1593.91 119.26 1593.91 100.64 1559.78 C 82.02 1525.65 136.53 1535.51 170.67 1536.0 C 204.8 1536.49 257.76 1521.6 234.17 1555.73 C 210.59 1589.86 278.86 1589.86 268.31 1555.73 C 257.76 1521.6 307.2 1536.21 341.33 1536.0 C 375.47 1535.79 433.96 1551.52 411.09 1517.38 C 388.22 1483.25 456.48 1483.25 445.22 1517.38 C 433.96 1551.52 477.87 1533.78 512.0 1536.0 C 546.13 1538.22 598.84 1512.33 578.2 1546.46 C 557.55 1580.59 625.82 1580.59 612.33 1546.46 C 598.84 1512.33 648.53 1537.5 682.67 1536.0 C 716.8 1534.5 776.23 1559.31 756.98 1525.18 C 737.73 1491.05 805.99 1491.05 791.11 1525.18 C 776.23 1559.31 819.2 1532.81 853.33 1536.0 C 887.47 1539.19 931.79 1523.43 914.89 1557.56 C 897.99 1591.69 966.26 1591.69 949.02 1557.56 C 931.79 1523.43 989.87 1530.52 1024.0 1536.0 C 1058.13 1541.48 1121.02 1514.85 1098.96 1548.98 C 1076.9 1583.11 1145.16 1583.11 1133.09 1548.98 C 1121.02 1514.85 1160.53 1531.72 1194.67 1536.0 C 1228.8 1540.28 1286.72 1555.13 1264.74 1520.99 C 1242.76 1486.86 1311.03 1486.86 1298.88 1520.99 C 1286.72 1555.13 1331.2 1537.32 1365.33 1536.0 C 1399.47 1534.68 1451.36 1524.24 1439.54 1558.37 C 1427.73 1592.5 1496.0 1592.5 1473.68 1558.37 C 1451.36 1524.24 1501.87 1533.93 1536.0 1536.0 C 1570.13 1538.07 1625.91 1521.1 1608.86 1555.24 C 1591.82 1589.37 1660.09 1589.37 1643.0 1555.24 C 1625.91 1521.1 1672.53 1539.32 1706.67 1536.0 C 1740.8 1532.68 1791.8 1557.89 1771.35 1523.76 C 1750.91 1489.63 1819.18 1489.63 1805.49 1523.76 C 1791.8 1557.89 1843.2 1537.82 1877.33 1536.0 C 1911.47 1534.18 1968.87 1515.66 1949.57 1549.79 C 1930.28 1583.92 1998.55 1583.92 1983.71 1549.79 C 1968.87 1515.66 2013.87 1531.6 2048.0 1536.0 M 0.0,1706.67 C 34.13 1712.41 74.5 1726.47 61.45 1692.34 C 48.4 1658.21 116.66 1658.21 95.58 1692.34 C 74.5 1726.47 136.53 1713.38 170.67 1706.67 C 204.8 1699.95 252.57 1686.89 240.39 1721.02 C 228.2 1755.15 296.47 1755.15 274.52 1721.02 C 252.57 1686.89 307.2 1703.53 341.33 1706.67 C 375.47 1709.8 425.02 1688.98 407.04 1723.11 C 389.07 1757.24 457.33 1757.24 441.18 1723.11 C 425.02 1688.98 477.87 1706.06 512.0 1706.67 C 546.13 1707.27 594.91 1686.93 581.41 1721.06 C 567.9 1755.19 636.16 1755.19 615.54 1721.06 C 594.91 1686.93 648.53 1706.07 682.67 1706.67 C 716.8 1707.26 770.07 1717.84 750.6 1683.71 C 731.13 1649.58 799.39 1649.58 784.73 1683.71 C 770.07 1717.84 819.2 1701.82 853.33 1706.67 C 887.47 1711.51 943.95 1694.35 921.3 1728.48 C 898.66 1762.62 966.93 1762.62 955.44 1728.48 C 943.95 1694.35 989.87 1703.61 1024.0 1706.67 C 1058.13 1709.72 1118.69 1719.46 1098.54 1685.32 C 1078.39 1651.19 1146.65 1651.19 1132.67 1685.32 C 1118.69 1719.46 1160.53 1712.45 1194.67 1706.67 C 1228.8 1700.88 1278.87 1718.53 1256.17 1684.4 C 1233.46 1650.26 1301.73 1650.26 1290.3 1684.4 C 1278.87 1718.53 1331.2 1710.4 1365.33 1706.67 C 1399.47 1702.94 1447.6 1687.73 1434.38 1721.86 C 1421.16 1756.0 1489.43 1756.0 1468.52 1721.86 C 1447.6 1687.73 1501.87 1711.94 1536.0 1706.67 C 1570.13 1701.4 1617.75 1717.98 1607.04 1683.85 C 1596.33 1649.72 1664.6 1649.72 1641.17 1683.85 C 1617.75 1717.98 1672.53 1705.13 1706.67 1706.67 C 1740.8 1708.2 1786.51 1723.85 1768.59 1689.72 C 1750.67 1655.59 1818.94 1655.59 1802.72 1689.72 C 1786.51 1723.85 1843.2 1709.47 1877.33 1706.67 C 1911.47 1703.87 1970.58 1727.28 1947.21 1693.15 C 1923.84 1659.02 1992.1 1659.02 1981.34 1693.15 C 1970.58 1727.28 2013.87 1700.63 2048.0 1706.67 M 0.0,1877.33 C 34.13 1872.67 84.34 1900.91 70.87 1866.78 C 57.4 1832.64 125.67 1832.64 105.01 1866.78 C 84.34 1900.91 136.53 1877.88 170.67 1877.33 C 204.8 1876.78 249.34 1890.91 233.08 1856.77 C 216.83 1822.64 285.1 1822.64 267.22 1856.77 C 249.34 1890.91 307.2 1881.89 341.33 1877.33 C 375.47 1872.78 430.14 1859.75 407.6 1893.88 C 385.05 1928.02 453.32 1928.02 441.73 1893.88 C 430.14 1859.75 477.87 1879.24 512.0 1877.33 C 546.13 1875.43 602.62 1857.32 582.34 1891.45 C 562.05 1925.58 630.32 1925.58 616.47 1891.45 C 602.62 1857.32 648.53 1871.97 682.67 1877.33 C 716.8 1882.7 772.49 1863.83 748.8 1897.96 C 725.11 1932.09 793.37 1932.09 782.93 1897.96 C 772.49 1863.83 819.2 1883.73 853.33 1877.33 C 887.47 1870.93 929.35 1860.81 915.2 1894.95 C 901.06 1929.08 969.33 1929.08 949.34 1894.95 C 929.35 1860.81 989.87 1875.37 1024.0 1877.33 C 1058.13 1879.3 1107.96 1855.35 1097.07 1889.49 C 1086.18 1923.62 1154.44 1923.62 1131.2 1889.49 C 1107.96 1855.35 1160.53 1879.86 1194.67 1877.33 C 1228.8 1874.81 1270.33 1888.4 1258.79 1854.27 C 1247.26 1820.13 1315.53 1820.13 1292.93 1854.27 C 1270.33 1888.4 1331.2 1881.74 1365.33 1877.33 C 1399.47 1872.93 1445.14 1859.15 1431.79 1893.29 C 1418.44 1927.42 1486.7 1927.42 1465.92 1893.29 C 1445.14 1859.15 1501.87 1872.86 1536.0 1877.33 C 1570.13 1881.81 1618.83 1861.65 1601.79 1895.78 C 1584.75 1929.92 1653.01 1929.92 1635.92 1895.78 C 1618.83 1861.65 1672.53 1884.16 1706.67 1877.33 C 1740.8 1870.51 1792.09 1860.16 1776.59 1894.3 C 1761.09 1928.43 1829.36 1928.43 1810.72 1894.3 C 1792.09 1860.16 1843.2 1872.36 1877.33 1877.33 C 1911.47 1882.3 1968.98 1854.89 1951.6 1889.02 C 1934.22 1923.16 2002.49 1923.16 1985.73 1889.02 C 1968.98 1854.89 2013.87 1882.62 2048.0 1877.33 "></path><path fill="none" stroke="Black" stroke-width="0.1"  class="vertical" d="M 170.67,0.0 C 169.87 34.13 148.38 84.28 182.52 71.53 C 216.65 58.78 216.65 127.05 182.52 105.66 C 148.38 84.28 176.73 136.53 170.67 170.67 C 164.61 204.8 190.21 259.95 156.08 244.3 C 121.94 228.66 121.94 296.93 156.08 278.44 C 190.21 259.95 175.84 307.2 170.67 341.33 C 165.49 375.47 185.47 427.97 151.34 406.23 C 117.21 384.48 117.21 452.75 151.34 440.36 C 185.47 427.97 174.66 477.87 170.67 512.0 C 166.67 546.13 147.45 598.38 181.58 584.2 C 215.72 570.02 215.72 638.29 181.58 618.33 C 147.45 598.38 175.34 648.53 170.67 682.67 C 165.99 716.8 184.23 765.54 150.1 752.98 C 115.96 740.42 115.96 808.68 150.1 787.11 C 184.23 765.54 167.67 819.2 170.67 853.33 C 173.66 887.47 148.22 945.48 182.35 923.63 C 216.48 901.79 216.48 970.05 182.35 957.77 C 148.22 945.48 175.0 989.87 170.67 1024.0 C 166.34 1058.13 148.41 1117.33 182.54 1094.08 C 216.68 1070.83 216.68 1139.09 182.54 1128.21 C 148.41 1117.33 170.65 1160.53 170.67 1194.67 C 170.68 1228.8 149.4 1278.42 183.54 1264.4 C 217.67 1250.39 217.67 1318.65 183.54 1298.53 C 149.4 1278.42 171.38 1331.2 170.67 1365.33 C 169.95 1399.47 186.52 1445.8 152.39 1428.78 C 118.26 1411.75 118.26 1480.01 152.39 1462.91 C 186.52 1445.8 169.28 1501.87 170.67 1536.0 C 172.06 1570.13 155.91 1619.81 190.04 1599.79 C 224.17 1579.77 224.17 1648.04 190.04 1633.93 C 155.91 1619.81 168.23 1672.53 170.67 1706.67 C 173.1 1740.8 194.26 1796.51 160.13 1781.46 C 125.99 1766.41 125.99 1834.68 160.13 1815.59 C 194.26 1796.51 175.32 1843.2 170.67 1877.33 C 166.01 1911.47 158.71 1957.31 192.84 1946.54 C 226.97 1935.78 226.97 2004.04 192.84 1980.67 C 158.71 1957.31 168.32 2013.87 170.67 2048.0 M 341.33,0.0 C 346.53 34.13 362.43 87.57 328.3 68.61 C 294.16 49.65 294.16 117.91 328.3 102.74 C 362.43 87.57 334.95 136.53 341.33 170.67 C 347.71 204.8 361.28 251.18 327.15 237.78 C 293.02 224.38 293.02 292.64 327.15 271.91 C 361.28 251.18 335.51 307.2 341.33 341.33 C 347.16 375.47 319.21 413.51 353.35 402.86 C 387.48 392.21 387.48 460.48 353.35 437.0 C 319.21 413.51 346.1 477.87 341.33 512.0 C 336.57 546.13 329.22 596.88 363.35 576.97 C 397.48 557.06 397.48 625.32 363.35 611.1 C 329.22 596.88 342.01 648.53 341.33 682.67 C 340.66 716.8 356.43 761.72 322.3 750.91 C 288.17 740.09 288.17 808.36 322.3 785.04 C 356.43 761.72 346.09 819.2 341.33 853.33 C 336.58 887.47 363.59 939.52 329.46 918.78 C 295.32 898.03 295.32 966.3 329.46 952.91 C 363.59 939.52 342.84 989.87 341.33 1024.0 C 339.82 1058.13 320.51 1104.74 354.64 1092.64 C 388.78 1080.55 388.78 1148.81 354.64 1126.78 C 320.51 1104.74 340.05 1160.53 341.33 1194.67 C 342.61 1228.8 355.47 1287.47 321.34 1266.14 C 287.21 1244.82 287.21 1313.09 321.34 1300.28 C 355.47 1287.47 342.47 1331.2 341.33 1365.33 C 340.2 1399.47 354.4 1446.54 320.27 1427.42 C 286.13 1408.3 286.13 1476.57 320.27 1461.55 C 354.4 1446.54 339.12 1501.87 341.33 1536.0 C 343.55 1570.13 322.58 1624.94 356.72 1607.75 C 390.85 1590.56 390.85 1658.83 356.72 1641.88 C 322.58 1624.94 341.55 1672.53 341.33 1706.67 C 341.12 1740.8 353.61 1795.65 319.48 1781.49 C 285.35 1767.34 285.35 1835.6 319.48 1815.63 C 353.61 1795.65 348.14 1843.2 341.33 1877.33 C 334.53 1911.47 326.25 1963.0 360.38 1949.98 C 394.51 1936.97 394.51 2005.24 360.38 1984.12 C 326.25 1963.0 340.26 2013.87 341.33 2048.0 M 512.0,0.0 C 511.08 34.13 489.15 83.77 523.28 71.0 C 557.42 58.23 557.42 126.5 523.28 105.13 C 489.15 83.77 513.63 136.53 512.0 170.67 C 510.37 204.8 496.41 254.38 530.55 233.33 C 564.68 212.28 564.68 280.54 530.55 267.46 C 496.41 254.38 513.74 307.2 512.0 341.33 C 510.26 375.47 533.31 432.02 499.17 412.81 C 465.04 393.6 465.04 461.87 499.17 446.94 C 533.31 432.02 514.16 477.87 512.0 512.0 C 509.84 546.13 499.23 587.83 533.37 574.05 C 567.5 560.27 567.5 628.54 533.37 608.19 C 499.23 587.83 517.0 648.53 512.0 682.67 C 507.0 716.8 500.47 760.47 534.6 747.57 C 568.73 734.66 568.73 802.93 534.6 781.7 C 500.47 760.47 509.97 819.2 512.0 853.33 C 514.03 887.47 523.97 939.99 489.84 919.27 C 455.7 898.55 455.7 966.81 489.84 953.4 C 523.97 939.99 507.4 989.87 512.0 1024.0 C 516.6 1058.13 535.78 1116.85 501.65 1095.44 C 467.51 1074.04 467.51 1142.31 501.65 1129.58 C 535.78 1116.85 511.18 1160.53 512.0 1194.67 C 512.82 1228.8 492.93 1285.87 527.06 1264.64 C 561.19 1243.41 561.19 1311.68 527.06 1298.78 C 492.93 1285.87 506.25 1331.2 512.0 1365.33 C 517.75 1399.47 532.32 1453.26 498.19 1439.06 C 464.05 1424.87 464.05 1493.13 498.19 1473.2 C 532.32 1453.26 516.53 1501.87 512.0 1536.0 C 507.47 1570.13 490.14 1629.57 524.27 1610.6 C 558.4 1591.64 558.4 1659.9 524.27 1644.74 C 490.14 1629.57 510.62 1672.53 512.0 1706.67 C 513.38 1740.8 535.87 1796.38 501.74 1777.53 C 467.61 1758.68 467.61 1826.95 501.74 1811.66 C 535.87 1796.38 516.12 1843.2 512.0 1877.33 C 507.88 1911.47 495.1 1974.05 529.23 1951.49 C 563.37 1928.94 563.37 1997.21 529.23 1985.63 C 495.1 1974.05 516.77 2013.87 512.0 2048.0 M 682.67,0.0 C 688.66 34.13 672.09 83.43 706.22 66.93 C 740.35 50.44 740.35 118.7 706.22 101.07 C 672.09 83.43 682.43 136.53 682.67 170.67 C 682.9 204.8 669.74 254.95 703.87 238.93 C 738.01 222.9 738.01 291.17 703.87 273.06 C 669.74 254.95 679.73 307.2 682.67 341.33 C 685.6 375.47 663.32 434.5 697.46 411.68 C 731.59 388.87 731.59 457.14 697.46 445.82 C 663.32 434.5 676.83 477.87 682.67 512.0 C 688.51 546.13 659.88 601.24 694.01 579.82 C 728.15 558.41 728.15 626.68 694.01 613.96 C 659.88 601.24 686.18 648.53 682.67 682.67 C 679.15 716.8 696.59 759.24 662.46 744.91 C 628.32 730.58 628.32 798.85 662.46 779.05 C 696.59 759.24 678.12 819.2 682.67 853.33 C 687.21 887.47 695.25 937.73 661.12 918.84 C 626.98 899.96 626.98 968.22 661.12 952.98 C 695.25 937.73 680.07 989.87 682.67 1024.0 C 685.26 1058.13 692.95 1103.51 658.82 1092.5 C 624.69 1081.49 624.69 1149.75 658.82 1126.63 C 692.95 1103.51 680.66 1160.53 682.67 1194.67 C 684.67 1228.8 666.79 1282.25 700.92 1262.36 C 735.06 1242.47 735.06 1310.74 700.92 1296.5 C 666.79 1282.25 686.74 1331.2 682.67 1365.33 C 678.59 1399.47 700.81 1449.03 666.68 1429.01 C 632.54 1408.98 632.54 1477.24 666.68 1463.14 C 700.81 1449.03 678.97 1501.87 682.67 1536.0 C 686.37 1570.13 694.66 1616.35 660.53 1605.77 C 626.39 1595.18 626.39 1663.45 660.53 1639.9 C 694.66 1616.35 689.22 1672.53 682.67 1706.67 C 676.11 1740.8 702.26 1802.78 668.13 1779.34 C 634.0 1755.91 634.0 1824.18 668.13 1813.48 C 702.26 1802.78 683.69 1843.2 682.67 1877.33 C 681.64 1911.47 700.06 1957.59 665.92 1940.5 C 631.79 1923.42 631.79 1991.68 665.92 1974.63 C 700.06 1957.59 677.48 2013.87 682.67 2048.0 M 853.33,0.0 C 856.5 34.13 838.98 80.71 873.12 66.2 C 907.25 51.68 907.25 119.95 873.12 100.33 C 838.98 80.71 853.89 136.53 853.33 170.67 C 852.78 204.8 838.51 257.92 872.64 244.58 C 906.77 231.24 906.77 299.51 872.64 278.71 C 838.51 257.92 850.1 307.2 853.33 341.33 C 856.57 375.47 834.21 428.29 868.34 412.38 C 902.47 396.48 902.47 464.75 868.34 446.52 C 834.21 428.29 847.24 477.87 853.33 512.0 C 859.42 546.13 833.4 584.9 867.53 573.93 C 901.66 562.96 901.66 631.23 867.53 608.06 C 833.4 584.9 856.52 648.53 853.33 682.67 C 850.15 716.8 872.98 766.46 838.85 752.24 C 804.71 738.01 804.71 806.28 838.85 786.37 C 872.98 766.46 856.9 819.2 853.33 853.33 C 849.77 887.47 865.53 937.88 831.4 914.93 C 797.27 891.98 797.27 960.25 831.4 949.06 C 865.53 937.88 848.67 989.87 853.33 1024.0 C 858.0 1058.13 864.32 1111.58 830.19 1096.34 C 796.06 1081.09 796.06 1149.35 830.19 1130.47 C 864.32 1111.58 847.54 1160.53 853.33 1194.67 C 859.13 1228.8 870.55 1289.46 836.42 1267.99 C 802.29 1246.53 802.29 1314.79 836.42 1302.12 C 870.55 1289.46 858.65 1331.2 853.33 1365.33 C 848.01 1399.47 863.75 1449.38 829.61 1435.04 C 795.48 1420.71 795.48 1488.97 829.61 1469.18 C 863.75 1449.38 851.14 1501.87 853.33 1536.0 C 855.52 1570.13 835.48 1619.84 869.61 1605.34 C 903.75 1590.84 903.75 1659.11 869.61 1639.47 C 835.48 1619.84 848.54 1672.53 853.33 1706.67 C 858.12 1740.8 873.08 1799.02 838.94 1777.21 C 804.81 1755.41 804.81 1823.68 838.94 1811.35 C 873.08 1799.02 847.28 1843.2 853.33 1877.33 C 859.38 1911.47 869.47 1959.74 835.34 1939.52 C 801.2 1919.31 801.2 1987.58 835.34 1973.66 C 869.47 1959.74 855.15 2013.87 853.33 2048.0 M 1024.0,0.0 C 1025.12 34.13 1036.33 92.03 1002.2 73.29 C 968.06 54.55 968.06 122.82 1002.2 107.42 C 1036.33 92.03 1024.05 136.53 1024.0 170.67 C 1023.95 204.8 1036.93 252.23 1002.8 239.9 C 968.66 227.56 968.66 295.82 1002.8 274.03 C 1036.93 252.23 1019.84 307.2 1024.0 341.33 C 1028.16 375.47 1009.81 419.5 1043.94 407.13 C 1078.08 394.75 1078.08 463.02 1043.94 441.26 C 1009.81 419.5 1019.06 477.87 1024.0 512.0 C 1028.94 546.13 1003.25 593.78 1037.39 581.84 C 1071.52 569.89 1071.52 638.16 1037.39 615.97 C 1003.25 593.78 1024.04 648.53 1024.0 682.67 C 1023.96 716.8 1046.35 767.54 1012.22 754.44 C 978.09 741.34 978.09 809.6 1012.22 788.57 C 1046.35 767.54 1024.19 819.2 1024.0 853.33 C 1023.81 887.47 1034.31 941.39 1000.17 922.38 C 966.04 903.37 966.04 971.64 1000.17 956.52 C 1034.31 941.39 1020.52 989.87 1024.0 1024.0 C 1027.48 1058.13 1013.5 1109.81 1047.64 1088.77 C 1081.77 1067.73 1081.77 1136.0 1047.64 1122.91 C 1013.5 1109.81 1027.83 1160.53 1024.0 1194.67 C 1020.17 1228.8 1042.55 1279.54 1008.41 1263.33 C 974.28 1247.12 974.28 1315.38 1008.41 1297.46 C 1042.55 1279.54 1030.31 1331.2 1024.0 1365.33 C 1017.69 1399.47 1038.57 1459.33 1004.44 1439.75 C 970.3 1420.17 970.3 1488.44 1004.44 1473.88 C 1038.57 1459.33 1025.43 1501.87 1024.0 1536.0 C 1022.57 1570.13 1000.58 1620.71 1034.71 1603.18 C 1068.84 1585.64 1068.84 1653.91 1034.71 1637.31 C 1000.58 1620.71 1019.5 1672.53 1024.0 1706.67 C 1028.5 1740.8 1047.3 1787.39 1013.17 1777.01 C 979.03 1766.63 979.03 1834.9 1013.17 1811.14 C 1047.3 1787.39 1018.78 1843.2 1024.0 1877.33 C 1029.22 1911.47 1045.52 1959.0 1011.39 1945.17 C 977.26 1931.33 977.26 1999.6 1011.39 1979.3 C 1045.52 1959.0 1024.8 2013.87 1024.0 2048.0 M 1194.67,0.0 C 1200.19 34.13 1212.61 81.74 1178.48 63.18 C 1144.35 44.63 1144.35 112.9 1178.48 97.32 C 1212.61 81.74 1198.46 136.53 1194.67 170.67 C 1190.87 204.8 1205.14 251.69 1171.01 234.19 C 1136.87 216.69 1136.87 284.96 1171.01 268.32 C 1205.14 251.69 1195.63 307.2 1194.67 341.33 C 1193.71 375.47 1178.21 422.67 1212.34 404.97 C 1246.47 387.26 1246.47 455.53 1212.34 439.1 C 1178.21 422.67 1194.53 477.87 1194.67 512.0 C 1194.8 546.13 1173.56 598.15 1207.69 579.01 C 1241.82 559.87 1241.82 628.14 1207.69 613.14 C 1173.56 598.15 1197.3 648.53 1194.67 682.67 C 1192.04 716.8 1182.42 766.96 1216.56 756.47 C 1250.69 745.99 1250.69 814.25 1216.56 790.61 C 1182.42 766.96 1200.74 819.2 1194.67 853.33 C 1188.59 887.47 1180.19 934.87 1214.32 917.23 C 1248.45 899.6 1248.45 967.87 1214.32 951.37 C 1180.19 934.87 1192.39 989.87 1194.67 1024.0 C 1196.94 1058.13 1176.38 1109.72 1210.51 1091.45 C 1244.65 1073.18 1244.65 1141.44 1210.51 1125.58 C 1176.38 1109.72 1190.28 1160.53 1194.67 1194.67 C 1199.05 1228.8 1207.57 1278.54 1173.43 1258.92 C 1139.3 1239.3 1139.3 1307.56 1173.43 1293.05 C 1207.57 1278.54 1189.07 1331.2 1194.67 1365.33 C 1200.27 1399.47 1213.08 1441.36 1178.95 1426.87 C 1144.81 1412.37 1144.81 1480.64 1178.95 1461.0 C 1213.08 1441.36 1198.65 1501.87 1194.67 1536.0 C 1190.68 1570.13 1178.56 1617.12 1212.7 1603.44 C 1246.83 1589.76 1246.83 1658.03 1212.7 1637.58 C 1178.56 1617.12 1200.83 1672.53 1194.67 1706.67 C 1188.51 1740.8 1180.85 1789.05 1214.98 1773.66 C 1249.12 1758.26 1249.12 1826.52 1214.98 1807.79 C 1180.85 1789.05 1200.28 1843.2 1194.67 1877.33 C 1189.05 1911.47 1177.32 1962.9 1211.46 1943.74 C 1245.59 1924.58 1245.59 1992.85 1211.46 1977.88 C 1177.32 1962.9 1196.87 2013.87 1194.67 2048.0 M 1365.33,0.0 C 1368.71 34.13 1347.02 79.99 1381.16 68.1 C 1415.29 56.21 1415.29 124.47 1381.16 102.23 C 1347.02 79.99 1365.17 136.53 1365.33 170.67 C 1365.49 204.8 1352.24 261.9 1386.38 243.14 C 1420.51 224.38 1420.51 292.65 1386.38 277.27 C 1352.24 261.9 1360.15 307.2 1365.33 341.33 C 1370.52 375.47 1377.98 430.32 1343.84 416.06 C 1309.71 401.81 1309.71 470.08 1343.84 450.2 C 1377.98 430.32 1359.5 477.87 1365.33 512.0 C 1371.16 546.13 1349.08 592.93 1383.21 574.4 C 1417.35 555.87 1417.35 624.14 1383.21 608.53 C 1349.08 592.93 1365.55 648.53 1365.33 682.67 C 1365.11 716.8 1376.41 762.56 1342.28 749.57 C 1308.14 736.58 1308.14 804.85 1342.28 783.71 C 1376.41 762.56 1365.19 819.2 1365.33 853.33 C 1365.48 887.47 1388.93 941.68 1354.8 922.86 C 1320.66 904.05 1320.66 972.32 1354.8 957.0 C 1388.93 941.68 1371.06 989.87 1365.33 1024.0 C 1359.61 1058.13 1379.77 1101.74 1345.63 1086.29 C 1311.5 1070.83 1311.5 1139.1 1345.63 1120.42 C 1379.77 1101.74 1368.62 1160.53 1365.33 1194.67 C 1362.05 1228.8 1377.17 1275.72 1343.03 1256.9 C 1308.9 1238.08 1308.9 1306.34 1343.03 1291.03 C 1377.17 1275.72 1359.95 1331.2 1365.33 1365.33 C 1370.71 1399.47 1376.59 1456.33 1342.46 1436.14 C 1308.33 1415.95 1308.33 1484.22 1342.46 1470.28 C 1376.59 1456.33 1366.96 1501.87 1365.33 1536.0 C 1363.7 1570.13 1377.29 1625.61 1343.15 1608.37 C 1309.02 1591.14 1309.02 1659.4 1343.15 1642.51 C 1377.29 1625.61 1364.61 1672.53 1365.33 1706.67 C 1366.06 1740.8 1385.65 1792.67 1351.52 1781.36 C 1317.39 1770.05 1317.39 1838.31 1351.52 1815.49 C 1385.65 1792.67 1360.4 1843.2 1365.33 1877.33 C 1370.27 1911.47 1385.29 1959.53 1351.15 1944.0 C 1317.02 1928.48 1317.02 1996.75 1351.15 1978.14 C 1385.29 1959.53 1367.18 2013.87 1365.33 2048.0 M 1536.0,0.0 C 1537.93 34.13 1550.9 78.71 1516.77 67.73 C 1482.63 56.75 1482.63 125.02 1516.77 101.86 C 1550.9 78.71 1540.23 136.53 1536.0 170.67 C 1531.77 204.8 1512.94 257.76 1547.08 241.12 C 1581.21 224.48 1581.21 292.75 1547.08 275.26 C 1512.94 257.76 1535.38 307.2 1536.0 341.33 C 1536.62 375.47 1556.47 422.2 1522.33 405.07 C 1488.2 387.94 1488.2 456.21 1522.33 439.2 C 1556.47 422.2 1532.69 477.87 1536.0 512.0 C 1539.31 546.13 1516.62 595.82 1550.75 584.02 C 1584.89 572.22 1584.89 640.48 1550.75 618.15 C 1516.62 595.82 1529.66 648.53 1536.0 682.67 C 1542.34 716.8 1517.02 772.0 1551.16 748.7 C 1585.29 725.39 1585.29 793.66 1551.16 782.83 C 1517.02 772.0 1530.67 819.2 1536.0 853.33 C 1541.33 887.47 1524.86 939.24 1559.0 918.96 C 1593.13 898.69 1593.13 966.96 1559.0 953.1 C 1524.86 939.24 1540.32 989.87 1536.0 1024.0 C 1531.68 1058.13 1524.33 1105.93 1558.47 1090.11 C 1592.6 1074.29 1592.6 1142.55 1558.47 1124.24 C 1524.33 1105.93 1540.58 1160.53 1536.0 1194.67 C 1531.42 1228.8 1551.89 1284.63 1517.76 1263.59 C 1483.62 1242.55 1483.62 1310.82 1517.76 1297.73 C 1551.89 1284.63 1533.31 1331.2 1536.0 1365.33 C 1538.69 1399.47 1557.51 1450.53 1523.37 1437.76 C 1489.24 1424.99 1489.24 1493.26 1523.37 1471.9 C 1557.51 1450.53 1529.3 1501.87 1536.0 1536.0 C 1542.7 1570.13 1553.13 1633.42 1519.0 1609.65 C 1484.86 1585.89 1484.86 1654.16 1519.0 1643.79 C 1553.13 1633.42 1539.34 1672.53 1536.0 1706.67 C 1532.66 1740.8 1512.71 1791.06 1546.84 1773.61 C 1580.97 1756.17 1580.97 1824.44 1546.84 1807.75 C 1512.71 1791.06 1537.52 1843.2 1536.0 1877.33 C 1534.48 1911.47 1521.74 1964.1 1555.87 1943.69 C 1590.0 1923.28 1590.0 1991.55 1555.87 1977.82 C 1521.74 1964.1 1535.13 2013.87 1536.0 2048.0 M 1706.67,0.0 C 1700.89 34.13 1687.24 83.36 1721.37 73.09 C 1755.5 62.83 1755.5 131.1 1721.37 107.23 C 1687.24 83.36 1712.47 136.53 1706.67 170.67 C 1700.86 204.8 1686.5 248.24 1720.64 236.55 C 1754.77 224.87 1754.77 293.14 1720.64 270.69 C 1686.5 248.24 1712.67 307.2 1706.67 341.33 C 1700.66 375.47 1728.38 432.07 1694.25 409.91 C 1660.12 387.74 1660.12 456.01 1694.25 444.04 C 1728.38 432.07 1708.39 477.87 1706.67 512.0 C 1704.94 546.13 1726.85 589.12 1692.72 576.64 C 1658.59 564.15 1658.59 632.42 1692.72 610.77 C 1726.85 589.12 1706.87 648.53 1706.67 682.67 C 1706.46 716.8 1725.04 775.62 1690.91 756.1 C 1656.78 736.57 1656.78 804.84 1690.91 790.23 C 1725.04 775.62 1710.39 819.2 1706.67 853.33 C 1702.94 887.47 1688.01 944.51 1722.15 927.61 C 1756.28 910.71 1756.28 978.98 1722.15 961.75 C 1688.01 944.51 1702.04 989.87 1706.67 1024.0 C 1711.29 1058.13 1691.48 1111.86 1725.61 1088.87 C 1759.74 1065.89 1759.74 1134.16 1725.61 1123.01 C 1691.48 1111.86 1708.15 1160.53 1706.67 1194.67 C 1705.18 1228.8 1692.86 1279.68 1727.0 1257.49 C 1761.13 1235.3 1761.13 1303.56 1727.0 1291.62 C 1692.86 1279.68 1702.18 1331.2 1706.67 1365.33 C 1711.15 1399.47 1724.29 1459.39 1690.16 1436.17 C 1656.03 1412.95 1656.03 1481.22 1690.16 1470.3 C 1724.29 1459.39 1706.36 1501.87 1706.67 1536.0 C 1706.97 1570.13 1689.03 1619.47 1723.16 1603.49 C 1757.29 1587.51 1757.29 1655.78 1723.16 1637.62 C 1689.03 1619.47 1709.14 1672.53 1706.67 1706.67 C 1704.2 1740.8 1686.38 1794.56 1720.51 1772.01 C 1754.64 1749.46 1754.64 1817.73 1720.51 1806.15 C 1686.38 1794.56 1711.54 1843.2 1706.67 1877.33 C 1701.79 1911.47 1687.61 1964.83 1721.74 1943.31 C 1755.88 1921.79 1755.88 1990.06 1721.74 1977.45 C 1687.61 1964.83 1713.29 2013.87 1706.67 2048.0 M 1877.33,0.0 C 1876.47 34.13 1862.51 89.62 1896.64 71.57 C 1930.77 53.51 1930.77 121.78 1896.64 105.7 C 1862.51 89.62 1883.98 136.53 1877.33 170.67 C 1870.69 204.8 1858.78 257.19 1892.91 236.95 C 1927.04 216.7 1927.04 284.97 1892.91 271.08 C 1858.78 257.19 1878.65 307.2 1877.33 341.33 C 1876.01 375.47 1900.95 434.99 1866.82 414.41 C 1832.69 393.83 1832.69 462.09 1866.82 448.54 C 1900.95 434.99 1872.57 477.87 1877.33 512.0 C 1882.09 546.13 1860.15 601.49 1894.28 583.32 C 1928.41 565.14 1928.41 633.41 1894.28 617.45 C 1860.15 601.49 1871.77 648.53 1877.33 682.67 C 1882.9 716.8 1892.87 777.23 1858.74 757.19 C 1824.6 737.16 1824.6 805.42 1858.74 791.33 C 1892.87 777.23 1878.0 819.2 1877.33 853.33 C 1876.66 887.47 1900.16 944.52 1866.03 926.32 C 1831.9 908.13 1831.9 976.4 1866.03 960.46 C 1900.16 944.52 1873.23 989.87 1877.33 1024.0 C 1881.44 1058.13 1889.0 1108.65 1854.86 1088.96 C 1820.73 1069.26 1820.73 1137.53 1854.86 1123.09 C 1889.0 1108.65 1879.64 1160.53 1877.33 1194.67 C 1875.02 1228.8 1856.08 1285.75 1890.22 1267.98 C 1924.35 1250.21 1924.35 1318.48 1890.22 1302.12 C 1856.08 1285.75 1879.27 1331.2 1877.33 1365.33 C 1875.4 1399.47 1853.66 1457.86 1887.8 1435.84 C 1921.93 1413.82 1921.93 1482.08 1887.8 1469.97 C 1853.66 1457.86 1873.74 1501.87 1877.33 1536.0 C 1880.93 1570.13 1855.12 1611.62 1889.25 1600.35 C 1923.39 1589.07 1923.39 1657.34 1889.25 1634.48 C 1855.12 1611.62 1878.51 1672.53 1877.33 1706.67 C 1876.15 1740.8 1889.05 1787.61 1854.92 1770.11 C 1820.78 1752.61 1820.78 1820.87 1854.92 1804.24 C 1889.05 1787.61 1876.7 1843.2 1877.33 1877.33 C 1877.96 1911.47 1863.25 1957.76 1897.39 1947.21 C 1931.52 1936.67 1931.52 2004.94 1897.39 1981.35 C 1863.25 1957.76 1874.84 2013.87 1877.33 2048.0 "></path><path fill="none" stroke="Black" stroke-width="0.1" class="border" d="M 2.0 0.0 L 2046.0 0.0 A 2.0 2.0 0 0 1 2048.0 2.0 L 2048.0 2046.0 A 2.0 2.0 0 0 1 2046.0 2048.0 L 2.0 2048.0 A 2.0 2.0 0 0 1 0.0 2046.0 L 0.0 2.0 A 2.0 2.0 0 0 1 2.0 0.0 "></path></svg>