<svg xmlns="http://www.w3.org/2000/svg" version="1.0" viewBox="0 0 4 4">
  <path d="M 0,0 L 4,0 " class="horizontal" fill="none" stroke="black" stroke-width="0.01"/>
  <path d="M 0.0,1.0 C 0.07 1.0 0.12 0.97 0.2 0.99 C 0.28 1.01 0.44 1.12 0.47 1.1 C 0.5 1.09 0.4 0.97 0.37 0.9 C 0.34 0.83 0.21 0.73 0.26 0.7 C 0.31 0.67 0.61 0.67 0.66 0.7 C 0.71 0.73 0.6 0.83 0.57 0.9 C 0.54 0.97 0.43 1.09 0.47 1.1 C 0.51 1.11 0.71 0.99 0.8 0.97 C 0.89 0.95 0.93 0.99 1.0 1.0 C 1.07 1.01 1.11 1.05 1.2 1.03 C 1.29 1.01 1.5 0.89 1.54 0.9 C 1.58 0.91 1.45 1.03 1.41 1.1 C 1.37 1.17 1.24 1.27 1.28 1.3 C 1.32 1.33 1.62 1.33 1.68 1.3 C 1.74 1.27 1.63 1.17 1.61 1.1 C 1.59 1.03 1.51 0.92 1.54 0.9 C 1.57 0.88 1.72 0.99 1.8 1.01 C 1.88 1.03 1.93 1.0 2.0 1.0 C 2.07 1.0 2.11 1.01 2.2 0.99 C 2.29 0.97 2.5 0.86 2.54 0.88 C 2.58 0.9 2.45 1.01 2.41 1.08 C 2.37 1.15 2.24 1.25 2.28 1.28 C 2.32 1.31 2.62 1.31 2.68 1.28 C 2.74 1.25 2.63 1.15 2.61 1.08 C 2.59 1.01 2.51 0.89 2.54 0.88 C 2.57 0.87 2.72 1.01 2.8 1.03 C 2.88 1.05 2.93 1.01 3.0 1.0 C 3.07 0.99 3.12 0.99 3.2 0.97 C 3.28 0.95 3.47 0.86 3.51 0.88 C 3.55 0.9 3.45 1.01 3.42 1.08 C 3.39 1.15 3.28 1.25 3.33 1.28 C 3.38 1.31 3.68 1.31 3.73 1.28 C 3.78 1.25 3.66 1.15 3.62 1.08 C 3.58 1.01 3.48 0.89 3.51 0.88 C 3.54 0.87 3.72 1.0 3.8 1.02 C 3.88 1.04 3.93 1.01 4.0 1.0 " class="horizontal" fill="none" stroke="black" stroke-width="0.01"/>
  <path d="M 0.0,2.0 C 0.07 2.0 0.11 2.0 0.2 2.01 C 0.29 2.02 0.5 2.09 0.54 2.07 C 0.58 2.05 0.46 1.94 0.42 1.87 C 0.38 1.8 0.25 1.7 0.3 1.67 C 0.35 1.64 0.65 1.64 0.7 1.67 C 0.75 1.7 0.65 1.8 0.62 1.87 C 0.59 1.94 0.51 2.05 0.54 2.07 C 0.57 2.09 0.72 2.01 0.8 2.0 C 0.88 1.99 0.93 2.0 1.0 2.0 C 1.07 2.0 1.11 2.02 1.2 2.0 C 1.29 1.98 1.52 1.85 1.55 1.86 C 1.58 1.87 1.45 1.99 1.41 2.06 C 1.36 2.13 1.24 2.23 1.28 2.26 C 1.32 2.29 1.62 2.29 1.68 2.26 C 1.74 2.23 1.63 2.13 1.61 2.06 C 1.59 1.99 1.52 1.87 1.55 1.86 C 1.58 1.85 1.72 1.99 1.8 2.01 C 1.88 2.03 1.93 2.0 2.0 2.0 C 2.07 2.0 2.12 1.97 2.2 1.99 C 2.28 2.01 2.42 2.13 2.45 2.12 C 2.48 2.11 2.41 1.99 2.39 1.92 C 2.37 1.85 2.26 1.75 2.32 1.72 C 2.38 1.69 2.68 1.69 2.72 1.72 C 2.76 1.75 2.64 1.85 2.59 1.92 C 2.54 1.99 2.42 2.1 2.45 2.12 C 2.49 2.14 2.71 2.03 2.8 2.01 C 2.89 1.99 2.93 2.0 3.0 2.0 C 3.07 2.0 3.12 1.97 3.2 1.99 C 3.28 2.01 3.47 2.13 3.5 2.12 C 3.53 2.11 3.42 1.99 3.38 1.92 C 3.34 1.85 3.21 1.75 3.26 1.72 C 3.31 1.69 3.61 1.69 3.66 1.72 C 3.71 1.75 3.61 1.85 3.58 1.92 C 3.55 1.99 3.46 2.1 3.5 2.12 C 3.54 2.14 3.72 2.04 3.8 2.02 C 3.88 2.0 3.93 2.01 4.0 2.0 " class="horizontal" fill="none" stroke="black" stroke-width="0.01"/>
  <path d="M 0.0,3.0 C 0.07 3.0 0.12 2.99 0.2 3.01 C 0.28 3.03 0.44 3.13 0.47 3.11 C 0.5 3.09 0.39 2.98 0.36 2.91 C 0.32 2.84 0.21 2.74 0.26 2.71 C 0.31 2.68 0.61 2.68 0.66 2.71 C 0.71 2.74 0.59 2.84 0.56 2.91 C 0.53 2.98 0.43 3.09 0.47 3.11 C 0.51 3.13 0.71 3.03 0.8 3.01 C 0.89 2.99 0.93 3.0 1.0 3.0 C 1.07 3.0 1.11 2.98 1.2 2.99 C 1.29 3.0 1.5 3.1 1.54 3.08 C 1.58 3.06 1.45 2.95 1.41 2.88 C 1.37 2.81 1.24 2.71 1.29 2.68 C 1.34 2.65 1.64 2.65 1.69 2.68 C 1.74 2.71 1.64 2.81 1.61 2.88 C 1.59 2.95 1.51 3.05 1.54 3.08 C 1.57 3.11 1.72 3.05 1.8 3.04 C 1.88 3.03 1.93 3.01 2.0 3.0 C 2.07 2.99 2.13 2.98 2.2 2.96 C 2.27 2.94 2.41 2.87 2.44 2.89 C 2.47 2.91 2.4 3.02 2.37 3.09 C 2.35 3.16 2.24 3.26 2.29 3.29 C 2.34 3.32 2.64 3.32 2.69 3.29 C 2.74 3.26 2.61 3.16 2.57 3.09 C 2.53 3.02 2.4 2.91 2.44 2.89 C 2.48 2.87 2.71 2.97 2.8 2.99 C 2.89 3.01 2.93 3.0 3.0 3.0 C 3.07 3.0 3.11 3.02 3.2 3.01 C 3.29 3.0 3.52 2.92 3.56 2.94 C 3.6 2.96 3.48 3.07 3.44 3.14 C 3.4 3.21 3.27 3.31 3.32 3.34 C 3.37 3.37 3.67 3.37 3.72 3.34 C 3.77 3.31 3.67 3.21 3.64 3.14 C 3.61 3.07 3.53 2.96 3.56 2.94 C 3.59 2.92 3.73 3.01 3.8 3.02 C 3.87 3.03 3.93 3.01 4.0 3.0 " class="horizontal" fill="none" stroke="black" stroke-width="0.01"/>
  <path d="M 0,4 L 4,4 " class="horizontal" fill="none" stroke="black" stroke-width="0.01"/>
  <path d="M 0,0 L 0,4 " class="vertical" fill="none" stroke="black" stroke-width="0.01"/>
  <path d="M 1.0,0.0 C 1.0 0.07 1.01 0.12 0.99 0.2 C 0.97 0.28 0.88 0.47 0.9 0.5 C 0.92 0.53 1.03 0.44 1.1 0.4 C 1.17 0.36 1.27 0.24 1.3 0.29 C 1.33 0.34 1.33 0.64 1.3 0.69 C 1.27 0.74 1.17 0.63 1.1 0.6 C 1.03 0.57 0.92 0.47 0.9 0.5 C 0.88 0.53 0.95 0.72 0.97 0.8 C 0.99 0.88 0.99 0.93 1.0 1.0 C 1.01 1.07 1.04 1.12 1.03 1.2 C 1.02 1.28 0.92 1.43 0.94 1.46 C 0.96 1.49 1.07 1.4 1.14 1.37 C 1.21 1.34 1.31 1.22 1.34 1.27 C 1.37 1.32 1.37 1.62 1.34 1.67 C 1.31 1.72 1.21 1.6 1.14 1.57 C 1.07 1.54 0.96 1.42 0.94 1.46 C 0.92 1.5 1.0 1.71 1.01 1.8 C 1.02 1.89 1.0 1.93 1.0 2.0 C 1.0 2.07 1.0 2.12 0.99 2.2 C 0.98 2.28 0.9 2.47 0.92 2.5 C 0.94 2.53 1.05 2.41 1.12 2.37 C 1.19 2.33 1.29 2.2 1.32 2.24 C 1.35 2.28 1.35 2.58 1.32 2.64 C 1.29 2.7 1.19 2.59 1.12 2.57 C 1.05 2.55 0.94 2.46 0.92 2.5 C 0.9 2.54 1.0 2.72 1.01 2.8 C 1.02 2.88 1.0 2.93 1.0 3.0 C 1.0 3.07 0.97 3.11 0.99 3.2 C 1.01 3.29 1.13 3.48 1.12 3.52 C 1.11 3.56 0.99 3.45 0.92 3.41 C 0.85 3.37 0.75 3.24 0.72 3.29 C 0.69 3.34 0.69 3.64 0.72 3.69 C 0.75 3.74 0.85 3.64 0.92 3.61 C 0.99 3.58 1.11 3.49 1.12 3.52 C 1.13 3.55 1.0 3.72 0.98 3.8 C 0.96 3.88 0.99 3.93 1.0 4.0 " class="vertical" fill="none" stroke="black" stroke-width="0.01"/>
  <path d="M 2.0,0.0 C 1.99 0.07 1.98 0.12 1.97 0.2 C 1.96 0.29 1.91 0.48 1.94 0.51 C 1.97 0.54 2.07 0.43 2.14 0.39 C 2.21 0.35 2.31 0.23 2.34 0.28 C 2.37 0.33 2.37 0.63 2.34 0.68 C 2.31 0.73 2.21 0.62 2.14 0.59 C 2.07 0.56 1.96 0.48 1.94 0.51 C 1.92 0.55 1.98 0.72 1.99 0.8 C 2.0 0.88 2.0 0.93 2.0 1.0 C 2.0 1.07 2.03 1.12 2.01 1.2 C 1.99 1.28 1.87 1.47 1.88 1.5 C 1.89 1.53 2.01 1.42 2.08 1.38 C 2.15 1.34 2.25 1.21 2.28 1.26 C 2.31 1.31 2.31 1.61 2.28 1.66 C 2.25 1.71 2.15 1.61 2.08 1.58 C 2.01 1.55 1.89 1.46 1.88 1.5 C 1.87 1.54 2.0 1.72 2.02 1.8 C 2.04 1.88 2.01 1.93 2.0 2.0 C 1.99 2.07 1.99 2.11 1.98 2.2 C 1.97 2.3 1.9 2.53 1.93 2.57 C 1.95 2.61 2.06 2.48 2.13 2.44 C 2.2 2.4 2.3 2.26 2.33 2.31 C 2.36 2.36 2.36 2.66 2.33 2.71 C 2.3 2.76 2.2 2.66 2.13 2.64 C 2.06 2.62 1.95 2.54 1.93 2.57 C 1.91 2.6 2.0 2.73 2.01 2.8 C 2.02 2.87 2.0 2.93 2.0 3.0 C 2.0 3.07 2.01 3.12 1.99 3.2 C 1.97 3.28 1.86 3.48 1.87 3.51 C 1.88 3.54 2.0 3.43 2.07 3.39 C 2.14 3.35 2.24 3.22 2.27 3.26 C 2.3 3.3 2.3 3.6 2.27 3.66 C 2.24 3.72 2.14 3.62 2.07 3.59 C 2.0 3.56 1.89 3.47 1.87 3.51 C 1.85 3.54 1.95 3.72 1.97 3.8 C 1.99 3.88 1.99 3.93 2.0 4.0 " class="vertical" fill="none" stroke="black" stroke-width="0.01"/>
  <path d="M 3.0,0.0 C 3.01 0.07 3.03 0.12 3.02 0.2 C 3.01 0.28 2.91 0.47 2.93 0.5 C 2.95 0.53 3.06 0.41 3.13 0.37 C 3.2 0.33 3.3 0.19 3.33 0.24 C 3.36 0.28 3.36 0.58 3.33 0.64 C 3.3 0.7 3.2 0.59 3.13 0.57 C 3.06 0.55 2.95 0.46 2.93 0.5 C 2.91 0.54 2.99 0.72 3.0 0.8 C 3.01 0.88 3.0 0.93 3.0 1.0 C 3.0 1.07 2.98 1.12 3.0 1.2 C 3.02 1.28 3.13 1.43 3.12 1.46 C 3.11 1.49 2.99 1.41 2.92 1.39 C 2.85 1.36 2.75 1.26 2.72 1.31 C 2.69 1.36 2.69 1.66 2.72 1.71 C 2.75 1.76 2.85 1.63 2.92 1.59 C 2.99 1.55 3.1 1.42 3.12 1.46 C 3.14 1.5 3.04 1.71 3.02 1.8 C 3.0 1.89 3.01 1.93 3.0 2.0 C 2.99 2.07 2.96 2.11 2.98 2.2 C 3.0 2.29 3.14 2.48 3.13 2.52 C 3.12 2.56 3.0 2.46 2.93 2.42 C 2.86 2.38 2.76 2.26 2.73 2.31 C 2.7 2.36 2.7 2.66 2.73 2.71 C 2.76 2.76 2.86 2.65 2.93 2.62 C 3.0 2.59 3.12 2.49 3.13 2.52 C 3.14 2.55 2.99 2.72 2.97 2.8 C 2.95 2.88 2.99 2.93 3.0 3.0 C 3.01 3.07 3.02 3.12 3.03 3.2 C 3.04 3.28 3.1 3.47 3.08 3.5 C 3.06 3.53 2.95 3.42 2.88 3.38 C 2.81 3.34 2.71 3.22 2.68 3.27 C 2.65 3.32 2.65 3.62 2.68 3.67 C 2.71 3.72 2.81 3.61 2.88 3.58 C 2.95 3.55 3.06 3.46 3.08 3.5 C 3.1 3.54 3.02 3.72 3.01 3.8 C 3.0 3.88 3.0 3.93 3.0 4.0 " class="vertical" fill="none" stroke="black" stroke-width="0.01"/>
  <path d="M 4,0 L 4,4 " class="vertical" fill="none" stroke="black" stroke-width="0.01"/>
</svg>
