<svg xmlns="http://www.w3.org/2000/svg" width="2048" height="2048" viewBox="0 0 2048 2048">
  <path d="M 0.0,256.0 C 51.2 260.07 124.85 240.48 92.33 291.68 C 59.81 342.88 162.21 342.88 143.53 291.68 C 124.85 240.48 204.8 245.85 256.0 256.0 C 307.2 266.15 379.31 279.81 356.44 228.61 C 333.57 177.41 435.97 177.41 407.64 228.61 C 379.31 279.81 460.8 253.22 512.0 256.0 C 563.2 258.78 637.76 291.04 610.67 239.84 C 583.58 188.64 685.98 188.64 661.87 239.84 C 637.76 291.04 716.8 262.51 768.0 256.0 C 819.2 249.49 890.44 225.82 865.72 277.02 C 841.01 328.22 943.41 328.22 916.92 277.02 C 890.44 225.82 972.8 264.49 1024.0 256.0 C 1075.2 247.51 1151.6 277.27 1135.97 226.07 C 1120.34 174.87 1222.74 174.87 1187.17 226.07 C 1151.6 277.27 1228.8 257.78 1280.0 256.0 C 1331.2 254.22 1407.0 226.0 1374.45 277.2 C 1341.89 328.4 1444.29 328.4 1425.65 277.2 C 1407.0 226.0 1484.8 259.75 1536.0 256.0 C 1587.2 252.25 1657.09 237.73 1633.85 288.93 C 1610.62 340.13 1713.02 340.13 1685.05 288.93 C 1657.09 237.73 1740.8 249.62 1792.0 256.0 C 1843.2 262.38 1914.47 224.36 1895.0 275.56 C 1875.54 326.76 1977.94 326.76 1946.2 275.56 C 1914.47 224.36 1996.8 262.4 2048.0 256.0" class="horizontal" stroke="black" fill="none" stroke-width="1"/>
  <path d="M 0.0,512.0 C 51.2 512.58 119.7 479.75 96.38 530.95 C 73.06 582.15 175.46 582.15 147.58 530.95 C 119.7 479.75 204.8 509.13 256.0 512.0 C 307.2 514.87 391.2 542.15 362.86 490.95 C 334.52 439.75 436.92 439.75 414.06 490.95 C 391.2 542.15 460.8 508.76 512.0 512.0 C 563.2 515.24 640.68 477.3 612.83 528.5 C 584.98 579.7 687.38 579.7 664.03 528.5 C 640.68 477.3 716.8 508.04 768.0 512.0 C 819.2 515.96 912.6 538.58 877.98 487.38 C 843.35 436.18 945.75 436.18 929.18 487.38 C 912.6 538.58 972.8 517.53 1024.0 512.0 C 1075.2 506.47 1155.43 487.61 1127.27 538.81 C 1099.1 590.01 1201.5 590.01 1178.47 538.81 C 1155.43 487.61 1228.8 504.4 1280.0 512.0 C 1331.2 519.6 1393.03 479.07 1372.23 530.27 C 1351.43 581.47 1453.83 581.47 1423.43 530.27 C 1393.03 479.07 1484.8 515.91 1536.0 512.0 C 1587.2 508.09 1671.06 530.86 1639.45 479.66 C 1607.85 428.46 1710.25 428.46 1690.65 479.66 C 1671.06 530.86 1740.8 520.89 1792.0 512.0 C 1843.2 503.11 1910.68 477.02 1888.25 528.22 C 1865.83 579.42 1968.23 579.42 1939.45 528.22 C 1910.68 477.02 1996.8 503.6 2048.0 512.0" class="horizontal" stroke="black" fill="none" stroke-width="1"/>
  <path d="M 0.0,768.0 C 51.2 773.97 122.73 802.5 93.93 751.3 C 65.12 700.1 167.52 700.1 145.13 751.3 C 122.73 802.5 204.8 758.23 256.0 768.0 C 307.2 777.77 383.77 783.61 353.08 732.41 C 322.39 681.21 424.79 681.21 404.28 732.41 C 383.77 783.61 460.8 760.1 512.0 768.0 C 563.2 775.9 641.4 738.04 609.15 789.24 C 576.9 840.44 679.3 840.44 660.35 789.24 C 641.4 738.04 716.8 760.94 768.0 768.0 C 819.2 775.06 903.13 741.84 876.5 793.04 C 849.88 844.24 952.28 844.24 927.7 793.04 C 903.13 741.84 972.8 759.58 1024.0 768.0 C 1075.2 776.42 1155.62 793.86 1122.04 742.66 C 1088.46 691.46 1190.86 691.46 1173.24 742.66 C 1155.62 793.86 1228.8 769.24 1280.0 768.0 C 1331.2 766.76 1411.83 800.09 1383.54 748.89 C 1355.26 697.69 1457.66 697.69 1434.74 748.89 C 1411.83 800.09 1484.8 763.47 1536.0 768.0 C 1587.2 772.53 1673.74 741.19 1639.33 792.39 C 1604.93 843.59 1707.33 843.59 1690.53 792.39 C 1673.74 741.19 1740.8 762.39 1792.0 768.0 C 1843.2 773.61 1926.0 786.88 1897.11 735.68 C 1868.22 684.48 1970.62 684.48 1948.31 735.68 C 1926.0 786.88 1996.8 777.55 2048.0 768.0" class="horizontal" stroke="black" fill="none" stroke-width="1"/>
  <path d="M 0.0,1024.0 C 51.2 1032.56 119.46 990.93 97.86 1042.13 C 76.26 1093.33 178.66 1093.33 149.06 1042.13 C 119.46 990.93 204.8 1028.57 256.0 1024.0 C 307.2 1019.43 383.56 1006.7 362.05 1057.9 C 340.54 1109.1 442.94 1109.1 413.25 1057.9 C 383.56 1006.7 460.8 1018.7 512.0 1024.0 C 563.2 1029.3 650.26 994.09 615.22 1045.29 C 580.18 1096.49 682.58 1096.49 666.42 1045.29 C 650.26 994.09 716.8 1019.56 768.0 1024.0 C 819.2 1028.44 881.61 1045.61 862.83 994.41 C 844.06 943.21 946.46 943.21 914.03 994.41 C 881.61 1045.61 972.8 1029.33 1024.0 1024.0 C 1075.2 1018.67 1160.25 992.15 1126.22 1043.35 C 1092.2 1094.55 1194.6 1094.55 1177.42 1043.35 C 1160.25 992.15 1228.8 1033.23 1280.0 1024.0 C 1331.2 1014.77 1421.71 1041.87 1386.29 990.67 C 1350.87 939.47 1453.27 939.47 1437.49 990.67 C 1421.71 1041.87 1484.8 1018.5 1536.0 1024.0 C 1587.2 1029.5 1660.8 1055.26 1633.06 1004.06 C 1605.33 952.86 1707.73 952.86 1684.26 1004.06 C 1660.8 1055.26 1740.8 1032.55 1792.0 1024.0 C 1843.2 1015.45 1915.21 994.14 1891.85 1045.34 C 1868.49 1096.54 1970.89 1096.54 1943.05 1045.34 C 1915.21 994.14 1996.8 1028.44 2048.0 1024.0" class="horizontal" stroke="black" fill="none" stroke-width="1"/>
  <path d="M 0.0,1280.0 C 51.2 1281.17 137.24 1246.94 107.98 1298.14 C 78.72 1349.34 181.12 1349.34 159.18 1298.14 C 137.24 1246.94 204.8 1289.05 256.0 1280.0 C 307.2 1270.95 382.58 1257.11 360.96 1308.31 C 339.34 1359.51 441.74 1359.51 412.16 1308.31 C 382.58 1257.11 460.8 1288.65 512.0 1280.0 C 563.2 1271.35 656.03 1251.53 621.01 1302.73 C 585.99 1353.93 688.39 1353.93 672.21 1302.73 C 656.03 1251.53 716.8 1287.98 768.0 1280.0 C 819.2 1272.02 888.91 1253.02 872.7 1304.22 C 856.5 1355.42 958.9 1355.42 923.9 1304.22 C 888.91 1253.02 972.8 1289.42 1024.0 1280.0 C 1075.2 1270.58 1142.96 1253.52 1122.76 1304.72 C 1102.57 1355.92 1204.97 1355.92 1173.96 1304.72 C 1142.96 1253.52 1228.8 1286.0 1280.0 1280.0 C 1331.2 1274.0 1415.35 1254.73 1383.68 1305.93 C 1352.0 1357.13 1454.4 1357.13 1434.88 1305.93 C 1415.35 1254.73 1484.8 1272.62 1536.0 1280.0 C 1587.2 1287.38 1663.93 1258.88 1646.13 1310.08 C 1628.34 1361.28 1730.74 1361.28 1697.33 1310.08 C 1663.93 1258.88 1740.8 1280.32 1792.0 1280.0 C 1843.2 1279.68 1900.14 1296.51 1884.61 1245.31 C 1869.08 1194.11 1971.48 1194.11 1935.81 1245.31 C 1900.14 1296.51 1996.8 1279.55 2048.0 1280.0" class="horizontal" stroke="black" fill="none" stroke-width="1"/>
  <path d="M 0.0,1536.0 C 51.2 1531.23 117.04 1561.54 93.58 1510.34 C 70.12 1459.14 172.52 1459.14 144.78 1510.34 C 117.04 1561.54 204.8 1545.1 256.0 1536.0 C 307.2 1526.9 373.05 1500.16 357.48 1551.36 C 341.9 1602.56 444.3 1602.56 408.68 1551.36 C 373.05 1500.16 460.8 1526.08 512.0 1536.0 C 563.2 1545.92 629.53 1553.8 609.03 1502.6 C 588.52 1451.4 690.92 1451.4 660.23 1502.6 C 629.53 1553.8 716.8 1543.36 768.0 1536.0 C 819.2 1528.64 895.94 1565.75 863.12 1514.55 C 830.31 1463.35 932.71 1463.35 914.32 1514.55 C 895.94 1565.75 972.8 1543.15 1024.0 1536.0 C 1075.2 1528.85 1148.0 1518.32 1130.74 1569.52 C 1113.47 1620.72 1215.87 1620.72 1181.94 1569.52 C 1148.0 1518.32 1228.8 1543.52 1280.0 1536.0 C 1331.2 1528.48 1422.99 1559.58 1388.97 1508.38 C 1354.95 1457.18 1457.35 1457.18 1440.17 1508.38 C 1422.99 1559.58 1484.8 1537.2 1536.0 1536.0 C 1587.2 1534.8 1674.51 1569.45 1644.15 1518.25 C 1613.8 1467.05 1716.2 1467.05 1695.35 1518.25 C 1674.51 1569.45 1740.8 1538.16 1792.0 1536.0 C 1843.2 1533.84 1928.9 1511.74 1903.47 1562.94 C 1878.04 1614.14 1980.44 1614.14 1954.67 1562.94 C 1928.9 1511.74 1996.8 1530.01 2048.0 1536.0" class="horizontal" stroke="black" fill="none" stroke-width="1"/>
  <path d="M 0.0,1792.0 C 51.2 1791.83 137.82 1767.85 107.67 1819.05 C 77.52 1870.25 179.92 1870.25 158.87 1819.05 C 137.82 1767.85 204.8 1797.56 256.0 1792.0 C 307.2 1786.44 377.8 1817.92 359.38 1766.72 C 340.95 1715.52 443.35 1715.52 410.58 1766.72 C 377.8 1817.92 460.8 1790.73 512.0 1792.0 C 563.2 1793.27 632.12 1771.32 609.94 1822.52 C 587.75 1873.72 690.15 1873.72 661.14 1822.52 C 632.12 1771.32 716.8 1790.06 768.0 1792.0 C 819.2 1793.94 909.88 1818.71 877.57 1767.51 C 845.25 1716.31 947.65 1716.31 928.77 1767.51 C 909.88 1818.71 972.8 1800.29 1024.0 1792.0 C 1075.2 1783.71 1150.61 1808.75 1118.73 1757.55 C 1086.85 1706.35 1189.25 1706.35 1169.93 1757.55 C 1150.61 1808.75 1228.8 1786.46 1280.0 1792.0 C 1331.2 1797.54 1410.89 1822.36 1382.2 1771.16 C 1353.51 1719.96 1455.91 1719.96 1433.4 1771.16 C 1410.89 1822.36 1484.8 1798.25 1536.0 1792.0 C 1587.2 1785.75 1679.35 1765.45 1646.13 1816.65 C 1612.92 1867.85 1715.32 1867.85 1697.33 1816.65 C 1679.35 1765.45 1740.8 1798.38 1792.0 1792.0 C 1843.2 1785.62 1907.35 1767.67 1887.63 1818.87 C 1867.9 1870.07 1970.3 1870.07 1938.83 1818.87 C 1907.35 1767.67 1996.8 1799.0 2048.0 1792.0" class="horizontal" stroke="black" fill="none" stroke-width="1"/>
  <path d="M 256.0,0.0 C 255.13 51.2 226.52 124.71 277.72 102.1 C 328.92 79.49 328.92 181.89 277.72 153.3 C 226.52 124.71 262.85 204.8 256.0 256.0 C 249.15 307.2 239.65 395.69 290.85 364.43 C 342.05 333.17 342.05 435.57 290.85 415.63 C 239.65 395.69 256.71 460.8 256.0 512.0 C 255.29 563.2 236.11 650.8 287.31 623.36 C 338.51 595.92 338.51 698.32 287.31 674.56 C 236.11 650.8 253.09 716.8 256.0 768.0 C 258.91 819.2 227.18 907.08 278.38 874.53 C 329.58 841.97 329.58 944.37 278.38 925.73 C 227.18 907.08 247.63 972.8 256.0 1024.0 C 264.37 1075.2 278.22 1142.2 227.02 1125.53 C 175.82 1108.86 175.82 1211.26 227.02 1176.73 C 278.22 1142.2 249.46 1228.8 256.0 1280.0 C 262.54 1331.2 228.66 1425.08 279.86 1392.62 C 331.06 1360.16 331.06 1462.56 279.86 1443.82 C 228.66 1425.08 265.16 1484.8 256.0 1536.0 C 246.84 1587.2 232.98 1661.21 284.18 1638.28 C 335.38 1615.35 335.38 1717.75 284.18 1689.48 C 232.98 1661.21 261.24 1740.8 256.0 1792.0 C 250.76 1843.2 225.39 1912.2 276.59 1892.99 C 327.79 1873.78 327.79 1976.18 276.59 1944.19 C 225.39 1912.2 252.9 1996.8 256.0 2048.0" class="vertical" stroke="black" fill="none" stroke-width="1"/>
  <path d="M 512.0,0.0 C 506.43 51.2 493.45 122.11 544.65 106.15 C 595.85 90.18 595.85 192.58 544.65 157.35 C 493.45 122.11 520.1 204.8 512.0 256.0 C 503.9 307.2 477.13 381.89 528.33 364.31 C 579.53 346.74 579.53 449.14 528.33 415.51 C 477.13 381.89 513.54 460.8 512.0 512.0 C 510.46 563.2 484.88 643.75 536.08 615.49 C 587.28 587.23 587.28 689.63 536.08 666.69 C 484.88 643.75 516.21 716.8 512.0 768.0 C 507.79 819.2 496.23 897.94 547.43 872.34 C 598.63 846.74 598.63 949.14 547.43 923.54 C 496.23 897.94 519.18 972.8 512.0 1024.0 C 504.82 1075.2 530.58 1143.93 479.38 1116.21 C 428.18 1088.5 428.18 1190.9 479.38 1167.41 C 530.58 1143.93 509.16 1228.8 512.0 1280.0 C 514.84 1331.2 495.03 1396.39 546.23 1372.53 C 597.43 1348.67 597.43 1451.07 546.23 1423.73 C 495.03 1396.39 518.9 1484.8 512.0 1536.0 C 505.1 1587.2 482.22 1661.3 533.42 1632.97 C 584.62 1604.65 584.62 1707.05 533.42 1684.17 C 482.22 1661.3 503.1 1740.8 512.0 1792.0 C 520.9 1843.2 484.15 1932.26 535.35 1896.82 C 586.55 1861.37 586.55 1963.77 535.35 1948.02 C 484.15 1932.26 506.54 1996.8 512.0 2048.0" class="vertical" stroke="black" fill="none" stroke-width="1"/>
  <path d="M 768.0,0.0 C 774.43 51.2 795.23 128.08 744.03 112.53 C 692.83 96.98 692.83 199.38 744.03 163.73 C 795.23 128.08 773.11 204.8 768.0 256.0 C 762.89 307.2 799.88 395.03 748.68 365.58 C 697.48 336.12 697.48 438.52 748.68 416.78 C 799.88 395.03 770.0 460.8 768.0 512.0 C 766.0 563.2 749.4 637.21 800.6 616.76 C 851.8 596.32 851.8 698.72 800.6 667.96 C 749.4 637.21 760.5 716.8 768.0 768.0 C 775.5 819.2 803.01 884.61 751.81 861.87 C 700.61 839.13 700.61 941.53 751.81 913.07 C 803.01 884.61 770.75 972.8 768.0 1024.0 C 765.25 1075.2 791.6 1143.0 740.4 1117.43 C 689.2 1091.85 689.2 1194.25 740.4 1168.63 C 791.6 1143.0 762.0 1228.8 768.0 1280.0 C 774.0 1331.2 786.17 1394.76 734.97 1376.43 C 683.77 1358.1 683.77 1460.5 734.97 1427.63 C 786.17 1394.76 775.25 1484.8 768.0 1536.0 C 760.75 1587.2 802.5 1656.05 751.3 1635.1 C 700.1 1614.16 700.1 1716.56 751.3 1686.3 C 802.5 1656.05 759.5 1740.8 768.0 1792.0 C 776.5 1843.2 783.78 1909.26 732.58 1885.57 C 681.38 1861.88 681.38 1964.28 732.58 1936.77 C 783.78 1909.26 777.23 1996.8 768.0 2048.0" class="vertical" stroke="black" fill="none" stroke-width="1"/>
  <path d="M 1024.0,0.0 C 1033.94 51.2 992.58 122.36 1043.78 106.89 C 1094.98 91.43 1094.98 193.83 1043.78 158.09 C 992.58 122.36 1026.31 204.8 1024.0 256.0 C 1021.69 307.2 1056.9 375.32 1005.7 350.99 C 954.5 326.66 954.5 429.06 1005.7 402.19 C 1056.9 375.32 1028.92 460.8 1024.0 512.0 C 1019.08 563.2 996.47 646.15 1047.67 620.85 C 1098.87 595.55 1098.87 697.95 1047.67 672.05 C 996.47 646.15 1025.8 716.8 1024.0 768.0 C 1022.2 819.2 990.58 894.94 1041.78 864.18 C 1092.98 833.41 1092.98 935.81 1041.78 915.38 C 990.58 894.94 1027.73 972.8 1024.0 1024.0 C 1020.27 1075.2 1055.95 1151.35 1004.75 1125.84 C 953.55 1100.33 953.55 1202.73 1004.75 1177.04 C 1055.95 1151.35 1024.6 1228.8 1024.0 1280.0 C 1023.4 1331.2 1056.64 1413.83 1005.44 1390.15 C 954.24 1366.46 954.24 1468.86 1005.44 1441.35 C 1056.64 1413.83 1031.18 1484.8 1024.0 1536.0 C 1016.82 1587.2 989.76 1665.02 1040.96 1644.16 C 1092.16 1623.3 1092.16 1725.7 1040.96 1695.36 C 989.76 1665.02 1022.96 1740.8 1024.0 1792.0 C 1025.04 1843.2 1048.28 1934.0 997.08 1903.13 C 945.88 1872.26 945.88 1974.66 997.08 1954.33 C 1048.28 1934.0 1031.77 1996.8 1024.0 2048.0" class="vertical" stroke="black" fill="none" stroke-width="1"/>
  <path d="M 1280.0,0.0 C 1281.64 51.2 1308.06 121.54 1256.86 102.89 C 1205.66 84.25 1205.66 186.65 1256.86 154.09 C 1308.06 121.54 1279.41 204.8 1280.0 256.0 C 1280.59 307.2 1303.35 383.97 1252.15 358.06 C 1200.95 332.14 1200.95 434.54 1252.15 409.26 C 1303.35 383.97 1288.97 460.8 1280.0 512.0 C 1271.03 563.2 1245.29 621.74 1296.49 605.91 C 1347.69 590.08 1347.69 692.48 1296.49 657.11 C 1245.29 621.74 1270.68 716.8 1280.0 768.0 C 1289.32 819.2 1253.2 898.45 1304.4 870.99 C 1355.6 843.53 1355.6 945.93 1304.4 922.19 C 1253.2 898.45 1279.49 972.8 1280.0 1024.0 C 1280.51 1075.2 1247.16 1149.25 1298.36 1117.19 C 1349.56 1085.13 1349.56 1187.53 1298.36 1168.39 C 1247.16 1149.25 1282.35 1228.8 1280.0 1280.0 C 1277.65 1331.2 1245.3 1408.49 1296.5 1373.42 C 1347.7 1338.35 1347.7 1440.75 1296.5 1424.62 C 1245.3 1408.49 1281.25 1484.8 1280.0 1536.0 C 1278.75 1587.2 1247.7 1663.58 1298.9 1632.23 C 1350.1 1600.87 1350.1 1703.27 1298.9 1683.43 C 1247.7 1663.58 1279.21 1740.8 1280.0 1792.0 C 1280.79 1843.2 1261.63 1913.3 1312.83 1892.28 C 1364.03 1871.25 1364.03 1973.65 1312.83 1943.48 C 1261.63 1913.3 1275.07 1996.8 1280.0 2048.0" class="vertical" stroke="black" fill="none" stroke-width="1"/>
  <path d="M 1536.0,0.0 C 1535.0 51.2 1516.91 122.59 1568.11 100.41 C 1619.31 78.22 1619.31 180.62 1568.11 151.61 C 1516.91 122.59 1531.67 204.8 1536.0 256.0 C 1540.33 307.2 1552.52 383.97 1501.32 349.23 C 1450.12 314.48 1450.12 416.88 1501.32 400.43 C 1552.52 383.97 1534.49 460.8 1536.0 512.0 C 1537.51 563.2 1552.97 651.6 1501.77 623.04 C 1450.57 594.48 1450.57 696.88 1501.77 674.24 C 1552.97 651.6 1530.27 716.8 1536.0 768.0 C 1541.73 819.2 1511.66 909.46 1562.86 874.22 C 1614.06 838.97 1614.06 941.37 1562.86 925.42 C 1511.66 909.46 1534.34 972.8 1536.0 1024.0 C 1537.66 1075.2 1507.75 1159.29 1558.95 1129.9 C 1610.15 1100.51 1610.15 1202.91 1558.95 1181.1 C 1507.75 1159.29 1542.93 1228.8 1536.0 1280.0 C 1529.07 1331.2 1511.75 1403.15 1562.95 1387.68 C 1614.15 1372.22 1614.15 1474.62 1562.95 1438.88 C 1511.75 1403.15 1536.38 1484.8 1536.0 1536.0 C 1535.62 1587.2 1520.03 1676.38 1571.23 1645.59 C 1622.43 1614.79 1622.43 1717.19 1571.23 1696.79 C 1520.03 1676.38 1525.77 1740.8 1536.0 1792.0 C 1546.23 1843.2 1517.24 1920.74 1568.44 1890.48 C 1619.64 1860.22 1619.64 1962.62 1568.44 1941.68 C 1517.24 1920.74 1543.09 1996.8 1536.0 2048.0" class="vertical" stroke="black" fill="none" stroke-width="1"/>
  <path d="M 1792.0,0.0 C 1793.79 51.2 1809.31 136.42 1758.11 108.54 C 1706.91 80.66 1706.91 183.06 1758.11 159.74 C 1809.31 136.42 1787.49 204.8 1792.0 256.0 C 1796.51 307.2 1775.5 366.9 1826.7 350.53 C 1877.9 334.17 1877.9 436.57 1826.7 401.73 C 1775.5 366.9 1798.75 460.8 1792.0 512.0 C 1785.25 563.2 1818.61 632.44 1767.41 611.2 C 1716.21 589.96 1716.21 692.36 1767.41 662.4 C 1818.61 632.44 1797.68 716.8 1792.0 768.0 C 1786.32 819.2 1816.04 894.6 1764.84 868.6 C 1713.64 842.6 1713.64 945.0 1764.84 919.8 C 1816.04 894.6 1800.89 972.8 1792.0 1024.0 C 1783.11 1075.2 1772.07 1140.34 1823.27 1122.54 C 1874.47 1104.74 1874.47 1207.14 1823.27 1173.74 C 1772.07 1140.34 1796.44 1228.8 1792.0 1280.0 C 1787.56 1331.2 1822.18 1420.68 1770.98 1387.98 C 1719.78 1355.28 1719.78 1457.68 1770.98 1439.18 C 1822.18 1420.68 1801.4 1484.8 1792.0 1536.0 C 1782.6 1587.2 1767.56 1659.62 1818.76 1634.75 C 1869.96 1609.89 1869.96 1712.29 1818.76 1685.95 C 1767.56 1659.62 1801.18 1740.8 1792.0 1792.0 C 1782.82 1843.2 1767.0 1915.93 1818.2 1893.55 C 1869.4 1871.17 1869.4 1973.57 1818.2 1944.75 C 1767.0 1915.93 1788.06 1996.8 1792.0 2048.0" class="vertical" stroke="black" fill="none" stroke-width="1"/>
  <path d="M 2.0 0.0 L 2046.0 0.0 A 2.0 2.0 0 0 1 2048.0 2.0 L 2048.0 2046.0 A 2.0 2.0 0 0 1 2046.0 2048.0 L 2.0 2048.0 A 2.0 2.0 0 0 1 0.0 2046.0 L 0.0 2.0 A 2.0 2.0 0 0 1 2.0 0.0 " class="border" stroke="black" fill="none" stroke-width="1"/>
</svg>
