<svg xmlns="http://www.w3.org/2000/svg" viewBox="0 0 8 8">
  <path d="M 0,0 L 8,0 " class="horizontal" stroke="black" fill="none" stroke-width="1"/>
  <path d="M 0.0,1.0 C 0.07 1.01 0.11 1.04 0.2 1.02 C 0.29 1.0 0.5 0.85 0.54 0.86 C 0.58 0.87 0.47 0.99 0.43 1.06 C 0.39 1.13 0.26 1.23 0.31 1.26 C 0.36 1.29 0.66 1.29 0.71 1.26 C 0.76 1.23 0.66 1.13 0.63 1.06 C 0.6 0.99 0.51 0.86 0.54 0.86 C 0.57 0.86 0.72 1.02 0.8 1.04 C 0.88 1.06 0.93 1.01 1.0 1.0 C 1.07 0.99 1.12 0.94 1.2 0.96 C 1.28 0.98 1.44 1.14 1.47 1.14 C 1.5 1.14 1.4 1.01 1.37 0.94 C 1.34 0.87 1.22 0.77 1.27 0.74 C 1.32 0.71 1.62 0.71 1.67 0.74 C 1.72 0.77 1.6 0.87 1.57 0.94 C 1.54 1.01 1.43 1.13 1.47 1.14 C 1.51 1.15 1.71 1.03 1.8 1.01 C 1.89 0.99 1.93 1.0 2.0 1.0 C 2.07 1.0 2.12 1.01 2.2 0.99 C 2.28 0.97 2.47 0.85 2.51 0.86 C 2.55 0.87 2.45 0.99 2.42 1.06 C 2.39 1.13 2.28 1.23 2.33 1.26 C 2.38 1.29 2.68 1.29 2.73 1.26 C 2.78 1.23 2.66 1.13 2.62 1.06 C 2.58 0.99 2.48 0.87 2.51 0.86 C 2.54 0.85 2.72 1.0 2.8 1.02 C 2.88 1.04 2.93 1.01 3.0 1.0 C 3.07 0.99 3.11 0.99 3.2 0.98 C 3.29 0.97 3.5 0.9 3.53 0.92 C 3.56 0.94 3.44 1.05 3.4 1.12 C 3.36 1.19 3.22 1.29 3.26 1.32 C 3.3 1.35 3.6 1.35 3.66 1.32 C 3.72 1.29 3.62 1.19 3.6 1.12 C 3.58 1.05 3.5 0.94 3.53 0.92 C 3.56 0.9 3.72 0.97 3.8 0.98 C 3.88 0.99 3.93 0.99 4.0 1.0 C 4.07 1.01 4.12 1.0 4.2 1.02 C 4.28 1.04 4.47 1.14 4.5 1.13 C 4.53 1.12 4.43 1.0 4.39 0.93 C 4.35 0.86 4.22 0.76 4.27 0.73 C 4.32 0.7 4.62 0.7 4.67 0.73 C 4.72 0.76 4.62 0.86 4.59 0.93 C 4.56 1.0 4.46 1.11 4.5 1.13 C 4.54 1.15 4.72 1.05 4.8 1.03 C 4.88 1.01 4.93 1.01 5.0 1.0 C 5.07 0.99 5.11 0.99 5.2 0.97 C 5.29 0.95 5.5 0.87 5.54 0.89 C 5.58 0.91 5.47 1.02 5.44 1.09 C 5.41 1.16 5.29 1.26 5.34 1.29 C 5.39 1.32 5.69 1.32 5.74 1.29 C 5.79 1.26 5.67 1.16 5.64 1.09 C 5.61 1.02 5.51 0.91 5.54 0.89 C 5.57 0.87 5.72 0.96 5.8 0.98 C 5.88 1.0 5.93 0.99 6.0 1.0 C 6.07 1.01 6.11 1.03 6.2 1.02 C 6.29 1.01 6.48 0.92 6.52 0.94 C 6.56 0.96 6.46 1.07 6.42 1.14 C 6.38 1.21 6.26 1.31 6.31 1.34 C 6.36 1.37 6.66 1.37 6.71 1.34 C 6.76 1.31 6.65 1.21 6.62 1.14 C 6.59 1.07 6.49 0.96 6.52 0.94 C 6.55 0.92 6.72 1.03 6.8 1.04 C 6.88 1.05 6.93 1.01 7.0 1.0 C 7.07 0.99 7.11 0.95 7.2 0.96 C 7.29 0.97 7.48 1.08 7.52 1.07 C 7.56 1.06 7.45 0.94 7.41 0.87 C 7.37 0.8 7.25 0.7 7.3 0.67 C 7.35 0.64 7.65 0.64 7.7 0.67 C 7.75 0.7 7.64 0.8 7.61 0.87 C 7.58 0.94 7.49 1.05 7.52 1.07 C 7.55 1.09 7.72 1.02 7.8 1.01 C 7.88 1.0 7.93 1.0 8.0 1.0 " class="horizontal" stroke="black" fill="none" stroke-width="1"/>
  <path d="M 0.0,2.0 C 0.07 1.99 0.12 1.97 0.2 1.96 C 0.28 1.95 0.44 1.89 0.48 1.92 C 0.52 1.95 0.43 2.05 0.41 2.12 C 0.39 2.19 0.29 2.29 0.34 2.32 C 0.4 2.35 0.7 2.35 0.74 2.32 C 0.78 2.29 0.65 2.19 0.61 2.12 C 0.57 2.05 0.45 1.95 0.48 1.92 C 0.51 1.89 0.71 1.95 0.8 1.96 C 0.89 1.97 0.93 1.99 1.0 2.0 C 1.07 2.01 1.12 2.02 1.2 2.04 C 1.28 2.06 1.44 2.15 1.47 2.13 C 1.5 2.11 1.42 2.0 1.4 1.93 C 1.38 1.86 1.28 1.76 1.33 1.73 C 1.38 1.7 1.68 1.7 1.73 1.73 C 1.78 1.76 1.64 1.86 1.6 1.93 C 1.56 2.0 1.44 2.12 1.47 2.13 C 1.5 2.13 1.71 1.98 1.8 1.96 C 1.89 1.94 1.93 1.99 2.0 2.0 C 2.07 2.01 2.11 2.06 2.2 2.04 C 2.29 2.02 2.5 1.87 2.54 1.87 C 2.58 1.88 2.47 2.0 2.43 2.07 C 2.39 2.14 2.27 2.24 2.32 2.27 C 2.37 2.3 2.67 2.3 2.72 2.27 C 2.77 2.24 2.66 2.14 2.63 2.07 C 2.6 2.0 2.51 1.88 2.54 1.87 C 2.57 1.86 2.72 1.99 2.8 2.01 C 2.88 2.03 2.93 2.0 3.0 2.0 C 3.07 2.0 3.12 2.01 3.2 1.99 C 3.28 1.97 3.45 1.87 3.49 1.89 C 3.53 1.91 3.45 2.02 3.43 2.09 C 3.41 2.16 3.31 2.26 3.37 2.29 C 3.43 2.32 3.73 2.32 3.77 2.29 C 3.81 2.26 3.68 2.16 3.63 2.09 C 3.58 2.02 3.46 1.9 3.49 1.89 C 3.52 1.88 3.72 2.01 3.8 2.03 C 3.88 2.05 3.93 2.01 4.0 2.0 C 4.07 1.99 4.12 1.95 4.2 1.97 C 4.28 1.99 4.42 2.12 4.45 2.11 C 4.48 2.1 4.4 1.98 4.37 1.91 C 4.34 1.84 4.24 1.74 4.29 1.71 C 4.34 1.68 4.64 1.68 4.69 1.71 C 4.74 1.74 4.61 1.84 4.57 1.91 C 4.53 1.98 4.41 2.1 4.45 2.11 C 4.49 2.12 4.71 1.99 4.8 1.97 C 4.89 1.95 4.93 1.99 5.0 2.0 C 5.07 2.01 5.12 2.02 5.2 2.03 C 5.28 2.04 5.48 2.1 5.51 2.08 C 5.54 2.06 5.44 1.95 5.4 1.88 C 5.36 1.81 5.24 1.71 5.29 1.68 C 5.34 1.65 5.64 1.65 5.69 1.68 C 5.74 1.71 5.63 1.81 5.6 1.88 C 5.57 1.95 5.48 2.06 5.51 2.08 C 5.54 2.1 5.72 2.03 5.8 2.02 C 5.88 2.01 5.93 2.01 6.0 2.0 C 6.07 1.99 6.12 2.0 6.2 1.98 C 6.28 1.96 6.45 1.87 6.49 1.89 C 6.53 1.91 6.44 2.02 6.42 2.09 C 6.4 2.16 6.3 2.26 6.35 2.29 C 6.4 2.32 6.7 2.32 6.75 2.29 C 6.8 2.26 6.66 2.16 6.62 2.09 C 6.58 2.02 6.46 1.9 6.49 1.89 C 6.52 1.88 6.72 2.0 6.8 2.02 C 6.88 2.04 6.93 2.01 7.0 2.0 C 7.07 1.99 7.12 2.0 7.2 1.98 C 7.28 1.96 7.48 1.86 7.51 1.87 C 7.54 1.88 7.44 2.0 7.41 2.07 C 7.38 2.14 7.26 2.24 7.31 2.27 C 7.36 2.3 7.66 2.3 7.71 2.27 C 7.76 2.24 7.64 2.14 7.61 2.07 C 7.58 2.0 7.48 1.88 7.51 1.87 C 7.54 1.86 7.72 1.98 7.8 2.0 C 7.88 2.02 7.93 2.0 8.0 2.0 " class="horizontal" stroke="black" fill="none" stroke-width="1"/>
  <path d="M 0.0,3.0 C 0.07 2.99 0.13 2.98 0.2 2.96 C 0.27 2.94 0.41 2.84 0.44 2.86 C 0.47 2.88 0.4 2.99 0.38 3.06 C 0.36 3.13 0.26 3.23 0.31 3.26 C 0.36 3.29 0.66 3.29 0.71 3.26 C 0.76 3.23 0.62 3.13 0.58 3.06 C 0.53 2.99 0.4 2.87 0.44 2.86 C 0.48 2.85 0.71 2.99 0.8 3.01 C 0.89 3.03 0.93 3.0 1.0 3.0 C 1.07 3.0 1.12 3.01 1.2 2.99 C 1.28 2.97 1.43 2.86 1.46 2.88 C 1.49 2.9 1.4 3.01 1.37 3.08 C 1.34 3.15 1.24 3.25 1.29 3.28 C 1.34 3.31 1.64 3.31 1.69 3.28 C 1.74 3.25 1.61 3.15 1.57 3.08 C 1.53 3.01 1.42 2.9 1.46 2.88 C 1.5 2.86 1.71 2.97 1.8 2.99 C 1.89 3.01 1.93 3.0 2.0 3.0 C 2.07 3.0 2.12 3.03 2.2 3.01 C 2.28 2.99 2.44 2.88 2.47 2.9 C 2.51 2.92 2.43 3.03 2.41 3.1 C 2.39 3.17 2.28 3.27 2.34 3.3 C 2.4 3.33 2.7 3.33 2.74 3.3 C 2.78 3.27 2.66 3.17 2.61 3.1 C 2.56 3.03 2.44 2.92 2.47 2.9 C 2.5 2.88 2.71 2.99 2.8 3.01 C 2.89 3.03 2.93 3.0 3.0 3.0 C 3.07 3.0 3.12 3.01 3.2 2.99 C 3.28 2.97 3.45 2.88 3.48 2.9 C 3.51 2.92 3.41 3.03 3.38 3.1 C 3.35 3.17 3.23 3.27 3.28 3.3 C 3.33 3.33 3.63 3.33 3.68 3.3 C 3.73 3.27 3.61 3.17 3.58 3.1 C 3.55 3.03 3.44 2.92 3.48 2.9 C 3.52 2.88 3.71 2.98 3.8 3.0 C 3.89 3.02 3.93 3.0 4.0 3.0 C 4.07 3.0 4.12 2.99 4.2 3.0 C 4.28 3.01 4.46 3.09 4.5 3.07 C 4.54 3.05 4.44 2.94 4.41 2.87 C 4.38 2.8 4.28 2.7 4.33 2.67 C 4.38 2.64 4.68 2.64 4.73 2.67 C 4.78 2.7 4.65 2.8 4.61 2.87 C 4.57 2.94 4.47 3.05 4.5 3.07 C 4.53 3.09 4.72 3.01 4.8 3.0 C 4.88 2.99 4.93 3.0 5.0 3.0 C 5.07 3.0 5.11 2.98 5.2 3.0 C 5.3 3.02 5.53 3.13 5.57 3.12 C 5.61 3.11 5.48 2.99 5.43 2.92 C 5.38 2.85 5.25 2.75 5.29 2.72 C 5.33 2.69 5.63 2.69 5.69 2.72 C 5.75 2.75 5.65 2.85 5.63 2.92 C 5.61 2.99 5.54 3.11 5.57 3.12 C 5.6 3.13 5.73 2.98 5.8 2.96 C 5.87 2.94 5.93 2.99 6.0 3.0 C 6.07 3.01 6.11 3.02 6.2 3.04 C 6.29 3.06 6.51 3.15 6.55 3.13 C 6.59 3.11 6.46 3.0 6.42 2.93 C 6.38 2.86 6.24 2.76 6.28 2.73 C 6.32 2.7 6.62 2.7 6.68 2.73 C 6.74 2.76 6.64 2.86 6.62 2.93 C 6.6 3.0 6.52 3.11 6.55 3.13 C 6.58 3.15 6.72 3.06 6.8 3.04 C 6.88 3.02 6.93 3.01 7.0 3.0 C 7.07 2.99 7.11 2.94 7.2 2.96 C 7.29 2.98 7.48 3.13 7.52 3.12 C 7.56 3.11 7.46 2.99 7.43 2.92 C 7.4 2.85 7.3 2.75 7.35 2.72 C 7.4 2.69 7.7 2.69 7.75 2.72 C 7.8 2.75 7.67 2.85 7.63 2.92 C 7.59 2.99 7.49 3.11 7.52 3.12 C 7.55 3.13 7.72 3.02 7.8 3.0 C 7.88 2.98 7.93 3.0 8.0 3.0 " class="horizontal" stroke="black" fill="none" stroke-width="1"/>
  <path d="M 0.0,4.0 C 0.07 3.99 0.12 3.98 0.2 3.97 C 0.28 3.96 0.44 3.9 0.47 3.93 C 0.5 3.96 0.43 4.06 0.41 4.13 C 0.39 4.2 0.29 4.3 0.35 4.33 C 0.41 4.36 0.71 4.36 0.75 4.33 C 0.79 4.3 0.66 4.2 0.61 4.13 C 0.56 4.06 0.44 3.95 0.47 3.93 C 0.5 3.91 0.71 3.99 0.8 4.0 C 0.89 4.01 0.93 4.0 1.0 4.0 C 1.07 4.0 1.12 3.99 1.2 4.0 C 1.28 4.01 1.46 4.1 1.49 4.08 C 1.52 4.06 1.42 3.95 1.38 3.88 C 1.34 3.81 1.22 3.71 1.27 3.68 C 1.32 3.65 1.62 3.65 1.67 3.68 C 1.72 3.71 1.61 3.81 1.58 3.88 C 1.55 3.95 1.45 4.06 1.49 4.08 C 1.53 4.1 1.72 4.03 1.8 4.02 C 1.88 4.01 1.93 4.01 2.0 4.0 C 2.07 3.99 2.11 3.96 2.2 3.98 C 2.3 4.0 2.53 4.15 2.57 4.14 C 2.61 4.13 2.48 4.01 2.44 3.94 C 2.4 3.87 2.26 3.77 2.3 3.74 C 2.34 3.71 2.64 3.71 2.7 3.74 C 2.76 3.77 2.66 3.87 2.64 3.94 C 2.62 4.01 2.54 4.13 2.57 4.14 C 2.6 4.15 2.73 4.03 2.8 4.01 C 2.87 3.99 2.93 4.0 3.0 4.0 C 3.07 4.0 3.11 3.98 3.2 3.99 C 3.3 4.0 3.53 4.09 3.57 4.07 C 3.61 4.05 3.48 3.94 3.44 3.87 C 3.4 3.8 3.26 3.7 3.31 3.67 C 3.36 3.64 3.66 3.64 3.71 3.67 C 3.76 3.7 3.66 3.8 3.64 3.87 C 3.62 3.94 3.54 4.05 3.57 4.07 C 3.6 4.09 3.73 3.99 3.8 3.98 C 3.87 3.97 3.93 3.99 4.0 4.0 C 4.07 4.01 4.12 4.04 4.2 4.02 C 4.28 4.0 4.46 3.89 4.49 3.9 C 4.52 3.91 4.42 4.03 4.38 4.1 C 4.34 4.17 4.22 4.27 4.27 4.3 C 4.32 4.33 4.62 4.33 4.67 4.3 C 4.72 4.27 4.61 4.17 4.58 4.1 C 4.55 4.03 4.45 3.92 4.49 3.9 C 4.53 3.88 4.72 3.95 4.8 3.97 C 4.88 3.99 4.93 3.99 5.0 4.0 C 5.07 4.01 5.12 4.01 5.2 4.03 C 5.28 4.05 5.46 4.15 5.49 4.13 C 5.52 4.11 5.43 4.0 5.4 3.93 C 5.37 3.86 5.25 3.76 5.3 3.73 C 5.35 3.7 5.65 3.7 5.7 3.73 C 5.75 3.76 5.64 3.86 5.6 3.93 C 5.56 4.0 5.46 4.12 5.49 4.13 C 5.52 4.14 5.72 4.03 5.8 4.01 C 5.88 3.99 5.93 4.0 6.0 4.0 C 6.07 4.0 6.11 4.0 6.2 3.99 C 6.29 3.98 6.49 3.89 6.53 3.91 C 6.57 3.93 6.46 4.04 6.43 4.11 C 6.4 4.18 6.29 4.28 6.34 4.31 C 6.39 4.34 6.69 4.34 6.74 4.31 C 6.79 4.28 6.66 4.18 6.63 4.11 C 6.6 4.04 6.5 3.93 6.53 3.91 C 6.56 3.89 6.72 3.99 6.8 4.01 C 6.88 4.02 6.93 4.0 7.0 4.0 C 7.07 4.0 7.12 4.01 7.2 3.99 C 7.28 3.97 7.47 3.86 7.51 3.87 C 7.55 3.88 7.45 4.0 7.42 4.07 C 7.39 4.14 7.28 4.24 7.33 4.27 C 7.38 4.3 7.68 4.3 7.73 4.27 C 7.78 4.24 7.66 4.14 7.62 4.07 C 7.58 4.0 7.48 3.88 7.51 3.87 C 7.54 3.86 7.72 3.97 7.8 3.99 C 7.88 4.01 7.93 4.0 8.0 4.0 " class="horizontal" stroke="black" fill="none" stroke-width="1"/>
  <path d="M 0.0,5.0 C 0.07 5.0 0.11 5.02 0.2 5.0 C 0.29 4.98 0.49 4.87 0.52 4.88 C 0.55 4.89 0.43 5.01 0.39 5.08 C 0.35 5.15 0.22 5.25 0.26 5.28 C 0.3 5.31 0.6 5.31 0.66 5.28 C 0.72 5.25 0.61 5.15 0.59 5.08 C 0.57 5.01 0.48 4.9 0.52 4.88 C 0.56 4.86 0.72 4.95 0.8 4.97 C 0.88 4.99 0.93 4.99 1.0 5.0 C 1.07 5.01 1.12 5.04 1.2 5.03 C 1.28 5.02 1.46 4.9 1.49 4.91 C 1.52 4.92 1.43 5.04 1.41 5.11 C 1.38 5.18 1.28 5.28 1.34 5.31 C 1.4 5.34 1.7 5.34 1.74 5.31 C 1.78 5.28 1.65 5.18 1.61 5.11 C 1.57 5.04 1.46 4.92 1.49 4.91 C 1.52 4.9 1.72 5.03 1.8 5.04 C 1.88 5.06 1.93 5.01 2.0 5.0 C 2.07 4.99 2.12 4.98 2.2 4.96 C 2.28 4.94 2.43 4.87 2.46 4.89 C 2.49 4.91 2.4 5.02 2.37 5.09 C 2.34 5.16 2.23 5.26 2.28 5.29 C 2.33 5.32 2.63 5.32 2.68 5.29 C 2.73 5.26 2.61 5.16 2.57 5.09 C 2.53 5.02 2.42 4.91 2.46 4.89 C 2.5 4.87 2.71 4.97 2.8 4.99 C 2.89 5.01 2.93 5.0 3.0 5.0 C 3.07 5.0 3.12 5.03 3.2 5.01 C 3.28 4.99 3.43 4.87 3.46 4.88 C 3.49 4.89 3.4 5.01 3.37 5.08 C 3.34 5.15 3.24 5.25 3.29 5.28 C 3.34 5.31 3.64 5.31 3.69 5.28 C 3.74 5.25 3.61 5.15 3.57 5.08 C 3.53 5.01 3.42 4.89 3.46 4.88 C 3.5 4.87 3.71 4.99 3.8 5.01 C 3.89 5.03 3.93 5.0 4.0 5.0 C 4.07 5.0 4.11 5.01 4.2 4.99 C 4.29 4.97 4.51 4.85 4.55 4.86 C 4.59 4.87 4.48 4.99 4.44 5.06 C 4.4 5.13 4.28 5.23 4.33 5.26 C 4.38 5.29 4.68 5.29 4.73 5.26 C 4.78 5.23 4.67 5.13 4.64 5.06 C 4.61 4.99 4.52 4.87 4.55 4.86 C 4.58 4.85 4.72 4.98 4.8 5.0 C 4.88 5.02 4.93 5.0 5.0 5.0 C 5.07 5.0 5.12 5.02 5.2 5.0 C 5.28 4.98 5.48 4.86 5.51 4.87 C 5.54 4.88 5.42 5.0 5.37 5.07 C 5.32 5.14 5.2 5.24 5.24 5.27 C 5.28 5.3 5.58 5.3 5.64 5.27 C 5.69 5.24 5.59 5.14 5.57 5.07 C 5.55 5.0 5.47 4.89 5.51 4.87 C 5.55 4.85 5.72 4.95 5.8 4.97 C 5.88 4.99 5.93 4.99 6.0 5.0 C 6.07 5.01 6.11 5.02 6.2 5.03 C 6.29 5.04 6.51 5.11 6.55 5.08 C 6.59 5.06 6.47 4.95 6.43 4.88 C 6.39 4.81 6.26 4.71 6.31 4.68 C 6.36 4.65 6.66 4.65 6.71 4.68 C 6.76 4.71 6.66 4.81 6.63 4.88 C 6.6 4.95 6.52 5.06 6.55 5.08 C 6.58 5.1 6.72 5.03 6.8 5.02 C 6.88 5.01 6.93 5.01 7.0 5.0 C 7.07 4.99 7.12 4.96 7.2 4.98 C 7.28 5.0 7.46 5.11 7.49 5.1 C 7.52 5.09 7.43 4.97 7.4 4.9 C 7.37 4.83 7.26 4.73 7.31 4.7 C 7.36 4.67 7.66 4.67 7.71 4.7 C 7.76 4.73 7.64 4.83 7.6 4.9 C 7.56 4.97 7.46 5.09 7.49 5.1 C 7.52 5.11 7.72 5.0 7.8 4.98 C 7.88 4.96 7.93 4.99 8.0 5.0 " class="horizontal" stroke="black" fill="none" stroke-width="1"/>
  <path d="M 0.0,6.0 C 0.07 6.0 0.12 6.02 0.2 6.01 C 0.28 6.0 0.42 5.9 0.45 5.92 C 0.48 5.94 0.4 6.05 0.37 6.12 C 0.34 6.19 0.24 6.29 0.29 6.32 C 0.34 6.35 0.64 6.35 0.69 6.32 C 0.74 6.29 0.61 6.19 0.57 6.12 C 0.53 6.05 0.41 5.94 0.45 5.92 C 0.49 5.9 0.71 6.0 0.8 6.01 C 0.89 6.02 0.93 6.0 1.0 6.0 C 1.07 6.0 1.12 5.97 1.2 5.99 C 1.28 6.01 1.47 6.14 1.5 6.13 C 1.53 6.12 1.42 6.0 1.38 5.93 C 1.34 5.86 1.2 5.76 1.25 5.73 C 1.3 5.7 1.6 5.7 1.65 5.73 C 1.7 5.76 1.6 5.86 1.58 5.93 C 1.56 6.0 1.46 6.11 1.5 6.13 C 1.54 6.15 1.72 6.06 1.8 6.04 C 1.88 6.02 1.93 6.01 2.0 6.0 C 2.07 5.99 2.11 5.97 2.2 5.96 C 2.29 5.95 2.5 5.9 2.54 5.93 C 2.58 5.96 2.47 6.06 2.43 6.13 C 2.39 6.2 2.27 6.3 2.32 6.33 C 2.37 6.36 2.67 6.36 2.72 6.33 C 2.77 6.3 2.66 6.2 2.63 6.13 C 2.6 6.06 2.51 5.95 2.54 5.93 C 2.57 5.91 2.72 6.01 2.8 6.02 C 2.88 6.03 2.93 6.01 3.0 6.0 C 3.07 5.99 3.11 6.0 3.2 5.98 C 3.29 5.96 3.49 5.87 3.53 5.89 C 3.57 5.91 3.46 6.02 3.42 6.09 C 3.38 6.16 3.26 6.26 3.31 6.29 C 3.36 6.32 3.66 6.32 3.71 6.29 C 3.76 6.26 3.65 6.16 3.62 6.09 C 3.59 6.02 3.5 5.91 3.53 5.89 C 3.56 5.87 3.72 5.95 3.8 5.97 C 3.88 5.99 3.93 5.99 4.0 6.0 C 4.07 6.01 4.11 6.01 4.2 6.03 C 4.29 6.05 4.5 6.15 4.54 6.13 C 4.58 6.11 4.47 6.0 4.43 5.93 C 4.39 5.86 4.26 5.76 4.31 5.73 C 4.36 5.7 4.66 5.7 4.71 5.73 C 4.76 5.76 4.66 5.86 4.63 5.93 C 4.6 6.0 4.51 6.11 4.54 6.13 C 4.57 6.15 4.72 6.05 4.8 6.03 C 4.88 6.01 4.93 6.01 5.0 6.0 C 5.07 5.99 5.12 5.95 5.2 5.97 C 5.28 5.99 5.48 6.11 5.51 6.1 C 5.54 6.09 5.44 5.97 5.4 5.9 C 5.36 5.83 5.24 5.73 5.29 5.7 C 5.34 5.67 5.64 5.67 5.69 5.7 C 5.74 5.73 5.63 5.83 5.6 5.9 C 5.57 5.97 5.48 6.08 5.51 6.1 C 5.54 6.12 5.72 6.04 5.8 6.02 C 5.88 6.0 5.93 6.01 6.0 6.0 C 6.07 5.99 6.12 5.99 6.2 5.98 C 6.28 5.97 6.45 5.9 6.48 5.93 C 6.51 5.96 6.43 6.06 6.4 6.13 C 6.38 6.2 6.28 6.3 6.33 6.33 C 6.38 6.36 6.68 6.36 6.73 6.33 C 6.78 6.3 6.64 6.2 6.6 6.13 C 6.56 6.06 6.45 5.95 6.48 5.93 C 6.51 5.91 6.71 6.0 6.8 6.01 C 6.89 6.02 6.93 6.0 7.0 6.0 C 7.07 6.0 7.12 6.01 7.2 5.99 C 7.28 5.97 7.44 5.86 7.48 5.87 C 7.52 5.88 7.44 6.0 7.41 6.07 C 7.38 6.14 7.28 6.24 7.33 6.27 C 7.38 6.3 7.68 6.3 7.73 6.27 C 7.78 6.24 7.65 6.14 7.61 6.07 C 7.57 6.0 7.45 5.88 7.48 5.87 C 7.51 5.86 7.71 5.99 7.8 6.01 C 7.89 6.03 7.93 6.0 8.0 6.0 " class="horizontal" stroke="black" fill="none" stroke-width="1"/>
  <path d="M 0.0,7.0 C 0.07 7.0 0.12 7.0 0.2 6.99 C 0.29 6.98 0.48 6.89 0.51 6.91 C 0.54 6.93 0.42 7.04 0.38 7.11 C 0.34 7.18 0.2 7.28 0.25 7.31 C 0.3 7.34 0.6 7.34 0.65 7.31 C 0.7 7.28 0.6 7.18 0.58 7.11 C 0.56 7.04 0.47 6.94 0.51 6.91 C 0.55 6.88 0.72 6.94 0.8 6.96 C 0.88 6.98 0.93 6.99 1.0 7.0 C 1.07 7.01 1.13 7.06 1.2 7.04 C 1.27 7.02 1.4 6.89 1.43 6.9 C 1.46 6.91 1.38 7.03 1.36 7.1 C 1.34 7.17 1.24 7.27 1.3 7.3 C 1.36 7.33 1.66 7.33 1.7 7.3 C 1.74 7.27 1.6 7.17 1.56 7.1 C 1.52 7.03 1.39 6.92 1.43 6.9 C 1.47 6.88 1.7 6.97 1.8 6.99 C 1.9 7.01 1.93 7.0 2.0 7.0 C 2.07 7.0 2.12 7.02 2.2 7.01 C 2.28 7.0 2.44 6.89 2.47 6.91 C 2.5 6.93 2.4 7.04 2.37 7.11 C 2.34 7.18 2.22 7.28 2.27 7.31 C 2.32 7.34 2.62 7.34 2.67 7.31 C 2.72 7.28 2.6 7.18 2.57 7.11 C 2.54 7.04 2.43 6.93 2.47 6.91 C 2.51 6.89 2.71 6.97 2.8 6.98 C 2.89 7.0 2.93 6.99 3.0 7.0 C 3.07 7.01 3.11 7.01 3.2 7.02 C 3.29 7.03 3.49 7.1 3.53 7.07 C 3.57 7.04 3.47 6.94 3.44 6.87 C 3.41 6.8 3.29 6.7 3.34 6.67 C 3.39 6.64 3.69 6.64 3.74 6.67 C 3.79 6.7 3.68 6.8 3.64 6.87 C 3.6 6.94 3.5 7.04 3.53 7.07 C 3.56 7.1 3.72 7.03 3.8 7.02 C 3.88 7.01 3.93 7.01 4.0 7.0 C 4.07 6.99 4.12 7.0 4.2 6.98 C 4.28 6.96 4.45 6.87 4.49 6.89 C 4.53 6.91 4.45 7.02 4.43 7.09 C 4.41 7.16 4.31 7.26 4.37 7.29 C 4.43 7.32 4.73 7.32 4.77 7.29 C 4.81 7.26 4.68 7.16 4.63 7.09 C 4.58 7.02 4.46 6.91 4.49 6.89 C 4.52 6.87 4.72 6.95 4.8 6.97 C 4.88 6.99 4.93 6.99 5.0 7.0 C 5.07 7.01 5.12 7.05 5.2 7.03 C 5.28 7.01 5.47 6.88 5.51 6.89 C 5.55 6.9 5.46 7.02 5.43 7.09 C 5.4 7.16 5.3 7.26 5.35 7.29 C 5.4 7.32 5.7 7.32 5.75 7.29 C 5.8 7.26 5.67 7.16 5.63 7.09 C 5.59 7.02 5.48 6.9 5.51 6.89 C 5.54 6.88 5.72 7.01 5.8 7.03 C 5.88 7.05 5.93 7.01 6.0 7.0 C 6.07 6.99 6.12 6.96 6.2 6.97 C 6.28 6.98 6.47 7.1 6.5 7.09 C 6.53 7.08 6.43 6.96 6.4 6.89 C 6.37 6.82 6.25 6.72 6.3 6.69 C 6.35 6.66 6.65 6.66 6.7 6.69 C 6.75 6.72 6.63 6.82 6.6 6.89 C 6.57 6.96 6.47 7.07 6.5 7.09 C 6.53 7.11 6.72 7.0 6.8 6.99 C 6.88 6.98 6.93 7.0 7.0 7.0 C 7.07 7.0 7.12 7.02 7.2 7.01 C 7.28 7.0 7.43 6.89 7.46 6.91 C 7.49 6.93 7.4 7.04 7.37 7.11 C 7.34 7.18 7.24 7.28 7.29 7.31 C 7.34 7.34 7.64 7.34 7.69 7.31 C 7.74 7.28 7.61 7.18 7.57 7.11 C 7.53 7.04 7.42 6.93 7.46 6.91 C 7.5 6.89 7.71 6.96 7.8 6.97 C 7.89 6.98 7.93 6.99 8.0 7.0 " class="horizontal" stroke="black" fill="none" stroke-width="1"/>
  <path d="M 0,8 L 8,8 " class="horizontal" stroke="black" fill="none" stroke-width="1"/>
  <path d="M 0,0 L 0,8 " class="vertical" stroke="black" fill="none" stroke-width="1"/>
  <path d="M 1.0,0.0 C 0.99 0.07 0.98 0.11 0.97 0.2 C 0.96 0.29 0.9 0.5 0.92 0.54 C 0.94 0.58 1.05 0.46 1.12 0.42 C 1.19 0.38 1.29 0.26 1.32 0.31 C 1.35 0.36 1.35 0.66 1.32 0.71 C 1.29 0.76 1.19 0.65 1.12 0.62 C 1.05 0.59 0.94 0.51 0.92 0.54 C 0.9 0.57 1.01 0.72 1.02 0.8 C 1.03 0.88 1.01 0.93 1.0 1.0 C 0.99 1.07 1.0 1.11 0.98 1.2 C 0.96 1.29 0.85 1.5 0.86 1.54 C 0.87 1.58 0.99 1.46 1.06 1.42 C 1.13 1.38 1.23 1.25 1.26 1.29 C 1.29 1.34 1.29 1.64 1.26 1.69 C 1.23 1.74 1.13 1.64 1.06 1.62 C 0.99 1.6 0.87 1.51 0.86 1.54 C 0.85 1.57 0.99 1.72 1.01 1.8 C 1.03 1.88 1.0 1.93 1.0 2.0 C 1.0 2.07 0.98 2.12 0.99 2.2 C 1.0 2.28 1.1 2.44 1.08 2.47 C 1.06 2.5 0.95 2.41 0.88 2.38 C 0.81 2.35 0.71 2.24 0.68 2.29 C 0.65 2.34 0.65 2.64 0.68 2.69 C 0.71 2.74 0.81 2.62 0.88 2.58 C 0.95 2.54 1.06 2.43 1.08 2.47 C 1.1 2.51 1.01 2.71 1.0 2.8 C 0.99 2.89 1.0 2.93 1.0 3.0 C 1.0 3.07 0.99 3.11 1.0 3.2 C 1.01 3.29 1.08 3.51 1.06 3.55 C 1.04 3.59 0.93 3.46 0.86 3.42 C 0.79 3.38 0.69 3.24 0.66 3.29 C 0.63 3.34 0.63 3.64 0.66 3.69 C 0.69 3.74 0.79 3.64 0.86 3.62 C 0.93 3.6 1.03 3.52 1.06 3.55 C 1.09 3.58 1.03 3.72 1.02 3.8 C 1.01 3.88 1.01 3.93 1.0 4.0 C 0.99 4.07 0.99 4.12 0.98 4.2 C 0.97 4.28 0.9 4.46 0.93 4.49 C 0.96 4.52 1.06 4.42 1.13 4.38 C 1.2 4.34 1.3 4.22 1.33 4.27 C 1.36 4.32 1.36 4.62 1.33 4.67 C 1.3 4.72 1.2 4.61 1.13 4.58 C 1.06 4.55 0.96 4.45 0.93 4.49 C 0.9 4.53 0.97 4.72 0.98 4.8 C 0.99 4.88 0.99 4.93 1.0 5.0 C 1.01 5.07 1.03 5.11 1.02 5.2 C 1.01 5.29 0.9 5.49 0.92 5.53 C 0.94 5.57 1.05 5.46 1.12 5.42 C 1.19 5.38 1.29 5.26 1.32 5.31 C 1.35 5.36 1.35 5.66 1.32 5.71 C 1.29 5.76 1.19 5.65 1.12 5.62 C 1.05 5.59 0.94 5.5 0.92 5.53 C 0.9 5.56 1.02 5.72 1.03 5.8 C 1.04 5.88 1.01 5.93 1.0 6.0 C 0.99 6.07 0.95 6.12 0.97 6.2 C 0.99 6.28 1.11 6.48 1.1 6.51 C 1.09 6.54 0.97 6.43 0.9 6.39 C 0.83 6.35 0.73 6.23 0.7 6.28 C 0.67 6.33 0.67 6.63 0.7 6.68 C 0.73 6.73 0.83 6.62 0.9 6.59 C 0.97 6.56 1.08 6.48 1.1 6.51 C 1.12 6.54 1.05 6.72 1.03 6.8 C 1.01 6.88 1.01 6.93 1.0 7.0 C 0.99 7.07 0.99 7.12 0.97 7.2 C 0.95 7.28 0.85 7.44 0.87 7.48 C 0.89 7.52 1.0 7.43 1.07 7.41 C 1.14 7.39 1.24 7.28 1.27 7.34 C 1.3 7.4 1.3 7.7 1.27 7.74 C 1.24 7.78 1.14 7.65 1.07 7.61 C 1.0 7.57 0.88 7.45 0.87 7.48 C 0.86 7.51 0.99 7.71 1.01 7.8 C 1.03 7.89 1.0 7.93 1.0 8.0 " class="vertical" stroke="black" fill="none" stroke-width="1"/>
  <path d="M 2.0,0.0 C 2.0 0.07 2.03 0.12 2.01 0.2 C 1.99 0.28 1.85 0.47 1.86 0.5 C 1.87 0.53 1.99 0.42 2.06 0.38 C 2.13 0.34 2.23 0.2 2.26 0.25 C 2.29 0.3 2.29 0.6 2.26 0.65 C 2.23 0.7 2.13 0.6 2.06 0.58 C 1.99 0.55 1.87 0.46 1.86 0.5 C 1.85 0.54 1.96 0.72 1.98 0.8 C 2.0 0.88 1.99 0.93 2.0 1.0 C 2.01 1.07 2.0 1.11 2.02 1.2 C 2.04 1.29 2.14 1.5 2.12 1.53 C 2.1 1.56 1.99 1.44 1.92 1.4 C 1.85 1.36 1.75 1.22 1.72 1.26 C 1.69 1.3 1.69 1.6 1.72 1.66 C 1.75 1.72 1.85 1.62 1.92 1.6 C 1.99 1.58 2.1 1.5 2.12 1.53 C 2.14 1.56 2.04 1.72 2.02 1.8 C 2.0 1.88 2.01 1.93 2.0 2.0 C 1.99 2.07 2.0 2.11 1.98 2.2 C 1.96 2.29 1.87 2.5 1.89 2.54 C 1.91 2.58 2.02 2.45 2.09 2.41 C 2.16 2.37 2.26 2.24 2.29 2.28 C 2.32 2.32 2.32 2.62 2.29 2.68 C 2.26 2.74 2.16 2.63 2.09 2.61 C 2.02 2.59 1.9 2.51 1.89 2.54 C 1.88 2.57 2.0 2.72 2.02 2.8 C 2.04 2.88 2.01 2.93 2.0 3.0 C 1.99 3.07 1.97 3.12 1.98 3.2 C 1.99 3.28 2.1 3.45 2.08 3.49 C 2.06 3.53 1.95 3.45 1.88 3.43 C 1.81 3.41 1.71 3.31 1.68 3.37 C 1.65 3.43 1.65 3.73 1.68 3.77 C 1.71 3.81 1.81 3.68 1.88 3.63 C 1.95 3.58 2.06 3.46 2.08 3.49 C 2.1 3.52 1.98 3.72 1.97 3.8 C 1.96 3.88 1.99 3.93 2.0 4.0 C 2.01 4.07 2.01 4.12 2.03 4.2 C 2.04 4.28 2.11 4.44 2.09 4.47 C 2.07 4.5 1.96 4.41 1.89 4.38 C 1.82 4.35 1.72 4.25 1.69 4.3 C 1.66 4.35 1.66 4.65 1.69 4.7 C 1.72 4.75 1.82 4.62 1.89 4.58 C 1.96 4.54 2.07 4.43 2.09 4.47 C 2.1 4.51 2.0 4.71 1.98 4.8 C 1.96 4.89 1.99 4.93 2.0 5.0 C 2.01 5.07 2.03 5.12 2.02 5.2 C 2.01 5.28 1.91 5.46 1.93 5.49 C 1.95 5.52 2.06 5.44 2.13 5.41 C 2.2 5.38 2.3 5.28 2.33 5.33 C 2.36 5.38 2.36 5.68 2.33 5.73 C 2.3 5.78 2.2 5.65 2.13 5.61 C 2.06 5.57 1.95 5.46 1.93 5.49 C 1.9 5.52 1.97 5.72 1.98 5.8 C 1.99 5.88 1.99 5.93 2.0 6.0 C 2.01 6.07 2.03 6.13 2.02 6.2 C 2.01 6.27 1.92 6.41 1.94 6.44 C 1.96 6.47 2.07 6.39 2.14 6.37 C 2.21 6.35 2.31 6.24 2.34 6.3 C 2.37 6.36 2.37 6.66 2.34 6.7 C 2.31 6.74 2.21 6.61 2.14 6.57 C 2.07 6.53 1.96 6.4 1.94 6.44 C 1.92 6.48 2.0 6.71 2.01 6.8 C 2.02 6.89 2.0 6.93 2.0 7.0 C 2.0 7.07 2.0 7.12 1.99 7.2 C 1.98 7.28 1.9 7.44 1.92 7.48 C 1.94 7.52 2.05 7.44 2.12 7.42 C 2.19 7.4 2.29 7.3 2.32 7.36 C 2.35 7.42 2.35 7.72 2.32 7.76 C 2.29 7.8 2.19 7.67 2.12 7.62 C 2.05 7.57 1.94 7.45 1.92 7.48 C 1.9 7.51 2.0 7.71 2.01 7.8 C 2.02 7.89 2.0 7.93 2.0 8.0 " class="vertical" stroke="black" fill="none" stroke-width="1"/>
  <path d="M 3.0,0.0 C 2.99 0.07 2.96 0.11 2.97 0.2 C 2.99 0.29 3.1 0.5 3.09 0.54 C 3.08 0.58 2.96 0.45 2.89 0.41 C 2.82 0.37 2.72 0.24 2.69 0.28 C 2.66 0.33 2.66 0.62 2.69 0.68 C 2.72 0.74 2.82 0.63 2.89 0.61 C 2.96 0.59 3.07 0.51 3.09 0.54 C 3.11 0.57 3.02 0.72 3.01 0.8 C 2.99 0.88 3.0 0.93 3.0 1.0 C 3.0 1.07 2.97 1.11 2.99 1.2 C 3.01 1.29 3.12 1.49 3.11 1.52 C 3.1 1.55 2.98 1.42 2.91 1.38 C 2.84 1.34 2.74 1.2 2.71 1.25 C 2.68 1.3 2.68 1.6 2.71 1.65 C 2.74 1.7 2.84 1.6 2.91 1.58 C 2.98 1.56 3.1 1.48 3.11 1.52 C 3.12 1.56 3.02 1.72 3.0 1.8 C 2.98 1.88 3.0 1.93 3.0 2.0 C 3.0 2.07 3.02 2.12 3.0 2.2 C 2.98 2.28 2.88 2.46 2.9 2.49 C 2.92 2.52 3.03 2.4 3.1 2.36 C 3.17 2.32 3.27 2.19 3.3 2.24 C 3.33 2.29 3.33 2.59 3.3 2.64 C 3.27 2.69 3.17 2.58 3.1 2.56 C 3.03 2.54 2.92 2.45 2.9 2.49 C 2.88 2.53 2.97 2.72 2.99 2.8 C 3.01 2.88 3.0 2.93 3.0 3.0 C 3.0 3.07 3.02 3.12 3.01 3.2 C 2.99 3.28 2.89 3.45 2.91 3.48 C 2.93 3.51 3.04 3.43 3.11 3.4 C 3.18 3.37 3.28 3.26 3.31 3.31 C 3.34 3.36 3.34 3.66 3.31 3.71 C 3.28 3.76 3.18 3.64 3.11 3.6 C 3.04 3.56 2.92 3.45 2.91 3.48 C 2.9 3.51 3.01 3.71 3.03 3.8 C 3.04 3.89 3.01 3.93 3.0 4.0 C 2.99 4.07 2.99 4.13 2.97 4.2 C 2.95 4.27 2.88 4.41 2.9 4.44 C 2.92 4.47 3.03 4.39 3.1 4.37 C 3.17 4.35 3.27 4.25 3.3 4.31 C 3.33 4.37 3.33 4.67 3.3 4.71 C 3.27 4.75 3.17 4.62 3.1 4.57 C 3.03 4.53 2.91 4.4 2.9 4.44 C 2.89 4.48 3.01 4.71 3.03 4.8 C 3.05 4.89 3.01 4.93 3.0 5.0 C 2.99 5.07 2.95 5.11 2.97 5.2 C 2.99 5.29 3.14 5.5 3.14 5.54 C 3.14 5.58 3.01 5.46 2.94 5.42 C 2.87 5.38 2.77 5.25 2.74 5.3 C 2.71 5.35 2.71 5.65 2.74 5.7 C 2.77 5.75 2.87 5.65 2.94 5.62 C 3.01 5.59 3.13 5.51 3.14 5.54 C 3.15 5.57 3.04 5.72 3.02 5.8 C 3.0 5.88 3.01 5.93 3.0 6.0 C 2.99 6.07 2.96 6.11 2.98 6.2 C 3.0 6.29 3.13 6.5 3.12 6.53 C 3.11 6.56 2.99 6.44 2.92 6.4 C 2.85 6.36 2.75 6.23 2.72 6.28 C 2.69 6.33 2.69 6.63 2.72 6.68 C 2.75 6.73 2.85 6.62 2.92 6.6 C 2.99 6.57 3.11 6.5 3.12 6.53 C 3.13 6.56 3.01 6.72 2.99 6.8 C 2.97 6.88 3.0 6.93 3.0 7.0 C 3.0 7.07 2.99 7.11 3.01 7.2 C 3.03 7.29 3.12 7.52 3.1 7.56 C 3.08 7.6 2.97 7.47 2.9 7.42 C 2.83 7.37 2.73 7.24 2.7 7.28 C 2.67 7.32 2.67 7.62 2.7 7.68 C 2.73 7.74 2.83 7.64 2.9 7.62 C 2.97 7.6 3.08 7.53 3.1 7.56 C 3.12 7.59 3.06 7.73 3.04 7.8 C 3.02 7.87 3.01 7.93 3.0 8.0 " class="vertical" stroke="black" fill="none" stroke-width="1"/>
  <path d="M 4.0,0.0 C 4.01 0.07 4.0 0.12 4.02 0.2 C 4.04 0.28 4.13 0.46 4.11 0.49 C 4.09 0.52 3.98 0.41 3.91 0.37 C 3.84 0.33 3.74 0.21 3.71 0.26 C 3.68 0.31 3.68 0.61 3.71 0.66 C 3.74 0.71 3.84 0.6 3.91 0.57 C 3.98 0.54 4.1 0.45 4.11 0.49 C 4.12 0.53 4.0 0.72 3.98 0.8 C 3.96 0.88 3.99 0.93 4.0 1.0 C 4.01 1.07 4.01 1.12 4.02 1.2 C 4.03 1.28 4.1 1.44 4.07 1.47 C 4.04 1.5 3.94 1.43 3.87 1.41 C 3.8 1.39 3.7 1.29 3.67 1.35 C 3.64 1.41 3.64 1.71 3.67 1.75 C 3.7 1.79 3.8 1.66 3.87 1.61 C 3.94 1.56 4.04 1.44 4.07 1.47 C 4.1 1.5 4.05 1.71 4.04 1.8 C 4.03 1.89 4.01 1.93 4.0 2.0 C 3.99 2.07 3.94 2.11 3.96 2.2 C 3.98 2.29 4.12 2.52 4.11 2.56 C 4.1 2.6 3.98 2.48 3.91 2.43 C 3.84 2.39 3.74 2.25 3.71 2.29 C 3.68 2.33 3.68 2.63 3.71 2.69 C 3.74 2.75 3.84 2.65 3.91 2.63 C 3.98 2.61 4.09 2.53 4.11 2.56 C 4.13 2.59 4.03 2.73 4.01 2.8 C 3.99 2.87 4.0 2.93 4.0 3.0 C 4.0 3.07 3.97 3.12 3.99 3.2 C 4.01 3.28 4.11 3.44 4.1 3.47 C 4.08 3.5 3.97 3.4 3.9 3.37 C 3.83 3.34 3.73 3.22 3.7 3.27 C 3.67 3.32 3.67 3.62 3.7 3.67 C 3.73 3.72 3.83 3.6 3.9 3.57 C 3.97 3.54 4.09 3.43 4.1 3.47 C 4.11 3.51 3.99 3.71 3.97 3.8 C 3.95 3.89 3.99 3.93 4.0 4.0 C 4.01 4.07 4.01 4.12 4.03 4.2 C 4.05 4.28 4.15 4.47 4.13 4.51 C 4.11 4.55 4.0 4.45 3.93 4.42 C 3.86 4.39 3.76 4.28 3.73 4.33 C 3.7 4.38 3.7 4.68 3.73 4.73 C 3.76 4.78 3.86 4.66 3.93 4.62 C 4.0 4.58 4.11 4.48 4.13 4.51 C 4.15 4.54 4.06 4.72 4.04 4.8 C 4.02 4.88 4.01 4.93 4.0 5.0 C 3.99 5.07 3.94 5.12 3.96 5.2 C 3.98 5.28 4.12 5.46 4.11 5.49 C 4.1 5.52 3.98 5.42 3.91 5.38 C 3.84 5.34 3.74 5.21 3.71 5.26 C 3.68 5.31 3.68 5.61 3.71 5.66 C 3.74 5.71 3.84 5.61 3.91 5.58 C 3.98 5.55 4.09 5.45 4.11 5.49 C 4.13 5.53 4.03 5.72 4.01 5.8 C 3.99 5.88 4.0 5.93 4.0 6.0 C 4.0 6.07 3.98 6.12 3.99 6.2 C 4.0 6.28 4.09 6.48 4.07 6.51 C 4.05 6.54 3.94 6.43 3.87 6.39 C 3.8 6.35 3.7 6.23 3.67 6.28 C 3.64 6.33 3.64 6.63 3.67 6.68 C 3.7 6.73 3.8 6.62 3.87 6.59 C 3.94 6.56 4.04 6.48 4.07 6.51 C 4.1 6.54 4.03 6.72 4.02 6.8 C 4.01 6.88 4.01 6.93 4.0 7.0 C 3.99 7.07 3.99 7.12 3.98 7.2 C 3.97 7.28 3.9 7.44 3.92 7.47 C 3.94 7.5 4.05 7.41 4.12 7.38 C 4.19 7.35 4.29 7.24 4.32 7.29 C 4.35 7.34 4.35 7.64 4.32 7.69 C 4.29 7.74 4.19 7.62 4.12 7.58 C 4.05 7.54 3.94 7.43 3.92 7.47 C 3.9 7.51 3.98 7.71 3.99 7.8 C 4.0 7.89 4.0 7.93 4.0 8.0 " class="vertical" stroke="black" fill="none" stroke-width="1"/>
  <path d="M 5.0,0.0 C 4.99 0.07 4.96 0.12 4.98 0.2 C 5.0 0.28 5.13 0.46 5.12 0.49 C 5.11 0.52 4.99 0.44 4.92 0.41 C 4.85 0.38 4.75 0.27 4.72 0.32 C 4.69 0.37 4.69 0.67 4.72 0.72 C 4.75 0.77 4.85 0.65 4.92 0.61 C 4.99 0.57 5.1 0.46 5.12 0.49 C 5.14 0.52 5.04 0.72 5.02 0.8 C 5.0 0.88 5.01 0.93 5.0 1.0 C 4.99 1.07 4.97 1.12 4.98 1.2 C 4.99 1.28 5.09 1.47 5.07 1.5 C 5.05 1.53 4.94 1.4 4.87 1.36 C 4.8 1.32 4.7 1.18 4.67 1.23 C 4.64 1.27 4.64 1.58 4.67 1.63 C 4.7 1.68 4.8 1.58 4.87 1.56 C 4.94 1.54 5.05 1.46 5.07 1.5 C 5.09 1.54 4.98 1.72 4.97 1.8 C 4.96 1.88 4.99 1.93 5.0 2.0 C 5.01 2.07 5.02 2.12 5.03 2.2 C 5.04 2.28 5.09 2.47 5.06 2.51 C 5.03 2.55 4.93 2.45 4.86 2.42 C 4.79 2.39 4.69 2.28 4.66 2.33 C 4.63 2.38 4.63 2.68 4.66 2.73 C 4.69 2.78 4.79 2.66 4.86 2.62 C 4.93 2.58 5.04 2.48 5.06 2.51 C 5.08 2.54 4.98 2.72 4.97 2.8 C 4.96 2.88 4.99 2.93 5.0 3.0 C 5.01 3.07 5.01 3.11 5.03 3.2 C 5.05 3.29 5.12 3.52 5.1 3.56 C 5.08 3.6 4.97 3.47 4.9 3.43 C 4.83 3.39 4.73 3.26 4.7 3.3 C 4.67 3.34 4.67 3.64 4.7 3.7 C 4.73 3.76 4.83 3.65 4.9 3.63 C 4.97 3.61 5.08 3.53 5.1 3.56 C 5.12 3.59 5.05 3.73 5.03 3.8 C 5.01 3.87 5.01 3.93 5.0 4.0 C 4.99 4.07 4.96 4.12 4.97 4.2 C 4.98 4.28 5.08 4.46 5.06 4.49 C 5.04 4.53 4.93 4.44 4.86 4.41 C 4.79 4.38 4.69 4.27 4.66 4.32 C 4.63 4.37 4.63 4.67 4.66 4.72 C 4.69 4.77 4.79 4.65 4.86 4.61 C 4.93 4.57 5.04 4.46 5.06 4.49 C 5.08 4.52 5.0 4.72 4.99 4.8 C 4.98 4.88 5.0 4.93 5.0 5.0 C 5.0 5.07 5.03 5.12 5.01 5.2 C 4.99 5.28 4.89 5.46 4.9 5.49 C 4.92 5.52 5.03 5.44 5.1 5.41 C 5.17 5.38 5.27 5.27 5.3 5.32 C 5.33 5.37 5.33 5.67 5.3 5.72 C 5.27 5.77 5.17 5.65 5.1 5.61 C 5.03 5.57 4.92 5.46 4.9 5.49 C 4.88 5.52 4.95 5.72 4.97 5.8 C 4.99 5.88 4.99 5.93 5.0 6.0 C 5.01 6.07 5.01 6.11 5.03 6.2 C 5.05 6.29 5.14 6.5 5.12 6.54 C 5.1 6.58 4.99 6.45 4.92 6.41 C 4.85 6.37 4.75 6.24 4.72 6.29 C 4.69 6.34 4.69 6.64 4.72 6.69 C 4.75 6.74 4.85 6.64 4.92 6.61 C 4.99 6.58 5.11 6.51 5.12 6.54 C 5.13 6.57 4.98 6.72 4.96 6.8 C 4.94 6.88 4.99 6.93 5.0 7.0 C 5.01 7.07 5.03 7.12 5.04 7.2 C 5.06 7.28 5.12 7.45 5.09 7.48 C 5.06 7.51 4.96 7.4 4.89 7.36 C 4.82 7.32 4.72 7.2 4.69 7.25 C 4.66 7.3 4.66 7.6 4.69 7.65 C 4.72 7.7 4.82 7.59 4.89 7.56 C 4.96 7.53 5.07 7.44 5.09 7.48 C 5.11 7.52 5.02 7.71 5.01 7.8 C 5.0 7.89 5.0 7.93 5.0 8.0 " class="vertical" stroke="black" fill="none" stroke-width="1"/>
  <path d="M 6.0,0.0 C 6.0 0.07 6.0 0.11 6.01 0.2 C 6.02 0.29 6.09 0.5 6.07 0.54 C 6.05 0.58 5.94 0.47 5.87 0.43 C 5.8 0.39 5.7 0.27 5.67 0.32 C 5.64 0.37 5.64 0.67 5.67 0.72 C 5.7 0.77 5.8 0.66 5.87 0.63 C 5.94 0.6 6.05 0.51 6.07 0.54 C 6.09 0.57 6.01 0.72 6.0 0.8 C 5.99 0.88 6.0 0.93 6.0 1.0 C 6.0 1.07 5.99 1.12 6.0 1.2 C 6.01 1.28 6.1 1.44 6.08 1.48 C 6.06 1.52 5.95 1.43 5.88 1.41 C 5.81 1.38 5.71 1.28 5.68 1.33 C 5.65 1.38 5.65 1.68 5.68 1.73 C 5.71 1.78 5.81 1.65 5.88 1.61 C 5.95 1.57 6.06 1.45 6.08 1.48 C 6.1 1.51 5.99 1.71 5.98 1.8 C 5.97 1.89 5.99 1.93 6.0 2.0 C 6.01 2.07 6.03 2.12 6.02 2.2 C 6.01 2.28 5.9 2.43 5.92 2.46 C 5.94 2.49 6.05 2.42 6.12 2.39 C 6.19 2.37 6.29 2.26 6.32 2.31 C 6.35 2.36 6.35 2.66 6.32 2.71 C 6.29 2.76 6.19 2.63 6.12 2.59 C 6.05 2.55 5.94 2.42 5.92 2.46 C 5.9 2.5 5.96 2.71 5.97 2.8 C 5.98 2.89 5.99 2.93 6.0 3.0 C 6.01 3.07 6.05 3.12 6.03 3.2 C 6.01 3.28 5.87 3.44 5.88 3.48 C 5.89 3.52 6.01 3.43 6.08 3.41 C 6.15 3.39 6.25 3.28 6.28 3.34 C 6.31 3.4 6.31 3.7 6.28 3.74 C 6.25 3.78 6.15 3.65 6.08 3.61 C 6.01 3.57 5.89 3.45 5.88 3.48 C 5.87 3.51 5.98 3.71 6.0 3.8 C 6.02 3.89 6.0 3.93 6.0 4.0 C 6.0 4.07 5.98 4.12 6.0 4.2 C 6.02 4.28 6.14 4.46 6.13 4.5 C 6.12 4.54 6.0 4.45 5.93 4.42 C 5.86 4.39 5.76 4.29 5.73 4.34 C 5.7 4.39 5.7 4.69 5.73 4.74 C 5.76 4.79 5.86 4.66 5.93 4.62 C 6.0 4.58 6.12 4.47 6.13 4.5 C 6.14 4.53 6.02 4.72 6.0 4.8 C 5.98 4.88 6.0 4.93 6.0 5.0 C 6.0 5.07 5.99 5.11 6.0 5.2 C 6.01 5.29 6.08 5.49 6.06 5.52 C 6.04 5.55 5.93 5.44 5.86 5.4 C 5.79 5.36 5.69 5.24 5.66 5.29 C 5.63 5.34 5.63 5.64 5.66 5.69 C 5.69 5.74 5.79 5.63 5.86 5.6 C 5.93 5.57 6.04 5.49 6.06 5.52 C 6.08 5.55 5.99 5.72 5.98 5.8 C 5.97 5.88 5.99 5.93 6.0 6.0 C 6.01 6.07 6.03 6.12 6.02 6.2 C 6.01 6.28 5.92 6.47 5.94 6.5 C 5.96 6.53 6.07 6.42 6.14 6.38 C 6.21 6.34 6.31 6.21 6.34 6.26 C 6.37 6.31 6.37 6.61 6.34 6.66 C 6.31 6.71 6.21 6.61 6.14 6.58 C 6.07 6.55 5.96 6.46 5.94 6.5 C 5.92 6.54 6.01 6.72 6.02 6.8 C 6.03 6.88 6.01 6.93 6.0 7.0 C 5.99 7.07 5.96 7.12 5.98 7.2 C 6.0 7.28 6.12 7.47 6.11 7.5 C 6.1 7.53 5.98 7.43 5.91 7.4 C 5.84 7.37 5.74 7.26 5.71 7.31 C 5.68 7.36 5.68 7.66 5.71 7.71 C 5.74 7.76 5.84 7.64 5.91 7.6 C 5.98 7.56 6.09 7.47 6.11 7.5 C 6.13 7.53 6.06 7.72 6.04 7.8 C 6.02 7.88 6.01 7.93 6.0 8.0 " class="vertical" stroke="black" fill="none" stroke-width="1"/>
  <path d="M 7.0,0.0 C 7.0 0.07 7.02 0.13 7.0 0.2 C 6.98 0.27 6.88 0.41 6.9 0.44 C 6.92 0.47 7.03 0.38 7.1 0.36 C 7.17 0.34 7.27 0.24 7.3 0.29 C 7.33 0.34 7.33 0.64 7.3 0.69 C 7.27 0.74 7.17 0.6 7.1 0.56 C 7.03 0.52 6.91 0.4 6.9 0.44 C 6.89 0.48 7.0 0.71 7.02 0.8 C 7.04 0.89 7.01 0.93 7.0 1.0 C 6.99 1.07 6.96 1.12 6.98 1.2 C 7.0 1.28 7.15 1.46 7.14 1.49 C 7.13 1.52 7.01 1.4 6.94 1.36 C 6.87 1.32 6.77 1.18 6.74 1.23 C 6.71 1.27 6.71 1.58 6.74 1.63 C 6.77 1.68 6.87 1.58 6.94 1.56 C 7.01 1.54 7.13 1.45 7.14 1.49 C 7.15 1.53 7.0 1.72 6.98 1.8 C 6.96 1.88 6.99 1.93 7.0 2.0 C 7.01 2.07 7.04 2.12 7.02 2.2 C 7.0 2.28 6.87 2.44 6.88 2.47 C 6.89 2.5 7.01 2.4 7.08 2.37 C 7.15 2.34 7.25 2.23 7.28 2.28 C 7.31 2.33 7.31 2.63 7.28 2.68 C 7.25 2.73 7.15 2.6 7.08 2.57 C 7.01 2.53 6.9 2.43 6.88 2.47 C 6.86 2.51 6.96 2.71 6.98 2.8 C 7.0 2.89 6.99 2.93 7.0 3.0 C 7.01 3.07 7.03 3.11 7.02 3.2 C 7.01 3.29 6.92 3.5 6.94 3.54 C 6.96 3.58 7.07 3.47 7.14 3.43 C 7.21 3.39 7.31 3.26 7.34 3.31 C 7.37 3.36 7.37 3.66 7.34 3.71 C 7.31 3.76 7.21 3.66 7.14 3.63 C 7.07 3.6 6.97 3.51 6.94 3.54 C 6.91 3.57 6.96 3.72 6.97 3.8 C 6.98 3.88 6.99 3.93 7.0 4.0 C 7.01 4.07 7.01 4.12 7.03 4.2 C 7.05 4.28 7.13 4.45 7.11 4.48 C 7.09 4.51 6.98 4.41 6.91 4.37 C 6.84 4.33 6.74 4.21 6.71 4.26 C 6.68 4.31 6.68 4.61 6.71 4.66 C 6.74 4.71 6.84 4.6 6.91 4.57 C 6.98 4.54 7.09 4.44 7.11 4.48 C 7.13 4.52 7.04 4.71 7.02 4.8 C 7.0 4.89 7.01 4.93 7.0 5.0 C 6.99 5.07 6.97 5.12 6.98 5.2 C 6.99 5.28 7.08 5.44 7.06 5.47 C 7.04 5.5 6.93 5.4 6.86 5.37 C 6.79 5.34 6.69 5.22 6.66 5.27 C 6.63 5.32 6.63 5.62 6.66 5.67 C 6.69 5.72 6.79 5.6 6.86 5.57 C 6.93 5.54 7.04 5.43 7.06 5.47 C 7.08 5.51 7.02 5.71 7.01 5.8 C 7.0 5.89 7.0 5.93 7.0 6.0 C 7.0 6.07 7.01 6.12 6.99 6.2 C 6.97 6.28 6.88 6.45 6.9 6.48 C 6.92 6.51 7.03 6.4 7.1 6.37 C 7.17 6.34 7.27 6.22 7.3 6.27 C 7.33 6.32 7.33 6.62 7.3 6.67 C 7.27 6.72 7.17 6.6 7.1 6.57 C 7.03 6.54 6.92 6.44 6.9 6.48 C 6.88 6.52 6.98 6.71 7.0 6.8 C 7.02 6.89 7.0 6.93 7.0 7.0 C 7.0 7.07 7.02 7.12 7.0 7.2 C 6.98 7.28 6.87 7.47 6.88 7.5 C 6.89 7.53 7.01 7.43 7.08 7.39 C 7.15 7.35 7.25 7.23 7.28 7.28 C 7.31 7.33 7.31 7.63 7.28 7.68 C 7.25 7.73 7.15 7.62 7.08 7.59 C 7.01 7.56 6.89 7.46 6.88 7.5 C 6.87 7.54 7.0 7.72 7.02 7.8 C 7.04 7.88 7.01 7.93 7.0 8.0 " class="vertical" stroke="black" fill="none" stroke-width="1"/>
  <path d="M 8,0 L 8,8 " class="vertical" stroke="black" fill="none" stroke-width="1"/>
</svg>
