<svg xmlns="http://www.w3.org/2000/svg" width="3072" height="3072" viewBox="0 0 3072 3072">
  <path d="M 0.0,204.8 C 40.96 211.23 94.1 176.4 80.23 217.36 C 66.36 258.32 148.28 258.32 121.19 217.36 C 94.1 176.4 163.84 197.29 204.8 204.8 C 245.76 212.31 310.18 186.59 288.79 227.55 C 267.4 268.51 349.32 268.51 329.75 227.55 C 310.18 186.59 368.64 207.61 409.6 204.8 C 450.56 201.99 512.75 177.76 491.5 218.72 C 470.25 259.68 552.17 259.68 532.46 218.72 C 512.75 177.76 573.44 208.05 614.4 204.8 C 655.36 201.55 706.53 177.74 690.6 218.7 C 674.68 259.66 756.6 259.66 731.56 218.7 C 706.53 177.74 778.24 199.18 819.2 204.8 C 860.16 210.42 921.54 225.91 907.78 184.95 C 894.02 143.99 975.94 143.99 948.74 184.95 C 921.54 225.91 983.04 205.39 1024.0 204.8 C 1064.96 204.21 1132.3 232.55 1105.51 191.59 C 1078.72 150.63 1160.64 150.63 1146.47 191.59 C 1132.3 232.55 1187.84 207.25 1228.8 204.8 C 1269.76 202.35 1331.0 187.16 1303.48 228.12 C 1275.95 269.08 1357.87 269.08 1344.44 228.12 C 1331.0 187.16 1392.64 203.56 1433.6 204.8 C 1474.56 206.04 1543.7 227.5 1520.67 186.54 C 1497.64 145.58 1579.56 145.58 1561.63 186.54 C 1543.7 227.5 1597.44 209.41 1638.4 204.8 C 1679.36 200.19 1739.05 179.93 1717.51 220.89 C 1695.98 261.85 1777.9 261.85 1758.47 220.89 C 1739.05 179.93 1802.24 201.03 1843.2 204.8 C 1884.16 208.57 1944.14 190.63 1924.82 231.59 C 1905.5 272.55 1987.42 272.55 1965.78 231.59 C 1944.14 190.63 2007.04 198.23 2048.0 204.8 C 2088.96 211.37 2152.31 233.04 2124.2 192.08 C 2096.08 151.12 2178.0 151.12 2165.16 192.08 C 2152.31 233.04 2211.84 211.85 2252.8 204.8 C 2293.76 197.75 2355.45 223.97 2332.03 183.01 C 2308.62 142.05 2390.54 142.05 2372.99 183.01 C 2355.45 223.97 2416.64 199.78 2457.6 204.8 C 2498.56 209.82 2560.06 188.25 2540.63 229.21 C 2521.2 270.17 2603.12 270.17 2581.59 229.21 C 2560.06 188.25 2621.44 204.11 2662.4 204.8 C 2703.36 205.49 2763.39 176.54 2748.8 217.5 C 2734.21 258.46 2816.13 258.46 2789.76 217.5 C 2763.39 176.54 2826.24 205.54 2867.2 204.8 C 2908.16 204.06 2968.51 180.02 2942.26 220.98 C 2916.01 261.94 2997.93 261.94 2983.22 220.98 C 2968.51 180.02 3031.04 203.05 3072.0 204.8" class="horizontal" stroke="black" fill="none" stroke-width="1"/>
  <path d="M 0.0,409.6 C 40.96 404.47 103.16 389.92 76.09 430.88 C 49.02 471.84 130.94 471.84 117.05 430.88 C 103.16 389.92 163.84 410.36 204.8 409.6 C 245.76 408.84 315.06 387.66 293.95 428.62 C 272.84 469.58 354.76 469.58 334.91 428.62 C 315.06 387.66 368.64 412.47 409.6 409.6 C 450.56 406.73 518.45 431.77 491.09 390.81 C 463.74 349.85 545.66 349.85 532.05 390.81 C 518.45 431.77 573.44 407.21 614.4 409.6 C 655.36 411.99 705.87 385.87 692.72 426.83 C 679.56 467.79 761.48 467.79 733.68 426.83 C 705.87 385.87 778.24 412.88 819.2 409.6 C 860.16 406.32 919.7 383.42 904.65 424.38 C 889.61 465.34 971.53 465.34 945.61 424.38 C 919.7 383.42 983.04 408.37 1024.0 409.6 C 1064.96 410.83 1124.57 434.54 1109.62 393.58 C 1094.66 352.62 1176.58 352.62 1150.58 393.58 C 1124.57 434.54 1187.84 414.89 1228.8 409.6 C 1269.76 404.31 1322.39 381.85 1303.6 422.81 C 1284.82 463.77 1366.74 463.77 1344.56 422.81 C 1322.39 381.85 1392.64 409.16 1433.6 409.6 C 1474.56 410.04 1532.31 429.93 1513.05 388.97 C 1493.8 348.01 1575.72 348.01 1554.01 388.97 C 1532.31 429.93 1597.44 414.22 1638.4 409.6 C 1679.36 404.98 1747.84 426.02 1723.63 385.06 C 1699.41 344.1 1781.33 344.1 1764.59 385.06 C 1747.84 426.02 1802.24 406.88 1843.2 409.6 C 1884.16 412.32 1949.92 438.12 1925.43 397.16 C 1900.94 356.2 1982.86 356.2 1966.39 397.16 C 1949.92 438.12 2007.04 406.67 2048.0 409.6 C 2088.96 412.53 2152.16 393.4 2129.34 434.36 C 2106.52 475.32 2188.44 475.32 2170.3 434.36 C 2152.16 393.4 2211.84 415.54 2252.8 409.6 C 2293.76 403.66 2346.51 395.64 2331.49 436.6 C 2316.46 477.56 2398.38 477.56 2372.45 436.6 C 2346.51 395.64 2416.64 414.63 2457.6 409.6 C 2498.56 404.57 2560.03 437.79 2544.96 396.83 C 2529.88 355.87 2611.8 355.87 2585.92 396.83 C 2560.03 437.79 2621.44 403.74 2662.4 409.6 C 2703.36 415.46 2761.63 423.66 2739.29 382.7 C 2716.96 341.74 2798.88 341.74 2780.25 382.7 C 2761.63 423.66 2826.24 409.33 2867.2 409.6 C 2908.16 409.87 2967.83 397.02 2944.68 437.98 C 2921.53 478.94 3003.45 478.94 2985.64 437.98 C 2967.83 397.02 3031.04 410.7 3072.0 409.6" class="horizontal" stroke="black" fill="none" stroke-width="1"/>
  <path d="M 0.0,614.4 C 40.96 609.5 98.47 634.0 82.8 593.04 C 67.14 552.08 149.06 552.08 123.76 593.04 C 98.47 634.0 163.84 611.34 204.8 614.4 C 245.76 617.46 310.61 590.1 286.79 631.06 C 262.97 672.02 344.89 672.02 327.75 631.06 C 310.61 590.1 368.64 609.24 409.6 614.4 C 450.56 619.56 515.25 642.39 498.17 601.43 C 481.09 560.47 563.01 560.47 539.13 601.43 C 515.25 642.39 573.44 615.36 614.4 614.4 C 655.36 613.44 713.17 642.3 695.17 601.34 C 677.18 560.38 759.1 560.38 736.13 601.34 C 713.17 642.3 778.24 610.02 819.2 614.4 C 860.16 618.78 918.07 639.42 905.35 598.46 C 892.62 557.5 974.54 557.5 946.31 598.46 C 918.07 639.42 983.04 612.41 1024.0 614.4 C 1064.96 616.39 1124.8 588.44 1109.61 629.4 C 1094.43 670.36 1176.35 670.36 1150.57 629.4 C 1124.8 588.44 1187.84 621.9 1228.8 614.4 C 1269.76 606.9 1322.8 597.31 1303.82 638.27 C 1284.85 679.23 1366.77 679.23 1344.78 638.27 C 1322.8 597.31 1392.64 614.66 1433.6 614.4 C 1474.56 614.14 1531.1 641.91 1510.95 600.95 C 1490.8 559.99 1572.72 559.99 1551.91 600.95 C 1531.1 641.91 1597.44 611.33 1638.4 614.4 C 1679.36 617.47 1736.1 626.9 1721.25 585.94 C 1706.39 544.98 1788.31 544.98 1762.21 585.94 C 1736.1 626.9 1802.24 611.69 1843.2 614.4 C 1884.16 617.11 1949.61 640.46 1927.56 599.5 C 1905.5 558.54 1987.42 558.54 1968.52 599.5 C 1949.61 640.46 2007.04 620.56 2048.0 614.4 C 2088.96 608.24 2146.01 599.26 2123.87 640.22 C 2101.72 681.18 2183.64 681.18 2164.83 640.22 C 2146.01 599.26 2211.84 616.66 2252.8 614.4 C 2293.76 612.14 2346.08 588.77 2328.03 629.73 C 2309.98 670.69 2391.9 670.69 2368.99 629.73 C 2346.08 588.77 2416.64 618.77 2457.6 614.4 C 2498.56 610.03 2561.64 587.06 2537.21 628.02 C 2512.78 668.98 2594.7 668.98 2578.17 628.02 C 2561.64 587.06 2621.44 614.21 2662.4 614.4 C 2703.36 614.59 2770.64 593.66 2748.0 634.62 C 2725.36 675.58 2807.28 675.58 2788.96 634.62 C 2770.64 593.66 2826.24 608.0 2867.2 614.4 C 2908.16 620.8 2976.73 597.4 2956.7 638.36 C 2936.68 679.32 3018.6 679.32 2997.66 638.36 C 2976.73 597.4 3031.04 616.71 3072.0 614.4" class="horizontal" stroke="black" fill="none" stroke-width="1"/>
  <path d="M 0.0,819.2 C 40.96 824.76 108.61 834.54 88.14 793.58 C 67.66 752.62 149.58 752.62 129.1 793.58 C 108.61 834.54 163.84 821.72 204.8 819.2 C 245.76 816.68 307.44 838.03 284.74 797.07 C 262.03 756.11 343.95 756.11 325.7 797.07 C 307.44 838.03 368.64 818.5 409.6 819.2 C 450.56 819.9 509.86 838.54 490.7 797.58 C 471.55 756.62 553.47 756.62 531.66 797.58 C 509.86 838.54 573.44 823.61 614.4 819.2 C 655.36 814.79 714.6 794.23 701.64 835.19 C 688.67 876.15 770.59 876.15 742.6 835.19 C 714.6 794.23 778.24 823.71 819.2 819.2 C 860.16 814.69 919.14 837.17 896.33 796.21 C 873.52 755.25 955.44 755.25 937.29 796.21 C 919.14 837.17 983.04 814.39 1024.0 819.2 C 1064.96 824.01 1118.23 792.04 1100.62 833.0 C 1083.01 873.96 1164.93 873.96 1141.58 833.0 C 1118.23 792.04 1187.84 816.99 1228.8 819.2 C 1269.76 821.41 1328.51 792.24 1316.01 833.2 C 1303.52 874.16 1385.44 874.16 1356.97 833.2 C 1328.51 792.24 1392.64 815.64 1433.6 819.2 C 1474.56 822.76 1542.27 837.82 1519.83 796.86 C 1497.4 755.9 1579.32 755.9 1560.79 796.86 C 1542.27 837.82 1597.44 818.84 1638.4 819.2 C 1679.36 819.56 1735.37 801.78 1714.79 842.74 C 1694.22 883.7 1776.14 883.7 1755.75 842.74 C 1735.37 801.78 1802.24 815.67 1843.2 819.2 C 1884.16 822.73 1954.09 800.14 1930.36 841.1 C 1906.63 882.06 1988.55 882.06 1971.32 841.1 C 1954.09 800.14 2007.04 823.78 2048.0 819.2 C 2088.96 814.62 2144.63 799.8 2127.82 840.76 C 2111.02 881.72 2192.94 881.72 2168.78 840.76 C 2144.63 799.8 2211.84 814.01 2252.8 819.2 C 2293.76 824.39 2355.48 797.85 2334.31 838.81 C 2313.14 879.77 2395.06 879.77 2375.27 838.81 C 2355.48 797.85 2416.64 825.55 2457.6 819.2 C 2498.56 812.85 2550.36 831.88 2537.46 790.92 C 2524.56 749.96 2606.48 749.96 2578.42 790.92 C 2550.36 831.88 2621.44 823.9 2662.4 819.2 C 2703.36 814.5 2762.79 793.07 2744.84 834.03 C 2726.9 874.99 2808.82 874.99 2785.8 834.03 C 2762.79 793.07 2826.24 825.67 2867.2 819.2 C 2908.16 812.73 2965.67 796.93 2950.19 837.89 C 2934.7 878.85 3016.62 878.85 2991.15 837.89 C 2965.67 796.93 3031.04 821.26 3072.0 819.2" class="horizontal" stroke="black" fill="none" stroke-width="1"/>
  <path d="M 0.0,1024.0 C 40.96 1018.17 111.54 996.67 83.29 1037.63 C 55.04 1078.59 136.96 1078.59 124.25 1037.63 C 111.54 996.67 163.84 1026.15 204.8 1024.0 C 245.76 1021.85 308.01 1009.91 281.92 1050.87 C 255.82 1091.83 337.74 1091.83 322.88 1050.87 C 308.01 1009.91 368.64 1027.46 409.6 1024.0 C 450.56 1020.54 510.32 1009.64 494.17 1050.6 C 478.01 1091.56 559.93 1091.56 535.13 1050.6 C 510.32 1009.64 573.44 1031.01 614.4 1024.0 C 655.36 1016.99 716.02 1001.26 702.67 1042.22 C 689.33 1083.18 771.25 1083.18 743.63 1042.22 C 716.02 1001.26 778.24 1029.01 819.2 1024.0 C 860.16 1018.99 920.77 1009.79 893.57 1050.75 C 866.37 1091.71 948.29 1091.71 934.53 1050.75 C 920.77 1009.79 983.04 1017.67 1024.0 1024.0 C 1064.96 1030.33 1136.77 1048.24 1111.23 1007.28 C 1085.69 966.32 1167.61 966.32 1152.19 1007.28 C 1136.77 1048.24 1187.84 1024.72 1228.8 1024.0 C 1269.76 1023.28 1318.86 1038.31 1302.67 997.35 C 1286.49 956.39 1368.41 956.39 1343.63 997.35 C 1318.86 1038.31 1392.64 1017.37 1433.6 1024.0 C 1474.56 1030.63 1533.61 1047.27 1511.68 1006.31 C 1489.75 965.35 1571.67 965.35 1552.64 1006.31 C 1533.61 1047.27 1597.44 1020.17 1638.4 1024.0 C 1679.36 1027.83 1747.45 998.66 1722.46 1039.62 C 1697.48 1080.58 1779.4 1080.58 1763.42 1039.62 C 1747.45 998.66 1802.24 1025.9 1843.2 1024.0 C 1884.16 1022.1 1939.68 1040.82 1917.51 999.86 C 1895.34 958.9 1977.26 958.9 1958.47 999.86 C 1939.68 1040.82 2007.04 1022.67 2048.0 1024.0 C 2088.96 1025.33 2149.07 1047.42 2128.67 1006.46 C 2108.28 965.5 2190.2 965.5 2169.63 1006.46 C 2149.07 1047.42 2211.84 1021.78 2252.8 1024.0 C 2293.76 1026.22 2344.03 1008.1 2328.18 1049.06 C 2312.33 1090.02 2394.25 1090.02 2369.14 1049.06 C 2344.03 1008.1 2416.64 1018.36 2457.6 1024.0 C 2498.56 1029.64 2558.61 1009.41 2537.71 1050.37 C 2516.81 1091.33 2598.73 1091.33 2578.67 1050.37 C 2558.61 1009.41 2621.44 1021.84 2662.4 1024.0 C 2703.36 1026.16 2759.9 1038.19 2739.83 997.23 C 2719.77 956.27 2801.69 956.27 2780.79 997.23 C 2759.9 1038.19 2826.24 1024.46 2867.2 1024.0 C 2908.16 1023.54 2977.01 1004.88 2956.89 1045.84 C 2936.78 1086.8 3018.7 1086.8 2997.85 1045.84 C 2977.01 1004.88 3031.04 1019.25 3072.0 1024.0" class="horizontal" stroke="black" fill="none" stroke-width="1"/>
  <path d="M 0.0,1228.8 C 40.96 1230.91 89.21 1204.41 75.04 1245.37 C 60.88 1286.33 142.8 1286.33 116.0 1245.37 C 89.21 1204.41 163.84 1232.56 204.8 1228.8 C 245.76 1225.04 309.91 1209.75 287.43 1250.71 C 264.95 1291.67 346.87 1291.67 328.39 1250.71 C 309.91 1209.75 368.64 1226.37 409.6 1228.8 C 450.56 1231.23 508.52 1256.37 485.51 1215.41 C 462.49 1174.45 544.41 1174.45 526.47 1215.41 C 508.52 1256.37 573.44 1223.34 614.4 1228.8 C 655.36 1234.26 713.31 1246.04 691.04 1205.08 C 668.76 1164.12 750.68 1164.12 732.0 1205.08 C 713.31 1246.04 778.24 1229.43 819.2 1228.8 C 860.16 1228.17 923.32 1213.21 896.04 1254.17 C 868.76 1295.13 950.68 1295.13 937.0 1254.17 C 923.32 1213.21 983.04 1225.84 1024.0 1228.8 C 1064.96 1231.76 1127.97 1254.99 1107.54 1214.03 C 1087.12 1173.07 1169.04 1173.07 1148.5 1214.03 C 1127.97 1254.99 1187.84 1221.47 1228.8 1228.8 C 1269.76 1236.13 1335.11 1241.28 1310.52 1200.32 C 1285.94 1159.36 1367.86 1159.36 1351.48 1200.32 C 1335.11 1241.28 1392.64 1232.26 1433.6 1228.8 C 1474.56 1225.34 1540.77 1213.83 1517.99 1254.79 C 1495.2 1295.75 1577.12 1295.75 1558.95 1254.79 C 1540.77 1213.83 1597.44 1232.72 1638.4 1228.8 C 1679.36 1224.88 1732.87 1253.09 1715.12 1212.13 C 1697.38 1171.17 1779.3 1171.17 1756.08 1212.13 C 1732.87 1253.09 1802.24 1236.22 1843.2 1228.8 C 1884.16 1221.38 1951.39 1244.45 1931.02 1203.49 C 1910.66 1162.53 1992.58 1162.53 1971.98 1203.49 C 1951.39 1244.45 2007.04 1226.34 2048.0 1228.8 C 2088.96 1231.26 2136.75 1209.72 2124.43 1250.68 C 2112.12 1291.64 2194.04 1291.64 2165.39 1250.68 C 2136.75 1209.72 2211.84 1232.02 2252.8 1228.8 C 2293.76 1225.58 2355.63 1206.19 2342.28 1247.15 C 2328.94 1288.11 2410.86 1288.11 2383.24 1247.15 C 2355.63 1206.19 2416.64 1221.55 2457.6 1228.8 C 2498.56 1236.05 2567.79 1246.21 2539.84 1205.25 C 2511.9 1164.29 2593.82 1164.29 2580.8 1205.25 C 2567.79 1246.21 2621.44 1222.84 2662.4 1228.8 C 2703.36 1234.76 2757.17 1250.68 2741.52 1209.72 C 2725.87 1168.76 2807.79 1168.76 2782.48 1209.72 C 2757.17 1250.68 2826.24 1228.77 2867.2 1228.8 C 2908.16 1228.83 2961.21 1250.73 2947.64 1209.77 C 2934.08 1168.81 3016.0 1168.81 2988.6 1209.77 C 2961.21 1250.73 3031.04 1221.08 3072.0 1228.8" class="horizontal" stroke="black" fill="none" stroke-width="1"/>
  <path d="M 0.0,1433.6 C 40.96 1441.33 105.6 1453.77 83.43 1412.81 C 61.27 1371.85 143.19 1371.85 124.39 1412.81 C 105.6 1453.77 163.84 1439.78 204.8 1433.6 C 245.76 1427.42 299.01 1461.06 285.57 1420.1 C 272.13 1379.14 354.05 1379.14 326.53 1420.1 C 299.01 1461.06 368.64 1433.97 409.6 1433.6 C 450.56 1433.23 523.12 1415.98 499.05 1456.94 C 474.98 1497.9 556.9 1497.9 540.01 1456.94 C 523.12 1415.98 573.44 1430.62 614.4 1433.6 C 655.36 1436.58 717.49 1420.8 703.79 1461.76 C 690.09 1502.72 772.01 1502.72 744.75 1461.76 C 717.49 1420.8 778.24 1430.3 819.2 1433.6 C 860.16 1436.9 910.81 1408.76 893.98 1449.72 C 877.15 1490.68 959.07 1490.68 934.94 1449.72 C 910.81 1408.76 983.04 1427.9 1024.0 1433.6 C 1064.96 1439.3 1135.67 1457.2 1107.25 1416.24 C 1078.83 1375.28 1160.75 1375.28 1148.21 1416.24 C 1135.67 1457.2 1187.84 1429.63 1228.8 1433.6 C 1269.76 1437.57 1327.2 1456.07 1304.15 1415.11 C 1281.09 1374.15 1363.01 1374.15 1345.11 1415.11 C 1327.2 1456.07 1392.64 1440.33 1433.6 1433.6 C 1474.56 1426.87 1539.86 1408.12 1517.97 1449.08 C 1496.07 1490.04 1577.99 1490.04 1558.93 1449.08 C 1539.86 1408.12 1597.44 1432.59 1638.4 1433.6 C 1679.36 1434.61 1745.23 1421.16 1722.06 1462.12 C 1698.88 1503.08 1780.8 1503.08 1763.02 1462.12 C 1745.23 1421.16 1802.24 1433.49 1843.2 1433.6 C 1884.16 1433.71 1952.07 1448.96 1924.5 1408.0 C 1896.92 1367.04 1978.84 1367.04 1965.46 1408.0 C 1952.07 1448.96 2007.04 1435.44 2048.0 1433.6 C 2088.96 1431.76 2138.63 1454.36 2125.36 1413.4 C 2112.09 1372.44 2194.01 1372.44 2166.32 1413.4 C 2138.63 1454.36 2211.84 1441.16 2252.8 1433.6 C 2293.76 1426.04 2344.06 1407.69 2331.53 1448.65 C 2319.0 1489.61 2400.92 1489.61 2372.49 1448.65 C 2344.06 1407.69 2416.64 1427.44 2457.6 1433.6 C 2498.56 1439.76 2553.07 1415.09 2538.94 1456.05 C 2524.8 1497.01 2606.72 1497.01 2579.9 1456.05 C 2553.07 1415.09 2621.44 1436.84 2662.4 1433.6 C 2703.36 1430.36 2762.76 1450.57 2739.89 1409.61 C 2717.01 1368.65 2798.93 1368.65 2780.85 1409.61 C 2762.76 1450.57 2826.24 1437.22 2867.2 1433.6 C 2908.16 1429.98 2958.56 1416.52 2945.74 1457.48 C 2932.92 1498.44 3014.84 1498.44 2986.7 1457.48 C 2958.56 1416.52 3031.04 1435.25 3072.0 1433.6" class="horizontal" stroke="black" fill="none" stroke-width="1"/>
  <path d="M 0.0,1638.4 C 40.96 1635.23 109.39 1661.82 85.64 1620.86 C 61.9 1579.9 143.82 1579.9 126.6 1620.86 C 109.39 1661.82 163.84 1637.74 204.8 1638.4 C 245.76 1639.06 312.59 1657.19 288.57 1616.23 C 264.56 1575.27 346.48 1575.27 329.53 1616.23 C 312.59 1657.19 368.64 1638.12 409.6 1638.4 C 450.56 1638.68 522.03 1620.42 493.42 1661.38 C 464.81 1702.34 546.73 1702.34 534.38 1661.38 C 522.03 1620.42 573.44 1638.31 614.4 1638.4 C 655.36 1638.49 712.02 1657.64 697.24 1616.68 C 682.46 1575.72 764.38 1575.72 738.2 1616.68 C 712.02 1657.64 778.24 1636.81 819.2 1638.4 C 860.16 1639.99 919.79 1657.44 896.56 1616.48 C 873.34 1575.52 955.26 1575.52 937.52 1616.48 C 919.79 1657.44 983.04 1643.15 1024.0 1638.4 C 1064.96 1633.65 1119.7 1662.6 1104.9 1621.64 C 1090.1 1580.68 1172.02 1580.68 1145.86 1621.64 C 1119.7 1662.6 1187.84 1646.53 1228.8 1638.4 C 1269.76 1630.27 1319.22 1624.2 1303.42 1665.16 C 1287.63 1706.12 1369.55 1706.12 1344.38 1665.16 C 1319.22 1624.2 1392.64 1642.79 1433.6 1638.4 C 1474.56 1634.01 1524.79 1660.92 1510.54 1619.96 C 1496.3 1579.0 1578.22 1579.0 1551.5 1619.96 C 1524.79 1660.92 1597.44 1641.56 1638.4 1638.4 C 1679.36 1635.24 1736.48 1656.46 1720.2 1615.5 C 1703.92 1574.54 1785.84 1574.54 1761.16 1615.5 C 1736.48 1656.46 1802.24 1641.99 1843.2 1638.4 C 1884.16 1634.81 1960.15 1659.26 1932.33 1618.3 C 1904.51 1577.34 1986.43 1577.34 1973.29 1618.3 C 1960.15 1659.26 2007.04 1632.74 2048.0 1638.4 C 2088.96 1644.06 2160.01 1652.9 2137.36 1611.94 C 2114.71 1570.98 2196.63 1570.98 2178.32 1611.94 C 2160.01 1652.9 2211.84 1636.87 2252.8 1638.4 C 2293.76 1639.93 2360.88 1618.97 2333.92 1659.93 C 2306.96 1700.89 2388.88 1700.89 2374.88 1659.93 C 2360.88 1618.97 2416.64 1645.32 2457.6 1638.4 C 2498.56 1631.48 2554.17 1651.4 2531.99 1610.44 C 2509.82 1569.48 2591.74 1569.48 2572.95 1610.44 C 2554.17 1651.4 2621.44 1631.98 2662.4 1638.4 C 2703.36 1644.82 2764.91 1660.98 2748.81 1620.02 C 2732.72 1579.06 2814.64 1579.06 2789.77 1620.02 C 2764.91 1660.98 2826.24 1645.29 2867.2 1638.4 C 2908.16 1631.51 2974.2 1611.92 2953.42 1652.88 C 2932.64 1693.84 3014.56 1693.84 2994.38 1652.88 C 2974.2 1611.92 3031.04 1637.07 3072.0 1638.4" class="horizontal" stroke="black" fill="none" stroke-width="1"/>
  <path d="M 0.0,1843.2 C 40.96 1847.63 107.25 1820.79 79.46 1861.75 C 51.67 1902.71 133.59 1902.71 120.42 1861.75 C 107.25 1820.79 163.84 1836.78 204.8 1843.2 C 245.76 1849.62 301.62 1867.72 284.0 1826.76 C 266.39 1785.8 348.31 1785.8 324.96 1826.76 C 301.62 1867.72 368.64 1846.99 409.6 1843.2 C 450.56 1839.41 519.55 1829.37 496.36 1870.33 C 473.17 1911.29 555.09 1911.29 537.32 1870.33 C 519.55 1829.37 573.44 1844.58 614.4 1843.2 C 655.36 1841.82 722.92 1815.8 700.5 1856.76 C 678.08 1897.72 760.0 1897.72 741.46 1856.76 C 722.92 1815.8 778.24 1848.67 819.2 1843.2 C 860.16 1837.73 913.58 1857.79 899.95 1816.83 C 886.32 1775.87 968.24 1775.87 940.91 1816.83 C 913.58 1857.79 983.04 1844.46 1024.0 1843.2 C 1064.96 1841.94 1116.75 1868.57 1103.93 1827.61 C 1091.12 1786.65 1173.04 1786.65 1144.89 1827.61 C 1116.75 1868.57 1187.84 1841.09 1228.8 1843.2 C 1269.76 1845.31 1336.29 1816.41 1311.71 1857.37 C 1287.12 1898.33 1369.04 1898.33 1352.67 1857.37 C 1336.29 1816.41 1392.64 1837.4 1433.6 1843.2 C 1474.56 1849.0 1545.12 1860.2 1519.37 1819.24 C 1493.61 1778.28 1575.53 1778.28 1560.33 1819.24 C 1545.12 1860.2 1597.44 1836.21 1638.4 1843.2 C 1679.36 1850.19 1742.78 1824.26 1728.36 1865.22 C 1713.93 1906.18 1795.85 1906.18 1769.32 1865.22 C 1742.78 1824.26 1802.24 1843.4 1843.2 1843.2 C 1884.16 1843.0 1953.34 1866.34 1925.85 1825.38 C 1898.35 1784.42 1980.27 1784.42 1966.81 1825.38 C 1953.34 1866.34 2007.04 1851.01 2048.0 1843.2 C 2088.96 1835.39 2148.17 1858.23 2131.33 1817.27 C 2114.49 1776.31 2196.41 1776.31 2172.29 1817.27 C 2148.17 1858.23 2211.84 1844.98 2252.8 1843.2 C 2293.76 1841.42 2348.87 1828.91 2327.89 1869.87 C 2306.92 1910.83 2388.84 1910.83 2368.85 1869.87 C 2348.87 1828.91 2416.64 1839.5 2457.6 1843.2 C 2498.56 1846.9 2566.8 1856.31 2540.59 1815.35 C 2514.38 1774.39 2596.3 1774.39 2581.55 1815.35 C 2566.8 1856.31 2621.44 1843.07 2662.4 1843.2 C 2703.36 1843.33 2769.09 1814.67 2745.1 1855.63 C 2721.12 1896.59 2803.04 1896.59 2786.06 1855.63 C 2769.09 1814.67 2826.24 1838.03 2867.2 1843.2 C 2908.16 1848.37 2962.98 1862.6 2949.13 1821.64 C 2935.28 1780.68 3017.2 1780.68 2990.09 1821.64 C 2962.98 1862.6 3031.04 1845.65 3072.0 1843.2" class="horizontal" stroke="black" fill="none" stroke-width="1"/>
  <path d="M 0.0,2048.0 C 40.96 2046.1 99.71 2069.26 78.42 2028.3 C 57.14 1987.34 139.06 1987.34 119.38 2028.3 C 99.71 2069.26 163.84 2045.72 204.8 2048.0 C 245.76 2050.28 313.87 2060.84 293.24 2019.88 C 272.61 1978.92 354.53 1978.92 334.2 2019.88 C 313.87 2060.84 368.64 2043.04 409.6 2048.0 C 450.56 2052.96 514.86 2073.01 498.06 2032.05 C 481.26 1991.09 563.18 1991.09 539.02 2032.05 C 514.86 2073.01 573.44 2050.72 614.4 2048.0 C 655.36 2045.28 727.04 2026.17 703.51 2067.13 C 679.99 2108.09 761.91 2108.09 744.47 2067.13 C 727.04 2026.17 778.24 2046.36 819.2 2048.0 C 860.16 2049.64 932.14 2068.4 906.53 2027.44 C 880.93 1986.48 962.85 1986.48 947.49 2027.44 C 932.14 2068.4 983.04 2055.94 1024.0 2048.0 C 1064.96 2040.06 1133.65 2035.36 1106.73 2076.32 C 1079.8 2117.28 1161.72 2117.28 1147.69 2076.32 C 1133.65 2035.36 1187.84 2055.22 1228.8 2048.0 C 1269.76 2040.78 1337.01 2065.38 1317.34 2024.42 C 1297.67 1983.46 1379.59 1983.46 1358.3 2024.42 C 1337.01 2065.38 1392.64 2043.0 1433.6 2048.0 C 1474.56 2053.0 1525.6 2028.78 1509.29 2069.74 C 1492.98 2110.7 1574.9 2110.7 1550.25 2069.74 C 1525.6 2028.78 1597.44 2041.06 1638.4 2048.0 C 1679.36 2054.94 1734.79 2022.05 1720.44 2063.01 C 1706.1 2103.97 1788.02 2103.97 1761.4 2063.01 C 1734.79 2022.05 1802.24 2043.98 1843.2 2048.0 C 1884.16 2052.02 1939.31 2062.39 1917.54 2021.43 C 1895.76 1980.47 1977.68 1980.47 1958.5 2021.43 C 1939.31 2062.39 2007.04 2045.7 2048.0 2048.0 C 2088.96 2050.3 2148.83 2067.85 2133.83 2026.89 C 2118.82 1985.93 2200.74 1985.93 2174.79 2026.89 C 2148.83 2067.85 2211.84 2050.99 2252.8 2048.0 C 2293.76 2045.01 2354.59 2073.43 2333.26 2032.47 C 2311.94 1991.51 2393.86 1991.51 2374.22 2032.47 C 2354.59 2073.43 2416.64 2049.88 2457.6 2048.0 C 2498.56 2046.12 2564.82 2030.27 2538.14 2071.23 C 2511.45 2112.19 2593.37 2112.19 2579.1 2071.23 C 2564.82 2030.27 2621.44 2055.37 2662.4 2048.0 C 2703.36 2040.63 2766.74 2066.17 2748.14 2025.21 C 2729.54 1984.25 2811.46 1984.25 2789.1 2025.21 C 2766.74 2066.17 2826.24 2051.16 2867.2 2048.0 C 2908.16 2044.84 2972.38 2063.13 2943.85 2022.17 C 2915.32 1981.21 2997.24 1981.21 2984.81 2022.17 C 2972.38 2063.13 3031.04 2040.84 3072.0 2048.0" class="horizontal" stroke="black" fill="none" stroke-width="1"/>
  <path d="M 0.0,2252.8 C 40.96 2255.2 110.72 2279.62 84.59 2238.66 C 58.47 2197.7 140.39 2197.7 125.55 2238.66 C 110.72 2279.62 163.84 2253.81 204.8 2252.8 C 245.76 2251.79 305.08 2232.88 282.25 2273.84 C 259.42 2314.8 341.34 2314.8 323.21 2273.84 C 305.08 2232.88 368.64 2256.45 409.6 2252.8 C 450.56 2249.15 508.58 2233.3 495.77 2274.26 C 482.95 2315.22 564.87 2315.22 536.73 2274.26 C 508.58 2233.3 573.44 2258.97 614.4 2252.8 C 655.36 2246.63 712.22 2268.02 698.62 2227.06 C 685.01 2186.1 766.93 2186.1 739.58 2227.06 C 712.22 2268.02 778.24 2251.64 819.2 2252.8 C 860.16 2253.96 911.6 2273.68 897.74 2232.72 C 883.88 2191.76 965.8 2191.76 938.7 2232.72 C 911.6 2273.68 983.04 2255.58 1024.0 2252.8 C 1064.96 2250.02 1129.34 2266.42 1106.64 2225.46 C 1083.93 2184.5 1165.85 2184.5 1147.6 2225.46 C 1129.34 2266.42 1187.84 2245.57 1228.8 2252.8 C 1269.76 2260.03 1328.51 2229.87 1312.92 2270.83 C 1297.33 2311.79 1379.25 2311.79 1353.88 2270.83 C 1328.51 2229.87 1392.64 2247.1 1433.6 2252.8 C 1474.56 2258.5 1545.93 2267.74 1518.02 2226.78 C 1490.1 2185.82 1572.02 2185.82 1558.98 2226.78 C 1545.93 2267.74 1597.44 2249.65 1638.4 2252.8 C 1679.36 2255.95 1742.61 2228.22 1720.14 2269.18 C 1697.68 2310.14 1779.6 2310.14 1761.1 2269.18 C 1742.61 2228.22 1802.24 2251.02 1843.2 2252.8 C 1884.16 2254.58 1936.3 2266.81 1921.21 2225.85 C 1906.11 2184.89 1988.03 2184.89 1962.17 2225.85 C 1936.3 2266.81 2007.04 2257.49 2048.0 2252.8 C 2088.96 2248.11 2156.82 2270.95 2135.53 2229.99 C 2114.24 2189.03 2196.16 2189.03 2176.49 2229.99 C 2156.82 2270.95 2211.84 2248.17 2252.8 2252.8 C 2293.76 2257.43 2357.0 2230.71 2337.7 2271.67 C 2318.39 2312.63 2400.31 2312.63 2378.66 2271.67 C 2357.0 2230.71 2416.64 2256.88 2457.6 2252.8 C 2498.56 2248.72 2559.44 2227.16 2535.87 2268.12 C 2512.29 2309.08 2594.21 2309.08 2576.83 2268.12 C 2559.44 2227.16 2621.44 2246.77 2662.4 2252.8 C 2703.36 2258.83 2757.85 2272.8 2743.83 2231.84 C 2729.81 2190.88 2811.73 2190.88 2784.79 2231.84 C 2757.85 2272.8 2826.24 2251.81 2867.2 2252.8 C 2908.16 2253.79 2964.63 2227.59 2950.5 2268.55 C 2936.37 2309.51 3018.29 2309.51 2991.46 2268.55 C 2964.63 2227.59 3031.04 2254.93 3072.0 2252.8" class="horizontal" stroke="black" fill="none" stroke-width="1"/>
  <path d="M 0.0,2457.6 C 40.96 2463.76 109.9 2433.46 86.85 2474.42 C 63.79 2515.38 145.71 2515.38 127.81 2474.42 C 109.9 2433.46 163.84 2464.1 204.8 2457.6 C 245.76 2451.1 320.21 2444.28 294.74 2485.24 C 269.27 2526.2 351.19 2526.2 335.7 2485.24 C 320.21 2444.28 368.64 2458.84 409.6 2457.6 C 450.56 2456.36 507.87 2475.12 494.47 2434.16 C 481.08 2393.2 563.0 2393.2 535.43 2434.16 C 507.87 2475.12 573.44 2462.57 614.4 2457.6 C 655.36 2452.63 719.98 2480.53 697.27 2439.57 C 674.55 2398.61 756.47 2398.61 738.23 2439.57 C 719.98 2480.53 778.24 2450.04 819.2 2457.6 C 860.16 2465.16 927.96 2485.8 900.16 2444.84 C 872.35 2403.88 954.27 2403.88 941.12 2444.84 C 927.96 2485.8 983.04 2455.28 1024.0 2457.6 C 1064.96 2459.92 1131.7 2432.53 1110.06 2473.49 C 1088.41 2514.45 1170.33 2514.45 1151.02 2473.49 C 1131.7 2432.53 1187.84 2455.79 1228.8 2457.6 C 1269.76 2459.41 1334.8 2435.72 1313.79 2476.68 C 1292.78 2517.64 1374.7 2517.64 1354.75 2476.68 C 1334.8 2435.72 1392.64 2465.79 1433.6 2457.6 C 1474.56 2449.41 1533.3 2440.1 1511.06 2481.06 C 1488.82 2522.02 1570.74 2522.02 1552.02 2481.06 C 1533.3 2440.1 1597.44 2452.96 1638.4 2457.6 C 1679.36 2462.24 1744.37 2435.64 1722.02 2476.6 C 1699.67 2517.56 1781.59 2517.56 1762.98 2476.6 C 1744.37 2435.64 1802.24 2453.77 1843.2 2457.6 C 1884.16 2461.43 1951.16 2483.6 1932.89 2442.64 C 1914.63 2401.68 1996.55 2401.68 1973.85 2442.64 C 1951.16 2483.6 2007.04 2464.74 2048.0 2457.6 C 2088.96 2450.46 2144.82 2476.55 2130.7 2435.59 C 2116.57 2394.63 2198.49 2394.63 2171.66 2435.59 C 2144.82 2476.55 2211.84 2462.64 2252.8 2457.6 C 2293.76 2452.56 2354.95 2474.18 2332.56 2433.22 C 2310.17 2392.26 2392.09 2392.26 2373.52 2433.22 C 2354.95 2474.18 2416.64 2456.77 2457.6 2457.6 C 2498.56 2458.43 2565.47 2482.5 2547.38 2441.54 C 2529.28 2400.58 2611.2 2400.58 2588.34 2441.54 C 2565.47 2482.5 2621.44 2453.37 2662.4 2457.6 C 2703.36 2461.83 2776.16 2473.34 2749.62 2432.38 C 2723.08 2391.42 2805.0 2391.42 2790.58 2432.38 C 2776.16 2473.34 2826.24 2463.16 2867.2 2457.6 C 2908.16 2452.04 2959.12 2482.76 2942.67 2441.8 C 2926.22 2400.84 3008.14 2400.84 2983.63 2441.8 C 2959.12 2482.76 3031.04 2450.34 3072.0 2457.6" class="horizontal" stroke="black" fill="none" stroke-width="1"/>
  <path d="M 0.0,2662.4 C 40.96 2666.2 91.5 2634.75 77.87 2675.71 C 64.23 2716.67 146.15 2716.67 118.83 2675.71 C 91.5 2634.75 163.84 2657.0 204.8 2662.4 C 245.76 2667.8 306.12 2679.67 291.93 2638.71 C 277.73 2597.75 359.65 2597.75 332.89 2638.71 C 306.12 2679.67 368.64 2656.98 409.6 2662.4 C 450.56 2667.82 521.73 2686.76 498.16 2645.8 C 474.58 2604.84 556.5 2604.84 539.12 2645.8 C 521.73 2686.76 573.44 2667.25 614.4 2662.4 C 655.36 2657.55 730.68 2682.99 703.3 2642.03 C 675.92 2601.07 757.84 2601.07 744.26 2642.03 C 730.68 2682.99 778.24 2666.95 819.2 2662.4 C 860.16 2657.85 911.75 2681.75 894.92 2640.79 C 878.1 2599.83 960.02 2599.83 935.88 2640.79 C 911.75 2681.75 983.04 2659.84 1024.0 2662.4 C 1064.96 2664.96 1124.15 2678.73 1111.1 2637.77 C 1098.06 2596.81 1179.98 2596.81 1152.06 2637.77 C 1124.15 2678.73 1187.84 2667.62 1228.8 2662.4 C 1269.76 2657.18 1340.82 2675.87 1317.56 2634.91 C 1294.3 2593.95 1376.22 2593.95 1358.52 2634.91 C 1340.82 2675.87 1392.64 2656.96 1433.6 2662.4 C 1474.56 2667.84 1521.69 2677.03 1508.65 2636.07 C 1495.61 2595.11 1577.53 2595.11 1549.61 2636.07 C 1521.69 2677.03 1597.44 2657.36 1638.4 2662.4 C 1679.36 2667.44 1732.91 2690.5 1717.14 2649.54 C 1701.38 2608.58 1783.3 2608.58 1758.1 2649.54 C 1732.91 2690.5 1802.24 2660.24 1843.2 2662.4 C 1884.16 2664.56 1954.72 2675.38 1931.12 2634.42 C 1907.53 2593.46 1989.45 2593.46 1972.08 2634.42 C 1954.72 2675.38 2007.04 2663.76 2048.0 2662.4 C 2088.96 2661.04 2157.43 2643.2 2130.56 2684.16 C 2103.68 2725.12 2185.6 2725.12 2171.52 2684.16 C 2157.43 2643.2 2211.84 2664.71 2252.8 2662.4 C 2293.76 2660.09 2363.26 2676.13 2336.41 2635.17 C 2309.56 2594.21 2391.48 2594.21 2377.37 2635.17 C 2363.26 2676.13 2416.64 2657.9 2457.6 2662.4 C 2498.56 2666.9 2556.43 2643.53 2541.08 2684.49 C 2525.74 2725.45 2607.66 2725.45 2582.04 2684.49 C 2556.43 2643.53 2621.44 2661.04 2662.4 2662.4 C 2703.36 2663.76 2755.03 2690.02 2736.72 2649.06 C 2718.41 2608.1 2800.33 2608.1 2777.68 2649.06 C 2755.03 2690.02 2826.24 2662.96 2867.2 2662.4 C 2908.16 2661.84 2966.06 2645.8 2951.32 2686.76 C 2936.57 2727.72 3018.49 2727.72 2992.28 2686.76 C 2966.06 2645.8 3031.04 2668.39 3072.0 2662.4" class="horizontal" stroke="black" fill="none" stroke-width="1"/>
  <path d="M 0.0,2867.2 C 40.96 2873.57 106.89 2843.36 85.4 2884.32 C 63.92 2925.28 145.84 2925.28 126.36 2884.32 C 106.89 2843.36 163.84 2864.04 204.8 2867.2 C 245.76 2870.36 302.42 2888.99 279.18 2848.03 C 255.93 2807.07 337.85 2807.07 320.14 2848.03 C 302.42 2888.99 368.64 2864.86 409.6 2867.2 C 450.56 2869.54 505.93 2894.37 486.7 2853.41 C 467.46 2812.45 549.38 2812.45 527.66 2853.41 C 505.93 2894.37 573.44 2863.16 614.4 2867.2 C 655.36 2871.24 707.65 2884.13 691.39 2843.17 C 675.14 2802.21 757.06 2802.21 732.35 2843.17 C 707.65 2884.13 778.24 2874.69 819.2 2867.2 C 860.16 2859.71 924.73 2842.41 902.51 2883.37 C 880.29 2924.33 962.21 2924.33 943.47 2883.37 C 924.73 2842.41 983.04 2867.59 1024.0 2867.2 C 1064.96 2866.81 1121.13 2889.95 1101.1 2848.99 C 1081.07 2808.03 1162.99 2808.03 1142.06 2848.99 C 1121.13 2889.95 1187.84 2875.29 1228.8 2867.2 C 1269.76 2859.11 1329.14 2838.57 1304.16 2879.53 C 1279.17 2920.49 1361.09 2920.49 1345.12 2879.53 C 1329.14 2838.57 1392.64 2865.68 1433.6 2867.2 C 1474.56 2868.72 1537.07 2840.22 1520.06 2881.18 C 1503.05 2922.14 1584.97 2922.14 1561.02 2881.18 C 1537.07 2840.22 1597.44 2871.53 1638.4 2867.2 C 1679.36 2862.87 1751.54 2851.83 1727.9 2892.79 C 1704.25 2933.75 1786.17 2933.75 1768.86 2892.79 C 1751.54 2851.83 1802.24 2874.14 1843.2 2867.2 C 1884.16 2860.26 1949.3 2881.19 1932.4 2840.23 C 1915.51 2799.27 1997.43 2799.27 1973.36 2840.23 C 1949.3 2881.19 2007.04 2872.88 2048.0 2867.2 C 2088.96 2861.52 2151.79 2889.9 2132.83 2848.94 C 2113.88 2807.98 2195.8 2807.98 2173.79 2848.94 C 2151.79 2889.9 2211.84 2860.69 2252.8 2867.2 C 2293.76 2873.71 2357.53 2883.97 2340.78 2843.01 C 2324.02 2802.05 2405.94 2802.05 2381.74 2843.01 C 2357.53 2883.97 2416.64 2873.71 2457.6 2867.2 C 2498.56 2860.69 2553.86 2894.93 2532.7 2853.97 C 2511.54 2813.01 2593.46 2813.01 2573.66 2853.97 C 2553.86 2894.93 2621.44 2861.67 2662.4 2867.2 C 2703.36 2872.73 2758.73 2848.08 2741.49 2889.04 C 2724.25 2930.0 2806.17 2930.0 2782.45 2889.04 C 2758.73 2848.08 2826.24 2874.11 2867.2 2867.2 C 2908.16 2860.29 2972.93 2844.46 2951.88 2885.42 C 2930.83 2926.38 3012.75 2926.38 2992.84 2885.42 C 2972.93 2844.46 3031.04 2870.17 3072.0 2867.2" class="horizontal" stroke="black" fill="none" stroke-width="1"/>
  <path d="M 204.8,0.0 C 198.4 40.96 188.13 108.77 229.09 82.23 C 270.05 55.68 270.05 137.6 229.09 123.19 C 188.13 108.77 203.99 163.84 204.8 204.8 C 205.61 245.76 233.39 311.41 192.43 286.9 C 151.47 262.4 151.47 344.32 192.43 327.86 C 233.39 311.41 200.99 368.64 204.8 409.6 C 208.61 450.56 230.59 504.42 189.63 487.97 C 148.67 471.52 148.67 553.44 189.63 528.93 C 230.59 504.42 207.26 573.44 204.8 614.4 C 202.34 655.36 232.37 709.7 191.41 690.98 C 150.45 672.25 150.45 754.17 191.41 731.94 C 232.37 709.7 200.79 778.24 204.8 819.2 C 208.81 860.16 178.82 918.66 219.78 894.08 C 260.74 869.5 260.74 951.42 219.78 935.04 C 178.82 918.66 209.6 983.04 204.8 1024.0 C 200.0 1064.96 226.38 1126.43 185.42 1098.66 C 144.46 1070.88 144.46 1152.8 185.42 1139.62 C 226.38 1126.43 211.63 1187.84 204.8 1228.8 C 197.97 1269.76 184.46 1333.51 225.42 1318.14 C 266.38 1302.77 266.38 1384.69 225.42 1359.1 C 184.46 1333.51 201.67 1392.64 204.8 1433.6 C 207.93 1474.56 185.7 1539.89 226.66 1518.41 C 267.62 1496.92 267.62 1578.84 226.66 1559.37 C 185.7 1539.89 207.24 1597.44 204.8 1638.4 C 202.36 1679.36 191.89 1738.4 232.85 1722.94 C 273.81 1707.48 273.81 1789.4 232.85 1763.9 C 191.89 1738.4 212.66 1802.24 204.8 1843.2 C 196.94 1884.16 182.52 1950.13 223.48 1922.39 C 264.44 1894.65 264.44 1976.57 223.48 1963.35 C 182.52 1950.13 207.0 2007.04 204.8 2048.0 C 202.6 2088.96 176.17 2151.06 217.13 2128.33 C 258.09 2105.59 258.09 2187.51 217.13 2169.29 C 176.17 2151.06 208.57 2211.84 204.8 2252.8 C 201.03 2293.76 185.86 2359.47 226.82 2340.94 C 267.78 2322.41 267.78 2404.33 226.82 2381.9 C 185.86 2359.47 205.63 2416.64 204.8 2457.6 C 203.97 2498.56 231.05 2562.44 190.09 2538.58 C 149.13 2514.71 149.13 2596.63 190.09 2579.54 C 231.05 2562.44 211.71 2621.44 204.8 2662.4 C 197.89 2703.36 177.54 2764.6 218.5 2737.66 C 259.46 2710.72 259.46 2792.64 218.5 2778.62 C 177.54 2764.6 196.91 2826.24 204.8 2867.2 C 212.69 2908.16 223.96 2962.85 183.0 2941.69 C 142.04 2920.53 142.04 3002.45 183.0 2982.65 C 223.96 2962.85 211.63 3031.04 204.8 3072.0" class="vertical" stroke="black" fill="none" stroke-width="1"/>
  <path d="M 409.6,0.0 C 409.83 40.96 427.6 101.18 386.64 77.96 C 345.68 54.75 345.68 136.67 386.64 118.92 C 427.6 101.18 415.2 163.84 409.6 204.8 C 404.0 245.76 428.18 305.71 387.22 279.75 C 346.26 253.79 346.26 335.71 387.22 320.71 C 428.18 305.71 409.32 368.64 409.6 409.6 C 409.88 450.56 429.57 507.54 388.61 491.26 C 347.65 474.97 347.65 556.89 388.61 532.22 C 429.57 507.54 416.5 573.44 409.6 614.4 C 402.7 655.36 433.48 720.59 392.52 698.58 C 351.56 676.58 351.56 758.5 392.52 739.54 C 433.48 720.59 412.99 778.24 409.6 819.2 C 406.21 860.16 422.36 929.81 381.4 904.67 C 340.44 879.53 340.44 961.45 381.4 945.63 C 422.36 929.81 416.54 983.04 409.6 1024.0 C 402.66 1064.96 381.35 1127.1 422.31 1109.94 C 463.27 1092.79 463.27 1174.71 422.31 1150.9 C 381.35 1127.1 416.03 1187.84 409.6 1228.8 C 403.17 1269.76 435.38 1337.78 394.42 1309.7 C 353.46 1281.61 353.46 1363.53 394.42 1350.66 C 435.38 1337.78 407.54 1392.64 409.6 1433.6 C 411.66 1474.56 392.66 1547.44 433.62 1519.46 C 474.58 1491.49 474.58 1573.41 433.62 1560.42 C 392.66 1547.44 407.56 1597.44 409.6 1638.4 C 411.64 1679.36 435.4 1732.52 394.44 1719.92 C 353.48 1707.33 353.48 1789.25 394.44 1760.88 C 435.4 1732.52 405.47 1802.24 409.6 1843.2 C 413.73 1884.16 427.54 1944.82 386.58 1922.96 C 345.62 1901.1 345.62 1983.02 386.58 1963.92 C 427.54 1944.82 416.47 2007.04 409.6 2048.0 C 402.73 2088.96 424.77 2144.1 383.81 2127.96 C 342.85 2111.82 342.85 2193.74 383.81 2168.92 C 424.77 2144.1 416.6 2211.84 409.6 2252.8 C 402.6 2293.76 383.97 2363.13 424.93 2334.54 C 465.89 2305.95 465.89 2387.87 424.93 2375.5 C 383.97 2363.13 413.25 2416.64 409.6 2457.6 C 405.95 2498.56 438.07 2556.25 397.11 2536.71 C 356.15 2517.16 356.15 2599.08 397.11 2577.67 C 438.07 2556.25 407.72 2621.44 409.6 2662.4 C 411.48 2703.36 391.81 2763.48 432.77 2750.83 C 473.73 2738.17 473.73 2820.09 432.77 2791.79 C 391.81 2763.48 404.39 2826.24 409.6 2867.2 C 414.81 2908.16 427.86 2963.86 386.9 2942.31 C 345.94 2920.77 345.94 3002.69 386.9 2983.27 C 427.86 2963.86 415.84 3031.04 409.6 3072.0" class="vertical" stroke="black" fill="none" stroke-width="1"/>
  <path d="M 614.4,0.0 C 610.81 40.96 595.42 94.86 636.38 79.49 C 677.34 64.12 677.34 146.04 636.38 120.45 C 595.42 94.86 621.73 163.84 614.4 204.8 C 607.07 245.76 641.67 304.33 600.71 283.95 C 559.75 263.56 559.75 345.48 600.71 324.91 C 641.67 304.33 610.39 368.64 614.4 409.6 C 618.41 450.56 593.68 517.87 634.64 498.9 C 675.6 479.92 675.6 561.84 634.64 539.86 C 593.68 517.87 610.63 573.44 614.4 614.4 C 618.17 655.36 589.42 722.08 630.38 695.3 C 671.34 668.52 671.34 750.44 630.38 736.26 C 589.42 722.08 615.38 778.24 614.4 819.2 C 613.42 860.16 587.01 920.88 627.97 894.76 C 668.93 868.64 668.93 950.56 627.97 935.72 C 587.01 920.88 620.46 983.04 614.4 1024.0 C 608.34 1064.96 639.09 1117.16 598.13 1103.57 C 557.17 1089.99 557.17 1171.91 598.13 1144.53 C 639.09 1117.16 617.75 1187.84 614.4 1228.8 C 611.05 1269.76 634.22 1320.49 593.26 1308.04 C 552.3 1295.58 552.3 1377.5 593.26 1349.0 C 634.22 1320.49 619.26 1392.64 614.4 1433.6 C 609.54 1474.56 600.69 1522.22 641.65 1509.21 C 682.61 1496.2 682.61 1578.12 641.65 1550.17 C 600.69 1522.22 620.49 1597.44 614.4 1638.4 C 608.31 1679.36 588.17 1740.61 629.13 1719.86 C 670.09 1699.11 670.09 1781.03 629.13 1760.82 C 588.17 1740.61 606.52 1802.24 614.4 1843.2 C 622.28 1884.16 636.95 1944.38 595.99 1921.57 C 555.03 1898.77 555.03 1980.69 595.99 1962.53 C 636.95 1944.38 607.44 2007.04 614.4 2048.0 C 621.36 2088.96 602.01 2161.71 642.97 2137.51 C 683.93 2113.3 683.93 2195.22 642.97 2178.47 C 602.01 2161.71 621.41 2211.84 614.4 2252.8 C 607.39 2293.76 601.28 2357.43 642.24 2340.56 C 683.2 2323.68 683.2 2405.6 642.24 2381.52 C 601.28 2357.43 609.87 2416.64 614.4 2457.6 C 618.93 2498.56 599.39 2560.7 640.35 2535.39 C 681.31 2510.09 681.31 2592.01 640.35 2576.35 C 599.39 2560.7 610.77 2621.44 614.4 2662.4 C 618.03 2703.36 585.93 2775.35 626.89 2747.46 C 667.85 2719.57 667.85 2801.49 626.89 2788.42 C 585.93 2775.35 616.93 2826.24 614.4 2867.2 C 611.87 2908.16 602.03 2964.93 642.99 2950.44 C 683.95 2935.95 683.95 3017.87 642.99 2991.4 C 602.03 2964.93 617.18 3031.04 614.4 3072.0" class="vertical" stroke="black" fill="none" stroke-width="1"/>
  <path d="M 819.2,0.0 C 818.43 40.96 797.33 95.25 838.29 77.07 C 879.25 58.89 879.25 140.81 838.29 118.03 C 797.33 95.25 821.42 163.84 819.2 204.8 C 816.98 245.76 834.81 293.99 793.85 281.36 C 752.89 268.74 752.89 350.66 793.85 322.32 C 834.81 293.99 820.54 368.64 819.2 409.6 C 817.86 450.56 794.52 512.77 835.48 492.09 C 876.44 471.41 876.44 553.33 835.48 533.05 C 794.52 512.77 817.82 573.44 819.2 614.4 C 820.58 655.36 792.77 713.74 833.73 692.41 C 874.69 671.08 874.69 753.0 833.73 733.37 C 792.77 713.74 815.04 778.24 819.2 819.2 C 823.36 860.16 799.3 913.58 840.26 899.55 C 881.22 885.53 881.22 967.45 840.26 940.51 C 799.3 913.58 813.28 983.04 819.2 1024.0 C 825.12 1064.96 797.92 1126.95 838.88 1101.74 C 879.84 1076.53 879.84 1158.45 838.88 1142.7 C 797.92 1126.95 819.34 1187.84 819.2 1228.8 C 819.06 1269.76 806.72 1334.26 847.68 1312.51 C 888.64 1290.77 888.64 1372.69 847.68 1353.47 C 806.72 1334.26 820.82 1392.64 819.2 1433.6 C 817.58 1474.56 834.15 1530.49 793.19 1513.58 C 752.23 1496.68 752.23 1578.6 793.19 1554.54 C 834.15 1530.49 825.22 1597.44 819.2 1638.4 C 813.18 1679.36 790.91 1745.35 831.87 1718.85 C 872.83 1692.35 872.83 1774.27 831.87 1759.81 C 790.91 1745.35 815.97 1802.24 819.2 1843.2 C 822.43 1884.16 846.99 1939.86 806.03 1918.43 C 765.07 1896.99 765.07 1978.91 806.03 1959.39 C 846.99 1939.86 814.26 2007.04 819.2 2048.0 C 824.14 2088.96 842.47 2156.27 801.51 2128.25 C 760.55 2100.22 760.55 2182.14 801.51 2169.21 C 842.47 2156.27 816.05 2211.84 819.2 2252.8 C 822.35 2293.76 839.8 2361.28 798.84 2341.2 C 757.88 2321.11 757.88 2403.03 798.84 2382.16 C 839.8 2361.28 816.69 2416.64 819.2 2457.6 C 821.71 2498.56 803.88 2555.38 844.84 2531.49 C 885.8 2507.61 885.8 2589.53 844.84 2572.45 C 803.88 2555.38 827.36 2621.44 819.2 2662.4 C 811.04 2703.36 840.08 2766.17 799.12 2739.22 C 758.16 2712.26 758.16 2794.18 799.12 2780.18 C 840.08 2766.17 819.9 2826.24 819.2 2867.2 C 818.5 2908.16 843.5 2972.83 802.54 2952.73 C 761.58 2932.64 761.58 3014.56 802.54 2993.69 C 843.5 2972.83 821.01 3031.04 819.2 3072.0" class="vertical" stroke="black" fill="none" stroke-width="1"/>
  <path d="M 1024.0,0.0 C 1015.92 40.96 1002.55 97.56 1043.51 74.11 C 1084.47 50.67 1084.47 132.59 1043.51 115.07 C 1002.55 97.56 1022.25 163.84 1024.0 204.8 C 1025.75 245.76 1011.67 299.98 1052.63 279.9 C 1093.59 259.81 1093.59 341.73 1052.63 320.86 C 1011.67 299.98 1030.58 368.64 1024.0 409.6 C 1017.42 450.56 1011.41 502.44 1052.37 486.42 C 1093.33 470.4 1093.33 552.32 1052.37 527.38 C 1011.41 502.44 1030.14 573.44 1024.0 614.4 C 1017.86 655.36 1040.96 728.14 1000.0 702.44 C 959.04 676.75 959.04 758.67 1000.0 743.4 C 1040.96 728.14 1017.27 778.24 1024.0 819.2 C 1030.73 860.16 1007.91 920.58 1048.87 895.76 C 1089.83 870.95 1089.83 952.87 1048.87 936.72 C 1007.91 920.58 1024.19 983.04 1024.0 1024.0 C 1023.81 1064.96 1004.99 1130.72 1045.95 1102.55 C 1086.91 1074.37 1086.91 1156.29 1045.95 1143.51 C 1004.99 1130.72 1017.98 1187.84 1024.0 1228.8 C 1030.02 1269.76 999.0 1339.63 1039.96 1311.02 C 1080.92 1282.41 1080.92 1364.33 1039.96 1351.98 C 999.0 1339.63 1017.35 1392.64 1024.0 1433.6 C 1030.65 1474.56 1043.39 1541.46 1002.43 1516.2 C 961.47 1490.94 961.47 1572.86 1002.43 1557.16 C 1043.39 1541.46 1016.51 1597.44 1024.0 1638.4 C 1031.49 1679.36 995.63 1749.67 1036.59 1721.32 C 1077.55 1692.97 1077.55 1774.89 1036.59 1762.28 C 995.63 1749.67 1025.86 1802.24 1024.0 1843.2 C 1022.14 1884.16 1010.39 1935.16 1051.35 1919.2 C 1092.31 1903.24 1092.31 1985.16 1051.35 1960.16 C 1010.39 1935.16 1029.39 2007.04 1024.0 2048.0 C 1018.61 2088.96 1006.49 2154.86 1047.45 2128.72 C 1088.41 2102.59 1088.41 2184.51 1047.45 2169.68 C 1006.49 2154.86 1024.14 2211.84 1024.0 2252.8 C 1023.86 2293.76 1006.95 2344.28 1047.91 2327.39 C 1088.87 2310.5 1088.87 2392.42 1047.91 2368.35 C 1006.95 2344.28 1031.85 2416.64 1024.0 2457.6 C 1016.15 2498.56 997.99 2552.78 1038.95 2535.26 C 1079.91 2517.73 1079.91 2599.65 1038.95 2576.22 C 997.99 2552.78 1024.18 2621.44 1024.0 2662.4 C 1023.82 2703.36 1042.45 2769.94 1001.49 2747.74 C 960.53 2725.54 960.53 2807.46 1001.49 2788.7 C 1042.45 2769.94 1026.57 2826.24 1024.0 2867.2 C 1021.43 2908.16 1001.79 2963.04 1042.75 2945.55 C 1083.71 2928.07 1083.71 3009.99 1042.75 2986.51 C 1001.79 2963.04 1016.68 3031.04 1024.0 3072.0" class="vertical" stroke="black" fill="none" stroke-width="1"/>
  <path d="M 1228.8,0.0 C 1226.32 40.96 1245.98 96.49 1205.02 80.12 C 1164.06 63.75 1164.06 145.67 1205.02 121.08 C 1245.98 96.49 1229.72 163.84 1228.8 204.8 C 1227.88 245.76 1253.07 300.5 1212.11 282.98 C 1171.15 265.47 1171.15 347.39 1212.11 323.94 C 1253.07 300.5 1232.69 368.64 1228.8 409.6 C 1224.91 450.56 1201.29 513.43 1242.25 497.26 C 1283.21 481.1 1283.21 563.02 1242.25 538.22 C 1201.29 513.43 1231.12 573.44 1228.8 614.4 C 1226.48 655.36 1254.61 721.62 1213.65 703.22 C 1172.69 684.82 1172.69 766.74 1213.65 744.18 C 1254.61 721.62 1236.83 778.24 1228.8 819.2 C 1220.77 860.16 1205.85 927.11 1246.81 903.89 C 1287.77 880.67 1287.77 962.59 1246.81 944.85 C 1205.85 927.11 1224.09 983.04 1228.8 1024.0 C 1233.51 1064.96 1246.67 1122.3 1205.71 1100.24 C 1164.75 1078.18 1164.75 1160.1 1205.71 1141.2 C 1246.67 1122.3 1229.6 1187.84 1228.8 1228.8 C 1228.0 1269.76 1246.97 1319.9 1206.01 1306.71 C 1165.05 1293.52 1165.05 1375.44 1206.01 1347.67 C 1246.97 1319.9 1235.08 1392.64 1228.8 1433.6 C 1222.52 1474.56 1254.7 1536.94 1213.74 1518.64 C 1172.78 1500.35 1172.78 1582.27 1213.74 1559.6 C 1254.7 1536.94 1222.2 1597.44 1228.8 1638.4 C 1235.4 1679.36 1212.5 1739.72 1253.46 1715.11 C 1294.42 1690.49 1294.42 1772.41 1253.46 1756.07 C 1212.5 1739.72 1234.1 1802.24 1228.8 1843.2 C 1223.5 1884.16 1253.32 1944.14 1212.36 1917.34 C 1171.4 1890.54 1171.4 1972.46 1212.36 1958.3 C 1253.32 1944.14 1225.4 2007.04 1228.8 2048.0 C 1232.2 2088.96 1241.37 2150.1 1200.41 2123.94 C 1159.45 2097.79 1159.45 2179.71 1200.41 2164.9 C 1241.37 2150.1 1231.77 2211.84 1228.8 2252.8 C 1225.83 2293.76 1203.28 2352.63 1244.24 2329.0 C 1285.2 2305.36 1285.2 2387.28 1244.24 2369.96 C 1203.28 2352.63 1228.16 2416.64 1228.8 2457.6 C 1229.44 2498.56 1213.69 2564.1 1254.65 2537.95 C 1295.61 2511.8 1295.61 2593.72 1254.65 2578.91 C 1213.69 2564.1 1233.63 2621.44 1228.8 2662.4 C 1223.97 2703.36 1207.86 2770.47 1248.82 2748.7 C 1289.78 2726.93 1289.78 2808.85 1248.82 2789.66 C 1207.86 2770.47 1223.04 2826.24 1228.8 2867.2 C 1234.56 2908.16 1206.35 2985.06 1247.31 2956.89 C 1288.27 2928.72 1288.27 3010.64 1247.31 2997.85 C 1206.35 2985.06 1225.22 3031.04 1228.8 3072.0" class="vertical" stroke="black" fill="none" stroke-width="1"/>
  <path d="M 1433.6,0.0 C 1438.48 40.96 1419.85 104.0 1460.81 83.51 C 1501.77 63.01 1501.77 144.93 1460.81 124.47 C 1419.85 104.0 1440.27 163.84 1433.6 204.8 C 1426.93 245.76 1419.29 316.75 1460.25 291.51 C 1501.21 266.28 1501.21 348.2 1460.25 332.47 C 1419.29 316.75 1441.51 368.64 1433.6 409.6 C 1425.69 450.56 1409.65 521.07 1450.61 497.33 C 1491.57 473.58 1491.57 555.5 1450.61 538.29 C 1409.65 521.07 1429.32 573.44 1433.6 614.4 C 1437.88 655.36 1412.21 720.03 1453.17 703.28 C 1494.13 686.53 1494.13 768.45 1453.17 744.24 C 1412.21 720.03 1425.88 778.24 1433.6 819.2 C 1441.32 860.16 1406.98 923.11 1447.94 903.28 C 1488.9 883.45 1488.9 965.37 1447.94 944.24 C 1406.98 923.11 1427.82 983.04 1433.6 1024.0 C 1439.38 1064.96 1454.3 1129.0 1413.34 1106.86 C 1372.38 1084.72 1372.38 1166.64 1413.34 1147.82 C 1454.3 1129.0 1437.77 1187.84 1433.6 1228.8 C 1429.43 1269.76 1417.2 1323.13 1458.16 1307.17 C 1499.12 1291.22 1499.12 1373.14 1458.16 1348.13 C 1417.2 1323.13 1433.79 1392.64 1433.6 1433.6 C 1433.41 1474.56 1446.38 1524.99 1405.42 1511.22 C 1364.46 1497.45 1364.46 1579.37 1405.42 1552.18 C 1446.38 1524.99 1435.32 1597.44 1433.6 1638.4 C 1431.88 1679.36 1460.31 1743.57 1419.35 1718.19 C 1378.39 1692.81 1378.39 1774.73 1419.35 1759.15 C 1460.31 1743.57 1428.21 1802.24 1433.6 1843.2 C 1438.99 1884.16 1457.34 1948.69 1416.38 1923.95 C 1375.42 1899.22 1375.42 1981.14 1416.38 1964.91 C 1457.34 1948.69 1435.88 2007.04 1433.6 2048.0 C 1431.32 2088.96 1451.3 2158.47 1410.34 2135.88 C 1369.38 2113.29 1369.38 2195.21 1410.34 2176.84 C 1451.3 2158.47 1440.85 2211.84 1433.6 2252.8 C 1426.35 2293.76 1417.72 2358.88 1458.68 2336.67 C 1499.64 2314.46 1499.64 2396.38 1458.68 2377.63 C 1417.72 2358.88 1435.56 2416.64 1433.6 2457.6 C 1431.64 2498.56 1446.54 2562.63 1405.58 2539.43 C 1364.62 2516.22 1364.62 2598.14 1405.58 2580.39 C 1446.54 2562.63 1426.77 2621.44 1433.6 2662.4 C 1440.43 2703.36 1447.26 2765.69 1406.3 2747.58 C 1365.34 2729.47 1365.34 2811.39 1406.3 2788.54 C 1447.26 2765.69 1438.25 2826.24 1433.6 2867.2 C 1428.95 2908.16 1409.01 2971.78 1449.97 2946.45 C 1490.93 2921.11 1490.93 3003.03 1449.97 2987.41 C 1409.01 2971.78 1436.94 3031.04 1433.6 3072.0" class="vertical" stroke="black" fill="none" stroke-width="1"/>
  <path d="M 1638.4,0.0 C 1642.84 40.96 1652.48 105.42 1611.52 77.15 C 1570.56 48.87 1570.56 130.79 1611.52 118.11 C 1652.48 105.42 1632.39 163.84 1638.4 204.8 C 1644.41 245.76 1662.41 309.11 1621.45 285.57 C 1580.49 262.03 1580.49 343.95 1621.45 326.53 C 1662.41 309.11 1638.3 368.64 1638.4 409.6 C 1638.5 450.56 1660.28 515.7 1619.32 495.49 C 1578.36 475.29 1578.36 557.21 1619.32 536.45 C 1660.28 515.7 1633.93 573.44 1638.4 614.4 C 1642.87 655.36 1624.39 704.61 1665.35 688.41 C 1706.31 672.21 1706.31 754.13 1665.35 729.37 C 1624.39 704.61 1640.77 778.24 1638.4 819.2 C 1636.03 860.16 1621.25 920.93 1662.21 897.24 C 1703.17 873.55 1703.17 955.47 1662.21 938.2 C 1621.25 920.93 1637.56 983.04 1638.4 1024.0 C 1639.24 1064.96 1621.37 1116.71 1662.33 1098.14 C 1703.29 1079.57 1703.29 1161.49 1662.33 1139.1 C 1621.37 1116.71 1633.9 1187.84 1638.4 1228.8 C 1642.9 1269.76 1610.6 1340.57 1651.56 1318.59 C 1692.52 1296.6 1692.52 1378.52 1651.56 1359.55 C 1610.6 1340.57 1636.61 1392.64 1638.4 1433.6 C 1640.19 1474.56 1610.56 1534.74 1651.52 1514.36 C 1692.48 1493.99 1692.48 1575.91 1651.52 1555.32 C 1610.56 1534.74 1631.36 1597.44 1638.4 1638.4 C 1645.44 1679.36 1615.22 1747.17 1656.18 1719.89 C 1697.14 1692.61 1697.14 1774.53 1656.18 1760.85 C 1615.22 1747.17 1643.14 1802.24 1638.4 1843.2 C 1633.66 1884.16 1659.85 1948.13 1618.89 1924.99 C 1577.93 1901.85 1577.93 1983.77 1618.89 1965.95 C 1659.85 1948.13 1637.93 2007.04 1638.4 2048.0 C 1638.87 2088.96 1618.85 2149.71 1659.81 2134.27 C 1700.77 2118.84 1700.77 2200.76 1659.81 2175.23 C 1618.85 2149.71 1640.67 2211.84 1638.4 2252.8 C 1636.13 2293.76 1666.57 2352.53 1625.61 2330.49 C 1584.65 2308.46 1584.65 2390.38 1625.61 2371.45 C 1666.57 2352.53 1630.44 2416.64 1638.4 2457.6 C 1646.36 2498.56 1619.32 2560.37 1660.28 2543.0 C 1701.24 2525.63 1701.24 2607.55 1660.28 2583.96 C 1619.32 2560.37 1639.23 2621.44 1638.4 2662.4 C 1637.57 2703.36 1617.15 2764.64 1658.11 2747.67 C 1699.07 2730.7 1699.07 2812.62 1658.11 2788.63 C 1617.15 2764.64 1630.47 2826.24 1638.4 2867.2 C 1646.33 2908.16 1614.66 2973.28 1655.62 2948.74 C 1696.58 2924.21 1696.58 3006.13 1655.62 2989.7 C 1614.66 2973.28 1633.06 3031.04 1638.4 3072.0" class="vertical" stroke="black" fill="none" stroke-width="1"/>
  <path d="M 1843.2,0.0 C 1837.54 40.96 1826.91 114.43 1867.87 88.34 C 1908.83 62.24 1908.83 144.16 1867.87 129.3 C 1826.91 114.43 1835.16 163.84 1843.2 204.8 C 1851.24 245.76 1827.78 306.45 1868.74 282.91 C 1909.7 259.37 1909.7 341.29 1868.74 323.87 C 1827.78 306.45 1838.64 368.64 1843.2 409.6 C 1847.76 450.56 1818.96 518.14 1859.92 496.32 C 1900.88 474.5 1900.88 556.42 1859.92 537.28 C 1818.96 518.14 1838.77 573.44 1843.2 614.4 C 1847.63 655.36 1818.97 710.95 1859.93 696.92 C 1900.89 682.9 1900.89 764.82 1859.93 737.88 C 1818.97 710.95 1848.07 778.24 1843.2 819.2 C 1838.33 860.16 1822.79 914.32 1863.75 898.18 C 1904.71 882.05 1904.71 963.97 1863.75 939.14 C 1822.79 914.32 1843.65 983.04 1843.2 1024.0 C 1842.75 1064.96 1817.65 1128.46 1858.61 1106.91 C 1899.57 1085.35 1899.57 1167.27 1858.61 1147.87 C 1817.65 1128.46 1846.12 1187.84 1843.2 1228.8 C 1840.28 1269.76 1867.36 1343.29 1826.4 1318.65 C 1785.44 1294.0 1785.44 1375.92 1826.4 1359.61 C 1867.36 1343.29 1847.61 1392.64 1843.2 1433.6 C 1838.79 1474.56 1830.3 1529.22 1871.26 1512.38 C 1912.22 1495.53 1912.22 1577.45 1871.26 1553.34 C 1830.3 1529.22 1847.71 1597.44 1843.2 1638.4 C 1838.69 1679.36 1823.36 1745.26 1864.32 1716.91 C 1905.28 1688.56 1905.28 1770.48 1864.32 1757.87 C 1823.36 1745.26 1835.06 1802.24 1843.2 1843.2 C 1851.34 1884.16 1829.69 1952.54 1870.65 1924.07 C 1911.61 1895.6 1911.61 1977.52 1870.65 1965.03 C 1829.69 1952.54 1836.01 2007.04 1843.2 2048.0 C 1850.39 2088.96 1830.67 2149.24 1871.63 2135.29 C 1912.59 2121.33 1912.59 2203.25 1871.63 2176.25 C 1830.67 2149.24 1850.35 2211.84 1843.2 2252.8 C 1836.05 2293.76 1830.86 2349.49 1871.82 2326.81 C 1912.78 2304.14 1912.78 2386.06 1871.82 2367.77 C 1830.86 2349.49 1851.08 2416.64 1843.2 2457.6 C 1835.32 2498.56 1863.87 2554.15 1822.91 2541.32 C 1781.95 2528.48 1781.95 2610.4 1822.91 2582.28 C 1863.87 2554.15 1846.89 2621.44 1843.2 2662.4 C 1839.51 2703.36 1869.07 2770.39 1828.11 2752.27 C 1787.15 2734.16 1787.15 2816.08 1828.11 2793.23 C 1869.07 2770.39 1844.65 2826.24 1843.2 2867.2 C 1841.75 2908.16 1818.94 2980.24 1859.9 2956.8 C 1900.86 2933.37 1900.86 3015.29 1859.9 2997.76 C 1818.94 2980.24 1849.16 3031.04 1843.2 3072.0" class="vertical" stroke="black" fill="none" stroke-width="1"/>
  <path d="M 2048.0,0.0 C 2055.36 40.96 2067.38 102.34 2026.42 87.67 C 1985.46 73.0 1985.46 154.92 2026.42 128.63 C 2067.38 102.34 2052.37 163.84 2048.0 204.8 C 2043.63 245.76 2027.93 305.88 2068.89 293.5 C 2109.85 281.13 2109.85 363.05 2068.89 334.46 C 2027.93 305.88 2041.38 368.64 2048.0 409.6 C 2054.62 450.56 2064.85 517.17 2023.89 490.92 C 1982.93 464.67 1982.93 546.59 2023.89 531.88 C 2064.85 517.17 2043.24 573.44 2048.0 614.4 C 2052.76 655.36 2075.42 706.35 2034.46 690.69 C 1993.5 675.02 1993.5 756.94 2034.46 731.65 C 2075.42 706.35 2043.86 778.24 2048.0 819.2 C 2052.14 860.16 2028.35 927.2 2069.31 908.29 C 2110.27 889.38 2110.27 971.3 2069.31 949.25 C 2028.35 927.2 2051.27 983.04 2048.0 1024.0 C 2044.73 1064.96 2033.6 1132.21 2074.56 1112.53 C 2115.52 1092.84 2115.52 1174.76 2074.56 1153.49 C 2033.6 1132.21 2047.53 1187.84 2048.0 1228.8 C 2048.47 1269.76 2032.71 1328.03 2073.67 1305.99 C 2114.63 1283.96 2114.63 1365.88 2073.67 1346.95 C 2032.71 1328.03 2053.96 1392.64 2048.0 1433.6 C 2042.04 1474.56 2028.78 1546.41 2069.74 1519.88 C 2110.7 1493.36 2110.7 1575.28 2069.74 1560.84 C 2028.78 1546.41 2055.88 1597.44 2048.0 1638.4 C 2040.12 1679.36 2062.64 1748.58 2021.68 1724.64 C 1980.72 1700.71 1980.72 1782.63 2021.68 1765.6 C 2062.64 1748.58 2042.75 1802.24 2048.0 1843.2 C 2053.25 1884.16 2075.62 1948.03 2034.66 1926.5 C 1993.7 1904.98 1993.7 1986.9 2034.66 1967.46 C 2075.62 1948.03 2050.31 2007.04 2048.0 2048.0 C 2045.69 2088.96 2066.59 2146.16 2025.63 2122.06 C 1984.67 2097.96 1984.67 2179.88 2025.63 2163.02 C 2066.59 2146.16 2054.16 2211.84 2048.0 2252.8 C 2041.84 2293.76 2019.7 2353.86 2060.66 2331.06 C 2101.62 2308.25 2101.62 2390.17 2060.66 2372.02 C 2019.7 2353.86 2048.86 2416.64 2048.0 2457.6 C 2047.14 2498.56 2028.51 2565.66 2069.47 2545.83 C 2110.43 2526.01 2110.43 2607.93 2069.47 2586.79 C 2028.51 2565.66 2043.71 2621.44 2048.0 2662.4 C 2052.29 2703.36 2019.79 2758.66 2060.75 2736.76 C 2101.71 2714.86 2101.71 2796.78 2060.75 2777.72 C 2019.79 2758.66 2050.47 2826.24 2048.0 2867.2 C 2045.53 2908.16 2033.15 2954.13 2074.11 2941.75 C 2115.07 2929.37 2115.07 3011.29 2074.11 2982.71 C 2033.15 2954.13 2055.6 3031.04 2048.0 3072.0" class="vertical" stroke="black" fill="none" stroke-width="1"/>
  <path d="M 2252.8,0.0 C 2244.75 40.96 2276.27 91.64 2235.31 73.84 C 2194.35 56.05 2194.35 137.97 2235.31 114.8 C 2276.27 91.64 2251.53 163.84 2252.8 204.8 C 2254.07 245.76 2238.38 310.87 2279.34 288.93 C 2320.3 266.99 2320.3 348.91 2279.34 329.89 C 2238.38 310.87 2257.41 368.64 2252.8 409.6 C 2248.19 450.56 2266.61 503.21 2225.65 488.77 C 2184.69 474.33 2184.69 556.25 2225.65 529.73 C 2266.61 503.21 2253.69 573.44 2252.8 614.4 C 2251.91 655.36 2229.29 707.37 2270.25 693.0 C 2311.21 678.64 2311.21 760.56 2270.25 733.96 C 2229.29 707.37 2256.83 778.24 2252.8 819.2 C 2248.77 860.16 2268.94 925.08 2227.98 898.28 C 2187.02 871.47 2187.02 953.39 2227.98 939.24 C 2268.94 925.08 2254.15 983.04 2252.8 1024.0 C 2251.45 1064.96 2239.81 1113.3 2280.77 1099.7 C 2321.73 1086.11 2321.73 1168.03 2280.77 1140.66 C 2239.81 1113.3 2252.06 1187.84 2252.8 1228.8 C 2253.54 1269.76 2274.49 1325.81 2233.53 1307.71 C 2192.57 1289.62 2192.57 1371.54 2233.53 1348.67 C 2274.49 1325.81 2248.49 1392.64 2252.8 1433.6 C 2257.11 1474.56 2239.29 1530.96 2280.25 1517.68 C 2321.21 1504.39 2321.21 1586.31 2280.25 1558.64 C 2239.29 1530.96 2251.56 1597.44 2252.8 1638.4 C 2254.04 1679.36 2239.91 1746.22 2280.87 1727.2 C 2321.83 1708.17 2321.83 1790.09 2280.87 1768.16 C 2239.91 1746.22 2247.21 1802.24 2252.8 1843.2 C 2258.39 1884.16 2277.32 1951.34 2236.36 1931.72 C 2195.4 1912.1 2195.4 1994.02 2236.36 1972.68 C 2277.32 1951.34 2253.91 2007.04 2252.8 2048.0 C 2251.69 2088.96 2270.79 2152.03 2229.83 2137.88 C 2188.87 2123.73 2188.87 2205.65 2229.83 2178.84 C 2270.79 2152.03 2252.56 2211.84 2252.8 2252.8 C 2253.04 2293.76 2274.5 2366.72 2233.54 2342.03 C 2192.58 2317.33 2192.58 2399.25 2233.54 2382.99 C 2274.5 2366.72 2249.86 2416.64 2252.8 2457.6 C 2255.74 2498.56 2274.54 2550.77 2233.58 2536.02 C 2192.62 2521.26 2192.62 2603.18 2233.58 2576.98 C 2274.54 2550.77 2245.25 2621.44 2252.8 2662.4 C 2260.35 2703.36 2271.43 2764.07 2230.47 2739.84 C 2189.51 2715.61 2189.51 2797.53 2230.47 2780.8 C 2271.43 2764.07 2248.97 2826.24 2252.8 2867.2 C 2256.63 2908.16 2267.73 2972.0 2226.77 2946.44 C 2185.81 2920.88 2185.81 3002.8 2226.77 2987.4 C 2267.73 2972.0 2245.98 3031.04 2252.8 3072.0" class="vertical" stroke="black" fill="none" stroke-width="1"/>
  <path d="M 2457.6,0.0 C 2455.86 40.96 2477.28 98.2 2436.32 75.03 C 2395.36 51.86 2395.36 133.78 2436.32 115.99 C 2477.28 98.2 2465.13 163.84 2457.6 204.8 C 2450.07 245.76 2430.27 301.09 2471.23 279.85 C 2512.19 258.62 2512.19 340.54 2471.23 320.81 C 2430.27 301.09 2460.57 368.64 2457.6 409.6 C 2454.63 450.56 2474.09 504.12 2433.13 489.76 C 2392.17 475.4 2392.17 557.32 2433.13 530.72 C 2474.09 504.12 2463.24 573.44 2457.6 614.4 C 2451.96 655.36 2485.4 715.36 2444.44 696.92 C 2403.48 678.48 2403.48 760.4 2444.44 737.88 C 2485.4 715.36 2457.2 778.24 2457.6 819.2 C 2458.0 860.16 2485.79 924.36 2444.83 907.84 C 2403.87 891.33 2403.87 973.25 2444.83 948.8 C 2485.79 924.36 2464.54 983.04 2457.6 1024.0 C 2450.66 1064.96 2439.76 1134.3 2480.72 1106.07 C 2521.68 1077.83 2521.68 1159.75 2480.72 1147.03 C 2439.76 1134.3 2464.35 1187.84 2457.6 1228.8 C 2450.85 1269.76 2476.12 1332.83 2435.16 1316.85 C 2394.2 1300.87 2394.2 1382.79 2435.16 1357.81 C 2476.12 1332.83 2460.53 1392.64 2457.6 1433.6 C 2454.67 1474.56 2433.58 1529.43 2474.54 1509.26 C 2515.5 1489.08 2515.5 1571.0 2474.54 1550.22 C 2433.58 1529.43 2455.09 1597.44 2457.6 1638.4 C 2460.11 1679.36 2481.9 1739.67 2440.94 1721.87 C 2399.98 1704.06 2399.98 1785.98 2440.94 1762.83 C 2481.9 1739.67 2461.88 1802.24 2457.6 1843.2 C 2453.32 1884.16 2433.43 1946.13 2474.39 1930.59 C 2515.35 1915.05 2515.35 1996.97 2474.39 1971.55 C 2433.43 1946.13 2458.75 2007.04 2457.6 2048.0 C 2456.45 2088.96 2443.56 2156.83 2484.52 2134.75 C 2525.48 2112.66 2525.48 2194.58 2484.52 2175.71 C 2443.56 2156.83 2457.16 2211.84 2457.6 2252.8 C 2458.04 2293.76 2441.58 2352.64 2482.54 2334.34 C 2523.5 2316.03 2523.5 2397.95 2482.54 2375.3 C 2441.58 2352.64 2464.21 2416.64 2457.6 2457.6 C 2450.99 2498.56 2441.19 2562.69 2482.15 2539.11 C 2523.11 2515.52 2523.11 2597.44 2482.15 2580.07 C 2441.19 2562.69 2455.99 2621.44 2457.6 2662.4 C 2459.21 2703.36 2476.12 2763.4 2435.16 2739.23 C 2394.2 2715.05 2394.2 2796.97 2435.16 2780.19 C 2476.12 2763.4 2462.26 2826.24 2457.6 2867.2 C 2452.94 2908.16 2472.75 2979.42 2431.79 2954.11 C 2390.83 2928.79 2390.83 3010.71 2431.79 2995.07 C 2472.75 2979.42 2450.61 3031.04 2457.6 3072.0" class="vertical" stroke="black" fill="none" stroke-width="1"/>
  <path d="M 2662.4,0.0 C 2660.61 40.96 2683.18 87.39 2642.22 73.79 C 2601.26 60.19 2601.26 142.11 2642.22 114.75 C 2683.18 87.39 2660.48 163.84 2662.4 204.8 C 2664.32 245.76 2645.09 304.99 2686.05 286.82 C 2727.01 268.66 2727.01 350.58 2686.05 327.78 C 2645.09 304.99 2658.14 368.64 2662.4 409.6 C 2666.66 450.56 2637.32 508.17 2678.28 489.48 C 2719.24 470.79 2719.24 552.71 2678.28 530.44 C 2637.32 508.17 2659.48 573.44 2662.4 614.4 C 2665.32 655.36 2679.41 719.88 2638.45 697.91 C 2597.49 675.93 2597.49 757.85 2638.45 738.87 C 2679.41 719.88 2659.36 778.24 2662.4 819.2 C 2665.44 860.16 2674.89 923.03 2633.93 902.86 C 2592.97 882.68 2592.97 964.6 2633.93 943.82 C 2674.89 923.03 2657.73 983.04 2662.4 1024.0 C 2667.07 1064.96 2689.62 1127.22 2648.66 1105.76 C 2607.7 1084.31 2607.7 1166.23 2648.66 1146.72 C 2689.62 1127.22 2668.83 1187.84 2662.4 1228.8 C 2655.97 1269.76 2677.65 1321.93 2636.69 1307.03 C 2595.73 1292.14 2595.73 1374.06 2636.69 1347.99 C 2677.65 1321.93 2664.78 1392.64 2662.4 1433.6 C 2660.02 1474.56 2643.06 1548.16 2684.02 1521.29 C 2724.98 1494.42 2724.98 1576.34 2684.02 1562.25 C 2643.06 1548.16 2656.67 1597.44 2662.4 1638.4 C 2668.13 1679.36 2684.45 1749.53 2643.49 1726.69 C 2602.53 1703.85 2602.53 1785.77 2643.49 1767.65 C 2684.45 1749.53 2668.48 1802.24 2662.4 1843.2 C 2656.32 1884.16 2678.98 1957.17 2638.02 1928.8 C 2597.06 1900.43 2597.06 1982.35 2638.02 1969.76 C 2678.98 1957.17 2655.97 2007.04 2662.4 2048.0 C 2668.83 2088.96 2680.62 2152.69 2639.66 2128.53 C 2598.7 2104.36 2598.7 2186.28 2639.66 2169.49 C 2680.62 2152.69 2669.71 2211.84 2662.4 2252.8 C 2655.09 2293.76 2688.75 2357.91 2647.79 2334.38 C 2606.83 2310.84 2606.83 2392.76 2647.79 2375.34 C 2688.75 2357.91 2660.77 2416.64 2662.4 2457.6 C 2664.03 2498.56 2676.52 2555.97 2635.56 2536.71 C 2594.6 2517.44 2594.6 2599.36 2635.56 2577.67 C 2676.52 2555.97 2669.76 2621.44 2662.4 2662.4 C 2655.04 2703.36 2676.05 2780.59 2635.09 2752.08 C 2594.13 2723.56 2594.13 2805.48 2635.09 2793.04 C 2676.05 2780.59 2663.28 2826.24 2662.4 2867.2 C 2661.52 2908.16 2675.28 2980.14 2634.32 2955.83 C 2593.36 2931.53 2593.36 3013.45 2634.32 2996.79 C 2675.28 2980.14 2669.64 3031.04 2662.4 3072.0" class="vertical" stroke="black" fill="none" stroke-width="1"/>
  <path d="M 2867.2,0.0 C 2859.98 40.96 2881.84 100.76 2840.88 88.0 C 2799.92 75.24 2799.92 157.16 2840.88 128.96 C 2881.84 100.76 2869.45 163.84 2867.2 204.8 C 2864.95 245.76 2884.2 307.76 2843.24 293.14 C 2802.28 278.52 2802.28 360.44 2843.24 334.1 C 2884.2 307.76 2874.27 368.64 2867.2 409.6 C 2860.13 450.56 2887.6 517.73 2846.64 493.82 C 2805.68 469.91 2805.68 551.83 2846.64 534.78 C 2887.6 517.73 2867.96 573.44 2867.2 614.4 C 2866.44 655.36 2840.43 716.3 2881.39 692.18 C 2922.35 668.06 2922.35 749.98 2881.39 733.14 C 2840.43 716.3 2865.33 778.24 2867.2 819.2 C 2869.07 860.16 2853.28 930.35 2894.24 907.89 C 2935.2 885.43 2935.2 967.35 2894.24 948.85 C 2853.28 930.35 2863.79 983.04 2867.2 1024.0 C 2870.61 1064.96 2850.93 1124.07 2891.89 1110.05 C 2932.85 1096.03 2932.85 1177.95 2891.89 1151.01 C 2850.93 1124.07 2872.24 1187.84 2867.2 1228.8 C 2862.16 1269.76 2852.8 1319.48 2893.76 1304.17 C 2934.72 1288.86 2934.72 1370.78 2893.76 1345.13 C 2852.8 1319.48 2873.16 1392.64 2867.2 1433.6 C 2861.24 1474.56 2840.48 1523.84 2881.44 1507.61 C 2922.4 1491.37 2922.4 1573.29 2881.44 1548.57 C 2840.48 1523.84 2870.61 1597.44 2867.2 1638.4 C 2863.79 1679.36 2882.22 1739.58 2841.26 1720.84 C 2800.3 1702.1 2800.3 1784.02 2841.26 1761.8 C 2882.22 1739.58 2859.4 1802.24 2867.2 1843.2 C 2875.0 1884.16 2879.83 1936.63 2838.87 1920.69 C 2797.91 1904.75 2797.91 1986.67 2838.87 1961.65 C 2879.83 1936.63 2859.3 2007.04 2867.2 2048.0 C 2875.1 2088.96 2852.33 2150.03 2893.29 2129.5 C 2934.25 2108.96 2934.25 2190.88 2893.29 2170.46 C 2852.33 2150.03 2873.34 2211.84 2867.2 2252.8 C 2861.06 2293.76 2882.16 2369.03 2841.2 2342.65 C 2800.24 2316.27 2800.24 2398.19 2841.2 2383.61 C 2882.16 2369.03 2866.91 2416.64 2867.2 2457.6 C 2867.49 2498.56 2881.76 2563.25 2840.8 2534.96 C 2799.84 2506.68 2799.84 2588.6 2840.8 2575.92 C 2881.76 2563.25 2873.61 2621.44 2867.2 2662.4 C 2860.79 2703.36 2847.29 2770.8 2888.25 2749.1 C 2929.21 2727.39 2929.21 2809.31 2888.25 2790.06 C 2847.29 2770.8 2875.29 2826.24 2867.2 2867.2 C 2859.11 2908.16 2890.39 2974.93 2849.43 2955.49 C 2808.47 2936.06 2808.47 3017.98 2849.43 2996.45 C 2890.39 2974.93 2867.08 3031.04 2867.2 3072.0" class="vertical" stroke="black" fill="none" stroke-width="1"/>
  <path d="M 2.0 0.0 L 3070.0 0.0 A 2.0 2.0 0 0 1 3072.0 2.0 L 3072.0 3070.0 A 2.0 2.0 0 0 1 3070.0 3072.0 L 2.0 3072.0 A 2.0 2.0 0 0 1 0.0 3070.0 L 0.0 2.0 A 2.0 2.0 0 0 1 2.0 0.0 " class="border" stroke="black" fill="none" stroke-width="1"/>
</svg>
