<svg xmlns="http://www.w3.org/2000/svg" version="1.0" viewBox="0 0 6 6">
  <path d="M 0,0 L 6,0 " class="horizontal" fill="none" stroke="black" stroke-width="0.01"/>
  <path d="M 0.0,1.0 C 0.07 0.99 0.11 0.96 0.2 0.98 C 0.29 1.0 0.51 1.13 0.55 1.12 C 0.59 1.11 0.46 0.99 0.42 0.92 C 0.38 0.85 0.24 0.75 0.29 0.72 C 0.34 0.69 0.63 0.69 0.69 0.72 C 0.74 0.75 0.64 0.85 0.62 0.92 C 0.6 0.99 0.52 1.1 0.55 1.12 C 0.58 1.14 0.73 1.06 0.8 1.04 C 0.88 1.02 0.93 1.01 1.0 1.0 C 1.07 0.99 1.12 0.98 1.2 0.96 C 1.28 0.94 1.45 0.88 1.48 0.9 C 1.51 0.92 1.42 1.03 1.39 1.1 C 1.36 1.17 1.24 1.27 1.29 1.3 C 1.34 1.33 1.64 1.33 1.69 1.3 C 1.74 1.27 1.62 1.17 1.59 1.1 C 1.56 1.03 1.44 0.91 1.48 0.9 C 1.52 0.89 1.71 1.02 1.8 1.04 C 1.89 1.06 1.93 1.01 2.0 1.0 C 2.07 0.99 2.12 0.98 2.2 0.96 C 2.28 0.94 2.45 0.88 2.48 0.9 C 2.51 0.92 2.43 1.03 2.4 1.1 C 2.37 1.17 2.26 1.27 2.31 1.3 C 2.36 1.33 2.66 1.33 2.71 1.3 C 2.76 1.27 2.64 1.17 2.6 1.1 C 2.56 1.03 2.45 0.92 2.48 0.9 C 2.51 0.88 2.71 0.96 2.8 0.98 C 2.89 1.0 2.93 0.99 3.0 1.0 C 3.07 1.01 3.12 1.04 3.2 1.02 C 3.28 1.0 3.44 0.89 3.48 0.9 C 3.52 0.91 3.43 1.03 3.41 1.1 C 3.39 1.17 3.28 1.27 3.34 1.3 C 3.4 1.33 3.7 1.33 3.74 1.3 C 3.78 1.27 3.65 1.17 3.61 1.1 C 3.57 1.03 3.45 0.91 3.48 0.9 C 3.51 0.89 3.71 1.01 3.8 1.03 C 3.89 1.05 3.93 1.01 4.0 1.0 C 4.07 0.99 4.12 0.99 4.2 0.97 C 4.28 0.95 4.46 0.87 4.49 0.89 C 4.52 0.91 4.42 1.02 4.39 1.09 C 4.36 1.16 4.24 1.26 4.29 1.29 C 4.34 1.32 4.64 1.32 4.69 1.29 C 4.74 1.26 4.62 1.16 4.59 1.09 C 4.56 1.02 4.46 0.91 4.49 0.89 C 4.53 0.87 4.72 0.97 4.8 0.99 C 4.88 1.01 4.93 1.0 5.0 1.0 C 5.07 1.0 5.12 1.0 5.2 1.01 C 5.28 1.02 5.47 1.11 5.5 1.09 C 5.53 1.07 5.42 0.96 5.38 0.89 C 5.34 0.82 5.2 0.72 5.25 0.69 C 5.3 0.66 5.6 0.66 5.65 0.69 C 5.7 0.72 5.6 0.82 5.58 0.89 C 5.56 0.96 5.46 1.08 5.5 1.09 C 5.54 1.1 5.72 1.0 5.8 0.98 C 5.88 0.96 5.93 0.99 6.0 1.0 " class="horizontal" fill="none" stroke="black" stroke-width="0.01"/>
  <path d="M 0.0,2.0 C 0.07 2.0 0.13 2.0 0.2 1.99 C 0.27 1.98 0.4 1.92 0.43 1.94 C 0.46 1.96 0.39 2.07 0.37 2.14 C 0.35 2.21 0.25 2.31 0.31 2.34 C 0.37 2.37 0.67 2.37 0.71 2.34 C 0.75 2.31 0.62 2.21 0.57 2.14 C 0.52 2.07 0.39 1.97 0.43 1.94 C 0.47 1.91 0.7 1.97 0.8 1.98 C 0.9 1.99 0.93 1.99 1.0 2.0 C 1.07 2.01 1.12 2.01 1.2 2.02 C 1.27 2.03 1.42 2.1 1.45 2.08 C 1.48 2.06 1.4 1.95 1.38 1.88 C 1.36 1.81 1.26 1.71 1.31 1.68 C 1.36 1.65 1.66 1.65 1.71 1.68 C 1.76 1.71 1.62 1.81 1.58 1.88 C 1.54 1.95 1.41 2.06 1.45 2.08 C 1.49 2.1 1.71 2.02 1.8 2.01 C 1.89 2.0 1.93 2.0 2.0 2.0 C 2.07 2.0 2.11 1.97 2.2 1.99 C 2.29 2.01 2.51 2.12 2.55 2.11 C 2.59 2.1 2.47 1.98 2.43 1.91 C 2.39 1.84 2.26 1.74 2.31 1.71 C 2.36 1.68 2.66 1.68 2.71 1.71 C 2.76 1.74 2.66 1.84 2.63 1.91 C 2.6 1.98 2.52 2.1 2.55 2.11 C 2.58 2.12 2.72 2.0 2.8 1.98 C 2.88 1.96 2.93 1.99 3.0 2.0 C 3.07 2.01 3.12 2.04 3.2 2.02 C 3.28 2.0 3.48 1.87 3.51 1.88 C 3.54 1.89 3.43 2.01 3.39 2.08 C 3.35 2.15 3.22 2.25 3.27 2.28 C 3.32 2.31 3.62 2.31 3.67 2.28 C 3.72 2.25 3.62 2.15 3.59 2.08 C 3.56 2.01 3.47 1.89 3.51 1.88 C 3.54 1.87 3.72 2.0 3.8 2.02 C 3.88 2.04 3.93 2.01 4.0 2.0 C 4.07 1.99 4.11 1.96 4.2 1.98 C 4.29 2.0 4.48 2.15 4.52 2.14 C 4.56 2.13 4.45 2.01 4.42 1.94 C 4.39 1.87 4.27 1.77 4.32 1.74 C 4.37 1.71 4.67 1.71 4.72 1.74 C 4.77 1.77 4.65 1.87 4.62 1.94 C 4.59 2.01 4.49 2.12 4.52 2.14 C 4.55 2.16 4.72 2.06 4.8 2.04 C 4.88 2.02 4.93 2.01 5.0 2.0 C 5.07 1.99 5.12 1.98 5.2 1.96 C 5.28 1.94 5.47 1.88 5.5 1.91 C 5.53 1.93 5.43 2.04 5.4 2.11 C 5.37 2.18 5.25 2.28 5.3 2.31 C 5.35 2.34 5.65 2.34 5.7 2.31 C 5.75 2.28 5.63 2.18 5.6 2.11 C 5.57 2.04 5.47 1.92 5.5 1.91 C 5.53 1.9 5.72 2.0 5.8 2.02 C 5.88 2.04 5.93 2.01 6.0 2.0 " class="horizontal" fill="none" stroke="black" stroke-width="0.01"/>
  <path d="M 0.0,3.0 C 0.07 3.0 0.11 2.97 0.2 2.99 C 0.29 3.01 0.51 3.12 0.55 3.11 C 0.59 3.1 0.47 2.98 0.43 2.91 C 0.39 2.84 0.26 2.74 0.3 2.71 C 0.34 2.68 0.64 2.68 0.7 2.71 C 0.76 2.74 0.66 2.84 0.63 2.91 C 0.6 2.98 0.52 3.09 0.55 3.11 C 0.58 3.13 0.73 3.03 0.8 3.01 C 0.88 2.99 0.93 3.0 1.0 3.0 C 1.07 3.0 1.12 2.97 1.2 2.99 C 1.28 3.01 1.46 3.12 1.5 3.1 C 1.54 3.08 1.45 2.97 1.43 2.9 C 1.41 2.83 1.31 2.73 1.36 2.7 C 1.42 2.67 1.72 2.67 1.76 2.7 C 1.8 2.73 1.67 2.83 1.63 2.9 C 1.59 2.97 1.47 3.09 1.5 3.1 C 1.53 3.11 1.72 2.99 1.8 2.97 C 1.88 2.95 1.93 2.99 2.0 3.0 C 2.07 3.01 2.11 3.05 2.2 3.03 C 2.29 3.01 2.48 2.89 2.52 2.9 C 2.56 2.91 2.47 3.03 2.44 3.1 C 2.41 3.17 2.3 3.27 2.35 3.3 C 2.4 3.33 2.7 3.33 2.75 3.3 C 2.8 3.27 2.68 3.17 2.64 3.1 C 2.6 3.03 2.49 2.92 2.52 2.9 C 2.55 2.88 2.72 2.98 2.8 3.0 C 2.88 3.02 2.93 3.0 3.0 3.0 C 3.07 3.0 3.12 2.99 3.2 3.0 C 3.28 3.01 3.45 3.09 3.48 3.07 C 3.51 3.05 3.43 2.94 3.4 2.87 C 3.37 2.8 3.26 2.7 3.31 2.67 C 3.36 2.64 3.66 2.64 3.71 2.67 C 3.76 2.7 3.64 2.8 3.6 2.87 C 3.56 2.94 3.45 3.05 3.48 3.07 C 3.51 3.09 3.71 3.01 3.8 3.0 C 3.89 2.99 3.93 3.0 4.0 3.0 C 4.07 3.0 4.11 2.98 4.2 3.0 C 4.29 3.02 4.49 3.14 4.53 3.13 C 4.57 3.12 4.46 3.0 4.43 2.93 C 4.4 2.86 4.28 2.76 4.33 2.73 C 4.38 2.7 4.68 2.7 4.73 2.73 C 4.78 2.76 4.66 2.86 4.63 2.93 C 4.6 3.0 4.5 3.12 4.53 3.13 C 4.56 3.14 4.72 3.04 4.8 3.02 C 4.88 3.0 4.93 3.01 5.0 3.0 C 5.07 2.99 5.13 3.0 5.2 2.98 C 5.27 2.96 5.41 2.87 5.44 2.89 C 5.47 2.91 5.39 3.02 5.37 3.09 C 5.35 3.16 5.24 3.26 5.3 3.29 C 5.36 3.32 5.66 3.32 5.7 3.29 C 5.74 3.26 5.61 3.16 5.57 3.09 C 5.53 3.02 5.4 2.9 5.44 2.89 C 5.48 2.88 5.71 2.98 5.8 3.0 C 5.89 3.02 5.93 3.0 6.0 3.0 " class="horizontal" fill="none" stroke="black" stroke-width="0.01"/>
  <path d="M 0.0,4.0 C 0.07 4.01 0.12 4.01 0.2 4.03 C 0.28 4.05 0.44 4.12 0.47 4.1 C 0.5 4.08 0.4 3.97 0.37 3.9 C 0.34 3.83 0.22 3.73 0.27 3.7 C 0.32 3.67 0.62 3.67 0.67 3.7 C 0.72 3.73 0.6 3.83 0.57 3.9 C 0.54 3.97 0.43 4.09 0.47 4.1 C 0.51 4.11 0.71 3.99 0.8 3.97 C 0.89 3.95 0.93 3.99 1.0 4.0 C 1.07 4.01 1.12 4.01 1.2 4.03 C 1.27 4.05 1.42 4.13 1.45 4.11 C 1.48 4.09 1.4 3.98 1.38 3.91 C 1.36 3.84 1.26 3.74 1.31 3.71 C 1.36 3.68 1.66 3.68 1.71 3.71 C 1.76 3.74 1.62 3.84 1.58 3.91 C 1.54 3.98 1.41 4.1 1.45 4.11 C 1.49 4.12 1.71 3.98 1.8 3.96 C 1.89 3.94 1.93 3.99 2.0 4.0 C 2.07 4.01 2.11 4.03 2.2 4.04 C 2.29 4.06 2.49 4.12 2.52 4.09 C 2.55 4.06 2.44 3.96 2.4 3.89 C 2.36 3.82 2.22 3.72 2.27 3.69 C 2.32 3.66 2.62 3.66 2.67 3.69 C 2.72 3.72 2.62 3.82 2.6 3.89 C 2.58 3.96 2.49 4.08 2.52 4.09 C 2.55 4.1 2.72 3.99 2.8 3.97 C 2.88 3.96 2.93 3.99 3.0 4.0 C 3.07 4.01 3.12 4.04 3.2 4.03 C 3.28 4.02 3.44 3.9 3.47 3.92 C 3.5 3.94 3.42 4.05 3.4 4.12 C 3.38 4.19 3.28 4.29 3.33 4.32 C 3.38 4.35 3.68 4.35 3.73 4.32 C 3.78 4.29 3.64 4.19 3.6 4.12 C 3.56 4.05 3.44 3.93 3.47 3.92 C 3.5 3.91 3.71 4.03 3.8 4.04 C 3.89 4.05 3.93 4.01 4.0 4.0 C 4.07 3.99 4.12 3.98 4.2 3.96 C 4.28 3.94 4.46 3.88 4.5 3.91 C 4.54 3.94 4.46 4.04 4.44 4.11 C 4.42 4.18 4.32 4.28 4.37 4.31 C 4.42 4.34 4.72 4.34 4.77 4.31 C 4.81 4.28 4.68 4.18 4.64 4.11 C 4.6 4.04 4.47 3.92 4.5 3.91 C 4.53 3.9 4.72 4.02 4.8 4.03 C 4.88 4.04 4.93 4.01 5.0 4.0 C 5.07 3.99 5.12 3.99 5.2 3.97 C 5.28 3.96 5.46 3.89 5.5 3.91 C 5.54 3.93 5.44 4.04 5.41 4.11 C 5.38 4.18 5.27 4.28 5.32 4.31 C 5.37 4.34 5.67 4.34 5.72 4.31 C 5.77 4.28 5.65 4.18 5.61 4.11 C 5.57 4.04 5.47 3.92 5.5 3.91 C 5.53 3.9 5.72 4.02 5.8 4.03 C 5.88 4.04 5.93 4.01 6.0 4.0 " class="horizontal" fill="none" stroke="black" stroke-width="0.01"/>
  <path d="M 0.0,5.0 C 0.07 5.0 0.12 5.01 0.2 4.99 C 0.28 4.97 0.47 4.86 0.5 4.88 C 0.53 4.89 0.43 5.01 0.39 5.08 C 0.35 5.15 0.22 5.25 0.27 5.28 C 0.32 5.31 0.62 5.31 0.67 5.28 C 0.72 5.25 0.62 5.15 0.59 5.08 C 0.56 5.01 0.46 4.89 0.5 4.88 C 0.54 4.86 0.72 4.97 0.8 4.99 C 0.88 5.01 0.93 5.0 1.0 5.0 C 1.07 5.0 1.13 5.03 1.2 5.01 C 1.27 4.99 1.4 4.88 1.43 4.89 C 1.46 4.9 1.38 5.02 1.36 5.09 C 1.34 5.16 1.24 5.26 1.3 5.29 C 1.36 5.32 1.66 5.32 1.7 5.29 C 1.74 5.26 1.6 5.16 1.56 5.09 C 1.52 5.02 1.39 4.9 1.43 4.89 C 1.47 4.88 1.7 4.98 1.8 5.0 C 1.9 5.02 1.93 5.0 2.0 5.0 C 2.07 5.0 2.11 5.02 2.2 5.0 C 2.29 4.98 2.48 4.86 2.52 4.87 C 2.56 4.88 2.45 5.0 2.41 5.07 C 2.37 5.14 2.25 5.24 2.3 5.27 C 2.35 5.3 2.65 5.3 2.7 5.27 C 2.75 5.24 2.64 5.14 2.61 5.07 C 2.58 5.0 2.49 4.89 2.52 4.87 C 2.55 4.85 2.72 4.95 2.8 4.97 C 2.88 4.99 2.93 4.99 3.0 5.0 C 3.07 5.01 3.12 5.01 3.2 5.03 C 3.28 5.05 3.44 5.15 3.48 5.13 C 3.52 5.11 3.43 5.0 3.41 4.93 C 3.39 4.86 3.28 4.76 3.34 4.73 C 3.4 4.7 3.7 4.7 3.74 4.73 C 3.78 4.76 3.65 4.86 3.61 4.93 C 3.57 5.0 3.45 5.12 3.48 5.13 C 3.51 5.14 3.71 5.04 3.8 5.02 C 3.89 5.0 3.93 5.01 4.0 5.0 C 4.07 4.99 4.11 4.96 4.2 4.98 C 4.29 5.0 4.49 5.13 4.52 5.12 C 4.55 5.11 4.44 4.99 4.4 4.92 C 4.36 4.85 4.22 4.75 4.27 4.72 C 4.31 4.69 4.62 4.69 4.67 4.72 C 4.72 4.75 4.62 4.85 4.6 4.92 C 4.57 4.99 4.49 5.11 4.52 5.12 C 4.55 5.13 4.72 5.01 4.8 4.99 C 4.88 4.97 4.93 5.0 5.0 5.0 C 5.07 5.0 5.12 4.99 5.2 5.01 C 5.28 5.03 5.46 5.14 5.49 5.13 C 5.52 5.12 5.42 5.0 5.39 4.93 C 5.36 4.86 5.24 4.76 5.29 4.73 C 5.34 4.7 5.64 4.7 5.69 4.73 C 5.74 4.76 5.62 4.86 5.59 4.93 C 5.56 5.0 5.46 5.12 5.49 5.13 C 5.52 5.14 5.72 4.98 5.8 4.96 C 5.88 4.94 5.93 4.99 6.0 5.0 " class="horizontal" fill="none" stroke="black" stroke-width="0.01"/>
  <path d="M 0,6 L 6,6 " class="horizontal" fill="none" stroke="black" stroke-width="0.01"/>
  <path d="M 0,0 L 0,6 " class="vertical" fill="none" stroke="black" stroke-width="0.01"/>
  <path d="M 1.0,0.0 C 1.0 0.07 1.02 0.12 1.0 0.2 C 0.98 0.28 0.87 0.44 0.88 0.47 C 0.89 0.5 1.01 0.43 1.08 0.41 C 1.15 0.39 1.25 0.29 1.28 0.34 C 1.31 0.4 1.31 0.7 1.28 0.74 C 1.25 0.78 1.15 0.66 1.08 0.61 C 1.01 0.56 0.9 0.44 0.88 0.47 C 0.86 0.5 0.97 0.71 0.99 0.8 C 1.01 0.89 1.0 0.93 1.0 1.0 C 1.0 1.07 0.99 1.11 1.01 1.2 C 1.03 1.29 1.14 1.48 1.13 1.52 C 1.12 1.56 1.0 1.46 0.93 1.43 C 0.86 1.4 0.76 1.28 0.73 1.33 C 0.7 1.38 0.7 1.68 0.73 1.73 C 0.76 1.78 0.86 1.66 0.93 1.63 C 1.0 1.6 1.12 1.49 1.13 1.52 C 1.14 1.55 1.03 1.72 1.01 1.8 C 0.99 1.88 1.0 1.93 1.0 2.0 C 1.0 2.07 0.97 2.12 0.99 2.2 C 1.01 2.28 1.12 2.47 1.1 2.51 C 1.09 2.54 0.97 2.44 0.9 2.41 C 0.83 2.38 0.73 2.27 0.7 2.32 C 0.67 2.37 0.67 2.67 0.7 2.72 C 0.73 2.77 0.83 2.64 0.9 2.61 C 0.97 2.58 1.08 2.48 1.1 2.51 C 1.12 2.54 1.05 2.72 1.03 2.8 C 1.01 2.88 1.01 2.93 1.0 3.0 C 0.99 3.07 0.98 3.12 0.97 3.2 C 0.96 3.28 0.91 3.46 0.94 3.49 C 0.97 3.52 1.07 3.42 1.14 3.38 C 1.21 3.34 1.31 3.22 1.34 3.27 C 1.37 3.32 1.37 3.62 1.34 3.67 C 1.31 3.72 1.21 3.61 1.14 3.58 C 1.07 3.55 0.96 3.45 0.94 3.49 C 0.92 3.53 1.02 3.72 1.03 3.8 C 1.04 3.88 1.01 3.93 1.0 4.0 C 0.99 4.07 0.96 4.11 0.97 4.2 C 0.98 4.3 1.09 4.53 1.07 4.57 C 1.05 4.61 0.94 4.49 0.87 4.44 C 0.8 4.4 0.7 4.26 0.67 4.3 C 0.64 4.34 0.64 4.64 0.67 4.7 C 0.7 4.76 0.8 4.66 0.87 4.64 C 0.94 4.62 1.05 4.54 1.07 4.57 C 1.09 4.6 1.02 4.73 1.01 4.8 C 1.0 4.87 1.0 4.93 1.0 5.0 C 1.0 5.07 1.01 5.11 0.99 5.2 C 0.97 5.29 0.86 5.5 0.88 5.54 C 0.9 5.58 1.01 5.45 1.08 5.41 C 1.15 5.37 1.25 5.24 1.28 5.28 C 1.31 5.32 1.31 5.62 1.28 5.68 C 1.25 5.74 1.15 5.63 1.08 5.61 C 1.01 5.59 0.89 5.51 0.88 5.54 C 0.87 5.57 0.99 5.72 1.01 5.8 C 1.03 5.88 1.0 5.93 1.0 6.0 " class="vertical" fill="none" stroke="black" stroke-width="0.01"/>
  <path d="M 2.0,0.0 C 2.0 0.07 2.01 0.12 1.99 0.2 C 1.97 0.28 1.86 0.42 1.88 0.45 C 1.9 0.48 2.01 0.4 2.08 0.38 C 2.15 0.36 2.25 0.26 2.28 0.31 C 2.31 0.36 2.31 0.66 2.28 0.71 C 2.25 0.76 2.15 0.62 2.08 0.58 C 2.01 0.54 1.89 0.41 1.88 0.45 C 1.87 0.49 2.01 0.71 2.03 0.8 C 2.05 0.89 2.01 0.93 2.0 1.0 C 1.99 1.07 1.96 1.11 1.97 1.2 C 1.98 1.29 2.08 1.49 2.06 1.52 C 2.04 1.55 1.93 1.43 1.86 1.39 C 1.79 1.34 1.69 1.21 1.66 1.25 C 1.63 1.29 1.63 1.59 1.66 1.65 C 1.69 1.71 1.79 1.61 1.86 1.59 C 1.93 1.57 2.04 1.48 2.06 1.52 C 2.08 1.56 1.97 1.72 1.96 1.8 C 1.95 1.88 1.99 1.93 2.0 2.0 C 2.01 2.07 2.03 2.12 2.04 2.2 C 2.05 2.28 2.1 2.42 2.07 2.45 C 2.04 2.48 1.94 2.4 1.87 2.38 C 1.8 2.36 1.7 2.26 1.67 2.31 C 1.64 2.37 1.64 2.66 1.67 2.71 C 1.7 2.76 1.8 2.62 1.87 2.58 C 1.94 2.54 2.04 2.41 2.07 2.45 C 2.1 2.49 2.04 2.71 2.03 2.8 C 2.02 2.89 2.01 2.93 2.0 3.0 C 1.99 3.07 1.99 3.11 1.97 3.2 C 1.95 3.29 1.88 3.5 1.9 3.53 C 1.92 3.56 2.03 3.44 2.1 3.4 C 2.17 3.36 2.27 3.22 2.3 3.27 C 2.33 3.32 2.33 3.62 2.3 3.67 C 2.27 3.72 2.17 3.62 2.1 3.6 C 2.03 3.58 1.92 3.5 1.9 3.53 C 1.88 3.56 1.99 3.72 2.01 3.8 C 2.03 3.88 2.0 3.93 2.0 4.0 C 2.0 4.07 2.01 4.11 1.99 4.2 C 1.97 4.29 1.88 4.49 1.9 4.52 C 1.92 4.55 2.03 4.44 2.1 4.4 C 2.17 4.36 2.27 4.24 2.3 4.29 C 2.33 4.34 2.33 4.64 2.3 4.69 C 2.27 4.74 2.17 4.63 2.1 4.6 C 2.03 4.57 1.92 4.49 1.9 4.52 C 1.88 4.55 1.98 4.72 2.0 4.8 C 2.02 4.88 2.0 4.93 2.0 5.0 C 2.0 5.07 1.98 5.12 2.0 5.2 C 2.02 5.28 2.13 5.47 2.12 5.5 C 2.11 5.53 1.99 5.42 1.92 5.38 C 1.85 5.34 1.75 5.21 1.72 5.26 C 1.69 5.31 1.69 5.61 1.72 5.66 C 1.75 5.71 1.85 5.61 1.92 5.58 C 1.99 5.55 2.11 5.46 2.12 5.5 C 2.13 5.54 2.01 5.72 1.99 5.8 C 1.97 5.88 2.0 5.93 2.0 6.0 " class="vertical" fill="none" stroke="black" stroke-width="0.01"/>
  <path d="M 3.0,0.0 C 3.01 0.07 3.04 0.12 3.02 0.2 C 3.0 0.28 2.86 0.46 2.87 0.5 C 2.88 0.54 3.0 0.44 3.07 0.41 C 3.14 0.38 3.24 0.26 3.27 0.31 C 3.3 0.36 3.3 0.66 3.27 0.71 C 3.24 0.76 3.14 0.64 3.07 0.61 C 3.0 0.57 2.88 0.47 2.87 0.5 C 2.86 0.53 2.99 0.72 3.01 0.8 C 3.03 0.88 3.0 0.93 3.0 1.0 C 3.0 1.07 2.98 1.11 2.99 1.2 C 3.0 1.29 3.09 1.5 3.07 1.54 C 3.05 1.58 2.94 1.46 2.87 1.43 C 2.8 1.4 2.7 1.28 2.67 1.33 C 2.64 1.38 2.64 1.68 2.67 1.73 C 2.7 1.78 2.8 1.66 2.87 1.63 C 2.94 1.6 3.06 1.51 3.07 1.54 C 3.08 1.57 2.97 1.72 2.96 1.8 C 2.95 1.88 2.99 1.93 3.0 2.0 C 3.01 2.07 3.06 2.11 3.04 2.2 C 3.02 2.3 2.86 2.53 2.87 2.57 C 2.88 2.61 3.0 2.48 3.07 2.44 C 3.14 2.4 3.24 2.26 3.27 2.31 C 3.3 2.36 3.3 2.66 3.27 2.71 C 3.24 2.76 3.14 2.66 3.07 2.64 C 3.0 2.62 2.88 2.54 2.87 2.57 C 2.86 2.6 3.0 2.73 3.02 2.8 C 3.04 2.87 3.01 2.93 3.0 3.0 C 2.99 3.07 3.0 3.12 2.98 3.2 C 2.96 3.28 2.85 3.46 2.86 3.5 C 2.87 3.54 2.99 3.45 3.06 3.43 C 3.13 3.41 3.23 3.3 3.26 3.36 C 3.29 3.42 3.29 3.72 3.26 3.76 C 3.23 3.8 3.13 3.67 3.06 3.63 C 2.99 3.59 2.87 3.47 2.86 3.5 C 2.85 3.53 2.96 3.72 2.98 3.8 C 3.0 3.88 2.99 3.93 3.0 4.0 C 3.01 4.07 3.04 4.12 3.02 4.2 C 3.0 4.28 2.89 4.46 2.9 4.49 C 2.91 4.53 3.03 4.44 3.1 4.41 C 3.17 4.38 3.27 4.27 3.3 4.32 C 3.33 4.37 3.33 4.67 3.3 4.72 C 3.27 4.77 3.17 4.65 3.1 4.61 C 3.03 4.57 2.92 4.46 2.9 4.49 C 2.88 4.52 2.94 4.72 2.96 4.8 C 2.98 4.88 2.99 4.93 3.0 5.0 C 3.01 5.07 3.03 5.12 3.04 5.2 C 3.05 5.28 3.11 5.46 3.08 5.49 C 3.05 5.52 2.95 5.42 2.88 5.38 C 2.81 5.34 2.71 5.22 2.68 5.27 C 2.65 5.32 2.65 5.62 2.68 5.67 C 2.71 5.72 2.81 5.61 2.88 5.58 C 2.95 5.55 3.06 5.45 3.08 5.49 C 3.1 5.53 3.01 5.72 3.0 5.8 C 2.99 5.88 3.0 5.93 3.0 6.0 " class="vertical" fill="none" stroke="black" stroke-width="0.01"/>
  <path d="M 4.0,0.0 C 3.99 0.07 3.97 0.11 3.98 0.2 C 3.99 0.29 4.09 0.5 4.07 0.53 C 4.05 0.56 3.94 0.44 3.87 0.4 C 3.8 0.36 3.7 0.23 3.67 0.28 C 3.64 0.33 3.64 0.63 3.67 0.68 C 3.7 0.73 3.8 0.62 3.87 0.6 C 3.94 0.57 4.05 0.5 4.07 0.53 C 4.09 0.56 3.99 0.72 3.98 0.8 C 3.97 0.88 3.99 0.93 4.0 1.0 C 4.01 1.07 4.04 1.12 4.02 1.2 C 4.0 1.28 3.88 1.45 3.89 1.49 C 3.9 1.53 4.02 1.44 4.09 1.42 C 4.16 1.4 4.26 1.29 4.29 1.34 C 4.32 1.39 4.32 1.69 4.29 1.74 C 4.26 1.79 4.16 1.66 4.09 1.62 C 4.02 1.58 3.91 1.46 3.89 1.49 C 3.87 1.52 3.95 1.72 3.97 1.8 C 3.99 1.88 3.99 1.93 4.0 2.0 C 4.01 2.07 4.01 2.11 4.03 2.2 C 4.05 2.29 4.12 2.48 4.1 2.52 C 4.08 2.56 3.97 2.45 3.9 2.41 C 3.83 2.37 3.73 2.24 3.7 2.29 C 3.67 2.34 3.67 2.64 3.7 2.69 C 3.73 2.74 3.83 2.64 3.9 2.61 C 3.97 2.58 4.08 2.49 4.1 2.52 C 4.12 2.55 4.05 2.72 4.03 2.8 C 4.01 2.88 4.01 2.93 4.0 3.0 C 3.99 3.07 3.99 3.11 3.97 3.2 C 3.95 3.29 3.85 3.49 3.87 3.52 C 3.89 3.55 4.0 3.44 4.07 3.4 C 4.14 3.36 4.24 3.23 4.27 3.28 C 4.3 3.33 4.3 3.63 4.27 3.68 C 4.24 3.73 4.14 3.63 4.07 3.6 C 4.0 3.57 3.88 3.49 3.87 3.52 C 3.86 3.55 3.99 3.72 4.01 3.8 C 4.03 3.88 4.0 3.93 4.0 4.0 C 4.0 4.07 4.0 4.12 3.99 4.2 C 3.98 4.28 3.92 4.47 3.94 4.51 C 3.96 4.55 4.07 4.46 4.14 4.43 C 4.21 4.4 4.31 4.31 4.34 4.36 C 4.37 4.42 4.37 4.72 4.34 4.76 C 4.31 4.8 4.21 4.67 4.14 4.63 C 4.07 4.59 3.97 4.48 3.94 4.51 C 3.91 4.54 3.95 4.72 3.96 4.8 C 3.97 4.88 3.99 4.93 4.0 5.0 C 4.01 5.07 4.02 5.11 4.04 5.2 C 4.06 5.29 4.15 5.52 4.13 5.56 C 4.11 5.6 4.0 5.48 3.93 5.44 C 3.86 5.4 3.76 5.26 3.73 5.31 C 3.7 5.36 3.7 5.66 3.73 5.71 C 3.76 5.76 3.86 5.66 3.93 5.64 C 4.0 5.61 4.12 5.53 4.13 5.56 C 4.14 5.59 3.98 5.73 3.96 5.8 C 3.94 5.87 3.99 5.93 4.0 6.0 " class="vertical" fill="none" stroke="black" stroke-width="0.01"/>
  <path d="M 5.0,0.0 C 5.01 0.07 5.02 0.12 5.03 0.2 C 5.04 0.28 5.11 0.44 5.09 0.47 C 5.07 0.5 4.96 0.41 4.89 0.38 C 4.82 0.35 4.72 0.24 4.69 0.29 C 4.66 0.34 4.66 0.64 4.69 0.69 C 4.72 0.74 4.82 0.62 4.89 0.58 C 4.96 0.54 5.06 0.43 5.09 0.47 C 5.12 0.51 5.06 0.71 5.04 0.8 C 5.03 0.89 5.01 0.93 5.0 1.0 C 4.99 1.07 4.98 1.11 4.96 1.2 C 4.94 1.29 4.86 1.48 4.88 1.52 C 4.9 1.56 5.01 1.46 5.08 1.43 C 5.15 1.4 5.25 1.29 5.28 1.34 C 5.31 1.39 5.31 1.69 5.28 1.74 C 5.25 1.79 5.15 1.67 5.08 1.63 C 5.01 1.59 4.89 1.49 4.88 1.52 C 4.87 1.55 4.99 1.72 5.01 1.8 C 5.03 1.88 5.0 1.93 5.0 2.0 C 5.0 2.07 5.0 2.12 4.99 2.2 C 4.98 2.28 4.89 2.42 4.91 2.45 C 4.93 2.48 5.04 2.41 5.11 2.39 C 5.18 2.37 5.28 2.26 5.31 2.32 C 5.34 2.38 5.34 2.68 5.31 2.72 C 5.28 2.76 5.18 2.64 5.11 2.59 C 5.04 2.54 4.93 2.42 4.91 2.45 C 4.89 2.49 4.97 2.71 4.98 2.8 C 5.0 2.89 4.99 2.93 5.0 3.0 C 5.01 3.07 5.04 3.12 5.02 3.2 C 5.0 3.28 4.89 3.43 4.9 3.46 C 4.91 3.49 5.03 3.41 5.1 3.38 C 5.17 3.35 5.27 3.25 5.3 3.3 C 5.33 3.35 5.33 3.65 5.3 3.7 C 5.27 3.75 5.17 3.62 5.1 3.58 C 5.03 3.54 4.92 3.42 4.9 3.46 C 4.89 3.5 4.99 3.71 5.01 3.8 C 5.03 3.89 5.0 3.93 5.0 4.0 C 5.0 4.07 4.98 4.12 4.99 4.2 C 5.0 4.28 5.1 4.45 5.08 4.48 C 5.06 4.51 4.95 4.43 4.88 4.4 C 4.81 4.37 4.71 4.27 4.68 4.32 C 4.65 4.37 4.65 4.67 4.68 4.72 C 4.71 4.77 4.81 4.64 4.88 4.6 C 4.95 4.56 5.06 4.45 5.08 4.48 C 5.11 4.51 5.04 4.71 5.03 4.8 C 5.02 4.89 5.01 4.93 5.0 5.0 C 4.99 5.07 4.96 5.11 4.97 5.2 C 4.98 5.29 5.08 5.49 5.06 5.53 C 5.04 5.57 4.93 5.47 4.86 5.44 C 4.79 5.41 4.69 5.29 4.66 5.34 C 4.63 5.39 4.63 5.69 4.66 5.74 C 4.69 5.79 4.79 5.68 4.86 5.64 C 4.93 5.6 5.04 5.5 5.06 5.53 C 5.08 5.56 4.98 5.72 4.97 5.8 C 4.96 5.88 4.99 5.93 5.0 6.0 " class="vertical" fill="none" stroke="black" stroke-width="0.01"/>
  <path d="M 6,0 L 6,6 " class="vertical" fill="none" stroke="black" stroke-width="0.01"/>
</svg>
