<svg xmlns="http://www.w3.org/2000/svg" width="2048" height="2048" viewBox="0 0 2048 2048">
  <path d="M 0.0,256.0 C 51.2 265.14 131.04 291.21 108.87 240.01 C 86.71 188.81 189.11 188.81 160.07 240.01 C 131.04 291.21 204.8 255.04 256.0 256.0 C 307.2 256.96 387.28 272.39 354.81 221.19 C 322.35 169.99 424.75 169.99 406.01 221.19 C 387.28 272.39 460.8 256.59 512.0 256.0 C 563.2 255.41 628.48 288.72 610.11 237.52 C 591.74 186.32 694.14 186.32 661.31 237.52 C 628.48 288.72 716.8 258.83 768.0 256.0 C 819.2 253.17 895.58 273.42 877.64 222.22 C 859.69 171.02 962.09 171.02 928.84 222.22 C 895.58 273.42 972.8 254.0 1024.0 256.0 C 1075.2 258.0 1159.76 287.7 1134.07 236.5 C 1108.38 185.3 1210.78 185.3 1185.27 236.5 C 1159.76 287.7 1228.8 253.75 1280.0 256.0 C 1331.2 258.25 1407.23 227.1 1389.4 278.3 C 1371.56 329.5 1473.96 329.5 1440.6 278.3 C 1407.23 227.1 1484.8 250.25 1536.0 256.0 C 1587.2 261.75 1661.63 290.74 1637.65 239.54 C 1613.68 188.34 1716.08 188.34 1688.85 239.54 C 1661.63 290.74 1740.8 258.24 1792.0 256.0 C 1843.2 253.76 1921.94 239.27 1889.1 290.47 C 1856.27 341.67 1958.67 341.67 1940.3 290.47 C 1921.94 239.27 1996.8 262.88 2048.0 256.0" class="horizontal" stroke="black" fill="none" stroke-width="1"/>
  <path d="M 0.0,512.0 C 51.2 504.35 131.97 495.16 111.36 546.36 C 90.74 597.56 193.14 597.56 162.56 546.36 C 131.97 495.16 204.8 515.48 256.0 512.0 C 307.2 508.52 380.58 483.99 357.55 535.19 C 334.53 586.39 436.93 586.39 408.75 535.19 C 380.58 483.99 460.8 511.65 512.0 512.0 C 563.2 512.35 657.78 485.18 622.65 536.38 C 587.51 587.58 689.91 587.58 673.85 536.38 C 657.78 485.18 716.8 521.94 768.0 512.0 C 819.2 502.06 890.22 478.68 865.01 529.88 C 839.8 581.08 942.2 581.08 916.21 529.88 C 890.22 478.68 972.8 518.29 1024.0 512.0 C 1075.2 505.71 1140.73 527.54 1121.97 476.34 C 1103.21 425.14 1205.61 425.14 1173.17 476.34 C 1140.73 527.54 1228.8 519.15 1280.0 512.0 C 1331.2 504.85 1393.86 540.78 1378.33 489.58 C 1362.8 438.38 1465.2 438.38 1429.53 489.58 C 1393.86 540.78 1484.8 501.92 1536.0 512.0 C 1587.2 522.08 1651.89 530.96 1628.25 479.76 C 1604.61 428.56 1707.01 428.56 1679.45 479.76 C 1651.89 530.96 1740.8 510.21 1792.0 512.0 C 1843.2 513.79 1919.05 493.57 1897.18 544.77 C 1875.32 595.97 1977.72 595.97 1948.38 544.77 C 1919.05 493.57 1996.8 502.56 2048.0 512.0" class="horizontal" stroke="black" fill="none" stroke-width="1"/>
  <path d="M 0.0,768.0 C 51.2 767.12 137.4 784.03 107.48 732.83 C 77.55 681.63 179.95 681.63 158.68 732.83 C 137.4 784.03 204.8 777.97 256.0 768.0 C 307.2 758.03 375.59 734.45 354.39 785.65 C 333.19 836.85 435.59 836.85 405.59 785.65 C 375.59 734.45 460.8 774.96 512.0 768.0 C 563.2 761.04 638.56 798.15 605.63 746.95 C 572.71 695.75 675.11 695.75 656.83 746.95 C 638.56 798.15 716.8 770.36 768.0 768.0 C 819.2 765.64 889.08 743.0 869.52 794.2 C 849.95 845.4 952.35 845.4 920.72 794.2 C 889.08 743.0 972.8 761.87 1024.0 768.0 C 1075.2 774.13 1143.05 785.77 1120.19 734.57 C 1097.34 683.37 1199.74 683.37 1171.39 734.57 C 1143.05 785.77 1228.8 767.53 1280.0 768.0 C 1331.2 768.47 1401.4 740.41 1381.82 791.61 C 1362.24 842.81 1464.64 842.81 1433.02 791.61 C 1401.4 740.41 1484.8 761.35 1536.0 768.0 C 1587.2 774.65 1665.58 747.37 1635.53 798.57 C 1605.47 849.77 1707.87 849.77 1686.73 798.57 C 1665.58 747.37 1740.8 763.45 1792.0 768.0 C 1843.2 772.55 1921.67 799.94 1897.64 748.74 C 1873.61 697.54 1976.01 697.54 1948.84 748.74 C 1921.67 799.94 1996.8 777.1 2048.0 768.0" class="horizontal" stroke="black" fill="none" stroke-width="1"/>
  <path d="M 0.0,1024.0 C 51.2 1033.03 120.91 999.27 94.1 1050.47 C 67.29 1101.67 169.69 1101.67 145.3 1050.47 C 120.91 999.27 204.8 1026.56 256.0 1024.0 C 307.2 1021.44 369.59 988.23 351.32 1039.43 C 333.05 1090.63 435.45 1090.63 402.52 1039.43 C 369.59 988.23 460.8 1019.2 512.0 1024.0 C 563.2 1028.8 650.21 1048.55 617.87 997.35 C 585.53 946.15 687.93 946.15 669.07 997.35 C 650.21 1048.55 716.8 1017.99 768.0 1024.0 C 819.2 1030.01 881.33 992.25 865.11 1043.45 C 848.89 1094.65 951.29 1094.65 916.31 1043.45 C 881.33 992.25 972.8 1020.83 1024.0 1024.0 C 1075.2 1027.17 1149.98 1003.97 1123.05 1055.17 C 1096.12 1106.37 1198.52 1106.37 1174.25 1055.17 C 1149.98 1003.97 1228.8 1032.99 1280.0 1024.0 C 1331.2 1015.01 1393.55 1039.74 1376.43 988.54 C 1359.3 937.34 1461.7 937.34 1427.63 988.54 C 1393.55 1039.74 1484.8 1032.9 1536.0 1024.0 C 1587.2 1015.1 1668.44 1043.04 1648.17 991.84 C 1627.89 940.64 1730.29 940.64 1699.37 991.84 C 1668.44 1043.04 1740.8 1014.01 1792.0 1024.0 C 1843.2 1033.99 1922.65 1057.73 1902.3 1006.53 C 1881.95 955.33 1984.35 955.33 1953.5 1006.53 C 1922.65 1057.73 1996.8 1028.36 2048.0 1024.0" class="horizontal" stroke="black" fill="none" stroke-width="1"/>
  <path d="M 0.0,1280.0 C 51.2 1281.02 134.14 1250.04 108.8 1301.24 C 83.46 1352.44 185.86 1352.44 160.0 1301.24 C 134.14 1250.04 204.8 1287.98 256.0 1280.0 C 307.2 1272.02 385.04 1255.54 365.93 1306.74 C 346.83 1357.94 449.23 1357.94 417.13 1306.74 C 385.04 1255.54 460.8 1282.69 512.0 1280.0 C 563.2 1277.31 630.2 1304.67 605.81 1253.47 C 581.43 1202.27 683.83 1202.27 657.01 1253.47 C 630.2 1304.67 716.8 1271.2 768.0 1280.0 C 819.2 1288.8 905.78 1257.11 873.46 1308.31 C 841.13 1359.51 943.53 1359.51 924.66 1308.31 C 905.78 1257.11 972.8 1283.29 1024.0 1280.0 C 1075.2 1276.71 1161.24 1251.7 1127.5 1302.9 C 1093.76 1354.1 1196.16 1354.1 1178.7 1302.9 C 1161.24 1251.7 1228.8 1288.08 1280.0 1280.0 C 1331.2 1271.92 1412.01 1253.9 1390.96 1305.1 C 1369.9 1356.3 1472.3 1356.3 1442.16 1305.1 C 1412.01 1253.9 1484.8 1272.53 1536.0 1280.0 C 1587.2 1287.47 1672.22 1250.78 1642.97 1301.98 C 1613.72 1353.18 1716.12 1353.18 1694.17 1301.98 C 1672.22 1250.78 1740.8 1288.3 1792.0 1280.0 C 1843.2 1271.7 1915.51 1249.65 1889.1 1300.85 C 1862.68 1352.05 1965.08 1352.05 1940.3 1300.85 C 1915.51 1249.65 1996.8 1275.69 2048.0 1280.0" class="horizontal" stroke="black" fill="none" stroke-width="1"/>
  <path d="M 0.0,1536.0 C 51.2 1529.17 114.39 1510.22 95.03 1561.42 C 75.68 1612.62 178.08 1612.62 146.23 1561.42 C 114.39 1510.22 204.8 1544.42 256.0 1536.0 C 307.2 1527.58 396.08 1557.71 362.74 1506.51 C 329.41 1455.31 431.81 1455.31 413.94 1506.51 C 396.08 1557.71 460.8 1526.18 512.0 1536.0 C 563.2 1545.82 637.96 1566.94 618.02 1515.74 C 598.08 1464.54 700.48 1464.54 669.22 1515.74 C 637.96 1566.94 716.8 1533.87 768.0 1536.0 C 819.2 1538.13 884.64 1507.85 863.29 1559.05 C 841.95 1610.25 944.35 1610.25 914.49 1559.05 C 884.64 1507.85 972.8 1533.76 1024.0 1536.0 C 1075.2 1538.24 1166.0 1565.38 1136.57 1514.18 C 1107.13 1462.98 1209.53 1462.98 1187.77 1514.18 C 1166.0 1565.38 1228.8 1528.16 1280.0 1536.0 C 1331.2 1543.84 1414.76 1568.04 1383.57 1516.84 C 1352.39 1465.64 1454.79 1465.64 1434.77 1516.84 C 1414.76 1568.04 1484.8 1543.46 1536.0 1536.0 C 1587.2 1528.54 1675.61 1563.1 1647.45 1511.9 C 1619.29 1460.7 1721.69 1460.7 1698.65 1511.9 C 1675.61 1563.1 1740.8 1533.29 1792.0 1536.0 C 1843.2 1538.71 1935.25 1505.27 1903.05 1556.47 C 1870.84 1607.67 1973.24 1607.67 1954.25 1556.47 C 1935.25 1505.27 1996.8 1533.13 2048.0 1536.0" class="horizontal" stroke="black" fill="none" stroke-width="1"/>
  <path d="M 0.0,1792.0 C 51.2 1782.6 123.36 1821.24 98.65 1770.04 C 73.93 1718.84 176.33 1718.84 149.85 1770.04 C 123.36 1821.24 204.8 1797.4 256.0 1792.0 C 307.2 1786.6 374.22 1816.32 348.29 1765.12 C 322.35 1713.92 424.75 1713.92 399.49 1765.12 C 374.22 1816.32 460.8 1785.93 512.0 1792.0 C 563.2 1798.07 637.05 1774.13 606.97 1825.33 C 576.89 1876.53 679.29 1876.53 658.17 1825.33 C 637.05 1774.13 716.8 1784.19 768.0 1792.0 C 819.2 1799.81 905.72 1827.39 871.03 1776.19 C 836.35 1724.99 938.75 1724.99 922.23 1776.19 C 905.72 1827.39 972.8 1802.07 1024.0 1792.0 C 1075.2 1781.93 1149.95 1807.77 1130.08 1756.57 C 1110.21 1705.37 1212.61 1705.37 1181.28 1756.57 C 1149.95 1807.77 1228.8 1793.15 1280.0 1792.0 C 1331.2 1790.85 1394.41 1767.03 1377.63 1818.23 C 1360.86 1869.43 1463.26 1869.43 1428.83 1818.23 C 1394.41 1767.03 1484.8 1792.06 1536.0 1792.0 C 1587.2 1791.94 1653.98 1765.35 1629.3 1816.55 C 1604.62 1867.75 1707.02 1867.75 1680.5 1816.55 C 1653.98 1765.35 1740.8 1781.76 1792.0 1792.0 C 1843.2 1802.24 1904.7 1776.51 1884.48 1827.71 C 1864.25 1878.91 1966.65 1878.91 1935.68 1827.71 C 1904.7 1776.51 1996.8 1799.8 2048.0 1792.0" class="horizontal" stroke="black" fill="none" stroke-width="1"/>
  <path d="M 256.0,0.0 C 248.78 51.2 234.74 127.34 285.94 93.82 C 337.14 60.29 337.14 162.69 285.94 145.02 C 234.74 127.34 247.67 204.8 256.0 256.0 C 264.33 307.2 275.03 393.08 223.83 365.45 C 172.63 337.83 172.63 440.23 223.83 416.65 C 275.03 393.08 247.58 460.8 256.0 512.0 C 264.42 563.2 236.15 633.5 287.35 615.76 C 338.55 598.01 338.55 700.41 287.35 666.96 C 236.15 633.5 260.76 716.8 256.0 768.0 C 251.24 819.2 239.47 887.27 290.67 860.34 C 341.87 833.4 341.87 935.8 290.67 911.54 C 239.47 887.27 255.83 972.8 256.0 1024.0 C 256.17 1075.2 238.35 1160.11 289.55 1125.57 C 340.75 1091.04 340.75 1193.44 289.55 1176.77 C 238.35 1160.11 262.8 1228.8 256.0 1280.0 C 249.2 1331.2 285.22 1413.43 234.02 1382.57 C 182.82 1351.7 182.82 1454.1 234.02 1433.77 C 285.22 1413.43 254.55 1484.8 256.0 1536.0 C 257.45 1587.2 275.42 1670.54 224.22 1643.96 C 173.02 1617.38 173.02 1719.78 224.22 1695.16 C 275.42 1670.54 256.32 1740.8 256.0 1792.0 C 255.68 1843.2 223.41 1916.81 274.61 1895.67 C 325.81 1874.53 325.81 1976.93 274.61 1946.87 C 223.41 1916.81 260.92 1996.8 256.0 2048.0" class="vertical" stroke="black" fill="none" stroke-width="1"/>
  <path d="M 512.0,0.0 C 505.29 51.2 478.73 145.44 529.93 111.0 C 581.13 76.55 581.13 178.95 529.93 162.2 C 478.73 145.44 518.28 204.8 512.0 256.0 C 505.72 307.2 537.8 380.97 486.6 360.14 C 435.4 339.3 435.4 441.7 486.6 411.34 C 537.8 380.97 508.91 460.8 512.0 512.0 C 515.09 563.2 494.13 633.15 545.33 608.5 C 596.53 583.85 596.53 686.25 545.33 659.7 C 494.13 633.15 519.61 716.8 512.0 768.0 C 504.39 819.2 544.37 897.21 493.17 870.34 C 441.97 843.48 441.97 945.88 493.17 921.54 C 544.37 897.21 517.88 972.8 512.0 1024.0 C 506.12 1075.2 537.37 1154.14 486.17 1128.99 C 434.97 1103.84 434.97 1206.24 486.17 1180.19 C 537.37 1154.14 522.09 1228.8 512.0 1280.0 C 501.91 1331.2 479.26 1406.83 530.46 1381.53 C 581.66 1356.23 581.66 1458.63 530.46 1432.73 C 479.26 1406.83 508.12 1484.8 512.0 1536.0 C 515.88 1587.2 479.73 1676.89 530.93 1645.25 C 582.13 1613.62 582.13 1716.02 530.93 1696.45 C 479.73 1676.89 521.25 1740.8 512.0 1792.0 C 502.75 1843.2 539.64 1929.67 488.44 1895.11 C 437.24 1860.55 437.24 1962.95 488.44 1946.31 C 539.64 1929.67 506.29 1996.8 512.0 2048.0" class="vertical" stroke="black" fill="none" stroke-width="1"/>
  <path d="M 768.0,0.0 C 774.96 51.2 741.53 137.45 792.73 108.47 C 843.93 79.49 843.93 181.89 792.73 159.67 C 741.53 137.45 759.07 204.8 768.0 256.0 C 776.93 307.2 783.38 378.79 732.18 354.92 C 680.98 331.06 680.98 433.46 732.18 406.12 C 783.38 378.79 761.14 460.8 768.0 512.0 C 774.86 563.2 793.72 635.31 742.52 607.13 C 691.32 578.95 691.32 681.35 742.52 658.33 C 793.72 635.31 770.67 716.8 768.0 768.0 C 765.33 819.2 795.01 881.55 743.81 860.95 C 692.61 840.36 692.61 942.76 743.81 912.15 C 795.01 881.55 774.39 972.8 768.0 1024.0 C 761.61 1075.2 744.02 1146.23 795.22 1118.9 C 846.42 1091.58 846.42 1193.98 795.22 1170.1 C 744.02 1146.23 766.81 1228.8 768.0 1280.0 C 769.19 1331.2 801.23 1417.32 750.03 1387.97 C 698.83 1358.62 698.83 1461.02 750.03 1439.17 C 801.23 1417.32 760.95 1484.8 768.0 1536.0 C 775.05 1587.2 740.91 1678.01 792.11 1646.5 C 843.31 1614.98 843.31 1717.38 792.11 1697.7 C 740.91 1678.01 758.73 1740.8 768.0 1792.0 C 777.27 1843.2 736.68 1922.63 787.88 1895.94 C 839.08 1869.24 839.08 1971.64 787.88 1947.14 C 736.68 1922.63 766.48 1996.8 768.0 2048.0" class="vertical" stroke="black" fill="none" stroke-width="1"/>
  <path d="M 1024.0,0.0 C 1024.0 51.2 1059.79 135.47 1008.59 102.86 C 957.39 70.24 957.39 172.64 1008.59 154.06 C 1059.79 135.47 1021.89 204.8 1024.0 256.0 C 1026.11 307.2 1059.47 392.59 1008.27 358.36 C 957.07 324.13 957.07 426.53 1008.27 409.56 C 1059.47 392.59 1025.74 460.8 1024.0 512.0 C 1022.26 563.2 1055.03 633.76 1003.83 612.34 C 952.63 590.92 952.63 693.32 1003.83 663.54 C 1055.03 633.76 1021.27 716.8 1024.0 768.0 C 1026.73 819.2 1000.82 885.19 1052.02 861.83 C 1103.22 838.48 1103.22 940.88 1052.02 913.03 C 1000.82 885.19 1033.84 972.8 1024.0 1024.0 C 1014.16 1075.2 1001.62 1159.74 1052.82 1135.53 C 1104.02 1111.32 1104.02 1213.72 1052.82 1186.73 C 1001.62 1159.74 1026.39 1228.8 1024.0 1280.0 C 1021.61 1331.2 999.4 1424.57 1050.6 1388.83 C 1101.8 1353.1 1101.8 1455.5 1050.6 1440.03 C 999.4 1424.57 1022.37 1484.8 1024.0 1536.0 C 1025.63 1587.2 1005.74 1666.06 1056.94 1633.29 C 1108.14 1600.51 1108.14 1702.91 1056.94 1684.49 C 1005.74 1666.06 1017.72 1740.8 1024.0 1792.0 C 1030.28 1843.2 1057.74 1920.36 1006.54 1892.4 C 955.34 1864.44 955.34 1966.84 1006.54 1943.6 C 1057.74 1920.36 1017.0 1996.8 1024.0 2048.0" class="vertical" stroke="black" fill="none" stroke-width="1"/>
  <path d="M 1280.0,0.0 C 1282.86 51.2 1245.43 130.11 1296.63 102.51 C 1347.83 74.91 1347.83 177.31 1296.63 153.71 C 1245.43 130.11 1279.97 204.8 1280.0 256.0 C 1280.03 307.2 1311.57 397.12 1260.37 364.09 C 1209.17 331.07 1209.17 433.47 1260.37 415.29 C 1311.57 397.12 1287.27 460.8 1280.0 512.0 C 1272.73 563.2 1251.1 637.89 1302.3 621.2 C 1353.5 604.5 1353.5 706.9 1302.3 672.4 C 1251.1 637.89 1275.34 716.8 1280.0 768.0 C 1284.66 819.2 1314.43 909.54 1263.23 874.12 C 1212.03 838.7 1212.03 941.1 1263.23 925.32 C 1314.43 909.54 1281.91 972.8 1280.0 1024.0 C 1278.09 1075.2 1245.27 1150.22 1296.47 1118.15 C 1347.67 1086.09 1347.67 1188.49 1296.47 1169.35 C 1245.27 1150.22 1285.56 1228.8 1280.0 1280.0 C 1274.44 1331.2 1308.91 1402.55 1257.71 1372.46 C 1206.51 1342.36 1206.51 1444.76 1257.71 1423.66 C 1308.91 1402.55 1285.82 1484.8 1280.0 1536.0 C 1274.18 1587.2 1259.31 1658.9 1310.51 1640.71 C 1361.71 1622.52 1361.71 1724.92 1310.51 1691.91 C 1259.31 1658.9 1272.7 1740.8 1280.0 1792.0 C 1287.3 1843.2 1246.45 1921.53 1297.65 1889.48 C 1348.85 1857.43 1348.85 1959.83 1297.65 1940.68 C 1246.45 1921.53 1278.07 1996.8 1280.0 2048.0" class="vertical" stroke="black" fill="none" stroke-width="1"/>
  <path d="M 1536.0,0.0 C 1530.83 51.2 1562.16 129.95 1510.96 110.69 C 1459.76 91.44 1459.76 193.84 1510.96 161.89 C 1562.16 129.95 1536.09 204.8 1536.0 256.0 C 1535.91 307.2 1518.15 377.66 1569.35 359.1 C 1620.55 340.55 1620.55 442.95 1569.35 410.3 C 1518.15 377.66 1534.08 460.8 1536.0 512.0 C 1537.92 563.2 1516.16 628.93 1567.36 611.97 C 1618.56 595.01 1618.56 697.41 1567.36 663.17 C 1516.16 628.93 1531.26 716.8 1536.0 768.0 C 1540.74 819.2 1519.13 904.0 1570.33 877.08 C 1621.53 850.16 1621.53 952.56 1570.33 928.28 C 1519.13 904.0 1541.27 972.8 1536.0 1024.0 C 1530.73 1075.2 1512.02 1166.82 1563.22 1132.48 C 1614.42 1098.15 1614.42 1200.55 1563.22 1183.68 C 1512.02 1166.82 1526.44 1228.8 1536.0 1280.0 C 1545.56 1331.2 1556.69 1410.14 1505.49 1384.04 C 1454.29 1357.95 1454.29 1460.35 1505.49 1435.24 C 1556.69 1410.14 1538.46 1484.8 1536.0 1536.0 C 1533.54 1587.2 1516.22 1664.24 1567.42 1638.99 C 1618.62 1613.73 1618.62 1716.13 1567.42 1690.19 C 1516.22 1664.24 1538.25 1740.8 1536.0 1792.0 C 1533.75 1843.2 1564.47 1902.54 1513.27 1885.43 C 1462.07 1868.33 1462.07 1970.73 1513.27 1936.63 C 1564.47 1902.54 1545.11 1996.8 1536.0 2048.0" class="vertical" stroke="black" fill="none" stroke-width="1"/>
  <path d="M 1792.0,0.0 C 1790.14 51.2 1757.19 115.43 1808.39 97.07 C 1859.59 78.71 1859.59 181.11 1808.39 148.27 C 1757.19 115.43 1798.46 204.8 1792.0 256.0 C 1785.54 307.2 1826.58 371.16 1775.38 354.67 C 1724.18 338.17 1724.18 440.57 1775.38 405.87 C 1826.58 371.16 1782.53 460.8 1792.0 512.0 C 1801.47 563.2 1823.77 625.26 1772.57 606.37 C 1721.37 587.47 1721.37 689.87 1772.57 657.57 C 1823.77 625.26 1786.24 716.8 1792.0 768.0 C 1797.76 819.2 1764.28 896.07 1815.48 863.24 C 1866.68 830.41 1866.68 932.81 1815.48 914.44 C 1764.28 896.07 1787.42 972.8 1792.0 1024.0 C 1796.58 1075.2 1776.55 1147.31 1827.75 1127.21 C 1878.95 1107.11 1878.95 1209.51 1827.75 1178.41 C 1776.55 1147.31 1794.37 1228.8 1792.0 1280.0 C 1789.63 1331.2 1825.06 1405.01 1773.86 1381.4 C 1722.66 1357.8 1722.66 1460.2 1773.86 1432.6 C 1825.06 1405.01 1785.49 1484.8 1792.0 1536.0 C 1798.51 1587.2 1770.74 1650.49 1821.94 1634.07 C 1873.14 1617.64 1873.14 1720.04 1821.94 1685.27 C 1770.74 1650.49 1801.08 1740.8 1792.0 1792.0 C 1782.92 1843.2 1817.03 1930.15 1765.83 1895.91 C 1714.63 1861.67 1714.63 1964.07 1765.83 1947.11 C 1817.03 1930.15 1783.37 1996.8 1792.0 2048.0" class="vertical" stroke="black" fill="none" stroke-width="1"/>
  <path d="M 2.0 0.0 L 2046.0 0.0 A 2.0 2.0 0 0 1 2048.0 2.0 L 2048.0 2046.0 A 2.0 2.0 0 0 1 2046.0 2048.0 L 2.0 2048.0 A 2.0 2.0 0 0 1 0.0 2046.0 L 0.0 2.0 A 2.0 2.0 0 0 1 2.0 0.0 " class="border" stroke="black" fill="none" stroke-width="1"/>
</svg>
