<svg xmlns="http://www.w3.org/2000/svg" width="3072" height="3072" viewBox="0 0 3072 3072">
  <path d="M 0.0,256.0 C 51.2 255.02 120.03 281.18 92.44 229.98 C 64.85 178.78 167.25 178.78 143.64 229.98 C 120.03 281.18 204.8 262.14 256.0 256.0 C 307.2 249.86 401.71 287.64 367.3 236.44 C 332.89 185.24 435.29 185.24 418.5 236.44 C 401.71 287.64 460.8 264.65 512.0 256.0 C 563.2 247.35 644.48 280.63 620.23 229.43 C 595.99 178.23 698.39 178.23 671.43 229.43 C 644.48 280.63 716.8 249.83 768.0 256.0 C 819.2 262.17 894.2 272.35 870.51 221.15 C 846.82 169.95 949.22 169.95 921.71 221.15 C 894.2 272.35 972.8 264.93 1024.0 256.0 C 1075.2 247.07 1163.54 234.76 1130.82 285.96 C 1098.1 337.16 1200.5 337.16 1182.02 285.96 C 1163.54 234.76 1228.8 266.1 1280.0 256.0 C 1331.2 245.9 1410.38 286.45 1377.2 235.25 C 1344.02 184.05 1446.42 184.05 1428.4 235.25 C 1410.38 286.45 1484.8 256.19 1536.0 256.0 C 1587.2 255.81 1669.71 239.09 1636.21 290.29 C 1602.71 341.49 1705.11 341.49 1687.41 290.29 C 1669.71 239.09 1740.8 255.53 1792.0 256.0 C 1843.2 256.47 1926.6 275.09 1903.5 223.89 C 1880.4 172.69 1982.8 172.69 1954.7 223.89 C 1926.6 275.09 1996.8 257.19 2048.0 256.0 C 2099.2 254.81 2168.4 291.27 2144.37 240.07 C 2120.34 188.87 2222.74 188.87 2195.57 240.07 C 2168.4 291.27 2252.8 257.87 2304.0 256.0 C 2355.2 254.13 2433.35 281.75 2416.63 230.55 C 2399.92 179.35 2502.32 179.35 2467.83 230.55 C 2433.35 281.75 2508.8 261.52 2560.0 256.0 C 2611.2 250.48 2672.73 220.86 2654.01 272.06 C 2635.29 323.26 2737.69 323.26 2705.21 272.06 C 2672.73 220.86 2764.8 251.37 2816.0 256.0 C 2867.2 260.63 2947.04 226.26 2920.06 277.46 C 2893.08 328.66 2995.48 328.66 2971.26 277.46 C 2947.04 226.26 3020.8 251.31 3072.0 256.0" class="horizontal" stroke="black" fill="none" stroke-width="1"/>
  <path d="M 0.0,512.0 C 51.2 521.4 129.87 537.7 110.73 486.5 C 91.59 435.3 193.99 435.3 161.93 486.5 C 129.87 537.7 204.8 504.61 256.0 512.0 C 307.2 519.39 389.64 546.71 366.6 495.51 C 343.55 444.31 445.95 444.31 417.8 495.51 C 389.64 546.71 460.8 517.24 512.0 512.0 C 563.2 506.76 626.08 542.01 606.81 490.81 C 587.54 439.61 689.94 439.61 658.01 490.81 C 626.08 542.01 716.8 508.69 768.0 512.0 C 819.2 515.31 895.98 529.01 871.07 477.81 C 846.15 426.61 948.55 426.61 922.27 477.81 C 895.98 529.01 972.8 520.21 1024.0 512.0 C 1075.2 503.79 1167.95 535.9 1134.29 484.7 C 1100.62 433.5 1203.02 433.5 1185.49 484.7 C 1167.95 535.9 1228.8 511.44 1280.0 512.0 C 1331.2 512.56 1425.1 495.05 1392.11 546.25 C 1359.13 597.45 1461.53 597.45 1443.31 546.25 C 1425.1 495.05 1484.8 503.21 1536.0 512.0 C 1587.2 520.79 1657.47 533.39 1636.14 482.19 C 1614.81 430.99 1717.21 430.99 1687.34 482.19 C 1657.47 533.39 1740.8 503.43 1792.0 512.0 C 1843.2 520.57 1911.34 529.41 1891.76 478.21 C 1872.18 427.01 1974.58 427.01 1942.96 478.21 C 1911.34 529.41 1996.8 501.87 2048.0 512.0 C 2099.2 522.13 2177.44 492.8 2145.61 544.0 C 2113.77 595.2 2216.17 595.2 2196.81 544.0 C 2177.44 492.8 2252.8 509.48 2304.0 512.0 C 2355.2 514.52 2439.25 491.65 2415.15 542.85 C 2391.04 594.05 2493.44 594.05 2466.35 542.85 C 2439.25 491.65 2508.8 519.98 2560.0 512.0 C 2611.2 504.02 2697.47 545.84 2663.11 494.64 C 2628.75 443.44 2731.15 443.44 2714.31 494.64 C 2697.47 545.84 2764.8 521.14 2816.0 512.0 C 2867.2 502.86 2947.04 547.21 2924.87 496.01 C 2902.71 444.81 3005.11 444.81 2976.07 496.01 C 2947.04 547.21 3020.8 511.04 3072.0 512.0" class="horizontal" stroke="black" fill="none" stroke-width="1"/>
  <path d="M 0.0,768.0 C 51.2 775.88 118.05 735.17 95.28 786.37 C 72.51 837.57 174.91 837.57 146.48 786.37 C 118.05 735.17 204.8 776.94 256.0 768.0 C 307.2 759.06 394.18 801.26 366.58 750.06 C 338.97 698.86 441.37 698.86 417.78 750.06 C 394.18 801.26 460.8 761.65 512.0 768.0 C 563.2 774.35 636.15 793.51 608.3 742.31 C 580.45 691.11 682.85 691.11 659.5 742.31 C 636.15 793.51 716.8 773.51 768.0 768.0 C 819.2 762.49 886.95 801.36 867.1 750.16 C 847.25 698.96 949.65 698.96 918.3 750.16 C 886.95 801.36 972.8 766.12 1024.0 768.0 C 1075.2 769.88 1140.62 740.78 1117.26 791.98 C 1093.89 843.18 1196.29 843.18 1168.46 791.98 C 1140.62 740.78 1228.8 762.78 1280.0 768.0 C 1331.2 773.22 1423.75 749.63 1391.27 800.83 C 1358.78 852.03 1461.18 852.03 1442.47 800.83 C 1423.75 749.63 1484.8 777.2 1536.0 768.0 C 1587.2 758.8 1657.94 742.53 1636.13 793.73 C 1614.33 844.93 1716.73 844.93 1687.33 793.73 C 1657.94 742.53 1740.8 760.35 1792.0 768.0 C 1843.2 775.65 1923.97 751.16 1903.36 802.36 C 1882.74 853.56 1985.14 853.56 1954.56 802.36 C 1923.97 751.16 1996.8 771.48 2048.0 768.0 C 2099.2 764.52 2172.58 739.99 2149.55 791.19 C 2126.53 842.39 2228.93 842.39 2200.75 791.19 C 2172.58 739.99 2252.8 767.65 2304.0 768.0 C 2355.2 768.35 2449.78 741.18 2414.65 792.38 C 2379.51 843.58 2481.91 843.58 2465.85 792.38 C 2449.78 741.18 2508.8 777.94 2560.0 768.0 C 2611.2 758.06 2682.22 734.68 2657.01 785.88 C 2631.8 837.08 2734.2 837.08 2708.21 785.88 C 2682.22 734.68 2764.8 774.29 2816.0 768.0 C 2867.2 761.71 2932.73 783.54 2913.97 732.34 C 2895.21 681.14 2997.61 681.14 2965.17 732.34 C 2932.73 783.54 3020.8 775.15 3072.0 768.0" class="horizontal" stroke="black" fill="none" stroke-width="1"/>
  <path d="M 0.0,1024.0 C 51.2 1030.92 136.42 996.44 109.04 1047.64 C 81.65 1098.84 184.05 1098.84 160.24 1047.64 C 136.42 996.44 204.8 1021.27 256.0 1024.0 C 307.2 1026.73 381.73 1053.33 365.57 1002.13 C 349.41 950.93 451.81 950.93 416.77 1002.13 C 381.73 1053.33 460.8 1022.51 512.0 1024.0 C 563.2 1025.49 631.52 993.72 610.5 1044.92 C 589.48 1096.12 691.88 1096.12 661.7 1044.92 C 631.52 993.72 716.8 1023.12 768.0 1024.0 C 819.2 1024.88 905.4 1040.03 875.48 988.83 C 845.55 937.63 947.95 937.63 926.68 988.83 C 905.4 1040.03 972.8 1033.97 1024.0 1024.0 C 1075.2 1014.03 1143.59 990.45 1122.39 1041.65 C 1101.19 1092.85 1203.59 1092.85 1173.59 1041.65 C 1143.59 990.45 1228.8 1030.96 1280.0 1024.0 C 1331.2 1017.04 1406.56 1054.15 1373.63 1002.95 C 1340.71 951.75 1443.11 951.75 1424.83 1002.95 C 1406.56 1054.15 1484.8 1026.36 1536.0 1024.0 C 1587.2 1021.64 1657.08 999.0 1637.52 1050.2 C 1617.95 1101.4 1720.35 1101.4 1688.72 1050.2 C 1657.08 999.0 1740.8 1017.87 1792.0 1024.0 C 1843.2 1030.13 1911.05 1041.77 1888.19 990.57 C 1865.34 939.37 1967.74 939.37 1939.39 990.57 C 1911.05 1041.77 1996.8 1023.53 2048.0 1024.0 C 2099.2 1024.47 2169.4 996.41 2149.82 1047.61 C 2130.24 1098.81 2232.64 1098.81 2201.02 1047.61 C 2169.4 996.41 2252.8 1017.35 2304.0 1024.0 C 2355.2 1030.65 2433.58 1003.37 2403.53 1054.57 C 2373.47 1105.77 2475.87 1105.77 2454.73 1054.57 C 2433.58 1003.37 2508.8 1019.45 2560.0 1024.0 C 2611.2 1028.55 2689.67 1055.94 2665.64 1004.74 C 2641.61 953.54 2744.01 953.54 2716.84 1004.74 C 2689.67 1055.94 2764.8 1033.1 2816.0 1024.0 C 2867.2 1014.9 2947.62 1044.54 2914.44 993.34 C 2881.26 942.14 2983.66 942.14 2965.64 993.34 C 2947.62 1044.54 3020.8 1024.98 3072.0 1024.0" class="horizontal" stroke="black" fill="none" stroke-width="1"/>
  <path d="M 0.0,1280.0 C 51.2 1282.56 113.59 1244.23 95.32 1295.43 C 77.05 1346.63 179.45 1346.63 146.52 1295.43 C 113.59 1244.23 204.8 1275.2 256.0 1280.0 C 307.2 1284.8 394.21 1304.55 361.87 1253.35 C 329.53 1202.15 431.93 1202.15 413.07 1253.35 C 394.21 1304.55 460.8 1273.99 512.0 1280.0 C 563.2 1286.01 625.33 1248.25 609.11 1299.45 C 592.89 1350.65 695.29 1350.65 660.31 1299.45 C 625.33 1248.25 716.8 1276.83 768.0 1280.0 C 819.2 1283.17 893.98 1259.97 867.05 1311.17 C 840.12 1362.37 942.52 1362.37 918.25 1311.17 C 893.98 1259.97 972.8 1288.99 1024.0 1280.0 C 1075.2 1271.01 1137.55 1295.74 1120.43 1244.54 C 1103.3 1193.34 1205.7 1193.34 1171.63 1244.54 C 1137.55 1295.74 1228.8 1288.9 1280.0 1280.0 C 1331.2 1271.1 1412.44 1299.04 1392.17 1247.84 C 1371.89 1196.64 1474.29 1196.64 1443.37 1247.84 C 1412.44 1299.04 1484.8 1270.01 1536.0 1280.0 C 1587.2 1289.99 1666.65 1313.73 1646.3 1262.53 C 1625.95 1211.33 1728.35 1211.33 1697.5 1262.53 C 1666.65 1313.73 1740.8 1284.36 1792.0 1280.0 C 1843.2 1275.64 1919.04 1305.89 1887.34 1254.69 C 1855.63 1203.49 1958.03 1203.49 1938.54 1254.69 C 1919.04 1305.89 1996.8 1280.56 2048.0 1280.0 C 2099.2 1279.44 2163.22 1299.2 2141.98 1248.0 C 2120.74 1196.8 2223.14 1196.8 2193.18 1248.0 C 2163.22 1299.2 2252.8 1280.26 2304.0 1280.0 C 2355.2 1279.74 2431.91 1298.07 2405.16 1246.87 C 2378.42 1195.67 2480.82 1195.67 2456.36 1246.87 C 2431.91 1298.07 2508.8 1286.49 2560.0 1280.0 C 2611.2 1273.51 2693.46 1314.19 2666.93 1262.99 C 2640.39 1211.79 2742.79 1211.79 2718.13 1262.99 C 2693.46 1314.19 2764.8 1281.21 2816.0 1280.0 C 2867.2 1278.79 2941.1 1302.54 2912.79 1251.34 C 2884.47 1200.14 2986.87 1200.14 2963.99 1251.34 C 2941.1 1302.54 3020.8 1273.28 3072.0 1280.0" class="horizontal" stroke="black" fill="none" stroke-width="1"/>
  <path d="M 0.0,1536.0 C 51.2 1544.08 132.01 1509.9 110.96 1561.1 C 89.9 1612.3 192.3 1612.3 162.16 1561.1 C 132.01 1509.9 204.8 1528.53 256.0 1536.0 C 307.2 1543.47 392.22 1506.78 362.97 1557.98 C 333.72 1609.18 436.12 1609.18 414.17 1557.98 C 392.22 1506.78 460.8 1544.3 512.0 1536.0 C 563.2 1527.7 635.51 1505.65 609.1 1556.85 C 582.68 1608.05 685.08 1608.05 660.3 1556.85 C 635.51 1505.65 716.8 1531.69 768.0 1536.0 C 819.2 1540.31 883.99 1557.29 865.96 1506.09 C 847.92 1454.89 950.32 1454.89 917.16 1506.09 C 883.99 1557.29 972.8 1532.01 1024.0 1536.0 C 1075.2 1539.99 1146.5 1503.03 1121.07 1554.23 C 1095.65 1605.43 1198.05 1605.43 1172.27 1554.23 C 1146.5 1503.03 1228.8 1529.75 1280.0 1536.0 C 1331.2 1542.25 1421.12 1557.26 1391.63 1506.06 C 1362.14 1454.86 1464.54 1454.86 1442.83 1506.06 C 1421.12 1557.26 1484.8 1528.27 1536.0 1536.0 C 1587.2 1543.73 1664.16 1557.98 1643.9 1506.78 C 1623.63 1455.58 1726.03 1455.58 1695.1 1506.78 C 1664.16 1557.98 1740.8 1541.66 1792.0 1536.0 C 1843.2 1530.34 1908.89 1568.71 1885.85 1517.51 C 1862.8 1466.31 1965.2 1466.31 1937.05 1517.51 C 1908.89 1568.71 1996.8 1540.26 2048.0 1536.0 C 2099.2 1531.74 2176.66 1520.57 2154.84 1571.77 C 2133.01 1622.97 2235.41 1622.97 2206.04 1571.77 C 2176.66 1520.57 2252.8 1539.84 2304.0 1536.0 C 2355.2 1532.16 2426.44 1560.43 2407.28 1509.23 C 2388.12 1458.03 2490.52 1458.03 2458.48 1509.23 C 2426.44 1560.43 2508.8 1530.42 2560.0 1536.0 C 2611.2 1541.58 2690.16 1519.45 2666.06 1570.65 C 2641.96 1621.85 2744.36 1621.85 2717.26 1570.65 C 2690.16 1519.45 2764.8 1538.56 2816.0 1536.0 C 2867.2 1533.44 2934.89 1552.95 2914.42 1501.75 C 2893.95 1450.55 2996.35 1450.55 2965.62 1501.75 C 2934.89 1552.95 3020.8 1529.39 3072.0 1536.0" class="horizontal" stroke="black" fill="none" stroke-width="1"/>
  <path d="M 0.0,1792.0 C 51.2 1793.38 133.78 1762.65 111.82 1813.85 C 89.86 1865.05 192.26 1865.05 163.02 1813.85 C 133.78 1762.65 204.8 1791.12 256.0 1792.0 C 307.2 1792.88 391.27 1756.29 364.4 1807.49 C 337.52 1858.69 439.92 1858.69 415.6 1807.49 C 391.27 1756.29 460.8 1792.33 512.0 1792.0 C 563.2 1791.67 640.35 1825.03 607.02 1773.83 C 573.69 1722.63 676.09 1722.63 658.22 1773.83 C 640.35 1825.03 716.8 1787.52 768.0 1792.0 C 819.2 1796.48 886.53 1767.03 870.72 1818.23 C 854.91 1869.43 957.31 1869.43 921.92 1818.23 C 886.53 1767.03 972.8 1801.09 1024.0 1792.0 C 1075.2 1782.91 1162.28 1770.08 1126.85 1821.28 C 1091.42 1872.48 1193.82 1872.48 1178.05 1821.28 C 1162.28 1770.08 1228.8 1786.27 1280.0 1792.0 C 1331.2 1797.73 1400.87 1761.63 1374.64 1812.83 C 1348.41 1864.03 1450.81 1864.03 1425.84 1812.83 C 1400.87 1761.63 1484.8 1783.18 1536.0 1792.0 C 1587.2 1800.82 1660.81 1826.7 1636.26 1775.5 C 1611.71 1724.3 1714.11 1724.3 1687.46 1775.5 C 1660.81 1826.7 1740.8 1792.92 1792.0 1792.0 C 1843.2 1791.08 1920.08 1756.48 1884.38 1807.68 C 1848.67 1858.88 1951.07 1858.88 1935.58 1807.68 C 1920.08 1756.48 1996.8 1786.63 2048.0 1792.0 C 2099.2 1797.37 2177.34 1824.96 2145.3 1773.76 C 2113.27 1722.56 2215.67 1722.56 2196.5 1773.76 C 2177.34 1824.96 2252.8 1799.28 2304.0 1792.0 C 2355.2 1784.72 2430.63 1759.25 2413.62 1810.45 C 2396.6 1861.65 2499.0 1861.65 2464.82 1810.45 C 2430.63 1759.25 2508.8 1796.34 2560.0 1792.0 C 2611.2 1787.66 2686.72 1810.08 2654.07 1758.88 C 2621.42 1707.68 2723.82 1707.68 2705.27 1758.88 C 2686.72 1810.08 2764.8 1785.43 2816.0 1792.0 C 2867.2 1798.57 2953.78 1818.8 2926.82 1767.6 C 2899.86 1716.4 3002.26 1716.4 2978.02 1767.6 C 2953.78 1818.8 3020.8 1786.25 3072.0 1792.0" class="horizontal" stroke="black" fill="none" stroke-width="1"/>
  <path d="M 0.0,2048.0 C 51.2 2046.66 129.96 2021.57 96.41 2072.77 C 62.86 2123.97 165.26 2123.97 147.61 2072.77 C 129.96 2021.57 204.8 2056.94 256.0 2048.0 C 307.2 2039.06 389.81 2073.43 367.84 2022.23 C 345.86 1971.03 448.26 1971.03 419.04 2022.23 C 389.81 2073.43 460.8 2042.73 512.0 2048.0 C 563.2 2053.27 650.73 2068.04 618.95 2016.84 C 587.17 1965.64 689.57 1965.64 670.15 2016.84 C 650.73 2068.04 716.8 2047.02 768.0 2048.0 C 819.2 2048.98 881.83 2023.67 863.23 2074.87 C 844.62 2126.07 947.02 2126.07 914.43 2074.87 C 881.83 2023.67 972.8 2043.54 1024.0 2048.0 C 1075.2 2052.46 1148.7 2075.54 1122.98 2024.34 C 1097.26 1973.14 1199.66 1973.14 1174.18 2024.34 C 1148.7 2075.54 1228.8 2040.83 1280.0 2048.0 C 1331.2 2055.17 1423.31 2014.11 1389.11 2065.31 C 1354.91 2116.51 1457.31 2116.51 1440.31 2065.31 C 1423.31 2014.11 1484.8 2040.33 1536.0 2048.0 C 1587.2 2055.67 1672.01 2068.06 1644.68 2016.86 C 1617.34 1965.66 1719.74 1965.66 1695.88 2016.86 C 1672.01 2068.06 1740.8 2048.2 1792.0 2048.0 C 1843.2 2047.8 1917.19 2016.15 1897.49 2067.35 C 1877.79 2118.55 1980.19 2118.55 1948.69 2067.35 C 1917.19 2016.15 1996.8 2055.73 2048.0 2048.0 C 2099.2 2040.27 2183.56 2028.78 2158.01 2079.98 C 2132.47 2131.18 2234.87 2131.18 2209.21 2079.98 C 2183.56 2028.78 2252.8 2041.23 2304.0 2048.0 C 2355.2 2054.77 2428.71 2066.6 2400.52 2015.4 C 2372.33 1964.2 2474.73 1964.2 2451.72 2015.4 C 2428.71 2066.6 2508.8 2047.77 2560.0 2048.0 C 2611.2 2048.23 2677.04 2019.6 2652.31 2070.8 C 2627.59 2122.0 2729.99 2122.0 2703.51 2070.8 C 2677.04 2019.6 2764.8 2040.86 2816.0 2048.0 C 2867.2 2055.14 2946.97 2019.41 2914.52 2070.61 C 2882.07 2121.81 2984.47 2121.81 2965.72 2070.61 C 2946.97 2019.41 3020.8 2041.33 3072.0 2048.0" class="horizontal" stroke="black" fill="none" stroke-width="1"/>
  <path d="M 0.0,2304.0 C 51.2 2312.96 124.84 2332.51 104.24 2281.31 C 83.64 2230.11 186.04 2230.11 155.44 2281.31 C 124.84 2332.51 204.8 2299.87 256.0 2304.0 C 307.2 2308.13 397.03 2270.03 365.36 2321.23 C 333.69 2372.43 436.09 2372.43 416.56 2321.23 C 397.03 2270.03 460.8 2303.13 512.0 2304.0 C 563.2 2304.87 627.59 2323.06 605.47 2271.86 C 583.35 2220.66 685.75 2220.66 656.67 2271.86 C 627.59 2323.06 716.8 2293.78 768.0 2304.0 C 819.2 2314.22 895.59 2287.56 877.26 2338.76 C 858.93 2389.96 961.33 2389.96 928.46 2338.76 C 895.59 2287.56 972.8 2303.88 1024.0 2304.0 C 1075.2 2304.12 1139.88 2324.36 1123.73 2273.16 C 1107.58 2221.96 1209.98 2221.96 1174.93 2273.16 C 1139.88 2324.36 1228.8 2305.41 1280.0 2304.0 C 1331.2 2302.59 1394.11 2275.3 1376.01 2326.5 C 1357.9 2377.7 1460.3 2377.7 1427.21 2326.5 C 1394.11 2275.3 1484.8 2305.62 1536.0 2304.0 C 1587.2 2302.38 1668.38 2323.91 1637.21 2272.71 C 1606.04 2221.51 1708.44 2221.51 1688.41 2272.71 C 1668.38 2323.91 1740.8 2311.63 1792.0 2304.0 C 1843.2 2296.37 1935.15 2339.24 1901.45 2288.04 C 1867.75 2236.84 1970.15 2236.84 1952.65 2288.04 C 1935.15 2339.24 1996.8 2305.49 2048.0 2304.0 C 2099.2 2302.51 2168.26 2337.63 2141.13 2286.43 C 2113.99 2235.23 2216.39 2235.23 2192.33 2286.43 C 2168.26 2337.63 2252.8 2309.72 2304.0 2304.0 C 2355.2 2298.28 2434.69 2326.94 2404.88 2275.74 C 2375.07 2224.54 2477.47 2224.54 2456.08 2275.74 C 2434.69 2326.94 2508.8 2305.87 2560.0 2304.0 C 2611.2 2302.13 2705.01 2329.6 2672.23 2278.4 C 2639.44 2227.2 2741.84 2227.2 2723.43 2278.4 C 2705.01 2329.6 2764.8 2303.54 2816.0 2304.0 C 2867.2 2304.46 2953.86 2280.51 2925.42 2331.71 C 2896.98 2382.91 2999.38 2382.91 2976.62 2331.71 C 2953.86 2280.51 3020.8 2303.96 3072.0 2304.0" class="horizontal" stroke="black" fill="none" stroke-width="1"/>
  <path d="M 0.0,2560.0 C 51.2 2565.43 122.16 2525.5 105.13 2576.7 C 88.09 2627.9 190.49 2627.9 156.33 2576.7 C 122.16 2525.5 204.8 2562.42 256.0 2560.0 C 307.2 2557.58 402.97 2528.94 368.24 2580.14 C 333.51 2631.34 435.91 2631.34 419.44 2580.14 C 402.97 2528.94 460.8 2563.22 512.0 2560.0 C 563.2 2556.78 648.82 2529.84 616.79 2581.04 C 584.75 2632.24 687.15 2632.24 667.99 2581.04 C 648.82 2529.84 716.8 2561.0 768.0 2560.0 C 819.2 2559.0 889.26 2595.65 868.77 2544.45 C 848.28 2493.25 950.68 2493.25 919.97 2544.45 C 889.26 2595.65 972.8 2552.66 1024.0 2560.0 C 1075.2 2567.34 1143.72 2581.74 1120.12 2530.54 C 1096.52 2479.34 1198.92 2479.34 1171.32 2530.54 C 1143.72 2581.74 1228.8 2568.14 1280.0 2560.0 C 1331.2 2551.86 1407.5 2590.76 1389.4 2539.56 C 1371.3 2488.36 1473.7 2488.36 1440.6 2539.56 C 1407.5 2590.76 1484.8 2554.25 1536.0 2560.0 C 1587.2 2565.75 1651.84 2531.54 1628.99 2582.74 C 1606.14 2633.94 1708.54 2633.94 1680.19 2582.74 C 1651.84 2531.54 1740.8 2560.11 1792.0 2560.0 C 1843.2 2559.89 1927.99 2534.37 1896.4 2585.57 C 1864.8 2636.77 1967.2 2636.77 1947.6 2585.57 C 1927.99 2534.37 1996.8 2565.69 2048.0 2560.0 C 2099.2 2554.31 2176.18 2527.13 2157.83 2578.33 C 2139.47 2629.53 2241.87 2629.53 2209.03 2578.33 C 2176.18 2527.13 2252.8 2566.8 2304.0 2560.0 C 2355.2 2553.2 2431.59 2529.74 2397.5 2580.94 C 2363.4 2632.14 2465.8 2632.14 2448.7 2580.94 C 2431.59 2529.74 2508.8 2563.72 2560.0 2560.0 C 2611.2 2556.28 2688.59 2532.49 2672.22 2583.69 C 2655.85 2634.89 2758.25 2634.89 2723.42 2583.69 C 2688.59 2532.49 2764.8 2551.75 2816.0 2560.0 C 2867.2 2568.25 2959.05 2539.96 2924.87 2591.16 C 2890.68 2642.36 2993.08 2642.36 2976.07 2591.16 C 2959.05 2539.96 3020.8 2550.06 3072.0 2560.0" class="horizontal" stroke="black" fill="none" stroke-width="1"/>
  <path d="M 0.0,2816.0 C 51.2 2811.09 115.78 2789.13 95.1 2840.33 C 74.42 2891.53 176.82 2891.53 146.3 2840.33 C 115.78 2789.13 204.8 2808.05 256.0 2816.0 C 307.2 2823.95 383.87 2841.9 356.47 2790.7 C 329.06 2739.5 431.46 2739.5 407.67 2790.7 C 383.87 2841.9 460.8 2824.6 512.0 2816.0 C 563.2 2807.4 635.92 2795.57 606.58 2846.77 C 577.25 2897.97 679.65 2897.97 657.78 2846.77 C 635.92 2795.57 716.8 2824.29 768.0 2816.0 C 819.2 2807.71 889.05 2790.31 864.05 2841.51 C 839.06 2892.71 941.46 2892.71 915.25 2841.51 C 889.05 2790.31 972.8 2816.7 1024.0 2816.0 C 1075.2 2815.3 1137.77 2843.52 1119.36 2792.32 C 1100.94 2741.12 1203.34 2741.12 1170.56 2792.32 C 1137.77 2843.52 1228.8 2818.43 1280.0 2816.0 C 1331.2 2813.57 1398.32 2846.34 1373.76 2795.14 C 1349.2 2743.94 1451.6 2743.94 1424.96 2795.14 C 1398.32 2846.34 1484.8 2809.32 1536.0 2816.0 C 1587.2 2822.68 1657.56 2836.33 1639.72 2785.13 C 1621.89 2733.93 1724.29 2733.93 1690.92 2785.13 C 1657.56 2836.33 1740.8 2809.92 1792.0 2816.0 C 1843.2 2822.08 1931.16 2851.16 1903.13 2799.96 C 1875.11 2748.76 1977.51 2748.76 1954.33 2799.96 C 1931.16 2851.16 1996.8 2814.36 2048.0 2816.0 C 2099.2 2817.64 2169.54 2844.06 2150.89 2792.86 C 2132.25 2741.66 2234.65 2741.66 2202.09 2792.86 C 2169.54 2844.06 2252.8 2815.41 2304.0 2816.0 C 2355.2 2816.59 2431.97 2839.35 2406.06 2788.15 C 2380.14 2736.95 2482.54 2736.95 2457.26 2788.15 C 2431.97 2839.35 2508.8 2824.97 2560.0 2816.0 C 2611.2 2807.03 2669.74 2781.29 2653.91 2832.49 C 2638.08 2883.69 2740.48 2883.69 2705.11 2832.49 C 2669.74 2781.29 2764.8 2806.68 2816.0 2816.0 C 2867.2 2825.32 2946.45 2789.2 2918.99 2840.4 C 2891.53 2891.6 2993.93 2891.6 2970.19 2840.4 C 2946.45 2789.2 3020.8 2815.49 3072.0 2816.0" class="horizontal" stroke="black" fill="none" stroke-width="1"/>
  <path d="M 256.0,0.0 C 259.73 51.2 239.87 120.15 291.07 93.3 C 342.27 66.45 342.27 168.85 291.07 144.5 C 239.87 120.15 247.97 204.8 256.0 256.0 C 264.03 307.2 236.16 376.51 287.36 351.7 C 338.56 326.88 338.56 429.28 287.36 402.9 C 236.16 376.51 248.84 460.8 256.0 512.0 C 263.16 563.2 225.82 642.3 277.02 621.63 C 328.22 600.96 328.22 703.36 277.02 672.83 C 225.82 642.3 256.81 716.8 256.0 768.0 C 255.19 819.2 279.23 898.24 228.03 864.9 C 176.83 831.57 176.83 933.97 228.03 916.1 C 279.23 898.24 257.0 972.8 256.0 1024.0 C 255.0 1075.2 236.91 1146.59 288.11 1124.41 C 339.31 1102.22 339.31 1204.62 288.11 1175.61 C 236.91 1146.59 251.67 1228.8 256.0 1280.0 C 260.33 1331.2 272.52 1407.97 221.32 1373.23 C 170.12 1338.48 170.12 1440.88 221.32 1424.43 C 272.52 1407.97 254.49 1484.8 256.0 1536.0 C 257.51 1587.2 272.97 1675.6 221.77 1647.04 C 170.57 1618.48 170.57 1720.88 221.77 1698.24 C 272.97 1675.6 250.27 1740.8 256.0 1792.0 C 261.73 1843.2 231.66 1933.46 282.86 1898.22 C 334.06 1862.97 334.06 1965.37 282.86 1949.42 C 231.66 1933.46 254.34 1996.8 256.0 2048.0 C 257.66 2099.2 227.75 2183.29 278.95 2153.9 C 330.15 2124.51 330.15 2226.91 278.95 2205.1 C 227.75 2183.29 262.93 2252.8 256.0 2304.0 C 249.07 2355.2 231.75 2427.15 282.95 2411.68 C 334.15 2396.22 334.15 2498.62 282.95 2462.88 C 231.75 2427.15 256.38 2508.8 256.0 2560.0 C 255.62 2611.2 240.03 2700.38 291.23 2669.59 C 342.43 2638.79 342.43 2741.19 291.23 2720.79 C 240.03 2700.38 245.77 2764.8 256.0 2816.0 C 266.23 2867.2 237.24 2944.74 288.44 2914.48 C 339.64 2884.22 339.64 2986.62 288.44 2965.68 C 237.24 2944.74 263.09 3020.8 256.0 3072.0" class="vertical" stroke="black" fill="none" stroke-width="1"/>
  <path d="M 512.0,0.0 C 513.79 51.2 529.31 136.42 478.11 108.54 C 426.91 80.66 426.91 183.06 478.11 159.74 C 529.31 136.42 507.49 204.8 512.0 256.0 C 516.51 307.2 495.5 366.9 546.7 350.53 C 597.9 334.17 597.9 436.57 546.7 401.73 C 495.5 366.9 518.75 460.8 512.0 512.0 C 505.25 563.2 538.61 632.44 487.41 611.2 C 436.21 589.96 436.21 692.36 487.41 662.4 C 538.61 632.44 517.68 716.8 512.0 768.0 C 506.32 819.2 536.04 894.6 484.84 868.6 C 433.64 842.6 433.64 945.0 484.84 919.8 C 536.04 894.6 520.89 972.8 512.0 1024.0 C 503.11 1075.2 492.07 1140.34 543.27 1122.54 C 594.47 1104.74 594.47 1207.14 543.27 1173.74 C 492.07 1140.34 516.44 1228.8 512.0 1280.0 C 507.56 1331.2 542.18 1420.68 490.98 1387.98 C 439.78 1355.28 439.78 1457.68 490.98 1439.18 C 542.18 1420.68 521.4 1484.8 512.0 1536.0 C 502.6 1587.2 487.56 1659.62 538.76 1634.75 C 589.96 1609.89 589.96 1712.29 538.76 1685.95 C 487.56 1659.62 521.18 1740.8 512.0 1792.0 C 502.82 1843.2 487.0 1915.93 538.2 1893.55 C 589.4 1871.17 589.4 1973.57 538.2 1944.75 C 487.0 1915.93 508.06 1996.8 512.0 2048.0 C 515.94 2099.2 487.3 2172.03 538.5 2153.88 C 589.7 2135.73 589.7 2238.13 538.5 2205.08 C 487.3 2172.03 520.82 2252.8 512.0 2304.0 C 503.18 2355.2 483.41 2429.97 534.61 2404.03 C 585.81 2378.08 585.81 2480.48 534.61 2455.23 C 483.41 2429.97 510.27 2508.8 512.0 2560.0 C 513.73 2611.2 534.28 2687.81 483.08 2656.1 C 431.88 2624.38 431.88 2726.78 483.08 2707.3 C 534.28 2687.81 505.6 2764.8 512.0 2816.0 C 518.4 2867.2 482.97 2938.27 534.17 2918.14 C 585.37 2898.02 585.37 3000.42 534.17 2969.34 C 482.97 2938.27 506.05 3020.8 512.0 3072.0" class="vertical" stroke="black" fill="none" stroke-width="1"/>
  <path d="M 768.0,0.0 C 762.91 51.2 787.73 114.19 736.53 97.4 C 685.33 80.61 685.33 183.01 736.53 148.6 C 787.73 114.19 769.79 204.8 768.0 256.0 C 766.21 307.2 796.54 396.87 745.34 366.5 C 694.14 336.14 694.14 438.54 745.34 417.7 C 796.54 396.87 761.8 460.8 768.0 512.0 C 774.2 563.2 737.26 643.44 788.46 612.77 C 839.66 582.09 839.66 684.49 788.46 663.97 C 737.26 643.44 772.09 716.8 768.0 768.0 C 763.91 819.2 803.51 902.36 752.31 876.25 C 701.11 850.15 701.11 952.55 752.31 927.45 C 803.51 902.36 777.64 972.8 768.0 1024.0 C 758.36 1075.2 745.97 1153.01 797.17 1126.8 C 848.37 1100.59 848.37 1202.99 797.17 1178.0 C 745.97 1153.01 773.69 1228.8 768.0 1280.0 C 762.31 1331.2 785.21 1396.61 734.01 1381.14 C 682.81 1365.67 682.81 1468.07 734.01 1432.34 C 785.21 1396.61 771.83 1484.8 768.0 1536.0 C 764.17 1587.2 749.6 1670.19 800.8 1646.19 C 852.0 1622.19 852.0 1724.59 800.8 1697.39 C 749.6 1670.19 774.87 1740.8 768.0 1792.0 C 761.13 1843.2 750.2 1925.77 801.4 1899.5 C 852.6 1873.24 852.6 1975.64 801.4 1950.7 C 750.2 1925.77 760.88 1996.8 768.0 2048.0 C 775.12 2099.2 784.6 2173.9 733.4 2147.1 C 682.2 2120.3 682.2 2222.7 733.4 2198.3 C 784.6 2173.9 772.11 2252.8 768.0 2304.0 C 763.89 2355.2 741.99 2449.33 793.19 2414.92 C 844.39 2380.5 844.39 2482.9 793.19 2466.12 C 741.99 2449.33 763.9 2508.8 768.0 2560.0 C 772.1 2611.2 750.56 2686.87 801.76 2668.55 C 852.96 2650.22 852.96 2752.62 801.76 2719.75 C 750.56 2686.87 767.49 2764.8 768.0 2816.0 C 768.51 2867.2 734.75 2937.5 785.95 2913.6 C 837.15 2889.7 837.15 2992.1 785.95 2964.8 C 734.75 2937.5 761.29 3020.8 768.0 3072.0" class="vertical" stroke="black" fill="none" stroke-width="1"/>
  <path d="M 1024.0,0.0 C 1023.84 51.2 991.0 135.41 1042.2 108.88 C 1093.4 82.36 1093.4 184.76 1042.2 160.08 C 991.0 135.41 1023.59 204.8 1024.0 256.0 C 1024.41 307.2 1053.62 383.41 1002.42 361.03 C 951.22 338.66 951.22 441.06 1002.42 412.23 C 1053.62 383.41 1031.63 460.8 1024.0 512.0 C 1016.37 563.2 1050.81 645.99 999.61 618.95 C 948.41 591.9 948.41 694.3 999.61 670.15 C 1050.81 645.99 1017.73 716.8 1024.0 768.0 C 1030.27 819.2 1049.24 897.38 998.04 865.57 C 946.84 833.76 946.84 936.16 998.04 916.77 C 1049.24 897.38 1031.14 972.8 1024.0 1024.0 C 1016.86 1075.2 1040.18 1151.31 988.98 1122.05 C 937.78 1092.8 937.78 1195.2 988.98 1173.25 C 1040.18 1151.31 1033.17 1228.8 1024.0 1280.0 C 1014.83 1331.2 1046.25 1407.83 995.05 1378.93 C 943.85 1350.03 943.85 1452.43 995.05 1430.13 C 1046.25 1407.83 1026.55 1484.8 1024.0 1536.0 C 1021.45 1587.2 1043.13 1666.59 991.93 1634.23 C 940.73 1601.86 940.73 1704.26 991.93 1685.43 C 1043.13 1666.59 1033.18 1740.8 1024.0 1792.0 C 1014.82 1843.2 988.6 1917.8 1039.8 1895.97 C 1091.0 1874.13 1091.0 1976.53 1039.8 1947.17 C 988.6 1917.8 1019.76 1996.8 1024.0 2048.0 C 1028.24 2099.2 1057.56 2164.93 1006.36 2148.6 C 955.16 2132.28 955.16 2234.68 1006.36 2199.8 C 1057.56 2164.93 1027.22 2252.8 1024.0 2304.0 C 1020.78 2355.2 989.82 2435.18 1041.02 2406.78 C 1092.22 2378.39 1092.22 2480.79 1041.02 2457.98 C 989.82 2435.18 1017.24 2508.8 1024.0 2560.0 C 1030.76 2611.2 1049.59 2682.93 998.39 2655.48 C 947.19 2628.02 947.19 2730.42 998.39 2706.68 C 1049.59 2682.93 1030.7 2764.8 1024.0 2816.0 C 1017.3 2867.2 1003.06 2937.62 1054.26 2913.27 C 1105.46 2888.92 1105.46 2991.32 1054.26 2964.47 C 1003.06 2937.62 1017.77 3020.8 1024.0 3072.0" class="vertical" stroke="black" fill="none" stroke-width="1"/>
  <path d="M 1280.0,0.0 C 1279.87 51.2 1312.92 134.86 1261.72 111.37 C 1210.52 87.88 1210.52 190.28 1261.72 162.57 C 1312.92 134.86 1277.55 204.8 1280.0 256.0 C 1282.45 307.2 1314.12 384.91 1262.92 357.85 C 1211.72 330.78 1211.72 433.18 1262.92 409.05 C 1314.12 384.91 1286.02 460.8 1280.0 512.0 C 1273.98 563.2 1257.7 643.75 1308.9 611.65 C 1360.1 579.56 1360.1 681.96 1308.9 662.85 C 1257.7 643.75 1272.69 716.8 1280.0 768.0 C 1287.31 819.2 1262.96 896.77 1314.16 867.4 C 1365.36 838.03 1365.36 940.43 1314.16 918.6 C 1262.96 896.77 1279.98 972.8 1280.0 1024.0 C 1280.02 1075.2 1248.09 1139.39 1299.29 1117.85 C 1350.49 1096.32 1350.49 1198.72 1299.29 1169.05 C 1248.09 1139.39 1289.65 1228.8 1280.0 1280.0 C 1270.35 1331.2 1298.71 1426.3 1247.51 1390.6 C 1196.31 1354.9 1196.31 1457.3 1247.51 1441.8 C 1298.71 1426.3 1272.08 1484.8 1280.0 1536.0 C 1287.92 1587.2 1306.14 1663.22 1254.94 1634.73 C 1203.74 1606.24 1203.74 1708.64 1254.94 1685.93 C 1306.14 1663.22 1285.97 1740.8 1280.0 1792.0 C 1274.03 1843.2 1296.39 1917.49 1245.19 1898.14 C 1193.99 1878.79 1193.99 1981.19 1245.19 1949.34 C 1296.39 1917.49 1284.91 1996.8 1280.0 2048.0 C 1275.09 2099.2 1308.13 2180.12 1256.93 2160.03 C 1205.73 2139.95 1205.73 2242.35 1256.93 2211.23 C 1308.13 2180.12 1284.69 2252.8 1280.0 2304.0 C 1275.31 2355.2 1260.93 2430.74 1312.13 2398.91 C 1363.33 2367.08 1363.33 2469.48 1312.13 2450.11 C 1260.93 2430.74 1276.79 2508.8 1280.0 2560.0 C 1283.21 2611.2 1295.62 2703.34 1244.42 2671.12 C 1193.22 2638.91 1193.22 2741.31 1244.42 2722.32 C 1295.62 2703.34 1285.89 2764.8 1280.0 2816.0 C 1274.11 2867.2 1312.51 2928.18 1261.31 2911.18 C 1210.11 2894.18 1210.11 2996.58 1261.31 2962.38 C 1312.51 2928.18 1279.99 3020.8 1280.0 3072.0" class="vertical" stroke="black" fill="none" stroke-width="1"/>
  <path d="M 1536.0,0.0 C 1537.21 51.2 1560.6 123.43 1509.4 103.0 C 1458.2 82.57 1458.2 184.97 1509.4 154.2 C 1560.6 123.43 1540.81 204.8 1536.0 256.0 C 1531.19 307.2 1562.05 390.57 1510.85 361.27 C 1459.65 331.97 1459.65 434.37 1510.85 412.47 C 1562.05 390.57 1538.69 460.8 1536.0 512.0 C 1533.31 563.2 1566.43 623.82 1515.23 607.79 C 1464.03 591.75 1464.03 694.15 1515.23 658.99 C 1566.43 623.82 1534.5 716.8 1536.0 768.0 C 1537.5 819.2 1512.01 901.47 1563.21 869.19 C 1614.41 836.91 1614.41 939.31 1563.21 920.39 C 1512.01 901.47 1544.52 972.8 1536.0 1024.0 C 1527.48 1075.2 1551.49 1152.67 1500.29 1127.51 C 1449.09 1102.35 1449.09 1204.75 1500.29 1178.71 C 1551.49 1152.67 1526.3 1228.8 1536.0 1280.0 C 1545.7 1331.2 1515.72 1409.7 1566.92 1390.44 C 1618.12 1371.18 1618.12 1473.58 1566.92 1441.64 C 1515.72 1409.7 1544.23 1484.8 1536.0 1536.0 C 1527.77 1587.2 1505.32 1651.74 1556.52 1630.15 C 1607.72 1608.56 1607.72 1710.96 1556.52 1681.35 C 1505.32 1651.74 1537.3 1740.8 1536.0 1792.0 C 1534.7 1843.2 1571.43 1924.27 1520.23 1891.37 C 1469.03 1858.47 1469.03 1960.87 1520.23 1942.57 C 1571.43 1924.27 1540.33 1996.8 1536.0 2048.0 C 1531.67 2099.2 1561.2 2176.76 1510.0 2152.75 C 1458.8 2128.74 1458.8 2231.14 1510.0 2203.95 C 1561.2 2176.76 1531.14 2252.8 1536.0 2304.0 C 1540.86 2355.2 1552.14 2432.54 1500.94 2402.41 C 1449.74 2372.27 1449.74 2474.67 1500.94 2453.61 C 1552.14 2432.54 1525.95 2508.8 1536.0 2560.0 C 1546.05 2611.2 1555.52 2702.75 1504.32 2671.32 C 1453.12 2639.9 1453.12 2742.3 1504.32 2722.52 C 1555.52 2702.75 1538.13 2764.8 1536.0 2816.0 C 1533.87 2867.2 1568.74 2934.0 1517.54 2915.61 C 1466.34 2897.21 1466.34 2999.61 1517.54 2966.81 C 1568.74 2934.0 1527.32 3020.8 1536.0 3072.0" class="vertical" stroke="black" fill="none" stroke-width="1"/>
  <path d="M 1792.0,0.0 C 1792.39 51.2 1768.61 130.2 1819.81 107.06 C 1871.01 83.92 1871.01 186.32 1819.81 158.26 C 1768.61 130.2 1800.07 204.8 1792.0 256.0 C 1783.93 307.2 1827.64 382.6 1776.44 352.03 C 1725.24 321.45 1725.24 423.85 1776.44 403.23 C 1827.64 382.6 1782.19 460.8 1792.0 512.0 C 1801.81 563.2 1775.86 654.78 1827.06 620.39 C 1878.26 585.99 1878.26 688.39 1827.06 671.59 C 1775.86 654.78 1800.62 716.8 1792.0 768.0 C 1783.38 819.2 1825.87 898.66 1774.67 865.83 C 1723.47 833.0 1723.47 935.4 1774.67 917.03 C 1825.87 898.66 1787.86 972.8 1792.0 1024.0 C 1796.14 1075.2 1763.59 1144.87 1814.79 1128.78 C 1865.99 1112.68 1865.99 1215.08 1814.79 1179.98 C 1763.59 1144.87 1787.78 1228.8 1792.0 1280.0 C 1796.22 1331.2 1820.14 1405.79 1768.94 1377.48 C 1717.74 1349.17 1717.74 1451.57 1768.94 1428.68 C 1820.14 1405.79 1796.87 1484.8 1792.0 1536.0 C 1787.13 1587.2 1756.78 1660.07 1807.98 1640.81 C 1859.18 1621.56 1859.18 1723.96 1807.98 1692.01 C 1756.78 1660.07 1791.06 1740.8 1792.0 1792.0 C 1792.94 1843.2 1761.36 1921.02 1812.56 1893.28 C 1863.76 1865.53 1863.76 1967.93 1812.56 1944.48 C 1761.36 1921.02 1801.33 1996.8 1792.0 2048.0 C 1782.67 2099.2 1822.07 2174.25 1770.87 2155.21 C 1719.67 2136.16 1719.67 2238.56 1770.87 2206.41 C 1822.07 2174.25 1786.85 2252.8 1792.0 2304.0 C 1797.15 2355.2 1818.88 2448.4 1767.68 2416.28 C 1716.48 2384.16 1716.48 2486.56 1767.68 2467.48 C 1818.88 2448.4 1802.21 2508.8 1792.0 2560.0 C 1781.79 2611.2 1776.38 2681.17 1827.58 2657.23 C 1878.78 2633.3 1878.78 2735.7 1827.58 2708.43 C 1776.38 2681.17 1801.86 2764.8 1792.0 2816.0 C 1782.14 2867.2 1763.91 2946.95 1815.11 2916.26 C 1866.31 2885.57 1866.31 2987.97 1815.11 2967.46 C 1763.91 2946.95 1788.86 3020.8 1792.0 3072.0" class="vertical" stroke="black" fill="none" stroke-width="1"/>
  <path d="M 2048.0,0.0 C 2039.52 51.2 2072.18 132.24 2020.98 99.33 C 1969.78 66.43 1969.78 168.83 2020.98 150.53 C 2072.18 132.24 2040.42 204.8 2048.0 256.0 C 2055.58 307.2 2074.41 388.22 2023.21 366.32 C 1972.01 344.42 1972.01 446.82 2023.21 417.52 C 2074.41 388.22 2039.44 460.8 2048.0 512.0 C 2056.56 563.2 2073.94 636.52 2022.74 616.04 C 1971.54 595.57 1971.54 697.97 2022.74 667.24 C 2073.94 636.52 2047.95 716.8 2048.0 768.0 C 2048.05 819.2 2031.61 888.95 2082.81 871.72 C 2134.01 854.49 2134.01 956.89 2082.81 922.92 C 2031.61 888.95 2049.06 972.8 2048.0 1024.0 C 2046.94 1075.2 2029.68 1145.59 2080.88 1128.3 C 2132.08 1111.02 2132.08 1213.42 2080.88 1179.5 C 2029.68 1145.59 2038.66 1228.8 2048.0 1280.0 C 2057.34 1331.2 2031.2 1415.53 2082.4 1386.01 C 2133.6 1356.5 2133.6 1458.9 2082.4 1437.21 C 2031.2 1415.53 2050.31 1484.8 2048.0 1536.0 C 2045.69 1587.2 2070.3 1651.51 2019.1 1635.67 C 1967.9 1619.84 1967.9 1722.24 2019.1 1686.87 C 2070.3 1651.51 2039.48 1740.8 2048.0 1792.0 C 2056.52 1843.2 2082.93 1923.05 2031.73 1900.47 C 1980.53 1877.88 1980.53 1980.28 2031.73 1951.67 C 2082.93 1923.05 2055.87 1996.8 2048.0 2048.0 C 2040.13 2099.2 2081.11 2172.95 2029.91 2141.69 C 1978.71 2110.43 1978.71 2212.83 2029.91 2192.89 C 2081.11 2172.95 2055.24 2252.8 2048.0 2304.0 C 2040.76 2355.2 2081.45 2426.37 2030.25 2399.95 C 1979.05 2373.52 1979.05 2475.92 2030.25 2451.15 C 2081.45 2426.37 2047.86 2508.8 2048.0 2560.0 C 2048.14 2611.2 2029.01 2693.47 2080.21 2663.09 C 2131.41 2632.71 2131.41 2735.11 2080.21 2714.29 C 2029.01 2693.47 2051.53 2764.8 2048.0 2816.0 C 2044.47 2867.2 2079.64 2939.06 2028.44 2916.34 C 1977.24 2893.61 1977.24 2996.01 2028.44 2967.54 C 2079.64 2939.06 2040.39 3020.8 2048.0 3072.0" class="vertical" stroke="black" fill="none" stroke-width="1"/>
  <path d="M 2304.0,0.0 C 2297.59 51.2 2283.27 129.67 2334.47 95.72 C 2385.67 61.77 2385.67 164.17 2334.47 146.92 C 2283.27 129.67 2303.6 204.8 2304.0 256.0 C 2304.4 307.2 2337.79 389.19 2286.59 353.99 C 2235.39 318.78 2235.39 421.18 2286.59 405.19 C 2337.79 389.19 2298.36 460.8 2304.0 512.0 C 2309.64 563.2 2279.96 646.66 2331.16 621.66 C 2382.36 596.67 2382.36 699.07 2331.16 672.86 C 2279.96 646.66 2294.26 716.8 2304.0 768.0 C 2313.74 819.2 2276.23 906.18 2327.43 880.01 C 2378.63 853.83 2378.63 956.23 2327.43 931.21 C 2276.23 906.18 2302.22 972.8 2304.0 1024.0 C 2305.78 1075.2 2273.05 1148.48 2324.25 1129.1 C 2375.45 1109.73 2375.45 1212.13 2324.25 1180.3 C 2273.05 1148.48 2297.76 1228.8 2304.0 1280.0 C 2310.24 1331.2 2336.82 1406.93 2285.62 1377.46 C 2234.42 1347.99 2234.42 1450.39 2285.62 1428.66 C 2336.82 1406.93 2304.27 1484.8 2304.0 1536.0 C 2303.73 1587.2 2325.77 1664.38 2274.57 1630.47 C 2223.37 1596.56 2223.37 1698.96 2274.57 1681.67 C 2325.77 1664.38 2311.16 1740.8 2304.0 1792.0 C 2296.84 1843.2 2273.64 1907.56 2324.84 1885.31 C 2376.04 1863.06 2376.04 1965.46 2324.84 1936.51 C 2273.64 1907.56 2301.64 1996.8 2304.0 2048.0 C 2306.36 2099.2 2274.84 2191.64 2326.04 2157.94 C 2377.24 2124.24 2377.24 2226.64 2326.04 2209.14 C 2274.84 2191.64 2307.67 2252.8 2304.0 2304.0 C 2300.33 2355.2 2273.13 2416.7 2324.33 2396.35 C 2375.53 2376.01 2375.53 2478.41 2324.33 2447.55 C 2273.13 2416.7 2307.29 2508.8 2304.0 2560.0 C 2300.71 2611.2 2327.39 2694.17 2276.19 2666.6 C 2224.99 2639.04 2224.99 2741.44 2276.19 2717.8 C 2327.39 2694.17 2301.31 2764.8 2304.0 2816.0 C 2306.69 2867.2 2337.07 2940.32 2285.87 2916.91 C 2234.67 2893.49 2234.67 2995.89 2285.87 2968.11 C 2337.07 2940.32 2309.35 3020.8 2304.0 3072.0" class="vertical" stroke="black" fill="none" stroke-width="1"/>
  <path d="M 2560.0,0.0 C 2562.0 51.2 2582.42 132.59 2531.22 107.89 C 2480.02 83.18 2480.02 185.58 2531.22 159.09 C 2582.42 132.59 2570.01 204.8 2560.0 256.0 C 2549.99 307.2 2589.18 378.0 2537.98 351.23 C 2486.78 324.45 2486.78 426.85 2537.98 402.43 C 2589.18 378.0 2568.11 460.8 2560.0 512.0 C 2551.89 563.2 2581.81 652.8 2530.61 619.54 C 2479.41 586.29 2479.41 688.69 2530.61 670.74 C 2581.81 652.8 2557.29 716.8 2560.0 768.0 C 2562.71 819.2 2539.65 881.41 2590.85 863.94 C 2642.05 846.47 2642.05 948.87 2590.85 915.14 C 2539.65 881.41 2556.26 972.8 2560.0 1024.0 C 2563.74 1075.2 2533.64 1150.36 2584.84 1134.51 C 2636.04 1118.65 2636.04 1221.05 2584.84 1185.71 C 2533.64 1150.36 2566.24 1228.8 2560.0 1280.0 C 2553.76 1331.2 2535.81 1415.23 2587.01 1392.21 C 2638.21 1369.19 2638.21 1471.59 2587.01 1443.41 C 2535.81 1415.23 2558.4 1484.8 2560.0 1536.0 C 2561.6 1587.2 2577.05 1663.12 2525.85 1644.16 C 2474.65 1625.21 2474.65 1727.61 2525.85 1695.36 C 2577.05 1663.12 2559.6 1740.8 2560.0 1792.0 C 2560.4 1843.2 2582.98 1922.66 2531.78 1901.8 C 2480.58 1880.95 2480.58 1983.35 2531.78 1953.0 C 2582.98 1922.66 2556.72 1996.8 2560.0 2048.0 C 2563.28 2099.2 2529.18 2178.83 2580.38 2150.83 C 2631.58 2122.83 2631.58 2225.23 2580.38 2202.03 C 2529.18 2178.83 2563.35 2252.8 2560.0 2304.0 C 2556.65 2355.2 2536.68 2440.25 2587.88 2408.83 C 2639.08 2377.42 2639.08 2479.82 2587.88 2460.03 C 2536.68 2440.25 2556.28 2508.8 2560.0 2560.0 C 2563.72 2611.2 2577.64 2684.1 2526.44 2653.3 C 2475.24 2622.49 2475.24 2724.89 2526.44 2704.5 C 2577.64 2684.1 2567.89 2764.8 2560.0 2816.0 C 2552.11 2867.2 2535.78 2945.69 2586.98 2927.67 C 2638.18 2909.65 2638.18 3012.05 2586.98 2978.87 C 2535.78 2945.69 2560.06 3020.8 2560.0 3072.0" class="vertical" stroke="black" fill="none" stroke-width="1"/>
  <path d="M 2816.0,0.0 C 2808.43 51.2 2850.45 141.83 2799.25 107.55 C 2748.05 73.26 2748.05 175.66 2799.25 158.75 C 2850.45 141.83 2811.87 204.8 2816.0 256.0 C 2820.13 307.2 2846.88 402.19 2795.68 367.73 C 2744.48 333.27 2744.48 435.67 2795.68 418.93 C 2846.88 402.19 2820.42 460.8 2816.0 512.0 C 2811.58 563.2 2798.69 650.37 2849.89 619.66 C 2901.09 588.96 2901.09 691.36 2849.89 670.86 C 2798.69 650.37 2813.7 716.8 2816.0 768.0 C 2818.3 819.2 2794.88 898.45 2846.08 878.96 C 2897.28 859.46 2897.28 961.86 2846.08 930.16 C 2794.88 898.45 2812.69 972.8 2816.0 1024.0 C 2819.31 1075.2 2799.31 1151.09 2850.51 1129.19 C 2901.71 1107.28 2901.71 1209.68 2850.51 1180.39 C 2799.31 1151.09 2808.66 1228.8 2816.0 1280.0 C 2823.34 1331.2 2795.36 1419.01 2846.56 1383.66 C 2897.76 1348.31 2897.76 1450.71 2846.56 1434.86 C 2795.36 1419.01 2819.8 1484.8 2816.0 1536.0 C 2812.2 1587.2 2841.01 1657.58 2789.81 1630.41 C 2738.61 1603.24 2738.61 1705.64 2789.81 1681.61 C 2841.01 1657.58 2807.76 1740.8 2816.0 1792.0 C 2824.24 1843.2 2789.35 1929.82 2840.55 1896.25 C 2891.75 1862.68 2891.75 1965.08 2840.55 1947.45 C 2789.35 1929.82 2818.66 1996.8 2816.0 2048.0 C 2813.34 2099.2 2785.31 2187.26 2836.51 2154.03 C 2887.71 2120.8 2887.71 2223.2 2836.51 2205.23 C 2785.31 2187.26 2824.76 2252.8 2816.0 2304.0 C 2807.24 2355.2 2784.2 2435.55 2835.4 2411.42 C 2886.6 2387.3 2886.6 2489.7 2835.4 2462.62 C 2784.2 2435.55 2820.8 2508.8 2816.0 2560.0 C 2811.2 2611.2 2841.23 2671.97 2790.03 2655.42 C 2738.83 2638.88 2738.83 2741.28 2790.03 2706.62 C 2841.23 2671.97 2824.42 2764.8 2816.0 2816.0 C 2807.58 2867.2 2837.2 2955.52 2786.0 2921.12 C 2734.8 2886.71 2734.8 2989.11 2786.0 2972.32 C 2837.2 2955.52 2811.43 3020.8 2816.0 3072.0" class="vertical" stroke="black" fill="none" stroke-width="1"/>
  <path d="M 2.0 0.0 L 3070.0 0.0 A 2.0 2.0 0 0 1 3072.0 2.0 L 3072.0 3070.0 A 2.0 2.0 0 0 1 3070.0 3072.0 L 2.0 3072.0 A 2.0 2.0 0 0 1 0.0 3070.0 L 0.0 2.0 A 2.0 2.0 0 0 1 2.0 0.0 " class="border" stroke="black" fill="none" stroke-width="1"/>
</svg>
