<svg xmlns="http://www.w3.org/2000/svg" viewBox="0 0 4 4">
  <path d="M 0,0 L 4,0 " class="horizontal" stroke="black" fill="none" stroke-width="1"/>
  <path d="M 0.0,1.0 C 0.07 1.0 0.12 0.97 0.2 0.99 C 0.28 1.01 0.46 1.14 0.49 1.13 C 0.52 1.12 0.42 1.0 0.39 0.93 C 0.36 0.86 0.25 0.76 0.3 0.73 C 0.35 0.7 0.65 0.7 0.7 0.73 C 0.75 0.76 0.62 0.86 0.59 0.93 C 0.55 1.0 0.45 1.12 0.49 1.13 C 0.52 1.14 0.72 1.04 0.8 1.02 C 0.88 1.0 0.93 1.01 1.0 1.0 C 1.07 0.99 1.12 0.96 1.2 0.98 C 1.28 1.0 1.45 1.1 1.48 1.09 C 1.51 1.08 1.41 0.96 1.38 0.89 C 1.34 0.82 1.22 0.72 1.27 0.69 C 1.32 0.66 1.62 0.66 1.67 0.69 C 1.72 0.72 1.61 0.82 1.58 0.89 C 1.55 0.96 1.44 1.08 1.48 1.09 C 1.52 1.1 1.71 0.98 1.8 0.97 C 1.89 0.96 1.93 0.99 2.0 1.0 C 2.07 1.01 2.11 1.02 2.2 1.03 C 2.29 1.04 2.49 1.1 2.53 1.08 C 2.57 1.06 2.46 0.95 2.42 0.88 C 2.38 0.81 2.26 0.71 2.31 0.68 C 2.36 0.65 2.66 0.65 2.71 0.68 C 2.76 0.71 2.65 0.81 2.62 0.88 C 2.59 0.95 2.5 1.06 2.53 1.08 C 2.56 1.1 2.72 1.01 2.8 1.0 C 2.88 0.99 2.93 1.0 3.0 1.0 C 3.07 1.0 3.12 1.02 3.2 1.0 C 3.28 0.98 3.47 0.86 3.51 0.87 C 3.55 0.88 3.45 1.0 3.42 1.07 C 3.39 1.14 3.29 1.24 3.34 1.27 C 3.39 1.3 3.69 1.3 3.74 1.27 C 3.79 1.24 3.66 1.14 3.62 1.07 C 3.58 1.0 3.48 0.88 3.51 0.87 C 3.54 0.86 3.72 0.98 3.8 1.0 C 3.88 1.02 3.93 1.0 4.0 1.0 " class="horizontal" stroke="black" fill="none" stroke-width="1"/>
  <path d="M 0.0,2.0 C 0.07 2.0 0.13 2.0 0.2 1.99 C 0.27 1.98 0.41 1.9 0.44 1.92 C 0.47 1.94 0.39 2.05 0.37 2.12 C 0.35 2.19 0.25 2.29 0.31 2.32 C 0.37 2.35 0.67 2.35 0.71 2.32 C 0.75 2.29 0.62 2.19 0.57 2.12 C 0.52 2.05 0.4 1.94 0.44 1.92 C 0.48 1.9 0.71 1.98 0.8 1.99 C 0.89 2.0 0.93 2.0 1.0 2.0 C 1.07 2.0 1.12 2.03 1.2 2.01 C 1.28 1.99 1.45 1.88 1.49 1.9 C 1.53 1.92 1.45 2.03 1.43 2.1 C 1.41 2.17 1.31 2.27 1.37 2.3 C 1.43 2.33 1.73 2.33 1.77 2.3 C 1.81 2.27 1.68 2.17 1.63 2.1 C 1.58 2.03 1.46 1.91 1.49 1.9 C 1.52 1.89 1.72 2.0 1.8 2.02 C 1.88 2.04 1.93 2.01 2.0 2.0 C 2.07 1.99 2.11 2.0 2.2 1.98 C 2.29 1.96 2.49 1.89 2.53 1.91 C 2.57 1.93 2.47 2.04 2.44 2.11 C 2.41 2.18 2.3 2.28 2.35 2.31 C 2.4 2.34 2.7 2.34 2.75 2.31 C 2.8 2.28 2.68 2.18 2.64 2.11 C 2.6 2.04 2.5 1.93 2.53 1.91 C 2.56 1.89 2.72 1.98 2.8 1.99 C 2.88 2.0 2.93 2.0 3.0 2.0 C 3.07 2.0 3.12 2.0 3.2 2.01 C 3.28 2.02 3.46 2.09 3.5 2.07 C 3.54 2.05 3.44 1.94 3.42 1.87 C 3.4 1.8 3.3 1.7 3.35 1.67 C 3.4 1.64 3.7 1.64 3.75 1.67 C 3.8 1.7 3.66 1.8 3.62 1.87 C 3.58 1.94 3.47 2.05 3.5 2.07 C 3.53 2.09 3.72 2.01 3.8 2.0 C 3.88 1.99 3.93 2.0 4.0 2.0 " class="horizontal" stroke="black" fill="none" stroke-width="1"/>
  <path d="M 0.0,3.0 C 0.07 2.99 0.12 2.96 0.2 2.98 C 0.28 3.0 0.46 3.1 0.49 3.09 C 0.52 3.08 0.42 2.96 0.38 2.89 C 0.34 2.82 0.22 2.72 0.27 2.69 C 0.32 2.66 0.62 2.66 0.67 2.69 C 0.72 2.72 0.61 2.82 0.58 2.89 C 0.55 2.96 0.45 3.07 0.49 3.09 C 0.53 3.11 0.72 3.02 0.8 3.0 C 0.88 2.98 0.93 3.0 1.0 3.0 C 1.07 3.0 1.12 2.99 1.2 3.0 C 1.28 3.01 1.46 3.1 1.49 3.08 C 1.52 3.06 1.44 2.95 1.41 2.88 C 1.38 2.81 1.27 2.71 1.32 2.68 C 1.37 2.65 1.67 2.65 1.72 2.68 C 1.77 2.71 1.65 2.81 1.61 2.88 C 1.57 2.95 1.46 3.06 1.49 3.08 C 1.52 3.1 1.72 3.0 1.8 2.99 C 1.88 2.98 1.93 3.0 2.0 3.0 C 2.07 3.0 2.12 3.02 2.2 3.01 C 2.28 3.0 2.46 2.9 2.5 2.92 C 2.54 2.94 2.45 3.05 2.43 3.12 C 2.41 3.19 2.3 3.29 2.36 3.32 C 2.42 3.35 2.72 3.35 2.76 3.32 C 2.8 3.29 2.67 3.19 2.63 3.12 C 2.59 3.05 2.47 2.94 2.5 2.92 C 2.53 2.9 2.72 2.98 2.8 2.99 C 2.88 3.0 2.93 3.0 3.0 3.0 C 3.07 3.0 3.12 2.99 3.2 3.01 C 3.28 3.03 3.47 3.14 3.51 3.13 C 3.54 3.12 3.44 3.0 3.41 2.93 C 3.38 2.86 3.26 2.76 3.31 2.73 C 3.36 2.7 3.66 2.7 3.71 2.73 C 3.76 2.76 3.64 2.86 3.61 2.93 C 3.58 3.0 3.48 3.11 3.51 3.13 C 3.54 3.15 3.72 3.06 3.8 3.04 C 3.88 3.02 3.93 3.01 4.0 3.0 " class="horizontal" stroke="black" fill="none" stroke-width="1"/>
  <path d="M 0,4 L 4,4 " class="horizontal" stroke="black" fill="none" stroke-width="1"/>
  <path d="M 0,0 L 0,4 " class="vertical" stroke="black" fill="none" stroke-width="1"/>
  <path d="M 1.0,0.0 C 1.01 0.07 1.02 0.12 1.03 0.2 C 1.04 0.28 1.1 0.45 1.07 0.48 C 1.04 0.51 0.94 0.41 0.87 0.37 C 0.8 0.33 0.7 0.2 0.67 0.25 C 0.64 0.3 0.64 0.6 0.67 0.65 C 0.7 0.7 0.8 0.6 0.87 0.57 C 0.94 0.54 1.05 0.44 1.07 0.48 C 1.09 0.52 1.0 0.71 0.99 0.8 C 0.98 0.89 1.0 0.93 1.0 1.0 C 1.0 1.07 1.0 1.12 1.01 1.2 C 1.02 1.28 1.09 1.43 1.07 1.46 C 1.05 1.49 0.94 1.41 0.87 1.38 C 0.8 1.35 0.7 1.25 0.67 1.3 C 0.64 1.35 0.64 1.65 0.67 1.7 C 0.7 1.75 0.8 1.62 0.87 1.58 C 0.94 1.54 1.04 1.42 1.07 1.46 C 1.1 1.5 1.04 1.71 1.03 1.8 C 1.02 1.89 1.01 1.93 1.0 2.0 C 0.99 2.07 0.96 2.11 0.97 2.2 C 0.98 2.29 1.1 2.48 1.08 2.52 C 1.07 2.56 0.95 2.46 0.88 2.43 C 0.81 2.4 0.71 2.29 0.68 2.34 C 0.65 2.39 0.65 2.69 0.68 2.74 C 0.71 2.79 0.81 2.67 0.88 2.63 C 0.95 2.59 1.06 2.49 1.08 2.52 C 1.1 2.55 1.04 2.72 1.03 2.8 C 1.02 2.88 1.01 2.93 1.0 3.0 C 0.99 3.07 0.95 3.12 0.97 3.2 C 0.99 3.28 1.13 3.46 1.12 3.5 C 1.11 3.54 0.99 3.45 0.92 3.42 C 0.85 3.39 0.75 3.28 0.72 3.33 C 0.69 3.38 0.69 3.68 0.72 3.73 C 0.75 3.78 0.85 3.66 0.92 3.62 C 0.99 3.58 1.1 3.47 1.12 3.5 C 1.14 3.53 1.04 3.72 1.02 3.8 C 1.0 3.88 1.01 3.93 1.0 4.0 " class="vertical" stroke="black" fill="none" stroke-width="1"/>
  <path d="M 2.0,0.0 C 2.0 0.07 1.98 0.11 2.0 0.2 C 2.02 0.3 2.11 0.53 2.09 0.57 C 2.07 0.61 1.96 0.48 1.89 0.44 C 1.82 0.4 1.72 0.26 1.69 0.3 C 1.66 0.34 1.66 0.64 1.69 0.7 C 1.72 0.76 1.82 0.66 1.89 0.64 C 1.96 0.62 2.07 0.54 2.09 0.57 C 2.11 0.6 2.04 0.73 2.03 0.8 C 2.01 0.87 2.01 0.93 2.0 1.0 C 1.99 1.07 1.96 1.12 1.97 1.2 C 1.98 1.28 2.09 1.44 2.07 1.48 C 2.05 1.52 1.94 1.43 1.87 1.41 C 1.8 1.38 1.7 1.28 1.67 1.33 C 1.64 1.38 1.64 1.68 1.67 1.73 C 1.7 1.78 1.8 1.65 1.87 1.61 C 1.94 1.57 2.05 1.45 2.07 1.48 C 2.09 1.51 2.0 1.71 1.99 1.8 C 1.98 1.89 2.0 1.93 2.0 2.0 C 2.0 2.07 2.02 2.12 2.01 2.2 C 1.99 2.28 1.89 2.46 1.91 2.5 C 1.93 2.54 2.04 2.45 2.11 2.43 C 2.18 2.41 2.28 2.3 2.31 2.36 C 2.34 2.42 2.34 2.72 2.31 2.76 C 2.28 2.8 2.18 2.67 2.11 2.63 C 2.04 2.59 1.93 2.47 1.91 2.5 C 1.89 2.53 1.99 2.72 2.01 2.8 C 2.02 2.88 2.0 2.93 2.0 3.0 C 2.0 3.07 2.0 3.11 1.99 3.2 C 1.98 3.29 1.91 3.48 1.93 3.52 C 1.95 3.56 2.06 3.46 2.13 3.43 C 2.2 3.4 2.3 3.29 2.33 3.34 C 2.36 3.39 2.36 3.69 2.33 3.74 C 2.3 3.79 2.2 3.67 2.13 3.63 C 2.06 3.59 1.95 3.49 1.93 3.52 C 1.91 3.55 2.01 3.72 2.02 3.8 C 2.03 3.88 2.01 3.93 2.0 4.0 " class="vertical" stroke="black" fill="none" stroke-width="1"/>
  <path d="M 3.0,0.0 C 3.0 0.07 3.02 0.12 3.0 0.2 C 2.98 0.28 2.89 0.45 2.91 0.48 C 2.93 0.51 3.04 0.41 3.11 0.37 C 3.18 0.33 3.28 0.21 3.31 0.26 C 3.34 0.31 3.34 0.61 3.31 0.66 C 3.28 0.71 3.18 0.6 3.11 0.57 C 3.04 0.54 2.92 0.44 2.91 0.48 C 2.9 0.52 3.0 0.71 3.02 0.8 C 3.04 0.89 3.01 0.93 3.0 1.0 C 2.99 1.07 2.96 1.12 2.98 1.2 C 3.0 1.28 3.11 1.47 3.1 1.51 C 3.09 1.55 2.97 1.45 2.9 1.42 C 2.83 1.39 2.73 1.27 2.7 1.32 C 2.67 1.37 2.67 1.67 2.7 1.72 C 2.73 1.77 2.83 1.66 2.9 1.62 C 2.97 1.59 3.08 1.48 3.1 1.51 C 3.12 1.54 3.01 1.72 2.99 1.8 C 2.97 1.88 3.0 1.93 3.0 2.0 C 3.0 2.07 3.02 2.11 3.01 2.2 C 2.99 2.29 2.89 2.49 2.91 2.53 C 2.93 2.57 3.04 2.46 3.11 2.43 C 3.18 2.4 3.28 2.28 3.31 2.33 C 3.34 2.38 3.34 2.68 3.31 2.73 C 3.28 2.78 3.18 2.66 3.11 2.63 C 3.04 2.6 2.93 2.5 2.91 2.53 C 2.89 2.56 2.98 2.72 2.99 2.8 C 3.01 2.88 3.0 2.93 3.0 3.0 C 3.0 3.07 3.03 3.12 3.01 3.2 C 2.99 3.28 2.88 3.47 2.89 3.5 C 2.9 3.53 3.02 3.42 3.09 3.37 C 3.16 3.32 3.26 3.19 3.29 3.23 C 3.32 3.27 3.32 3.57 3.29 3.63 C 3.26 3.69 3.16 3.59 3.09 3.57 C 3.02 3.55 2.91 3.46 2.89 3.5 C 2.87 3.54 2.96 3.72 2.98 3.8 C 3.0 3.88 2.99 3.93 3.0 4.0 " class="vertical" stroke="black" fill="none" stroke-width="1"/>
  <path d="M 4,0 L 4,4 " class="vertical" stroke="black" fill="none" stroke-width="1"/>
</svg>
